<svg xmlns="http://www.w3.org/2000/svg" width="172" height="29" viewBox="0 0 172 29" class="UnifiedNav-logoSVG" style="color:#3D69FF" fill="#3D69FF"><g fill-rule="evenodd"><path d="M14.4942 29v-5.5674c5.9572 0 10.5633-5.8478 8.2892-12.059-.8425-2.3006-2.693-4.1355-5.0126-4.9706-6.262-2.2534-12.1564 2.3135-12.1573 8.2207 0 0-.0006.0014-.0014.0014H0C0 5.2123 9.1687-2.1167 19.1138.9624c4.3459 1.3457 7.7993 4.7708 9.1561 9.081C31.3742 19.9068 23.985 29 14.4942 29"></path><path d="M14.507 23.4468H8.9103v-5.549s.0005-.0011.0011-.0011h5.5949c.0006 0 .0009.0006.0009.0006v5.5495M8.9093 27.7118H4.6105l-.0012-.0012v-4.2638h4.3009v4.2638l-.0009.0012M4.6125 23.4468H1.0088c-.0015 0-.0026-.0012-.0026-.0012v-3.5724s.0011-.0025.0026-.0025h3.601c.0015 0 .0027.0011.0027.0011v3.575M43.2806 9.6357h1.649c1.8346 0 3.345.358 4.49 1.0647 1.2714.7603 1.9164 2.2069 1.9164 4.2991 0 2.1554-.6465 3.6671-1.9207 4.4942h-.0008c-1.0971.7196-2.5981 1.0846-4.462 1.0846h-1.6719V9.6357zm8.324-1.0736c-1.6598-1.142-3.7252-1.721-6.1387-1.721h-5.2537V23.373h5.2537c2.4074 0 4.4737-.6113 6.1407-1.8157.907-.6382 1.6197-1.5304 2.1185-2.651.4962-1.1144.7479-2.4288.7479-3.9067 0-1.4605-.2517-2.758-.7482-3.857-.4988-1.104-1.212-1.972-2.1202-2.5804zM58.1303 6.6376c-.5051 0-.9403.1777-1.2906.5254-.3546.335-.5346.7597-.5346 1.2618 0 .501.1791.9322.532 1.2825.3529.35.788.528 1.2932.528.5042 0 .9394-.178 1.2928-.528.3535-.3508.5324-.7821.5324-1.2825 0-.5015-.18-.926-.5324-1.2592-.3534-.3503-.7886-.528-1.2928-.528M56.6247 23.3729h2.9538V11.7294h-2.9538zM69.5321 19.5787c-.5162.5814-1.1793.8635-2.0264.8635-.8471 0-1.5064-.282-2.015-.863-.5065-.5777-.7637-1.3439-.7637-2.2773 0-.9479.2572-1.7238.764-2.3058.502-.576 1.1796-.8683 2.0147-.8683.8465 0 1.5096.284 2.0262.8695.5142.582.7751 1.3573.7751 2.3046 0 .9328-.2609 1.6988-.7749 2.2768zm.775-6.8767c-.8908-.7858-1.8858-1.2444-2.9614-1.2444-1.6305 0-2.9859.5598-4.0276 1.662-1.0555 1.0932-1.5907 2.5006-1.5907 4.1823 0 1.644.5269 3.0464 1.568 4.1709 1.0498 1.088 2.4123 1.6396 4.0503 1.6396 1.139 0 2.1182-.3144 2.9157-.9356v.268c0 .9662-.2608 1.7176-.7751 2.234-.5137.5154-1.226.7764-2.1173.7764-1.3637 0-2.2183-.5314-3.2589-1.9262l-2.0115 1.917.0542.0754c.4346.605 1.1 1.197 1.9785 1.7594.8787.5603 1.9832.8447 3.2832.8447 1.7536 0 3.1726-.5363 4.2172-1.5933 1.0506-1.0628 1.5835-2.486 1.5835-4.2286V11.7294H70.307v.9726zM75.7434 23.3729h2.9541V11.7294h-2.9541zM77.249 6.6376c-.5052 0-.94.1777-1.2906.5254-.3547.335-.5344.7597-.5344 1.2618 0 .501.1789.9322.532 1.2825.353.35.7878.528 1.293.528.5045 0 .9396-.178 1.2928-.528.3535-.3508.5323-.7821.5323-1.2825 0-.5015-.1797-.926-.5323-1.2592-.3532-.3503-.7883-.528-1.2929-.528M85.1724 8.5831h-2.9082v3.1463h-1.6888v2.6702h1.6888v4.8365c0 1.5134.3047 2.5964.9064 3.2181.6031.6247 1.6741.9414 3.1831.9414.48 0 .963-.0156 1.4354-.0463l.133-.0088v-2.6683l-1.013.0526c-.7033 0-1.1728-.1226-1.3961-.3637-.226-.245-.3406-.7636-.3406-1.5404v-4.421h2.7497v-2.6703h-2.7497V8.583M101.7735 23.3729h2.9544V6.8412h-2.9544zM134.5728 19.2094c-.5286.5874-1.0693 1.0966-1.4855 1.3613v.0005c-.4085.2599-.924.3918-1.532.3918-.8703 0-1.5703-.3144-2.1405-.9621-.567-.644-.8545-1.4716-.8545-2.4613s.2838-1.8162.8436-2.4556c.5625-.6434 1.2588-.9562 2.1285-.9562.9515 0 1.9548.5869 2.8145 1.5947l1.9525-1.8568c-1.273-1.6433-2.897-2.4081-4.8352-2.4081-1.622 0-3.028.5862-4.1788 1.7411-1.1446 1.147-1.7251 2.6074-1.7251 4.3409 0 1.7335.58 3.1977 1.7234 4.352 1.1447 1.1557 2.5514 1.7417 4.1805 1.7417 2.139 0 3.8651-.9158 5.029-2.5935l-1.9204-1.8304M140.2405 16.0973c.1422-.5567.401-1.0207.7714-1.381.4005-.3906.9214-.5885 1.5489-.5885.716 0 1.2702.2019 1.6474.6014.3495.3696.5467.8296.588 1.368h-4.5557zm6.4569-2.7414c-.4191-.5788-.9896-1.0448-1.6965-1.3854-.7047-.3404-1.526-.513-2.441-.513-1.6489 0-2.9982.6037-4.0113 1.7946-.9836 1.182-1.4818 2.651-1.4818 4.3665 0 1.7648.547 3.2253 1.6254 4.341 1.0727 1.1105 2.5083 1.6737 4.267 1.6737 1.992 0 3.627-.799 4.8587-2.3752l.0666-.0847-1.9273-1.837c-.1789.2139-.4317.4561-.6628.6722-.2918.273-.5659.4842-.8588.6289-.4415.218-.9369.3255-1.4907.3255-.8187 0-1.4964-.2388-2.0147-.71-.4847-.4403-.768-1.0345-.843-1.7683h7.8265l.0264-1.0693c0-.7569-.1038-1.4862-.3088-2.1677a6.312 6.312 0 0 0-.934-1.8918zM152.797 18.9234c.3352-.2318.8085-.3483 1.4073-.3483.7112 0 1.4654.1413 2.2426.421v1.1421c-.6421.592-1.4996.8922-2.5499.8922-.5114 0-.909-.1126-1.1822-.3355-.2683-.218-.3985-.4955-.3985-.847 0-.3994.1571-.7022.4808-.9245zm5.2452-6.3229h-.0003c-.8952-.758-2.1328-1.143-3.678-1.143-.9829 0-1.902.2144-2.7336.6324-.7691.387-1.5245 1.0275-2.0043 1.8662l.0298.0358 1.8917 1.796c.7791-1.2322 1.6454-1.66 2.7941-1.66.6172 0 1.1298.1643 1.5234.4881.3916.3216.5819.7304.5819 1.249v.5652c-.7324-.221-1.4629-.333-2.1738-.333-1.47 0-2.6663.3432-3.555 1.0193-.9.6852-1.3562 1.665-1.3562 2.9125 0 1.094.3847 1.9829 1.1461 2.6433.7677.6372 1.7275.961 2.8524.961 1.1246 0 2.177-.4495 3.132-1.2191v.9587h2.9089v-7.4852c0-1.4173-.4572-2.523-1.3591-3.2872zM170.7656 12.8285c-.8227-.9092-1.9791-1.371-3.4371-1.371-1.172 0-2.1236.3338-2.8357.9926v-.7207h-2.897v11.6435h2.954v-6.4215c0-.8823.2119-1.5828.6293-2.0826.4162-.4987.989-.741 1.75-.741.6691 0 1.1765.2167 1.5506.662.3759.4474.5662 1.0638.5662 1.8335v6.7496H172v-6.7496c0-1.6127-.415-2.889-1.2344-3.7948M92.8158 18.9234c.3351-.2318.8087-.3483 1.4075-.3483.7112 0 1.4652.1413 2.2426.421v1.1421c-.6421.592-1.4998.8922-2.5502.8922-.5114 0-.9087-.1126-1.1819-.3355-.2683-.218-.3988-.4955-.3988-.847 0-.3994.1574-.7022.4808-.9245zm5.2451-6.3229h-.0003c-.8952-.758-2.1328-1.143-3.6776-1.143-.983 0-1.902.2144-2.7337.6324-.7694.387-1.5247 1.0275-2.0043 1.8662l.0295.0358 1.8917 1.796c.7792-1.2322 1.6458-1.66 2.7941-1.66.6172 0 1.1298.1643 1.5234.4881.3916.3216.5822.7304.5822 1.249v.5652c-.7327-.221-1.4631-.333-2.174-.333-1.47 0-2.6664.3432-3.555 1.0193-.8999.6852-1.3562 1.665-1.3562 2.9125 0 1.094.3847 1.9829 1.1463 2.6433.7677.6372 1.7272.961 2.8524.961 1.1246 0 2.1766-.4495 3.1318-1.2191v.9587H99.42v-7.4852c0-1.4173-.457-2.523-1.359-3.2872zM115.4464 9.5808c-3.0682 0-5.5645 2.4755-5.5645 5.5188s2.4963 5.5188 5.5645 5.5188c3.0682 0 5.5645-2.4755 5.5645-5.5188s-2.4963-5.5188-5.5645-5.5188zm0 14.0408c-4.7383 0-8.5928-3.8228-8.5928-8.522 0-4.6994 3.8545-8.5223 8.5928-8.5223 4.738 0 8.5925 3.8229 8.5925 8.5223 0 4.6992-3.8545 8.522-8.5925 8.522z"></path></g></svg>