<svg width="210" height="225" fill="none" xmlns="http://www.w3.org/2000/svg"><path d="M9.092 45.201c-.062-.46.215-.815.65-.977L104.153 9.13a1 1 0 0 1 .692-.002l95.913 35.102c.435.159.713.512.654.97-1.341 10.41-18.8 133.972-96.501 170.608-.26.122-.565.126-.828.009C29.214 182.474 10.527 55.759 9.092 45.201Z" fill="#EFD3AF"/><path d="m104.912 215.807 3.625 7.688-3.625-7.688Zm-.828.009 3.458-7.765-3.458 7.765Zm96.675-171.587-2.921 7.982 2.921-7.982Zm.654.97-8.43-1.085 8.43 1.086ZM104.154 9.13l2.962 7.967-2.962-7.967Zm.692-.002 2.922-7.982-2.922 7.982ZM9.741 44.224 6.78 36.257l2.961 7.967Zm-.649.977L.67 46.345l8.422-1.144Zm3.611 6.99 94.413-35.095-5.923-15.935L6.78 36.257l5.923 15.935Zm89.222-35.082 95.913 35.102 5.843-15.964-95.913-35.102-5.843 15.964Zm91.058 27.005c-.631 4.897-5.22 37.626-19.111 73.484-14.007 36.156-36.751 73.625-72.585 90.52l7.25 15.377c41.867-19.74 66.703-62.369 81.187-99.756 14.598-37.684 19.409-71.94 20.119-77.453l-16.86-2.172Zm-85.441 163.937c-34.19-15.226-56.523-52.428-70.553-89.122-13.874-36.288-18.795-69.873-19.474-74.872L.67 46.345c.755 5.56 5.894 40.61 20.44 78.655 14.39 37.638 38.835 80.464 79.516 98.581l6.916-15.53Zm-6.255.067a7.507 7.507 0 0 1 6.255-.067l-6.916 15.53a9.498 9.498 0 0 0 7.911-.086l-7.25-15.377Zm96.551-155.907a7.445 7.445 0 0 1-3.518-2.718 7.666 7.666 0 0 1-1.337-5.379l16.86 2.172c.686-5.323-2.952-8.864-6.162-10.04l-5.843 15.965Zm-90.722-35.115a7.5 7.5 0 0 1-5.191.013l5.843-15.964a9.5 9.5 0 0 0-6.575.016l5.923 15.935ZM6.78 36.257C3.57 37.451-.054 41.02.67 46.345l16.845-2.288a7.67 7.67 0 0 1-1.303 5.393 7.446 7.446 0 0 1-3.509 2.742L6.78 36.257Z" fill="#2B6063"/><circle cx="104.5" cy="114.5" r="46.5" fill="url(#a)"/><defs><radialGradient id="a" cx="0" cy="0" r="1" gradientUnits="userSpaceOnUse" gradientTransform="rotate(90 -5 109.5) scale(46.5)"><stop stop-color="#fff"/><stop offset="1" stop-color="#2B6063"/></radialGradient></defs></svg>