<svg width="213" height="226" fill="none" xmlns="http://www.w3.org/2000/svg"><path d="M104.154 9.129 9.741 44.224c-.434.162-.711.518-.649.977 1.435 10.558 20.121 137.273 94.992 170.615.263.117.568.113.828-.009 77.701-36.636 95.16-160.197 96.501-170.607.059-.459-.219-.812-.654-.971L104.846 9.127a1 1 0 0 0-.692.002Z" fill="#BCE7F2" stroke="#2B6063" stroke-width="17"/><path d="m142.179 86.128-59.437 22.063c-.435.161-.707.555-.643 1.014 1.179 8.437 13.298 86.681 60.011 107.611a.993.993 0 0 0 .826-.009c48.467-22.965 59.861-99.262 60.97-107.6.061-.458-.213-.853-.647-1.012l-60.388-22.069a1.002 1.002 0 0 0-.692.002Z" fill="#BCE7F2" stroke="#2B6063" stroke-width="17"/></svg>