<?xml version="1.0" encoding="UTF-8" standalone="no"?>
<svg viewBox="0 0 32 32" width="200" height="200" xmlns="http://www.w3.org/2000/svg">
  <path
     fill="#ffffff"
     d="M 15.999999,6.735e-6 A 16,16 0 0 0 -6.15e-7,16 16,16 0 0 0 15.999999,31.999993 16,16 0 0 0 32.000001,16 16,16 0 0 0 15.999999,6.735e-6 Z m -1.816534,3.149209965 3.907261,2.479838 0.657257,4.141114 -1.350806,0.9092713 -1.08468,9.53428 -2.455646,1.100794 -1.633062,-2.062501 -1.122981,-12.5725706 z m 8.191535,4.9213648 3.006047,4.1330375 -3.679434,13.096809 -3.870969,-5.766145 -0.887096,0.399196 1.012094,-8.915315 3.336694,-2.2439572 z m -11.39113,10.5746005 2.467743,3.110859 -0.439517,5.629047 -2.379032,-0.407272 -2.7217751,-7.330625 z m 6.633064,1.637086 3.552421,5.292353 -4.881051,2.372978 -2.691529,-0.461697 0.437499,-5.596784 z" />
</svg>
