<svg width="456" height="253" viewBox="0 0 456 253" fill="none" xmlns="http://www.w3.org/2000/svg">
<path d="M90.9832 249C88.4166 249 86.3166 248.183 84.6832 246.55C83.2832 244.917 82.5832 242.933 82.5832 240.6V59.3L29.3832 100.25C27.2832 101.65 25.1832 102.233 23.0832 102C20.9832 101.533 19.1165 100.25 17.4832 98.15L2.78321 79.25C1.38322 77.15 0.799882 74.9333 1.03322 72.6C1.49988 70.2667 2.78322 68.4 4.88322 67L83.2832 6.45001C84.6832 5.28335 86.0832 4.58334 87.4832 4.34999C88.8832 4.11666 90.3999 4 92.0332 4H122.833C125.167 4 127.15 4.81667 128.783 6.45001C130.417 8.08334 131.233 10.0667 131.233 12.4V240.6C131.233 242.933 130.417 244.917 128.783 246.55C127.15 248.183 125.167 249 122.833 249H90.9832Z" fill="#F7F7F7"/>
<path d="M185.445 249C183.112 249 181.128 248.183 179.495 246.55C177.862 244.917 177.045 242.933 177.045 240.6V205.95C177.045 203.383 177.862 201.283 179.495 199.65C181.128 198.017 183.112 197.2 185.445 197.2H220.445C222.778 197.2 224.762 198.017 226.395 199.65C228.028 201.283 228.845 203.383 228.845 205.95V240.6C228.845 242.933 228.028 244.917 226.395 246.55C224.762 248.183 222.778 249 220.445 249H185.445Z" fill="#F7F7F7"/>
<path d="M360.738 252.5C344.171 252.5 330.054 250.05 318.388 245.15C306.721 240.25 297.154 233.483 289.688 224.85C282.221 216.217 276.621 206.3 272.888 195.1C269.154 183.667 266.937 171.533 266.237 158.7C266.004 152.4 265.771 145.517 265.538 138.05C265.538 130.35 265.538 122.65 265.538 114.95C265.771 107.25 266.004 100.133 266.237 93.6C266.704 80.7667 268.921 68.75 272.888 57.55C276.854 46.1167 282.571 36.2 290.038 27.8C297.738 19.4 307.421 12.75 319.087 7.85001C330.754 2.95001 344.638 0.5 360.738 0.5C377.071 0.5 391.071 2.95001 402.738 7.85001C414.404 12.75 423.971 19.4 431.438 27.8C439.137 36.2 444.854 46.1167 448.588 57.55C452.554 68.75 454.771 80.7667 455.238 93.6C455.704 100.133 455.938 107.25 455.938 114.95C455.938 122.65 455.938 130.35 455.938 138.05C455.938 145.517 455.704 152.4 455.238 158.7C454.771 171.533 452.671 183.667 448.938 195.1C445.204 206.3 439.604 216.217 432.138 224.85C424.671 233.483 414.988 240.25 403.088 245.15C391.421 250.05 377.304 252.5 360.738 252.5ZM360.738 212.25C375.904 212.25 386.987 207.35 393.987 197.55C401.221 187.517 404.954 173.983 405.188 156.95C405.654 150.183 405.888 143.417 405.888 136.65C405.888 129.65 405.888 122.65 405.888 115.65C405.888 108.65 405.654 102 405.188 95.7C404.954 79.1334 401.221 65.8333 393.987 55.8C386.987 45.5333 375.904 40.4 360.738 40.4C345.804 40.4 334.721 45.5333 327.488 55.8C320.488 65.8333 316.754 79.1334 316.288 95.7C316.288 102 316.171 108.65 315.938 115.65C315.938 122.65 315.938 129.65 315.938 136.65C316.171 143.417 316.288 150.183 316.288 156.95C316.754 173.983 320.604 187.517 327.837 197.55C335.071 207.35 346.038 212.25 360.738 212.25Z" fill="#F7F7F7"/>
</svg>
