<?xml version="1.0" ?><svg height="16px" version="1.1" viewBox="0 0 16 16" width="16px" xmlns="http://www.w3.org/2000/svg" xmlns:sketch="http://www.bohemiancoding.com/sketch/ns" xmlns:xlink="http://www.w3.org/1999/xlink"><title/><defs/><g fill="none" fill-rule="evenodd" id="Icons with numbers" stroke="none" stroke-width="1"><g fill="#ffffff" id="Group" transform="translate(-624.000000, -576.000000)"><path d="M632,590 C635.313709,590 638,587.313709 638,584 C638,580.686291 635.313709,578 632,578 C628.686291,578 626,580.686291 626,584 C626,587.313709 628.686291,590 632,590 M632,592 C627.581722,592 624,588.418278 624,584 C624,579.581722 627.581722,576 632,576 C636.418278,576 640,579.581722 640,584 C640,588.418278 636.418278,592 632,592 M632,589 C634.761424,589 637,586.761424 637,584 C637,581.238576 634.761424,579 632,579" id="Shape"/></g></g></svg>