<svg data-name="Layer 1" xmlns="http://www.w3.org/2000/svg" width="1046" height="638.584"><path d="M161.23 554.645c8.566 31.662 37.903 51.271 37.903 51.271s15.451-31.725 6.886-63.387-37.903-51.27-37.903-51.27-15.45 31.724-6.885 63.386Z" fill="#3f3d56"/><path d="M173.817 547.84c23.502 22.88 26.373 58.05 26.373 58.05s-35.235-1.924-58.738-24.803-26.373-58.05-26.373-58.05 35.235 1.925 58.738 24.804Z" fill="#67d6ed"/><path fill="#2f2e41" d="M113.474 636.029h827.604v2.554H113.474z"/><path d="M210.733 637.306h-33.207V604.1h33.207Zm-30.652-2.554h28.097v-28.098h-28.097ZM0 25.322h281.42v281.42H0z" fill="#3f3d56"/><path d="M281.42 95.338v6.459a29.205 29.205 0 0 1-10.036-11.376c-3.747-7.662-3.628-16.495-3.51-25.04.136-10.154.272-19.732-6.17-25.971-7.087-6.85-18.428-5.883-29.397-4.95-1.288.101-2.577.22-3.848.322-11.003.83-23.26-1.95-29.21-9.46h7.425c5.442 3.662 13.766 4.95 21.412 4.374 1.237-.085 2.509-.204 3.78-.305 11.545-.984 24.633-2.103 33.364 6.357 8.035 7.764 7.883 18.92 7.73 29.702-.118 7.95-.22 16.156 3.001 22.733a23.25 23.25 0 0 0 5.459 7.155Zm0 44.671v7.56a32.155 32.155 0 0 0-4.137-4.458c-8.747-7.713-21.31-9.409-33.448-11.07-1.577-.204-3.12-.424-4.662-.644-19.683-2.831-31.889-9.596-37.297-20.632-3.746-7.663-3.628-16.495-3.509-25.04.136-10.154.271-19.733-6.17-25.972-7.087-6.849-18.429-5.882-29.397-4.95-1.289.102-2.577.22-3.849.322-14.139 1.068-30.363-3.831-32.583-17.071-.763-4.544.373-8.714 2.051-12.732h5.56c-1.864 4.035-3.254 7.934-2.593 11.884 1.678 10.104 15.274 13.732 27.192 12.833 1.238-.085 2.51-.203 3.78-.305 11.546-.983 24.634-2.102 33.364 6.357 8.036 7.765 7.883 18.92 7.731 29.702-.119 7.951-.22 16.156 3 22.734 4.612 9.426 15.547 15.258 33.449 17.835 1.526.22 3.068.44 4.611.644 12.884 1.746 26.226 3.56 36.144 12.29q.381.331.763.713Zm0 127.452v10.444c-6.12-6.51-11.24-15.445-15.156-26.617a399.883 399.883 0 0 1-2.424-7.222c-4.391-13.274-8.935-26.989-19.75-35.753-11.563-9.359-28.126-11.427-44.146-13.427a672.44 672.44 0 0 1-6.137-.78c-25.972-3.442-42.06-11.63-49.198-25.023-4.95-9.307-4.798-20.021-4.645-30.38.186-12.307.373-23.937-8.138-31.498-9.34-8.307-24.31-7.137-38.771-6.002-1.712.136-3.408.272-5.069.39-18.665 1.289-40.077-4.645-42.993-20.7-1.44-7.865 2.238-14.833 5.781-21.58 2.035-3.866 3.967-7.545 4.95-11.325 2.069-7.781-.491-16.546-6.17-22.666h8.307a29.869 29.869 0 0 1 4.39 24.124c-1.17 4.425-3.34 8.561-5.442 12.562-3.238 6.137-6.272 11.935-5.204 17.869 2.238 12.24 20.157 16.647 35.872 15.562 1.645-.118 3.323-.254 5.002-.372 15.223-1.204 32.482-2.543 44.01 7.713 10.595 9.409 10.392 22.937 10.188 36.008-.135 9.647-.288 19.598 3.95 27.583 6.086 11.41 20.53 18.495 44.146 21.632 2 .271 4.035.525 6.07.78 17.02 2.119 34.6 4.306 47.671 14.901 12.257 9.935 17.089 24.497 21.734 38.585a584.75 584.75 0 0 0 2.407 7.138 80.35 80.35 0 0 0 8.765 18.054ZM0 138.958c7.73 9.358 24.124 12.816 38.822 11.8 1.662-.12 3.357-.255 5.07-.39 14.46-1.137 29.43-2.306 38.77 6 8.511 7.562 8.325 19.191 8.138 31.5-.152 10.358-.305 21.072 4.645 30.379 7.138 13.393 23.226 21.581 49.198 25.023 2.034.27 4.086.525 6.137.78 16.02 2 32.584 4.068 44.146 13.426 10.816 8.765 15.359 22.48 19.75 35.754.797 2.424 1.593 4.849 2.424 7.222a108.128 108.128 0 0 0 2.424 6.29h7.256a95.714 95.714 0 0 1-3.289-8.172c-.813-2.356-1.61-4.73-2.407-7.137-4.645-14.088-9.477-28.65-21.734-38.585-13.07-10.596-30.65-12.782-47.672-14.902a565.75 565.75 0 0 1-6.069-.78c-23.615-3.136-38.06-10.222-44.145-21.631-4.239-7.985-4.086-17.937-3.95-27.583.203-13.07.407-26.6-10.19-36.008-11.527-10.257-28.785-8.917-44.01-7.714-1.677.119-3.356.255-5 .373-15.716 1.085-33.635-3.323-35.873-15.563-1.068-5.933 1.967-11.731 5.205-17.868 2.102-4 4.272-8.137 5.442-12.562C16.275 86.505 10.9 73.096 0 65.772v8.307c5.95 6.137 8.663 15.105 6.56 23.073-.982 3.78-2.915 7.46-4.95 11.324-.542 1.035-1.084 2.052-1.61 3.103Zm124.486 167.784h-7.036c-.373-1.102-.729-2.221-1.102-3.34-4.39-13.274-8.934-26.99-19.75-35.754-11.562-9.358-28.125-11.426-44.145-13.427a672.44 672.44 0 0 1-6.137-.78C23.396 250.407 8.154 243.66 0 232.911v-16.868a31.994 31.994 0 0 0 3.136 9.663c6.086 11.41 20.53 18.496 44.146 21.632 2 .272 4.035.526 6.069.78 17.02 2.12 34.601 4.306 47.672 14.902 12.257 9.934 17.089 24.497 21.734 38.585.576 1.73 1.136 3.441 1.729 5.137Z" fill="#67d6ed"/><path fill="#3f3d56" d="M381.442 25.322h281.42v281.42h-281.42z"/><path d="M517.066 45.665a89.858 89.858 0 0 1-135.624 77.323V25.322h133.302a89.308 89.308 0 0 1 2.322 20.343Z" fill="#67d6ed"/><circle cx="589.964" cy="101.61" r="54.25" fill="#67d6ed"/><circle cx="467.903" cy="216.891" r="38.992" fill="#67d6ed"/><path d="M662.862 260.63v46.112H607.07a38.995 38.995 0 0 1 55.792-46.113Z" fill="#67d6ed"/><circle cx="566.23" cy="215.195" r="10.172" fill="#67d6ed"/><path fill="#3f3d56" d="M764.58 25.322H1046v281.42H764.58z"/><path d="M901.9 25.322v115.28H764.58v6.781h144.1V25.322Zm132.453 281.42L1046 290.179v-11.783l-19.937 28.346Zm-47.299-121.35-62.404 88.749 46.367 32.6h11.782l-48.706-34.244 54.606-77.662L1046 235.132v-8.29Zm-103.803-11.24-35.957 35.958 35.957 35.957 35.958-35.957Zm-26.379 35.958 26.38-26.38 26.378 26.38-26.379 26.378Z" fill="#67d6ed"/><circle cx="137.934" cy="25.543" r="25.543" fill="#f2f2f2"/><circle cx="532.579" cy="25.543" r="25.543" fill="#f2f2f2"/><circle cx="909.343" cy="25.543" r="25.543" fill="#f2f2f2"/><circle cx="506.397" cy="150.067" r="24.266" fill="#ffb8b8"/><path d="M493.625 161.562s6.386 33.206 3.832 39.592 35.76-2.554 35.76-2.554-7.663-33.207-6.386-40.87-33.206 3.832-33.206 3.832Zm-42.146 114.945 2.554 34.483 12.677 54.156 3.926 14.811 6.386-22.989-6.386-52.364-2.169-23.575-16.988-4.522zm134.102-5.109v35.76s-3.831 45.979-11.494 57.473-10.218-45.978-10.218-45.978l6.005-42.146Z" fill="#ffb8b8"/><path d="M471.913 382.512s-6.386 7.663-1.277 85.57-2.554 134.102 14.049 134.102c0 0-5.109 16.604 8.94 17.88s20.435 2.555 21.712-1.276 3.832-21.712 0-21.712c0 0 0 5.108 2.554-15.326s2.555-117.5 8.94-130.271l20.435 47.255s0 21.712 3.832 31.929 10.217 68.967 10.217 68.967l-1.277 8.94s30.652 5.109 31.929 0 1.277-12.772 0-15.326-1.277-2.554 1.277-7.663 2.555-8.94 1.277-12.772-1.277-86.847-1.277-86.847-2.554-100.896-17.88-106.005-103.45 2.555-103.45 2.555Z" fill="#2f2e41"/><path d="m488.516 609.847-10.217 17.88s-15.964-5.747-12.772 8.94c27.46 1.917 46.617-.638 46.617-.638s6.386 2.555 7.663-1.277-3.193-17.242-7.024-17.242-24.267-7.663-24.267-7.663Zm74.076-5.108s-10.217 22.989-6.386 24.266 38.315 6.386 40.87 7.663 15.326 2.554 16.603-5.109-6.386-10.217-6.386-10.217-14.049-2.554-17.88-15.326-26.82-1.277-26.82-1.277Z" fill="#2f2e41"/><path d="M535.772 194.768s-34.484-6.386-42.147 0-39.592 19.158-39.592 25.543 16.603 68.967 16.603 68.967-8.94 94.51 0 97.065 24.266-5.109 42.147 3.832 68.967-7.663 68.967-7.663-19.158-81.74-14.05-97.065 8.941-67.69 8.941-67.69-21.712-22.989-40.87-22.989Z" fill="#8985a8"/><path d="m462.973 216.48-8.94 2.554s-19.158 60.027-11.495 62.581 29.375 7.663 31.93 7.663-11.495-72.798-11.495-72.798Zm93.233-6.386 20.435 7.663s26.82 49.81 20.435 56.195-34.484 12.772-34.484 12.772Z" fill="#8985a8"/><path d="M505.66 120.095a13.716 13.716 0 0 0-6.07.268 15.828 15.828 0 0 0-4.314 2.83 50.492 50.492 0 0 1-7.376 4.887c-2.07 1.123-4.294 2.163-5.74 4.022a12.211 12.211 0 0 0-1.619 3.066 36.74 36.74 0 0 0-1.932 19.996 9.191 9.191 0 0 0 .851 2.746c1.327 2.446 4.26 3.41 6.729 4.692 4.689 2.434 8.243 6.532 12.09 10.155a23.634 23.634 0 0 0 4.776 3.68c5.487 2.992 12.193 2.016 18.352.958a3.307 3.307 0 0 0 3.3-3.338l4.862-21.866a35.673 35.673 0 0 0 1.246-9.945c-.339-5.308-3.213-12.66-7.108-16.43-4.539-4.394-12.114-5.093-18.047-5.721Z" fill="#2f2e41"/><circle cx="341.31" cy="607.969" r="10.079" fill="#67d6ed"/><path d="M341.31 637.085a29.116 29.116 0 1 1 29.116-29.116 29.149 29.149 0 0 1-29.116 29.116Zm0-55.992a26.876 26.876 0 1 0 26.876 26.876 26.907 26.907 0 0 0-26.876-26.876Z" fill="#2f2e41"/><circle cx="831.742" cy="609.246" r="10.079" fill="#67d6ed"/><path d="M831.742 638.362a29.116 29.116 0 1 1 29.116-29.116 29.149 29.149 0 0 1-29.116 29.116Zm0-55.992a26.876 26.876 0 1 0 26.877 26.876 26.907 26.907 0 0 0-26.877-26.876Z" fill="#2f2e41"/><circle cx="831.742" cy="553.051" r="10.079" fill="#67d6ed"/><path d="M831.742 582.167a29.116 29.116 0 1 1 29.116-29.116 29.149 29.149 0 0 1-29.116 29.116Zm0-55.993a26.876 26.876 0 1 0 26.877 26.877 26.907 26.907 0 0 0-26.877-26.877Z" fill="#2f2e41"/></svg>