<svg width="1516" height="753" fill="none" xmlns="http://www.w3.org/2000/svg">
    <style>
        @media (prefers-color-scheme: light) {
            path[fill="#fff"]{
                fill: #424242;
            }
          }
    
    </style>
    <rect x="159" y="223" width="315" height="61" rx="30.5" fill="#fff" />
    <path
        d="M196.36 262h-4.54l5.9-17.46h5.61l5.89 17.46h-4.53l-4.1-13.06h-.14l-4.1 13.06Zm-.6-6.87h9.47v3.2h-9.48v-3.2Zm15.34 11.78v-18h4.12v2.24h.13c.17-.4.41-.78.73-1.15.31-.37.72-.67 1.2-.9a4.83 4.83 0 0 1 6.25 2.56c.5 1 .74 2.26.74 3.8 0 1.49-.24 2.73-.71 3.73s-1.1 1.75-1.9 2.25a4.82 4.82 0 0 1-4.34.42 3.73 3.73 0 0 1-1.97-1.98h-.08v7.03h-4.17Zm4.08-11.46c0 .7.1 1.32.28 1.85.2.52.47.92.83 1.21.36.29.8.43 1.3.43.51 0 .95-.14 1.3-.43.37-.29.64-.7.82-1.21a5.7 5.7 0 0 0 .28-1.84c0-.71-.1-1.32-.28-1.84a2.58 2.58 0 0 0-.81-1.2 2.01 2.01 0 0 0-1.3-.43c-.52 0-.95.14-1.31.42-.36.28-.63.68-.83 1.2a5.45 5.45 0 0 0-.28 1.84Zm11.27 11.46v-18h4.13v2.24h.12c.17-.4.42-.78.73-1.15.31-.37.72-.67 1.2-.9a4.83 4.83 0 0 1 6.25 2.56c.5 1 .74 2.26.74 3.8a8.7 8.7 0 0 1-.71 3.73 4.82 4.82 0 0 1-6.24 2.68 3.71 3.71 0 0 1-1.97-2h-.08v7.04h-4.17Zm4.08-11.46c0 .7.1 1.32.28 1.85.2.52.47.92.83 1.21.36.29.8.43 1.3.43.52 0 .95-.14 1.3-.43.37-.29.64-.7.82-1.21.19-.53.28-1.14.28-1.84 0-.71-.1-1.32-.28-1.84a2.59 2.59 0 0 0-.81-1.2 2.01 2.01 0 0 0-1.3-.43c-.52 0-.95.14-1.31.42-.36.28-.63.68-.83 1.2a5.42 5.42 0 0 0-.28 1.84Zm15.44-10.9V262h-4.17v-17.46h4.17Zm2.65 17.45v-13.1h4.17V262h-4.17Zm2.09-14.62a2.1 2.1 0 0 1-1.5-.58 1.83 1.83 0 0 1-.64-1.41c0-.55.21-1.01.63-1.4.42-.4.93-.59 1.51-.59.6 0 1.1.2 1.5.6a1.86 1.86 0 0 1 0 2.81c-.4.38-.9.57-1.5.57Zm10.84 14.87a7.02 7.02 0 0 1-3.55-.86 5.76 5.76 0 0 1-2.27-2.36 7.54 7.54 0 0 1-.8-3.53c0-1.34.27-2.52.8-3.53a5.81 5.81 0 0 1 2.28-2.38 6.99 6.99 0 0 1 3.53-.85c1.21 0 2.27.22 3.17.66a5 5 0 0 1 2.11 1.85c.51.8.78 1.73.81 2.8h-3.9a2.59 2.59 0 0 0-.68-1.57 1.93 1.93 0 0 0-1.45-.57c-.48 0-.9.13-1.27.4a2.6 2.6 0 0 0-.85 1.2 5.5 5.5 0 0 0-.3 1.95c0 .77.1 1.42.3 1.96.2.52.5.92.85 1.2.37.26.8.4 1.27.4a1.96 1.96 0 0 0 1.76-.97c.2-.33.32-.72.38-1.18h3.89a5.67 5.67 0 0 1-.81 2.83 5 5 0 0 1-2.09 1.88c-.89.45-1.95.67-3.18.67Zm11.9-.03a5.6 5.6 0 0 1-2.22-.42 3.46 3.46 0 0 1-1.53-1.27 3.9 3.9 0 0 1-.55-2.16c0-.73.13-1.34.38-1.84.26-.5.61-.9 1.06-1.22.45-.31.97-.55 1.55-.7a9.95 9.95 0 0 1 1.88-.34 33.3 33.3 0 0 0 1.8-.21c.45-.08.78-.2.98-.34a.72.72 0 0 0 .32-.62v-.04c0-.44-.15-.78-.45-1.02-.3-.23-.71-.35-1.22-.35-.55 0-1 .12-1.33.35-.34.24-.55.57-.64 1l-3.85-.14a4.54 4.54 0 0 1 2.84-3.62 7.5 7.5 0 0 1 3.01-.54c.84 0 1.6.1 2.31.3.7.19 1.32.47 1.84.85a3.86 3.86 0 0 1 1.65 3.21v8.9h-3.92v-1.82h-.1a3.71 3.71 0 0 1-2.17 1.81 5.5 5.5 0 0 1-1.64.23Zm1.29-2.73c.45 0 .85-.09 1.21-.27.36-.18.65-.43.87-.75.22-.32.32-.7.32-1.12v-1.25a7.65 7.65 0 0 1-1.6.44l-.6.1c-.39.05-.72.15-1 .28-.27.13-.48.3-.63.51-.14.2-.21.45-.21.74 0 .43.15.76.45.98.32.23.71.34 1.19.34Zm16.47-10.58v3.07h-8.25v-3.07h8.25Zm-6.52-3.14h4.16v12.11c0 .26.04.47.12.63a.8.8 0 0 0 .37.33c.16.06.35.1.57.1a3.1 3.1 0 0 0 .91-.14l.63 3.01-.84.22a7.3 7.3 0 0 1-1.29.16 6.14 6.14 0 0 1-2.51-.34 3.27 3.27 0 0 1-1.6-1.3 4 4 0 0 1-.52-2.2v-12.58Zm8.65 16.23v-13.1h4.17V262h-4.17Zm2.09-14.62c-.59 0-1.09-.19-1.51-.58a1.86 1.86 0 0 1-.63-1.41c0-.55.21-1.01.63-1.4.42-.4.92-.59 1.5-.59.6 0 1.1.2 1.52.6.42.38.63.84.63 1.39 0 .55-.21 1.02-.63 1.41-.42.39-.92.58-1.51.58Zm10.84 14.87a7.05 7.05 0 0 1-3.54-.85 5.82 5.82 0 0 1-2.28-2.37 7.56 7.56 0 0 1-.8-3.53c0-1.35.27-2.53.8-3.54a5.75 5.75 0 0 1 2.28-2.37 7 7 0 0 1 3.54-.85c1.38 0 2.56.28 3.54.85a5.68 5.68 0 0 1 2.27 2.37c.54 1.01.8 2.2.8 3.54a7.5 7.5 0 0 1-.8 3.53 5.75 5.75 0 0 1-2.27 2.37 7 7 0 0 1-3.54.85Zm.03-3.15c.5 0 .92-.15 1.27-.46.34-.3.6-.73.79-1.28a5.7 5.7 0 0 0 .28-1.89c0-.73-.1-1.36-.28-1.9a2.88 2.88 0 0 0-.8-1.29c-.34-.3-.76-.46-1.26-.46-.52 0-.96.16-1.31.46-.36.31-.63.74-.81 1.28a6.04 6.04 0 0 0-.28 1.91c0 .72.1 1.35.28 1.9.18.54.45.96.8 1.27a2 2 0 0 0 1.32.46Zm12.89-4.57V262h-4.17v-13.1h3.96v2.41h.15c.29-.8.78-1.43 1.48-1.88.7-.46 1.53-.7 2.5-.7.92 0 1.72.22 2.4.63.68.41 1.2.98 1.58 1.72.38.73.57 1.6.56 2.58V262h-4.17v-7.53c0-.72-.18-1.3-.55-1.7a2 2 0 0 0-1.54-.61c-.44 0-.83.1-1.16.29-.33.18-.59.45-.77.8a2.9 2.9 0 0 0-.27 1.28Zm16.2 7.47v-17.46h11.91v3.43h-7.7v3.58h6.94V255h-6.93v7h-4.22Zm13.78 0v-13.1h4.05v2.4h.13c.24-.87.63-1.51 1.17-1.93a2.95 2.95 0 0 1 1.88-.64 4.24 4.24 0 0 1 1.17.15v3.63a6.9 6.9 0 0 0-1.64-.22 2.58 2.58 0 0 0-2.26 1.23 2.7 2.7 0 0 0-.33 1.37V262h-4.17Zm15.53.25a7.05 7.05 0 0 1-3.54-.85 5.82 5.82 0 0 1-2.28-2.37 7.57 7.57 0 0 1-.8-3.53c0-1.35.27-2.53.8-3.54a5.75 5.75 0 0 1 2.28-2.37 7 7 0 0 1 3.54-.85c1.38 0 2.56.28 3.54.85a5.68 5.68 0 0 1 2.27 2.37c.54 1.01.8 2.2.8 3.54a7.5 7.5 0 0 1-.8 3.53 5.75 5.75 0 0 1-2.27 2.37 7 7 0 0 1-3.54.85Zm.03-3.15c.5 0 .92-.15 1.27-.46.34-.3.6-.73.79-1.28a5.8 5.8 0 0 0 .28-1.89c0-.73-.1-1.36-.28-1.9a2.88 2.88 0 0 0-.8-1.29c-.34-.3-.76-.46-1.26-.46a2 2 0 0 0-1.32.46 2.9 2.9 0 0 0-.8 1.28 6.04 6.04 0 0 0-.28 1.91c0 .72.1 1.35.28 1.9.18.54.45.96.8 1.27a2 2 0 0 0 1.32.46Zm12.89-4.57V262h-4.17v-13.1h3.96v2.41h.15c.29-.8.78-1.43 1.48-1.88.7-.46 1.53-.7 2.5-.7.92 0 1.72.22 2.4.63.68.41 1.2.98 1.58 1.72.38.73.57 1.6.56 2.58V262h-4.17v-7.53c0-.72-.18-1.3-.55-1.7a2 2 0 0 0-1.54-.61c-.44 0-.83.1-1.16.29-.33.18-.59.45-.77.8a2.9 2.9 0 0 0-.27 1.28Zm18.43-5.62v3.07h-8.26v-3.07h8.26Zm-6.53-3.14h4.17v12.11c0 .26.04.47.12.63.08.15.2.26.37.33.15.06.34.1.57.1a3.1 3.1 0 0 0 .9-.14l.64 3.01-.85.22c-.35.08-.78.14-1.28.16a6.14 6.14 0 0 1-2.52-.34 3.27 3.27 0 0 1-1.59-1.3 4 4 0 0 1-.53-2.2v-12.58Zm14.63 16.48a7.33 7.33 0 0 1-3.54-.81 5.6 5.6 0 0 1-2.28-2.33 7.68 7.68 0 0 1-.8-3.6c0-1.36.27-2.54.8-3.55a5.78 5.78 0 0 1 2.26-2.37 6.68 6.68 0 0 1 3.44-.85c.93 0 1.78.14 2.55.43a5.5 5.5 0 0 1 3.32 3.4c.31.83.47 1.78.47 2.85v1.04h-11.38v-2.42h7.5a2.18 2.18 0 0 0-1.16-1.99c-.35-.2-.76-.3-1.22-.3a2.49 2.49 0 0 0-2.13 1.16 2.4 2.4 0 0 0-.34 1.2v2.46c0 .54.1 1 .32 1.4.2.4.5.71.9.94a3.13 3.13 0 0 0 2.39.18 2.1 2.1 0 0 0 1.25-1.19l3.83.11c-.16.86-.51 1.6-1.05 2.24a5.3 5.3 0 0 1-2.1 1.48 8.1 8.1 0 0 1-3.03.52Zm12.51-7.72V262h-4.16v-13.1h3.96v2.41h.15a3.6 3.6 0 0 1 1.48-1.88c.7-.46 1.53-.7 2.5-.7.92 0 1.71.22 2.39.63.68.41 1.21.98 1.58 1.72.39.73.57 1.6.57 2.58V262h-4.17v-7.53c0-.72-.18-1.3-.55-1.7-.37-.4-.89-.61-1.55-.61-.43 0-.82.1-1.16.29a1.9 1.9 0 0 0-.76.8c-.18.36-.27.78-.28 1.28Zm15.83 7.66a4.82 4.82 0 0 1-4.53-3c-.47-1-.7-2.24-.7-3.73 0-1.54.24-2.8.73-3.8s1.13-1.73 1.92-2.2a4.9 4.9 0 0 1 4.33-.36 4.12 4.12 0 0 1 1.93 2.05h.09v-6.6h4.16V262h-4.12v-2.12h-.13c-.18.4-.43.78-.75 1.13a3.6 3.6 0 0 1-1.22.85c-.48.22-1.05.33-1.71.33Zm1.45-3.25c.5 0 .94-.14 1.3-.43.35-.29.63-.7.82-1.21.2-.53.29-1.14.29-1.84 0-.72-.1-1.34-.29-1.86a2.54 2.54 0 0 0-.83-1.19 2.05 2.05 0 0 0-1.3-.42c-.5 0-.95.15-1.3.43a2.7 2.7 0 0 0-.82 1.2 5.53 5.53 0 0 0-.28 1.84c0 .7.1 1.31.29 1.84.18.52.45.92.8 1.21.36.29.8.43 1.32.43Z"
        fill="#424242" />
    <path
        d="M257.73 87.72a3.87 3.87 0 0 0-1.57-2.87 6.24 6.24 0 0 0-3.77-1.02 7.2 7.2 0 0 0-2.73.46c-.75.3-1.32.7-1.71 1.23a2.98 2.98 0 0 0-.58 1.8c-.03.56.1 1.05.35 1.47.26.42.62.78 1.08 1.08.46.3.99.56 1.59.78.6.22 1.24.4 1.92.55l2.81.67c1.37.31 2.62.72 3.76 1.23a11.4 11.4 0 0 1 2.96 1.87 7.82 7.82 0 0 1 2.66 6.1 8.65 8.65 0 0 1-1.47 4.98 9.3 9.3 0 0 1-4.15 3.25c-1.8.76-3.98 1.14-6.52 1.14a17.2 17.2 0 0 1-6.6-1.16 9.66 9.66 0 0 1-4.36-3.43 10.28 10.28 0 0 1-1.64-5.67h6.4a4.8 4.8 0 0 0 .9 2.63 5.08 5.08 0 0 0 2.15 1.57c.9.35 1.93.52 3.07.52 1.12 0 2.1-.16 2.92-.49a4.47 4.47 0 0 0 1.94-1.36c.46-.58.69-1.24.69-2 0-.7-.21-1.3-.63-1.77-.4-.48-1-.89-1.8-1.22-.79-.34-1.75-.64-2.89-.92l-3.4-.85a14.33 14.33 0 0 1-6.25-3.01 6.98 6.98 0 0 1-2.27-5.51 8.2 8.2 0 0 1 1.5-4.97 10.2 10.2 0 0 1 4.24-3.3 14.8 14.8 0 0 1 6.1-1.2c2.33 0 4.35.4 6.08 1.2a9.48 9.48 0 0 1 4.06 3.3 8.77 8.77 0 0 1 1.5 4.92h-6.34Zm15.1 31.08c-.81 0-1.59-.07-2.31-.2a8.47 8.47 0 0 1-1.77-.48l1.46-4.85c.77.23 1.45.36 2.06.38.63.02 1.16-.12 1.6-.43.47-.3.84-.82 1.12-1.56l.38-.99-8.41-24.12h6.84l4.86 17.22h.24l4.9-17.22h6.89l-9.12 25.98a10.9 10.9 0 0 1-1.78 3.3 7.32 7.32 0 0 1-2.83 2.19 9.9 9.9 0 0 1-4.12.78Zm40.7-25.57-5.95.37c-.1-.5-.32-.97-.66-1.37a3.49 3.49 0 0 0-1.33-1 4.51 4.51 0 0 0-1.94-.38c-1 0-1.85.22-2.55.64-.69.42-1.03.98-1.03 1.68 0 .56.22 1.04.67 1.42.44.39 1.21.7 2.3.93l4.25.86c2.28.47 3.98 1.22 5.1 2.26a5.32 5.32 0 0 1 1.68 4.1c0 1.53-.45 2.88-1.36 4.04a8.81 8.81 0 0 1-3.7 2.72c-1.55.64-3.35.96-5.39.96-3.1 0-5.57-.65-7.42-1.94a7.56 7.56 0 0 1-3.22-5.31l6.4-.34c.2.95.66 1.67 1.4 2.17.75.49 1.7.73 2.86.73 1.14 0 2.06-.22 2.75-.66.7-.44 1.06-1.02 1.07-1.72a1.8 1.8 0 0 0-.75-1.45 5.37 5.37 0 0 0-2.26-.89l-4.06-.8c-2.3-.47-4-1.26-5.12-2.39a5.9 5.9 0 0 1-1.66-4.32c0-1.5.4-2.8 1.22-3.9a7.86 7.86 0 0 1 3.46-2.51c1.5-.6 3.25-.89 5.26-.89 2.96 0 5.3.63 7 1.88a7.25 7.25 0 0 1 2.98 5.11Zm17.11-6.68v4.88h-14.13v-4.88h14.13Zm-10.92-5.62h6.5v21.86c0 .6.1 1.07.28 1.4.19.33.44.56.76.7.34.13.73.2 1.17.2.3 0 .6-.03.91-.08l.7-.14 1.03 4.84a18 18 0 0 1-1.38.35 11 11 0 0 1-2.15.26 9.9 9.9 0 0 1-4.12-.63 5.75 5.75 0 0 1-2.74-2.22 6.84 6.84 0 0 1-.96-3.82V80.93Zm25.6 29.53c-2.42 0-4.5-.5-6.24-1.47a10.04 10.04 0 0 1-4-4.18 13.84 13.84 0 0 1-1.4-6.43c0-2.41.47-4.53 1.4-6.35a10.39 10.39 0 0 1 3.96-4.26 11.54 11.54 0 0 1 6.01-1.53c1.55 0 3 .25 4.33.75a9.59 9.59 0 0 1 5.86 5.94c.56 1.48.84 3.23.84 5.22v1.79h-19.8V95.9h13.68a5 5 0 0 0-.61-2.5 4.37 4.37 0 0 0-1.7-1.69 4.83 4.83 0 0 0-2.49-.62 5 5 0 0 0-2.63.68 4.81 4.81 0 0 0-1.77 1.82c-.42.75-.64 1.6-.65 2.52v3.83c0 1.16.21 2.17.64 3.01a4.7 4.7 0 0 0 1.85 1.96 5.6 5.6 0 0 0 2.82.68c.72 0 1.38-.1 1.99-.3a3.98 3.98 0 0 0 2.52-2.41l6.01.4a8.22 8.22 0 0 1-1.88 3.78 9.43 9.43 0 0 1-3.63 2.5c-1.48.6-3.18.89-5.12.89Zm15-.46V86.55h6.2v4.13h.28a6.5 6.5 0 0 1 2.44-3.25 6.94 6.94 0 0 1 4.1-1.19c1.6 0 2.97.4 4.1 1.2a5.68 5.68 0 0 1 2.26 3.24h.25a6.24 6.24 0 0 1 2.6-3.22 8.07 8.07 0 0 1 4.47-1.22c2.19 0 3.96.7 5.33 2.1 1.37 1.38 2.06 3.34 2.06 5.89V110h-6.5V95.5c0-1.3-.34-2.27-1.03-2.92a3.64 3.64 0 0 0-2.6-.98c-1.18 0-2.1.38-2.76 1.13-.66.74-1 1.73-1 2.95V110h-6.3V95.37c0-1.15-.33-2.07-1-2.75a3.4 3.4 0 0 0-2.57-1.02c-.73 0-1.38.18-1.96.55-.57.36-1.02.86-1.36 1.51a4.8 4.8 0 0 0-.5 2.26V110h-6.5Zm-132.27 52-8.95-31.27h7.22l5.18 21.73h.26l5.71-21.73h6.19l5.7 21.77h.27l5.17-21.77h7.23L253.08 162h-6.45l-5.95-20.45h-.25L234.5 162h-6.44Zm45.56.46c-2.41 0-4.49-.5-6.23-1.47a10.03 10.03 0 0 1-4-4.18 13.82 13.82 0 0 1-1.4-6.43c0-2.41.46-4.53 1.4-6.35a10.38 10.38 0 0 1 3.96-4.26 11.54 11.54 0 0 1 6.01-1.53c1.55 0 3 .25 4.32.75a9.59 9.59 0 0 1 5.87 5.94c.56 1.48.84 3.22.84 5.22v1.79h-19.8v-4.03h13.67c0-.94-.2-1.77-.6-2.5a4.38 4.38 0 0 0-1.7-1.69 4.84 4.84 0 0 0-2.49-.62 4.83 4.83 0 0 0-4.4 2.5c-.43.75-.64 1.6-.66 2.52v3.83c0 1.16.22 2.17.65 3.01.43.85 1.05 1.5 1.84 1.95a6.23 6.23 0 0 0 4.81.39 4 4 0 0 0 2.52-2.41l6.02.4a8.2 8.2 0 0 1-1.88 3.78 9.42 9.42 0 0 1-3.63 2.5c-1.48.6-3.18.89-5.12.89Zm15.13-.46v-31.27h6.51v11.76h.2c.28-.64.7-1.28 1.24-1.93a6.53 6.53 0 0 1 2.13-1.65 7.26 7.26 0 0 1 3.3-.67 8.9 8.9 0 0 1 4.74 1.34 9.26 9.26 0 0 1 3.46 4.02 15.3 15.3 0 0 1 1.3 6.7c0 2.62-.42 4.83-1.27 6.63a8.77 8.77 0 0 1-8.25 5.45c-1.26 0-2.33-.2-3.22-.62a6.68 6.68 0 0 1-2.15-1.58 8.01 8.01 0 0 1-1.28-1.94h-.3V162h-6.4Zm6.37-11.73c0 1.4.2 2.61.58 3.65a5.41 5.41 0 0 0 1.68 2.43c.74.57 1.63.86 2.68.86a4.2 4.2 0 0 0 2.68-.88 5.46 5.46 0 0 0 1.67-2.44c.38-1.05.58-2.25.58-3.62 0-1.35-.2-2.54-.57-3.57a5.32 5.32 0 0 0-1.66-2.41 4.22 4.22 0 0 0-2.7-.87 4.3 4.3 0 0 0-2.7.84 5.27 5.27 0 0 0-1.66 2.38 10.31 10.31 0 0 0-.58 3.63Zm23.98-19.54 7.56 23.76h.29l7.57-23.76h7.33L331.06 162h-8.52l-10.8-31.27h7.35ZM345.48 162v-23.46h6.5V162h-6.5Zm3.27-26.48c-.97 0-1.8-.32-2.5-.96a3.12 3.12 0 0 1-1.01-2.34c0-.9.34-1.66 1.02-2.3a3.5 3.5 0 0 1 2.49-.98c.96 0 1.79.33 2.47.98a3.1 3.1 0 0 1 0 4.64c-.68.64-1.5.96-2.47.96Zm19.13 26.94c-2.4 0-4.48-.5-6.23-1.47a10.04 10.04 0 0 1-4-4.18 13.84 13.84 0 0 1-1.4-6.43c0-2.41.47-4.53 1.4-6.35a10.39 10.39 0 0 1 3.96-4.26 11.54 11.54 0 0 1 6.01-1.53c1.55 0 3 .25 4.33.75a9.6 9.6 0 0 1 5.86 5.94c.56 1.48.84 3.22.84 5.22v1.79h-19.8v-4.03h13.68a5 5 0 0 0-.61-2.5 4.37 4.37 0 0 0-1.7-1.69 4.84 4.84 0 0 0-2.49-.62 5 5 0 0 0-2.62.68 4.82 4.82 0 0 0-1.78 1.82c-.42.75-.64 1.6-.65 2.52v3.83c0 1.16.21 2.17.64 3.01a4.7 4.7 0 0 0 1.85 1.95 6.3 6.3 0 0 0 4.81.39 3.98 3.98 0 0 0 2.52-2.41l6.01.4a8.23 8.23 0 0 1-1.88 3.78 9.42 9.42 0 0 1-3.63 2.5c-1.48.6-3.18.89-5.12.89Zm19.47-.46-6.38-23.46h6.58l3.64 15.76h.21l3.79-15.76h6.46l3.85 15.67h.2l3.57-15.67h6.56L409.46 162h-6.88l-4.03-14.75h-.3L394.24 162h-6.88Zm343.37 27.73V221h-6.62v-31.27h6.62Zm5.44 31.27v-31.27h12.34c2.37 0 4.39.45 6.06 1.36a9.2 9.2 0 0 1 3.81 3.74 11.1 11.1 0 0 1 1.33 5.5 11 11 0 0 1-1.34 5.5 9.26 9.26 0 0 1-3.9 3.7 13.08 13.08 0 0 1-6.13 1.33h-7.87v-5.3h6.8c1.27 0 2.32-.22 3.14-.65a4.35 4.35 0 0 0 1.87-1.85c.41-.8.62-1.7.62-2.74 0-1.03-.2-1.94-.62-2.71a4.18 4.18 0 0 0-1.87-1.82 6.81 6.81 0 0 0-3.17-.66h-4.46V221h-6.61Zm55.43-20.32h-6.69a6.55 6.55 0 0 0-.75-2.31 5.89 5.89 0 0 0-3.5-2.84 7.81 7.81 0 0 0-2.48-.38c-1.62 0-3.03.4-4.23 1.2a7.7 7.7 0 0 0-2.8 3.49 13.76 13.76 0 0 0-.99 5.52c0 2.23.33 4.1 1 5.62a7.62 7.62 0 0 0 2.8 3.44 8.4 8.4 0 0 0 6.63.81 5.88 5.88 0 0 0 3.5-2.69c.4-.65.67-1.4.82-2.23l6.69.03a12.48 12.48 0 0 1-4.06 7.71 13 13 0 0 1-4.13 2.48c-1.58.6-3.38.9-5.38.9-2.8 0-5.29-.63-7.49-1.9a13.44 13.44 0 0 1-5.19-5.48c-1.26-2.39-1.9-5.29-1.9-8.69 0-3.4.65-6.3 1.93-8.7a13.4 13.4 0 0 1 5.22-5.47 14.68 14.68 0 0 1 7.42-1.89c1.82 0 3.5.25 5.04.76 1.56.51 2.94 1.25 4.14 2.23 1.2.97 2.18 2.16 2.93 3.56.77 1.4 1.26 3.01 1.47 4.83Z"
        fill="#fff" />
    <ellipse cx="317" cy="376.5" rx="313" ry="372.5" stroke="url(#a)" stroke-width="8"
        stroke-linecap="round" stroke-dasharray="26 26" />
    <rect x="134.5" y="487.5" width="366" height="88" rx="44" stroke="#fff" stroke-width="5" />
    <path
        d="M166.7 540v-17.46h7.21c1.3 0 2.44.24 3.38.71a5.1 5.1 0 0 1 2.21 2.01c.52.87.78 1.9.78 3.1a5.7 5.7 0 0 1-.8 3.08 5.06 5.06 0 0 1-2.25 1.93 8.3 8.3 0 0 1-3.45.66h-4.56v-3.33H173a4.4 4.4 0 0 0 1.6-.25c.42-.17.75-.42.97-.76.22-.35.33-.8.33-1.33 0-.54-.1-.99-.33-1.34a2 2 0 0 0-.98-.8 4.11 4.11 0 0 0-1.6-.27h-2.07V540h-4.22Zm9.83-7.98 4.34 7.98h-4.6l-4.26-7.98h4.52Zm11.92 8.23a7.33 7.33 0 0 1-3.54-.81 5.6 5.6 0 0 1-2.29-2.33 7.68 7.68 0 0 1-.79-3.6c0-1.36.27-2.54.8-3.55a5.78 5.78 0 0 1 2.26-2.37 6.68 6.68 0 0 1 3.43-.85c.94 0 1.79.14 2.56.43a5.5 5.5 0 0 1 3.32 3.4c.3.82.47 1.78.47 2.85v1.04h-11.38v-2.42h7.5c0-.44-.11-.84-.32-1.18-.2-.35-.48-.62-.84-.82-.35-.2-.76-.3-1.22-.3a2.49 2.49 0 0 0-2.13 1.17 2.3 2.3 0 0 0-.34 1.2v2.46c0 .53.1 1 .31 1.4.21.4.51.71.9.94.38.22.84.33 1.38.33.37 0 .7-.05 1-.15.3-.1.56-.26.78-.46.22-.2.38-.44.49-.73l3.82.11c-.16.86-.5 1.6-1.05 2.24a5.3 5.3 0 0 1-2.1 1.48 8.1 8.1 0 0 1-3.02.52Zm8.34-.25v-13.1h3.97v2.41h.14a3.72 3.72 0 0 1 3.7-2.57c.91 0 1.69.23 2.34.7a3.06 3.06 0 0 1 1.23 1.87h.14a3.4 3.4 0 0 1 1.43-1.86 4.38 4.38 0 0 1 2.51-.71 4 4 0 0 1 3.02 1.2 4.45 4.45 0 0 1 1.16 3.25V540h-4.17v-7.86c0-.65-.16-1.15-.5-1.49a1.73 1.73 0 0 0-1.3-.52c-.58 0-1.03.19-1.36.56-.32.37-.48.87-.48 1.5V540h-4.01v-7.9c0-.6-.17-1.09-.5-1.44a1.7 1.7 0 0 0-1.3-.53 1.76 1.76 0 0 0-1.62 1c-.15.32-.23.7-.23 1.12V540h-4.17Zm28.33.25a7.05 7.05 0 0 1-3.54-.85 5.82 5.82 0 0 1-2.28-2.37 7.57 7.57 0 0 1-.79-3.53c0-1.35.26-2.53.8-3.54a5.75 5.75 0 0 1 2.27-2.37 7 7 0 0 1 3.54-.85c1.38 0 2.56.28 3.54.85a5.68 5.68 0 0 1 2.28 2.37c.53 1.01.8 2.2.8 3.54a7.5 7.5 0 0 1-.8 3.53 5.75 5.75 0 0 1-2.28 2.37 7 7 0 0 1-3.54.85Zm.03-3.15c.5 0 .92-.15 1.27-.46.34-.3.6-.73.8-1.28a5.8 5.8 0 0 0 .27-1.89c0-.73-.1-1.36-.28-1.9a2.89 2.89 0 0 0-.8-1.29c-.34-.3-.76-.46-1.26-.46-.52 0-.96.16-1.31.46-.36.31-.63.74-.81 1.28a6.04 6.04 0 0 0-.28 1.91c0 .72.1 1.35.28 1.9.18.54.45.97.8 1.27a2 2 0 0 0 1.32.46Zm16.11-10.2v3.08H233v-3.07h8.26Zm-6.53-3.13h4.17v12.11c0 .26.04.47.12.63.08.15.2.26.37.33.16.06.35.1.57.1a3.1 3.1 0 0 0 .9-.14l.64 3.01-.84.22c-.36.08-.8.13-1.3.16a6.14 6.14 0 0 1-2.5-.34 3.27 3.27 0 0 1-1.6-1.3 4 4 0 0 1-.53-2.2v-12.58Zm14.64 16.48a7.33 7.33 0 0 1-3.55-.81 5.6 5.6 0 0 1-2.28-2.33 7.68 7.68 0 0 1-.8-3.6c0-1.36.27-2.54.8-3.55a5.78 5.78 0 0 1 2.26-2.37 6.68 6.68 0 0 1 3.44-.85c.93 0 1.78.14 2.55.43a5.5 5.5 0 0 1 3.32 3.4c.31.82.47 1.78.47 2.85v1.04H244.2v-2.42h7.5a2.21 2.21 0 0 0-1.16-2c-.35-.2-.76-.3-1.22-.3a2.49 2.49 0 0 0-2.13 1.17 2.4 2.4 0 0 0-.34 1.2v2.46c0 .53.1 1 .32 1.4.2.4.5.71.9.94a3.13 3.13 0 0 0 2.39.18 2.1 2.1 0 0 0 1.25-1.19l3.83.11c-.16.86-.51 1.6-1.05 2.24a5.3 5.3 0 0 1-2.1 1.48 8.1 8.1 0 0 1-3.02.52Zm22.93-12.47a1.98 1.98 0 0 0-.76-1.46 3 3 0 0 0-1.9-.53c-.55 0-1 .07-1.36.22-.37.14-.64.33-.82.58-.18.25-.28.53-.28.85-.01.26.04.49.15.69.12.2.29.37.51.53.23.14.5.27.82.39.32.11.68.21 1.07.3l1.5.34c.87.18 1.63.43 2.29.75.66.31 1.22.68 1.67 1.11.45.44.8.93 1.03 1.5.23.56.35 1.19.36 1.89 0 1.1-.29 2.05-.84 2.84a5.2 5.2 0 0 1-2.38 1.81 9.84 9.84 0 0 1-3.72.63c-1.46 0-2.73-.22-3.82-.65a5.4 5.4 0 0 1-2.53-2c-.6-.9-.91-2.02-.93-3.38h4.04c.04.56.19 1.03.45 1.4.27.38.64.66 1.1.86.47.19 1.02.29 1.64.29.57 0 1.05-.08 1.45-.23.4-.16.71-.37.93-.64.21-.28.32-.59.33-.94 0-.33-.1-.61-.3-.84-.2-.24-.51-.45-.93-.62-.4-.18-.93-.34-1.57-.48l-1.82-.43a7.98 7.98 0 0 1-3.57-1.68 4 4 0 0 1-1.3-3.15c0-1.08.29-2.03.87-2.84a5.77 5.77 0 0 1 2.43-1.9 8.7 8.7 0 0 1 3.54-.68c1.35 0 2.52.23 3.52.69a5.13 5.13 0 0 1 3.17 4.78h-4.04Zm12.52 12.47a7.05 7.05 0 0 1-3.55-.85 5.82 5.82 0 0 1-2.27-2.37 7.56 7.56 0 0 1-.8-3.53c0-1.35.27-2.53.8-3.54a5.75 5.75 0 0 1 2.27-2.37 7 7 0 0 1 3.55-.85c1.37 0 2.55.28 3.54.85a5.68 5.68 0 0 1 2.27 2.37c.54 1.01.8 2.2.8 3.54a7.5 7.5 0 0 1-.8 3.53 5.75 5.75 0 0 1-2.27 2.37 7 7 0 0 1-3.54.85Zm.02-3.15c.5 0 .93-.15 1.27-.46.35-.3.62-.73.8-1.28.18-.54.28-1.17.28-1.89 0-.73-.1-1.36-.28-1.9a2.88 2.88 0 0 0-.8-1.29c-.34-.3-.77-.46-1.27-.46-.51 0-.95.16-1.3.46-.36.31-.63.74-.82 1.28a6.04 6.04 0 0 0-.27 1.91c0 .72.09 1.35.27 1.9.19.54.46.97.81 1.27a2 2 0 0 0 1.31.46Zm17.17-2.75v-7.44h4.16V540h-3.97v-2.44h-.14a3.8 3.8 0 0 1-1.48 1.91c-.7.47-1.53.7-2.51.7a4.18 4.18 0 0 1-3.93-2.33 5.73 5.73 0 0 1-.57-2.59v-8.34h4.17v7.52c0 .72.19 1.28.56 1.68.37.41.87.62 1.5.62.42 0 .8-.1 1.12-.27.34-.2.6-.46.8-.82.2-.35.3-.78.3-1.3Zm6.81 5.65v-13.1h4.05v2.4h.14c.24-.87.63-1.51 1.17-1.93a2.95 2.95 0 0 1 1.88-.64 4.23 4.23 0 0 1 1.17.15v3.63a6.9 6.9 0 0 0-1.64-.22 2.61 2.61 0 0 0-2.27 1.23 2.7 2.7 0 0 0-.33 1.37V540h-4.17Zm15.54.25a7.02 7.02 0 0 1-3.56-.86 5.76 5.76 0 0 1-2.26-2.36 7.54 7.54 0 0 1-.8-3.53c0-1.34.27-2.52.8-3.53a5.8 5.8 0 0 1 2.27-2.38 6.99 6.99 0 0 1 3.54-.85c1.2 0 2.26.22 3.16.65.9.44 1.6 1.06 2.12 1.86.5.8.78 1.73.8 2.8h-3.9a2.6 2.6 0 0 0-.67-1.57 1.93 1.93 0 0 0-1.45-.57c-.48 0-.9.13-1.27.4a2.6 2.6 0 0 0-.85 1.2 5.5 5.5 0 0 0-.3 1.95c0 .77.1 1.42.3 1.95.2.53.48.93.85 1.2.36.27.79.4 1.27.4a1.96 1.96 0 0 0 1.76-.97c.2-.32.32-.71.37-1.17h3.9a5.66 5.66 0 0 1-.81 2.83c-.5.8-1.2 1.43-2.1 1.88a6.9 6.9 0 0 1-3.17.67Zm14.33 0a7.33 7.33 0 0 1-3.55-.81 5.6 5.6 0 0 1-2.28-2.33 7.68 7.68 0 0 1-.8-3.6c0-1.36.27-2.54.8-3.55a5.79 5.79 0 0 1 2.26-2.37 6.68 6.68 0 0 1 3.44-.85c.93 0 1.78.14 2.56.43a5.5 5.5 0 0 1 3.31 3.4c.31.82.47 1.78.47 2.85v1.04h-11.38v-2.42h7.5a2.21 2.21 0 0 0-1.16-2c-.35-.2-.76-.3-1.22-.3a2.49 2.49 0 0 0-2.13 1.17 2.4 2.4 0 0 0-.34 1.2v2.46c0 .53.1 1 .32 1.4.2.4.5.71.9.94.38.22.84.33 1.37.33.37 0 .7-.05 1-.15a2.02 2.02 0 0 0 1.27-1.19l3.83.11c-.16.86-.51 1.6-1.05 2.24a5.3 5.3 0 0 1-2.1 1.48 8.1 8.1 0 0 1-3.02.52Zm19.77-9.34-3.83.1a1.41 1.41 0 0 0-.32-.73 1.82 1.82 0 0 0-.7-.5 2.4 2.4 0 0 0-.97-.19c-.48 0-.89.1-1.23.3-.34.19-.5.45-.5.78 0 .25.1.48.31.66.22.19.6.34 1.15.45l2.52.48c1.31.25 2.28.67 2.92 1.25.64.58.96 1.34.97 2.3 0 .9-.27 1.68-.8 2.34a5.12 5.12 0 0 1-2.15 1.55 8.2 8.2 0 0 1-3.12.55c-1.87 0-3.34-.39-4.42-1.15a4.3 4.3 0 0 1-1.84-3.1l4.12-.1c.09.47.32.83.7 1.08.38.25.87.38 1.46.38.53 0 .97-.1 1.3-.3.34-.2.5-.46.52-.8a.85.85 0 0 0-.4-.7 3.11 3.11 0 0 0-1.2-.43l-2.28-.43a5.43 5.43 0 0 1-2.94-1.32 3.34 3.34 0 0 1-.95-2.47c0-.88.23-1.63.7-2.25a4.38 4.38 0 0 1 2.01-1.43c.87-.33 1.9-.5 3.08-.5a7 7 0 0 1 4.2 1.13 4 4 0 0 1 1.69 3.05Zm13.02 9.35a7.15 7.15 0 0 1-3.18-.65 5 5 0 0 1-2.05-1.77 4.5 4.5 0 0 1-.32-4.25c.27-.52.63-1 1.1-1.42.47-.44 1.02-.87 1.64-1.29l3.67-2.34c.41-.26.7-.54.88-.83.17-.29.26-.58.26-.87 0-.31-.12-.6-.37-.85-.24-.26-.59-.38-1.06-.38-.3 0-.56.07-.79.2-.22.12-.39.28-.51.5-.13.2-.18.44-.18.71 0 .35.1.7.3 1.07.2.36.46.75.8 1.15l1.13 1.36 8.36 9.4h-4.25l-7-7.6c-.39-.44-.8-.93-1.25-1.49a8.88 8.88 0 0 1-1.1-1.8 5.1 5.1 0 0 1 .16-4.51c.4-.7.98-1.26 1.72-1.68a5.2 5.2 0 0 1 2.6-.63c.95 0 1.78.2 2.47.59a4.19 4.19 0 0 1 2.17 3.69c0 .82-.2 1.57-.6 2.26a6.12 6.12 0 0 1-1.72 1.81l-3.59 2.57a3.6 3.6 0 0 0-.9.88c-.21.3-.32.64-.32 1a1.76 1.76 0 0 0 1.03 1.64c.33.16.72.24 1.16.24.6 0 1.18-.14 1.77-.42a5.6 5.6 0 0 0 2.8-3.03c.3-.7.44-1.49.44-2.33h3.36c0 1.04-.11 2.01-.33 2.91a8.3 8.3 0 0 1-1 2.4c-.44.71-.98 1.3-1.63 1.76a31.88 31.88 0 0 1-1.19.65c-.67.48-1.4.83-2.18 1.04-.78.2-1.55.31-2.3.31Zm19.9-.26h-4.54l5.89-17.46h5.62l5.88 17.46h-4.53l-4.1-13.06h-.14L391.38 540Zm-.61-6.87h9.48v3.2h-9.48v-3.2Zm26.38-2.22-3.83.1a1.43 1.43 0 0 0-.33-.73c-.17-.21-.4-.38-.69-.5-.28-.12-.6-.19-.97-.19-.48 0-.9.1-1.23.3-.34.19-.5.45-.5.78 0 .25.1.48.3.66.23.19.6.34 1.16.45l2.52.48a6 6 0 0 1 2.92 1.25c.64.58.96 1.34.97 2.3 0 .9-.27 1.68-.8 2.34a5.1 5.1 0 0 1-2.15 1.55c-.91.37-1.95.55-3.12.55-1.87 0-3.34-.39-4.42-1.15a4.3 4.3 0 0 1-1.84-3.1l4.11-.1c.1.47.33.83.71 1.08.38.25.87.38 1.46.38.53 0 .97-.1 1.3-.3.34-.2.5-.46.51-.8a.81.81 0 0 0-.39-.7 3.12 3.12 0 0 0-1.2-.43l-2.28-.43a5.43 5.43 0 0 1-2.94-1.32 3.34 3.34 0 0 1-.95-2.47c0-.88.23-1.63.7-2.25a4.39 4.39 0 0 1 2-1.43c.88-.33 1.9-.5 3.08-.5 1.78 0 3.18.38 4.2 1.13a4 4 0 0 1 1.7 3.05Zm13.8 0-3.83.1a1.43 1.43 0 0 0-.32-.73c-.18-.21-.4-.38-.7-.5-.27-.12-.6-.19-.96-.19-.49 0-.9.1-1.24.3-.33.19-.5.45-.5.78 0 .25.1.48.31.66.22.19.6.34 1.15.45l2.53.48c1.3.25 2.28.67 2.91 1.25.64.58.97 1.34.97 2.3 0 .9-.27 1.68-.8 2.34a5.12 5.12 0 0 1-2.15 1.55c-.9.37-1.94.55-3.12.55-1.86 0-3.34-.39-4.42-1.15a4.3 4.3 0 0 1-1.84-3.1l4.12-.1c.09.47.32.83.7 1.08.38.25.87.38 1.46.38.54 0 .97-.1 1.3-.3.34-.2.51-.46.52-.8 0-.29-.14-.52-.4-.7a3.1 3.1 0 0 0-1.2-.43l-2.28-.43a5.43 5.43 0 0 1-2.93-1.32 3.34 3.34 0 0 1-.96-2.47c0-.88.23-1.63.7-2.25a4.39 4.39 0 0 1 2.01-1.43c.87-.33 1.9-.5 3.08-.5a7 7 0 0 1 4.2 1.13 4 4 0 0 1 1.69 3.05Zm8.5 9.34a7.33 7.33 0 0 1-3.55-.81 5.6 5.6 0 0 1-2.28-2.33 7.68 7.68 0 0 1-.8-3.6c0-1.36.27-2.54.8-3.55a5.78 5.78 0 0 1 2.26-2.37 6.68 6.68 0 0 1 3.44-.85c.93 0 1.78.14 2.55.43a5.5 5.5 0 0 1 3.32 3.4c.31.82.47 1.78.47 2.85v1.04h-11.38v-2.42h7.5c0-.44-.11-.84-.32-1.18-.2-.35-.48-.62-.84-.82-.35-.2-.76-.3-1.22-.3a2.49 2.49 0 0 0-2.13 1.17 2.4 2.4 0 0 0-.34 1.2v2.46c0 .53.1 1 .31 1.4.22.4.51.71.9.94.39.22.85.33 1.38.33.37 0 .7-.05 1-.15.3-.1.57-.26.78-.46.22-.2.38-.44.49-.73l3.82.11c-.15.86-.5 1.6-1.04 2.24a5.3 5.3 0 0 1-2.1 1.48 8.1 8.1 0 0 1-3.03.52Zm15.73-13.34v3.07h-8.26v-3.07h8.25Zm-6.53-3.14h4.16v12.11c0 .26.04.47.12.63a.8.8 0 0 0 .37.33c.16.06.35.1.57.1a3.1 3.1 0 0 0 .91-.14l.63 3.01-.84.22c-.36.08-.79.13-1.29.16a6.14 6.14 0 0 1-2.51-.34 3.27 3.27 0 0 1-1.6-1.3 4 4 0 0 1-.52-2.2v-12.58Zm19.92 7.14-3.83.1a1.43 1.43 0 0 0-.32-.73 1.82 1.82 0 0 0-.7-.5 2.4 2.4 0 0 0-.97-.19c-.48 0-.9.1-1.23.3-.34.19-.5.45-.5.78 0 .25.1.48.31.66.22.19.6.34 1.15.45l2.52.48c1.31.25 2.28.67 2.92 1.25.64.58.96 1.34.97 2.3 0 .9-.27 1.68-.8 2.34a5.12 5.12 0 0 1-2.15 1.55 8.2 8.2 0 0 1-3.12.55c-1.87 0-3.34-.39-4.42-1.15a4.3 4.3 0 0 1-1.84-3.1l4.11-.1c.1.47.33.83.71 1.08.38.25.87.38 1.46.38.53 0 .97-.1 1.3-.3.34-.2.5-.46.51-.8a.81.81 0 0 0-.39-.7 3.1 3.1 0 0 0-1.2-.43l-2.28-.43a5.43 5.43 0 0 1-2.93-1.32 3.34 3.34 0 0 1-.96-2.47c0-.88.23-1.63.7-2.25a4.39 4.39 0 0 1 2.01-1.43c.87-.33 1.9-.5 3.08-.5 1.77 0 3.17.38 4.19 1.13a4 4 0 0 1 1.7 3.05Z"
        fill="#fff" />
    <rect x="1003" y="193" width="391" height="105" rx="52.5" fill="#fff" />
    <path
        d="M1114.14 238.6a4.94 4.94 0 0 1-4.97 4.91 4.95 4.95 0 0 1-4.98-4.91 4.95 4.95 0 0 1 4.98-4.91c2.75 0 4.97 2.2 4.97 4.91Z"
        fill="#FFC131" />
    <path
        d="M1105.8 252.4a4.94 4.94 0 0 1-4.97 4.91 4.94 4.94 0 0 1-4.97-4.91 4.94 4.94 0 0 1 4.97-4.91c2.75 0 4.97 2.2 4.97 4.91Z"
        fill="#24C8DB" />
    <path
        d="M1097.04 234.18A18.67 18.67 0 0 0 1082 252.4c0 10.27 8.43 18.6 18.83 18.6 8.45 0 15.6-5.5 17.99-13.07a22.1 22.1 0 0 1-7.21 2.09 13.28 13.28 0 0 1-10.78 5.47 13.17 13.17 0 0 1-13.25-13.09 13.1 13.1 0 0 1 8.69-12.3c-.2-1.99.05-4.02.77-5.92Z"
        fill="#24C8DB" />
    <path fill-rule="evenodd" clip-rule="evenodd"
        d="M1112.96 256.82A18.67 18.67 0 0 0 1128 238.6c0-10.27-8.43-18.6-18.83-18.6-8.45 0-15.6 5.5-17.99 13.07a22.1 22.1 0 0 1 7.21-2.09 13.28 13.28 0 0 1 10.78-5.47c7.32 0 13.25 5.86 13.25 13.09a13.1 13.1 0 0 1-8.69 12.3c.2 1.99-.05 4.02-.77 5.92Z"
        fill="#FFC131" />
    <path
        d="M1152.09 238.3v-4.57h19.67v4.56h-7.05V257h-5.55v-18.7h-7.07Zm24.97 19a7.44 7.44 0 0 1-2.97-.56 4.59 4.59 0 0 1-2.03-1.7 5.15 5.15 0 0 1-.74-2.88c0-.97.17-1.79.51-2.45.34-.67.81-1.21 1.41-1.63.6-.42 1.29-.73 2.07-.94a13.7 13.7 0 0 1 2.5-.45 34.4 34.4 0 0 0 2.39-.28 3.4 3.4 0 0 0 1.32-.44c.28-.2.42-.48.42-.83v-.06c0-.58-.2-1.04-.6-1.35-.4-.32-.94-.48-1.62-.48a3 3 0 0 0-1.78.48c-.44.31-.73.76-.85 1.31l-5.12-.18a6.03 6.03 0 0 1 3.78-4.82c1.11-.48 2.45-.72 4.01-.72 1.12 0 2.14.13 3.08.4.94.25 1.76.63 2.46 1.13a5.1 5.1 0 0 1 2.19 4.28V257h-5.23v-2.43h-.14a4.86 4.86 0 0 1-2.88 2.42c-.65.2-1.37.3-2.18.3Zm1.71-3.64c.6 0 1.14-.12 1.62-.37a2.7 2.7 0 0 0 1.59-2.5v-1.65a9.7 9.7 0 0 1-2.13.58l-.8.12a5.1 5.1 0 0 0-1.35.39c-.36.17-.64.4-.84.68-.19.27-.28.6-.28.98 0 .57.2 1.01.61 1.32.42.3.95.45 1.58.45Zm23.38-4.2v-9.92h5.54V257h-5.29v-3.25h-.18a5.1 5.1 0 0 1-1.98 2.55c-.93.62-2.04.93-3.35.93a5.58 5.58 0 0 1-5.24-3.1 7.54 7.54 0 0 1-.76-3.46v-11.13h5.55v10.04c.01.95.26 1.7.75 2.24.5.54 1.17.82 2.01.82.56 0 1.05-.13 1.49-.37.45-.25.8-.6 1.06-1.08.27-.47.4-1.05.4-1.72Zm9.08 7.54v-17.46h5.4v3.19h.18a4.75 4.75 0 0 1 1.56-2.57 3.92 3.92 0 0 1 2.51-.85 5.63 5.63 0 0 1 1.55.2v4.83a9.32 9.32 0 0 0-2.18-.3c-.66 0-1.25.15-1.78.45-.52.29-.94.7-1.24 1.22-.3.51-.44 1.12-.44 1.81V257h-5.56Zm13.47 0v-17.46h5.56V257h-5.56Zm2.78-19.49c-.78 0-1.45-.26-2.01-.77a2.5 2.5 0 0 1-.84-1.89c0-.72.28-1.35.84-1.86a2.84 2.84 0 0 1 2.01-.78c.79 0 1.46.26 2.01.78a2.5 2.5 0 0 1 0 3.75c-.55.51-1.22.77-2.01.77Zm34.31 4.65h-5.68a4.66 4.66 0 0 0-.47-1.58 3.9 3.9 0 0 0-2.3-1.97 5.24 5.24 0 0 0-1.74-.27c-1.13 0-2.1.28-2.92.83a5.3 5.3 0 0 0-1.88 2.4 9.98 9.98 0 0 0-.64 3.8c0 1.54.22 2.84.66 3.88a5.14 5.14 0 0 0 1.87 2.35 5.2 5.2 0 0 0 2.88.79c.62 0 1.18-.08 1.69-.24a3.91 3.91 0 0 0 2.32-1.82c.25-.45.43-.95.53-1.51l5.68.03a8.64 8.64 0 0 1-.9 3.05 9.6 9.6 0 0 1-5.19 4.7c-1.23.48-2.65.72-4.25.72-2.1 0-3.99-.46-5.66-1.39a9.96 9.96 0 0 1-3.93-4.07 13.54 13.54 0 0 1-1.44-6.5c0-2.56.49-4.73 1.46-6.5.98-1.79 2.3-3.14 3.97-4.07a11.35 11.35 0 0 1 5.6-1.38c1.41 0 2.71.2 3.91.59 1.2.39 2.25.96 3.16 1.7a8.74 8.74 0 0 1 2.22 2.74c.56 1.09.92 2.32 1.05 3.72Zm11.37 15.17a9.43 9.43 0 0 1-4.73-1.13 7.74 7.74 0 0 1-3.03-3.16 10.02 10.02 0 0 1-1.06-4.71c0-1.8.35-3.37 1.06-4.72a7.65 7.65 0 0 1 3.03-3.16 9.35 9.35 0 0 1 4.73-1.13c1.83 0 3.4.38 4.72 1.14a7.65 7.65 0 0 1 3.03 3.15 9.98 9.98 0 0 1 1.07 4.72c0 1.79-.36 3.36-1.07 4.71a7.74 7.74 0 0 1-3.03 3.16 9.4 9.4 0 0 1-4.72 1.13Zm.03-4.2c.67 0 1.23-.2 1.7-.6.46-.42.81-.99 1.05-1.71.25-.73.38-1.57.38-2.53 0-.96-.13-1.81-.38-2.54a3.83 3.83 0 0 0-1.05-1.7 2.49 2.49 0 0 0-1.7-.62c-.69 0-1.27.2-1.75.61-.47.42-.83.98-1.08 1.71a8.13 8.13 0 0 0-.36 2.54c0 .96.12 1.8.36 2.53.25.72.61 1.3 1.08 1.7a2.6 2.6 0 0 0 1.75.62Zm11.63 3.87v-17.46h5.4v3.19h.18a4.75 4.75 0 0 1 1.56-2.57 3.94 3.94 0 0 1 2.51-.85 5.88 5.88 0 0 1 1.56.2v4.83a9.17 9.17 0 0 0-2.18-.3c-.66 0-1.26.15-1.79.45a3.25 3.25 0 0 0-1.68 3.03V257h-5.56Zm20.73.33a9.75 9.75 0 0 1-4.73-1.08 7.45 7.45 0 0 1-3.05-3.1 10.3 10.3 0 0 1-1.05-4.8 10 10 0 0 1 1.06-4.74 7.75 7.75 0 0 1 3.02-3.16 8.89 8.89 0 0 1 4.58-1.13c1.24 0 2.37.2 3.4.58a7.32 7.32 0 0 1 4.42 4.52c.42 1.1.63 2.38.63 3.8v1.4h-15.17v-3.23h10a3.18 3.18 0 0 0-.42-1.58 2.84 2.84 0 0 0-1.13-1.08 3.24 3.24 0 0 0-1.62-.4 3.31 3.31 0 0 0-2.84 1.54c-.29.47-.44 1-.46 1.6v3.3a4 4 0 0 0 .42 1.87 3 3 0 0 0 1.2 1.24 4.33 4.33 0 0 0 3.18.24 3 3 0 0 0 1.03-.6c.29-.27.51-.6.65-.99l5.1.15a6.37 6.37 0 0 1-1.39 2.99 7.14 7.14 0 0 1-2.81 1.97c-1.16.46-2.5.69-4.02.69Z"
        fill="#424242" />
    <path
        d="M1086.73 110h-7.08l10.79-31.27h8.52l10.79 31.27h-7.09l-7.83-24.13h-.25l-7.85 24.13Zm-.44-12.3h16.74v5.17h-16.74V97.7Zm27.1 21.1V86.55h6.41v3.94h.29c.29-.64.7-1.28 1.24-1.93a6.49 6.49 0 0 1 2.14-1.65 7.22 7.22 0 0 1 3.29-.67 8.85 8.85 0 0 1 8.2 5.36c.87 1.78 1.3 4.02 1.3 6.7 0 2.62-.42 4.83-1.27 6.63a8.75 8.75 0 0 1-8.24 5.45 7.5 7.5 0 0 1-3.22-.62 6.66 6.66 0 0 1-2.16-1.58 8.11 8.11 0 0 1-1.28-1.94h-.2v12.56h-6.5Zm6.36-20.53c0 1.4.2 2.61.59 3.65a5.37 5.37 0 0 0 1.67 2.43c.74.57 1.63.86 2.68.86 1.06 0 1.95-.3 2.68-.88a5.4 5.4 0 0 0 1.67-2.44c.39-1.05.58-2.25.58-3.62 0-1.35-.19-2.54-.57-3.57a5.29 5.29 0 0 0-1.66-2.41 4.2 4.2 0 0 0-2.7-.87 4.3 4.3 0 0 0-2.69.84 5.23 5.23 0 0 0-1.66 2.38 10.23 10.23 0 0 0-.59 3.63Zm20.85 20.53V86.55h6.41v3.94h.29c.29-.64.7-1.28 1.24-1.93a6.49 6.49 0 0 1 2.14-1.65 7.22 7.22 0 0 1 3.29-.67 8.85 8.85 0 0 1 8.2 5.36c.87 1.78 1.3 4.02 1.3 6.7 0 2.62-.42 4.83-1.26 6.63a9.42 9.42 0 0 1-3.43 4.08 8.75 8.75 0 0 1-4.82 1.37 7.5 7.5 0 0 1-3.22-.62 6.66 6.66 0 0 1-2.16-1.58 8.11 8.11 0 0 1-1.28-1.94h-.2v12.56h-6.5Zm6.37-20.53c0 1.4.19 2.61.58 3.65a5.31 5.31 0 0 0 1.68 2.43 4.2 4.2 0 0 0 2.67.86c1.06 0 1.95-.3 2.69-.88a5.44 5.44 0 0 0 1.66-2.44c.39-1.05.58-2.25.58-3.62 0-1.35-.19-2.54-.56-3.57a5.38 5.38 0 0 0-1.67-2.41 4.2 4.2 0 0 0-2.7-.87 4.3 4.3 0 0 0-2.69.84 5.23 5.23 0 0 0-1.66 2.38 10.24 10.24 0 0 0-.58 3.63Zm27.34-19.54V110h-6.5V78.73h6.5Zm5.22 31.27V86.55h6.5V110h-6.5Zm3.26-26.48c-.96 0-1.79-.32-2.49-.96a3.12 3.12 0 0 1-1.02-2.34c0-.9.34-1.66 1.02-2.3.7-.65 1.53-.98 2.49-.98.97 0 1.79.33 2.48.98a3.03 3.03 0 0 1 1.03 2.3 3.1 3.1 0 0 1-1.03 2.34 3.5 3.5 0 0 1-2.48.96Zm19.05 26.94a12 12 0 0 1-6.2-1.53 10.28 10.28 0 0 1-3.97-4.27 13.78 13.78 0 0 1-1.38-6.3c0-2.4.47-4.5 1.39-6.32a10.36 10.36 0 0 1 3.99-4.26 11.75 11.75 0 0 1 6.14-1.54c2.04 0 3.84.37 5.37 1.11a8.93 8.93 0 0 1 3.65 3.14 9.14 9.14 0 0 1 1.48 4.73h-6.14a4.74 4.74 0 0 0-1.37-2.83 3.92 3.92 0 0 0-2.89-1.08c-1 0-1.88.27-2.64.82a5.29 5.29 0 0 0-1.74 2.37 10.1 10.1 0 0 0-.62 3.77c0 1.5.2 2.77.61 3.82.41 1.05 1 1.85 1.75 2.4a4.4 4.4 0 0 0 2.64.82c.75 0 1.41-.15 2-.46.61-.3 1.1-.74 1.49-1.32.39-.6.65-1.3.77-2.13h6.14a9.65 9.65 0 0 1-1.46 4.74 8.87 8.87 0 0 1-3.59 3.17 12 12 0 0 1-5.42 1.15Zm21.33-.02c-1.5 0-2.83-.26-4-.78a6.43 6.43 0 0 1-2.78-2.33 6.93 6.93 0 0 1-1.01-3.88c0-1.3.24-2.4.72-3.28a5.77 5.77 0 0 1 1.95-2.14 9.53 9.53 0 0 1 2.81-1.22c1.06-.28 2.17-.47 3.33-.58 1.36-.15 2.46-.28 3.3-.4a4.62 4.62 0 0 0 1.81-.58c.38-.26.57-.63.57-1.13v-.1c0-.96-.31-1.7-.92-2.24-.6-.53-1.45-.8-2.56-.8-1.17 0-2.1.27-2.8.79a3.57 3.57 0 0 0-1.37 1.92l-6.02-.49a8.2 8.2 0 0 1 1.81-3.7 8.62 8.62 0 0 1 3.46-2.4 13.3 13.3 0 0 1 4.95-.86 15 15 0 0 1 3.74.46c1.2.3 2.27.78 3.19 1.42a6.89 6.89 0 0 1 3.02 6.06V110h-6.16v-3.25h-.19a6.54 6.54 0 0 1-3.78 3.23 9.3 9.3 0 0 1-3.07.46Zm1.86-4.49c.96 0 1.8-.19 2.53-.56.74-.39 1.31-.9 1.73-1.56a4 4 0 0 0 .63-2.21v-2.5c-.21.14-.49.26-.84.37a15.64 15.64 0 0 1-2.49.52l-1.19.17c-.77.11-1.43.3-2 .54a3.1 3.1 0 0 0-1.33.99c-.32.4-.48.92-.48 1.53 0 .88.32 1.56.97 2.03.65.45 1.47.68 2.47.68Zm28.87-19.4v4.88h-14.13v-4.88h14.13Zm-10.92-5.62h6.5v21.86a3 3 0 0 0 .28 1.4c.18.33.44.56.76.7.34.13.73.2 1.16.2.31 0 .61-.03.92-.08l.7-.14 1.02 4.84c-.32.1-.78.22-1.37.35-.59.14-1.31.23-2.15.26a9.94 9.94 0 0 1-4.13-.63 5.74 5.74 0 0 1-2.73-2.22 6.84 6.84 0 0 1-.96-3.82V80.93Zm15.15 29.07V86.55h6.51V110h-6.51Zm3.27-26.48c-.96 0-1.79-.32-2.49-.96a3.12 3.12 0 0 1-1.02-2.34c0-.9.34-1.66 1.02-2.3.7-.65 1.53-.98 2.49-.98.97 0 1.79.33 2.48.98a3.03 3.03 0 0 1 1.03 2.3 3.1 3.1 0 0 1-1.03 2.34 3.5 3.5 0 0 1-2.48.96Zm19.05 26.94c-2.37 0-4.43-.5-6.16-1.51a10.3 10.3 0 0 1-3.98-4.25 13.63 13.63 0 0 1-1.41-6.34c0-2.42.47-4.54 1.41-6.35a10.17 10.17 0 0 1 3.98-4.24 11.95 11.95 0 0 1 6.16-1.53c2.37 0 4.42.5 6.14 1.53 1.73 1 3.06 2.42 4 4.24.93 1.81 1.4 3.93 1.4 6.35 0 2.4-.47 4.52-1.4 6.34a10.34 10.34 0 0 1-4 4.25c-1.72 1-3.77 1.5-6.14 1.5Zm.03-5.04c1.08 0 1.98-.3 2.7-.92a5.65 5.65 0 0 0 1.63-2.53c.38-1.07.57-2.29.57-3.65 0-1.37-.19-2.58-.57-3.65a5.65 5.65 0 0 0-1.63-2.54 3.99 3.99 0 0 0-2.7-.93c-1.09 0-2.01.31-2.75.93a5.7 5.7 0 0 0-1.66 2.54 11.13 11.13 0 0 0-.55 3.65c0 1.36.18 2.58.55 3.65a5.7 5.7 0 0 0 1.66 2.53c.74.61 1.66.92 2.75.92Zm22.25-8.98V110h-6.51V86.55h6.2v4.13h.28a6.5 6.5 0 0 1 2.61-3.23 7.92 7.92 0 0 1 4.44-1.21c1.63 0 3.05.36 4.26 1.07a7.34 7.34 0 0 1 2.83 3.05c.67 1.32 1 2.88 1 4.7V110h-6.5V96.23a4.73 4.73 0 0 0-1.1-3.36 3.95 3.95 0 0 0-3.07-1.22 4.6 4.6 0 0 0-2.32.56c-.66.38-1.18.93-1.56 1.65a5.67 5.67 0 0 0-.56 2.58Zm-123.37 45.24h-6.69a6.43 6.43 0 0 0-.75-2.31 5.93 5.93 0 0 0-3.5-2.84 7.79 7.79 0 0 0-2.49-.38 7.4 7.4 0 0 0-4.22 1.2 7.65 7.65 0 0 0-2.8 3.49 13.83 13.83 0 0 0-.99 5.52c0 2.23.33 4.1.99 5.62a7.61 7.61 0 0 0 2.81 3.44 7.53 7.53 0 0 0 4.17 1.16c.88 0 1.7-.12 2.46-.35a5.77 5.77 0 0 0 3.49-2.69c.4-.65.68-1.4.83-2.23l6.69.03a12.3 12.3 0 0 1-4.06 7.71 13.14 13.14 0 0 1-4.13 2.48c-1.59.6-3.38.9-5.39.9-2.79 0-5.28-.63-7.48-1.9a13.41 13.41 0 0 1-5.19-5.48c-1.26-2.39-1.9-5.29-1.9-8.69 0-3.4.65-6.3 1.93-8.7a13.38 13.38 0 0 1 5.22-5.47 14.65 14.65 0 0 1 7.42-1.89c1.81 0 3.49.25 5.04.76 1.56.51 2.94 1.25 4.14 2.23 1.2.97 2.18 2.16 2.93 3.56a13.4 13.4 0 0 1 1.47 4.83Zm15.21 20.78a12 12 0 0 1-6.15-1.51 10.38 10.38 0 0 1-3.99-4.25 13.75 13.75 0 0 1-1.4-6.34c0-2.42.47-4.54 1.4-6.35a10.26 10.26 0 0 1 3.99-4.24 11.91 11.91 0 0 1 6.15-1.53c2.38 0 4.42.5 6.14 1.53a10.1 10.1 0 0 1 4 4.24 13.61 13.61 0 0 1 1.41 6.35c0 2.4-.47 4.52-1.41 6.34a10.28 10.28 0 0 1-4 4.25c-1.72 1-3.76 1.5-6.14 1.5Zm.03-5.04c1.08 0 1.98-.3 2.71-.92a5.73 5.73 0 0 0 1.63-2.53c.38-1.07.57-2.29.57-3.65 0-1.37-.19-2.58-.57-3.65a5.73 5.73 0 0 0-1.63-2.54 4.03 4.03 0 0 0-2.71-.93c-1.09 0-2 .31-2.74.93a5.7 5.7 0 0 0-1.67 2.54 11.13 11.13 0 0 0-.55 3.65c0 1.36.18 2.58.55 3.65a5.7 5.7 0 0 0 1.67 2.53c.74.61 1.65.92 2.74.92Zm15.75 4.58v-23.46h6.3v4.1h.25a5.67 5.67 0 0 1 5.63-4.43 9.87 9.87 0 0 1 2.05.23v5.77a11.4 11.4 0 0 0-2.75-.35c-.96 0-1.81.2-2.57.63a4.65 4.65 0 0 0-2.41 4.24V162h-6.5Zm27.19.46c-2.41 0-4.49-.5-6.23-1.47a10 10 0 0 1-4-4.18 13.79 13.79 0 0 1-1.41-6.43c0-2.41.47-4.53 1.41-6.35a10.33 10.33 0 0 1 3.95-4.26 11.56 11.56 0 0 1 6.02-1.53c1.55 0 2.99.25 4.32.75a9.56 9.56 0 0 1 3.51 2.21c1.01.99 1.79 2.23 2.35 3.73.56 1.48.84 3.22.84 5.22v1.79h-19.8v-4.03h13.68a5 5 0 0 0-.61-2.5 4.4 4.4 0 0 0-1.69-1.69 4.88 4.88 0 0 0-2.49-.62 4.86 4.86 0 0 0-4.4 2.5 5.1 5.1 0 0 0-.66 2.52v3.83c0 1.16.22 2.17.64 3.01.44.85 1.06 1.5 1.85 1.95a6.23 6.23 0 0 0 4.81.39 4.06 4.06 0 0 0 2.52-2.42l6.02.4a8.23 8.23 0 0 1-1.88 3.79 9.44 9.44 0 0 1-3.64 2.5c-1.47.6-3.18.89-5.11.89Z"
        fill="#fff" />
    <ellipse cx="1199" cy="376.5" rx="313" ry="372.5" stroke="url(#b)" stroke-width="8"
        stroke-linecap="round" stroke-dasharray="26 26" />
    <ellipse cx="1199" cy="376.5" rx="313" ry="372.5" stroke="url(#c)" stroke-width="8"
        stroke-linecap="round" stroke-dasharray="26 26" />
    <rect x="991" y="362" width="168" height="61" rx="30.5" fill="#fff" />
    <path
        d="M1024.79 401v-17.45h7.28c1.31 0 2.4.18 3.28.55.89.37 1.55.89 2 1.55.45.67.67 1.44.67 2.31a3.67 3.67 0 0 1-1.57 3.07 4.5 4.5 0 0 1-1.69.71v.18c.7.03 1.35.22 1.95.57a4 4 0 0 1 1.99 3.63 4.6 4.6 0 0 1-.71 2.51 4.91 4.91 0 0 1-2.07 1.74c-.91.42-2 .63-3.29.63h-7.84Zm4.22-3.4h2.61c.92 0 1.59-.17 2.02-.52.44-.35.66-.83.66-1.45 0-.45-.11-.83-.32-1.16a2.05 2.05 0 0 0-.89-.76 3.25 3.25 0 0 0-1.39-.27h-2.69v4.16Zm0-6.88h2.34c.46 0 .87-.08 1.22-.23.36-.15.64-.37.84-.66.2-.3.31-.64.31-1.05 0-.59-.21-1.05-.63-1.38-.41-.34-.97-.5-1.67-.5h-2.41v3.82Zm15.41 10.5c-.83 0-1.58-.14-2.22-.42a3.52 3.52 0 0 1-1.53-1.27 3.9 3.9 0 0 1-.55-2.16c0-.73.13-1.34.38-1.84.26-.5.61-.9 1.06-1.22.45-.31.96-.55 1.55-.7a9.84 9.84 0 0 1 1.87-.34c.75-.07 1.35-.14 1.8-.21.46-.08.79-.2.99-.34a.72.72 0 0 0 .32-.62v-.04c0-.44-.15-.78-.46-1.01-.3-.24-.7-.36-1.21-.36-.56 0-1 .12-1.33.36-.34.23-.55.56-.64.98l-3.85-.13c.12-.8.41-1.5.88-2.13a4.77 4.77 0 0 1 1.96-1.49 7.53 7.53 0 0 1 3.01-.54c.84 0 1.61.1 2.31.3.7.19 1.32.47 1.84.85a3.84 3.84 0 0 1 1.65 3.21v8.9h-3.93v-1.82h-.1a3.56 3.56 0 0 1-2.16 1.81c-.49.15-1.03.23-1.64.23Zm1.29-2.73c.45 0 .85-.09 1.21-.27a2.03 2.03 0 0 0 1.19-1.88v-1.24a2.4 2.4 0 0 1-.43.17 8.63 8.63 0 0 1-1.77.36 3.7 3.7 0 0 0-1 .29c-.28.13-.49.3-.63.51-.15.2-.22.45-.22.74 0 .43.16.76.46.98.32.23.71.34 1.19.34Zm15.19 2.76a7 7 0 0 1-3.55-.86 5.8 5.8 0 0 1-2.27-2.36 7.65 7.65 0 0 1-.79-3.53c0-1.34.27-2.52.79-3.53a5.88 5.88 0 0 1 2.28-2.38 7 7 0 0 1 3.54-.85c1.21 0 2.26.22 3.16.65a5 5 0 0 1 2.11 1.86c.51.8.78 1.73.81 2.8h-3.89a2.59 2.59 0 0 0-.69-1.57 1.9 1.9 0 0 0-1.44-.57c-.49 0-.91.13-1.27.4a2.6 2.6 0 0 0-.86 1.2 5.5 5.5 0 0 0-.29 1.94c0 .78.09 1.43.29 1.97.21.52.49.92.86 1.2.36.26.78.4 1.27.4a1.95 1.95 0 0 0 1.76-.97c.19-.33.32-.72.37-1.18h3.89a5.67 5.67 0 0 1-.81 2.83 4.97 4.97 0 0 1-2.09 1.88c-.89.45-1.95.67-3.18.67Zm11.97-3.69.02-4.96h.58l3.68-4.7h4.72l-5.47 6.73h-1.1l-2.43 2.94Zm-3.76 3.44v-17.45h4.17V401h-4.17Zm8.13 0-3.42-5.44 2.74-2.95 5.5 8.39h-4.82Zm11.7.25a7.3 7.3 0 0 1-3.54-.81 5.65 5.65 0 0 1-2.29-2.33 7.8 7.8 0 0 1-.79-3.6c0-1.36.27-2.54.8-3.55a5.83 5.83 0 0 1 2.26-2.37 6.7 6.7 0 0 1 3.44-.85c.93 0 1.78.14 2.55.43a5.53 5.53 0 0 1 3.32 3.4c.31.82.47 1.78.47 2.85v1.04h-11.38v-2.42h7.5a2.34 2.34 0 0 0-.32-1.19 2.1 2.1 0 0 0-.84-.8c-.35-.2-.76-.3-1.22-.3a2.5 2.5 0 0 0-2.13 1.16 2.4 2.4 0 0 0-.34 1.2v2.46a3 3 0 0 0 .32 1.4c.21.4.5.71.89.94.39.22.85.33 1.38.33.37 0 .71-.05 1.01-.16.3-.1.56-.25.77-.45.22-.2.38-.44.49-.73l3.82.11c-.15.86-.5 1.6-1.04 2.24a5.36 5.36 0 0 1-2.11 1.48c-.87.34-1.87.52-3.02.52Zm12.51-7.72V401h-4.16v-13.1h3.96v2.41h.14c.29-.8.79-1.43 1.49-1.88.7-.46 1.53-.7 2.49-.7.92 0 1.72.22 2.4.63.68.41 1.21.98 1.58 1.72.38.74.57 1.6.57 2.58V401h-4.17v-7.53c0-.72-.18-1.3-.56-1.7-.36-.4-.88-.61-1.54-.61-.44 0-.82.1-1.16.29a1.9 1.9 0 0 0-.76.8c-.18.36-.27.78-.28 1.28Zm15.83 7.66a4.83 4.83 0 0 1-4.53-3c-.47-1-.7-2.24-.7-3.73 0-1.54.24-2.8.73-3.8s1.13-1.73 1.92-2.2a4.87 4.87 0 0 1 4.33-.36c.48.23.89.53 1.21.9.31.37.56.75.72 1.15h.09v-6.6h4.16V401h-4.12v-2.12h-.13c-.18.4-.43.78-.75 1.13-.32.35-.73.64-1.22.85-.48.22-1.05.33-1.71.33Zm1.45-3.25c.5 0 .93-.14 1.29-.43s.64-.7.83-1.21c.19-.53.29-1.14.29-1.85 0-.71-.1-1.33-.29-1.84a2.52 2.52 0 0 0-.83-1.2 2.05 2.05 0 0 0-1.29-.42c-.52 0-.96.15-1.32.43-.35.28-.63.69-.81 1.2a5.32 5.32 0 0 0-.28 1.83c0 .7.1 1.32.28 1.85.19.52.46.92.81 1.21.36.29.8.43 1.32.43Z"
        fill="#424242" />
    <rect x="1242" y="362" width="153" height="61" rx="30.5" fill="#fff" />
    <path
        d="M1275.34 401v-17.45h7.21c1.3 0 2.43.25 3.38.76a5.4 5.4 0 0 1 2.21 2.13c.51.9.77 1.95.77 3.15s-.26 2.26-.79 3.16a5.3 5.3 0 0 1-2.24 2.09c-.97.5-2.13.74-3.46.74h-4.45v-3.32h3.66c.64 0 1.17-.12 1.6-.34.43-.22.76-.53.98-.93.22-.4.33-.87.33-1.4 0-.54-.11-1-.33-1.4-.22-.4-.55-.7-.98-.92a3.53 3.53 0 0 0-1.6-.32h-2.07V401h-4.22Zm19.82-17.45V401h-4.17v-17.45h4.17Zm11.1 11.8v-7.44h4.16V401h-3.97v-2.44h-.14a3.8 3.8 0 0 1-1.48 1.91c-.7.47-1.53.7-2.52.7a4.2 4.2 0 0 1-3.93-2.33 5.85 5.85 0 0 1-.57-2.59v-8.34h4.17v7.52c.01.71.19 1.27.56 1.68.37.41.88.62 1.51.62.42 0 .79-.1 1.12-.28.33-.18.6-.45.79-.8.2-.36.3-.8.3-1.3Zm12.91 10.83a8.73 8.73 0 0 1-3.19-.52 5.02 5.02 0 0 1-2.09-1.42 3.89 3.89 0 0 1-.91-2.05l3.94-.22c.08.27.21.5.41.7.21.2.47.35.79.46.33.1.72.16 1.16.16.7 0 1.28-.17 1.73-.5.46-.34.69-.93.69-1.77v-2.3h-.14a3.24 3.24 0 0 1-2 1.83c-.5.18-1.07.27-1.71.27a4.78 4.78 0 0 1-4.52-2.74 8.16 8.16 0 0 1-.71-3.64c0-1.53.24-2.79.73-3.78a4.9 4.9 0 0 1 6.25-2.56c.49.23.9.53 1.22.9.32.37.56.75.72 1.15h.12v-2.24h4.15v13.14c0 1.1-.28 2.04-.83 2.8a5.16 5.16 0 0 1-2.34 1.73c-1 .4-2.15.6-3.47.6Zm.13-8.4c.51 0 .94-.13 1.3-.4.35-.26.63-.64.82-1.14.2-.5.29-1.1.29-1.8 0-.71-.09-1.32-.29-1.83a2.51 2.51 0 0 0-.82-1.2 2.06 2.06 0 0 0-1.3-.42c-.52 0-.95.15-1.31.43-.36.28-.63.69-.82 1.2a5.48 5.48 0 0 0-.27 1.82c0 .7.09 1.3.28 1.8.19.5.46.88.81 1.15.36.26.79.4 1.31.4Zm9.17 3.22v-13.1h4.17V401h-4.17Zm2.09-14.62c-.59 0-1.09-.19-1.51-.58a1.86 1.86 0 0 1-.63-1.41c0-.55.21-1.01.63-1.4.42-.4.92-.59 1.51-.59s1.09.2 1.51.6c.42.38.63.84.63 1.39 0 .55-.21 1.02-.63 1.41-.42.39-.92.58-1.51.58Zm8.9 7.15V401h-4.17v-13.1h3.96v2.41h.15c.29-.8.78-1.43 1.48-1.88.7-.46 1.53-.7 2.5-.7.92 0 1.72.22 2.39.63a4.2 4.2 0 0 1 1.59 1.72c.38.74.57 1.6.56 2.58V401h-4.17v-7.53a2.4 2.4 0 0 0-.55-1.7 2 2 0 0 0-1.54-.61c-.44 0-.83.1-1.16.29-.33.18-.59.45-.77.8-.18.36-.27.78-.27 1.28Zm22.47-1.62-3.83.1a1.4 1.4 0 0 0-.32-.73 1.8 1.8 0 0 0-.69-.5c-.28-.12-.6-.19-.97-.19-.49 0-.9.1-1.24.3-.33.19-.5.45-.49.78-.01.25.09.47.3.66.22.19.6.34 1.15.45l2.53.48c1.3.25 2.28.67 2.91 1.25.64.57.97 1.34.97 2.3 0 .9-.27 1.68-.8 2.34a5.1 5.1 0 0 1-2.15 1.55c-.9.37-1.94.55-3.11.55-1.87 0-3.35-.39-4.43-1.15a4.3 4.3 0 0 1-1.84-3.1l4.12-.1c.09.47.32.83.71 1.08.38.25.86.38 1.45.38.54 0 .97-.1 1.31-.3.33-.2.5-.46.51-.8a.86.86 0 0 0-.39-.7 3.16 3.16 0 0 0-1.21-.43l-2.28-.43a5.42 5.42 0 0 1-2.93-1.32 3.37 3.37 0 0 1-.96-2.47c0-.88.23-1.63.7-2.25a4.37 4.37 0 0 1 2.01-1.43c.87-.33 1.9-.5 3.08-.5 1.77 0 3.17.38 4.19 1.13a3.99 3.99 0 0 1 1.7 3.05Z"
        fill="#424242" />
    <rect x="1005.5" y="487.5" width="386" height="88" rx="44" stroke="#fff" stroke-width="5" />
    <path
        d="M1107.36 541.5v-20.36h4.92v16.36h8.47v4h-13.39Zm23.07.29c-1.6 0-2.98-.33-4.14-.99a6.8 6.8 0 0 1-2.65-2.76 8.79 8.79 0 0 1-.93-4.13c0-1.57.31-2.94.93-4.12a6.72 6.72 0 0 1 2.65-2.77 8.2 8.2 0 0 1 4.14-1c1.6 0 2.98.34 4.13 1a6.66 6.66 0 0 1 2.65 2.77c.62 1.18.94 2.55.94 4.12a8.8 8.8 0 0 1-.94 4.13 6.74 6.74 0 0 1-2.65 2.76 8.21 8.21 0 0 1-4.13.99Zm.03-3.67c.58 0 1.08-.18 1.48-.54.41-.36.71-.85.93-1.49a6.7 6.7 0 0 0 .32-2.2c0-.86-.1-1.6-.32-2.23a3.39 3.39 0 0 0-.93-1.5c-.4-.35-.9-.53-1.48-.53-.6 0-1.11.18-1.53.53-.41.36-.73.86-.95 1.5a7.13 7.13 0 0 0-.31 2.22c0 .84.1 1.58.31 2.21.22.64.54 1.13.95 1.5.42.35.93.53 1.53.53Zm17.31 3.67c-1.61 0-3-.33-4.15-1a6.74 6.74 0 0 1-2.65-2.76 8.88 8.88 0 0 1-.92-4.12c0-1.56.31-2.93.92-4.11a6.81 6.81 0 0 1 2.66-2.78c1.15-.66 2.53-1 4.13-1 1.41 0 2.64.26 3.69.77a5.87 5.87 0 0 1 2.46 2.17c.6.93.91 2.02.95 3.27h-4.55a3.07 3.07 0 0 0-.79-1.84c-.43-.44-1-.66-1.69-.66-.57 0-1.06.16-1.49.48-.42.3-.75.77-.99 1.39-.23.6-.35 1.36-.35 2.26 0 .9.12 1.67.35 2.3.24.6.57 1.07.99 1.4.43.3.92.46 1.49.46a2.26 2.26 0 0 0 2.05-1.13c.23-.38.37-.84.43-1.38h4.55a6.69 6.69 0 0 1-.95 3.3 5.87 5.87 0 0 1-2.44 2.2 8.22 8.22 0 0 1-3.7.78Zm13.88-.03c-.98 0-1.84-.16-2.6-.49a4.1 4.1 0 0 1-1.78-1.49 4.57 4.57 0 0 1-.64-2.52c0-.84.15-1.56.45-2.14a3.6 3.6 0 0 1 1.23-1.42 5.8 5.8 0 0 1 1.81-.83c.68-.2 1.41-.32 2.19-.39.86-.08 1.56-.16 2.09-.25.53-.09.92-.22 1.16-.38a.84.84 0 0 0 .36-.73v-.05c0-.51-.17-.9-.52-1.18a2.23 2.23 0 0 0-1.42-.42c-.65 0-1.16.14-1.56.42-.39.27-.63.66-.74 1.15l-4.49-.16a5.4 5.4 0 0 1 1.03-2.49 5.56 5.56 0 0 1 2.29-1.73 8.74 8.74 0 0 1 3.51-.63c.97 0 1.87.11 2.69.35.82.22 1.54.55 2.15 1a4.47 4.47 0 0 1 1.92 3.74v10.38h-4.58v-2.13h-.12a4.17 4.17 0 0 1-2.52 2.12 6.3 6.3 0 0 1-1.91.27Zm1.5-3.18c.52 0 1-.1 1.41-.32a2.32 2.32 0 0 0 1.39-2.19v-1.45c-.13.07-.3.14-.5.2a8.59 8.59 0 0 1-1.35.3l-.71.12c-.46.07-.85.18-1.17.33-.32.16-.57.35-.74.6-.17.24-.25.52-.25.86 0 .5.18.88.54 1.15.36.26.82.4 1.38.4Zm15.46-17.44v20.36h-4.86v-20.36h4.86Zm20.12 6.1a2.3 2.3 0 0 0-.89-1.7 3.46 3.46 0 0 0-2.21-.62 4.5 4.5 0 0 0-1.59.25c-.43.17-.75.4-.96.69a1.7 1.7 0 0 0-.33.98c-.01.3.05.58.18.8.14.24.34.45.6.63.26.17.58.32.95.45.38.14.79.25 1.26.35l1.75.4c1 .22 1.89.5 2.66.87.78.37 1.43.8 1.95 1.3.53.51.93 1.09 1.2 1.75.28.65.41 1.39.42 2.2a5.74 5.74 0 0 1-.97 3.31 6.1 6.1 0 0 1-2.78 2.12c-1.2.5-2.65.74-4.34.74a11.9 11.9 0 0 1-4.46-.77 6.3 6.3 0 0 1-2.95-2.32 7.1 7.1 0 0 1-1.08-3.95h4.71c.04.65.21 1.2.53 1.64.31.44.74.77 1.28 1 .55.22 1.19.33 1.91.33.66 0 1.22-.09 1.69-.27.47-.18.83-.42 1.08-.74.25-.32.38-.68.39-1.1a1.54 1.54 0 0 0-.36-.98 2.7 2.7 0 0 0-1.07-.72c-.48-.2-1.09-.4-1.83-.56l-2.13-.5a9.36 9.36 0 0 1-4.17-1.96 4.7 4.7 0 0 1-1.51-3.68c0-1.26.33-2.36 1.02-3.3a6.7 6.7 0 0 1 2.83-2.23c1.21-.53 2.58-.8 4.13-.8 1.58 0 2.94.28 4.1.81a5.98 5.98 0 0 1 3.7 5.58h-4.71Zm10.45 19.99a9.37 9.37 0 0 1-2.98-.49l1.07-3.53c.48.16.91.25 1.29.28.39.02.73-.04 1.01-.19s.5-.4.65-.79l.19-.45-5.43-15.83h5.1l2.81 10.9h.16l2.85-10.9h5.12l-5.75 16.73a7.11 7.11 0 0 1-1.19 2.2 5.05 5.05 0 0 1-1.96 1.52 7 7 0 0 1-2.94.55Zm27.04-16.34-4.46.12c-.05-.32-.18-.6-.38-.85a2.09 2.09 0 0 0-.81-.58c-.32-.15-.7-.22-1.13-.22a2.9 2.9 0 0 0-1.44.34c-.39.22-.59.53-.58.91-.01.3.11.56.36.78.25.22.7.4 1.34.52l2.94.56c1.53.3 2.66.78 3.41 1.45a3.51 3.51 0 0 1 1.13 2.69 4.31 4.31 0 0 1-.94 2.73 5.94 5.94 0 0 1-2.5 1.81 9.77 9.77 0 0 1-3.64.64c-2.18 0-3.9-.45-5.16-1.34a5.03 5.03 0 0 1-2.15-3.62l4.8-.12c.11.55.38.98.83 1.27.44.3 1.01.44 1.7.44.62 0 1.13-.12 1.52-.35.39-.23.59-.54.6-.93a.99.99 0 0 0-.46-.82c-.3-.21-.77-.38-1.4-.5l-2.67-.5a6.33 6.33 0 0 1-3.42-1.55 3.87 3.87 0 0 1-1.11-2.88c-.01-1.02.26-1.9.81-2.61a5.15 5.15 0 0 1 2.35-1.67 10.1 10.1 0 0 1 3.59-.58c2.07 0 3.7.43 4.89 1.3a4.66 4.66 0 0 1 1.98 3.56Zm11.39-4.66v3.58h-9.63v-3.58h9.63Zm-7.61-3.66h4.86v14.13c0 .3.05.54.14.72.1.18.24.31.43.4.18.06.4.1.66.1a3.74 3.74 0 0 0 1.07-.15l.73 3.51c-.23.07-.56.15-.98.25-.42.1-.92.16-1.5.19a7.2 7.2 0 0 1-2.94-.4 3.8 3.8 0 0 1-1.86-1.51 4.66 4.66 0 0 1-.61-2.58v-14.66Zm17.07 19.22c-1.6 0-2.98-.32-4.14-.95a6.52 6.52 0 0 1-2.66-2.71 8.93 8.93 0 0 1-.93-4.2c0-1.58.31-2.96.94-4.14a6.73 6.73 0 0 1 2.63-2.77c1.14-.66 2.47-1 4.01-1 1.09 0 2.08.18 2.98.52a6.47 6.47 0 0 1 3.87 3.95c.37.97.55 2.08.55 3.33v1.22h-13.28v-2.83h8.75c0-.51-.13-.98-.36-1.38-.24-.4-.57-.72-.99-.94a2.82 2.82 0 0 0-1.42-.35 2.9 2.9 0 0 0-2.49 1.35c-.25.41-.38.88-.39 1.4v2.88c0 .62.12 1.17.36 1.64.25.46.6.82 1.05 1.08.45.26.99.39 1.61.39.43 0 .82-.06 1.17-.18s.65-.3.91-.53c.25-.23.44-.52.56-.85l4.47.13c-.19 1-.6 1.87-1.23 2.61a6.19 6.19 0 0 1-2.45 1.72 9.5 9.5 0 0 1-3.52.6Zm9.73-.29v-15.27h4.62v2.8h.17a4.4 4.4 0 0 1 1.61-2.2c.76-.53 1.66-.8 2.71-.8 1.06 0 1.97.27 2.72.81a3.58 3.58 0 0 1 1.45 2.2h.15c.29-.92.85-1.64 1.67-2.19a5.2 5.2 0 0 1 2.94-.82 4.7 4.7 0 0 1 3.52 1.39 5.2 5.2 0 0 1 1.35 3.8v10.28h-4.86v-9.17c0-.76-.2-1.34-.59-1.74-.39-.4-.9-.6-1.52-.6a2 2 0 0 0-1.58.65 2.54 2.54 0 0 0-.57 1.74v9.12h-4.67v-9.22c0-.7-.19-1.27-.58-1.68a1.98 1.98 0 0 0-1.52-.61 2.05 2.05 0 0 0-1.89 1.16c-.18.37-.27.8-.27 1.31v9.04h-4.86Z"
        fill="#fff" />
    <path
        d="m537 253 30 17.32v-34.64L537 253Zm466 0-30-17.32v34.64l30-17.32Zm-446.58 3a3 3 0 1 0 0-6v6Zm38.83-6a3 3 0 1 0 0 6v-6Zm38.83 6a3 3 0 1 0 0-6v6Zm38.84-6a3 3 0 1 0 0 6v-6Zm38.83 6a3 3 0 1 0 0-6v6Zm38.83-6a3 3 0 1 0 0 6v-6Zm38.84 6a3 3 0 0 0 0-6v6Zm38.83-6a3 3 0 1 0 0 6v-6Zm38.83 6a3 3 0 1 0 0-6v6Zm38.84-6a3 3 0 1 0 0 6v-6Zm38.83 6a3 3 0 1 0 0-6v6Zm38.83-6a3 3 0 1 0 0 6v-6Zm-388.33 6h38.83v-6h-38.83v6Zm77.67 0h38.83v-6h-38.83v6Zm77.66 0h38.84v-6h-38.84v6Zm77.67 0h38.83v-6h-38.83v6Zm77.67 0h38.83v-6h-38.83v6Z"
        fill="url(#d)" />
    <mask id="h" fill="#fff">
        <path fill-rule="evenodd" clip-rule="evenodd"
            d="m1250.64 337.22 11.6-3.1 9.44 35.25-35.25 9.44-9.45-35.25 12.53-3.35-1.49-5.57a5.76 5.76 0 1 1 11.13-2.98l1.49 5.56Zm-14.86 16.91-5.57 1.5 2.99 11.13 5.56-1.5a5.76 5.76 0 1 0-2.98-11.13Zm29.69-7.95 5.56-1.5a5.76 5.76 0 0 1 2.99 11.14l-5.57 1.49-2.98-11.13Z" />
    </mask>
    <g filter="url(#e)">
        <path fill-rule="evenodd" clip-rule="evenodd"
            d="m1250.64 337.22 11.6-3.1 9.44 35.25-35.25 9.44-9.45-35.25 12.53-3.35-1.49-5.57a5.76 5.76 0 1 1 11.13-2.98l1.49 5.56Zm-14.86 16.91-5.57 1.5 2.99 11.13 5.56-1.5a5.76 5.76 0 1 0-2.98-11.13Zm29.69-7.95 5.56-1.5a5.76 5.76 0 0 1 2.99 11.14l-5.57 1.49-2.98-11.13Z"
            fill="url(#f)" />
    </g>
    <path
        d="m1250.64 337.22-2.9.78.78 2.9 2.9-.78-.78-2.9Zm11.6-3.1 2.89-.78-.77-2.9-2.9.78.78 2.9Zm9.44 35.25.78 2.9 2.9-.78-.78-2.9-2.9.78Zm-35.25 9.44-2.9.78.78 2.9 2.9-.78-.78-2.9Zm-9.45-35.25-.77-2.9-2.9.78.78 2.9 2.89-.78Zm12.53-3.35.77 2.9 2.9-.78-.77-2.9-2.9.78Zm2.58-12.63-.78-2.9.78 2.9Zm7.06 4.08-2.9.77 2.9-.77Zm-18.94 23.96-.77-2.9-2.9.78.78 2.9 2.89-.78Zm5.57-1.49-.78-2.9.78 2.9Zm-2.58 12.63-2.9.77.78 2.9 2.89-.78-.77-2.9Zm32.27-20.58-.78-2.9-2.9.78.78 2.9 2.9-.78Zm8.55 9.64-.78-2.9.78 2.9Zm-5.57 1.49-2.9.77.78 2.9 2.9-.77-.78-2.9Zm-17.03-17.19 11.59-3.1-1.55-5.8-11.6 3.1 1.56 5.8Zm7.92-5.23 9.45 35.26 5.79-1.56-9.45-35.25-5.79 1.55Zm11.57 31.58-35.26 9.45 1.56 5.8 35.25-9.45-1.55-5.8Zm-31.58 11.57-9.45-35.25-5.79 1.55 9.44 35.25 5.8-1.55Zm-11.57-31.58 12.52-3.36-1.55-5.8-12.52 3.36 1.55 5.8Zm14.65-7.03-1.5-5.57-5.79 1.56 1.49 5.56 5.8-1.55Zm-1.5-5.57a2.76 2.76 0 0 1 1.96-3.38l-1.56-5.8a8.76 8.76 0 0 0-6.19 10.74l5.79-1.56Zm1.96-3.38c1.47-.4 2.99.48 3.38 1.95l5.8-1.55a8.77 8.77 0 0 0-10.74-6.2l1.56 5.8Zm3.38 1.95 1.49 5.57 5.8-1.55-1.49-5.57-5.8 1.55Zm-15.26 26.09 5.57-1.5-1.56-5.79-5.56 1.5 1.55 5.79Zm5.11 7.46-2.99-11.13-5.79 1.55 2.98 11.13 5.8-1.55Zm1.89-3.62-5.57 1.5 1.55 5.8 5.57-1.5-1.55-5.8Zm1.95-3.38a2.76 2.76 0 0 1-1.95 3.38l1.55 5.8a8.76 8.76 0 0 0 6.2-10.73l-5.8 1.55Zm-3.38-1.95c1.47-.4 2.99.48 3.38 1.95l5.8-1.55a8.77 8.77 0 0 0-10.74-6.2l1.56 5.8Zm33.7-15.24-5.57 1.49 1.55 5.8 5.57-1.5-1.55-5.8Zm10.73 6.2a8.76 8.76 0 0 0-10.73-6.2l1.55 5.8c1.48-.4 2.99.47 3.38 1.95l5.8-1.56Zm-6.2 10.72a8.76 8.76 0 0 0 6.2-10.73l-5.8 1.56a2.75 2.75 0 0 1-1.95 3.38l1.55 5.8Zm-5.56 1.5 5.56-1.5-1.55-5.8-5.56 1.5 1.55 5.8Zm-6.66-13.26 2.98 11.13 5.8-1.55-2.98-11.13-5.8 1.55Z"
        fill="url(#g)" mask="url(#h)" />
    <path
        d="M1048.33 298a10.67 10.67 0 1 1 21.34 0 10.67 10.67 0 0 1-21.34 0Zm10.67 62-11.55-20h23.1L1059 360Zm0-36.64h-2 2Zm2-25.36v25.36h-4V298h4Zm0 25.36V342h-4v-18.64h4Z"
        fill="url(#i)" />
    <path
        d="M1292.33 298a10.67 10.67 0 1 1 21.34 0 10.67 10.67 0 0 1-21.34 0Zm10.67 62-11.55-20h23.1L1303 360Zm0-36.64h-2 2Zm2-25.36v25.36h-4V298h4Zm0 25.36V342h-4v-18.64h4Z"
        fill="url(#j)" />
    <path
        d="M1292.33 423a10.67 10.67 0 1 1 21.34 0 10.67 10.67 0 0 1-21.34 0Zm10.67 62-11.55-20h23.1L1303 485Zm0-36.64h-2 2Zm2-25.36v25.36h-4V423h4Zm0 25.36V467h-4v-18.64h4Z"
        fill="url(#k)" />
    <path
        d="M1048.33 423a10.67 10.67 0 1 1 21.34 0 10.67 10.67 0 0 1-21.34 0Zm10.67 62-11.55-20h23.1L1059 485Zm0-36.64h-2 2Zm2-25.36v25.36h-4V423h4Zm0 25.36V467h-4v-18.64h4Z"
        fill="url(#l)" />
    <path
        d="M1094.33 360a10.67 10.67 0 1 0 21.34 0 10.67 10.67 0 0 0-21.34 0Zm10.67-62-11.55 20h23.1L1105 298Zm0 36.64h2-2Zm2 25.36v-25.36h-4V360h4Zm0-25.36V316h-4v18.64h4Z"
        fill="url(#m)" />
    <path
        d="M1338.33 360a10.67 10.67 0 1 0 21.34 0 10.67 10.67 0 0 0-21.34 0Zm10.67-62-11.55 20h23.1L1349 298Zm0 36.64h2-2Zm2 25.36v-25.36h-4V360h4Zm0-25.36V316h-4v18.64h4Z"
        fill="url(#n)" />
    <path
        d="M1338.33 485a10.67 10.67 0 1 0 21.34 0 10.67 10.67 0 0 0-21.34 0Zm10.67-62-11.55 20h23.1L1349 423Zm0 36.64h2-2Zm2 25.36v-25.36h-4V485h4Zm0-25.36V441h-4v18.64h4Z"
        fill="url(#o)" />
    <path
        d="M1094.33 485a10.67 10.67 0 1 0 21.34 0 10.67 10.67 0 0 0-21.34 0Zm10.67-62-11.55 20h23.1L1105 423Zm0 36.64h2-2Zm2 25.36v-25.36h-4V485h4Zm0-25.36V441h-4v18.64h4Z"
        fill="url(#p)" />
    <path
        d="M290.33 284a10.67 10.67 0 1 1 21.34 0 10.67 10.67 0 0 1-21.34 0ZM301 485l-11.55-20h23.1L301 485Zm0-118.77h-2 2Zm2-82.23v82.23h-4V284h4Zm0 82.23V467h-4V366.23h4Z"
        fill="url(#q)" />
    <path
        d="M336.33 485a10.67 10.67 0 1 0 21.34 0 10.67 10.67 0 0 0-21.34 0ZM347 284l-11.55 20h23.1L347 284Zm0 118.77h2-2Zm2 82.23v-82.23h-4V485h4Zm0-82.23V302h-4v100.77h4Z"
        fill="url(#r)" />
    <defs>
        <linearGradient id="a" x1="317" y1="4" x2="317" y2="749" gradientUnits="userSpaceOnUse">
            <stop stop-color="#FF4E4E" />
            <stop offset="1" stop-color="#FF6D6D" />
        </linearGradient>
        <linearGradient id="b" x1="1199" y1="4" x2="1199" y2="749" gradientUnits="userSpaceOnUse">
            <stop stop-color="#FFD3A5" />
            <stop offset="1" stop-color="#FFC289" />
        </linearGradient>
        <linearGradient id="c" x1="1199" y1="4" x2="1199" y2="749" gradientUnits="userSpaceOnUse">
            <stop stop-color="#FF4E4E" />
            <stop offset="1" stop-color="#FF6D6D" />
        </linearGradient>
        <linearGradient id="d" x1="537" y1="254" x2="1003" y2="254" gradientUnits="userSpaceOnUse">
            <stop stop-color="#24C8DB" />
            <stop offset="1" stop-color="#24DBA4" />
        </linearGradient>
        <linearGradient id="f" x1="1224" y1="332.43" x2="1282.58" y2="366.25"
            gradientUnits="userSpaceOnUse">
            <stop stop-color="#FC7EFF" />
            <stop offset=".95" stop-color="#FF4874" />
        </linearGradient>
        <linearGradient id="g" x1="1247.19" y1="326.21" x2="1259.62" y2="372.6"
            gradientUnits="userSpaceOnUse">
            <stop stop-color="#fff" />
            <stop offset="1" stop-color="#fff" stop-opacity="0" />
        </linearGradient>
        <linearGradient id="i" x1="1059" y1="297.68" x2="1056.24" y2="359.88"
            gradientUnits="userSpaceOnUse">
            <stop stop-color="#24C8DB" />
            <stop offset="1" stop-color="#24DBA4" />
        </linearGradient>
        <linearGradient id="j" x1="1303" y1="297.68" x2="1300.24" y2="359.88"
            gradientUnits="userSpaceOnUse">
            <stop stop-color="#24C8DB" />
            <stop offset="1" stop-color="#24DBA4" />
        </linearGradient>
        <linearGradient id="k" x1="1303" y1="422.68" x2="1300.24" y2="484.88"
            gradientUnits="userSpaceOnUse">
            <stop stop-color="#24C8DB" />
            <stop offset="1" stop-color="#24DBA4" />
        </linearGradient>
        <linearGradient id="l" x1="1059" y1="422.68" x2="1056.24" y2="484.88"
            gradientUnits="userSpaceOnUse">
            <stop stop-color="#24C8DB" />
            <stop offset="1" stop-color="#24DBA4" />
        </linearGradient>
        <linearGradient id="m" x1="1105" y1="360.32" x2="1107.76" y2="298.12"
            gradientUnits="userSpaceOnUse">
            <stop stop-color="#24C8DB" />
            <stop offset="1" stop-color="#24DBA4" />
        </linearGradient>
        <linearGradient id="n" x1="1349" y1="360.32" x2="1351.76" y2="298.12"
            gradientUnits="userSpaceOnUse">
            <stop stop-color="#24C8DB" />
            <stop offset="1" stop-color="#24DBA4" />
        </linearGradient>
        <linearGradient id="o" x1="1349" y1="485.32" x2="1351.76" y2="423.12"
            gradientUnits="userSpaceOnUse">
            <stop stop-color="#24C8DB" />
            <stop offset="1" stop-color="#24DBA4" />
        </linearGradient>
        <linearGradient id="p" x1="1105" y1="485.32" x2="1107.76" y2="423.12"
            gradientUnits="userSpaceOnUse">
            <stop stop-color="#24C8DB" />
            <stop offset="1" stop-color="#24DBA4" />
        </linearGradient>
        <linearGradient id="q" x1="301" y1="282.97" x2="272.51" y2="480.9"
            gradientUnits="userSpaceOnUse">
            <stop stop-color="#24C8DB" />
            <stop offset="1" stop-color="#24DBA4" />
        </linearGradient>
        <linearGradient id="r" x1="347" y1="486.03" x2="375.49" y2="288.1"
            gradientUnits="userSpaceOnUse">
            <stop stop-color="#24C8DB" />
            <stop offset="1" stop-color="#24DBA4" />
        </linearGradient>
        <filter id="e" x="1226.98" y="327.38" width="51.31" height="55.43"
            filterUnits="userSpaceOnUse" color-interpolation-filters="sRGB">
            <feFlood flood-opacity="0" result="BackgroundImageFix" />
            <feBlend in="SourceGraphic" in2="BackgroundImageFix" result="shape" />
            <feColorMatrix in="SourceAlpha" values="0 0 0 0 0 0 0 0 0 0 0 0 0 0 0 0 0 0 127 0"
                result="hardAlpha" />
            <feOffset dy="4" />
            <feGaussianBlur stdDeviation="4.45" />
            <feComposite in2="hardAlpha" operator="arithmetic" k2="-1" k3="1" />
            <feColorMatrix values="0 0 0 0 1 0 0 0 0 0.975 0 0 0 0 0.993 0 0 0 0.31 0" />
            <feBlend in2="shape" result="effect1_innerShadow_2732_1250" />
        </filter>
    </defs>
</svg>