<svg width="1153" height="1066" fill="none" xmlns="http://www.w3.org/2000/svg">
    <style>
        @media (prefers-color-scheme: light) {
            path[fill="#fff"]{
                fill: #424242;
            }
            circle[fill="#fff"]{
                fill: #424242;
            }
          }
    </style>
    <rect x="454.5" y="3.5" width="276" height="101" rx="50.5" stroke="#fff" stroke-width="7" />
    <path
        d="m488.8 48-5.1-17.5h4.7L491 42h.1l3-11.5h3.8l3 11.5h.2l2.6-11.5h4.7l-5 17.5h-4.1L496 37.4h-.1L492.8 48h-4Zm26 .2c-1.4 0-2.5-.2-3.5-.8-1-.5-1.8-1.3-2.3-2.3-.6-1-.8-2.2-.8-3.6a6.7 6.7 0 0 1 3-5.9 6.8 6.8 0 0 1 6-.4 5.5 5.5 0 0 1 3.3 3.4c.4.8.5 1.7.5 2.8v1h-11.4V40h7.5c0-.4 0-.8-.3-1.1-.2-.4-.5-.7-.8-.9l-1.2-.3a2.5 2.5 0 0 0-2.2 1.2l-.3 1.2v2.5c0 .5.1 1 .3 1.4.2.4.5.7.9 1l1.4.2 1-.1.8-.5.4-.7 3.9.1a6 6 0 0 1-1 2.3 7 7 0 0 1-5.2 1.9Zm8.3-.2V30.5h4.2v6.7h.1l.7-1.2c.3-.4.7-.7 1.2-.9a4.8 4.8 0 0 1 6.2 2.6c.6 1 .8 2.2.8 3.8 0 1.4-.2 2.7-.7 3.7-.5 1-1 1.7-1.9 2.2a4.8 4.8 0 0 1-4.3.5 3.7 3.7 0 0 1-2-2h-.1V48H523Zm4.1-6.5c0 .7.1 1.3.3 1.8.2.5.5 1 .8 1.2.4.3.8.4 1.3.4.6 0 1-.1 1.3-.4.4-.3.7-.7.9-1.2l.2-1.8c0-.8 0-1.4-.2-1.9s-.5-.9-.9-1.2a2 2 0 0 0-1.3-.4 2 2 0 0 0-1.3.4c-.3.3-.6.7-.8 1.2a5 5 0 0 0-.3 1.9Zm13.7-11 3.9 12.8h.1l4-12.8h4.7l-6 17.5h-5.5l-6-17.5h4.8ZM555.4 48V35h4.2v13h-4.2Zm2.1-14.6c-.6 0-1-.2-1.5-.6a2 2 0 0 1-.6-1.4c0-.6.2-1 .6-1.4.4-.4 1-.6 1.5-.6a2 2 0 0 1 1.5.6c.5.4.7.8.7 1.4 0 .5-.2 1-.7 1.4a2 2 0 0 1-1.5.6Zm10.9 14.8c-1.4 0-2.6-.2-3.6-.8a5 5 0 0 1-2.2-2.3c-.6-1-.8-2.2-.8-3.6 0-1.3.2-2.5.8-3.5.5-1 1.2-1.8 2.2-2.4a7 7 0 0 1 6-.4 5.5 5.5 0 0 1 3.3 3.4c.3.8.5 1.7.5 2.8v1h-11.4V40h7.5c0-.4 0-.8-.3-1.1-.2-.4-.5-.7-.8-.9-.4-.2-.8-.3-1.3-.3a2.5 2.5 0 0 0-2 1.2 2 2 0 0 0-.4 1.2v2.5c0 .5 0 1 .3 1.4.2.4.5.7.9 1l1.4.2 1-.1.7-.5c.3-.2.4-.4.5-.7l3.9.1c-.2.9-.6 1.6-1.1 2.3-.5.6-1.2 1-2.1 1.4-.9.4-1.9.5-3 .5ZM579 48l-3.4-13h4.2l1.8 8.3 2-8.4h4l2 8.3h.1l1.7-8.3h4.2L592.2 48h-4.5l-2-7.6h-.2l-2 7.6H579Zm33-12.2a2 2 0 0 0-.8-1.5 3 3 0 0 0-1.9-.5c-.5 0-1 0-1.4.2-.3.1-.6.3-.8.6-.2.2-.2.5-.3.8 0 .3 0 .5.2.7l.5.6.8.3c.3.2.7.3 1.1.3l1.5.4 2.3.7c.7.4 1.2.7 1.7 1.2.4.4.8.9 1 1.4.2.6.3 1.2.3 2a4.6 4.6 0 0 1-3.2 4.6c-1 .4-2.2.6-3.7.6s-2.7-.2-3.8-.6c-1-.5-2-1.1-2.5-2a6 6 0 0 1-1-3.4h4l.5 1.4c.3.4.7.7 1.1.8.5.2 1 .3 1.7.3.5 0 1 0 1.4-.2.4-.1.7-.4 1-.6.2-.3.3-.6.3-1 0-.3-.1-.6-.3-.8-.2-.3-.5-.5-1-.6l-1.5-.5-1.9-.4a8 8 0 0 1-3.5-1.7 4 4 0 0 1-1.3-3.2c0-1 .3-2 .9-2.8.5-.8 1.3-1.5 2.4-2 1-.4 2.2-.6 3.5-.6 1.4 0 2.5.2 3.5.7a5.2 5.2 0 0 1 3.2 4.8h-4Zm12.5 12.4c-1.4 0-2.6-.2-3.5-.8-1-.5-1.8-1.3-2.3-2.3-.6-1-.8-2.2-.8-3.6a6.7 6.7 0 0 1 3-5.9 6.8 6.8 0 0 1 6-.4 5.5 5.5 0 0 1 3.3 3.4c.4.8.5 1.7.5 2.8v1h-11.4V40h7.5c0-.4 0-.8-.3-1.1-.2-.4-.5-.7-.8-.9l-1.2-.3a2.5 2.5 0 0 0-2.2 1.2l-.3 1.2v2.5c0 .5 0 1 .3 1.4.2.4.5.7.9 1l1.4.2 1-.1.8-.5.4-.7 3.9.1a6 6 0 0 1-1 2.3 7 7 0 0 1-5.2 1.9Zm14.5 0a7 7 0 0 1-3.6-.8c-1-.6-1.7-1.4-2.3-2.4-.5-1-.8-2.2-.8-3.5 0-1.3.3-2.5.8-3.5.6-1 1.3-1.8 2.3-2.4a7 7 0 0 1 3.5-.9c1.3 0 2.3.3 3.2.7a5 5 0 0 1 2.1 1.9c.5.7.8 1.7.8 2.8h-4c0-.7-.3-1.2-.6-1.6a2 2 0 0 0-1.5-.6 2 2 0 0 0-1.3.4c-.3.3-.6.7-.8 1.2-.2.5-.3 1.2-.3 2 0 .7 0 1.4.3 2l.8 1.1c.4.3.8.4 1.3.4.4 0 .7 0 1-.2.3-.2.6-.4.8-.8.2-.3.3-.7.3-1.1h4c-.1 1-.4 2-.9 2.8a5 5 0 0 1-2 1.9 7 7 0 0 1-3.3.6Zm16.6-5.9V35h4.2v13h-4v-2.4h-.1a4 4 0 0 1-1.5 1.9c-.7.4-1.6.7-2.5.7a4.2 4.2 0 0 1-4-2.3c-.3-.8-.5-1.7-.5-2.6v-8.4h4.1v7.5c0 .7.2 1.3.6 1.7.4.4.9.6 1.5.6.4 0 .8 0 1.1-.2.4-.2.6-.5.8-.9.2-.3.3-.7.3-1.3Zm6.8 5.7V35h4v2.3h.2c.2-.9.6-1.5 1.2-2a3 3 0 0 1 1.9-.6 4.4 4.4 0 0 1 1.1.2v3.6a7 7 0 0 0-1.6-.2c-.5 0-1 0-1.4.3-.3.2-.7.5-.9 1-.2.3-.3.8-.3 1.3V48h-4.2Zm10.1 0V35h4.2v13h-4.2Zm2.1-14.6c-.6 0-1-.2-1.5-.6a2 2 0 0 1-.6-1.4c0-.6.2-1 .6-1.4.4-.4 1-.6 1.5-.6a2 2 0 0 1 1.5.6c.4.4.6.8.6 1.4 0 .5-.2 1-.6 1.4a2 2 0 0 1-1.5.6Zm12.1 1.5v3h-8.2v-3h8.2Zm-6.5-3.1h4.2v12.7c.2.2.3.3.5.3l.5.1a3.2 3.2 0 0 0 1-.1l.6 3a19.4 19.4 0 0 1-2.2.4c-1 0-1.8 0-2.5-.4-.7-.2-1.2-.7-1.6-1.2a4 4 0 0 1-.5-2.3V31.8Zm11.2 21.1a8 8 0 0 1-2.6-.4l1-3 1 .2c.4 0 .7 0 1-.2.2 0 .4-.3.5-.6l.2-.4-4.7-13.6h4.4l2.4 9.4h.1l2.5-9.4h4.4l-5 14.4a6 6 0 0 1-1 1.8c-.4.6-1 1-1.7 1.3a6 6 0 0 1-2.5.5Zm-187.1 6.6h4.2v11.3a6.2 6.2 0 0 1-3.5 5.6 9 9 0 0 1-3.9.8 9 9 0 0 1-3.9-.8c-1-.5-2-1.2-2.6-2.2-.6-1-.9-2-.9-3.4V59.5h4.2v11c0 .5.2 1 .4 1.5.3.5.7.9 1.2 1.2.4.2 1 .4 1.6.4.6 0 1.2-.2 1.7-.4a3 3 0 0 0 1-1.2c.4-.4.5-1 .5-1.6V59.5ZM511 82V64h4.2v2.3l.8-1.2c.3-.4.7-.7 1.2-.9a4.8 4.8 0 0 1 6.2 2.6c.6 1 .8 2.2.8 3.8 0 1.4-.2 2.7-.7 3.7-.5 1-1.1 1.7-1.9 2.2a4.8 4.8 0 0 1-4.3.5 3.7 3.7 0 0 1-2-2v7H511Zm4.1-11.4c0 .7.1 1.3.3 1.8.2.5.5 1 .8 1.2.4.3.8.4 1.3.4s1-.1 1.3-.4c.4-.3.7-.7.8-1.2.2-.5.3-1.1.3-1.8 0-.8 0-1.4-.3-1.9a2 2 0 0 0-.8-1.2 2 2 0 0 0-1.3-.4 2 2 0 0 0-1.3.4c-.3.3-.6.7-.8 1.2a5 5 0 0 0-.3 1.9Zm16 6.7a4.8 4.8 0 0 1-4.5-3c-.4-1-.7-2.3-.7-3.7 0-1.6.3-2.8.8-3.8s1.1-1.8 1.9-2.2a4.9 4.9 0 0 1 4.3-.4c.5.2 1 .5 1.2.9l.8 1.2v-6.7h4.2V77H535v-2.1h-.1a4 4 0 0 1-.8 1.1c-.3.4-.7.6-1.2.9-.5.2-1 .3-1.7.3Zm1.5-3.3c.5 0 1-.1 1.3-.4.4-.3.6-.7.8-1.2.2-.5.3-1.1.3-1.8 0-.8 0-1.4-.3-1.9-.1-.5-.4-1-.8-1.2a2 2 0 0 0-1.3-.4 2 2 0 0 0-1.3.4c-.3.3-.6.7-.8 1.2-.2.5-.3 1.2-.3 1.9s.1 1.3.3 1.8c.2.5.5 1 .8 1.2.4.3.8.4 1.3.4Zm12.8 3.3c-.8 0-1.5-.1-2.2-.4-.6-.3-1.1-.7-1.5-1.3a4 4 0 0 1-.6-2.1c0-.8.2-1.4.4-1.9a4 4 0 0 1 1-1.2 5 5 0 0 1 1.6-.7 10 10 0 0 1 1.9-.3l1.8-.2c.4-.1.8-.2 1-.4.2-.1.3-.3.3-.6 0-.5-.2-.8-.5-1a2 2 0 0 0-1.2-.4c-.5 0-1 .1-1.3.3-.3.3-.6.6-.6 1l-3.9-.1a4.5 4.5 0 0 1 2.9-3.6 8.5 8.5 0 0 1 5.3-.2c.7.1 1.3.4 1.8.8a3.8 3.8 0 0 1 1.7 3.2V77h-4v-1.8A3.7 3.7 0 0 1 547 77l-1.7.2Zm1.3-2.7c.5 0 .9-.1 1.2-.3.4-.2.7-.4.9-.7.2-.4.3-.7.3-1.2v-1.2l-.4.2a7.4 7.4 0 0 1-1.2.2 41.2 41.2 0 0 1-1.6.4l-.6.5c-.2.2-.2.5-.2.8 0 .4.1.7.4 1 .3.2.7.3 1.2.3ZM563.2 64v3h-8.3v-3h8.3Zm-6.5-3.1h4.1v12c0 .3 0 .5.2.7 0 .2.2.3.3.3l.6.1a3.2 3.2 0 0 0 .9-.1l.6 3a19.4 19.4 0 0 1-2.1.4c-1 0-1.8 0-2.5-.4-.7-.2-1.2-.7-1.6-1.2a4 4 0 0 1-.5-2.3V60.8Zm14.6 16.4c-1.4 0-2.6-.2-3.5-.8-1-.5-1.8-1.3-2.3-2.3-.6-1-.8-2.2-.8-3.6a6.7 6.7 0 0 1 3-5.9 6.8 6.8 0 0 1 6-.4 5.5 5.5 0 0 1 3.3 3.4c.4.8.5 1.7.5 2.8v1h-11.4V69h7.5c0-.4 0-.8-.3-1.1-.2-.4-.5-.7-.8-.9l-1.2-.3A2.5 2.5 0 0 0 569 68l-.3 1.2v2.5c0 .5 0 1 .3 1.4.2.4.5.7.9 1l1.4.2 1-.1.8-.5.4-.7 3.9.1a6 6 0 0 1-1 2.3 7 7 0 0 1-5.2 1.9Zm17.3-.2H584l6-17.5h5.5l6 17.5h-4.6l-4.1-13h-.1l-4.1 13Zm-.6-6.9h9.4v3.2H588v-3.2Zm26.4-6.2-4.5 13H605l-4.5-13h4.4l2.4 9h.2l2.4-9h4.4Zm5 13.3a5 5 0 0 1-2.3-.4c-.7-.3-1.2-.7-1.5-1.3a4 4 0 0 1-.6-2.1c0-.8.1-1.4.4-1.9a3 3 0 0 1 1-1.2 5 5 0 0 1 1.6-.7 10 10 0 0 1 1.9-.3l1.8-.2c.4-.1.8-.2 1-.4.2-.1.3-.3.3-.6 0-.5-.2-.8-.5-1a2 2 0 0 0-1.2-.4c-.5 0-1 .1-1.3.3-.4.3-.6.6-.7 1l-3.8-.1a4.5 4.5 0 0 1 2.8-3.6 8.5 8.5 0 0 1 5.3-.2c.8.1 1.4.4 1.9.8a3.8 3.8 0 0 1 1.5 3v9h-3.9v-1.8a3.7 3.7 0 0 1-2.3 1.8l-1.6.2Zm1.2-2.7 1.2-.3c.4-.2.7-.4.9-.7.2-.4.3-.7.3-1.2v-1.2l-.4.2a7.4 7.4 0 0 1-1.2.2 41.2 41.2 0 0 1-1.6.4l-.6.5c-.2.2-.3.5-.3.8 0 .4.2.7.5 1 .3.2.7.3 1.2.3Zm9 2.5V64h4.2v13h-4.1Zm2.2-14.6a2 2 0 0 1-1.5-.6c-.5-.4-.7-.9-.7-1.4 0-.6.2-1 .7-1.4.4-.4.9-.6 1.5-.6s1 .2 1.5.6c.4.4.6.8.6 1.4 0 .5-.2 1-.6 1.4-.4.4-1 .6-1.5.6Zm8.9-2.9V77h-4.2V59.5h4.2Zm6.3 17.7a5 5 0 0 1-2.2-.4c-.7-.3-1.2-.7-1.5-1.3a4 4 0 0 1-.6-2.1c0-.8.1-1.4.4-1.9a3 3 0 0 1 1-1.2 5 5 0 0 1 1.6-.7 10 10 0 0 1 1.9-.3l1.8-.2c.4-.1.8-.2 1-.4.2-.1.3-.3.3-.6 0-.5-.2-.8-.5-1a2 2 0 0 0-1.2-.4c-.5 0-1 .1-1.3.3-.4.3-.6.6-.7 1l-3.8-.1a4.5 4.5 0 0 1 2.8-3.6 8.5 8.5 0 0 1 5.3-.2c.8.1 1.4.4 1.9.8a3.9 3.9 0 0 1 1.6 3.2V77H651v-1.8a3.7 3.7 0 0 1-2.3 1.8l-1.6.2Zm1.3-2.7c.4 0 .9-.1 1.2-.3.4-.2.7-.4.9-.7.2-.4.3-.7.3-1.2v-1.2l-.4.2a7.5 7.5 0 0 1-1.2.2 41.2 41.2 0 0 1-1.6.4l-.6.5c-.2.2-.2.5-.2.8 0 .4.1.7.4 1 .3.2.7.3 1.2.3Zm9 2.5V59.5h4.3v6.7c.2-.4.4-.8.8-1.2.3-.4.7-.7 1.2-.9a4.8 4.8 0 0 1 6.2 2.6c.5 1 .8 2.2.8 3.8 0 1.4-.3 2.7-.8 3.7-.4 1-1 1.7-1.8 2.2a4.8 4.8 0 0 1-4.4.5 3.7 3.7 0 0 1-2-2V77h-4.2Zm4.2-6.5c0 .7 0 1.3.2 1.8s.5 1 .9 1.2c.3.3.8.4 1.3.4s1-.1 1.3-.4c.3-.3.6-.7.8-1.2.2-.5.3-1.1.3-1.8a5 5 0 0 0-.3-1.9c-.2-.5-.5-.9-.8-1.2a2 2 0 0 0-1.3-.4 2 2 0 0 0-1.3.4c-.4.3-.7.7-.9 1.2l-.2 1.9Zm15.4-11V77h-4.2V59.5h4.2Zm8.8 17.7c-1.4 0-2.6-.2-3.6-.8-1-.5-1.7-1.3-2.3-2.3a8 8 0 0 1-.7-3.6c0-1.3.2-2.5.8-3.5.5-1 1.2-1.8 2.2-2.4a7.2 7.2 0 0 1 6-.4 5.5 5.5 0 0 1 3.3 3.4c.3.8.5 1.7.5 2.8v1h-11.4V69h7.5a2.1 2.1 0 0 0-1.2-2c-.3-.2-.7-.3-1.2-.3a2.5 2.5 0 0 0-2.1 1.2l-.3 1.2v2.5c0 .5 0 1 .3 1.4.2.4.5.7.9 1l1.4.2 1-.1.7-.5.5-.7 3.8.1c-.1.9-.5 1.6-1 2.3-.5.6-1.2 1-2.1 1.4-.9.4-1.9.5-3 .5Z"
        fill="#fff" />
    <rect x="444" y="1005" width="299" height="61" rx="30.5" fill="#fff" />
    <path
        d="M498.2 1044v-17.5h7.2a7 7 0 0 1 3.4.8 5 5 0 0 1 2.2 2.1c.6 1 .8 2 .8 3.2 0 1.2-.3 2.3-.8 3.2-.5.9-1.3 1.5-2.2 2-1 .5-2.1.8-3.5.8H501v-3.3h3.6c.7 0 1.2-.2 1.6-.4.5-.2.8-.5 1-1 .2-.3.3-.8.3-1.3s0-1-.3-1.4c-.2-.4-.5-.7-1-1-.4-.2-1-.3-1.6-.3h-2v14.1h-4.3Zm19 .2a5 5 0 0 1-2.3-.4c-.7-.3-1.2-.7-1.5-1.3a4 4 0 0 1-.6-2.1c0-.8.1-1.4.4-1.9a3 3 0 0 1 1-1.2 5 5 0 0 1 1.6-.7c.6-.2 1.2-.3 1.9-.3l1.8-.2c.4-.1.8-.2 1-.4.2-.1.3-.3.3-.6 0-.5-.2-.8-.5-1-.3-.3-.7-.4-1.2-.4s-1 .1-1.3.3c-.4.3-.6.6-.7 1l-3.8-.1a4.5 4.5 0 0 1 2.8-3.6 8.4 8.4 0 0 1 5.3-.2c.8.1 1.4.4 1.9.8a3.8 3.8 0 0 1 1.6 3.2v8.9H521v-1.8l-1 1.1c-.3.3-.8.5-1.3.7l-1.6.2Zm1.2-2.7c.4 0 .9-.1 1.2-.3.4-.2.7-.4.9-.7.2-.3.3-.7.3-1.2v-1.2l-.4.2a11.8 11.8 0 0 1-1.8.3c-.4 0-.7.2-1 .3a1 1 0 0 0-.6.5c-.2.2-.2.5-.2.8 0 .4.1.7.4 1 .3.2.7.3 1.2.3Zm16.5-10.6v3h-8.3v-3h8.3Zm-6.6-3.1h4.2v12l.1.7c.1.2.2.3.4.3l.6.1a3 3 0 0 0 .9-.1l.6 3-.8.2-1.3.2c-1 0-1.8 0-2.5-.4-.7-.2-1.3-.7-1.6-1.3a4 4 0 0 1-.6-2.2v-12.5Zm14.7 16.5a7 7 0 0 1-3.6-1c-1-.5-1.7-1.3-2.3-2.3-.5-1-.7-2.2-.7-3.5 0-1.3.2-2.5.8-3.5.5-1 1.2-1.8 2.2-2.4a7 7 0 0 1 3.6-.9c1.2 0 2.2.3 3.1.7a5 5 0 0 1 3 4.7h-4c0-.7-.3-1.2-.6-1.6a2 2 0 0 0-1.5-.6 2 2 0 0 0-1.2.4c-.4.3-.7.7-.9 1.2-.2.5-.3 1.2-.3 2 0 .7.1 1.4.3 2 .2.4.5.8.9 1.1.3.3.7.4 1.2.4.4 0 .7 0 1-.2.3-.2.6-.4.8-.8l.4-1.1h3.8c0 1-.3 2-.8 2.8a5 5 0 0 1-2 1.9 7 7 0 0 1-3.2.7Zm12.3-7.8v7.5h-4.1v-17.5h4v6.8h.2c.3-.8.7-1.4 1.4-1.9a4.9 4.9 0 0 1 4.9-.1c.7.5 1.2 1 1.6 1.8.4.7.5 1.6.5 2.6v8.3h-4.1v-7.5c0-.8-.2-1.3-.6-1.7a2 2 0 0 0-1.5-.6c-.5 0-.9 0-1.2.3-.3.1-.6.4-.8.8-.2.3-.2.7-.3 1.2Zm17.3 7.8c-1.4 0-2.6-.3-3.6-.9-1-.5-1.7-1.3-2.3-2.3a8 8 0 0 1-.8-3.6c0-1.3.3-2.5.8-3.5.6-1 1.3-1.8 2.3-2.4a7.2 7.2 0 0 1 6-.4 5.5 5.5 0 0 1 3.3 3.4c.3.8.5 1.8.5 2.8v1h-11.4v-2.4h7.5a2 2 0 0 0-.3-1.1 2 2 0 0 0-.9-.9c-.3-.2-.7-.3-1.2-.3s-.9.1-1.2.4a2.4 2.4 0 0 0-1.3 2v2.5c0 .5.1 1 .4 1.4.2.4.5.7.9 1l1.3.2 1-.1.8-.5.5-.7 3.8.1c-.1.9-.5 1.6-1 2.3-.6.6-1.3 1-2.1 1.4-.9.4-1.9.5-3 .5Zm13-.1a4.8 4.8 0 0 1-4.4-3c-.5-1-.8-2.3-.8-3.7 0-1.6.3-2.8.8-3.8s1.1-1.8 1.9-2.3a5 5 0 0 1 2.6-.7 4 4 0 0 1 1.7.4c.5.2 1 .5 1.2.9.4.4.6.8.8 1.2v-6.7h4.2v17.5h-4.1v-2.1h-.1a4 4 0 0 1-.8 1.1c-.3.4-.7.7-1.2.9-.5.2-1 .3-1.7.3Zm1.5-3.3c.5 0 1-.1 1.3-.4.4-.3.7-.7.9-1.2l.2-1.8c0-.8 0-1.4-.2-1.9s-.5-1-.9-1.2a2 2 0 0 0-1.3-.4 2 2 0 0 0-1.3.4c-.3.3-.6.7-.8 1.2-.2.5-.3 1.2-.3 1.9s.1 1.3.3 1.8c.2.5.5 1 .8 1.2.4.3.8.4 1.3.4Zm23.7-9.1a2 2 0 0 0-.7-1.5 3 3 0 0 0-2-.5c-.5 0-1 0-1.3.2-.3.2-.6.3-.8.6-.2.2-.3.5-.3.8 0 .3 0 .5.2.7 0 .2.3.4.5.6l.8.3c.3.2.7.3 1 .3l1.6.4 2.3.7c.6.3 1.2.7 1.6 1.1.5.5.8 1 1 1.5a5.4 5.4 0 0 1-.4 4.8c-.6.8-1.4 1.4-2.4 1.8-1 .4-2.3.6-3.7.6-1.5 0-2.8-.2-3.8-.6-1.1-.5-2-1.1-2.6-2a6 6 0 0 1-.9-3.4h4c0 .5.2 1 .5 1.4.3.4.6.7 1.1.9l1.6.2c.6 0 1 0 1.5-.2l1-.6.2-1c0-.3 0-.6-.3-.8-.2-.3-.5-.5-.9-.6l-1.6-.5-1.8-.4a8 8 0 0 1-3.5-1.7 4 4 0 0 1-1.3-3.2c0-1 .2-2 .8-2.8.6-.8 1.4-1.5 2.5-2 1-.4 2.2-.6 3.5-.6 1.3 0 2.5.2 3.5.7 1 .5 1.8 1 2.3 2 .6.7.9 1.7.9 2.8h-4Zm9 17.1a8 8 0 0 1-2.6-.4l1-3 1 .2c.4 0 .7 0 1-.2.2 0 .4-.3.5-.6l.2-.4-4.7-13.6h4.4l2.4 9.3h.1l2.5-9.3h4.4l-5 14.3a6 6 0 0 1-1 2c-.4.5-1 1-1.7 1.2a6 6 0 0 1-2.5.5Zm23.2-14-3.9.1a1 1 0 0 0-.3-.7c-.1-.2-.4-.4-.7-.5l-1-.2c-.4 0-.8 0-1.2.3-.3.2-.5.4-.5.8l.3.6c.3.2.6.4 1.2.5l2.5.5a6 6 0 0 1 3 1.2 3 3 0 0 1 .9 2.3 4 4 0 0 1-.8 2.4 5 5 0 0 1-2.1 1.5c-1 .4-2 .5-3.2.5-1.8 0-3.3-.3-4.4-1.1-1-.8-1.7-1.8-1.8-3.1l4-.1c.2.5.4.8.8 1a2.5 2.5 0 0 0 2.8 0c.3 0 .5-.3.5-.6s-.2-.6-.4-.7l-1.2-.5-2.3-.4a5.4 5.4 0 0 1-3-1.3c-.6-.7-1-1.5-.9-2.5 0-.9.2-1.6.7-2.2.5-.7 1.1-1.1 2-1.5.9-.3 2-.5 3-.5a7 7 0 0 1 4.3 1.2 4 4 0 0 1 1.7 3Zm9.7-4v3h-8.2v-3h8.2Zm-6.5-3.1h4.2v12l.1.7c0 .2.2.3.4.3l.5.1a3 3 0 0 0 1-.1l.6 3-.9.2-1.3.2c-1 0-1.8 0-2.5-.4a3 3 0 0 1-1.6-1.3 4 4 0 0 1-.5-2.2v-12.5Zm14.6 16.5c-1.3 0-2.5-.3-3.5-.9-1-.5-1.7-1.3-2.3-2.3a8 8 0 0 1-.8-3.6c0-1.3.3-2.5.8-3.5.6-1 1.3-1.8 2.3-2.4a7.2 7.2 0 0 1 6-.4 5.5 5.5 0 0 1 3.3 3.4c.3.8.5 1.8.5 2.8v1h-11.4v-2.4h7.5a2 2 0 0 0-.3-1.1 2 2 0 0 0-.9-.9c-.3-.2-.7-.3-1.2-.3s-.9.1-1.2.4a2.4 2.4 0 0 0-1.3 2v2.5c0 .5.1 1 .3 1.4l1 1 1.3.2 1-.1.8-.5.5-.7 3.8.1c-.1.9-.5 1.6-1 2.3-.6.6-1.3 1-2.1 1.4-1 .4-2 .5-3 .5Zm8.4-.3v-13h4v2.3h.1a3.7 3.7 0 0 1 3.7-2.6c.9 0 1.7.3 2.3.7.7.5 1 1.1 1.3 2h.1c.2-.9.7-1.5 1.4-2 .7-.4 1.6-.7 2.5-.7a4 4 0 0 1 3 1.2c.8.8 1.2 2 1.2 3.3v8.8h-4.1v-7.9a2 2 0 0 0-.5-1.4c-.4-.4-.8-.6-1.4-.6-.5 0-1 .2-1.3.6-.3.4-.5.9-.5 1.5v7.8h-4v-7.9c0-.6-.2-1-.5-1.4-.3-.4-.8-.6-1.3-.6-.4 0-.7.1-1 .3-.2.2-.5.4-.6.7-.2.4-.2.7-.2 1.2v7.7h-4.2Z"
        fill="#424242" />
    <rect x="70" y="462" width="381" height="61" rx="30.5" fill="#fff" />
    <path
        d="M109.8 501h-6.5v-17.5h6.5c1.7 0 3.3.4 4.6 1 1.3.8 2.2 1.8 3 3a12 12 0 0 1 0 9.5 7.2 7.2 0 0 1-3 3c-1.3.7-2.9 1-4.6 1Zm-2.3-3.6h2.1c1 0 1.8-.2 2.5-.5s1.2-.9 1.5-1.6c.4-.8.6-1.8.6-3a7 7 0 0 0-.6-3c-.3-.8-.8-1.3-1.5-1.7-.7-.3-1.5-.5-2.5-.5h-2v10.3Zm19.5 3.8a7 7 0 0 1-3.6-.8c-1-.6-1.7-1.4-2.3-2.4-.5-1-.7-2.2-.7-3.5 0-1.3.2-2.5.7-3.5.6-1 1.3-1.8 2.3-2.4a7 7 0 0 1 3.6-.9 7 7 0 0 1 3.5.9c1 .6 1.8 1.3 2.3 2.4.5 1 .8 2.2.8 3.5 0 1.3-.3 2.5-.8 3.5s-1.3 1.8-2.3 2.4a7 7 0 0 1-3.5.8Zm0-3.1c.5 0 1-.2 1.3-.5.3-.3.6-.7.8-1.2l.2-2c0-.7 0-1.3-.2-1.8-.2-.6-.5-1-.8-1.3-.4-.3-.8-.5-1.3-.5a2 2 0 0 0-1.3.5 3 3 0 0 0-.8 1.3 6 6 0 0 0-.3 1.9c0 .7 0 1.3.3 1.9.2.5.4 1 .8 1.2.3.3.8.5 1.3.5Zm10.9 2.9-3.4-13h4.2l1.7 8.3h.1l2-8.4h4l2 8.3 1.8-8.3h4.2L151 501h-4.4l-2-7.6h-.2l-2 7.6h-4.5Zm22.4-7.5v7.5h-4.2v-13h4v2.3h.1a4 4 0 0 1 1.5-1.9c.7-.4 1.6-.7 2.5-.7 1 0 1.7.2 2.4.7.7.4 1.2 1 1.6 1.7.4.7.6 1.6.6 2.6v8.3h-4.2v-7.5c0-.8-.2-1.3-.6-1.7a2 2 0 0 0-1.5-.6c-.4 0-.8 0-1.2.2a2 2 0 0 0-.7.9 3 3 0 0 0-.3 1.2Zm15.2-10V501h-4.2v-17.5h4.2Zm8.8 17.7a7 7 0 0 1-3.6-.8c-1-.6-1.7-1.4-2.2-2.4-.6-1-.8-2.2-.8-3.5 0-1.3.2-2.5.8-3.5.5-1 1.2-1.8 2.2-2.4a7 7 0 0 1 3.6-.9 7 7 0 0 1 3.5.9c1 .6 1.8 1.3 2.3 2.4.5 1 .8 2.2.8 3.5 0 1.3-.3 2.5-.8 3.5s-1.3 1.8-2.3 2.4a7 7 0 0 1-3.5.8Zm0-3.1c.5 0 1-.2 1.3-.5.3-.3.6-.7.8-1.2l.2-2c0-.7 0-1.3-.2-1.8-.2-.6-.5-1-.8-1.3-.4-.3-.8-.5-1.3-.5a2 2 0 0 0-1.3.5c-.4.3-.6.7-.8 1.3a6 6 0 0 0-.3 1.9c0 .7 0 1.3.3 1.9.2.5.4 1 .8 1.2.3.3.8.5 1.3.5Zm12.4 3.1a5 5 0 0 1-2.2-.4c-.7-.3-1.2-.7-1.5-1.3a4 4 0 0 1-.6-2.1c0-.8.1-1.4.4-1.9a3 3 0 0 1 1-1.2 5 5 0 0 1 1.6-.7 10 10 0 0 1 1.9-.3l1.8-.2c.4-.1.8-.2 1-.4.2-.1.3-.3.3-.6 0-.5-.2-.8-.5-1a2 2 0 0 0-1.2-.4c-.5 0-1 .1-1.3.3-.4.3-.6.6-.7 1l-3.8-.1a4.6 4.6 0 0 1 2.8-3.6 8.5 8.5 0 0 1 5.3-.2c.8.1 1.4.4 1.9.8a3.9 3.9 0 0 1 1.6 3.2v8.9h-3.9v-1.8a3.7 3.7 0 0 1-2.3 1.8l-1.6.2Zm1.3-2.7 1.2-.3c.4-.2.7-.4.9-.7.2-.4.3-.7.3-1.2v-1.2l-.4.2a7.8 7.8 0 0 1-1.8.3c-.4 0-.7.2-1 .3l-.6.5c-.2.2-.2.5-.2.8 0 .4.1.7.4 1 .3.2.7.3 1.2.3Zm13.9 2.7a4.8 4.8 0 0 1-4.6-3c-.4-1-.7-2.3-.7-3.7 0-1.6.3-2.8.8-3.8s1-1.8 1.9-2.2a4.9 4.9 0 0 1 4.3-.4c.5.2.9.5 1.2.9.3.4.6.8.7 1.2h.1v-6.7h4.2V501h-4.1v-2.1h-.2a4 4 0 0 1-.7 1.1c-.3.4-.7.6-1.2.9-.5.2-1 .3-1.7.3Zm1.4-3.3c.5 0 1-.1 1.3-.4.4-.3.6-.7.8-1.2.2-.5.3-1.1.3-1.8 0-.8 0-1.4-.3-1.9-.2-.5-.4-1-.8-1.2a2 2 0 0 0-1.3-.4 2 2 0 0 0-1.3.4c-.4.3-.6.7-.8 1.2a5 5 0 0 0-.3 1.9c0 .7.1 1.3.3 1.8.2.5.4 1 .8 1.2.4.3.8.4 1.3.4Zm14.3 3.1v-17.5h4.2v14h7.3v3.5h-11.5Zm17.3.2c-.8 0-1.5-.1-2.2-.4-.6-.3-1.1-.7-1.5-1.3a4 4 0 0 1-.6-2.1c0-.8.2-1.4.4-1.9a4 4 0 0 1 1-1.2 5 5 0 0 1 1.6-.7 10 10 0 0 1 2-.3l1.7-.2c.5-.1.8-.2 1-.4.2-.1.3-.3.3-.6 0-.5-.1-.8-.4-1a2 2 0 0 0-1.3-.4c-.5 0-1 .1-1.3.3a2 2 0 0 0-.6 1l-3.9-.1a4.5 4.5 0 0 1 2.9-3.6 8.5 8.5 0 0 1 5.3-.2c.7.1 1.3.4 1.8.8a3.9 3.9 0 0 1 1.7 3.2v8.9h-4v-1.8a3.7 3.7 0 0 1-2.2 1.8l-1.7.2Zm1.3-2.7c.5 0 .9-.1 1.2-.3l1-.7.2-1.2v-1.2l-.4.2a7.8 7.8 0 0 1-1.8.3c-.4 0-.7.2-1 .3l-.6.5-.2.8c0 .4.1.7.4 1l1.2.3Zm16.5-10.6v3h-8.3v-3h8.3Zm-6.5-3.1h4.1v12c0 .3 0 .5.2.7 0 .2.2.3.3.3l.6.1a3.1 3.1 0 0 0 1-.1l.5 3a19.9 19.9 0 0 1-2 .4c-1 0-1.9 0-2.6-.4-.7-.2-1.2-.7-1.6-1.2a4 4 0 0 1-.5-2.3v-12.5Zm14.6 16.4c-1.4 0-2.5-.2-3.5-.8-1-.5-1.8-1.3-2.3-2.3a8 8 0 0 1-.8-3.6c0-1.3.3-2.5.8-3.5s1.3-1.8 2.2-2.4a6.8 6.8 0 0 1 6-.4 5.5 5.5 0 0 1 3.4 3.4c.3.8.4 1.7.4 2.8v1h-11.4V493h7.5c0-.4 0-.8-.3-1.1-.2-.4-.5-.7-.8-.9l-1.2-.3a2.5 2.5 0 0 0-2.2 1.2l-.3 1.2v2.5c0 .5.1 1 .3 1.4.2.4.5.7 1 1l1.3.2 1-.1.8-.5.5-.7 3.8.1a6 6 0 0 1-1 2.3 7 7 0 0 1-5.2 1.9Zm19.8-9.3-3.8.1c0-.3-.2-.5-.4-.7-.1-.2-.4-.4-.7-.5l-1-.2c-.4 0-.8 0-1.2.3-.3.2-.5.4-.5.8l.3.6c.3.2.6.4 1.2.5l2.5.5a6 6 0 0 1 3 1.2 3 3 0 0 1 1 2.3 5 5 0 0 1-.9 2.4c-.5.6-1.2 1.1-2.1 1.5-1 .4-2 .5-3.2.5-1.8 0-3.3-.3-4.4-1.1-1-.8-1.7-1.8-1.8-3.1l4-.1c.2.5.4.8.8 1 .4.3.9.5 1.5.5.5 0 1-.1 1.3-.3.3-.2.5-.5.5-.8 0-.3-.2-.6-.4-.7l-1.2-.5-2.3-.4a5.4 5.4 0 0 1-3-1.3c-.6-.7-.9-1.5-.9-2.5 0-.9.2-1.6.7-2.2.5-.7 1.1-1.1 2-1.5.9-.3 2-.5 3-.5a7 7 0 0 1 4.3 1.2 4 4 0 0 1 1.7 3Zm9.7-4v3h-8.2v-3h8.2Zm-6.5-3.1h4.2v12l.1.7c0 .2.2.3.4.3l.5.1a3.1 3.1 0 0 0 1-.1l.6 3a20.3 20.3 0 0 1-2.1.4c-1 0-1.9 0-2.6-.4-.7-.2-1.2-.7-1.6-1.2a4 4 0 0 1-.5-2.3v-12.5Zm18 16.2-5-17.5h4.6L314 495h.2l3-11.5h3.8l3 11.5h.1l2.7-11.5h4.6l-5 17.5h-4.1l-3.1-10.6h-.2l-3 10.6h-4Zm26 .2c-1.3 0-2.5-.2-3.5-.8-1-.5-1.8-1.3-2.3-2.3a8 8 0 0 1-.8-3.6c0-1.3.3-2.5.8-3.5.6-1 1.3-1.8 2.3-2.4a7.2 7.2 0 0 1 6-.4 5.5 5.5 0 0 1 3.3 3.4c.3.8.5 1.7.5 2.8v1h-11.4V493h7.5a2.2 2.2 0 0 0-1.2-2c-.3-.2-.7-.3-1.2-.3a2.5 2.5 0 0 0-2.1 1.2c-.2.4-.4.8-.4 1.2v2.5c0 .5.1 1 .3 1.4l1 1 1.3.2 1-.1.8-.5.5-.7 3.8.1c-.1.9-.5 1.6-1 2.3-.6.6-1.3 1-2.1 1.4-1 .4-2 .5-3 .5Zm8.4-.2v-17.5h4.2v6.7c.2-.4.4-.8.8-1.2.3-.4.7-.7 1.2-.9a4.8 4.8 0 0 1 6.2 2.6c.5 1 .8 2.2.8 3.8 0 1.4-.3 2.7-.8 3.7-.4 1-1 1.7-1.8 2.2a4.8 4.8 0 0 1-4.4.5 3.7 3.7 0 0 1-2-2v2.1h-4.2Zm4-6.5c0 .7.2 1.3.3 1.8.2.5.5 1 .9 1.2.3.3.8.4 1.3.4s1-.1 1.3-.4c.3-.3.6-.7.8-1.2.2-.5.3-1.1.3-1.8a5 5 0 0 0-.3-1.9c-.2-.5-.5-.9-.8-1.2a2 2 0 0 0-1.3-.4 2 2 0 0 0-1.3.4c-.4.3-.7.7-.9 1.2l-.2 1.9Zm13.7-11 4 12.8 4-12.8h4.7l-5.9 17.5h-5.6l-5.9-17.5h4.7Zm14.6 17.5v-13h4.1v13h-4.1Zm2-14.6a2 2 0 0 1-1.4-.6c-.5-.4-.7-.9-.7-1.4 0-.6.2-1 .7-1.4.4-.4.9-.6 1.5-.6s1 .2 1.5.6c.4.4.6.8.6 1.4 0 .5-.2 1-.6 1.4-.4.4-1 .6-1.5.6Zm11 14.8c-1.4 0-2.6-.2-3.6-.8-1-.5-1.8-1.3-2.3-2.3a8 8 0 0 1-.8-3.6c0-1.3.3-2.5.8-3.5s1.3-1.8 2.3-2.4a7.2 7.2 0 0 1 6-.4 5.5 5.5 0 0 1 3.3 3.4c.3.8.4 1.7.4 2.8v1h-11.3V493h7.5c0-.4-.2-.8-.4-1.1-.2-.4-.4-.7-.8-.9l-1.2-.3c-.5 0-.9.2-1.3.4l-.9.8-.3 1.2v2.5c0 .5.1 1 .3 1.4.2.4.5.7 1 1l1.3.2 1-.1.8-.5.5-.7 3.8.1a6 6 0 0 1-1 2.3 7 7 0 0 1-5.2 1.9Zm10.6-.2-3.4-13h4.1l1.8 8.3h.1l2-8.4h4l2 8.3 1.8-8.3h4.1l-3.4 13.1h-4.4l-2-7.6h-.2l-2 7.6H402Z"
        fill="#424242" />
    <rect x="734" y="462" width="323" height="61" rx="30.5" fill="#fff" />
    <path
        d="M767.8 501v-17.5h7.3c1.3 0 2.4.2 3.2.6 1 .4 1.6.9 2 1.6.5.6.7 1.4.7 2.3 0 .6-.1 1.2-.4 1.7a3 3 0 0 1-1.2 1.3 3 3 0 0 1-1.7.7v.2c.8 0 1.4.2 2 .6.6.3 1 .8 1.4 1.4.4.6.6 1.4.6 2.2a4.5 4.5 0 0 1-2.8 4.3c-.9.4-2 .6-3.3.6h-7.8Zm4.2-3.4h2.6c1 0 1.6-.2 2-.5.5-.4.7-.9.7-1.5a2 2 0 0 0-1.2-2l-1.4-.2H772v4.2Zm0-6.9h2.3c.5 0 1 0 1.3-.2l.8-.7c.2-.3.3-.6.3-1 0-.6-.2-1-.6-1.4-.4-.3-1-.5-1.7-.5H772v3.8Zm20.2 4.6V488h4.1v13h-4v-2.4a5 5 0 0 1-1.6 1.9c-.7.4-1.5.7-2.5.7a4.2 4.2 0 0 1-4-2.3c-.3-.8-.5-1.7-.5-2.6v-8.4h4.2v7.5c0 .7.2 1.3.6 1.7.3.4.8.6 1.5.6.4 0 .7 0 1-.2.4-.2.7-.5.9-.9.2-.3.3-.7.3-1.3Zm6.8 5.7v-13h4.1v13H799Zm2-14.6a2 2 0 0 1-1.4-.6c-.5-.4-.7-.9-.7-1.4 0-.6.2-1 .7-1.4.4-.4.9-.6 1.5-.6s1 .2 1.5.6c.4.4.6.8.6 1.4 0 .5-.2 1-.6 1.4-.4.4-1 .6-1.5.6Zm9-2.9V501h-4.2v-17.5h4.2Zm7.4 17.7a4.8 4.8 0 0 1-4.5-3c-.5-1-.7-2.3-.7-3.7 0-1.6.2-2.8.7-3.8.5-1 1.1-1.8 2-2.2a4.9 4.9 0 0 1 4.3-.4l1.2.9.7 1.2v-6.7h4.2V501h-4v-2.1h-.2a4 4 0 0 1-.8 1.1c-.3.4-.7.6-1.2.9-.5.2-1 .3-1.7.3Zm1.5-3.3c.5 0 .9-.1 1.2-.4.4-.3.7-.7.9-1.2.2-.5.3-1.1.3-1.8a5 5 0 0 0-.3-1.9c-.2-.5-.5-1-.9-1.2a2 2 0 0 0-1.2-.4 2 2 0 0 0-1.4.4c-.3.3-.6.7-.8 1.2a5 5 0 0 0-.3 1.9c0 .7.1 1.3.3 1.8.2.5.5 1 .8 1.2.4.3.8.4 1.4.4ZM833 501v-17.5h4.2v14h7.3v3.5H833Zm17.4.2c-.9 0-1.6-.1-2.2-.4-.7-.3-1.2-.7-1.6-1.3a4 4 0 0 1-.5-2.1c0-.8.1-1.4.4-1.9a3 3 0 0 1 1-1.2 5 5 0 0 1 1.6-.7 10 10 0 0 1 1.8-.3l1.8-.2c.5-.1.8-.2 1-.4.2-.1.3-.3.3-.6 0-.5-.1-.8-.4-1a2 2 0 0 0-1.2-.4c-.6 0-1 .1-1.4.3a2 2 0 0 0-.6 1l-3.8-.1a4.5 4.5 0 0 1 2.8-3.6 8.5 8.5 0 0 1 5.3-.2c.7.1 1.3.4 1.9.8a3.9 3.9 0 0 1 1.6 3.2v8.9h-4v-1.8a3.7 3.7 0 0 1-2.2 1.8l-1.6.2Zm1.3-2.7 1.2-.3.9-.7c.2-.4.3-.7.3-1.2v-1.2l-.5.2a7.8 7.8 0 0 1-1.7.3c-.4 0-.8.2-1 .3l-.7.5-.2.8c0 .4.2.7.5 1 .3.2.7.3 1.2.3Zm16.4-10.6v3H860v-3h8.2Zm-6.5-3.1h4.2v12l.1.7c0 .2.2.3.4.3l.5.1a3.1 3.1 0 0 0 1-.1l.6 3a19.9 19.9 0 0 1-2.1.4c-1 0-1.9 0-2.6-.4-.7-.2-1.2-.7-1.6-1.2a4 4 0 0 1-.5-2.3v-12.5Zm14.6 16.4c-1.3 0-2.5-.2-3.5-.8-1-.5-1.7-1.3-2.3-2.3a8 8 0 0 1-.8-3.6c0-1.3.3-2.5.8-3.5.6-1 1.3-1.8 2.3-2.4a7.2 7.2 0 0 1 6-.4 5.5 5.5 0 0 1 3.3 3.4c.3.8.5 1.7.5 2.8v1h-11.4V493h7.5a2.1 2.1 0 0 0-1.2-2c-.3-.2-.7-.3-1.2-.3a2.5 2.5 0 0 0-2.1 1.2c-.2.4-.4.8-.4 1.2v2.5c0 .5.1 1 .4 1.4l.8 1 1.4.2 1-.1.8-.5.5-.7 3.8.1c-.1.9-.5 1.6-1 2.3-.6.6-1.3 1-2.1 1.4-.9.4-2 .5-3 .5Zm19.8-9.3-3.8.1c0-.3-.2-.5-.3-.7l-.7-.5-1-.2c-.5 0-.9 0-1.2.3-.4.2-.5.4-.5.8 0 .2 0 .4.3.6.2.2.6.4 1.1.5l2.6.5a6 6 0 0 1 2.9 1.2 3 3 0 0 1 1 2.3c0 .9-.3 1.7-.9 2.4-.5.6-1.2 1.1-2.1 1.5a8 8 0 0 1-3.1.5c-1.9 0-3.4-.3-4.4-1.1a4.5 4.5 0 0 1-1.9-3.1l4.1-.1c.1.5.4.8.7 1 .4.3.9.5 1.5.5.5 0 1-.1 1.3-.3.3-.2.5-.5.5-.8 0-.3-.1-.6-.4-.7-.2-.2-.6-.4-1.2-.5l-2.3-.4a5.4 5.4 0 0 1-2.9-1.3c-.6-.7-1-1.5-1-2.5 0-.9.3-1.6.7-2.2a5 5 0 0 1 2-1.5c1-.3 2-.5 3.1-.5a7 7 0 0 1 4.2 1.2 4 4 0 0 1 1.7 3Zm9.8-4v3h-8.3v-3h8.3Zm-6.5-3.1h4.1v12l.1.7c.1.2.3.3.4.3l.6.1a3.1 3.1 0 0 0 .9-.1l.6 3a19.9 19.9 0 0 1-2.1.4c-1 0-1.8 0-2.5-.4-.7-.2-1.2-.7-1.6-1.2a4 4 0 0 1-.5-2.3v-12.5Zm18 16.2-5.1-17.5h4.6l2.7 11.5h.1l3-11.5h3.8l3 11.5h.2l2.6-11.5h4.7l-5.1 17.5h-4l-3.2-10.6h-.1l-3.2 10.6h-4Zm26 .2c-1.4 0-2.6-.2-3.6-.8a5 5 0 0 1-2.2-2.3c-.6-1-.8-2.2-.8-3.6 0-1.3.2-2.5.8-3.5.5-1 1.2-1.8 2.2-2.4a7 7 0 0 1 6-.4 5.5 5.5 0 0 1 3.3 3.4c.3.8.5 1.7.5 2.8v1h-11.4V493h7.5c0-.4 0-.8-.3-1.1-.2-.4-.5-.7-.8-.9-.4-.2-.8-.3-1.3-.3a2.5 2.5 0 0 0-2 1.2 2 2 0 0 0-.4 1.2v2.5c0 .5 0 1 .3 1.4.2.4.5.7.9 1l1.4.2 1-.1.7-.5c.3-.2.4-.4.5-.7l3.9.1c-.2.9-.6 1.6-1.1 2.3-.5.6-1.2 1-2.1 1.4-.9.4-1.9.5-3 .5Zm8.3-.2v-17.5h4.2v6.7l.8-1.2c.3-.4.7-.7 1.2-.9a4.8 4.8 0 0 1 6.2 2.6c.5 1 .8 2.2.8 3.8 0 1.4-.2 2.7-.7 3.7-.5 1-1.1 1.7-2 2.2a4.8 4.8 0 0 1-4.3.5 3.7 3.7 0 0 1-2-2v2.1h-4.2Zm4.1-6.5c0 .7.1 1.3.3 1.8.2.5.5 1 .8 1.2.4.3.8.4 1.3.4s1-.1 1.3-.4c.4-.3.6-.7.8-1.2.2-.5.3-1.1.3-1.8 0-.8 0-1.4-.3-1.9a2 2 0 0 0-.8-1.2 2 2 0 0 0-1.3-.4 2 2 0 0 0-1.3.4c-.3.3-.6.7-.8 1.2a5 5 0 0 0-.3 1.9Zm13.7-11 3.9 12.8h.1l4-12.8h4.6l-5.8 17.5h-5.7l-5.9-17.5h4.8ZM984 501v-13h4.2v13H984Zm2.1-14.6c-.6 0-1-.2-1.5-.6a2 2 0 0 1-.6-1.4c0-.6.2-1 .6-1.4.4-.4 1-.6 1.5-.6a2 2 0 0 1 1.5.6c.4.4.6.8.6 1.4 0 .5-.2 1-.6 1.4a2 2 0 0 1-1.5.6Zm10.9 14.8c-1.4 0-2.6-.2-3.6-.8-1-.5-1.7-1.3-2.3-2.3a8 8 0 0 1-.8-3.6c0-1.3.3-2.5.8-3.5.6-1 1.3-1.8 2.3-2.4a7.2 7.2 0 0 1 6-.4 5.5 5.5 0 0 1 3.3 3.4c.3.8.5 1.7.5 2.8v1h-11.4V493h7.5a2.2 2.2 0 0 0-1.2-2c-.3-.2-.7-.3-1.2-.3-.4 0-.9.2-1.2.4-.4.2-.7.4-1 .8l-.3 1.2v2.5c0 .5.2 1 .4 1.4.2.4.5.7.9 1l1.3.2 1-.1.8-.5.5-.7 3.8.1c-.1.9-.5 1.6-1 2.3-.6.6-1.3 1-2.1 1.4-.9.4-1.9.5-3 .5Zm10.6-.2-3.4-13h4.2l1.8 8.3 2-8.4h4l2 8.3 1.8-8.3h4.2l-3.4 13.1h-4.5l-2-7.6h-.2l-2 7.6h-4.5Z"
        fill="#424242" />
    <rect x="272" y="578" width="179" height="61" rx="30.5" fill="#fff" />
    <path
        d="M305.5 617v-17.5h7.3c1.3 0 2.4.2 3.3.6a4.2 4.2 0 0 1 2.7 3.9c0 .6-.2 1.2-.5 1.7-.2.6-.6 1-1.1 1.3-.5.4-1 .6-1.7.7v.2c.7 0 1.4.2 2 .6.6.3 1 .8 1.4 1.4.4.6.5 1.4.5 2.2a4.5 4.5 0 0 1-2.7 4.3c-1 .4-2 .6-3.3.6h-7.9Zm4.3-3.4h2.6c.9 0 1.6-.2 2-.5.4-.4.6-.9.6-1.5a2 2 0 0 0-1.2-2l-1.4-.2h-2.6v4.2Zm0-6.9h2.3c.5 0 .9 0 1.2-.2.4-.2.7-.4.9-.7.2-.3.3-.6.3-1 0-.6-.2-1-.7-1.4-.4-.3-1-.5-1.6-.5h-2.4v3.8Zm20.1 4.6V604h4.2v13h-4v-2.4h-.1a4 4 0 0 1-1.5 1.9 4.9 4.9 0 0 1-4.9.1c-.7-.5-1.2-1-1.6-1.8-.3-.7-.5-1.6-.5-2.5v-8.4h4.1v7.5c0 .7.2 1.3.6 1.7.4.4.9.6 1.5.6.4 0 .8 0 1.1-.2.4-.2.6-.5.8-.9.2-.3.3-.7.3-1.3Zm6.8 5.7v-13h4.2v13h-4.2Zm2.1-14.6c-.6 0-1-.2-1.5-.6a2 2 0 0 1-.6-1.4c0-.6.2-1 .6-1.4.4-.4 1-.6 1.5-.6a2 2 0 0 1 1.5.6c.5.4.7.8.7 1.4 0 .5-.2 1-.7 1.4a2 2 0 0 1-1.5.6Zm9-2.9V617h-4.2v-17.5h4.1Zm7.4 17.7a4.8 4.8 0 0 1-4.6-3c-.4-1-.7-2.3-.7-3.7 0-1.6.3-2.8.8-3.8.4-1 1-1.8 1.9-2.2a4.9 4.9 0 0 1 4.3-.4c.5.2.9.5 1.2.9.3.4.6.8.7 1.2h.1v-6.7h4.2V617H359v-2.1h-.2a4 4 0 0 1-.7 1.1c-.3.4-.7.6-1.2.9-.5.2-1 .3-1.7.3Zm1.4-3.3c.5 0 1-.1 1.3-.4.4-.3.6-.7.8-1.2.2-.5.3-1.1.3-1.8 0-.8 0-1.4-.3-1.9-.2-.5-.4-1-.8-1.2a2 2 0 0 0-1.3-.4 2 2 0 0 0-1.3.4c-.4.3-.6.7-.8 1.2a5 5 0 0 0-.3 1.9c0 .7.1 1.3.3 1.8.2.5.4 1 .8 1.2.4.3.8.4 1.3.4Zm18 3.1h-4.5l6-17.5h5.5l6 17.5H383l-4.1-13h-.1l-4.1 13Zm-.5-6.9h9.4v3.2h-9.4v-3.2Zm15.3 11.8v-18h4.1v2.3h.2a3.6 3.6 0 0 1 2-2 4.8 4.8 0 0 1 6.2 2.6 10.2 10.2 0 0 1 0 7.4c-.5 1-1.1 1.7-2 2.2a4.8 4.8 0 0 1-4.3.5 3.7 3.7 0 0 1-2-2v7h-4.2Zm4-11.4c0 .7.2 1.3.4 1.8s.4 1 .8 1.2c.4.3.8.4 1.3.4s1-.1 1.3-.4c.4-.3.6-.7.8-1.2.2-.5.3-1.1.3-1.8a5 5 0 0 0-.3-1.9c-.2-.5-.4-.9-.8-1.2a2 2 0 0 0-1.3-.4 2 2 0 0 0-1.3.4c-.4.3-.6.7-.8 1.2a5 5 0 0 0-.3 1.9Zm11.4 11.4v-18h4v2.3h.2l.7-1.2c.3-.4.8-.7 1.2-.9a4.8 4.8 0 0 1 6.2 2.6c.6 1 .8 2.2.8 3.8 0 1.4-.2 2.7-.7 3.7-.5 1-1 1.7-1.9 2.2a4.8 4.8 0 0 1-4.3.5 3.7 3.7 0 0 1-2-2v7h-4.2Zm4-11.4c0 .7.1 1.3.3 1.8.2.5.5 1 .8 1.2.4.3.8.4 1.3.4.6 0 1-.1 1.3-.4.4-.3.7-.7.9-1.2l.2-1.8c0-.8 0-1.4-.2-1.9s-.5-.9-.9-1.2a2 2 0 0 0-1.3-.4 2 2 0 0 0-1.3.4c-.3.3-.6.7-.8 1.2a5 5 0 0 0-.3 1.9Z"
        fill="#424242" />
    <rect x="69" y="694" width="382" height="61" rx="30.5" fill="#fff" />
    <path
        d="M102.4 733v-17.5h7.3c1.3 0 2.4.2 3.3.6.8.4 1.5.9 2 1.6.4.6.6 1.4.6 2.3 0 .6-.1 1.2-.4 1.7-.3.6-.6 1-1.1 1.3-.5.4-1 .6-1.7.7v.2c.7 0 1.3.2 2 .6.5.3 1 .8 1.4 1.4.3.6.5 1.4.5 2.2a4.5 4.5 0 0 1-2.8 4.3c-.9.4-2 .6-3.3.6h-7.8Zm4.2-3.4h2.6c1 0 1.6-.2 2-.5.5-.4.7-.9.7-1.5a2 2 0 0 0-.3-1.1 2 2 0 0 0-.9-.8c-.4-.2-.9-.3-1.4-.3h-2.7v4.2Zm0-6.9h2.4c.4 0 .8 0 1.2-.2l.8-.7c.2-.3.3-.6.3-1 0-.6-.2-1-.6-1.4-.4-.3-1-.5-1.7-.5h-2.4v3.8Zm20.2 4.6V720h4.1v13h-4v-2.4c-.4.8-.8 1.4-1.5 1.9-.7.4-1.6.7-2.6.7a4.2 4.2 0 0 1-4-2.3c-.3-.8-.5-1.7-.5-2.6v-8.4h4.2v7.5c0 .7.2 1.3.6 1.7.3.4.8.6 1.5.6.4 0 .8 0 1.1-.2.3-.2.6-.5.8-.9.2-.3.3-.7.3-1.3Zm11-1.8v7.5h-4.2v-13h4v2.3h.1a4 4 0 0 1 1.5-1.9c.7-.4 1.5-.7 2.5-.7s1.7.2 2.4.7c.7.4 1.2 1 1.6 1.7.3.7.5 1.6.5 2.6v8.3h-4.1v-7.5c0-.8-.2-1.3-.6-1.7a2 2 0 0 0-1.5-.6c-.5 0-.9 0-1.2.2a2 2 0 0 0-.8.9 3 3 0 0 0-.2 1.2Zm15.8 7.7a4.8 4.8 0 0 1-4.5-3c-.5-1-.7-2.3-.7-3.7 0-1.6.2-2.8.7-3.8.5-1 1.1-1.8 2-2.2a4.9 4.9 0 0 1 4.2-.4c.5.2 1 .5 1.2.9.4.4.6.8.8 1.2v-6.7h4.2V733h-4.1v-2.1h-.1a4 4 0 0 1-.8 1.1c-.3.4-.7.6-1.2.9-.5.2-1 .3-1.7.3Zm1.4-3.3c.5 0 1-.1 1.3-.4.4-.3.7-.7.9-1.2.2-.5.3-1.1.3-1.8a5 5 0 0 0-.3-1.9c-.2-.5-.5-1-.9-1.2a2 2 0 0 0-1.3-.4 2 2 0 0 0-1.3.4c-.3.3-.6.7-.8 1.2a5 5 0 0 0-.3 1.9c0 .7.1 1.3.3 1.8.2.5.5 1 .8 1.2.4.3.8.4 1.3.4Zm13.3-14.4V733h-4.1v-17.5h4.1Zm8.8 17.7c-1.4 0-2.6-.2-3.5-.8-1-.5-1.8-1.3-2.3-2.3-.6-1-.8-2.2-.8-3.6a6.7 6.7 0 0 1 3-5.9 6.8 6.8 0 0 1 6-.4 5.5 5.5 0 0 1 3.3 3.4c.4.8.5 1.7.5 2.8v1H172V725h7.5c0-.4 0-.8-.3-1.1-.2-.4-.5-.7-.8-.9l-1.2-.3a2.5 2.5 0 0 0-2.2 1.2l-.3 1.2v2.5c0 .5 0 1 .3 1.4.2.4.5.7.9 1l1.4.2 1-.1.8-.5.4-.7 3.9.1a6 6 0 0 1-1 2.3 7 7 0 0 1-5.2 1.9Zm17.7-.2-5.1-17.5h4.7L197 727h.1l3-11.5h3.9l3 11.5h.1l2.6-11.5h4.7l-5 17.5h-4.1l-3.2-10.6h-.1l-3.2 10.6h-4Zm26 .2c-1.4 0-2.5-.2-3.5-.8-1-.5-1.8-1.3-2.3-2.3a8 8 0 0 1-.8-3.6c0-1.3.3-2.5.8-3.5s1.3-1.8 2.2-2.4a6.8 6.8 0 0 1 6-.4 5.5 5.5 0 0 1 3.4 3.4c.3.8.4 1.7.4 2.8v1h-11.4V725h7.5c0-.4 0-.8-.3-1.1-.2-.4-.5-.7-.8-.9l-1.2-.3a2.5 2.5 0 0 0-2.2 1.2l-.3 1.2v2.5c0 .5.1 1 .3 1.4.2.4.5.7 1 1l1.3.2 1-.1.8-.5.5-.7 3.8.1a6 6 0 0 1-1 2.3 7 7 0 0 1-5.2 1.9Zm8.4-.2v-17.5h4.1v6.7h.1l.7-1.2c.3-.4.8-.7 1.2-.9a4.8 4.8 0 0 1 6.2 2.6c.6 1 .8 2.2.8 3.8 0 1.4-.2 2.7-.7 3.7-.5 1-1 1.7-1.9 2.2a4.8 4.8 0 0 1-4.3.5 3.7 3.7 0 0 1-2-2h-.1v2.1h-4.1Zm4-6.5c0 .7.1 1.3.3 1.8.2.5.5 1 .8 1.2.4.3.8.4 1.3.4.6 0 1-.1 1.4-.4.3-.3.6-.7.8-1.2l.2-1.8c0-.8 0-1.4-.2-1.9s-.5-.9-.8-1.2a2 2 0 0 0-1.4-.4 2 2 0 0 0-1.3.4c-.3.3-.6.7-.8 1.2a5 5 0 0 0-.3 1.9Zm13.7-11 3.9 12.8h.1l4-12.8h4.7l-6 17.5h-5.5l-6-17.5h4.8Zm14.5 17.5v-13h4.2v13h-4.2Zm2.1-14.6c-.5 0-1-.2-1.5-.6a2 2 0 0 1-.6-1.4c0-.6.2-1 .6-1.4.4-.4 1-.6 1.5-.6a2 2 0 0 1 1.5.6c.5.4.7.8.7 1.4 0 .5-.2 1-.7 1.4a2 2 0 0 1-1.5.6Zm10.9 14.8c-1.4 0-2.6-.2-3.6-.8a5 5 0 0 1-2.2-2.3c-.6-1-.8-2.2-.8-3.6a6.7 6.7 0 0 1 3-5.9 7 7 0 0 1 6-.4 5.5 5.5 0 0 1 3.3 3.4c.3.8.5 1.7.5 2.8v1h-11.4V725h7.5c0-.4 0-.8-.3-1.1-.2-.4-.5-.7-.8-.9-.4-.2-.8-.3-1.3-.3a2.5 2.5 0 0 0-2 1.2 2 2 0 0 0-.4 1.2v2.5c0 .5 0 1 .3 1.4.2.4.5.7.9 1l1.4.2 1-.1.7-.5c.3-.2.4-.4.5-.7l3.9.1a6 6 0 0 1-1 2.3 7 7 0 0 1-5.2 1.9Zm10.6-.2-3.4-13h4.2l1.8 8.3 2-8.4h4l2 8.3h.1l1.7-8.3h4.2l-3.4 13.1h-4.5l-2-7.6h-.2l-2 7.6H285Zm27.6 0-5-17.5h4.6l2.6 11.5h.2l3-11.5h3.8l3 11.5h.2l2.6-11.5h4.6l-5 17.5h-4l-3.2-10.6h-.2l-3.1 10.6h-4Zm21.4 0v-13h4.2v13H334Zm2-14.6a2 2 0 0 1-1.4-.6c-.5-.4-.7-.9-.7-1.4 0-.6.2-1 .7-1.4.4-.4.9-.6 1.5-.6s1 .2 1.5.6c.4.4.6.8.6 1.4 0 .5-.2 1-.6 1.4-.4.4-1 .6-1.5.6Zm12.2 1.5v3h-8.3v-3h8.3Zm-6.5-3.1h4.1v12c0 .3 0 .5.2.7 0 .2.2.3.3.3l.6.1a3 3 0 0 0 1-.1l.5 3a19.9 19.9 0 0 1-2 .4c-1 0-2 0-2.6-.4-.7-.2-1.2-.7-1.6-1.2a4 4 0 0 1-.5-2.3v-12.5Zm13 8.7v7.5h-4v-17.5h4v6.8c.4-.8.9-1.4 1.5-1.9.7-.4 1.5-.7 2.5-.7s1.7.2 2.4.7c.7.4 1.2 1 1.6 1.7.4.7.6 1.6.6 2.6v8.3H359v-7.5c0-.8-.2-1.3-.6-1.7a2 2 0 0 0-1.5-.6c-.4 0-.8 0-1.2.2a2 2 0 0 0-.7.9c-.2.3-.3.7-.3 1.2Zm20.1 7.5h-4.5l5.9-17.5h5.6l5.9 17.5H383l-4-13h-.2l-4.1 13Zm-.6-6.9h9.5v3.2h-9.5v-3.2Zm15.3 11.8v-18h4.2v2.3l.8-1.2c.3-.4.7-.7 1.2-.9a4.8 4.8 0 0 1 6.2 2.6c.6 1 .8 2.2.8 3.8 0 1.4-.2 2.7-.7 3.7-.5 1-1.1 1.7-1.9 2.2a4.8 4.8 0 0 1-4.3.5 3.7 3.7 0 0 1-2-2h-.1v7h-4.2Zm4.1-11.4c0 .7.1 1.3.3 1.8.2.5.5 1 .8 1.2.4.3.8.4 1.3.4s1-.1 1.3-.4c.4-.3.7-.7.8-1.2.2-.5.3-1.1.3-1.8 0-.8 0-1.4-.3-1.9a2 2 0 0 0-.8-1.2 2 2 0 0 0-1.3-.4 2 2 0 0 0-1.3.4c-.3.3-.6.7-.8 1.2a5 5 0 0 0-.3 1.9Zm11.3 11.4v-18h4.1v2.3h.1l.8-1.2c.3-.4.7-.7 1.2-.9a4.8 4.8 0 0 1 6.2 2.6c.5 1 .8 2.2.8 3.8 0 1.4-.3 2.7-.8 3.7-.4 1-1 1.7-1.8 2.2a4.8 4.8 0 0 1-4.4.5 3.7 3.7 0 0 1-2-2v7h-4.2Zm4-11.4c0 .7.2 1.3.4 1.8.1.5.4 1 .8 1.2.3.3.8.4 1.3.4s1-.1 1.3-.4c.3-.3.6-.7.8-1.2.2-.5.3-1.1.3-1.8a5 5 0 0 0-.3-1.9c-.2-.5-.5-.9-.8-1.2a2 2 0 0 0-1.3-.4 2 2 0 0 0-1.3.4 2 2 0 0 0-.8 1.2 5 5 0 0 0-.3 1.9Z"
        fill="#424242" />
    <rect x="109" y="810" width="342" height="61" rx="30.5" fill="#fff" />
    <path
        d="M149 849h-6.5v-17.5h6.5c1.8 0 3.3.4 4.6 1 1.3.8 2.3 1.8 3 3 .7 1.4 1 3 1 4.8 0 1.8-.3 3.3-1 4.7a7.2 7.2 0 0 1-3 3c-1.3.7-2.8 1-4.6 1Zm-2.2-3.6h2c1 0 1.8-.2 2.5-.5s1.2-.9 1.6-1.6c.3-.8.5-1.8.5-3 0-1.3-.2-2.3-.5-3-.4-.8-1-1.3-1.6-1.7-.7-.3-1.5-.5-2.5-.5h-2v10.3ZM160 849v-13h4.1v13H160Zm2-14.6a2 2 0 0 1-1.4-.6c-.5-.4-.7-.9-.7-1.4 0-.6.2-1 .7-1.4.4-.4.9-.6 1.5-.6s1 .2 1.5.6c.4.4.6.8.6 1.4 0 .5-.2 1-.6 1.4-.4.4-1 .6-1.5.6Zm16.2 5.5-3.8.1a1 1 0 0 0-.3-.7l-.7-.5-1-.2c-.5 0-.9 0-1.2.3-.4.2-.5.4-.5.8 0 .2 0 .4.3.6.2.2.6.4 1.1.5l2.6.5a6 6 0 0 1 2.9 1.2 3 3 0 0 1 1 2.3c0 1-.3 1.7-.8 2.4-.6.6-1.3 1.1-2.2 1.5a8 8 0 0 1-3.1.5c-1.9 0-3.4-.3-4.4-1.1a4.5 4.5 0 0 1-1.9-3.1l4.1-.1c.1.5.4.8.7 1a2.7 2.7 0 0 0 2.8.2c.3-.2.5-.5.5-.8 0-.3-.1-.6-.4-.7-.2-.2-.6-.4-1.2-.5l-2.3-.4a5.4 5.4 0 0 1-2.9-1.3c-.6-.7-1-1.5-1-2.5 0-.9.3-1.6.8-2.2.4-.7 1-1.1 2-1.5a9 9 0 0 1 3-.5 7 7 0 0 1 4.2 1.2 4 4 0 0 1 1.7 3Zm9.8-4v3h-8.3v-3h8.3Zm-6.5-3.1h4.1v12c0 .3 0 .5.2.7 0 .2.2.3.3.3l.6.1a3.1 3.1 0 0 0 .9-.1l.6 3a19.9 19.9 0 0 1-2.1.4c-1 0-1.8 0-2.5-.4-.7-.2-1.2-.7-1.6-1.2a4 4 0 0 1-.5-2.3v-12.5Zm8.6 16.2v-13h4v2.3h.2c.2-.9.6-1.5 1.2-2a3 3 0 0 1 1.9-.6 4.3 4.3 0 0 1 1.1.2v3.6a6.9 6.9 0 0 0-1.6-.2c-.5 0-1 .1-1.4.3-.3.2-.7.5-.9 1-.2.3-.3.8-.3 1.3v7.1h-4.2Zm10.1 0v-13h4.2v13h-4.2Zm2.1-14.6c-.6 0-1-.2-1.5-.6a2 2 0 0 1-.6-1.4c0-.6.2-1 .6-1.4.4-.4 1-.6 1.5-.6a2 2 0 0 1 1.5.6c.4.4.6.8.6 1.4 0 .5-.2 1-.6 1.4a2 2 0 0 1-1.5.6ZM207 849v-17.5h4.2v6.7l.8-1.2c.3-.4.7-.7 1.2-.9a4.8 4.8 0 0 1 6.2 2.6c.6 1 .8 2.2.8 3.8 0 1.4-.2 2.7-.7 3.7-.5 1-1 1.7-1.9 2.2a4.8 4.8 0 0 1-4.3.5 3.7 3.7 0 0 1-2-2h-.1v2.1H207Zm4.1-6.5c0 .7.1 1.3.3 1.8.2.5.5 1 .8 1.2.4.3.8.4 1.3.4s1-.1 1.3-.4c.4-.3.7-.7.8-1.2.2-.5.3-1.1.3-1.8 0-.8 0-1.4-.3-1.9a2 2 0 0 0-.8-1.2 2 2 0 0 0-1.3-.4 2 2 0 0 0-1.3.4c-.3.3-.6.7-.8 1.2a5 5 0 0 0-.3 1.9Zm19.7.8V836h4.2v13h-4v-2.4h-.1a4 4 0 0 1-1.5 1.9 4.9 4.9 0 0 1-4.9.1c-.6-.5-1.2-1-1.5-1.8-.4-.7-.6-1.6-.6-2.5v-8.4h4.2v7.5c0 .7.2 1.3.5 1.7.4.4.9.6 1.5.6.4 0 .8 0 1.1-.2.4-.2.6-.5.8-.9.2-.3.3-.7.3-1.3Zm14.2-7.4v3h-8v-3h8.2Zm-6.5-3.1h4.2v12l.1.7c0 .2.2.3.4.3l.5.1a3.1 3.1 0 0 0 1-.1l.6 3a20.3 20.3 0 0 1-2.2.4c-1 0-1.8 0-2.5-.4-.7-.2-1.2-.7-1.6-1.2a4 4 0 0 1-.5-2.3v-12.5Zm14.6 16.4c-1.3 0-2.5-.2-3.5-.8-1-.5-1.8-1.3-2.3-2.3a8 8 0 0 1-.8-3.6c0-1.3.3-2.5.8-3.5.6-1 1.3-1.8 2.3-2.4a7.2 7.2 0 0 1 6-.4 5.5 5.5 0 0 1 3.3 3.4c.3.8.5 1.7.5 2.8v1H248V841h7.5a2.2 2.2 0 0 0-1.2-2c-.3-.2-.7-.3-1.2-.3a2.5 2.5 0 0 0-2.1 1.2c-.2.4-.4.8-.4 1.2v2.5c0 .5.1 1 .3 1.4l1 1 1.3.2 1-.1.8-.5.5-.7 3.8.1c-.1.9-.5 1.6-1 2.3-.6.6-1.3 1-2.1 1.4-1 .4-2 .5-3 .5Zm17.3-.2H266l5.9-17.5h5.6l5.9 17.5h-4.6l-4-13h-.2l-4 13Zm-.6-6.9h9.5v3.2h-9.5v-3.2Zm15.4 11.8v-18h4v2.3h.2l.7-1.2 1.2-.9a4.8 4.8 0 0 1 6.2 2.6c.6 1 .8 2.2.8 3.8 0 1.4-.2 2.7-.7 3.7-.4 1-1 1.7-1.9 2.2a4.8 4.8 0 0 1-4.3.5 3.7 3.7 0 0 1-2-2v7h-4.2Zm4-11.4c0 .7.1 1.3.3 1.8.2.5.5 1 .8 1.2.4.3.8.4 1.4.4a2 2 0 0 0 1.3-.4c.3-.3.6-.7.8-1.2.2-.5.2-1.1.2-1.8 0-.8 0-1.4-.2-1.9s-.5-.9-.8-1.2a2 2 0 0 0-1.3-.4 2 2 0 0 0-1.4.4c-.3.3-.6.7-.8 1.2a5 5 0 0 0-.3 1.9Zm11.3 11.4v-18h4.1v2.3h.2a3.6 3.6 0 0 1 2-2 4.8 4.8 0 0 1 6.2 2.6 10.2 10.2 0 0 1 0 7.4c-.5 1-1.1 1.7-2 2.2a4.8 4.8 0 0 1-4.3.5 3.7 3.7 0 0 1-2-2v7h-4.2Zm4-11.4c0 .7.2 1.3.4 1.8s.4 1 .8 1.2c.4.3.8.4 1.3.4s1-.1 1.3-.4c.4-.3.6-.7.8-1.2.2-.5.3-1.1.3-1.8 0-.8 0-1.4-.3-1.9-.2-.5-.4-.9-.8-1.2a2 2 0 0 0-1.3-.4 2 2 0 0 0-1.3.4c-.4.3-.6.7-.8 1.2a5 5 0 0 0-.3 1.9Zm24-6.6v3h-8.4v-3h8.3Zm-6.6-3.1h4.1v12c0 .3 0 .5.2.7 0 .2.2.3.3.3l.6.1a3.1 3.1 0 0 0 1-.1l.5 3a19.9 19.9 0 0 1-2 .4c-1 0-1.9 0-2.6-.4-.7-.2-1.2-.7-1.6-1.2a4 4 0 0 1-.5-2.3v-12.5Zm14.6 16.4a7 7 0 0 1-3.5-.8c-1-.6-1.8-1.4-2.3-2.4-.5-1-.8-2.2-.8-3.5 0-1.3.3-2.5.8-3.5s1.3-1.8 2.3-2.4a7 7 0 0 1 3.5-.9 7 7 0 0 1 3.5.9c1 .6 1.8 1.3 2.3 2.4.6 1 .8 2.2.8 3.5 0 1.3-.3 2.5-.8 3.5s-1.3 1.8-2.3 2.4a7 7 0 0 1-3.5.8Zm0-3.1c.5 0 1-.2 1.3-.5.3-.3.6-.7.8-1.2a6 6 0 0 0 0-3.8c-.2-.6-.5-1-.8-1.3-.3-.3-.8-.5-1.3-.5a2 2 0 0 0-1.3.5c-.3.3-.6.7-.8 1.3a6 6 0 0 0-.3 1.9c0 .7.1 1.3.3 1.9.2.5.5 1 .8 1.2.4.3.8.5 1.3.5Zm24.5-14.6h4.2v11.3a6.2 6.2 0 0 1-3.5 5.6 9 9 0 0 1-3.9.8 9 9 0 0 1-3.9-.8c-1.1-.5-2-1.2-2.6-2.2-.6-1-.9-2.1-.9-3.4v-11.3h4.2v11c0 .5.2 1 .4 1.5.3.5.7.9 1.1 1.2.5.2 1 .4 1.7.4.6 0 1.2-.2 1.7-.4a3 3 0 0 0 1-1.2c.3-.4.5-1 .5-1.6v-10.9Zm18.3 8.4-3.9.1a1 1 0 0 0-.3-.7l-.7-.5-1-.2c-.4 0-.9 0-1.2.3-.3.2-.5.4-.5.8l.3.6c.2.2.6.4 1.2.5l2.5.5a6 6 0 0 1 2.9 1.2 3 3 0 0 1 1 2.3c0 1-.3 1.7-.8 2.4-.5.6-1.3 1.1-2.2 1.5-.9.4-2 .5-3 .5-2 0-3.4-.3-4.5-1.1-1-.8-1.7-1.8-1.9-3.1l4.2-.1c0 .5.3.8.7 1 .3.3.8.5 1.4.5.6 0 1-.1 1.3-.3.4-.2.5-.5.5-.8 0-.3-.1-.6-.4-.7-.2-.2-.6-.4-1.2-.5l-2.2-.4a5.4 5.4 0 0 1-3-1.3c-.6-.7-1-1.5-1-2.5 0-.9.3-1.6.8-2.2.4-.7 1.1-1.1 2-1.5.9-.3 1.9-.5 3-.5a7 7 0 0 1 4.3 1.2 4 4 0 0 1 1.7 3Zm8.4 9.3c-1.3 0-2.5-.2-3.5-.8-1-.5-1.7-1.3-2.3-2.3a8 8 0 0 1-.8-3.6c0-1.3.3-2.5.8-3.5.6-1 1.3-1.8 2.3-2.4a7.2 7.2 0 0 1 6-.4 5.5 5.5 0 0 1 3.3 3.4c.3.8.5 1.7.5 2.8v1h-11.4V841h7.5a2.1 2.1 0 0 0-1.2-2c-.3-.2-.7-.3-1.2-.3a2.5 2.5 0 0 0-2.1 1.2c-.2.4-.4.8-.4 1.2v2.5c0 .5.1 1 .3 1.4l1 1 1.3.2 1-.1.8-.5.5-.7 3.8.1c-.1.9-.5 1.6-1 2.3-.6.6-1.3 1-2.1 1.4-1 .4-2 .5-3 .5Zm8.4-.2v-13h4v2.3h.2c.2-.9.6-1.5 1.1-2a3 3 0 0 1 2-.6 4.3 4.3 0 0 1 1 .2v3.6a7 7 0 0 0-1.6-.2 3 3 0 0 0-1.3.3c-.4.2-.7.5-1 1l-.2 1.3v7.1h-4.2Zm21.5-9H414c0-.3-.2-.5-.3-.7l-.7-.5-1-.2c-.5 0-.9 0-1.2.3-.4.2-.5.4-.5.8 0 .2 0 .4.3.6.2.2.6.4 1.1.5l2.6.5a6 6 0 0 1 2.9 1.2 3 3 0 0 1 1 2.3c0 1-.3 1.7-.9 2.4-.5.6-1.2 1.1-2.1 1.5a8 8 0 0 1-3.1.5c-1.9 0-3.4-.3-4.4-1.1a4.5 4.5 0 0 1-1.9-3.1l4.1-.1c.1.5.4.8.7 1 .4.3.9.5 1.5.5.5 0 1-.1 1.3-.3.3-.2.5-.5.5-.8 0-.3-.1-.6-.4-.7-.2-.2-.6-.4-1.2-.5l-2.3-.4a5.4 5.4 0 0 1-2.9-1.3c-.6-.7-1-1.5-1-2.5 0-.9.3-1.6.7-2.2a5 5 0 0 1 2-1.5c1-.3 2-.5 3.1-.5a7 7 0 0 1 4.2 1.2 4 4 0 0 1 1.7 3Z"
        fill="#424242" />
    <rect x="734" y="810" width="419" height="61" rx="30.5" fill="#fff" />
    <path
        d="M773.9 849h-6.5v-17.5h6.5c1.7 0 3.3.4 4.5 1 1.3.8 2.3 1.8 3 3 .7 1.4 1 3 1 4.8 0 1.8-.3 3.3-1 4.7a7.2 7.2 0 0 1-3 3 9 9 0 0 1-4.5 1Zm-2.3-3.6h2.1c1 0 1.8-.2 2.5-.5s1.2-.9 1.5-1.6c.4-.8.6-1.8.6-3a7 7 0 0 0-.6-3c-.3-.8-.8-1.3-1.5-1.7-.7-.3-1.6-.5-2.6-.5h-2v10.3ZM785 849v-13h4.2v13H785Zm2.1-14.6c-.6 0-1-.2-1.5-.6a2 2 0 0 1-.6-1.4c0-.6.2-1 .6-1.4.4-.4 1-.6 1.5-.6a2 2 0 0 1 1.5.6c.5.4.7.8.7 1.4 0 .5-.2 1-.7 1.4a2 2 0 0 1-1.5.6Zm16.2 5.5-3.8.1c0-.3-.2-.5-.4-.7l-.6-.5-1-.2c-.5 0-1 0-1.3.3-.3.2-.5.4-.5.8 0 .2.1.4.4.6.2.2.6.4 1.1.5l2.5.5a6 6 0 0 1 3 1.2 3 3 0 0 1 1 2.3 4 4 0 0 1-.9 2.4c-.5.6-1.2 1.1-2.1 1.5-1 .4-2 .5-3.2.5-1.8 0-3.3-.3-4.4-1.1-1-.8-1.7-1.8-1.8-3.1l4.1-.1c0 .5.3.8.7 1 .4.3.9.5 1.5.5.5 0 1-.1 1.3-.3.3-.2.5-.5.5-.8 0-.3-.2-.6-.4-.7l-1.2-.5-2.3-.4a5.4 5.4 0 0 1-3-1.3c-.6-.7-.9-1.5-.9-2.5 0-.9.2-1.6.7-2.2a5 5 0 0 1 2-1.5c.9-.3 2-.5 3.1-.5a7 7 0 0 1 4.2 1.2 4 4 0 0 1 1.7 3Zm9.8-4v3h-8.3v-3h8.3Zm-6.6-3.1h4.2v12l.1.7c.1.2.2.3.4.3l.6.1a3.1 3.1 0 0 0 .9-.1l.6 3a19.9 19.9 0 0 1-2.1.4c-1 0-1.9 0-2.6-.4a3 3 0 0 1-1.5-1.2 4 4 0 0 1-.6-2.3v-12.5Zm8.7 16.2v-13h4v2.3h.2c.2-.9.6-1.5 1.1-2a3 3 0 0 1 2-.6 4.2 4.2 0 0 1 1 .2v3.6a6.9 6.9 0 0 0-1.6-.2 3 3 0 0 0-1.3.3c-.4.2-.7.5-1 1-.1.3-.3.8-.3 1.3v7.1h-4.1Zm10 0v-13h4.3v13h-4.2Zm2.2-14.6a2 2 0 0 1-1.5-.6c-.5-.4-.7-.9-.7-1.4 0-.6.2-1 .7-1.4.4-.4.9-.6 1.5-.6s1 .2 1.5.6c.4.4.6.8.6 1.4 0 .5-.2 1-.6 1.4-.4.4-1 .6-1.5.6ZM832 849v-17.5h4.2v6.7l.8-1.2c.3-.4.7-.7 1.2-.9a4.8 4.8 0 0 1 6.2 2.6c.5 1 .8 2.2.8 3.8 0 1.4-.3 2.7-.7 3.7-.5 1-1.1 1.7-2 2.2a4.8 4.8 0 0 1-4.3.5 3.7 3.7 0 0 1-2-2v2.1H832Zm4-6.5c0 .7.2 1.3.4 1.8s.4 1 .8 1.2c.4.3.8.4 1.3.4s1-.1 1.3-.4c.4-.3.6-.7.8-1.2.2-.5.3-1.1.3-1.8a5 5 0 0 0-.3-1.9c-.2-.5-.4-.9-.8-1.2a2 2 0 0 0-1.3-.4 2 2 0 0 0-1.3.4c-.4.3-.6.7-.8 1.2a5 5 0 0 0-.3 1.9Zm19.8.8V836h4.2v13h-4v-2.4h-.1a4 4 0 0 1-1.5 1.9c-.7.4-1.6.7-2.5.7a4.2 4.2 0 0 1-4-2.3c-.3-.8-.5-1.7-.5-2.6v-8.4h4.1v7.5c0 .7.2 1.3.6 1.7.4.4.9.6 1.5.6.4 0 .8 0 1.1-.2.3-.2.6-.5.8-.9.2-.3.3-.7.3-1.3ZM870 836v3h-8.3v-3h8.3Zm-6.5-3.1h4.1v12c0 .3 0 .5.2.7 0 .2.2.3.3.3l.6.1a3.1 3.1 0 0 0 1-.1l.5 3a19.9 19.9 0 0 1-2 .4c-1 0-1.9 0-2.6-.4-.7-.2-1.2-.7-1.6-1.2a4 4 0 0 1-.5-2.3v-12.5Zm14.6 16.4c-1.4 0-2.5-.2-3.5-.8-1-.5-1.8-1.3-2.3-2.3a8 8 0 0 1-.8-3.6c0-1.3.3-2.5.8-3.5s1.3-1.8 2.2-2.4a6.8 6.8 0 0 1 6-.4 5.5 5.5 0 0 1 3.4 3.4c.3.8.4 1.7.4 2.8v1H873V841h7.5c0-.4 0-.8-.3-1.1-.2-.4-.5-.7-.8-.9l-1.2-.3a2.5 2.5 0 0 0-2.2 1.2l-.3 1.2v2.5c0 .5.1 1 .3 1.4.2.4.5.7.9 1l1.4.2 1-.1.8-.5.5-.7 3.8.1a6 6 0 0 1-1 2.3 7 7 0 0 1-5.2 1.9Zm17.7-.2-5-17.5h4.6L898 843h.2l3-11.5h3.8l3 11.5h.1l2.7-11.5h4.6l-5 17.5h-4.1l-3.2-10.6h-.1l-3.2 10.6h-4Zm26 .2c-1.3 0-2.5-.2-3.5-.8-1-.5-1.8-1.3-2.3-2.3a8 8 0 0 1-.8-3.6c0-1.3.3-2.5.8-3.5s1.3-1.8 2.3-2.4a7.2 7.2 0 0 1 6-.4 5.5 5.5 0 0 1 3.3 3.4c.3.8.4 1.7.4 2.8v1h-11.3V841h7.5c0-.4-.2-.8-.4-1.1-.2-.4-.4-.7-.8-.9l-1.2-.3a2.5 2.5 0 0 0-2.2 1.2l-.3 1.2v2.5c0 .5.1 1 .3 1.4.2.4.5.7 1 1l1.3.2 1-.1.8-.5.5-.7 3.8.1a6 6 0 0 1-1 2.3 7 7 0 0 1-5.2 1.9Zm8.4-.2v-17.5h4.1v6.7h.1l.7-1.2 1.2-.9a4.8 4.8 0 0 1 6.2 2.6c.6 1 .8 2.2.8 3.8 0 1.4-.2 2.7-.7 3.7-.4 1-1 1.7-1.9 2.2a4.8 4.8 0 0 1-4.3.5 3.7 3.7 0 0 1-2-2h-.1v2.1h-4.1Zm4-6.5c0 .7.1 1.3.3 1.8.2.5.5 1 .9 1.2.3.3.8.4 1.3.4s.9-.1 1.3-.4c.3-.3.6-.7.8-1.2.2-.5.3-1.1.3-1.8a5 5 0 0 0-.3-1.9c-.2-.5-.5-.9-.8-1.2a2 2 0 0 0-1.3-.4 2 2 0 0 0-1.3.4c-.4.3-.7.7-.9 1.2a5 5 0 0 0-.3 1.9Zm13.7-11 4 12.8 4-12.8h4.7l-6 17.5h-5.5l-6-17.5h4.8Zm14.6 17.5v-13h4.1v13h-4.1Zm2-14.6c-.5 0-1-.2-1.5-.6a2 2 0 0 1-.6-1.4c0-.6.2-1 .6-1.4.5-.4 1-.6 1.5-.6.6 0 1.1.2 1.6.6.4.4.6.8.6 1.4 0 .5-.2 1-.6 1.4-.5.4-1 .6-1.6.6Zm10.9 14.8c-1.4 0-2.6-.2-3.5-.8-1-.5-1.8-1.3-2.3-2.3-.6-1-.8-2.2-.8-3.6a6.7 6.7 0 0 1 3-5.9 6.8 6.8 0 0 1 6-.4 5.5 5.5 0 0 1 3.3 3.4c.4.8.5 1.7.5 2.8v1h-11.4V841h7.5c0-.4 0-.8-.3-1.1-.2-.4-.5-.7-.8-.9l-1.2-.3a2.5 2.5 0 0 0-2.2 1.2l-.3 1.2v2.5c0 .5 0 1 .3 1.4.2.4.5.7.9 1l1.4.2 1-.1.8-.5.4-.7 3.9.1a6 6 0 0 1-1 2.3 7 7 0 0 1-5.2 1.9Zm10.6-.2-3.4-13h4.2l1.8 8.3h.1l1.9-8.4h4l2 8.3h.1l1.7-8.3h4.2l-3.4 13.1h-4.5l-2-7.6h-.1l-2 7.6H986Zm29.7-9h-3.8a1 1 0 0 0-.3-.7l-.7-.5-1-.2c-.5 0-.9 0-1.2.3-.4.2-.5.4-.5.8 0 .2 0 .4.3.6.2.2.6.4 1.1.5l2.6.5c1.3.2 2.2.6 2.9 1.2a3 3 0 0 1 1 2.3c0 1-.3 1.7-.9 2.4-.5.6-1.2 1.1-2.1 1.5a8 8 0 0 1-3.1.5c-1.9 0-3.4-.3-4.4-1.1a4.5 4.5 0 0 1-1.9-3.1l4.1-.1c.1.5.4.8.7 1 .4.3.9.5 1.5.5.5 0 1-.1 1.3-.3.3-.2.5-.5.5-.8 0-.3-.1-.6-.4-.7-.2-.2-.6-.4-1.2-.5l-2.3-.4a5.4 5.4 0 0 1-2.9-1.3c-.6-.7-1-1.5-1-2.5 0-.9.3-1.6.8-2.2.4-.7 1-1.1 2-1.5a9 9 0 0 1 3-.5 7 7 0 0 1 4.2 1.2 4 4 0 0 1 1.7 3Zm15-4v3h-8.3v-3h8.2Zm-6.6-3.2h4.2v12l.1.7c0 .2.2.3.4.3l.5.1a3 3 0 0 0 1-.1l.6 3a21.5 21.5 0 0 1-2.2.4c-1 0-1.8 0-2.5-.4-.7-.2-1.2-.7-1.6-1.2a4 4 0 0 1-.5-2.3v-12.5Zm14.6 16.4a7 7 0 0 1-3.5-.8c-1-.6-1.8-1.4-2.3-2.4-.5-1-.8-2.2-.8-3.5 0-1.3.3-2.5.8-3.5s1.3-1.8 2.3-2.4a7 7 0 0 1 3.5-.9 7 7 0 0 1 3.6.9 6 6 0 0 1 2.3 2.4c.5 1 .8 2.2.8 3.5 0 1.3-.3 2.5-.9 3.5-.5 1-1.2 1.8-2.2 2.4a7 7 0 0 1-3.6.8Zm0-3.1c.6 0 1-.2 1.3-.5.4-.3.7-.7.8-1.2a6 6 0 0 0 .3-2c0-.7 0-1.3-.3-1.8a3 3 0 0 0-.8-1.3c-.3-.3-.7-.5-1.2-.5a2 2 0 0 0-1.3.5 3 3 0 0 0-.9 1.3l-.2 1.9c0 .7 0 1.3.2 1.9.2.5.5 1 .9 1.2.3.3.8.5 1.3.5Zm24.5-14.6h4.2v11.3a6.2 6.2 0 0 1-3.5 5.6 9 9 0 0 1-3.9.8 9 9 0 0 1-3.8-.8 6 6 0 0 1-2.6-2.2c-.6-1-1-2.1-1-3.4v-11.3h4.3v11c0 .5 0 1 .4 1.5.2.5.6.9 1 1.2.5.2 1.1.4 1.7.4.7 0 1.2-.2 1.7-.4.5-.3.8-.7 1.1-1.2.3-.4.4-1 .4-1.6v-10.9Zm18.3 8.4-3.8.1c0-.3-.2-.5-.4-.7l-.6-.5-1-.2c-.5 0-1 0-1.3.3-.3.2-.5.4-.5.8l.3.6c.3.2.6.4 1.2.5l2.5.5a6 6 0 0 1 3 1.2 3 3 0 0 1 1 2.3 4 4 0 0 1-.9 2.4c-.5.6-1.2 1.1-2.1 1.5-1 .4-2 .5-3.2.5-1.8 0-3.3-.3-4.4-1.1-1-.8-1.7-1.8-1.8-3.1l4.1-.1c0 .5.3.8.7 1 .4.3.9.5 1.5.5.5 0 1-.1 1.3-.3.3-.2.5-.5.5-.8 0-.3-.2-.6-.4-.7a3 3 0 0 0-1.2-.5l-2.3-.4a5.4 5.4 0 0 1-3-1.3c-.6-.7-.9-1.5-.9-2.5 0-.9.2-1.6.7-2.2a5 5 0 0 1 2-1.5c.9-.3 2-.5 3.1-.5a7 7 0 0 1 4.2 1.2 4 4 0 0 1 1.7 3Zm8.5 9.3c-1.4 0-2.6-.2-3.6-.8-1-.5-1.7-1.3-2.3-2.3a8 8 0 0 1-.7-3.6 6.7 6.7 0 0 1 3-5.9 7 7 0 0 1 6-.4 5.5 5.5 0 0 1 3.3 3.4c.3.8.5 1.7.5 2.8v1h-11.4V841h7.5c0-.4 0-.8-.3-1.1-.2-.4-.5-.7-.8-.9-.4-.2-.8-.3-1.3-.3a2.5 2.5 0 0 0-2 1.2 2 2 0 0 0-.4 1.2v2.5c0 .5 0 1 .3 1.4.2.4.5.7.9 1l1.4.2 1-.1.7-.5c.3-.2.4-.4.5-.7l3.9.1a6 6 0 0 1-1 2.3 7 7 0 0 1-2.2 1.4 8 8 0 0 1-3 .5Zm8.3-.2v-13h4v2.3h.2a4 4 0 0 1 1.2-2 3 3 0 0 1 1.9-.6 4.4 4.4 0 0 1 1.1.2v3.6a6.8 6.8 0 0 0-1.6-.2c-.5 0-1 .1-1.4.3a2.4 2.4 0 0 0-1.2 2.3v7.1h-4.2Zm21.6-9h-3.9a1 1 0 0 0-.3-.7l-.7-.5-1-.2c-.4 0-.8 0-1.2.3-.3.2-.5.4-.5.8l.3.6c.2.2.6.4 1.2.5l2.5.5a6 6 0 0 1 3 1.2 3 3 0 0 1 .9 2.3c0 1-.3 1.7-.8 2.4-.5.6-1.3 1.1-2.2 1.5-.9.4-2 .5-3 .5-2 0-3.4-.3-4.5-1.1-1-.8-1.7-1.8-1.9-3.1l4.2-.1c0 .5.3.8.7 1 .3.3.8.5 1.4.5.6 0 1-.1 1.3-.3.4-.2.5-.5.5-.8 0-.3 0-.6-.4-.7a3 3 0 0 0-1.2-.5l-2.2-.4a5.5 5.5 0 0 1-3-1.3c-.6-.7-1-1.5-1-2.5 0-.9.3-1.6.8-2.2.4-.7 1.1-1.1 2-1.5.9-.3 1.9-.5 3-.5a7 7 0 0 1 4.3 1.2 4 4 0 0 1 1.7 3Z"
        fill="#424242" />
    <path
        d="M461.7 240a10.7 10.7 0 1 0-21.4 0 10.7 10.7 0 0 0 21.4 0ZM398 462l11.5-20h-23l11.5 20Zm-2-169v151h4V293h-4Zm55-55a55 55 0 0 0-55 55h4a51 51 0 0 1 51-51v-4Z"
        fill="url(#a)" />
    <path
        d="M388.3 877.5a10.7 10.7 0 1 1 19.4-9 10.7 10.7 0 0 1-19.4 9Zm70.8 128.3-18.9-13.3 21-9.7-2.1 23ZM398 873l1.8-.8-1.8.8Zm1.8-.8 53.6 116.4-3.7 1.7L396.2 874l3.6-1.7Zm-1.6 2.8a2 2 0 0 0 1.6-2.8l-3.6 1.7a2 2 0 0 1 1.6-2.9l.4 4Z"
        fill="url(#b)" />
    <path
        d="M786.5 868.5a10.7 10.7 0 1 1 19.3 9 10.7 10.7 0 0 1-19.3-9ZM734 1005.3l-2-23 21 9.8-19 13.2Zm63.8-131.5a15171.8 15171.8 0 0 0-12.7 27.3l.1-.4c0-.5-1.4-2.3-3.2-2l-.4.6a.7.7 0 0 1-.1.1l.1-.2a1204.2 1204.2 0 0 0 8.6-18.4l3-6 .8-2 .2-.4v-.2h.1l1.8.8 1.8.9v.2l-.3.5-.9 1.8-2.8 6.1a16610.4 16610.4 0 0 1-8.8 18.7l-.1.2-.5.5c-1.8.4-3.2-1.4-3.2-2v-.2l.1-.1v-.2c.2-.1.4-.6.7-1.3l12.1-26 3.6 1.7Zm.1 0L736 1006.3l-3.6-1.7 62.1-132.3 3.6 1.7Z"
        fill="url(#c)" />
    <path
        d="M786.5 868.5a10.7 10.7 0 1 1 19.3 9 10.7 10.7 0 0 1-19.3-9ZM734 1005.3l-2-23 21 9.8-19 13.2Zm63.8-131.5a15171.8 15171.8 0 0 0-12.7 27.3l.1-.4c0-.5-1.4-2.3-3.2-2l-.4.6a.7.7 0 0 1-.1.1l.1-.2a1204.2 1204.2 0 0 0 8.6-18.4l3-6 .8-2 .2-.4v-.2h.1l1.8.8 1.8.9v.2l-.3.5-.9 1.8-2.8 6.1a16610.4 16610.4 0 0 1-8.8 18.7l-.1.2-.5.5c-1.8.4-3.2-1.4-3.2-2v-.2l.1-.1v-.2c.2-.1.4-.6.7-1.3l12.1-26 3.6 1.7Zm.1 0L736 1006.3l-3.6-1.7 62.1-132.3 3.6 1.7Z"
        fill="url(#d)" />
    <path
        d="M786.5 868.5a10.7 10.7 0 1 1 19.3 9 10.7 10.7 0 0 1-19.3-9ZM734 1005.3l-2-23 21 9.8-19 13.2Zm63.8-131.5a15171.8 15171.8 0 0 0-12.7 27.3l.1-.4c0-.5-1.4-2.3-3.2-2l-.4.6a.7.7 0 0 1-.1.1l.1-.2a1204.2 1204.2 0 0 0 8.6-18.4l3-6 .8-2 .2-.4v-.2h.1l1.8.8 1.8.9v.2l-.3.5-.9 1.8-2.8 6.1a16610.4 16610.4 0 0 1-8.8 18.7l-.1.2-.5.5c-1.8.4-3.2-1.4-3.2-2v-.2l.1-.1v-.2c.2-.1.4-.6.7-1.3l12.1-26 3.6 1.7Zm.1 0L736 1006.3l-3.6-1.7 62.1-132.3 3.6 1.7Z"
        fill="url(#e)" />
    <path
        d="M408.7 523a10.7 10.7 0 1 0-21.4 0 10.7 10.7 0 0 0 21.4 0ZM398 578l11.5-20h-23l11.5 20Zm0-32.5h-2 2Zm-2-22.5v22.5h4V523h-4Zm0 22.5V560h4v-14.5h-4Z"
        fill="url(#f)" />
    <path
        d="M408.7 639a10.7 10.7 0 1 0-21.4 0 10.7 10.7 0 0 0 21.4 0ZM398 694l11.5-20h-23l11.5 20Zm0-32.5h-2 2Zm-2-22.5v22.5h4V639h-4Zm0 22.5V676h4v-14.5h-4Z"
        fill="url(#g)" />
    <path
        d="M408.7 755a10.7 10.7 0 1 0-21.4 0 10.7 10.7 0 0 0 21.4 0ZM398 810l11.5-20h-23l11.5 20Zm0-32.5h-2 2Zm-2-22.5v22.5h4V755h-4Zm0 22.5V792h4v-14.5h-4Z"
        fill="url(#h)" />
    <path
        d="M806.7 522.5a10.7 10.7 0 1 0-21.4 0 10.7 10.7 0 0 0 21.4 0ZM796 810l11.5-20h-23l11.5 20Zm0-147.5h2-2Zm-2-140v140h4v-140h-4Zm0 140V792h4V662.5h-4Z"
        fill="url(#i)" />
    <path
        d="M723.3 240a10.7 10.7 0 1 1 21.4 0 10.7 10.7 0 0 1-21.4 0ZM796 462l-11.5-20h23L796 462Zm2-160v142h-4V302h4Zm-64-64a64 64 0 0 1 64 64h-4a60 60 0 0 0-60-60v-4Z"
        fill="url(#j)" />
    <path
        d="M723.3 240a10.7 10.7 0 1 1 21.4 0 10.7 10.7 0 0 1-21.4 0ZM796 462l-11.5-20h23L796 462Zm2-160v142h-4V302h4Zm-64-64a64 64 0 0 1 64 64h-4a60 60 0 0 0-60-60v-4Z"
        fill="url(#k)" />
    <path
        d="M310.4 279h5l4.8 9h.2l4.9-9h5l-7.7 13.5v7.5H318v-7.5l-7.7-13.6Zm26.1 21.3c-1.6 0-3-.3-4.2-1-1.2-.6-2-1.6-2.7-2.8a9.7 9.7 0 0 1 0-8.6 7 7 0 0 1 2.7-2.9c1.1-.7 2.5-1 4-1 1 0 2 .1 3 .5a6.5 6.5 0 0 1 3.9 4c.4 1 .6 2.2.6 3.5v1.2h-13.4v-2.7h9.2c0-.6-.1-1.2-.4-1.7a3 3 0 0 0-1.1-1.1c-.5-.3-1-.4-1.7-.4s-1.3.1-1.8.4c-.5.3-.9.7-1.2 1.2-.3.5-.4 1.1-.4 1.7v2.6c0 .8.1 1.5.4 2 .3.6.7 1 1.3 1.4.5.3 1.1.4 1.9.4.5 0 1 0 1.3-.2.4-.1.8-.3 1-.6.3-.3.6-.6.7-1l4 .3c-.1 1-.6 1.8-1.2 2.5s-1.4 1.3-2.4 1.7c-1 .4-2.2.6-3.5.6Zm23.3-11.6-4 .2a2 2 0 0 0-.5-.9c-.2-.3-.5-.5-.9-.7a3 3 0 0 0-1.3-.2 3 3 0 0 0-1.7.4c-.5.3-.7.7-.7 1.2 0 .3.2.6.5 1 .3.2.8.4 1.5.5l2.9.6c1.5.3 2.7.8 3.4 1.5.8.7 1.1 1.7 1.1 2.8 0 1-.3 2-.9 2.7a6 6 0 0 1-2.5 1.9c-1 .4-2.2.6-3.6.6-2 0-3.8-.4-5-1.3-1.2-.9-2-2-2.2-3.6l4.3-.2a3 3 0 0 0 1 1.5c.5.3 1.1.4 2 .4.7 0 1.3-.1 1.8-.4.4-.3.7-.7.7-1.2 0-.4-.2-.7-.5-1l-1.5-.5-2.8-.6a6.6 6.6 0 0 1-3.4-1.6 4 4 0 0 1-1.2-2.9c0-1 .3-1.9.9-2.6.5-.8 1.3-1.3 2.3-1.7 1-.4 2.2-.6 3.6-.6 2 0 3.5.4 4.7 1.2 1.1.9 1.8 2 2 3.5ZM80.3 277H78l6.2-16.7h2l6.2 16.7h-2.1l-5-14h-.2l-5 14Zm.7-6.5h8.6v1.8H81v-1.8Zm13.8 11.2v-17.2h2v2h.1l.6-.9 1.1-.9a4 4 0 0 1 2-.4 5 5 0 0 1 4.6 3 8 8 0 0 1 .7 3.5c0 1.3-.2 2.4-.7 3.4-.4 1-1 1.7-1.8 2.3a5 5 0 0 1-2.8.8 4 4 0 0 1-2-.4c-.4-.3-.8-.6-1-1l-.7-.8h-.1v6.6h-2Zm2-11c0 1 0 1.8.4 2.5.2.8.6 1.3 1.2 1.7.5.4 1.2.6 2 .6.7 0 1.4-.2 2-.6.5-.4 1-1 1.2-1.7.3-.8.4-1.6.4-2.5 0-.9-.1-1.6-.4-2.4a4 4 0 0 0-1.2-1.6c-.6-.5-1.2-.7-2-.7a3.2 3.2 0 0 0-3.3 2.3c-.2.7-.4 1.5-.4 2.4Zm12 11v-17.2h2v2h.2c0-.3.3-.5.5-.9l1.1-.9a4 4 0 0 1 2-.4 5 5 0 0 1 4.7 3 8 8 0 0 1 .6 3.5 9 9 0 0 1-.6 3.4c-.5 1-1.1 1.7-2 2.3a5 5 0 0 1-2.7.8 4 4 0 0 1-2-.4c-.4-.3-.8-.6-1-1a12 12 0 0 1-.6-.8h-.2v6.6h-2Zm2-11c0 1 .1 1.8.4 2.5.3.8.7 1.3 1.2 1.7.5.4 1.2.6 2 .6s1.4-.2 2-.6c.5-.4 1-1 1.2-1.7.3-.8.4-1.6.4-2.5 0-.9-.1-1.6-.4-2.4a4 4 0 0 0-1.2-1.6c-.6-.5-1.2-.7-2-.7a3.2 3.2 0 0 0-3.2 2.3 6 6 0 0 0-.4 2.4Zm24 6.3h-5.2v-16.7h5.4c1.6 0 3 .3 4.2 1 1.1.6 2 1.6 2.6 2.8a10 10 0 0 1 1 4.5 10 10 0 0 1-1 4.5 6.6 6.6 0 0 1-2.7 2.9c-1.2.7-2.6 1-4.3 1Zm-3.2-1.8h3c1.4 0 2.6-.3 3.5-.8a5 5 0 0 0 2-2.3c.5-1 .7-2.1.7-3.5 0-1.3-.2-2.5-.7-3.5a4 4 0 0 0-2-2.2c-.8-.6-2-.8-3.2-.8h-3.3v13.1Zm19.5 2c-1.2 0-2.2-.2-3-.7a5.4 5.4 0 0 1-2.1-2.3c-.5-1-.7-2-.7-3.4 0-1.3.2-2.4.7-3.4a5.3 5.3 0 0 1 5-3.1 6 6 0 0 1 1.9.3 4.8 4.8 0 0 1 3 3c.3.8.4 1.8.4 3v.8h-9.6v-1.7h7.7c0-.7-.2-1.3-.5-1.9a3.2 3.2 0 0 0-3-1.8c-.7 0-1.4.2-2 .6-.5.4-1 .9-1.2 1.5-.3.6-.5 1.2-.5 2v1c0 1 .2 1.8.5 2.4a3 3 0 0 0 1.4 1.5 4 4 0 0 0 2 .5c.5 0 1 0 1.4-.2a3 3 0 0 0 1-.6c.4-.3.6-.7.8-1.1l1.8.5c-.2.6-.5 1.2-1 1.7a4 4 0 0 1-1.7 1c-.6.3-1.4.5-2.3.5Zm18-12.7-4.6 12.5h-2l-4.6-12.5h2l3.6 10 3.6-10h2Zm7.4 12.8a6 6 0 0 1-3.1-.8 5.4 5.4 0 0 1-2-2.3c-.5-1-.8-2-.8-3.4 0-1.3.3-2.4.8-3.4.4-1 1-1.7 2-2.3.8-.5 1.8-.8 2.9-.8a6 6 0 0 1 2 .3 4.8 4.8 0 0 1 3 3c.2.8.4 1.8.4 3v.8H172v-1.7h7.7a4 4 0 0 0-.4-1.9 3.2 3.2 0 0 0-3-1.8c-.8 0-1.4.2-2 .6-.5.4-1 .9-1.3 1.5-.3.6-.4 1.2-.4 2v1c0 1 .1 1.8.5 2.4.3.7.8 1.2 1.3 1.5a4 4 0 0 0 2.1.5c.5 0 1 0 1.4-.2a3 3 0 0 0 1-.6c.3-.3.6-.7.7-1.1l1.9.5c-.2.6-.5 1.2-1 1.7-.5.4-1 .8-1.7 1a6 6 0 0 1-2.3.5Zm10-17V277h-1.9v-16.7h2Zm8.7 17c-1.2 0-2.1-.3-3-.8a5.5 5.5 0 0 1-2-2.3c-.5-1-.7-2.1-.7-3.4 0-1.3.2-2.5.7-3.4a5 5 0 0 1 2-2.3 6.1 6.1 0 0 1 6 0c.8.5 1.5 1.3 2 2.3.4 1 .7 2 .7 3.4 0 1.3-.3 2.4-.8 3.4-.4 1-1 1.7-2 2.3-.8.5-1.8.8-3 .8Zm0-1.8c.8 0 1.5-.2 2.1-.6.6-.5 1-1 1.2-1.8.3-.7.4-1.5.4-2.3 0-.8-.1-1.6-.4-2.4a4 4 0 0 0-1.2-1.7c-.6-.5-1.3-.7-2.1-.7-.9 0-1.6.2-2.1.7-.6.4-1 1-1.3 1.7-.2.8-.4 1.6-.4 2.4 0 .8.2 1.6.4 2.3.3.7.7 1.3 1.3 1.8.5.4 1.2.6 2 .6Zm8.6 6.2v-17.2h1.9v2h.2l.6-.9 1-.9a4 4 0 0 1 2-.4 5 5 0 0 1 4.7 3 8 8 0 0 1 .7 3.5c0 1.3-.2 2.4-.7 3.4a5 5 0 0 1-4.6 3 4 4 0 0 1-2-.3c-.5-.3-.8-.6-1.1-1l-.6-.8h-.2v6.6h-1.9Zm1.9-11c0 1 .1 1.8.4 2.5.3.8.7 1.3 1.2 1.7.6.4 1.2.6 2 .6s1.5-.2 2-.6c.6-.4 1-1 1.2-1.7a6.6 6.6 0 0 0 0-4.8c-.2-.8-.6-1.3-1.2-1.7-.5-.5-1.2-.7-2-.7a3.2 3.2 0 0 0-3.2 2.3 6 6 0 0 0-.4 2.4Zm17.4 6.6a6 6 0 0 1-3.1-.8 5.4 5.4 0 0 1-2-2.3c-.5-1-.8-2-.8-3.4a9 9 0 0 1 .7-3.4c.5-1 1.2-1.7 2-2.3a6 6 0 0 1 5-.5 4.8 4.8 0 0 1 3 3c.2.8.4 1.8.4 3v.8h-9.7v-1.7h7.7a4 4 0 0 0-.4-1.9 3.2 3.2 0 0 0-3-1.8c-.8 0-1.4.2-2 .6-.6.4-1 .9-1.3 1.5-.3.6-.4 1.2-.4 2v1c0 1 .1 1.8.4 2.4.4.7.8 1.2 1.4 1.5a4 4 0 0 0 2 .5c.6 0 1 0 1.5-.2a3 3 0 0 0 1-.6c.3-.3.6-.7.7-1.1l1.9.5c-.2.6-.5 1.2-1 1.7-.5.4-1 .8-1.7 1a6 6 0 0 1-2.3.5Zm8.1-.3v-12.5h1.9v1.8h.1a3 3 0 0 1 1.2-1.5c.6-.3 1.3-.5 2-.5a18.8 18.8 0 0 1 1 0v2a6.2 6.2 0 0 0-1.1-.2c-.6 0-1.2.1-1.6.4a4 4 0 0 0-1.2 1c-.2.5-.4 1-.4 1.6v7.9h-1.9Zm693.8-2v-16.7h5.7a6 6 0 0 1 3.2.7c.9.5 1.5 1 1.9 1.9.4.8.6 1.7.6 2.7a6 6 0 0 1-.6 2.7c-.4.8-1 1.4-1.9 1.9a6 6 0 0 1-3.2.7h-4V267h4a4 4 0 0 0 2.1-.5c.6-.3 1-.7 1.2-1.2a4 4 0 0 0 .4-1.8c0-.7-.1-1.3-.4-1.8-.2-.6-.6-1-1.2-1.3-.5-.3-1.3-.4-2.2-.4h-3.5v15h-2Zm18 .3c-.7 0-1.4-.2-2-.5-.7-.3-1.3-.7-1.6-1.3-.4-.5-.6-1.2-.6-2s.1-1.4.4-1.8a3 3 0 0 1 1.2-1 6 6 0 0 1 1.5-.6 19 19 0 0 1 3.6-.6l1-.2c.3-.2.4-.4.4-.7 0-.9-.2-1.5-.7-2-.4-.4-1-.6-2-.6a3.3 3.3 0 0 0-3.2 1.9l-1.8-.7a4.4 4.4 0 0 1 3-2.6 7.4 7.4 0 0 1 3.4-.2l1.5.6c.5.3 1 .8 1.2 1.3.4.6.5 1.4.5 2.4v8.3H947v-1.7h-.1c-.1.3-.3.6-.7.9-.3.3-.7.6-1.2.8-.5.2-1 .3-1.8.3Zm.4-1.7c.7 0 1.4-.2 1.9-.5a3 3 0 0 0 1.6-2.6v-1.8l-.5.3a9.2 9.2 0 0 1-2 .3 53.1 53.1 0 0 0-2.2.4c-.5.2-.8.4-1 .7-.3.3-.5.6-.5 1.1 0 .7.3 1.2.8 1.6.5.3 1.1.5 1.9.5Zm14 1.7a5.4 5.4 0 0 1-5-3.1 9.3 9.3 0 0 1 .1-6.8c.4-1 1-1.7 2-2.3.8-.5 1.8-.8 3-.8a6 6 0 0 1 2.3.5 4 4 0 0 1 1.7 1.4c.5.5.8 1.2.9 2h-2a3 3 0 0 0-3-2.2c-.7 0-1.4.2-2 .6-.5.4-1 1-1.3 1.7a6 6 0 0 0-.4 2.4c0 1 .1 1.8.4 2.6.4.7.8 1.2 1.3 1.6.6.4 1.3.6 2 .6.5 0 1 0 1.4-.2a2.8 2.8 0 0 0 1.6-2h2a4.5 4.5 0 0 1-2.5 3.4c-.7.4-1.5.6-2.5.6Zm9.6-4.9V268h.3l5.5-5.5h2.4l-5.8 5.9h-.2l-2.2 2Zm-1.8 4.6v-16.7h2V275h-2Zm8 0-5-6.2 1.4-1.3 6 7.5h-2.4Zm9.2.3a5.4 5.4 0 0 1-5.1-3c-.5-1-.7-2.2-.7-3.5 0-1.3.2-2.4.7-3.4a5.3 5.3 0 0 1 5-3.1 6 6 0 0 1 1.9.3 4.8 4.8 0 0 1 3 3c.3.8.4 1.8.4 3v.8H978v-1.7h7.7c0-.7-.2-1.3-.4-1.9a3.2 3.2 0 0 0-3-1.8c-.8 0-1.5.2-2 .6-.6.4-1 .9-1.3 1.5-.3.6-.5 1.2-.5 2v1c0 1 .2 1.8.5 2.4a3 3 0 0 0 1.4 1.5 4 4 0 0 0 2 .5c.6 0 1 0 1.4-.2a3 3 0 0 0 1-.6c.4-.3.6-.7.8-1.1l1.8.5c-.2.6-.5 1.2-1 1.7a4 4 0 0 1-1.7 1c-.6.3-1.4.5-2.3.5Zm13.6-12.8v1.6h-6.5v-1.6h6.5Zm-4.6-3h2v12c0 .5 0 .9.2 1.1.1.3.4.5.6.6l.8.1h.5l.4-.1.4 1.7a3.9 3.9 0 0 1-1.5.3c-.5 0-1-.2-1.6-.4-.5-.2-1-.6-1.3-1a3 3 0 0 1-.5-1.9v-12.5Zm18.7 15.7c-1 0-2-.2-2.8-.6-.8-.4-1.4-1-1.8-1.6a4.5 4.5 0 0 1-.3-4.3c.3-.5.8-1 1.3-1.5s1.1-1 1.8-1.4l2.4-1.8 1.2-1c.3-.4.4-.8.4-1.4 0-.4-.2-.8-.6-1.2a2 2 0 0 0-1.4-.6 2 2 0 0 0-1.2.3l-.7.8a2 2 0 0 0-.3 1l.3 1.2.9 1.2 1 1.3 7.7 9.4h-2.3l-6.4-7.6-1.6-2c-.5-.5-.8-1.1-1.1-1.7a4 4 0 0 1-.5-1.8c0-.8.2-1.4.5-2 .4-.5.9-1 1.5-1.3.6-.3 1.3-.5 2.1-.5s1.6.2 2.2.5a3.5 3.5 0 0 1 1.9 3 4 4 0 0 1-.6 2c-.4.7-1 1.2-1.7 1.7l-3.3 2.5a5 5 0 0 0-1.5 1.6 3 3 0 0 0-.4 1.2c0 .5.1 1 .4 1.4.3.5.6.8 1.1 1.1a4.5 4.5 0 0 0 3.6 0c.6-.2 1.2-.6 1.6-1.1a6 6 0 0 0 1.6-4.3h1.9a8 8 0 0 1-.4 2.7 4 4 0 0 1-.9 1.7 13 13 0 0 1-1 1v.3a5 5 0 0 1-2.1 1.4c-.9.3-1.7.4-2.5.4Zm30.9-8.6c0 1.8-.4 3.3-1 4.6a7.2 7.2 0 0 1-2.6 3 7 7 0 0 1-3.8 1 7 7 0 0 1-3.8-1c-1.1-.7-2-1.7-2.7-3a10.8 10.8 0 0 1 0-9.1 7.2 7.2 0 0 1 2.7-3 7 7 0 0 1 3.8-1 7 7 0 0 1 3.8 1c1 .7 2 1.7 2.6 3 .6 1.2 1 2.8 1 4.5Zm-2 0c0-1.4-.3-2.6-.7-3.6-.5-1-1.2-1.8-2-2.3a5 5 0 0 0-2.7-.8 5 5 0 0 0-4.7 3c-.5 1-.8 2.3-.8 3.7 0 1.5.3 2.7.8 3.7.4 1 1.1 1.8 2 2.3a5 5 0 0 0 2.7.7 5 5 0 0 0 4.7-3c.5-1 .7-2.2.7-3.7Zm14.5-4.1c0-.9-.5-1.5-1.2-2-.7-.4-1.5-.7-2.5-.7-.8 0-1.4.2-2 .4-.5.2-1 .6-1.3 1-.3.4-.4.9-.4 1.4 0 .5 0 .8.3 1.2l.8.8 1 .5 1 .3 1.8.5c.4 0 1 .2 1.4.4a5 5 0 0 1 1.6.9c.5.3.9.7 1.2 1.3.3.5.5 1.2.5 2a4 4 0 0 1-.7 2.4c-.5.7-1.2 1.3-2 1.7a7 7 0 0 1-3.3.7c-1.3 0-2.3-.2-3.2-.6a5 5 0 0 1-2-1.6 5 5 0 0 1-.9-2.4h2.1c0 .6.3 1.1.7 1.6.3.4.8.7 1.4.9a5.8 5.8 0 0 0 4-.1l1.4-1c.4-.5.5-1 .5-1.7 0-.5-.1-1-.4-1.3a3 3 0 0 0-1.3-.9l-1.6-.6-2-.5c-1.4-.4-2.4-1-3.2-1.6a3.5 3.5 0 0 1-1.1-2.8c0-1 .3-1.7.8-2.4a5 5 0 0 1 2-1.7 7 7 0 0 1 3-.6c1 0 2 .2 2.8.6a5 5 0 0 1 2 1.6c.5.7.7 1.4.8 2.3h-2Zm-109 23.8h2.4l5.7 13.9h.2l5.7-14h2.4V303H959v-12.7h-.1l-5.3 12.7h-1.8l-5.2-12.7h-.2V303h-1.9v-16.7Zm24 17c-.9 0-1.6-.2-2.3-.5-.6-.3-1.1-.7-1.5-1.3-.4-.5-.6-1.2-.6-2s.2-1.4.5-1.8a3 3 0 0 1 1-1 6 6 0 0 1 1.7-.6 19 19 0 0 1 3.6-.6l1-.2c.2-.2.3-.4.3-.7a3 3 0 0 0-.6-2 3 3 0 0 0-2-.6c-1 0-1.7.2-2.2.6-.5.4-.9.8-1 1.3l-2-.7a4.4 4.4 0 0 1 3.2-2.6 7.4 7.4 0 0 1 3.3-.2l1.5.6c.5.3 1 .8 1.3 1.3.3.6.5 1.4.5 2.4v8.3h-2v-1.7l-.7.9c-.3.3-.7.6-1.2.8-.5.2-1.2.3-1.9.3Zm.2-1.7c.8 0 1.4-.2 2-.5a3 3 0 0 0 1.5-2.6v-1.8l-.5.3a9.2 9.2 0 0 1-2 .3 53.1 53.1 0 0 0-2.2.4c-.4.2-.8.4-1 .7-.3.3-.4.6-.4 1.1 0 .7.2 1.2.7 1.6.5.3 1.1.5 2 .5Zm9 1.4v-12.5h2V303h-2Zm1-14.6c-.4 0-.7-.2-1-.4-.3-.3-.4-.6-.4-1 0-.3.1-.6.4-.9.3-.2.6-.4 1-.4.3 0 .7.2 1 .4.2.3.3.6.3 1 0 .3-.1.6-.4.9-.2.2-.6.4-1 .4Zm6.4 7v7.6h-2v-12.5h1.9v2h.2c.3-.7.7-1.2 1.3-1.6.6-.4 1.4-.6 2.3-.6.9 0 1.6.2 2.3.5.6.4 1 .9 1.4 1.6.4.7.6 1.6.6 2.6v8h-2v-7.8c0-1-.2-1.8-.7-2.3-.5-.6-1.2-.9-2.1-.9-.6 0-1.2.2-1.7.4-.5.3-.8.7-1.1 1.2-.3.5-.4 1.1-.4 1.9Zm17-5v1.7h-6.6v-1.6h6.5Zm-4.7-3h2v12c0 .6 0 1 .2 1.2l.6.6.8.1h.6l.3-.1.4 1.7a4.1 4.1 0 0 1-1.5.3c-.5 0-1-.2-1.6-.4-.5-.2-1-.6-1.3-1a3 3 0 0 1-.5-1.9v-12.5Zm11.2 15.9a5 5 0 0 1-2.1-.5c-.7-.3-1.2-.7-1.6-1.3-.4-.5-.5-1.2-.5-2s.1-1.4.4-1.8a3 3 0 0 1 1.1-1 6 6 0 0 1 1.6-.6 19.2 19.2 0 0 1 3.6-.6l1-.2c.3-.2.4-.4.4-.7a3 3 0 0 0-.7-2c-.4-.4-1.1-.6-2-.6-.9 0-1.6.2-2.1.6a3 3 0 0 0-1.2 1.3l-1.8-.7c.3-.7.8-1.3 1.3-1.7.6-.5 1.2-.8 1.8-1a7.5 7.5 0 0 1 3.3 0 3.3 3.3 0 0 1 2.8 1.8c.3.6.5 1.4.5 2.4v8.3h-2v-1.7l-.7.9c-.3.3-.7.6-1.2.8a5 5 0 0 1-1.9.3Zm.3-1.7c.8 0 1.4-.2 2-.5a3 3 0 0 0 1.1-1.1c.3-.5.5-1 .5-1.5v-1.8l-.6.3a9.4 9.4 0 0 1-2 .3 62.7 62.7 0 0 0-2.2.4c-.4.2-.8.4-1 .7-.3.3-.4.6-.4 1.1 0 .7.2 1.2.7 1.6a4 4 0 0 0 2 .5Zm9 1.4v-12.5h2V303h-2Zm1-14.6c-.4 0-.7-.2-1-.4-.3-.3-.4-.6-.4-1 0-.3.1-.6.4-.9.3-.2.6-.4 1-.4s.7.2 1 .4c.2.3.4.6.4 1 0 .3-.2.6-.4.9-.3.2-.6.4-1 .4Zm6.4 7v7.6h-2v-12.5h2v2c.4-.7.8-1.2 1.4-1.6.6-.4 1.4-.6 2.3-.6.9 0 1.6.2 2.3.5.6.4 1.1.9 1.5 1.6.3.7.5 1.6.5 2.6v8h-2v-7.8c0-1-.2-1.8-.7-2.3-.5-.6-1.2-.9-2.1-.9-.6 0-1.2.2-1.7.4a3 3 0 0 0-1 1.2c-.4.5-.5 1.1-.5 1.9Zm16.8 7.9a6 6 0 0 1-3.1-.8 5.4 5.4 0 0 1-2-2.3 8 8 0 0 1 0-6.8c.4-1 1-1.7 2-2.3.8-.5 1.8-.8 2.9-.8a6 6 0 0 1 2 .3c.6.2 1.1.6 1.7 1 .5.6.9 1.2 1.2 2 .3.8.5 1.8.5 3v.8h-9.7v-1.7h7.7a4 4 0 0 0-.4-1.9c-.3-.5-.7-1-1.2-1.3-.5-.3-1.1-.5-1.8-.5-.8 0-1.5.2-2 .6-.6.4-1 .9-1.3 1.5-.3.6-.4 1.2-.4 2v1c0 1 .1 1.8.5 2.4.3.7.7 1.2 1.3 1.5a4 4 0 0 0 2 .5c.6 0 1 0 1.5-.2a2.9 2.9 0 0 0 1.7-1.7l1.9.5c-.2.6-.5 1.2-1 1.7-.5.4-1 .8-1.7 1a6 6 0 0 1-2.3.5Zm8.1-.3v-12.5h1.9v1.8h.1a3 3 0 0 1 1.2-1.5c.6-.3 1.3-.5 2-.5a18.8 18.8 0 0 1 1 0v2a7.3 7.3 0 0 0-1.1-.2 3 3 0 0 0-1.6.4 2.8 2.8 0 0 0-1.5 2.6v7.9h-2ZM118 224.7a9 9 0 0 1-4-1 5.5 5.5 0 0 1-2.8-2.6 7 7 0 0 1-.8-4l.4-6.3c.1-1.1-.1-2-.7-2.6-.5-.6-1.4-.9-2.7-.9h-5v-4.8h5c1.3 0 2.2-.3 2.7-.9.6-.6.8-1.4.7-2.6l-.4-6.6a7 7 0 0 1 .8-3.9c.6-1 1.5-1.9 2.7-2.5 1.2-.6 2.6-.9 4.2-.9h2.9v4.9h-2.2c-1 0-1.8.2-2.4.7-.5.5-.8 1.2-.7 2.3l.4 6.5c.1 1.7-.4 3-1.5 4-1 1-2.6 1.5-4.6 1.5v-.3c2 0 3.5.5 4.6 1.6 1.1 1 1.6 2.3 1.5 4l-.4 6.5c0 1 .2 1.7.8 2.2.6.5 1.3.8 2.3.8h2.2v4.9h-3Zm5.4 0 14.7-39.6h5.5l-14.7 39.5h-5.5Zm22.7 0v-5h2c1 0 1.9-.2 2.4-.7.6-.5.9-1.2.8-2.2l-.4-6.5c0-1.7.4-3 1.5-4s2.6-1.6 4.6-1.6v.3c-2 0-3.5-.5-4.6-1.5a4.7 4.7 0 0 1-1.5-4l.4-6.5c.1-1-.2-1.8-.8-2.3-.5-.5-1.3-.7-2.3-.7H146v-5h2.8a9 9 0 0 1 4.2 1c1.2.5 2 1.3 2.7 2.4a7 7 0 0 1 .8 4l-.4 6.5c-.1 1.2.1 2 .7 2.6.5.6 1.5.9 2.7.9h5v4.8h-5c-1.2 0-2.2.3-2.7.9-.6.6-.8 1.5-.7 2.6l.4 6.4c0 1.5-.2 2.8-.8 4a6 6 0 0 1-2.7 2.5c-1.2.7-2.6 1-4.2 1H146ZM858.4 279v21h-3.8l-9.2-13.3h-.2V300h-4.4v-21h3.9l9 13.2h.3v-13.3h4.4Zm10.8 21.3c-1.6 0-3-.3-4.2-1a7 7 0 0 1-2.7-2.9 9.4 9.4 0 0 1 0-8.5 6.9 6.9 0 0 1 2.7-2.9 8 8 0 0 1 4.2-1 8 8 0 0 1 4.1 1c1.2.7 2 1.6 2.7 2.9a9.4 9.4 0 0 1 0 8.5 7 7 0 0 1-2.7 2.9 8 8 0 0 1-4.1 1Zm0-3.4c.7 0 1.3-.2 1.8-.6.5-.4.9-1 1.1-1.7.3-.7.4-1.6.4-2.5a6 6 0 0 0-.4-2.4c-.2-.8-.6-1.3-1-1.7-.6-.5-1.2-.7-2-.7-.6 0-1.3.2-1.8.7-.5.4-.8 1-1 1.7a6 6 0 0 0-.5 2.4c0 1 .2 1.8.4 2.5.3.7.6 1.3 1.1 1.7a3 3 0 0 0 1.9.6Z"
        fill="#fff" />
    <circle cx="208.5" cy="197.5" r="17.5" fill="#fff" />
    <circle cx="1028.5" cy="198.5" r="17.5" fill="#fff" />
    <path d="M237 243.5a28.5 28.5 0 1 0-57 0h57Zm820 1a28.5 28.5 0 0 0-57 0h57Z" fill="#fff" />
    <path fill-rule="evenodd" clip-rule="evenodd"
        d="M965.8 180.9a3 3 0 0 0-3 0l-2 1.1 9.2 4.8 1.3 1 3.3-1.9-8.8-5Zm3.6 11.4.1 6.2h3l-.1-7.8 3.6-2v9.8c0 1-.6 2-1.5 2.6l-8.7 5a3 3 0 0 1-.5.3v-11.9l4-2.2Zm-1-3-10.6-5.5-3.7 2a3 3 0 0 0-.5.5l10.2 5.7 4.6-2.6ZM953 204a3 3 0 0 0-3 0l-8 4.6 2.8 1.6.7-.5 9-4.8-1.5-.9Zm-10 9.6.2-.8-3.3-2v10.8a3 3 0 0 0 1.4 2.7l8.7 5 .5.2V217l-4.4-2.6-.2 7.8h-3l.2-8.6Zm14.7-6.9-10 5.2 4.3 2.5 9.5-5.5-3.8-2.2Zm5.5 4.7-9.7 5.6v12l8.2-4.7a3 3 0 0 0 1.5-2.6v-10.3Zm-.9-5.5v-11.3l-9.7-5.3v9.3c0 1 .6 2 1.5 2.6l8.2 4.7Zm13.5-1.4c1-.6 2-.6 3 0l8.5 4.9-3.3 1.8c-.3-.4-.8-.8-1.3-1l-8.7-4.6 1.8-1.1Zm-5 2.8-3 1.8 10 5.8 3.5-2v-.1l-10.4-5.5Zm11.3 8.6-2.8 1.6v12l8.2-4.8a3 3 0 0 0 1.5-2.6v-10.3l-4 2.3.2 7.7h-3l-.1-6Zm-5.8 1.6V230a3 3 0 0 1-.5-.3l-8.7-5a3 3 0 0 1-1.5-2.6v-10l.1-.8 10.6 6.2Z"
        fill="#fff" />
    <path
        d="M854.2 121V92h19.9v5.6h-12.9v6h11.6v5.7h-11.6V121h-7Zm29.2.4c-1.4 0-2.6-.3-3.7-.7-1-.5-2-1.2-2.6-2.2-.6-1-.9-2.1-.9-3.6 0-1.2.2-2.2.7-3 .4-.9 1-1.5 1.7-2 .8-.6 1.6-1 2.6-1.2 1-.3 2-.5 3.1-.6a45 45 0 0 0 3-.3l1.7-.6c.3-.2.5-.6.5-1v-.1a2 2 0 0 0-.7-1.7c-.5-.4-1.2-.6-2-.6a4 4 0 0 0-2.3.6c-.6.4-1 1-1 1.7l-6.5-.3a7.6 7.6 0 0 1 4.8-6 14.6 14.6 0 0 1 8.8-.4c1.2.3 2.2.8 3.1 1.4a6.4 6.4 0 0 1 2.7 5.4V121H890v-3h-.2a6.2 6.2 0 0 1-3.6 3 9 9 0 0 1-2.7.4Zm2.1-4.6a4 4 0 0 0 2-.4c.7-.3 1.1-.8 1.5-1.3.4-.5.5-1.1.5-1.9v-2l-.7.3a12.5 12.5 0 0 1-2 .4l-1 .2c-.6 0-1.1.2-1.6.4-.4.3-.8.5-1 .9a2 2 0 0 0-.4 1.2c0 .7.3 1.3.8 1.7.5.3 1.1.5 2 .5Zm34.2-11-6.3.2-.6-1.2c-.3-.4-.7-.6-1.1-.8a4 4 0 0 0-1.7-.3c-.8 0-1.4.1-2 .4-.6.4-.8.8-.8 1.3s.1.8.5 1.2c.3.3 1 .5 1.9.7l4.2.8a10 10 0 0 1 4.9 2 5 5 0 0 1 1.6 4 6 6 0 0 1-1.4 3.8c-.8 1.1-2 2-3.5 2.6a14 14 0 0 1-5.2 1c-3.2 0-5.6-.7-7.4-2a7.2 7.2 0 0 1-3-5.2l6.8-.1c.1.7.5 1.4 1.2 1.8.6.4 1.4.6 2.4.6.9 0 1.6-.2 2.2-.5.5-.3.8-.8.8-1.3s-.2-1-.6-1.2c-.5-.3-1.1-.5-2-.7l-3.8-.7a9 9 0 0 1-5-2.2 6 6 0 0 1-1.5-4.2 6 6 0 0 1 1.1-3.7c.8-1 2-1.8 3.4-2.4 1.4-.5 3.1-.8 5.1-.8 3 0 5.3.6 7 1.9a6.3 6.3 0 0 1 2.8 5Zm16.3-6.6v5h-13.8v-5H936ZM925.1 94h7v20c0 .5 0 .8.2 1 .1.3.3.5.6.6l1 .2a5.2 5.2 0 0 0 1.5-.2l1 5a33 33 0 0 1-3.5.6c-1.7 0-3-.1-4.2-.6-1.2-.4-2-1.1-2.7-2.1a7 7 0 0 1-.9-3.7V94Zm23 27V92h12c2.2 0 4.1.3 5.7 1.2a9 9 0 0 1 3.7 3.5 11.2 11.2 0 0 1 0 10.6 8.9 8.9 0 0 1-3.8 3.4c-1.6.9-3.5 1.3-5.7 1.3h-7.5v-5.6h6.1c1.1 0 2-.2 2.7-.5a4 4 0 0 0 1.6-1.6c.4-.6.6-1.4.6-2.3a4 4 0 0 0-.6-2.3c-.3-.7-.9-1.2-1.6-1.6-.7-.3-1.6-.5-2.7-.5h-3.4V121h-7Zm31.5.4c-1.4 0-2.6-.3-3.7-.7-1-.5-2-1.2-2.5-2.2-.7-1-1-2.1-1-3.6 0-1.2.3-2.2.7-3 .4-.9 1-1.5 1.7-2 .8-.6 1.6-1 2.6-1.2 1-.3 2-.5 3.1-.6a45 45 0 0 0 3-.3l1.7-.6c.3-.2.5-.6.5-1v-.1a2 2 0 0 0-.7-1.7c-.5-.4-1.2-.6-2-.6a4 4 0 0 0-2.3.6c-.5.4-.9 1-1 1.7l-6.5-.3a7.6 7.6 0 0 1 4.8-6 14.6 14.6 0 0 1 8.8-.4c1.2.3 2.2.8 3.1 1.4a6.4 6.4 0 0 1 2.8 5.4V121H986v-3h-.2a6.2 6.2 0 0 1-3.6 3 9 9 0 0 1-2.7.4Zm2.2-4.6c.7 0 1.4-.1 2-.4.6-.3 1-.8 1.4-1.3.4-.5.6-1.1.6-1.9v-2l-.8.3a12.5 12.5 0 0 1-1.9.4l-1 .2c-.7 0-1.2.2-1.7.4-.4.3-.8.5-1 .9a2 2 0 0 0-.4 1.2c0 .7.3 1.3.8 1.7a4 4 0 0 0 2 .5Zm27.4-17.6v5h-13.8v-5h13.8ZM998.3 94h7v20c0 .5 0 .8.2 1 .1.3.3.5.6.6l1 .2a5.3 5.3 0 0 0 1.5-.2l1 5a31.6 31.6 0 0 1-3.5.6c-1.7 0-3-.1-4.2-.6-1.2-.4-2-1.1-2.7-2.1a7 7 0 0 1-.9-3.7V94Zm21.9 14.6V121h-7V92h6.7v11.2h.3a6.3 6.3 0 0 1 2.4-3.2 7.2 7.2 0 0 1 4.1-1.1 7.2 7.2 0 0 1 6.7 3.9c.6 1.2 1 2.6 1 4.3V121h-7v-12.5a4 4 0 0 0-1-2.9c-.6-.7-1.4-1-2.5-1-.8 0-1.4.2-2 .5-.5.3-1 .7-1.3 1.3-.3.6-.4 1.3-.4 2.2Z"
        fill="#fff" />
    <rect x="471" y="174" width="243" height="119" rx="59.5" fill="#fff" />
    <path
        d="M521.7 244.5V222h9.4c1.6 0 3 .2 4.2.7a5.2 5.2 0 0 1 3.4 5c0 .8-.1 1.6-.5 2.3-.4.6-.9 1.2-1.5 1.6a6 6 0 0 1-2.2 1v.2a5 5 0 0 1 4.4 2.6c.5.8.7 1.7.7 2.8a5.9 5.9 0 0 1-3.6 5.5 10 10 0 0 1-4.2.8h-10.1Zm5.4-4.4h3.4c1.2 0 2-.2 2.6-.7.5-.4.8-1 .8-1.8 0-.6-.1-1.1-.4-1.5-.2-.5-.6-.8-1.1-1-.5-.2-1.1-.4-1.8-.4H527v5.4Zm0-8.9h3a4 4 0 0 0 1.6-.3 2 2 0 0 0 1-.8c.3-.4.5-.9.5-1.4 0-.7-.3-1.3-.8-1.8-.6-.4-1.3-.6-2.2-.6h-3.1v5Zm26 6v-9.6h5.4v16.9h-5.1v-3.1h-.2a5 5 0 0 1-1.9 2.4c-.9.6-2 1-3.2 1-1.2 0-2.2-.3-3-.9a5.4 5.4 0 0 1-2.1-2.2 7 7 0 0 1-.8-3.3v-10.8h5.4v9.7c0 1 .3 1.7.8 2.2.4.5 1 .8 1.9.8.5 0 1-.1 1.4-.4a2 2 0 0 0 1-1c.3-.5.5-1 .5-1.7Zm14.2-2.3v9.6H562v-17h5v3.2h.3c.3-1 1-1.8 1.9-2.4.9-.6 2-1 3.2-1 1.2 0 2.2.3 3 .9 1 .5 1.7 1.2 2.1 2.2.5 1 .8 2 .8 3.3v10.8h-5.4v-9.7c0-1-.3-1.7-.7-2.2-.5-.6-1.2-.8-2-.8a3 3 0 0 0-1.5.4c-.4.2-.8.6-1 1-.2.5-.4 1-.4 1.7Zm20.5 9.8a6.2 6.2 0 0 1-5.9-3.8c-.6-1.3-.9-3-.9-4.8 0-2 .3-3.7 1-5a6.6 6.6 0 0 1 2.4-2.8 6.3 6.3 0 0 1 5.6-.5 4 4 0 0 1 1.6 1.2l1 1.5V222h5.4v22.5h-5.3v-2.7h-.2c-.2.5-.5 1-1 1.4-.4.5-.9.8-1.5 1.1a5 5 0 0 1-2.2.4Zm1.8-4.2c.7 0 1.3-.1 1.7-.5a3 3 0 0 0 1-1.6 6.8 6.8 0 0 0 0-4.8 3 3 0 0 0-1-1.5c-.4-.3-1-.5-1.7-.5-.6 0-1.2.2-1.7.5-.4.4-.8 1-1 1.6a7 7 0 0 0 0 4.7c.2.7.6 1.2 1 1.6.5.4 1 .5 1.7.5Zm17.2-18.5v22.5h-5.4V222h5.4Zm11.3 22.8a9 9 0 0 1-4.5-1 7.2 7.2 0 0 1-3-3 10 10 0 0 1-1-4.7c0-1.7.3-3.3 1-4.6a7.5 7.5 0 0 1 3-3 8.6 8.6 0 0 1 4.4-1.1c1.2 0 2.3.2 3.3.5a7.1 7.1 0 0 1 4.3 4.4c.4 1 .6 2.3.6 3.7v1.3h-14.7v-3h9.7c0-.7-.2-1.2-.5-1.6a2 2 0 0 0-1-1 3 3 0 0 0-1.6-.4 3.2 3.2 0 0 0-2.8 1.5 3 3 0 0 0-.4 1.5v3.2c0 .7.1 1.3.4 1.8.3.5.7 1 1.2 1.2.5.3 1 .4 1.7.4.5 0 1 0 1.3-.2l1-.5.7-1 5 .1a7.6 7.6 0 0 1-1.4 3c-.7.8-1.6 1.4-2.8 1.8a9 9 0 0 1-3.9.7Zm17 0a6.2 6.2 0 0 1-5.9-4c-.6-1.2-.9-2.8-.9-4.7 0-2 .3-3.7 1-5a6.6 6.6 0 0 1 2.5-2.8 6.3 6.3 0 0 1 5.5-.5 4 4 0 0 1 1.6 1.2l1 1.5V222h5.4v22.5H640v-2.7h-.2c-.2.5-.5 1-1 1.4-.3.5-.9.8-1.5 1.1a5 5 0 0 1-2.2.4Zm1.9-4.3c.6 0 1.2-.1 1.6-.5a3 3 0 0 0 1.1-1.6c.3-.7.4-1.4.4-2.4 0-.9-.1-1.7-.4-2.3-.2-.7-.6-1.2-1-1.6-.5-.3-1-.5-1.7-.5s-1.3.2-1.7.5c-.5.4-.8 1-1 1.6-.3.6-.4 1.4-.4 2.3 0 1 0 1.7.3 2.4s.6 1.2 1 1.6c.5.4 1 .5 1.8.5Zm16-2.9v-.5c0-1.2 0-2.2.3-3 .2-.7.5-1.3 1-1.7.3-.5.8-.9 1.4-1.3l1.2-.9c.4-.3.7-.6.9-1 .2-.3.3-.7.3-1.1 0-.5 0-.9-.3-1.2a2 2 0 0 0-.8-.8l-1.2-.2c-.5 0-.9 0-1.2.3l-1 .8c-.2.4-.3.8-.3 1.3h-5c0-1.5.3-2.8 1-3.8s1.6-1.7 2.7-2.1a10.8 10.8 0 0 1 7.8 0 5.4 5.4 0 0 1 3.8 5.4 5.6 5.6 0 0 1-1.6 4.1c-.5.5-1.2 1-1.9 1.4-.5.3-1 .6-1.3 1-.4.3-.7.7-.9 1.2l-.2 1.6v.5H653Zm2.4 7.2c-.8 0-1.5-.3-2-.8-.6-.6-.9-1.3-.8-2 0-.8.2-1.5.8-2 .5-.6 1.2-.9 2-.9s1.4.3 2 .9a2.7 2.7 0 0 1 .5 3.4 3 3 0 0 1-1 1c-.5.3-1 .4-1.5.4Z"
        fill="#424242" />
    <g filter="url(#l)">
        <path
            d="M603.7 108.5a10.7 10.7 0 1 0-21.4 0 10.7 10.7 0 0 0 21.4 0ZM593 172l11.5-20h-23l11.5 20Zm0-13.5h2-2Zm0-17h-2 2Zm-2-33v33h4v-33h-4Zm0 33v17h4v-17h-4Z"
            fill="url(#m)" />
    </g>
    <defs>
        <linearGradient id="a" x1="451" y1="238.9" x2="388.2" y2="238.9"
            gradientUnits="userSpaceOnUse">
            <stop stop-color="#24C8DB" />
            <stop offset="1" stop-color="#24DBA4" />
        </linearGradient>
        <linearGradient id="b" x1="459" y1="1006" x2="397.8" y2="872.3"
            gradientUnits="userSpaceOnUse">
            <stop stop-color="#24C8DB" />
            <stop offset="1" stop-color="#24DBA4" />
        </linearGradient>
        <linearGradient id="c" x1="733.9" y1="1005.4" x2="796.6" y2="872.4"
            gradientUnits="userSpaceOnUse">
            <stop stop-color="#24C8DB" />
            <stop offset="1" stop-color="#24DBA4" />
        </linearGradient>
        <linearGradient id="d" x1="796.5" y1="872.3" x2="796.6" y2="872.4"
            gradientUnits="userSpaceOnUse">
            <stop stop-color="#DBB324" />
            <stop offset="1" stop-color="#DB9224" />
        </linearGradient>
        <linearGradient id="e" x1="796.5" y1="872.3" x2="736" y2="1001"
            gradientUnits="userSpaceOnUse">
            <stop stop-color="#FFCB11" />
            <stop offset="1" stop-color="#FFBF84" />
        </linearGradient>
        <linearGradient id="f" x1="398" y1="522.7" x2="398" y2="578" gradientUnits="userSpaceOnUse">
            <stop stop-color="#24C8DB" />
            <stop offset="1" stop-color="#24DBA4" />
        </linearGradient>
        <linearGradient id="g" x1="398" y1="638.7" x2="398" y2="694" gradientUnits="userSpaceOnUse">
            <stop stop-color="#24C8DB" />
            <stop offset="1" stop-color="#24DBA4" />
        </linearGradient>
        <linearGradient id="h" x1="398" y1="754.7" x2="398" y2="810" gradientUnits="userSpaceOnUse">
            <stop stop-color="#24C8DB" />
            <stop offset="1" stop-color="#24DBA4" />
        </linearGradient>
        <linearGradient id="i" x1="796" y1="521" x2="796" y2="801" gradientUnits="userSpaceOnUse">
            <stop stop-color="#FFCB11" />
            <stop offset="1" stop-color="#FFBF84" />
        </linearGradient>
        <linearGradient id="j" x1="734" y1="238.9" x2="807.5" y2="238.9"
            gradientUnits="userSpaceOnUse">
            <stop stop-color="#DBB324" />
            <stop offset="1" stop-color="#DB9224" />
        </linearGradient>
        <linearGradient id="k" x1="768" y1="238.9" x2="768" y2="455.1"
            gradientUnits="userSpaceOnUse">
            <stop stop-color="#FFCB11" />
            <stop offset="1" stop-color="#FFBF84" />
        </linearGradient>
        <linearGradient id="m" x1="593" y1="116.7" x2="593" y2="172" gradientUnits="userSpaceOnUse">
            <stop stop-color="#24C8DB" />
            <stop offset="1" stop-color="#24DBA4" />
        </linearGradient>
        <filter id="l" x="552.8" y="69.1" width="80.5" height="131.6" filterUnits="userSpaceOnUse"
            color-interpolation-filters="sRGB">
            <feFlood flood-opacity="0" result="BackgroundImageFix" />
            <feColorMatrix in="SourceAlpha" values="0 0 0 0 0 0 0 0 0 0 0 0 0 0 0 0 0 0 127 0"
                result="hardAlpha" />
            <feOffset />
            <feGaussianBlur stdDeviation="14.3" />
            <feComposite in2="hardAlpha" operator="out" />
            <feColorMatrix values="0 0 0 0 0.141176 0 0 0 0 0.823529 0 0 0 0 0.752941 0 0 0 1 0" />
            <feBlend in2="BackgroundImageFix" result="effect1_dropShadow_2732_1106" />
            <feBlend in="SourceGraphic" in2="effect1_dropShadow_2732_1106" result="shape" />
        </filter>
    </defs>
</svg>