<svg xmlns="http://www.w3.org/2000/svg" xmlns:xlink="http://www.w3.org/1999/xlink">
<defs>
<symbol viewBox="0 0 16 16" id="bi-windows"><path fill="currentColor" d="M6.555 1.375L0 2.237v5.45h6.555zM0 13.795l6.555.933V8.313H0zm7.278-5.4l.026 6.378L16 16V8.395zM16 0L7.33 1.244v6.414H16z"></path></symbol>
<symbol viewBox="0 0 32 32" id="cib-linux"><path fill="currentColor" d="M16.672 0q-.311.002-.641.027c-5.635.447-4.14 6.411-4.224 8.4c-.104 1.453-.4 2.604-1.4 4.027c-1.183 1.401-2.839 3.667-3.625 6.025c-.369 1.109-.547 2.251-.38 3.324a.5.5 0 0 0-.151.176c-.344.36-.6.803-.881 1.12c-.265.265-.645.355-1.063.532c-.416.181-.88.359-1.151.911c-.12.251-.183.521-.177.803c0 .26.037.531.073.713c.079.531.156.969.052 1.292c-.333.905-.369 1.525-.14 1.979c.233.448.713.625 1.249.803c1.084.265 2.547.181 3.704.796c1.233.625 2.489.896 3.489.631a2.38 2.38 0 0 0 1.609-1.26c.781-.005 1.64-.36 3.011-.448c.932-.079 2.099.359 3.437.265c.036.183.083.265.156.448v.005c.52 1.036 1.484 1.505 2.516 1.427c1.025-.083 2.119-.713 3.004-1.744c.844-1.016 2.245-1.444 3.172-2c.464-.267.839-.625.865-1.141c.031-.531-.265-1.083-.948-1.833v-.131l-.005-.005c-.229-.265-.333-.713-.453-1.233c-.115-.537-.24-1.047-.656-1.396c-.084-.073-.167-.089-.255-.177a.5.5 0 0 0-.251-.088c.573-1.704.349-3.396-.235-4.923c-.708-1.88-1.953-3.52-2.896-4.645c-1.063-1.339-2.104-2.609-2.083-4.489c.036-2.871.317-8.177-4.724-8.188zm.703 4.541h.021c.281 0 .525.084.776.261c.255.181.443.443.583.713c.141.344.215.609.224.963c0-.025.005-.052.005-.077v.14c0-.011-.005-.02-.005-.031l-.005-.032c0 .324-.067.647-.197.943a1.2 1.2 0 0 1-.287.448q-.053-.031-.115-.057c-.14-.063-.265-.083-.38-.176a2 2 0 0 0-.292-.089c.063-.077.193-.177.245-.265c.068-.167.104-.349.115-.536v-.027a1.6 1.6 0 0 0-.084-.531c-.057-.177-.129-.267-.239-.443c-.115-.089-.224-.177-.36-.177h-.02c-.125 0-.235.036-.349.177a1.1 1.1 0 0 0-.271.443a1.5 1.5 0 0 0-.12.531v.027c0 .119.011.239.025.359c-.26-.088-.583-.183-.812-.271a2 2 0 0 1-.021-.265v-.027a2.4 2.4 0 0 1 .199-1.025c.109-.292.307-.543.573-.709c.228-.171.504-.265.791-.265zm-3.948.079h.047c.188 0 .36.063.532.177c.197.172.355.385.459.619c.12.267.187.537.208.891v.005c.005.177.005.272-.005.355v.109l-.109.031c-.203.073-.364.177-.527.267q.023-.181.005-.355v-.021c-.015-.176-.052-.265-.109-.443a.84.84 0 0 0-.224-.359a.33.33 0 0 0-.239-.084h-.032c-.093.005-.172.052-.244.177a.7.7 0 0 0-.161.36c-.037.14-.048.291-.032.443v.015c.016.183.047.272.109.448a.8.8 0 0 0 .219.355c.016.016.027.027.047.031c-.093.079-.156.095-.233.183c-.053.037-.109.084-.177.095a3.4 3.4 0 0 1-.365-.537a2.3 2.3 0 0 1-.208-.891a2.5 2.5 0 0 1 .104-.891c.079-.26.204-.505.38-.713c.172-.177.344-.265.557-.265zm1.828 2.276c.443 0 .975.083 1.62.531c.391.267.699.36 1.407.62c.344.183.541.36.64.537v-.177a.76.76 0 0 1 .021.624c-.167.417-.688.86-1.421 1.125v.005c-.355.177-.667.443-1.032.62c-.369.177-.787.391-1.349.355a1.6 1.6 0 0 1-.599-.089a4 4 0 0 1-.427-.265c-.26-.177-.484-.443-.817-.62v-.005h-.005c-.537-.328-.823-.683-.917-.948c-.088-.359-.005-.624.261-.801c.296-.177.504-.36.64-.448c.14-.099.193-.136.235-.172h.005v-.005c.224-.271.577-.625 1.12-.803c.181-.047.391-.083.619-.083zm3.729 2.853c.48 1.891 1.6 4.636 2.319 5.964c.38.713 1.14 2.213 1.468 4.032q.313-.007.683.088c.864-2.229-.724-4.625-1.448-5.292c-.297-.265-.312-.443-.167-.443c.787.708 1.817 2.095 2.192 3.672c.172.713.215 1.475.032 2.229c.088.036.177.083.271.088c1.375.715 1.885 1.251 1.64 2.052v-.057c-.077-.004-.161 0-.239 0h-.021c.204-.624-.244-1.104-1.421-1.635c-1.219-.531-2.193-.448-2.36.62a1 1 0 0 0-.02.183c-.095.031-.188.067-.281.083c-.573.36-.881.896-1.057 1.584c-.172.713-.224 1.541-.271 2.495c-.032.448-.229 1.119-.428 1.801c-2 1.432-4.776 2.052-7.129.448q-.226-.392-.537-.713a1.9 1.9 0 0 0-.369-.443c.244 0 .453-.041.62-.089a.86.86 0 0 0 .421-.447c.141-.355 0-.928-.464-1.553c-.457-.619-1.239-1.323-2.38-2.025c-.843-.531-1.317-1.161-1.536-1.86c-.219-.713-.188-1.448-.021-2.192c.328-1.427 1.167-2.817 1.704-3.688c.14-.083.047.183-.547 1.303c-.527 1-1.521 3.328-.163 5.135a10.8 10.8 0 0 1 .865-3.833c.749-1.703 2.323-4.671 2.448-7.025c.063.052.287.183.385.271c.287.177.505.443.787.62c.281.265.635.448 1.167.448q.077.006.145.005c.547 0 .975-.177 1.328-.355c.385-.183.699-.448.989-.536h.005c.62-.177 1.115-.537 1.391-.933zm2.917 11.944c.052.801.459 1.661 1.177 1.837c.781.177 1.911-.443 2.385-1.02l.281-.011c.421-.011.771.011 1.129.355l.005.005c.276.265.407.708.521 1.167c.115.536.203 1.041.547 1.421c.645.703.859 1.208.849 1.521c-.021.348-.251.525-.667.791c-.839.537-2.328.948-3.276 2.095c-.824.984-1.828 1.52-2.715 1.588c-.885.073-1.651-.265-2.099-1.197l-.005-.005c-.281-.532-.161-1.365.073-2.251c.235-.891.573-1.796.62-2.531c.047-.953.099-1.781.255-2.423c.161-.62.412-1.063.86-1.307l.057-.032zm-14.422.067h.016q.109-.002.208.021c.5.073.943.443 1.365 1L10.281 25l.005.005c.323.708 1.005 1.416 1.583 2.183c.579.796 1.027 1.509.975 2.093v.011c-.079.989-.641 1.525-1.5 1.724c-.86.177-2.027 0-3.193-.62c-1.291-.713-2.828-.625-3.812-.803c-.489-.088-.812-.271-.964-.536c-.145-.265-.151-.803.167-1.641v-.004c.156-.448.043-1.005-.036-1.495c-.073-.532-.109-.944.057-1.251c.213-.448.531-.531.921-.713c.391-.177.855-.265 1.219-.625h.005v-.005c.339-.353.595-.796.891-1.115c.251-.271.505-.448.88-.448m9.548-12.099c-.579.265-1.261.713-1.985.713s-1.292-.353-1.703-.62c-.208-.181-.375-.359-.5-.448c-.219-.176-.193-.447-.099-.447c.145.02.172.181.265.271c.131.088.287.265.479.443c.391.265.912.624 1.557.624c.647 0 1.407-.359 1.865-.624c.26-.177.593-.443.864-.62c.208-.183.199-.36.369-.36c.172.021.048.177-.192.443c-.245.183-.62.448-.921.625zm-1.443-2.114v-.025c-.005-.027.015-.057.041-.068c.093-.057.239-.037.344.005c.083 0 .213.088.203.181c-.011.063-.115.089-.183.089c-.072 0-.125-.057-.187-.093c-.068-.021-.199-.011-.219-.089zm-.735 0c-.027.079-.152.068-.219.089c-.063.036-.115.093-.188.093c-.068 0-.177-.027-.183-.093c-.009-.089.115-.177.199-.177c.109-.043.244-.063.348-.005c.021.011.048.041.037.068v.025z"></path></symbol>
<symbol viewBox="0 0 24 24" id="material-symbols-android"><path fill="currentColor" d="M1 18q.225-2.675 1.638-4.925T6.4 9.5L4.55 6.3q-.15-.225-.075-.475T4.8 5.45q.2-.125.45-.05t.4.3L7.5 8.9Q9.65 8 12 8t4.5.9l1.85-3.2q.15-.225.4-.3t.45.05q.25.125.325.375t-.075.475L17.6 9.5q2.35 1.325 3.762 3.575T23 18zm6-2.75q.525 0 .888-.363T8.25 14t-.363-.888T7 12.75t-.888.363T5.75 14t.363.888t.887.362m10 0q.525 0 .888-.363T18.25 14t-.363-.888T17 12.75t-.888.363t-.362.887t.363.888t.887.362"></path></symbol>
<symbol viewBox="0 0 24 24" id="simple-icons-ios"><path fill="currentColor" d="M1.1 6.05c-.614 0-1.1.48-1.1 1.08a1.08 1.08 0 0 0 1.1 1.08c.62 0 1.11-.48 1.11-1.08S1.72 6.05 1.1 6.05m7.61.02c-3.36 0-5.46 2.29-5.46 5.93c0 3.67 2.1 5.95 5.46 5.95c3.34 0 5.45-2.28 5.45-5.95c0-3.64-2.11-5.93-5.45-5.93m10.84 0c-2.5 0-4.28 1.38-4.28 3.43c0 1.63 1.01 2.65 3.13 3.14l1.49.36c1.45.33 2.04.81 2.04 1.64c0 .96-.97 1.64-2.35 1.64c-1.41 0-2.47-.69-2.58-1.75h-2c.08 2.12 1.82 3.42 4.46 3.42c2.79 0 4.54-1.37 4.54-3.55c0-1.71-1-2.68-3.32-3.21l-1.33-.3c-1.41-.34-1.99-.79-1.99-1.55c0-.96.88-1.6 2.18-1.6c1.31 0 2.21.65 2.31 1.72h1.96c-.05-2.02-1.72-3.39-4.26-3.39M8.71 7.82c2.04 0 3.35 1.63 3.35 4.18c0 2.57-1.31 4.2-3.35 4.2c-2.06 0-3.36-1.63-3.36-4.2c0-2.55 1.3-4.18 3.36-4.18M.111 9.31v8.45H2.1V9.31z"></path></symbol>
<symbol viewBox="0 0 24 24" id="simple-icons-macos"><path fill="currentColor" d="M0 14.727h.941v-2.453c0-.484.318-.835.771-.835c.439 0 .71.276.71.722v2.566h.915V12.25c0-.48.31-.812.764-.812c.46 0 .718.28.718.77v2.518h.94v-2.748c0-.801-.517-1.334-1.307-1.334c-.578 0-1.054.31-1.247.805h-.023c-.147-.514-.552-.805-1.118-.805c-.545 0-.968.306-1.142.771H.903v-.695H0v4.006zm7.82-.646c-.408 0-.68-.208-.68-.537c0-.318.26-.522.714-.552l.926-.057v.307c0 .483-.427.839-.96.839m-.284.71c.514 0 1.017-.268 1.248-.703h.018v.639h.908v-2.76c0-.804-.647-1.33-1.64-1.33c-1.021 0-1.66.537-1.701 1.285h.873c.06-.332.344-.548.79-.548c.464 0 .748.242.748.662v.287l-1.058.06c-.976.061-1.524.488-1.524 1.199c0 .721.564 1.209 1.338 1.209m6.305-2.642c-.065-.843-.719-1.512-1.777-1.512c-1.164 0-1.92.805-1.92 2.087c0 1.3.756 2.082 1.928 2.082c1.005 0 1.697-.59 1.772-1.485h-.888c-.087.453-.397.725-.873.725c-.597 0-.982-.483-.982-1.322c0-.824.381-1.323.975-1.323c.502 0 .8.321.876.748zm2.906-2.967c-1.591 0-2.589 1.085-2.589 2.82s.998 2.816 2.59 2.816c1.586 0 2.584-1.081 2.584-2.816s-.997-2.82-2.585-2.82m0 .832c.971 0 1.591.77 1.591 1.988c0 1.213-.62 1.984-1.59 1.984c-.976 0-1.592-.77-1.592-1.984c0-1.217.616-1.988 1.591-1.988m2.982 3.178c.042 1.006.866 1.626 2.12 1.626c1.32 0 2.151-.65 2.151-1.686c0-.813-.469-1.27-1.576-1.523l-.627-.144c-.67-.158-.945-.37-.945-.733c0-.453.415-.756 1.032-.756c.623 0 1.05.306 1.096.817h.93c-.023-.96-.817-1.61-2.019-1.61c-1.187 0-2.03.653-2.03 1.62c0 .78.477 1.263 1.482 1.494l.707.166c.688.163.967.39.967.782c0 .454-.457.779-1.115.779c-.665 0-1.167-.329-1.228-.832z"></path></symbol>

</defs>
</svg>