<svg width="458" height="255" fill="none" xmlns="http://www.w3.org/2000/svg"><path d="M91.983 250c-2.567 0-4.666-.817-6.3-2.45-1.4-1.633-2.1-3.617-2.1-5.95V60.3l-53.2 40.95c-2.1 1.4-4.2 1.983-6.3 1.75-2.1-.467-3.966-1.75-5.6-3.85l-14.7-18.9c-1.4-2.1-1.983-4.317-1.75-6.65.467-2.333 1.75-4.2 3.85-5.6l78.4-60.55c1.4-1.167 2.8-1.867 4.2-2.1 1.4-.233 2.917-.35 4.55-.35h30.8c2.334 0 4.317.817 5.95 2.45 1.633 1.633 2.45 3.617 2.45 5.95v228.2c0 2.333-.817 4.317-2.45 5.95-1.633 1.633-3.616 2.45-5.95 2.45h-31.85Zm94.462 0c-2.333 0-4.317-.817-5.95-2.45-1.633-1.633-2.45-3.617-2.45-5.95v-34.65c0-2.567.817-4.667 2.45-6.3 1.633-1.633 3.617-2.45 5.95-2.45h35c2.333 0 4.317.817 5.95 2.45 1.633 1.633 2.45 3.733 2.45 6.3v34.65c0 2.333-.817 4.317-2.45 5.95-1.633 1.633-3.617 2.45-5.95 2.45h-35Zm175.292 3.5c-16.566 0-30.683-2.45-42.35-7.35-11.666-4.9-21.233-11.667-28.7-20.3-7.466-8.633-13.066-18.55-16.8-29.75-3.733-11.433-5.95-23.567-6.65-36.4-.233-6.3-.466-13.183-.7-20.65v-23.1c.234-7.7.467-14.817.7-21.35.467-12.833 2.684-24.85 6.65-36.05 3.967-11.433 9.684-21.35 17.15-29.75 7.7-8.4 17.384-15.05 29.05-19.95 11.667-4.9 25.55-7.35 41.65-7.35 16.334 0 30.334 2.45 42 7.35 11.667 4.9 21.234 11.55 28.7 19.95 7.7 8.4 13.417 18.317 17.15 29.75 3.967 11.2 6.184 23.217 6.65 36.05.467 6.533.7 13.65.7 21.35v23.1c0 7.467-.233 14.35-.7 20.65-.466 12.833-2.566 24.967-6.3 36.4-3.733 11.2-9.333 21.117-16.8 29.75-7.466 8.633-17.15 15.4-29.05 20.3-11.666 4.9-25.783 7.35-42.35 7.35Zm0-40.25c15.167 0 26.25-4.9 33.25-14.7 7.234-10.033 10.967-23.567 11.2-40.6.467-6.767.7-13.533.7-20.3v-21c0-7-.233-13.65-.7-19.95-.233-16.567-3.966-29.867-11.2-39.9-7-10.267-18.083-15.4-33.25-15.4-14.933 0-26.016 5.133-33.25 15.4-7 10.033-10.733 23.333-11.2 39.9 0 6.3-.116 12.95-.35 19.95v21c.234 6.767.35 13.533.35 20.3.467 17.033 4.317 30.567 11.55 40.6 7.234 9.8 18.2 14.7 32.9 14.7Z" fill="#F7F7F7"/><path fill-rule="evenodd" clip-rule="evenodd" d="m84.949 248.23-.025-.029c-1.569-1.831-2.34-4.051-2.34-6.601V62.332l-51.618 39.731-.028.019c-2.256 1.504-4.588 2.176-6.965 1.912l-.054-.006-.053-.012c-2.377-.528-4.43-1.973-6.172-4.212L2.97 80.835l-.02-.03C1.433 78.528.78 76.082 1.038 73.5l.005-.048.01-.048c.52-2.6 1.957-4.68 4.246-6.216L83.658 6.67c1.493-1.242 3.048-2.038 4.66-2.306C89.782 4.12 91.354 4 93.034 4h30.8c2.596 0 4.834.92 6.657 2.743 1.823 1.823 2.743 4.062 2.743 6.657v228.2c0 2.596-.92 4.834-2.743 6.657-1.823 1.823-4.061 2.743-6.657 2.743h-31.85c-2.8 0-5.164-.9-7.007-2.743l-.027-.027ZM84.283 7.45 5.883 68c-2.1 1.4-3.383 3.267-3.85 5.6-.233 2.333.35 4.55 1.75 6.65l14.7 18.9c1.633 2.1 3.5 3.383 5.6 3.85 2.1.233 4.2-.35 6.3-1.75l53.2-40.95v181.3c0 2.333.7 4.317 2.1 5.95 1.633 1.633 3.733 2.45 6.3 2.45h31.85c2.334 0 4.317-.817 5.95-2.45 1.634-1.633 2.45-3.617 2.45-5.95V13.4c0-2.333-.816-4.317-2.45-5.95-1.633-1.633-3.616-2.45-5.95-2.45h-30.8c-1.633 0-3.15.117-4.55.35-1.4.233-2.8.933-4.2 2.1ZM272.94 196.416l-.002-.006c-3.762-11.521-5.994-23.741-6.698-36.656l-.001-.008v-.009c-.233-6.302-.467-13.188-.7-20.656l-.001-.015v-23.131l.001-.015c.233-7.702.467-14.82.7-21.356.47-12.925 2.703-25.042 6.705-36.344 4.007-11.547 9.787-21.58 17.347-30.084l.005-.006.005-.006c7.808-8.517 17.615-15.246 29.4-20.196C331.518 2.965 345.539.5 361.737.5c16.43 0 30.568 2.464 42.388 7.428 11.784 4.95 21.478 11.68 29.055 20.202 7.796 8.507 13.58 18.544 17.354 30.097 3.999 11.295 6.231 23.403 6.702 36.319.468 6.556.701 13.691.701 21.404v23.1c0 7.48-.233 14.382-.701 20.705-.471 12.913-2.586 25.133-6.348 36.655l-.002.006c-3.773 11.32-9.437 21.352-16.992 30.088-7.581 8.765-17.398 15.617-29.422 20.569-11.821 4.964-26.075 7.427-42.735 7.427s-30.916-2.463-42.737-7.428c-11.793-4.953-21.491-11.806-29.069-20.568-7.555-8.736-13.219-18.768-16.992-30.088Zm131.148 49.734c11.9-4.9 21.584-11.667 29.05-20.3 7.467-8.633 13.067-18.55 16.8-29.75 3.734-11.433 5.834-23.567 6.3-36.4.467-6.3.7-13.183.7-20.65v-23.1c0-7.7-.233-14.817-.7-21.35-.466-12.833-2.683-24.85-6.65-36.05-3.733-11.433-9.45-21.35-17.15-29.75-7.466-8.4-17.033-15.05-28.7-19.95-11.666-4.9-25.666-7.35-42-7.35-16.1 0-29.983 2.45-41.65 7.35-11.666 4.9-21.35 11.55-29.05 19.95-7.466 8.4-13.183 18.317-17.15 29.75-3.966 11.2-6.183 23.217-6.65 36.05-.233 6.533-.466 13.65-.7 21.35v23.1c.234 7.467.467 14.35.7 20.65.7 12.833 2.917 24.967 6.65 36.4 3.734 11.2 9.334 21.117 16.8 29.75 7.467 8.633 17.034 15.4 28.7 20.3 11.667 4.9 25.784 7.35 42.35 7.35 16.567 0 30.684-2.45 42.35-7.35ZM186.445 251c-2.596 0-4.834-.92-6.657-2.743-1.823-1.823-2.743-4.061-2.743-6.657v-34.65c0-2.8.9-5.165 2.743-7.007 1.823-1.823 4.061-2.743 6.657-2.743h35c2.595 0 4.834.92 6.657 2.743 1.843 1.842 2.743 4.207 2.743 7.007v34.65c0 2.596-.92 4.834-2.743 6.657-1.823 1.823-4.062 2.743-6.657 2.743h-35Zm0-1c-2.333 0-4.317-.817-5.95-2.45-1.633-1.633-2.45-3.617-2.45-5.95v-34.65c0-2.567.817-4.667 2.45-6.3 1.633-1.633 3.617-2.45 5.95-2.45h35c2.333 0 4.317.817 5.95 2.45 1.633 1.633 2.45 3.733 2.45 6.3v34.65c0 2.333-.817 4.317-2.45 5.95-1.633 1.633-3.617 2.45-5.95 2.45h-35Z" fill="#F7F7F7"/><path fill-rule="evenodd" clip-rule="evenodd" d="M317.287 96.7c0 6.3-.116 12.95-.35 19.95v22.417c.234 7 .35 13.65.35 19.95.467 16.567 4.2 29.867 11.2 39.9 7.234 10.267 18.317 15.4 33.25 15.4 15.167 0 26.25-5.133 33.25-15.4 7.234-10.033 10.967-23.333 11.2-39.9.467-6.3.7-12.95.7-19.95V116.65c0-7-.233-13.65-.7-19.95-.233-16.567-3.966-29.867-11.2-39.9-7-10.267-18.083-15.4-33.25-15.4-14.933 0-26.016 5.133-33.25 15.4-7 10.033-10.733 23.333-11.2 39.9Zm88.6 19.95c0-6.978-.232-13.603-.697-19.876l-.002-.03v-.03c-.232-16.43-3.933-29.51-11.012-39.33l-.007-.01-.008-.01C387.39 47.431 376.656 42.4 361.737 42.4c-14.676 0-25.421 5.027-32.43 14.973-6.853 9.823-10.555 22.909-11.02 39.341 0 6.303-.116 12.954-.35 19.953v22.383c.234 6.999.35 13.65.35 19.953.465 16.432 4.167 29.518 11.02 39.341 7.009 9.946 17.754 14.973 32.43 14.973 14.919 0 25.653-5.032 32.424-14.963l.008-.011.007-.011c7.079-9.819 10.78-22.899 11.012-39.329v-.03l.002-.03c.465-6.273.697-12.898.697-19.876V116.65Z" fill="#F7F7F7"/></svg>