<svg width="87" height="100" viewBox="0 0 87 100" fill="none" xmlns="http://www.w3.org/2000/svg">
<g clip-path="url(#clip0_1122_2491)">
<rect width="50.0001" height="50.0001" transform="matrix(0.866025 0.5 -0.866025 0.5 43.3008 0)" fill="#A4CEFF"/>
<rect x="-1.78814e-07" y="3" width="44.0001" height="44.0001" transform="matrix(0.866025 0.5 -0.866025 0.5 45.8989 1.5)" stroke="white" stroke-opacity="0.25" stroke-width="6"/>
<rect width="50.0001" height="9.70736" transform="matrix(0.866025 0.5 -0.866025 0.5 25.8545 10.0732)" fill="white"/>
<rect x="-1.44651e-07" y="2.42684" width="45.1464" height="4.85368" transform="matrix(0.866025 0.5 -0.866025 0.5 27.9562 11.2867)" stroke="white" stroke-opacity="0.25" stroke-width="4.85368"/>
<rect width="50.0001" height="50.0001" transform="matrix(0.866025 -0.5 0 1 43.3008 49.9996)" fill="#679BFF"/>
<rect x="2.59808" y="1.5" width="44.0001" height="44.0001" transform="matrix(0.866025 -0.5 0 1 43.6489 51.2987)" stroke="white" stroke-opacity="0.25" stroke-width="6"/>
<path d="M60.751 39.9252L69.1527 35.0745V58.197L60.751 63.0478V39.9252Z" fill="#D7EEFF"/>
<rect width="50.0001" height="50.0001" transform="matrix(0.866025 0.5 0 1 0.00195312 24.9999)" fill="#66ACFF"/>
<rect x="2.59808" y="4.5" width="44.0001" height="44.0001" transform="matrix(0.866025 0.5 0 1 0.350029 23.7008)" stroke="white" stroke-opacity="0.25" stroke-width="6"/>
<path d="M25.6605 59.7011C25.6605 61.5344 24.3734 62.2774 22.7858 61.3608C21.1982 60.4442 19.9111 58.215 19.9111 56.3818C19.9111 54.5485 21.1982 53.8054 22.7858 54.7221C24.3734 55.6387 25.6605 57.8679 25.6605 59.7011Z" fill="#D7EEFF"/>
<ellipse rx="3.31938" ry="3.31938" transform="matrix(-0.866025 -0.5 -7.57103e-08 -1 17.9505 64.7556)" fill="#D7EEFF"/>
<path fill-rule="evenodd" clip-rule="evenodd" d="M28.7432 72.1256C27.5832 72.3215 26.2977 72.1804 24.9564 71.7185C25.2309 70.9628 25.3801 70.0671 25.3801 69.045C25.3801 68.6743 25.3605 68.2975 25.3224 67.9167C25.8995 68.0178 26.4536 68.026 26.972 67.9384C28.2195 67.7277 29.2076 66.9711 29.8177 65.7595C30.4278 64.5479 30.6338 62.933 30.4111 61.1086C30.1883 59.2843 29.5463 57.3282 28.5621 55.4754C27.5779 53.6226 26.2934 51.9519 24.863 50.664C23.4325 49.3762 21.917 48.526 20.4984 48.2155C19.0799 47.9051 17.8187 48.1476 16.8664 48.914C16.7444 49.0122 16.6281 49.1184 16.5178 49.2324C15.0482 48.5725 13.6249 48.231 12.3086 48.2139C12.737 46.8775 13.4326 45.8006 14.3622 45.0525C15.7174 43.9618 17.5122 43.6166 19.5309 44.0584C21.5496 44.5002 23.7063 45.7101 25.7419 47.5429C27.7776 49.3756 29.6055 51.7531 31.0061 54.3898C32.4067 57.0265 33.3203 59.8101 33.6373 62.4063C33.9543 65.0025 33.661 67.3007 32.7929 69.0248C31.9247 70.749 30.5185 71.8257 28.7432 72.1256ZM12.4393 50.6008L15.1301 52.5359C15.1941 51.9707 15.311 51.448 15.4774 50.9746C14.4102 50.6413 13.3861 50.5155 12.4393 50.6008Z" fill="#D7EEFF"/>
<path fill-rule="evenodd" clip-rule="evenodd" d="M11.9742 50.6608C13.143 50.4633 14.439 50.6081 15.7914 51.0784C15.4856 51.8605 15.3187 52.8003 15.3187 53.8815C15.3187 54.2049 15.3337 54.5328 15.3628 54.8641C14.7973 54.7683 14.2542 54.762 13.7455 54.8479C12.498 55.0587 11.5099 55.8153 10.8998 57.0268C10.2897 58.2384 10.0837 59.8534 10.3064 61.6777C10.5291 63.502 11.1712 65.4581 12.1554 67.3109C13.1396 69.1637 14.4241 70.8345 15.8545 72.1223C17.2849 73.4102 18.8005 74.2604 20.219 74.5708C21.6376 74.8813 22.8988 74.6387 23.8511 73.8723C23.9737 73.7736 24.0905 73.6668 24.2014 73.5522C25.6722 74.2099 27.096 74.5485 28.4122 74.5619C27.9841 75.9032 27.2873 76.9838 26.3553 77.7339C25.0001 78.8245 23.2053 79.1697 21.1866 78.7279C19.1679 78.2862 17.0112 77.0762 14.9755 75.2435C12.9399 73.4108 11.112 71.0332 9.71139 68.3966C8.3108 65.7599 7.39713 62.9762 7.08016 60.3801C6.7632 57.7839 7.05642 55.4857 7.9246 53.7615C8.79278 52.0374 10.199 50.9607 11.9742 50.6608Z" fill="#D7EEFF"/>
</g>
<defs>
<clipPath id="clip0_1122_2491">
<rect width="87" height="100" fill="white"/>
</clipPath>
</defs>
</svg>
