<svg width="583" height="130" viewBox="0 0 583 130" fill="none" xmlns="http://www.w3.org/2000/svg">
<path d="M170.144 101.579C169.539 101.579 168.995 101.368 168.511 100.945C168.087 100.462 167.876 99.9182 167.876 99.3142V52.3789H151.729C151.124 52.3789 150.58 52.1675 150.096 51.7446C149.673 51.2614 149.461 50.7177 149.461 50.1137V40.4185C149.461 39.7541 149.673 39.2104 150.096 38.7876C150.58 38.3647 151.124 38.1533 151.729 38.1533H200.532C201.197 38.1533 201.742 38.3647 202.165 38.7876C202.588 39.2104 202.8 39.7541 202.8 40.4185V50.1137C202.8 50.7781 202.588 51.3218 202.165 51.7446C201.742 52.1675 201.197 52.3789 200.532 52.3789H184.385V99.3142C184.385 99.9182 184.174 100.462 183.75 100.945C183.327 101.368 182.783 101.579 182.118 101.579H170.144Z" fill="#F7F7F7"/>
<path d="M200.949 101.579C200.465 101.579 200.012 101.398 199.588 101.036C199.225 100.613 199.044 100.16 199.044 99.6766C199.044 99.3142 199.074 99.0423 199.135 98.8611L220.452 40.6904C220.633 39.9655 221.027 39.3614 221.631 38.8782C222.236 38.3949 223.022 38.1533 223.99 38.1533H237.415C238.383 38.1533 239.169 38.3949 239.774 38.8782C240.379 39.3614 240.772 39.9655 240.953 40.6904L262.18 98.8611L262.361 99.6766C262.361 100.16 262.149 100.613 261.726 101.036C261.363 101.398 260.91 101.579 260.365 101.579H249.208C247.756 101.579 246.789 100.945 246.305 99.6766L242.767 90.4345H218.547L215.1 99.6766C214.616 100.945 213.618 101.579 212.107 101.579H200.949ZM239.139 77.3869L230.703 53.4662L222.266 77.3869H239.139Z" fill="#F7F7F7"/>
<path d="M294.763 102.485C286.236 102.485 279.554 100.401 274.716 96.2335C269.938 92.0655 267.549 85.7833 267.549 77.3869V40.4185C267.549 39.7541 267.761 39.2104 268.184 38.7876C268.668 38.3647 269.213 38.1533 269.817 38.1533H281.519C282.184 38.1533 282.729 38.3647 283.152 38.7876C283.636 39.2104 283.878 39.7541 283.878 40.4185V77.2963C283.878 81.2226 284.785 84.1825 286.599 86.1759C288.474 88.1089 291.165 89.0754 294.672 89.0754C298.12 89.0754 300.78 88.0787 302.655 86.0853C304.53 84.0919 305.467 81.1622 305.467 77.2963V40.4185C305.467 39.7541 305.679 39.2104 306.102 38.7876C306.586 38.3647 307.13 38.1533 307.735 38.1533H319.528C320.193 38.1533 320.737 38.3647 321.16 38.7876C321.584 39.2104 321.795 39.7541 321.795 40.4185V77.3869C321.795 85.7833 319.376 92.0655 314.538 96.2335C309.761 100.401 303.169 102.485 294.763 102.485Z" fill="#F7F7F7"/>
<path d="M336.093 101.579C335.488 101.579 334.944 101.368 334.46 100.945C334.036 100.462 333.825 99.9182 333.825 99.3142V40.4185C333.825 39.7541 334.036 39.2104 334.46 38.7876C334.944 38.3647 335.488 38.1533 336.093 38.1533H360.766C368.689 38.1533 374.857 39.9655 379.272 43.5898C383.747 47.1538 385.984 52.2279 385.984 58.8121C385.984 63.0405 384.986 66.6346 382.991 69.5945C380.995 72.5544 378.244 74.8196 374.736 76.3902L387.164 98.6799C387.345 99.0423 387.436 99.3746 387.436 99.6766C387.436 100.16 387.224 100.613 386.801 101.036C386.438 101.398 386.015 101.579 385.531 101.579H373.466C371.712 101.579 370.473 100.764 369.747 99.133L359.406 79.199H350.153V99.3142C350.153 99.9786 349.911 100.522 349.427 100.945C349.004 101.368 348.46 101.579 347.794 101.579H336.093ZM360.585 66.3326C363.367 66.3326 365.483 65.6682 366.935 64.3392C368.386 62.9499 369.112 61.0471 369.112 58.6309C369.112 56.2147 368.386 54.3119 366.935 52.9225C365.544 51.4728 363.427 50.7479 360.585 50.7479H350.153V66.3326H360.585Z" fill="#F7F7F7"/>
<path d="M398.812 101.579C398.207 101.579 397.663 101.368 397.179 100.945C396.755 100.462 396.544 99.9182 396.544 99.3142V40.4185C396.544 39.7541 396.755 39.2104 397.179 38.7876C397.663 38.3647 398.207 38.1533 398.812 38.1533H410.967C411.632 38.1533 412.177 38.3647 412.6 38.7876C413.084 39.2104 413.326 39.7541 413.326 40.4185V99.3142C413.326 99.9786 413.084 100.522 412.6 100.945C412.177 101.368 411.632 101.579 410.967 101.579H398.812Z" fill="#F7F7F7"/>
<path d="M79.6613 47.6589C79.6613 54.413 74.1798 59.8883 67.4179 59.8883C60.6561 59.8883 55.1746 54.413 55.1746 47.6589C55.1746 40.9048 60.6561 35.4295 67.4179 35.4295C74.1798 35.4295 79.6613 40.9048 79.6613 47.6589Z" fill="#FFC131"/>
<ellipse cx="46.8267" cy="82.6794" rx="12.2434" ry="12.2294" transform="rotate(180 46.8267 82.6794)" fill="#24C8DB"/>
<path fill-rule="evenodd" clip-rule="evenodd" d="M92.7927 86.8753C87.8519 90.0649 82.3773 92.279 76.6642 93.4304C77.8337 90.0624 78.469 86.445 78.469 82.6794C78.469 81.3135 78.3854 79.9672 78.2231 78.6452C80.6811 77.79 83.0409 76.6418 85.2489 75.2164C90.562 71.7865 94.7706 66.8971 97.3689 61.1357C99.9673 55.3743 100.845 48.9861 99.8962 42.7386C98.9476 36.4911 96.2131 30.6501 92.0213 25.9174C87.8296 21.1847 82.3588 17.7617 76.2665 16.0596C70.1741 14.3575 63.7193 14.4487 57.6776 16.3224C51.6359 18.1961 46.2644 21.7724 42.2084 26.6217C41.6889 27.2429 41.1938 27.8815 40.7238 28.5361C34.4648 29.2307 28.4027 31.0001 22.7966 33.7372C24.6214 27.9021 27.584 22.4547 31.5429 17.7215C37.3149 10.8205 44.9589 5.73111 53.5567 3.06475C62.1545 0.398393 71.3401 0.26851 80.01 2.69071C88.6799 5.11291 96.4652 9.98416 102.43 16.7191C108.396 23.4541 112.287 31.7663 113.637 40.657C114.987 49.5476 113.738 58.6386 110.04 66.8374C106.343 75.0362 100.354 81.9942 92.7927 86.8753ZM23.3533 42.2529L34.8134 43.6589C35.0862 41.4402 35.5839 39.2661 36.2927 37.1679C31.7474 38.2098 27.3856 39.9249 23.3533 42.2529Z" fill="#FFC131"/>
<path fill-rule="evenodd" clip-rule="evenodd" d="M21.3728 43.463C26.3507 40.2494 31.8705 38.0261 37.6301 36.8821C36.328 40.414 35.6171 44.2314 35.6171 48.2148C35.6171 49.4062 35.6807 50.5828 35.8047 51.7414C33.3962 52.5913 31.0833 53.7231 28.9166 55.1219C23.6035 58.5518 19.3949 63.4412 16.7966 69.2026C14.1982 74.9639 13.3206 81.3522 14.2693 87.5997C15.2179 93.8472 17.9524 99.6882 22.1442 104.421C26.3359 109.154 31.8066 112.577 37.899 114.279C43.9914 115.981 50.4462 115.89 56.4879 114.016C62.5296 112.142 67.9011 108.566 71.9571 103.717C72.4792 103.092 72.9766 102.45 73.4488 101.792C79.713 101.087 85.7772 99.3056 91.3832 96.5552C89.5597 102.408 86.5919 107.871 82.6226 112.617C76.8506 119.518 69.2065 124.607 60.6088 127.274C52.011 129.94 42.8253 130.07 34.1555 127.648C25.4856 125.225 17.7003 120.354 11.7351 113.619C5.76993 106.884 1.87856 98.572 0.528593 89.6813C-0.821375 80.7906 0.427483 71.6997 4.12511 63.5009C7.82274 55.302 13.8118 48.3441 21.3728 43.463ZM90.7466 88.0773L90.7465 88.0773C90.6472 88.1347 90.5477 88.1917 90.448 88.2484C90.5477 88.1917 90.6473 88.1347 90.7466 88.0773ZM78.8165 92.9236C78.5049 93.0024 78.1926 93.078 77.8796 93.1503C77.8796 93.1504 77.8795 93.1504 77.8795 93.1504C78.1927 93.078 78.5051 93.0023 78.8165 92.9236Z" fill="#24C8DB"/>
<path d="M466.146 104C465.493 104 464.905 103.771 464.382 103.314C463.925 102.857 463.696 102.269 463.696 101.55V52.844L449.584 63.722C448.996 64.1793 448.375 64.3427 447.722 64.212C447.134 64.0813 446.611 63.722 446.154 63.134L441.254 56.764C440.862 56.176 440.699 55.5553 440.764 54.902C440.895 54.2487 441.254 53.726 441.842 53.334L464.186 36.086C464.578 35.8247 464.937 35.6613 465.264 35.596C465.656 35.4653 466.081 35.4 466.538 35.4H476.926C477.579 35.4 478.135 35.6287 478.592 36.086C479.049 36.5433 479.278 37.1313 479.278 37.85V101.55C479.278 102.269 479.049 102.857 478.592 103.314C478.135 103.771 477.579 104 476.926 104H466.146ZM497.851 104C497.132 104 496.544 103.771 496.087 103.314C495.629 102.857 495.401 102.269 495.401 101.55V90.574C495.401 89.8553 495.629 89.2673 496.087 88.81C496.544 88.3527 497.132 88.124 497.851 88.124H508.827C509.545 88.124 510.133 88.3527 510.591 88.81C511.048 89.2673 511.277 89.8553 511.277 90.574V101.55C511.277 102.269 511.048 102.857 510.591 103.314C510.133 103.771 509.545 104 508.827 104H497.851ZM527.483 104C526.764 104 526.176 103.771 525.719 103.314C525.261 102.857 525.033 102.269 525.033 101.55V95.67C525.033 95.1473 525.163 94.4613 525.425 93.612C525.751 92.6973 526.437 91.8153 527.483 90.966L540.419 78.128C545.188 74.4693 549.043 71.366 551.983 68.818C554.988 66.27 557.209 63.9507 558.647 61.86C560.084 59.7693 560.803 57.744 560.803 55.784C560.803 53.236 560.084 51.1453 558.647 49.512C557.275 47.8133 555.021 46.964 551.885 46.964C549.794 46.964 548.03 47.4213 546.593 48.336C545.221 49.1853 544.143 50.3287 543.359 51.766C542.575 53.2033 542.052 54.7713 541.791 56.47C541.595 57.3193 541.17 57.9073 540.517 58.234C539.929 58.5607 539.308 58.724 538.655 58.724H528.267C527.613 58.724 527.091 58.528 526.699 58.136C526.307 57.6787 526.111 57.1887 526.111 56.666C526.176 53.6607 526.797 50.8187 527.973 48.14C529.214 45.4613 530.945 43.0767 533.167 40.986C535.388 38.8953 538.067 37.262 541.203 36.086C544.339 34.8447 547.899 34.224 551.885 34.224C557.373 34.224 561.979 35.1387 565.703 36.968C569.427 38.732 572.236 41.182 574.131 44.318C576.025 47.454 576.973 51.08 576.973 55.196C576.973 58.332 576.319 61.2393 575.013 63.918C573.771 66.5967 571.942 69.1773 569.525 71.66C567.107 74.0773 564.233 76.5927 560.901 79.206L549.337 90.77H575.993C576.711 90.77 577.299 90.9987 577.757 91.456C578.214 91.9133 578.443 92.5013 578.443 93.22V101.55C578.443 102.269 578.214 102.857 577.757 103.314C577.299 103.771 576.711 104 575.993 104H527.483Z" fill="#FFC131"/>
</svg>
<svg width="562" height="129" viewBox="0 0 562 129" fill="none" xmlns="http://www.w3.org/2000/svg">
<path d="M170.144 100.615C169.539 100.615 168.995 100.403 168.511 99.9803C168.087 99.497 167.876 98.9534 167.876 98.3493V51.414H151.729C151.124 51.414 150.58 51.2026 150.096 50.7798C149.673 50.2965 149.461 49.7529 149.461 49.1488V39.4537C149.461 38.7892 149.673 38.2456 150.096 37.8227C150.58 37.3999 151.124 37.1885 151.729 37.1885H200.532C201.197 37.1885 201.742 37.3999 202.165 37.8227C202.588 38.2456 202.8 38.7892 202.8 39.4537V49.1488C202.8 49.8133 202.588 50.3569 202.165 50.7798C201.742 51.2026 201.197 51.414 200.532 51.414H184.385V98.3493C184.385 98.9534 184.174 99.497 183.75 99.9803C183.327 100.403 182.783 100.615 182.118 100.615H170.144Z" fill="#F7F7F7"/>
<path d="M200.949 100.615C200.465 100.615 200.012 100.433 199.588 100.071C199.225 99.6481 199.044 99.195 199.044 98.7118C199.044 98.3493 199.074 98.0775 199.135 97.8963L220.452 39.7255C220.633 39.0007 221.027 38.3966 221.631 37.9133C222.236 37.4301 223.022 37.1885 223.99 37.1885H237.415C238.383 37.1885 239.169 37.4301 239.774 37.9133C240.379 38.3966 240.772 39.0007 240.953 39.7255L262.18 97.8963L262.361 98.7118C262.361 99.195 262.149 99.6481 261.726 100.071C261.363 100.433 260.91 100.615 260.365 100.615H249.208C247.756 100.615 246.789 99.9803 246.305 98.7118L242.767 89.4697H218.547L215.1 98.7118C214.616 99.9803 213.618 100.615 212.107 100.615H200.949ZM239.139 76.422L230.703 52.5013L222.266 76.422H239.139Z" fill="#F7F7F7"/>
<path d="M294.763 101.521C286.236 101.521 279.554 99.4366 274.716 95.2686C269.938 91.1006 267.549 84.8184 267.549 76.422V39.4537C267.549 38.7892 267.761 38.2456 268.184 37.8227C268.668 37.3999 269.213 37.1885 269.817 37.1885H281.519C282.184 37.1885 282.729 37.3999 283.152 37.8227C283.636 38.2456 283.878 38.7892 283.878 39.4537V76.3314C283.878 80.2578 284.785 83.2177 286.599 85.2111C288.474 87.1441 291.165 88.1105 294.672 88.1105C298.12 88.1105 300.78 87.1139 302.655 85.1205C304.53 83.1271 305.467 80.1974 305.467 76.3314V39.4537C305.467 38.7892 305.679 38.2456 306.102 37.8227C306.586 37.3999 307.13 37.1885 307.735 37.1885H319.528C320.193 37.1885 320.737 37.3999 321.16 37.8227C321.584 38.2456 321.795 38.7892 321.795 39.4537V76.422C321.795 84.8184 319.376 91.1006 314.538 95.2686C309.761 99.4366 303.169 101.521 294.763 101.521Z" fill="#F7F7F7"/>
<path d="M336.093 100.615C335.488 100.615 334.944 100.403 334.46 99.9803C334.036 99.497 333.825 98.9534 333.825 98.3493V39.4537C333.825 38.7892 334.036 38.2456 334.46 37.8227C334.944 37.3999 335.488 37.1885 336.093 37.1885H360.766C368.689 37.1885 374.857 39.0006 379.272 42.625C383.747 46.1889 385.984 51.263 385.984 57.8473C385.984 62.0757 384.986 65.6698 382.991 68.6297C380.995 71.5896 378.244 73.8548 374.736 75.4253L387.164 97.7151C387.345 98.0775 387.436 98.4097 387.436 98.7118C387.436 99.195 387.224 99.6481 386.801 100.071C386.438 100.433 386.015 100.615 385.531 100.615H373.466C371.712 100.615 370.473 99.7991 369.747 98.1681L359.406 78.2342H350.153V98.3493C350.153 99.0138 349.911 99.5574 349.427 99.9803C349.004 100.403 348.46 100.615 347.794 100.615H336.093ZM360.585 65.3678C363.367 65.3678 365.483 64.7033 366.935 63.3744C368.386 61.985 369.112 60.0823 369.112 57.666C369.112 55.2498 368.386 53.347 366.935 51.9577C365.544 50.508 363.427 49.7831 360.585 49.7831H350.153V65.3678H360.585Z" fill="#F7F7F7"/>
<path d="M398.812 100.615C398.207 100.615 397.663 100.403 397.179 99.9803C396.755 99.497 396.544 98.9534 396.544 98.3493V39.4537C396.544 38.7892 396.755 38.2456 397.179 37.8227C397.663 37.3999 398.207 37.1885 398.812 37.1885H410.967C411.632 37.1885 412.177 37.3999 412.6 37.8227C413.084 38.2456 413.326 38.7892 413.326 39.4537V98.3493C413.326 99.0138 413.084 99.5574 412.6 99.9803C412.177 100.403 411.632 100.615 410.967 100.615H398.812Z" fill="#F7F7F7"/>
<path d="M79.6613 46.694C79.6613 53.4481 74.1798 58.9234 67.4179 58.9234C60.6561 58.9234 55.1746 53.4481 55.1746 46.694C55.1746 39.9399 60.6561 34.4646 67.4179 34.4646C74.1798 34.4646 79.6613 39.9399 79.6613 46.694Z" fill="#FFC131"/>
<ellipse cx="46.8267" cy="81.7145" rx="12.2434" ry="12.2294" transform="rotate(180 46.8267 81.7145)" fill="#24C8DB"/>
<path fill-rule="evenodd" clip-rule="evenodd" d="M92.7927 85.9105C87.8519 89.1001 82.3773 91.3141 76.6642 92.4656C77.8337 89.0976 78.469 85.4802 78.469 81.7146C78.469 80.3487 78.3854 79.0023 78.2231 77.6803C80.6811 76.8252 83.0409 75.677 85.2489 74.2516C90.562 70.8216 94.7706 65.9322 97.3689 60.1709C99.9673 54.4095 100.845 48.0213 99.8962 41.7738C98.9476 35.5263 96.2131 29.6852 92.0213 24.9525C87.8296 20.2199 82.3588 16.7968 76.2665 15.0947C70.1741 13.3926 63.7193 13.4839 57.6776 15.3576C51.6359 17.2312 46.2644 20.8076 42.2084 25.6569C41.6889 26.278 41.1938 26.9167 40.7238 27.5713C34.4648 28.2659 28.4027 30.0353 22.7966 32.7723C24.6214 26.9372 27.584 21.4899 31.5429 16.7566C37.3149 9.85568 44.9589 4.76627 53.5567 2.09991C62.1545 -0.566451 71.3401 -0.696333 80.01 1.72587C88.6799 4.14807 96.4652 9.01931 102.43 15.7543C108.396 22.4893 112.287 30.8015 113.637 39.6921C114.987 48.5828 113.738 57.6737 110.04 65.8725C106.343 74.0714 100.354 81.0294 92.7927 85.9105ZM23.3533 41.2881L34.8134 42.694C35.0862 40.4754 35.5839 38.3012 36.2927 36.2031C31.7474 37.2449 27.3856 38.9601 23.3533 41.2881Z" fill="#FFC131"/>
<path fill-rule="evenodd" clip-rule="evenodd" d="M21.3728 42.4981C26.3507 39.2846 31.8705 37.0613 37.6301 35.9172C36.328 39.4491 35.6171 43.2666 35.6171 47.2499C35.6171 48.4414 35.6807 49.618 35.8047 50.7765C33.3962 51.6265 31.0833 52.7582 28.9166 54.157C23.6035 57.587 19.3949 62.4764 16.7966 68.2377C14.1982 73.9991 13.3206 80.3873 14.2693 86.6348C15.2179 92.8823 17.9524 98.7234 22.1442 103.456C26.3359 108.189 31.8066 111.612 37.899 113.314C43.9914 115.016 50.4462 114.925 56.4879 113.051C62.5296 111.177 67.9011 107.601 71.9571 102.752C72.4792 102.127 72.9766 101.486 73.4488 100.827C79.713 100.122 85.7772 98.3408 91.3832 95.5904C89.5597 101.443 86.5919 106.906 82.6226 111.652C76.8506 118.553 69.2065 123.642 60.6088 126.309C52.011 128.975 42.8253 129.105 34.1555 126.683C25.4856 124.261 17.7003 119.389 11.7351 112.654C5.76993 105.919 1.87856 97.6071 0.528593 88.7165C-0.821375 79.8258 0.427483 70.7349 4.12511 62.536C7.82274 54.3372 13.8118 47.3792 21.3728 42.4981ZM90.7466 87.1125L90.7465 87.1125C90.6472 87.1699 90.5477 87.2269 90.448 87.2835C90.5477 87.2269 90.6473 87.1699 90.7466 87.1125ZM78.8165 91.9587C78.5049 92.0375 78.1926 92.1131 77.8796 92.1855C77.8796 92.1855 77.8795 92.1855 77.8795 92.1856C78.1927 92.1132 78.5051 92.0375 78.8165 91.9587Z" fill="#24C8DB"/>
<path d="M466.146 102C465.493 102 464.905 101.771 464.382 101.314C463.925 100.857 463.696 100.269 463.696 99.55V50.844L449.584 61.722C448.996 62.1793 448.375 62.3427 447.722 62.212C447.134 62.0813 446.611 61.722 446.154 61.134L441.254 54.764C440.862 54.176 440.699 53.5553 440.764 52.902C440.895 52.2487 441.254 51.726 441.842 51.334L464.186 34.086C464.578 33.8247 464.937 33.6613 465.264 33.596C465.656 33.4653 466.081 33.4 466.538 33.4H476.926C477.579 33.4 478.135 33.6287 478.592 34.086C479.049 34.5433 479.278 35.1313 479.278 35.85V99.55C479.278 100.269 479.049 100.857 478.592 101.314C478.135 101.771 477.579 102 476.926 102H466.146ZM497.851 102C497.132 102 496.544 101.771 496.087 101.314C495.629 100.857 495.401 100.269 495.401 99.55V88.574C495.401 87.8553 495.629 87.2673 496.087 86.81C496.544 86.3527 497.132 86.124 497.851 86.124H508.827C509.545 86.124 510.133 86.3527 510.591 86.81C511.048 87.2673 511.277 87.8553 511.277 88.574V99.55C511.277 100.269 511.048 100.857 510.591 101.314C510.133 101.771 509.545 102 508.827 102H497.851ZM541.552 102C540.899 102 540.311 101.771 539.788 101.314C539.331 100.857 539.102 100.269 539.102 99.55V50.844L524.99 61.722C524.402 62.1793 523.782 62.3427 523.128 62.212C522.54 62.0813 522.018 61.722 521.56 61.134L516.66 54.764C516.268 54.176 516.105 53.5553 516.17 52.902C516.301 52.2487 516.66 51.726 517.248 51.334L539.592 34.086C539.984 33.8247 540.344 33.6613 540.67 33.596C541.062 33.4653 541.487 33.4 541.944 33.4H552.332C552.986 33.4 553.541 33.6287 553.998 34.086C554.456 34.5433 554.684 35.1313 554.684 35.85V99.55C554.684 100.269 554.456 100.857 553.998 101.314C553.541 101.771 552.986 102 552.332 102H541.552Z" fill="#FFC131"/>
</svg>
