<svg width="597" height="135" viewBox="0 0 597 135" fill="none" xmlns="http://www.w3.org/2000/svg">
<path d="M476.102 102C475.442 102 474.932 101.79 474.572 101.37C474.212 100.89 474.092 100.32 474.212 99.66L482.492 61.23L470.072 69.42C469.412 69.84 468.782 69.99 468.182 69.87C467.582 69.69 467.132 69.33 466.832 68.79L461.612 59.43C461.432 58.89 461.462 58.29 461.702 57.63C462.002 56.97 462.452 56.46 463.052 56.1L487.802 39.63C488.222 39.39 488.552 39.24 488.792 39.18C489.092 39.06 489.482 39 489.962 39H504.092C504.752 39 505.262 39.24 505.622 39.72C505.982 40.14 506.102 40.68 505.982 41.34L493.562 99.66C493.442 100.32 493.112 100.89 492.572 101.37C492.032 101.79 491.432 102 490.772 102H476.102ZM505.3 102C504.64 102 504.13 101.79 503.77 101.37C503.41 100.89 503.29 100.32 503.41 99.66L506.29 86.16C506.41 85.5 506.74 84.93 507.28 84.45C507.88 83.97 508.51 83.73 509.17 83.73H522.67C523.33 83.73 523.84 83.97 524.2 84.45C524.56 84.93 524.68 85.5 524.56 86.16L521.68 99.66C521.56 100.32 521.2 100.89 520.6 101.37C520.06 101.79 519.49 102 518.89 102H505.3ZM561.271 102C560.611 102 560.101 101.79 559.741 101.37C559.381 100.89 559.261 100.32 559.381 99.66L561.271 90.75H532.381C531.721 90.75 531.211 90.54 530.851 90.12C530.551 89.64 530.461 89.07 530.581 88.41L532.831 77.7C533.011 76.98 533.221 76.41 533.461 75.99C533.761 75.57 534.061 75.24 534.361 75L567.571 40.53C568.591 39.51 569.791 39 571.171 39H588.541C589.201 39 589.711 39.24 590.071 39.72C590.431 40.14 590.551 40.68 590.431 41.34L583.231 74.91H591.151C591.871 74.91 592.411 75.15 592.771 75.63C593.131 76.05 593.251 76.59 593.131 77.25L590.701 88.41C590.581 89.07 590.221 89.64 589.621 90.12C589.081 90.54 588.481 90.75 587.821 90.75H579.901L578.011 99.66C577.891 100.32 577.561 100.89 577.021 101.37C576.481 101.79 575.881 102 575.221 102H561.271ZM552.901 75.72H565.051L568.561 58.89L552.901 75.72Z" fill="#F7F7F7"/>
<path d="M175.428 105.169C174.805 105.169 174.244 104.948 173.745 104.506C173.308 104 173.09 103.432 173.09 102.801V53.741H156.442C155.818 53.741 155.257 53.52 154.758 53.0781C154.322 52.5729 154.104 52.0047 154.104 51.3733V41.2393C154.104 40.5448 154.322 39.9765 154.758 39.5346C155.257 39.0926 155.818 38.8716 156.442 38.8716H206.761C207.447 38.8716 208.008 39.0926 208.444 39.5346C208.881 39.9765 209.099 40.5448 209.099 41.2393V51.3733C209.099 52.0678 208.881 52.6361 208.444 53.0781C208.008 53.52 207.447 53.741 206.761 53.741H190.112V102.801C190.112 103.432 189.894 104 189.458 104.506C189.021 104.948 188.46 105.169 187.774 105.169H175.428Z" fill="#F7F7F7"/>
<path d="M207.19 105.169C206.691 105.169 206.224 104.979 205.787 104.6C205.413 104.158 205.226 103.685 205.226 103.18C205.226 102.801 205.257 102.517 205.32 102.327L227.299 41.5235C227.486 40.7658 227.891 40.1344 228.515 39.6293C229.139 39.1241 229.949 38.8716 230.947 38.8716H244.789C245.787 38.8716 246.597 39.1241 247.221 39.6293C247.844 40.1344 248.25 40.7658 248.437 41.5235L270.323 102.327L270.51 103.18C270.51 103.685 270.292 104.158 269.855 104.6C269.481 104.979 269.013 105.169 268.452 105.169H256.948C255.452 105.169 254.454 104.506 253.955 103.18L250.307 93.5192H225.335L221.781 103.18C221.282 104.506 220.253 105.169 218.694 105.169H207.19ZM246.566 79.881L237.868 54.8776L229.17 79.881H246.566Z" fill="#F7F7F7"/>
<path d="M303.918 106.116C295.126 106.116 288.236 103.937 283.248 99.5806C278.322 95.224 275.859 88.6574 275.859 79.881V41.2393C275.859 40.5448 276.077 39.9765 276.514 39.5346C277.013 39.0926 277.574 38.8716 278.197 38.8716H290.263C290.949 38.8716 291.51 39.0926 291.946 39.5346C292.445 39.9765 292.695 40.5448 292.695 41.2393V79.7863C292.695 83.8904 293.63 86.9842 295.5 89.0678C297.433 91.0883 300.208 92.0985 303.825 92.0985C307.379 92.0985 310.122 91.0567 312.055 88.9731C313.988 86.8895 314.955 83.8272 314.955 79.7863V41.2393C314.955 40.5448 315.173 39.9765 315.609 39.5346C316.108 39.0926 316.669 38.8716 317.293 38.8716H329.452C330.138 38.8716 330.699 39.0926 331.135 39.5346C331.572 39.9765 331.79 40.5448 331.79 41.2393V79.881C331.79 88.6574 329.296 95.224 324.308 99.5806C319.382 103.937 312.585 106.116 303.918 106.116Z" fill="#F7F7F7"/>
<path d="M346.531 105.169C345.908 105.169 345.346 104.948 344.847 104.506C344.411 104 344.193 103.432 344.193 102.801V41.2393C344.193 40.5448 344.411 39.9765 344.847 39.5346C345.346 39.0926 345.908 38.8716 346.531 38.8716H371.971C380.139 38.8716 386.499 40.7658 391.051 44.5542C395.665 48.2794 397.972 53.5832 397.972 60.4654C397.972 64.8852 396.943 68.6421 394.886 71.7359C392.828 74.8298 389.991 77.1975 386.375 78.8392L399.188 102.138C399.375 102.517 399.469 102.864 399.469 103.18C399.469 103.685 399.251 104.158 398.814 104.6C398.44 104.979 398.003 105.169 397.505 105.169H385.065C383.257 105.169 381.979 104.316 381.23 102.611L370.568 81.7752H361.028V102.801C361.028 103.495 360.779 104.064 360.28 104.506C359.843 104.948 359.282 105.169 358.596 105.169H346.531ZM371.784 68.3264C374.652 68.3264 376.835 67.6318 378.331 66.2427C379.828 64.7905 380.576 62.8016 380.576 60.276C380.576 57.7504 379.828 55.7615 378.331 54.3093C376.897 52.7939 374.715 52.0363 371.784 52.0363H361.028V68.3264H371.784Z" fill="#F7F7F7"/>
<path d="M411.198 105.169C410.574 105.169 410.013 104.948 409.514 104.506C409.078 104 408.86 103.432 408.86 102.801V41.2393C408.86 40.5448 409.078 39.9765 409.514 39.5346C410.013 39.0926 410.574 38.8716 411.198 38.8716H423.731C424.417 38.8716 424.978 39.0926 425.414 39.5346C425.913 39.9765 426.163 40.5448 426.163 41.2393V102.801C426.163 103.495 425.913 104.064 425.414 104.506C424.978 104.948 424.417 105.169 423.731 105.169H411.198Z" fill="#F7F7F7"/>
<path d="M82.1349 48.8073C82.1349 55.8672 76.4831 61.5903 69.5113 61.5903C62.5395 61.5903 56.8877 55.8672 56.8877 48.8073C56.8877 41.7475 62.5395 36.0244 69.5113 36.0244C76.4831 36.0244 82.1349 41.7475 82.1349 48.8073Z" fill="#FFC131"/>
<ellipse cx="48.2807" cy="85.4134" rx="12.6236" ry="12.7829" transform="rotate(180 48.2807 85.4134)" fill="#24C8DB"/>
<path fill-rule="evenodd" clip-rule="evenodd" d="M95.6748 89.799C90.5806 93.133 84.9359 95.4473 79.0454 96.6509C80.2512 93.1304 80.9063 89.3493 80.9063 85.4132C80.9063 83.9855 80.8201 82.5783 80.6527 81.1964C83.1871 80.3025 85.6201 79.1024 87.8967 77.6124C93.3748 74.0272 97.7141 68.9165 100.393 62.8944C103.072 56.8722 103.977 50.1949 102.999 43.6646C102.021 37.1343 99.2014 31.0289 94.8795 26.082C90.5575 21.1351 84.9169 17.5571 78.6353 15.778C72.3538 13.9988 65.6985 14.0942 59.4692 16.0527C53.2398 18.0112 47.7015 21.7494 43.5195 26.8182C42.9839 27.4674 42.4734 28.135 41.9888 28.8193C35.5354 29.5453 29.285 31.3948 23.5049 34.2557C25.3863 28.1565 28.4409 22.4626 32.5228 17.5151C38.474 10.3018 46.3555 4.98201 55.2203 2.19496C64.0851 -0.59209 73.556 -0.727852 82.4951 1.80399C91.4343 4.33582 99.4613 9.42755 105.612 16.4674C111.762 23.5072 115.774 32.1956 117.166 41.4887C118.558 50.7818 117.271 60.2842 113.458 68.8542C109.646 77.4241 103.471 84.697 95.6748 89.799ZM24.0788 43.1569L35.8948 44.6265C36.1761 42.3074 36.6892 40.0349 37.4201 37.8418C32.7336 38.9308 28.2364 40.7235 24.0788 43.1569Z" fill="#FFC131"/>
<path fill-rule="evenodd" clip-rule="evenodd" d="M22.0365 44.4218C27.169 41.0627 32.8603 38.7388 38.7987 37.543C37.4563 41.2347 36.7232 45.225 36.7232 49.3886C36.7232 50.634 36.7888 51.8638 36.9167 53.0749C34.4334 53.9633 32.0487 55.1463 29.8146 56.6084C24.3365 60.1936 19.9972 65.3043 17.3182 71.3264C14.6392 77.3485 13.7343 84.0259 14.7124 90.5562C15.6905 97.0865 18.5099 103.192 22.8319 108.139C27.1538 113.086 32.7945 116.664 39.076 118.443C45.3576 120.222 52.0129 120.127 58.2422 118.168C64.4715 116.21 70.0099 112.471 74.1918 107.403C74.7301 106.75 75.2431 106.079 75.7299 105.391C82.1886 104.654 88.4411 102.792 94.2212 99.9172C92.3411 106.034 89.2811 111.745 85.1886 116.706C79.2374 123.919 71.3559 129.239 62.4911 132.026C53.6263 134.813 44.1553 134.949 35.2162 132.417C26.2771 129.885 18.25 124.793 12.0996 117.753C5.94912 110.714 1.9369 102.025 0.545009 92.7321C-0.846884 83.439 0.440759 73.9366 4.25322 65.3666C8.06568 56.7967 14.2408 49.5238 22.0365 44.4218ZM80.7818 96.2421C80.6208 96.2816 80.4596 96.3203 80.2982 96.3581C80.2982 96.3582 80.2982 96.3582 80.2982 96.3582C80.4597 96.3204 80.6209 96.2816 80.7818 96.2421Z" fill="#24C8DB"/>
</svg>