<svg width="584" height="130" viewBox="0 0 584 130" fill="none" xmlns="http://www.w3.org/2000/svg">
<path d="M170.144 101.579C169.539 101.579 168.995 101.368 168.511 100.945C168.087 100.462 167.876 99.9182 167.876 99.3142V52.3789H151.729C151.124 52.3789 150.58 52.1675 150.096 51.7446C149.673 51.2614 149.461 50.7177 149.461 50.1137V40.4185C149.461 39.7541 149.673 39.2104 150.096 38.7876C150.58 38.3647 151.124 38.1533 151.729 38.1533H200.532C201.197 38.1533 201.742 38.3647 202.165 38.7876C202.588 39.2104 202.8 39.7541 202.8 40.4185V50.1137C202.8 50.7781 202.588 51.3218 202.165 51.7446C201.742 52.1675 201.197 52.3789 200.532 52.3789H184.385V99.3142C184.385 99.9182 184.174 100.462 183.75 100.945C183.327 101.368 182.783 101.579 182.118 101.579H170.144Z" fill="#F7F7F7"/>
<path d="M200.949 101.579C200.465 101.579 200.012 101.398 199.588 101.036C199.225 100.613 199.044 100.16 199.044 99.6766C199.044 99.3142 199.074 99.0423 199.135 98.8611L220.452 40.6904C220.633 39.9655 221.027 39.3614 221.631 38.8782C222.236 38.3949 223.022 38.1533 223.99 38.1533H237.415C238.383 38.1533 239.169 38.3949 239.774 38.8782C240.379 39.3614 240.772 39.9655 240.953 40.6904L262.18 98.8611L262.361 99.6766C262.361 100.16 262.149 100.613 261.726 101.036C261.363 101.398 260.91 101.579 260.365 101.579H249.208C247.756 101.579 246.789 100.945 246.305 99.6766L242.767 90.4345H218.547L215.1 99.6766C214.616 100.945 213.618 101.579 212.107 101.579H200.949ZM239.139 77.3869L230.703 53.4662L222.266 77.3869H239.139Z" fill="#F7F7F7"/>
<path d="M294.763 102.485C286.236 102.485 279.554 100.401 274.716 96.2335C269.938 92.0655 267.549 85.7833 267.549 77.3869V40.4185C267.549 39.7541 267.761 39.2104 268.184 38.7876C268.668 38.3647 269.213 38.1533 269.817 38.1533H281.519C282.184 38.1533 282.729 38.3647 283.152 38.7876C283.636 39.2104 283.878 39.7541 283.878 40.4185V77.2963C283.878 81.2226 284.785 84.1825 286.599 86.1759C288.474 88.1089 291.165 89.0754 294.672 89.0754C298.12 89.0754 300.78 88.0787 302.655 86.0853C304.53 84.0919 305.467 81.1622 305.467 77.2963V40.4185C305.467 39.7541 305.679 39.2104 306.102 38.7876C306.586 38.3647 307.13 38.1533 307.735 38.1533H319.528C320.193 38.1533 320.737 38.3647 321.16 38.7876C321.584 39.2104 321.795 39.7541 321.795 40.4185V77.3869C321.795 85.7833 319.376 92.0655 314.538 96.2335C309.761 100.401 303.169 102.485 294.763 102.485Z" fill="#F7F7F7"/>
<path d="M336.093 101.579C335.488 101.579 334.944 101.368 334.46 100.945C334.036 100.462 333.825 99.9182 333.825 99.3142V40.4185C333.825 39.7541 334.036 39.2104 334.46 38.7876C334.944 38.3647 335.488 38.1533 336.093 38.1533H360.766C368.689 38.1533 374.857 39.9655 379.272 43.5898C383.747 47.1538 385.984 52.2279 385.984 58.8121C385.984 63.0405 384.986 66.6346 382.991 69.5945C380.995 72.5544 378.244 74.8196 374.736 76.3902L387.164 98.6799C387.345 99.0423 387.436 99.3746 387.436 99.6766C387.436 100.16 387.224 100.613 386.801 101.036C386.438 101.398 386.015 101.579 385.531 101.579H373.466C371.712 101.579 370.473 100.764 369.747 99.133L359.406 79.199H350.153V99.3142C350.153 99.9786 349.911 100.522 349.427 100.945C349.004 101.368 348.46 101.579 347.794 101.579H336.093ZM360.585 66.3326C363.367 66.3326 365.483 65.6682 366.935 64.3392C368.386 62.9499 369.112 61.0471 369.112 58.6309C369.112 56.2147 368.386 54.3119 366.935 52.9225C365.544 51.4728 363.427 50.7479 360.585 50.7479H350.153V66.3326H360.585Z" fill="#F7F7F7"/>
<path d="M398.812 101.579C398.207 101.579 397.663 101.368 397.179 100.945C396.755 100.462 396.544 99.9182 396.544 99.3142V40.4185C396.544 39.7541 396.755 39.2104 397.179 38.7876C397.663 38.3647 398.207 38.1533 398.812 38.1533H410.967C411.632 38.1533 412.177 38.3647 412.6 38.7876C413.084 39.2104 413.326 39.7541 413.326 40.4185V99.3142C413.326 99.9786 413.084 100.522 412.6 100.945C412.177 101.368 411.632 101.579 410.967 101.579H398.812Z" fill="#F7F7F7"/>
<path d="M79.6613 47.6589C79.6613 54.413 74.1798 59.8883 67.4179 59.8883C60.6561 59.8883 55.1746 54.413 55.1746 47.6589C55.1746 40.9048 60.6561 35.4295 67.4179 35.4295C74.1798 35.4295 79.6613 40.9048 79.6613 47.6589Z" fill="#FFC131"/>
<ellipse cx="46.8267" cy="82.6794" rx="12.2434" ry="12.2294" transform="rotate(180 46.8267 82.6794)" fill="#24C8DB"/>
<path fill-rule="evenodd" clip-rule="evenodd" d="M92.7927 86.8753C87.8519 90.0649 82.3773 92.279 76.6642 93.4305C77.8337 90.0624 78.469 86.445 78.469 82.6794C78.469 81.3135 78.3854 79.9672 78.2231 78.6452C80.6811 77.79 83.0409 76.6418 85.2489 75.2164C90.562 71.7865 94.7706 66.8971 97.3689 61.1357C99.9673 55.3743 100.845 48.9861 99.8962 42.7386C98.9476 36.4911 96.2131 30.6501 92.0213 25.9174C87.8296 21.1847 82.3588 17.7617 76.2665 16.0596C70.1741 14.3575 63.7193 14.4487 57.6776 16.3224C51.6359 18.1961 46.2644 21.7724 42.2084 26.6217C41.6889 27.2429 41.1938 27.8815 40.7238 28.5361C34.4648 29.2307 28.4027 31.0001 22.7966 33.7372C24.6214 27.9021 27.584 22.4547 31.5429 17.7215C37.3149 10.8205 44.9589 5.73111 53.5567 3.06475C62.1545 0.398393 71.3401 0.26851 80.01 2.69071C88.6799 5.11291 96.4652 9.98416 102.43 16.7191C108.396 23.4541 112.287 31.7663 113.637 40.657C114.987 49.5476 113.738 58.6386 110.04 66.8374C106.343 75.0362 100.354 81.9942 92.7927 86.8753ZM23.3533 42.2529L34.8134 43.6589C35.0862 41.4402 35.5839 39.2661 36.2927 37.1679C31.7474 38.2098 27.3856 39.9249 23.3533 42.2529Z" fill="#FFC131"/>
<path fill-rule="evenodd" clip-rule="evenodd" d="M21.3728 43.463C26.3507 40.2494 31.8705 38.0261 37.6301 36.8821C36.328 40.414 35.6171 44.2314 35.6171 48.2148C35.6171 49.4062 35.6807 50.5828 35.8047 51.7414C33.3962 52.5913 31.0833 53.7231 28.9166 55.1219C23.6035 58.5518 19.3949 63.4412 16.7966 69.2026C14.1982 74.9639 13.3206 81.3522 14.2693 87.5997C15.2179 93.8472 17.9524 99.6882 22.1441 104.421C26.3359 109.154 31.8066 112.577 37.899 114.279C43.9914 115.981 50.4462 115.89 56.4879 114.016C62.5296 112.142 67.9011 108.566 71.9571 103.717C72.4792 103.092 72.9766 102.45 73.4488 101.792C79.713 101.087 85.7772 99.3056 91.3832 96.5552C89.5597 102.408 86.5919 107.871 82.6226 112.617C76.8506 119.518 69.2065 124.607 60.6088 127.274C52.011 129.94 42.8253 130.07 34.1555 127.648C25.4856 125.225 17.7003 120.354 11.7351 113.619C5.76993 106.884 1.87856 98.572 0.528593 89.6813C-0.821375 80.7906 0.427483 71.6997 4.12511 63.5009C7.82274 55.302 13.8118 48.3441 21.3728 43.463ZM90.7466 88.0773L90.7465 88.0773C90.6472 88.1347 90.5477 88.1917 90.448 88.2484C90.5477 88.1917 90.6473 88.1347 90.7466 88.0773ZM78.8165 92.9236C78.5049 93.0024 78.1926 93.078 77.8796 93.1503C77.8796 93.1504 77.8795 93.1504 77.8795 93.1504C78.1927 93.078 78.5051 93.0023 78.8165 92.9236Z" fill="#24C8DB"/>
<path d="M466.146 104C465.493 104 464.905 103.771 464.382 103.314C463.925 102.857 463.696 102.269 463.696 101.55V52.844L449.584 63.722C448.996 64.1793 448.375 64.3427 447.722 64.212C447.134 64.0813 446.611 63.722 446.154 63.134L441.254 56.764C440.862 56.176 440.699 55.5553 440.764 54.902C440.895 54.2487 441.254 53.726 441.842 53.334L464.186 36.086C464.578 35.8247 464.937 35.6613 465.264 35.596C465.656 35.4653 466.081 35.4 466.538 35.4H476.926C477.579 35.4 478.135 35.6287 478.592 36.086C479.049 36.5433 479.278 37.1313 479.278 37.85V101.55C479.278 102.269 479.049 102.857 478.592 103.314C478.135 103.771 477.579 104 476.926 104H466.146ZM497.851 104C497.132 104 496.544 103.771 496.087 103.314C495.629 102.857 495.401 102.269 495.401 101.55V90.574C495.401 89.8553 495.629 89.2673 496.087 88.81C496.544 88.3527 497.132 88.124 497.851 88.124H508.827C509.545 88.124 510.133 88.3527 510.591 88.81C511.048 89.2673 511.277 89.8553 511.277 90.574V101.55C511.277 102.269 511.048 102.857 510.591 103.314C510.133 103.771 509.545 104 508.827 104H497.851ZM551.983 104.98C547.148 104.98 542.999 104.392 539.537 103.216C536.074 102.04 533.232 100.537 531.011 98.708C528.789 96.8787 527.123 94.886 526.013 92.73C524.902 90.5087 524.314 88.3853 524.249 86.36C524.249 85.772 524.445 85.282 524.837 84.89C525.229 84.498 525.719 84.302 526.307 84.302H537.087C537.805 84.302 538.393 84.4653 538.851 84.792C539.308 85.0533 539.733 85.5433 540.125 86.262C540.647 87.7647 541.497 88.9733 542.673 89.888C543.849 90.8027 545.221 91.456 546.789 91.848C548.422 92.1747 550.153 92.338 551.983 92.338C555.641 92.338 558.516 91.4887 560.607 89.79C562.697 88.0913 563.743 85.7067 563.743 82.636C563.743 79.5 562.763 77.246 560.803 75.874C558.843 74.502 556.066 73.816 552.473 73.816H541.987C541.333 73.816 540.778 73.5873 540.321 73.13C539.863 72.6727 539.635 72.1173 539.635 71.464V66.662C539.635 65.878 539.765 65.2247 540.027 64.702C540.353 64.1793 540.68 63.7873 541.007 63.526L557.863 48.042H530.227C529.508 48.042 528.92 47.8133 528.463 47.356C528.005 46.8987 527.777 46.3433 527.777 45.69V37.85C527.777 37.1313 528.005 36.5433 528.463 36.086C528.92 35.6287 529.508 35.4 530.227 35.4H573.739C574.457 35.4 575.045 35.6287 575.503 36.086C575.96 36.5433 576.189 37.1313 576.189 37.85V44.906C576.189 45.6247 576.058 46.2453 575.797 46.768C575.535 47.2253 575.209 47.5847 574.817 47.846L558.843 63.624L559.823 63.722C563.677 64.114 567.107 65.0613 570.113 66.564C573.118 68.0667 575.47 70.2227 577.169 73.032C578.933 75.776 579.815 79.2713 579.815 83.518C579.815 87.9607 578.606 91.7827 576.189 94.984C573.771 98.1853 570.472 100.668 566.291 102.432C562.109 104.131 557.34 104.98 551.983 104.98Z" fill="#FFC131"/>
</svg>