<svg width="320" height="101" fill="none" xmlns="http://www.w3.org/2000/svg"><path d="M132.26 78.57c-.47 0-.88-.16-1.26-.49a1.88 1.88 0 0 1-.49-1.25v-36.2h-12.45c-.47 0-.9-.15-1.26-.48-.33-.37-.5-.8-.5-1.26v-7.47c0-.51.17-.93.5-1.26.37-.33.79-.49 1.26-.49h37.65c.5 0 .93.16 1.26.49.32.33.49.75.49 1.26v7.47c0 .51-.17.93-.5 1.26a1.7 1.7 0 0 1-1.25.49h-12.46v36.19c0 .46-.16.88-.5 1.25a1.7 1.7 0 0 1-1.25.5h-9.24Zm23.77 0c-.38 0-.73-.14-1.05-.42a1.58 1.58 0 0 1-.42-1.05c0-.27.02-.48.07-.62l16.44-44.85c.14-.56.45-1.03.91-1.4a2.83 2.83 0 0 1 1.82-.56h10.36c.75 0 1.35.19 1.82.56.47.37.77.84.91 1.4l16.38 44.85.14.62c0 .38-.17.73-.5 1.05-.27.28-.62.42-1.04.42h-8.61c-1.12 0-1.87-.49-2.24-1.47l-2.73-7.12H169.6l-2.66 7.12c-.37.98-1.14 1.47-2.3 1.47h-8.61Zm29.46-18.65-6.5-18.44-6.52 18.44h13.02Zm42.91 19.35c-6.58 0-11.73-1.6-15.46-4.82-3.69-3.21-5.53-8.06-5.53-14.53v-28.5c0-.51.16-.93.49-1.26.37-.33.8-.49 1.26-.49h9.03c.5 0 .93.16 1.25.49.38.33.56.75.56 1.26v28.43c0 3.03.7 5.3 2.1 6.85 1.45 1.49 3.53 2.23 6.23 2.23 2.66 0 4.71-.77 6.16-2.3 1.45-1.54 2.17-3.8 2.17-6.78V31.42c0-.51.16-.93.5-1.26a1.8 1.8 0 0 1 1.25-.49h9.1c.51 0 .93.16 1.26.49.32.33.49.75.49 1.26v28.5c0 6.47-1.87 11.32-5.6 14.53-3.69 3.21-8.77 4.82-15.26 4.82Zm31.89-.7c-.47 0-.89-.16-1.26-.49-.33-.37-.5-.79-.5-1.25V31.42c0-.51.17-.93.5-1.26.37-.33.8-.49 1.26-.49h19.03c6.12 0 10.87 1.4 14.28 4.2 3.45 2.74 5.18 6.65 5.18 11.73 0 3.26-.77 6.03-2.31 8.31a14.75 14.75 0 0 1-6.37 5.24l9.59 17.19c.14.28.2.53.2.76 0 .38-.15.73-.48 1.05-.28.28-.6.42-.98.42h-9.3a2.92 2.92 0 0 1-2.88-1.88l-7.98-15.37h-7.13v15.5c0 .52-.2.94-.56 1.26a1.7 1.7 0 0 1-1.26.5h-9.03Zm18.9-27.17c2.14 0 3.77-.52 4.9-1.54a5.8 5.8 0 0 0 1.67-4.4 5.8 5.8 0 0 0-1.68-4.4c-1.07-1.12-2.7-1.68-4.9-1.68h-8.05V51.4h8.05Zm29.48 27.17c-.46 0-.88-.16-1.26-.49a1.88 1.88 0 0 1-.49-1.25V31.42c0-.51.17-.93.5-1.26.37-.33.79-.49 1.25-.49h9.38c.51 0 .94.16 1.26.49.38.33.56.75.56 1.26v45.4c0 .52-.19.94-.56 1.26a1.7 1.7 0 0 1-1.26.5h-9.38Z" fill="#F7F7F7"/><path d="M63.14 37.15a9.7 9.7 0 0 1-9.75 9.66 9.7 9.7 0 0 1-9.75-9.66 9.7 9.7 0 0 1 9.75-9.66 9.7 9.7 0 0 1 9.75 9.66Z" fill="#FFC131"/><path d="M46.8 64.28a9.7 9.7 0 0 1-9.75 9.66 9.7 9.7 0 0 1-9.75-9.66 9.7 9.7 0 0 1 9.75-9.66 9.7 9.7 0 0 1 9.75 9.66Z" fill="#24C8DB"/><path d="M29.62 28.45C12.8 31.85.14 46.6.14 64.28c0 20.2 16.53 36.58 36.91 36.58a36.89 36.89 0 0 0 35.25-25.7 43.07 43.07 0 0 1-14.12 4.1 26.02 26.02 0 0 1-21.13 10.76c-14.35 0-25.98-11.52-25.98-25.74 0-11.1 7.1-20.56 17.04-24.17-.4-3.93.1-7.92 1.51-11.66Z" fill="#24C8DB"/><path fill-rule="evenodd" clip-rule="evenodd" d="M60.82 72.98c16.83-3.4 29.48-18.16 29.48-35.83C90.3 16.95 73.78.57 53.4.57a36.89 36.89 0 0 0-35.26 25.7 43.07 43.07 0 0 1 14.12-4.1A26.02 26.02 0 0 1 53.4 11.4c14.35 0 25.98 11.53 25.98 25.75 0 11.1-7.1 20.56-17.04 24.17.4 3.93-.1 7.92-1.5 11.66Z" fill="#FFC131"/></svg>