<svg width="871" height="778" viewBox="0 0 871 778" fill="none" xmlns="http://www.w3.org/2000/svg">
<rect x="0.957133" y="5.04544" width="549.903" height="35.4908" rx="17.7454" transform="matrix(-0.747316 0.664468 0.938743 0.344619 825.099 2.67094)" stroke="#FFC131" stroke-width="10"/>
<rect x="0.957133" y="5.04544" width="232.235" height="24.9372" rx="12.4686" transform="matrix(-0.747316 0.664468 0.938743 0.344619 458.917 588.261)" stroke="#FFC131" stroke-width="10"/>
<rect x="0.957133" y="5.04544" width="113.875" height="17.8398" rx="8.91989" transform="matrix(-0.747316 0.664468 0.938743 0.344619 464.509 103.671)" stroke="#FFC131" stroke-width="10"/>
<rect x="0.957133" y="5.04544" width="549.903" height="35.4908" rx="17.7454" transform="matrix(-0.747316 0.664468 0.938743 0.344619 825.099 2.67094)" stroke="#FFC131" stroke-width="10"/>
<rect x="0.957133" y="5.04544" width="113.875" height="17.8398" rx="8.91989" transform="matrix(-0.747316 0.664468 0.938743 0.344619 464.509 103.671)" stroke="#FFC131" stroke-width="10"/>
<rect x="0.957133" y="5.04544" width="220.186" height="66.1946" rx="33.0973" transform="matrix(-0.747316 0.664468 0.938743 0.344619 168.959 600.671)" stroke="#FFC131" stroke-width="10"/>
</svg>
