<svg width="562" height="129" viewBox="0 0 562 129" fill="none" xmlns="http://www.w3.org/2000/svg">
<path d="M170.144 100.615C169.539 100.615 168.995 100.403 168.511 99.9803C168.087 99.497 167.876 98.9534 167.876 98.3493V51.414H151.729C151.124 51.414 150.58 51.2026 150.096 50.7798C149.673 50.2965 149.461 49.7529 149.461 49.1488V39.4537C149.461 38.7892 149.673 38.2456 150.096 37.8227C150.58 37.3999 151.124 37.1885 151.729 37.1885H200.532C201.197 37.1885 201.742 37.3999 202.165 37.8227C202.588 38.2456 202.8 38.7892 202.8 39.4537V49.1488C202.8 49.8133 202.588 50.3569 202.165 50.7798C201.742 51.2026 201.197 51.414 200.532 51.414H184.385V98.3493C184.385 98.9534 184.174 99.497 183.75 99.9803C183.327 100.403 182.783 100.615 182.118 100.615H170.144Z" fill="#F7F7F7"/>
<path d="M200.949 100.615C200.465 100.615 200.012 100.433 199.588 100.071C199.225 99.6481 199.044 99.195 199.044 98.7118C199.044 98.3493 199.074 98.0775 199.135 97.8963L220.452 39.7255C220.633 39.0007 221.027 38.3966 221.631 37.9133C222.236 37.4301 223.022 37.1885 223.99 37.1885H237.415C238.383 37.1885 239.169 37.4301 239.774 37.9133C240.379 38.3966 240.772 39.0007 240.953 39.7255L262.18 97.8963L262.361 98.7118C262.361 99.195 262.149 99.6481 261.726 100.071C261.363 100.433 260.91 100.615 260.365 100.615H249.208C247.756 100.615 246.789 99.9803 246.305 98.7118L242.767 89.4697H218.547L215.1 98.7118C214.616 99.9803 213.618 100.615 212.107 100.615H200.949ZM239.139 76.422L230.703 52.5013L222.266 76.422H239.139Z" fill="#F7F7F7"/>
<path d="M294.763 101.521C286.236 101.521 279.554 99.4366 274.716 95.2686C269.938 91.1006 267.549 84.8184 267.549 76.422V39.4537C267.549 38.7892 267.761 38.2456 268.184 37.8227C268.668 37.3999 269.213 37.1885 269.817 37.1885H281.519C282.184 37.1885 282.729 37.3999 283.152 37.8227C283.636 38.2456 283.878 38.7892 283.878 39.4537V76.3314C283.878 80.2578 284.785 83.2177 286.599 85.2111C288.474 87.1441 291.165 88.1105 294.672 88.1105C298.12 88.1105 300.78 87.1139 302.655 85.1205C304.53 83.1271 305.467 80.1974 305.467 76.3314V39.4537C305.467 38.7892 305.679 38.2456 306.102 37.8227C306.586 37.3999 307.13 37.1885 307.735 37.1885H319.528C320.193 37.1885 320.737 37.3999 321.16 37.8227C321.584 38.2456 321.795 38.7892 321.795 39.4537V76.422C321.795 84.8184 319.376 91.1006 314.538 95.2686C309.761 99.4366 303.169 101.521 294.763 101.521Z" fill="#F7F7F7"/>
<path d="M336.093 100.615C335.488 100.615 334.944 100.403 334.46 99.9803C334.036 99.497 333.825 98.9534 333.825 98.3493V39.4537C333.825 38.7892 334.036 38.2456 334.46 37.8227C334.944 37.3999 335.488 37.1885 336.093 37.1885H360.766C368.689 37.1885 374.857 39.0006 379.272 42.625C383.747 46.1889 385.984 51.263 385.984 57.8473C385.984 62.0757 384.986 65.6698 382.991 68.6297C380.995 71.5896 378.244 73.8548 374.736 75.4253L387.164 97.7151C387.345 98.0775 387.436 98.4097 387.436 98.7118C387.436 99.195 387.224 99.6481 386.801 100.071C386.438 100.433 386.015 100.615 385.531 100.615H373.466C371.712 100.615 370.473 99.7991 369.747 98.1681L359.406 78.2342H350.153V98.3493C350.153 99.0138 349.911 99.5574 349.427 99.9803C349.004 100.403 348.46 100.615 347.794 100.615H336.093ZM360.585 65.3678C363.367 65.3678 365.483 64.7033 366.935 63.3744C368.386 61.985 369.112 60.0823 369.112 57.666C369.112 55.2498 368.386 53.347 366.935 51.9577C365.544 50.508 363.427 49.7831 360.585 49.7831H350.153V65.3678H360.585Z" fill="#F7F7F7"/>
<path d="M398.812 100.615C398.207 100.615 397.663 100.403 397.179 99.9803C396.755 99.497 396.544 98.9534 396.544 98.3493V39.4537C396.544 38.7892 396.755 38.2456 397.179 37.8227C397.663 37.3999 398.207 37.1885 398.812 37.1885H410.967C411.632 37.1885 412.177 37.3999 412.6 37.8227C413.084 38.2456 413.326 38.7892 413.326 39.4537V98.3493C413.326 99.0138 413.084 99.5574 412.6 99.9803C412.177 100.403 411.632 100.615 410.967 100.615H398.812Z" fill="#F7F7F7"/>
<path d="M79.6613 46.694C79.6613 53.4481 74.1798 58.9234 67.4179 58.9234C60.6561 58.9234 55.1746 53.4481 55.1746 46.694C55.1746 39.9399 60.6561 34.4646 67.4179 34.4646C74.1798 34.4646 79.6613 39.9399 79.6613 46.694Z" fill="#FFC131"/>
<ellipse cx="46.8267" cy="81.7145" rx="12.2434" ry="12.2294" transform="rotate(180 46.8267 81.7145)" fill="#24C8DB"/>
<path fill-rule="evenodd" clip-rule="evenodd" d="M92.7927 85.9105C87.8519 89.1001 82.3773 91.3141 76.6642 92.4656C77.8337 89.0976 78.469 85.4802 78.469 81.7146C78.469 80.3487 78.3854 79.0023 78.2231 77.6803C80.6811 76.8252 83.0409 75.677 85.2489 74.2516C90.562 70.8216 94.7706 65.9322 97.3689 60.1709C99.9673 54.4095 100.845 48.0213 99.8962 41.7738C98.9476 35.5263 96.2131 29.6852 92.0213 24.9525C87.8296 20.2199 82.3588 16.7968 76.2665 15.0947C70.1741 13.3926 63.7193 13.4839 57.6776 15.3576C51.6359 17.2312 46.2644 20.8076 42.2084 25.6569C41.6889 26.278 41.1938 26.9167 40.7238 27.5713C34.4648 28.2659 28.4027 30.0353 22.7966 32.7723C24.6214 26.9372 27.584 21.4899 31.5429 16.7566C37.3149 9.85568 44.9589 4.76627 53.5567 2.09991C62.1545 -0.566451 71.3401 -0.696333 80.01 1.72587C88.6799 4.14807 96.4652 9.01931 102.43 15.7543C108.396 22.4893 112.287 30.8015 113.637 39.6921C114.987 48.5828 113.738 57.6737 110.04 65.8725C106.343 74.0714 100.354 81.0294 92.7927 85.9105ZM23.3533 41.2881L34.8134 42.694C35.0862 40.4754 35.5839 38.3012 36.2927 36.2031C31.7474 37.2449 27.3856 38.9601 23.3533 41.2881Z" fill="#FFC131"/>
<path fill-rule="evenodd" clip-rule="evenodd" d="M21.3728 42.4981C26.3507 39.2846 31.8705 37.0613 37.6301 35.9172C36.328 39.4491 35.6171 43.2666 35.6171 47.2499C35.6171 48.4414 35.6807 49.618 35.8047 50.7765C33.3962 51.6265 31.0833 52.7582 28.9166 54.157C23.6035 57.587 19.3949 62.4764 16.7966 68.2377C14.1982 73.9991 13.3206 80.3873 14.2693 86.6348C15.2179 92.8823 17.9524 98.7234 22.1442 103.456C26.3359 108.189 31.8066 111.612 37.899 113.314C43.9914 115.016 50.4462 114.925 56.4879 113.051C62.5296 111.177 67.9011 107.601 71.9571 102.752C72.4792 102.127 72.9766 101.486 73.4488 100.827C79.713 100.122 85.7772 98.3408 91.3832 95.5904C89.5597 101.443 86.5919 106.906 82.6226 111.652C76.8506 118.553 69.2065 123.642 60.6088 126.309C52.011 128.975 42.8253 129.105 34.1555 126.683C25.4856 124.261 17.7003 119.389 11.7351 112.654C5.76993 105.919 1.87856 97.6071 0.528593 88.7165C-0.821375 79.8258 0.427483 70.7349 4.12511 62.536C7.82274 54.3372 13.8118 47.3792 21.3728 42.4981ZM90.7466 87.1125L90.7465 87.1125C90.6472 87.1699 90.5477 87.2269 90.448 87.2835C90.5477 87.2269 90.6473 87.1699 90.7466 87.1125ZM78.8165 91.9587C78.5049 92.0375 78.1926 92.1131 77.8796 92.1855C77.8796 92.1855 77.8795 92.1855 77.8795 92.1856C78.1927 92.1132 78.5051 92.0375 78.8165 91.9587Z" fill="#24C8DB"/>
<path d="M466.146 102C465.493 102 464.905 101.771 464.382 101.314C463.925 100.857 463.696 100.269 463.696 99.55V50.844L449.584 61.722C448.996 62.1793 448.375 62.3427 447.722 62.212C447.134 62.0813 446.611 61.722 446.154 61.134L441.254 54.764C440.862 54.176 440.699 53.5553 440.764 52.902C440.895 52.2487 441.254 51.726 441.842 51.334L464.186 34.086C464.578 33.8247 464.937 33.6613 465.264 33.596C465.656 33.4653 466.081 33.4 466.538 33.4H476.926C477.579 33.4 478.135 33.6287 478.592 34.086C479.049 34.5433 479.278 35.1313 479.278 35.85V99.55C479.278 100.269 479.049 100.857 478.592 101.314C478.135 101.771 477.579 102 476.926 102H466.146ZM497.851 102C497.132 102 496.544 101.771 496.087 101.314C495.629 100.857 495.401 100.269 495.401 99.55V88.574C495.401 87.8553 495.629 87.2673 496.087 86.81C496.544 86.3527 497.132 86.124 497.851 86.124H508.827C509.545 86.124 510.133 86.3527 510.591 86.81C511.048 87.2673 511.277 87.8553 511.277 88.574V99.55C511.277 100.269 511.048 100.857 510.591 101.314C510.133 101.771 509.545 102 508.827 102H497.851ZM541.552 102C540.899 102 540.311 101.771 539.788 101.314C539.331 100.857 539.102 100.269 539.102 99.55V50.844L524.99 61.722C524.402 62.1793 523.782 62.3427 523.128 62.212C522.54 62.0813 522.018 61.722 521.56 61.134L516.66 54.764C516.268 54.176 516.105 53.5553 516.17 52.902C516.301 52.2487 516.66 51.726 517.248 51.334L539.592 34.086C539.984 33.8247 540.344 33.6613 540.67 33.596C541.062 33.4653 541.487 33.4 541.944 33.4H552.332C552.986 33.4 553.541 33.6287 553.998 34.086C554.456 34.5433 554.684 35.1313 554.684 35.85V99.55C554.684 100.269 554.456 100.857 553.998 101.314C553.541 101.771 552.986 102 552.332 102H541.552Z" fill="#FFC131"/>
</svg>
