<svg width="597" height="130" viewBox="0 0 597 130" fill="none" xmlns="http://www.w3.org/2000/svg">
<path d="M170.144 101.579C169.539 101.579 168.995 101.368 168.511 100.945C168.087 100.462 167.876 99.9182 167.876 99.3142V52.3789H151.729C151.124 52.3789 150.58 52.1675 150.096 51.7446C149.673 51.2614 149.461 50.7177 149.461 50.1137V40.4185C149.461 39.7541 149.673 39.2104 150.096 38.7876C150.58 38.3647 151.124 38.1533 151.729 38.1533H200.532C201.197 38.1533 201.742 38.3647 202.165 38.7876C202.588 39.2104 202.8 39.7541 202.8 40.4185V50.1137C202.8 50.7781 202.588 51.3218 202.165 51.7446C201.742 52.1675 201.197 52.3789 200.532 52.3789H184.385V99.3142C184.385 99.9182 184.174 100.462 183.75 100.945C183.327 101.368 182.783 101.579 182.118 101.579H170.144Z" fill="#2F2F2F"/>
<path d="M200.949 101.579C200.465 101.579 200.012 101.398 199.588 101.036C199.225 100.613 199.044 100.16 199.044 99.6766C199.044 99.3142 199.074 99.0423 199.135 98.8611L220.452 40.6904C220.633 39.9655 221.027 39.3614 221.631 38.8782C222.236 38.3949 223.022 38.1533 223.99 38.1533H237.415C238.383 38.1533 239.169 38.3949 239.774 38.8782C240.379 39.3614 240.772 39.9655 240.953 40.6904L262.18 98.8611L262.361 99.6766C262.361 100.16 262.149 100.613 261.726 101.036C261.363 101.398 260.91 101.579 260.365 101.579H249.208C247.756 101.579 246.789 100.945 246.305 99.6766L242.767 90.4345H218.547L215.1 99.6766C214.616 100.945 213.618 101.579 212.107 101.579H200.949ZM239.139 77.3869L230.703 53.4662L222.266 77.3869H239.139Z" fill="#2F2F2F"/>
<path d="M294.763 102.485C286.236 102.485 279.554 100.401 274.716 96.2335C269.938 92.0655 267.549 85.7833 267.549 77.3869V40.4185C267.549 39.7541 267.761 39.2104 268.184 38.7876C268.668 38.3647 269.213 38.1533 269.817 38.1533H281.519C282.184 38.1533 282.729 38.3647 283.152 38.7876C283.636 39.2104 283.878 39.7541 283.878 40.4185V77.2963C283.878 81.2226 284.785 84.1825 286.599 86.1759C288.474 88.1089 291.165 89.0754 294.672 89.0754C298.12 89.0754 300.78 88.0787 302.655 86.0853C304.53 84.0919 305.467 81.1622 305.467 77.2963V40.4185C305.467 39.7541 305.679 39.2104 306.102 38.7876C306.586 38.3647 307.13 38.1533 307.735 38.1533H319.528C320.193 38.1533 320.737 38.3647 321.16 38.7876C321.584 39.2104 321.795 39.7541 321.795 40.4185V77.3869C321.795 85.7833 319.376 92.0655 314.538 96.2335C309.761 100.401 303.169 102.485 294.763 102.485Z" fill="#2F2F2F"/>
<path d="M336.093 101.579C335.488 101.579 334.944 101.368 334.46 100.945C334.036 100.462 333.825 99.9182 333.825 99.3142V40.4185C333.825 39.7541 334.036 39.2104 334.46 38.7876C334.944 38.3647 335.488 38.1533 336.093 38.1533H360.766C368.689 38.1533 374.857 39.9655 379.272 43.5898C383.747 47.1538 385.984 52.2279 385.984 58.8121C385.984 63.0405 384.986 66.6346 382.991 69.5945C380.995 72.5544 378.244 74.8196 374.736 76.3902L387.164 98.6799C387.345 99.0423 387.436 99.3746 387.436 99.6766C387.436 100.16 387.224 100.613 386.801 101.036C386.438 101.398 386.015 101.579 385.531 101.579H373.466C371.712 101.579 370.473 100.764 369.747 99.133L359.406 79.199H350.153V99.3142C350.153 99.9786 349.911 100.522 349.427 100.945C349.004 101.368 348.46 101.579 347.794 101.579H336.093ZM360.585 66.3326C363.367 66.3326 365.483 65.6682 366.935 64.3392C368.386 62.9499 369.112 61.0471 369.112 58.6309C369.112 56.2147 368.386 54.3119 366.935 52.9225C365.544 51.4728 363.427 50.7479 360.585 50.7479H350.153V66.3326H360.585Z" fill="#2F2F2F"/>
<path d="M398.812 101.579C398.207 101.579 397.663 101.368 397.179 100.945C396.755 100.462 396.544 99.9182 396.544 99.3142V40.4185C396.544 39.7541 396.755 39.2104 397.179 38.7876C397.663 38.3647 398.207 38.1533 398.812 38.1533H410.967C411.632 38.1533 412.177 38.3647 412.6 38.7876C413.084 39.2104 413.326 39.7541 413.326 40.4185V99.3142C413.326 99.9786 413.084 100.522 412.6 100.945C412.177 101.368 411.632 101.579 410.967 101.579H398.812Z" fill="#2F2F2F"/>
<path d="M79.6613 47.6589C79.6613 54.413 74.1798 59.8883 67.4179 59.8883C60.6561 59.8883 55.1746 54.413 55.1746 47.6589C55.1746 40.9048 60.6561 35.4295 67.4179 35.4295C74.1798 35.4295 79.6613 40.9048 79.6613 47.6589Z" fill="#FFC131"/>
<ellipse cx="46.8267" cy="82.6794" rx="12.2434" ry="12.2294" transform="rotate(180 46.8267 82.6794)" fill="#24C8DB"/>
<path fill-rule="evenodd" clip-rule="evenodd" d="M92.7927 86.8753C87.8519 90.0649 82.3773 92.279 76.6642 93.4304C77.8337 90.0624 78.469 86.445 78.469 82.6794C78.469 81.3135 78.3854 79.9672 78.2231 78.6452C80.6811 77.79 83.0409 76.6418 85.2489 75.2164C90.562 71.7865 94.7706 66.8971 97.3689 61.1357C99.9673 55.3743 100.845 48.9861 99.8962 42.7386C98.9476 36.4911 96.2131 30.6501 92.0213 25.9174C87.8296 21.1847 82.3588 17.7617 76.2665 16.0596C70.1741 14.3575 63.7193 14.4487 57.6776 16.3224C51.6359 18.1961 46.2644 21.7724 42.2084 26.6217C41.6889 27.2429 41.1938 27.8815 40.7238 28.5361C34.4648 29.2307 28.4027 31.0001 22.7966 33.7372C24.6214 27.9021 27.584 22.4547 31.5429 17.7215C37.3149 10.8205 44.9589 5.73111 53.5567 3.06475C62.1545 0.398393 71.3401 0.26851 80.01 2.69071C88.6799 5.11291 96.4652 9.98416 102.43 16.7191C108.396 23.4541 112.287 31.7663 113.637 40.657C114.987 49.5476 113.738 58.6386 110.04 66.8374C106.343 75.0362 100.354 81.9942 92.7927 86.8753ZM23.3533 42.2529L34.8134 43.6589C35.0862 41.4402 35.5839 39.2661 36.2927 37.1679C31.7474 38.2098 27.3856 39.9249 23.3533 42.2529Z" fill="#FFC131"/>
<path fill-rule="evenodd" clip-rule="evenodd" d="M21.3728 43.463C26.3507 40.2494 31.8705 38.0261 37.6301 36.8821C36.328 40.414 35.6171 44.2314 35.6171 48.2148C35.6171 49.4062 35.6807 50.5828 35.8047 51.7414C33.3962 52.5913 31.0833 53.7231 28.9166 55.1219C23.6035 58.5518 19.3949 63.4412 16.7966 69.2026C14.1982 74.9639 13.3206 81.3522 14.2693 87.5997C15.2179 93.8472 17.9524 99.6882 22.1442 104.421C26.3359 109.154 31.8066 112.577 37.899 114.279C43.9914 115.981 50.4462 115.89 56.4879 114.016C62.5296 112.142 67.9011 108.566 71.9571 103.717C72.4792 103.092 72.9766 102.45 73.4488 101.792C79.713 101.087 85.7772 99.3056 91.3832 96.5552C89.5597 102.408 86.5919 107.871 82.6226 112.617C76.8506 119.518 69.2065 124.607 60.6088 127.274C52.011 129.94 42.8253 130.07 34.1555 127.648C25.4856 125.225 17.7003 120.354 11.7351 113.619C5.76993 106.884 1.87856 98.572 0.528593 89.6813C-0.821375 80.7906 0.427483 71.6997 4.12511 63.5009C7.82274 55.302 13.8118 48.3441 21.3728 43.463ZM90.7466 88.0773L90.7465 88.0773C90.6472 88.1347 90.5477 88.1917 90.448 88.2484C90.5477 88.1917 90.6473 88.1347 90.7466 88.0773ZM78.8165 92.9236C78.5049 93.0024 78.1926 93.078 77.8796 93.1503C77.8796 93.1504 77.8795 93.1504 77.8795 93.1504C78.1927 93.078 78.5051 93.0023 78.8165 92.9236Z" fill="#24C8DB"/>
<path d="M482.606 108.63C481.901 108.63 481.267 108.386 480.704 107.899C480.211 107.412 479.964 106.786 479.964 106.02V54.1396L464.748 65.7266C464.114 66.2137 463.445 66.3877 462.741 66.2485C462.107 66.1093 461.543 65.7266 461.05 65.1003L455.767 58.3151C455.344 57.6888 455.168 57.0276 455.238 56.3317C455.379 55.6358 455.767 55.0791 456.401 54.6615L480.493 36.2894C480.915 36.011 481.303 35.837 481.655 35.7675C482.078 35.6283 482.535 35.5587 483.029 35.5587H494.229C494.934 35.5587 495.532 35.8022 496.026 36.2894C496.519 36.7765 496.765 37.4028 496.765 38.1684V106.02C496.765 106.786 496.519 107.412 496.026 107.899C495.532 108.386 494.934 108.63 494.229 108.63H482.606Z" fill="#FFC131"/>
<path d="M512.564 108.63C511.789 108.63 511.155 108.386 510.662 107.899C510.169 107.412 509.922 106.786 509.922 106.02V94.3287C509.922 93.5632 510.169 92.9368 510.662 92.4497C511.155 91.9626 511.789 91.719 512.564 91.719H524.399C525.174 91.719 525.808 91.9626 526.301 92.4497C526.794 92.9368 527.04 93.5632 527.04 94.3287V106.02C527.04 106.786 526.794 107.412 526.301 107.899C525.808 108.386 525.174 108.63 524.399 108.63H512.564Z" fill="#FFC131"/>
<path d="M567.466 109.674C562.394 109.674 558.027 108.978 554.363 107.586C550.771 106.124 547.777 104.141 545.382 101.636C543.057 99.0609 541.296 96.1033 540.098 92.7629C538.971 89.3529 538.302 85.7341 538.091 81.9066C538.02 80.0276 537.95 77.9399 537.879 75.6434C537.879 73.2773 537.879 70.9111 537.879 68.545C537.95 66.1789 538.02 64.0216 538.091 62.073C538.232 58.2455 538.901 54.6615 540.098 51.3211C541.366 47.9808 543.198 45.0579 545.593 42.5526C547.988 40.0473 550.982 38.0988 554.575 36.7069C558.238 35.2455 562.535 34.5148 567.466 34.5148C572.397 34.5148 576.659 35.2455 580.252 36.7069C583.844 38.0988 586.838 40.0473 589.233 42.5526C591.629 45.0579 593.425 47.9808 594.622 51.3211C595.89 54.6615 596.63 58.2455 596.841 62.073C596.912 64.0216 596.947 66.1789 596.947 68.545C597.018 70.9111 597.018 73.2773 596.947 75.6434C596.947 77.9399 596.912 80.0276 596.841 81.9066C596.63 85.7341 595.926 89.3529 594.728 92.7629C593.531 96.1033 591.734 99.0609 589.339 101.636C587.014 104.141 584.021 106.124 580.357 107.586C576.765 108.978 572.468 109.674 567.466 109.674ZM567.466 96.1033C571.552 96.1033 574.546 94.781 576.448 92.1365C578.35 89.4921 579.371 85.9081 579.512 81.3847C579.583 79.3665 579.618 77.2788 579.618 75.1214C579.688 72.9641 579.688 70.8068 579.618 68.6494C579.618 66.4921 579.583 64.4739 579.512 62.595C579.371 58.2803 578.35 54.7659 576.448 52.0519C574.546 49.3378 571.552 47.946 567.466 47.8764C563.31 47.946 560.281 49.3378 558.379 52.0519C556.547 54.7659 555.561 58.2803 555.42 62.595C555.35 64.4739 555.279 66.4921 555.209 68.6494C555.209 70.8068 555.209 72.9641 555.209 75.1214C555.279 77.2788 555.35 79.3665 555.42 81.3847C555.561 85.9081 556.582 89.4921 558.484 92.1365C560.386 94.781 563.38 96.1033 567.466 96.1033Z" fill="#FFC131"/>
</svg>
