<svg width="210" height="225" fill="none" xmlns="http://www.w3.org/2000/svg"><path d="M104.071 9.063 10.676 43.78l94.327 42.966a1 1 0 0 0 .827 0l94.365-42.759-95.432-34.926a1 1 0 0 0-.692.002Zm.758 206.678c22.922-10.808 40.601-29.181 54.171-49.982l-53.136-26.601a1 1 0 0 0-.895 0L50.72 166.165c.842 1.33 1.7 2.649 2.575 3.956C66.33 189.609 82.943 206.373 104 215.75a1 1 0 0 0 .829-.009Z" fill="#EFD3AF"/><path d="M159 165.759c32.428-49.709 41.384-113.286 42.329-120.625.059-.459-.219-.812-.653-.97l-.481-.177-94.365 42.76a1 1 0 0 1-.827-.001L10.676 43.78l-1.018.379c-.435.161-.712.517-.65.976 1.005 7.39 10.46 71.677 41.712 121.03l54.249-27.007a1 1 0 0 1 .895 0L159 165.759Z" fill="#fff"/><path d="m9.658 44.159 2.961 7.967-2.961-7.967ZM104.07 9.063l-2.962-7.968 2.962 7.968Zm.692-.002-2.922 7.982 2.922-7.982Zm95.913 35.102 2.921-7.982-2.921 7.982Zm.653.971 8.431 1.086-8.431-1.086Zm-96.5 170.607-3.625-7.688 3.625 7.688Zm-.829.009-3.458 7.765h.001L104 215.75ZM9.009 45.135l8.422-1.144-8.422 1.144Zm95.994 41.61 3.523-7.735-3.523 7.736Zm.827.002 3.508 7.742-3.508-7.742Zm.034 52.411 3.805-7.601-.004-.002-3.801 7.603ZM159 165.759l7.119 4.644-7.119-4.644Zm-108.28.406-7.181 4.547 7.181-4.547Zm54.249-27.007 3.788 7.609.007-.003.007-.004-3.802-7.602Zm-51.674 30.963 7.065-4.725-7.065 4.725ZM192.899 44.048c-.631 4.897-5.22 37.626-19.111 73.484-14.007 36.156-36.751 73.625-72.584 90.521l7.25 15.376c41.866-19.74 66.702-62.369 81.186-99.756 14.599-37.684 19.41-71.94 20.12-77.453l-16.861-2.172Zm-91.695 164.005a7.5 7.5 0 0 1 6.254-.068l-6.915 15.53a9.498 9.498 0 0 0 7.911-.086l-7.25-15.376Zm96.55-155.908a7.445 7.445 0 0 1-3.518-2.717 7.666 7.666 0 0 1-1.337-5.38l16.861 2.172c.685-5.323-2.953-8.864-6.163-10.04l-5.843 15.965ZM107.032 17.03a7.5 7.5 0 0 1-5.191.013l5.843-15.964a9.5 9.5 0 0 0-6.575.016l5.923 15.935ZM6.696 36.191C3.486 37.385-.137 40.954.586 46.28l16.845-2.288a7.669 7.669 0 0 1-1.303 5.394 7.444 7.444 0 0 1-3.509 2.74L6.696 36.192Zm95.362 110.568 53.137 26.601 7.61-15.202-53.136-26.601-7.611 15.202Zm7.607-15.204a9.502 9.502 0 0 0-8.497 0l7.603 15.205a7.5 7.5 0 0 1-6.709 0l7.603-15.205Zm-8.186-37.074a9.5 9.5 0 0 0 7.859.008l-7.016-15.485a7.499 7.499 0 0 1 6.204.006l-7.047 15.471Zm-46.97 79.293 54.248-27.007-7.576-15.218-54.25 27.006 7.577 15.219Zm46.6-172.679L7.714 35.813l5.923 15.934 93.395-34.717-5.923-15.935ZM7.152 51.515l94.327 42.966 7.047-15.47-94.327-42.966-7.047 15.47ZM109.338 94.49l94.366-42.76-7.017-15.484-94.365 42.76 7.016 15.484Zm93.779-58.484L107.684 1.08l-5.843 15.964 95.433 34.927 5.843-15.965Zm-5.843 15.965.48.175 5.843-15.964-.48-.176-5.843 15.965Zm-184.655.156 1.018-.379-5.923-15.934-1.018.378 5.923 15.935Zm95.835 171.303c24.776-11.682 43.539-31.371 57.665-53.026l-14.238-9.288c-13.013 19.947-29.61 37.004-50.677 46.938l7.25 15.376Zm-64.915-52.717c.88 1.389 1.776 2.768 2.69 4.135l14.131-9.451a180.577 180.577 0 0 1-2.459-3.779l-14.362 9.095Zm2.69 4.135c13.592 20.319 31.323 38.43 54.313 48.668l6.916-15.53c-19.124-8.516-34.619-23.933-47.098-42.589l-14.13 9.451Zm14.131-9.451C28.227 117.355 18.451 51.501 17.431 43.991L.586 46.28c1.042 7.668 11.153 77.004 45.644 128.568l14.13-9.451Zm105.759 5.007c33.552-51.433 42.674-116.68 43.641-124.183l-16.861-2.172c-.924 7.175-9.715 69.081-41.018 117.067l14.238 9.288ZM.586 46.28c1.02 7.506 10.64 73.406 42.953 124.432l14.362-9.095C27.708 113.939 18.42 51.263 17.431 43.991L.586 46.28Z" fill="#2B6063"/><circle cx="105" cy="115" r="43" fill="#19A24A" stroke="#2B6063" stroke-width="9"/></svg>