<svg width="210" height="225" fill="none" xmlns="http://www.w3.org/2000/svg"><path d="M104.154 9.129 9.741 44.224c-.434.162-.711.518-.649.977 1.435 10.558 20.121 137.273 94.992 170.615.263.117.568.113.828-.009 77.701-36.636 95.16-160.197 96.501-170.607.059-.459-.219-.812-.654-.971L104.846 9.127a1 1 0 0 0-.692.002Z" fill="#BCE7F2" stroke="#2B6063" stroke-width="17"/><path d="M103.049 50.927c.299-.921 1.603-.921 1.902 0l11.397 35.077a1 1 0 0 0 .951.691h36.882c.969 0 1.372 1.24.588 1.81l-29.838 21.678a.999.999 0 0 0-.363 1.118l11.397 35.077c.299.921-.755 1.687-1.539 1.118l-29.838-21.679a1.003 1.003 0 0 0-1.176 0l-29.838 21.679c-.784.569-1.838-.197-1.539-1.118l11.397-35.077a1 1 0 0 0-.363-1.118L53.231 88.504c-.784-.57-.381-1.809.587-1.809h36.883a1 1 0 0 0 .95-.69l11.398-35.078Z" fill="#fff" stroke="#2B6063" stroke-width="9"/></svg>