<svg width="226" height="226" fill="none" xmlns="http://www.w3.org/2000/svg"><path d="M152.8 82.7a21.6 21.6 0 1 1-43.3 0 21.6 21.6 0 0 1 43.3 0Zm-36.3 60.6a21.6 21.6 0 1 1-43.2 0 21.6 21.6 0 0 1 43.2 0Z" fill="#000"/><path d="M78.4 63.3a81.8 81.8 0 1 0 94.7 104.3 95 95 0 0 1-31.4 9.2A57.6 57.6 0 1 1 75 89.3a59 59 0 0 1 3.4-26Z" fill="#000"/><path fill-rule="evenodd" clip-rule="evenodd" d="M147.6 162.7A81.8 81.8 0 1 0 52.9 58.4a95 95 0 0 1 31.4-9.2 57.6 57.6 0 1 1 66.7 87.5 59 59 0 0 1-3.4 26Z" fill="#000"/><style>path{fill:#000}@media (prefers-color-scheme:dark){path{fill:#fff}}</style></svg>
