<svg width="611" height="360" viewBox="0 0 611 360" fill="none" xmlns="http://www.w3.org/2000/svg">
<path d="M94.4136 0L205.518 17.4897L154.35 102.711L43.2449 85.2209L94.4136 0ZM80.8552 75.8027C80.9079 80.2157 83.7943 84.2974 92.1272 85.6091C101.386 87.0666 110.018 84.2798 114.992 75.9945L131.423 48.6291L120.93 46.9773L104.613 74.1533C102.168 78.2249 99.3824 78.9264 95.9876 78.392C92.4075 77.8285 92.0632 75.7015 91.7327 73.2139L80.8552 75.8027ZM118.278 80.7609C118.579 85.8866 122.681 90.4188 132.434 91.954C142.309 93.5087 152.076 90.745 156.425 83.5012C160.433 76.8256 157.225 73.0558 150.099 68.7213L148.018 67.461C144.393 65.284 143.077 63.9885 144.498 61.6213C145.664 59.6801 148.487 58.4663 151.573 58.9521C154.536 59.4185 155.914 60.7237 156.226 63.4674L166.785 60.6213C166.119 55.5417 162.356 53.0321 155.752 51.9924C146.431 50.5252 137.715 54.1278 134.105 60.1406C130.182 66.6742 133.334 70.5387 139.386 74.1861L141.467 75.4464C145.315 77.814 147.557 79.2552 145.908 82.0012C144.544 84.2737 140.771 85.4936 136.451 84.8134C131.328 84.0069 129.587 81.5047 129.071 78.3142L118.278 80.7609Z" fill="#ECDC68"/>
<path d="M233.295 21.8621L344.399 39.3519L293.231 124.573L182.126 107.083L233.295 21.8621ZM257.159 102.623C257.46 107.749 261.562 112.281 271.315 113.816C281.19 115.371 290.957 112.607 295.306 105.363C299.314 98.6877 296.106 94.918 288.98 90.5834L286.899 89.3231C283.274 87.1461 281.958 85.8507 283.379 83.4834C284.545 81.5423 287.368 80.3284 290.454 80.8143C293.417 81.2807 294.795 82.5858 295.107 85.3296L305.666 82.4834C305 77.4039 301.237 74.8942 294.633 73.8546C285.312 72.3874 276.596 75.99 272.986 82.0028C269.063 88.5364 272.215 92.4009 278.267 96.0482L280.348 97.3085C284.196 99.6761 286.438 101.117 284.789 103.863C283.425 106.136 279.652 107.356 275.332 106.676C270.208 105.869 268.468 103.367 267.952 100.176L257.159 102.623ZM271.567 70.6382L240.705 65.78L236.441 72.8817L245.699 74.3392L225.09 108.664L235.892 110.365L256.501 76.0396L267.303 77.74L271.567 70.6382Z" fill="#3478C6"/>
<path d="M400.216 81.8951L413.971 84.0605C422.437 85.3931 418.538 91.8861 410.073 90.5536L396.317 88.3882L400.216 81.8951ZM349.382 106.762L391.708 113.424L397.069 104.497L387.545 102.997L391.444 96.5044L402.025 98.1701C413.665 100.002 398.057 114.424 407.58 115.923L434.034 120.087L443.293 104.666L436.944 103.667L435.969 105.29C432.071 111.783 423.035 109.472 424.413 105.248C425.792 101.023 423.508 97.1102 422.45 96.9437C442.221 92.9492 440.495 78.464 427.797 76.4652L378.065 68.6365L372.704 77.5644L383.285 79.23L370.615 100.332L354.743 97.8338L349.382 106.762Z" fill="#F6F6F6"/>
<path fill-rule="evenodd" clip-rule="evenodd" d="M377.535 68.5532C377.67 68.3291 378.016 68.1846 378.308 68.2306L428.041 76.0594C434.618 77.0948 438.35 81.357 437.88 85.8915C437.645 88.1681 436.348 90.5238 433.809 92.571C431.464 94.4617 428.096 96.0589 423.618 97.0955C423.722 97.2047 423.825 97.3279 423.926 97.4626C424.287 97.9455 424.641 98.6078 424.913 99.3925C425.458 100.96 425.695 103.057 424.98 105.25C424.372 107.113 426.062 108.608 428.428 108.878C429.591 109.011 430.881 108.84 432.095 108.283C433.309 107.726 434.512 106.753 435.44 105.207L436.415 103.584C436.549 103.359 436.895 103.215 437.188 103.261L443.536 104.26C443.829 104.306 443.956 104.525 443.822 104.75L434.563 120.171C434.428 120.395 434.082 120.539 433.79 120.493L407.337 116.329C406.046 116.126 405.151 115.697 404.577 115.085C404.009 114.478 403.78 113.716 403.749 112.879C403.695 111.392 404.27 109.573 404.837 107.782C404.901 107.578 404.965 107.376 405.028 107.174C405.66 105.152 406.194 103.205 405.887 101.652C405.736 100.885 405.38 100.227 404.741 99.7082C404.102 99.1899 403.158 98.7925 401.782 98.5759L391.729 96.9935L388.318 102.675L397.312 104.091C397.604 104.137 397.732 104.356 397.598 104.58L392.237 113.508C392.103 113.732 391.757 113.876 391.464 113.83L349.139 107.168C348.847 107.122 348.719 106.903 348.853 106.678L354.214 97.7505C354.348 97.5264 354.694 97.382 354.987 97.428L370.33 99.8433L382.513 79.5526L372.46 77.9702C372.168 77.9242 372.04 77.7052 372.175 77.4811L377.535 68.5532ZM378.35 69.1256L373.477 77.2418L383.529 78.8242C383.821 78.8702 383.949 79.0892 383.814 79.3133L371.144 100.416C371.01 100.64 370.664 100.784 370.371 100.738L355.028 98.3229L350.155 106.439L391.423 112.935L396.296 104.819L387.302 103.403C387.009 103.357 386.882 103.138 387.016 102.914L390.915 96.4212C391.049 96.197 391.395 96.0526 391.688 96.0986L402.269 97.7643C403.803 98.0058 404.917 98.46 405.69 99.0869C406.462 99.7131 406.871 100.494 407.042 101.36C407.38 103.073 406.789 105.169 406.164 107.169C406.102 107.37 406.039 107.57 405.976 107.768C405.402 109.585 404.864 111.293 404.914 112.67C404.941 113.424 405.146 114.049 405.592 114.525C406.033 114.996 406.733 115.346 407.824 115.517L433.748 119.598L442.52 104.989L437.229 104.156L436.498 105.373C435.478 107.074 434.089 108.246 432.555 108.95C431.022 109.654 429.408 109.859 427.997 109.698C425.215 109.38 423.076 107.607 423.847 105.246C424.51 103.213 424.294 101.242 423.778 99.7553C423.52 99.0129 423.19 98.4017 422.869 97.972C422.707 97.7566 422.554 97.5943 422.42 97.4852C422.299 97.3864 422.224 97.357 422.208 97.3508C422.205 97.3494 422.207 97.3495 422.207 97.3495C421.964 97.3113 421.828 97.1512 421.878 96.9613C421.928 96.7714 422.15 96.6003 422.416 96.5464C427.253 95.5691 430.714 93.9636 433.015 92.1086C435.316 90.254 436.502 88.1144 436.718 86.0206C437.154 81.8142 433.674 77.8344 427.553 76.871L378.35 69.1256ZM399.687 81.8119C399.821 81.5877 400.167 81.4433 400.459 81.4893L414.215 83.6547C418.589 84.3432 420.07 86.4418 418.9 88.3897C417.731 90.3377 414.203 91.6479 409.829 90.9594L396.073 88.794C395.781 88.748 395.653 88.529 395.788 88.3049L399.687 81.8119ZM400.501 82.3842L397.09 88.0656L410.317 90.1477C414.408 90.7918 417.062 89.5218 417.842 88.2232C418.622 86.9246 417.819 85.1104 413.728 84.4664L400.501 82.3842Z" fill="#F6F6F6"/>
<path fill-rule="evenodd" clip-rule="evenodd" d="M420.906 63.8319C398.406 60.2902 371.767 71.4091 361.405 88.6667C351.043 105.924 360.883 122.785 383.382 126.327C405.881 129.869 432.52 118.75 442.882 101.492C453.244 84.2349 443.405 67.3737 420.906 63.8319ZM351.882 87.1676C364.666 65.8757 397.533 52.1576 425.291 56.5273C453.05 60.897 465.19 81.6997 452.405 102.992C439.621 124.283 406.755 138.002 378.996 133.632C351.237 129.262 339.098 108.459 351.882 87.1676Z" fill="#F6F6F6"/>
<path d="M449.356 105.177L456.109 103.575L452.28 100.307L449.356 105.177Z" fill="#F6F6F6"/>
<path fill-rule="evenodd" clip-rule="evenodd" d="M452.134 99.1243C452.762 98.9866 453.369 99.0886 453.724 99.3915L457.552 102.659C457.898 102.954 457.953 103.397 457.696 103.824C457.439 104.252 456.909 104.602 456.299 104.747L449.546 106.349C448.92 106.498 448.306 106.407 447.938 106.113C447.57 105.819 447.506 105.365 447.769 104.927L450.693 100.057C450.956 99.6184 451.507 99.2621 452.134 99.1243ZM452.576 102.707L452.234 103.276L453.024 103.089L452.576 102.707Z" fill="#F6F6F6"/>
<path d="M443.456 112.169L450.223 111.487L447.563 107.588L443.456 112.169Z" fill="#F6F6F6"/>
<path fill-rule="evenodd" clip-rule="evenodd" d="M447.759 106.353C448.385 106.301 448.924 106.492 449.171 106.854L451.831 110.753C452.072 111.105 451.998 111.567 451.637 111.969C451.277 112.372 450.682 112.655 450.071 112.717L443.304 113.399C442.677 113.462 442.128 113.282 441.866 112.928C441.605 112.573 441.673 112.099 442.042 111.686L446.149 107.105C446.519 106.692 447.134 106.405 447.759 106.353ZM447.164 110.093L446.684 110.629L447.475 110.549L447.164 110.093Z" fill="#F6F6F6"/>
<path d="M435.969 118.504L442.49 118.768L441.1 114.388L435.969 118.504Z" fill="#F6F6F6"/>
<path fill-rule="evenodd" clip-rule="evenodd" d="M441.632 113.149C442.231 113.185 442.682 113.458 442.811 113.864L444.201 118.244C444.326 118.64 444.127 119.104 443.677 119.465C443.226 119.827 442.59 120.033 442.001 120.009L435.48 119.745C434.875 119.721 434.413 119.458 434.268 119.057C434.124 118.655 434.32 118.178 434.782 117.808L439.913 113.691C440.375 113.32 441.032 113.113 441.632 113.149ZM440.021 116.902L439.421 117.383L440.184 117.414L440.021 116.902Z" fill="#F6F6F6"/>
<path d="M427.182 123.939L433.206 125.14L433.14 120.446L427.182 123.939Z" fill="#F6F6F6"/>
<path fill-rule="evenodd" clip-rule="evenodd" d="M433.986 119.25C434.537 119.372 434.881 119.717 434.888 120.152L434.954 124.846C434.96 125.27 434.643 125.717 434.12 126.024C433.597 126.331 432.943 126.452 432.399 126.343L426.375 125.143C425.816 125.032 425.457 124.696 425.435 124.264C425.413 123.832 425.732 123.37 426.268 123.055L432.227 119.562C432.763 119.247 433.435 119.128 433.986 119.25ZM431.423 122.872L430.726 123.281L431.431 123.421L431.423 122.872Z" fill="#F6F6F6"/>
<path d="M417.432 128.266L422.729 130.356L423.989 125.529L417.432 128.266Z" fill="#F6F6F6"/>
<path fill-rule="evenodd" clip-rule="evenodd" d="M425.117 124.422C425.598 124.626 425.823 125.029 425.706 125.476L424.446 130.303C424.332 130.739 423.91 131.153 423.334 131.393C422.759 131.634 422.113 131.665 421.635 131.476L416.338 129.386C415.847 129.192 415.606 128.797 415.708 128.35C415.809 127.903 416.236 127.475 416.827 127.228L423.384 124.491C423.974 124.245 424.636 124.219 425.117 124.422ZM421.699 127.775L420.933 128.095L421.552 128.339L421.699 127.775Z" fill="#F6F6F6"/>
<path d="M407.095 131.317L411.46 134.216L413.999 129.442L407.095 131.317Z" fill="#F6F6F6"/>
<path fill-rule="evenodd" clip-rule="evenodd" d="M415.365 128.467C415.758 128.745 415.855 129.19 415.62 129.632L413.081 134.407C412.852 134.838 412.341 135.203 411.734 135.367C411.128 135.532 410.516 135.472 410.121 135.21L405.756 132.311C405.352 132.042 405.238 131.601 405.458 131.157C405.679 130.713 406.2 130.334 406.821 130.165L413.725 128.291C414.346 128.122 414.973 128.189 415.365 128.467ZM411.224 131.421L410.417 131.64L410.928 131.979L411.224 131.421Z" fill="#F6F6F6"/>
<path d="M396.568 132.975L399.834 136.573L403.553 132.035L396.568 132.975Z" fill="#F6F6F6"/>
<path fill-rule="evenodd" clip-rule="evenodd" d="M405.105 131.229C405.394 131.57 405.359 132.04 405.015 132.461L401.296 136.999C400.96 137.409 400.379 137.71 399.766 137.793C399.153 137.876 398.597 137.727 398.302 137.402L395.036 133.804C394.733 133.471 394.751 133.002 395.082 132.578C395.413 132.154 396.007 131.839 396.636 131.754L403.62 130.814C404.25 130.729 404.817 130.888 405.105 131.229ZM400.401 133.67L399.584 133.78L399.966 134.201L400.401 133.67Z" fill="#F6F6F6"/>
<path d="M386.255 133.177L388.296 137.335L393.052 133.207L386.255 133.177Z" fill="#F6F6F6"/>
<path fill-rule="evenodd" clip-rule="evenodd" d="M394.732 132.601C394.906 132.992 394.741 133.47 394.3 133.853L389.544 137.98C389.114 138.353 388.486 138.58 387.889 138.577C387.292 138.575 386.814 138.343 386.629 137.967L384.588 133.81C384.399 133.424 384.548 132.946 384.977 132.558C385.406 132.17 386.05 131.931 386.662 131.934L393.46 131.964C394.072 131.967 394.558 132.21 394.732 132.601ZM389.644 134.436L388.849 134.433L389.088 134.919L389.644 134.436Z" fill="#F6F6F6"/>
<path d="M376.553 131.915L377.29 136.473L382.901 132.914L376.553 131.915Z" fill="#F6F6F6"/>
<path fill-rule="evenodd" clip-rule="evenodd" d="M384.643 132.532C384.695 132.958 384.406 133.425 383.886 133.755L378.275 137.313C377.768 137.635 377.117 137.778 376.559 137.69C376.002 137.602 375.62 137.297 375.553 136.885L374.815 132.327C374.747 131.904 375.021 131.435 375.531 131.097C376.042 130.76 376.712 130.607 377.284 130.697L383.632 131.697C384.204 131.787 384.59 132.106 384.643 132.532ZM379.367 133.69L378.625 133.573L378.711 134.106L379.367 133.69Z" fill="#F6F6F6"/>
<path d="M367.834 129.237L367.24 134.02L373.49 131.167L367.834 129.237Z" fill="#F6F6F6"/>
<path fill-rule="evenodd" clip-rule="evenodd" d="M375.226 131.023C375.155 131.468 374.754 131.906 374.174 132.17L367.924 135.023C367.359 135.281 366.71 135.335 366.213 135.165C365.717 134.996 365.445 134.628 365.499 134.195L366.093 129.413C366.148 128.969 366.536 128.526 367.109 128.253C367.682 127.979 368.351 127.918 368.86 128.092L374.517 130.022C375.026 130.196 375.297 130.578 375.226 131.023ZM369.966 131.46L369.305 131.235L369.235 131.794L369.966 131.46Z" fill="#F6F6F6"/>
<path d="M360.433 125.247L358.531 130.071L365.18 128.034L360.433 125.247Z" fill="#F6F6F6"/>
<path fill-rule="evenodd" clip-rule="evenodd" d="M366.844 128.133C366.653 128.579 366.154 128.972 365.537 129.161L358.888 131.198C358.287 131.382 357.665 131.345 357.248 131.1C356.831 130.855 356.681 130.439 356.853 130.003L358.756 125.179C358.932 124.732 359.42 124.332 360.032 124.133C360.645 123.935 361.288 123.967 361.716 124.218L366.462 127.005C366.89 127.256 367.036 127.687 366.844 128.133ZM361.801 127.832L361.246 127.507L361.024 128.071L361.801 127.832Z" fill="#F6F6F6"/>
<path d="M354.636 120.097L351.497 124.777L358.29 123.634L354.636 120.097Z" fill="#F6F6F6"/>
<path fill-rule="evenodd" clip-rule="evenodd" d="M359.819 123.973C359.514 124.404 358.937 124.735 358.307 124.841L351.514 125.985C350.901 126.088 350.329 125.961 350.008 125.65C349.687 125.34 349.664 124.891 349.948 124.468L353.086 119.789C353.377 119.355 353.945 119.014 354.574 118.898C355.204 118.781 355.796 118.905 356.125 119.224L359.78 122.76C360.109 123.079 360.124 123.542 359.819 123.973ZM355.187 122.946L354.76 122.532L354.393 123.079L355.187 122.946Z" fill="#F6F6F6"/>
<path d="M350.664 113.986L346.411 118.342L353.086 118.136L350.664 113.986Z" fill="#F6F6F6"/>
<path fill-rule="evenodd" clip-rule="evenodd" d="M354.42 118.702C354.014 119.101 353.38 119.359 352.761 119.378L346.086 119.584C345.483 119.602 344.984 119.391 344.771 119.026C344.559 118.662 344.664 118.198 345.048 117.804L349.301 113.449C349.695 113.045 350.323 112.777 350.944 112.746C351.566 112.716 352.085 112.928 352.303 113.302L354.725 117.452C354.943 117.826 354.826 118.304 354.42 118.702ZM350.377 116.988L350.094 116.503L349.597 117.012L350.377 116.988Z" fill="#F6F6F6"/>
<path d="M348.67 107.149L343.466 111.013L349.766 111.753L348.67 107.149Z" fill="#F6F6F6"/>
<path fill-rule="evenodd" clip-rule="evenodd" d="M350.855 112.524C350.363 112.875 349.697 113.05 349.113 112.981L342.813 112.241C342.243 112.174 341.836 111.886 341.74 111.482C341.643 111.077 341.872 110.616 342.343 110.267L347.547 106.403C348.03 106.045 348.692 105.859 349.282 105.916C349.872 105.974 350.297 106.265 350.396 106.68L351.492 111.284C351.591 111.699 351.347 112.173 350.855 112.524ZM347.557 110.189L347.428 109.65L346.82 110.102L347.557 110.189Z" fill="#F6F6F6"/>
<path d="M348.732 99.8473L342.775 103.072L348.46 104.729L348.732 99.8473Z" fill="#F6F6F6"/>
<path fill-rule="evenodd" clip-rule="evenodd" d="M349.261 105.675C348.702 105.965 348.03 106.05 347.503 105.896L341.819 104.239C341.305 104.089 341.005 103.735 341.029 103.307C341.053 102.878 341.397 102.437 341.935 102.146L347.892 98.9218C348.444 98.623 349.116 98.5266 349.651 98.6695C350.186 98.8125 350.502 99.1726 350.478 99.6123L350.206 104.494C350.182 104.933 349.821 105.385 349.261 105.675ZM346.834 102.808L346.866 102.238L346.169 102.615L346.834 102.808Z" fill="#F6F6F6"/>
<path d="M350.846 92.3627L344.367 94.8232L349.217 97.3339L350.846 92.3627Z" fill="#F6F6F6"/>
<path fill-rule="evenodd" clip-rule="evenodd" d="M349.699 98.4191C349.094 98.6373 348.443 98.6284 347.993 98.3957L343.143 95.885C342.705 95.6581 342.524 95.2522 342.667 94.8156C342.811 94.3791 343.256 93.9759 343.842 93.7536L350.321 91.2932C350.921 91.0651 351.577 91.062 352.037 91.285C352.498 91.5079 352.692 91.9225 352.545 92.3703L350.916 97.3414C350.769 97.7892 350.305 98.2009 349.699 98.4191ZM348.237 95.1314L348.427 94.5502L347.67 94.8378L348.237 95.1314Z" fill="#F6F6F6"/>
<path d="M354.931 84.9825L348.179 86.5846L352.007 89.8523L354.931 84.9825Z" fill="#F6F6F6"/>
<path fill-rule="evenodd" clip-rule="evenodd" d="M352.153 91.0348C351.526 91.1726 350.919 91.0706 350.564 90.7677L346.735 87.5C346.389 87.2047 346.335 86.7624 346.591 86.3347C346.848 85.9071 347.379 85.5568 347.989 85.4121L354.741 83.81C355.367 83.6616 355.981 83.7518 356.349 84.0462C356.717 84.3407 356.782 84.7938 356.518 85.2324L353.594 90.1021C353.331 90.5408 352.781 90.897 352.153 91.0348ZM351.711 87.4522L352.053 86.8829L351.263 87.0702L351.711 87.4522Z" fill="#F6F6F6"/>
<path d="M360.831 77.9904L354.064 78.6724L356.725 82.5716L360.831 77.9904Z" fill="#F6F6F6"/>
<path fill-rule="evenodd" clip-rule="evenodd" d="M356.528 83.806C355.902 83.858 355.363 83.6668 355.117 83.3054L352.456 79.4062C352.216 79.0539 352.289 78.5922 352.65 78.1899C353.011 77.7876 353.605 77.5037 354.217 77.4421L360.984 76.76C361.611 76.6968 362.16 76.8769 362.421 77.2315C362.682 77.5861 362.615 78.0603 362.245 78.4729L358.139 83.0541C357.769 83.4668 357.154 83.754 356.528 83.806ZM357.124 80.0662L357.604 79.5306L356.813 79.6104L357.124 80.0662Z" fill="#F6F6F6"/>
<path d="M368.318 71.6549L361.797 71.3908L363.187 75.7715L368.318 71.6549Z" fill="#F6F6F6"/>
<path fill-rule="evenodd" clip-rule="evenodd" d="M362.656 77.0104C362.056 76.9746 361.606 76.7016 361.477 76.2956L360.087 71.9148C359.961 71.519 360.16 71.0556 360.611 70.6941C361.061 70.3326 361.697 70.126 362.287 70.1498L368.808 70.414C369.412 70.4384 369.875 70.7015 370.019 71.1026C370.164 71.5037 369.967 71.9809 369.505 72.3517L364.374 76.4683C363.912 76.839 363.256 77.0461 362.656 77.0104ZM364.266 73.2571L364.866 72.7759L364.104 72.745L364.266 73.2571Z" fill="#F6F6F6"/>
<path d="M377.106 66.2197L371.081 65.0195L371.147 69.7135L377.106 66.2197Z" fill="#F6F6F6"/>
<path fill-rule="evenodd" clip-rule="evenodd" d="M370.301 70.9092C369.75 70.787 369.406 70.4426 369.4 70.0076L369.334 65.3136C369.328 64.8895 369.644 64.4422 370.167 64.1354C370.691 63.8286 371.344 63.7072 371.888 63.8157L377.913 65.0158C378.471 65.1271 378.83 65.463 378.852 65.8952C378.874 66.3274 378.556 66.7891 378.019 67.1038L372.061 70.5976C371.524 70.9123 370.852 71.0313 370.301 70.9092ZM372.865 67.2867L373.561 66.8783L372.857 66.7379L372.865 67.2867Z" fill="#F6F6F6"/>
<path d="M386.855 61.8935L381.559 59.8034L380.298 64.6303L386.855 61.8935Z" fill="#F6F6F6"/>
<path fill-rule="evenodd" clip-rule="evenodd" d="M379.17 65.7368C378.689 65.533 378.464 65.1305 378.581 64.6831L379.841 59.8563C379.955 59.4202 380.377 59.0062 380.953 58.7659C381.529 58.5256 382.174 58.4941 382.653 58.6829L387.949 60.773C388.44 60.9667 388.681 61.3626 388.58 61.8093C388.479 62.256 388.051 62.6845 387.461 62.931L380.904 65.6678C380.313 65.9143 379.651 65.9407 379.17 65.7368ZM382.588 62.3843L383.355 62.0644L382.735 61.82L382.588 62.3843Z" fill="#F6F6F6"/>
<path d="M397.192 58.8427L392.827 55.943L390.289 60.7172L397.192 58.8427Z" fill="#F6F6F6"/>
<path fill-rule="evenodd" clip-rule="evenodd" d="M388.922 61.6921C388.53 61.4144 388.433 60.9693 388.668 60.5268L391.206 55.7526C391.436 55.3212 391.947 54.9565 392.553 54.7919C393.159 54.6273 393.772 54.6869 394.166 54.9489L398.531 57.8486C398.936 58.1173 399.049 58.5579 398.829 59.002C398.609 59.446 398.088 59.8249 397.466 59.9937L390.563 61.8682C389.941 62.0371 389.314 61.9698 388.922 61.6921ZM393.063 58.7384L393.87 58.5193L393.36 58.1803L393.063 58.7384Z" fill="#F6F6F6"/>
<path d="M407.719 57.1844L404.454 53.5865L400.735 58.1246L407.719 57.1844Z" fill="#F6F6F6"/>
<path fill-rule="evenodd" clip-rule="evenodd" d="M399.182 58.9304C398.893 58.5896 398.928 58.1189 399.273 57.6983L402.991 53.1602C403.327 52.7502 403.908 52.4487 404.522 52.3662C405.135 52.2836 405.691 52.432 405.986 52.7571L409.252 56.3549C409.554 56.6884 409.537 57.1568 409.205 57.5811C408.874 58.0054 408.281 58.3201 407.651 58.4047L400.667 59.345C400.038 59.4297 399.471 59.2713 399.182 58.9304ZM403.887 56.4891L404.703 56.3791L404.322 55.9585L403.887 56.4891Z" fill="#F6F6F6"/>
<path d="M418.032 56.9824L415.991 52.8246L411.235 56.9522L418.032 56.9824Z" fill="#F6F6F6"/>
<path fill-rule="evenodd" clip-rule="evenodd" d="M409.556 57.558C409.382 57.167 409.547 56.6889 409.988 56.3063L414.744 52.1788C415.174 51.8058 415.802 51.5792 416.399 51.5819C416.996 51.5845 417.474 51.816 417.658 52.1917L419.699 56.3494C419.888 56.7348 419.74 57.213 419.311 57.6012C418.881 57.9895 418.237 58.2279 417.625 58.2252L410.828 58.195C410.216 58.1923 409.73 57.9489 409.556 57.558ZM414.644 55.7227L415.438 55.7263L415.2 55.2402L414.644 55.7227Z" fill="#F6F6F6"/>
<path d="M427.735 58.2444L426.997 53.6866L421.386 57.245L427.735 58.2444Z" fill="#F6F6F6"/>
<path fill-rule="evenodd" clip-rule="evenodd" d="M419.645 57.6274C419.592 57.2014 419.881 56.7342 420.401 56.4044L426.012 52.846C426.519 52.5244 427.171 52.3814 427.728 52.4691C428.286 52.5569 428.668 52.8626 428.734 53.2745L429.472 57.8323C429.54 58.2547 429.267 58.7244 428.756 59.0617C428.245 59.399 427.576 59.5519 427.004 59.4619L420.655 58.4625C420.083 58.3724 419.697 58.0535 419.645 57.6274ZM424.92 56.4689L425.663 56.5857L425.576 56.0529L424.92 56.4689Z" fill="#F6F6F6"/>
<path d="M436.454 60.922L437.048 56.1392L430.797 58.9918L436.454 60.922Z" fill="#F6F6F6"/>
<path fill-rule="evenodd" clip-rule="evenodd" d="M429.061 59.1362C429.132 58.6914 429.534 58.2531 430.113 57.9887L436.363 55.1362C436.928 54.8784 437.577 54.8244 438.074 54.9939C438.571 55.1634 438.842 55.5316 438.788 55.9638L438.195 60.7466C438.14 61.1898 437.752 61.6329 437.179 61.9063C436.606 62.1797 435.937 62.2412 435.427 62.0673L429.771 60.1371C429.261 59.9632 428.99 59.5809 429.061 59.1362ZM434.322 58.6988L434.983 58.9244L435.052 58.3653L434.322 58.6988Z" fill="#F6F6F6"/>
<path d="M443.854 64.9123L445.757 60.0883L439.108 62.1254L443.854 64.9123Z" fill="#F6F6F6"/>
<path fill-rule="evenodd" clip-rule="evenodd" d="M437.443 62.0262C437.635 61.5798 438.134 61.1873 438.75 60.9985L445.399 58.9614C446 58.7773 446.623 58.8145 447.04 59.0592C447.456 59.3039 447.606 59.7204 447.434 60.1563L445.532 64.9803C445.356 65.4273 444.868 65.8267 444.255 66.0257C443.642 66.2246 442.999 66.1925 442.572 65.9415L437.825 63.1545C437.397 62.9035 437.252 62.4725 437.443 62.0262ZM442.486 62.3268L443.041 62.6526L443.264 62.0887L442.486 62.3268Z" fill="#F6F6F6"/>
<path d="M449.652 70.0619L452.79 65.3821L445.997 66.5254L449.652 70.0619Z" fill="#F6F6F6"/>
<path fill-rule="evenodd" clip-rule="evenodd" d="M444.469 66.1864C444.773 65.7556 445.351 65.4239 445.98 65.3179L452.773 64.1746C453.387 64.0713 453.959 64.1981 454.28 64.5087C454.6 64.8192 454.623 65.268 454.34 65.6909L451.202 70.3706C450.911 70.8043 450.342 71.1447 449.713 71.2616C449.084 71.3785 448.491 71.2539 448.162 70.9353L444.508 67.3989C444.179 67.0803 444.164 66.6172 444.469 66.1864ZM449.101 67.2135L449.528 67.6269L449.895 67.0798L449.101 67.2135Z" fill="#F6F6F6"/>
<path d="M453.624 76.1729L457.877 71.8172L451.202 72.0227L453.624 76.1729Z" fill="#F6F6F6"/>
<path fill-rule="evenodd" clip-rule="evenodd" d="M449.867 71.457C450.274 71.0583 450.907 70.8001 451.526 70.7811L458.201 70.5755C458.804 70.5569 459.303 70.7685 459.516 71.133C459.729 71.4974 459.624 71.9613 459.239 72.3549L454.986 76.7105C454.592 77.1142 453.964 77.3825 453.343 77.4128C452.722 77.4432 452.203 77.2309 451.984 76.8571L449.563 72.7069C449.345 72.3331 449.461 71.8557 449.867 71.457ZM453.91 73.171L454.194 73.6562L454.691 73.147L453.91 73.171Z" fill="#F6F6F6"/>
<path d="M455.617 83.0105L460.822 79.1462L454.521 78.4061L455.617 83.0105Z" fill="#F6F6F6"/>
<path fill-rule="evenodd" clip-rule="evenodd" d="M453.432 77.6354C453.925 77.2841 454.59 77.1094 455.174 77.178L461.475 77.9181C462.044 77.9849 462.451 78.2732 462.548 78.6776C462.644 79.0819 462.415 79.543 461.945 79.8921L456.74 83.7564C456.258 84.1145 455.595 84.3004 455.005 84.243C454.416 84.1856 453.99 83.8938 453.891 83.4791L452.795 78.8748C452.697 78.4601 452.94 77.9866 453.432 77.6354ZM456.731 79.9705L456.859 80.5088L457.468 80.0571L456.731 79.9705Z" fill="#F6F6F6"/>
<path d="M455.556 90.3118L461.512 87.0875L455.827 85.4303L455.556 90.3118Z" fill="#F6F6F6"/>
<path fill-rule="evenodd" clip-rule="evenodd" d="M455.026 84.4841C455.586 84.1938 456.257 84.1093 456.784 84.2629L462.469 85.9201C462.982 86.0699 463.282 86.4238 463.258 86.8525C463.234 87.2811 462.89 87.7217 462.352 88.0131L456.396 91.2374C455.844 91.5362 455.172 91.6326 454.636 91.4896C454.101 91.3467 453.785 90.9866 453.81 90.5469L454.081 85.6654C454.106 85.2257 454.467 84.7744 455.026 84.4841ZM457.454 87.3507L457.422 87.9213L458.118 87.5444L457.454 87.3507Z" fill="#F6F6F6"/>
<path d="M453.442 97.7964L459.921 95.336L455.071 92.8253L453.442 97.7964Z" fill="#F6F6F6"/>
<path fill-rule="evenodd" clip-rule="evenodd" d="M454.588 91.7401C455.193 91.5218 455.845 91.5308 456.294 91.7635L461.144 94.2742C461.582 94.5011 461.763 94.907 461.62 95.3435C461.477 95.7801 461.031 96.1832 460.446 96.4055L453.967 98.866C453.366 99.094 452.71 99.0972 452.25 98.8742C451.79 98.6512 451.596 98.2366 451.742 97.7889L453.371 92.8177C453.518 92.37 453.983 91.9583 454.588 91.7401ZM456.051 95.0278L455.86 95.609L456.618 95.3213L456.051 95.0278Z" fill="#F6F6F6"/>
<path d="M415.204 59.8252L419.2 66.6726L430.018 62.1572L415.204 59.8252Z" fill="#F6F6F6"/>
<path fill-rule="evenodd" clip-rule="evenodd" d="M412.831 58.4318C413.869 57.5993 415.382 57.1883 416.666 57.3904L431.48 59.7223C432.764 59.9244 433.565 60.6999 433.51 61.6871C433.455 62.6743 432.555 63.6788 431.229 64.2323L420.411 68.7477C418.6 69.5034 416.59 69.187 415.922 68.041L411.926 61.1936C411.436 60.3543 411.793 59.2643 412.831 58.4318Z" fill="#F6F6F6"/>
<path d="M451.691 85.4355L442.637 91.8459L449.78 96.9628L451.691 85.4355Z" fill="#F6F6F6"/>
<path fill-rule="evenodd" clip-rule="evenodd" d="M453.397 83.0474C454.631 83.3261 455.327 84.1593 455.162 85.1584L453.251 96.6856C453.085 97.6847 452.09 98.6529 450.73 99.1388C449.369 99.6247 447.912 99.5326 447.036 98.9054L439.893 93.7886C438.697 92.9321 438.957 91.3682 440.472 90.2953L449.526 83.8849C450.636 83.0992 452.164 82.7686 453.397 83.0474Z" fill="#F6F6F6"/>
<path d="M419.705 124.374L410.114 121.488L403.71 129.166L419.705 124.374Z" fill="#F6F6F6"/>
<path fill-rule="evenodd" clip-rule="evenodd" d="M423.133 124.291C422.858 125.296 421.774 126.222 420.388 126.637L404.393 131.429C403.007 131.845 401.591 131.668 400.805 130.981C400.019 130.294 400.018 129.232 400.803 128.291L407.207 120.614C408.279 119.329 410.449 118.678 412.054 119.161L421.645 122.047C422.821 122.401 423.408 123.286 423.133 124.291Z" fill="#F6F6F6"/>
<path d="M363.45 122.828L366.576 114.635L355.476 114.263L363.45 122.828Z" fill="#F6F6F6"/>
<path fill-rule="evenodd" clip-rule="evenodd" d="M363.862 125.165C362.459 125.508 361.093 125.247 360.402 124.504L352.427 115.939C351.736 115.197 351.855 114.119 352.73 113.209C353.605 112.298 355.062 111.734 356.423 111.78L367.524 112.151C369.382 112.214 370.464 113.376 369.94 114.747L366.814 122.941C366.431 123.945 365.266 124.823 363.862 125.165Z" fill="#F6F6F6"/>
<path d="M360.669 82.9352L372.192 80.7568L371.735 72.8492L360.669 82.9352Z" fill="#F6F6F6"/>
<path fill-rule="evenodd" clip-rule="evenodd" d="M357.495 84.4622C356.903 83.6689 357.142 82.5817 358.101 81.7076L369.168 71.6215C370.127 70.7474 371.617 70.2584 372.943 70.3826C374.27 70.5068 375.171 71.2198 375.227 72.189L375.684 80.0966C375.761 81.4201 374.259 82.7885 372.331 83.1531L360.807 85.3316C359.395 85.5986 358.088 85.2555 357.495 84.4622Z" fill="#F6F6F6"/>
<path d="M514.112 152.559C542.003 156.95 575.027 143.166 587.872 121.772C600.718 100.379 588.52 79.4762 560.629 75.0856C532.737 70.695 499.713 84.4788 486.868 105.872C474.023 127.266 486.22 148.169 514.112 152.559Z" fill="#B3E1CE"/>
<path d="M529.927 126.218C537.737 127.448 546.984 123.588 550.58 117.598C554.177 111.608 550.762 105.755 542.952 104.526C535.143 103.296 525.896 107.156 522.299 113.146C518.703 119.136 522.118 124.989 529.927 126.218Z" fill="#009A5B"/>
<path d="M68.4614 149.982C74.4111 150.918 77.0287 155.404 74.2354 160.056C71.575 164.487 64.4615 167.489 58.5118 166.552C52.562 165.616 49.9711 161.086 52.6314 156.655C55.4247 152.003 62.5116 149.045 68.4614 149.982ZM15.4058 189.591C18.0341 191.848 27.5486 190.533 40.7236 185.333C39.2895 182.246 38.0461 178.946 37.0558 175.541C32.5319 174.441 28.1722 173.173 24.15 171.764C15.5109 180.782 12.6978 187.468 15.4058 189.591ZM34.7773 164.805L34.4589 162.281C33.052 163.466 31.6451 164.651 30.4959 165.828C31.8959 166.339 33.4958 166.834 35.1535 167.337C35.0281 166.493 34.9027 165.649 34.7773 164.805ZM74.5772 167.384L83.2466 161.475L82.5582 154.092C82.2352 151.471 81.6371 149.097 81.2123 146.751C78.1728 146.127 74.8802 145.609 71.4143 145.063C67.9485 144.518 64.6559 144 61.4568 143.641C58.5312 145.46 55.4324 147.252 52.2895 149.327L43.6201 155.237L44.3086 162.619C44.6316 165.24 45.2297 167.614 45.6545 169.96C48.694 170.584 51.9866 171.102 55.4524 171.648C58.9183 172.193 62.2109 172.712 65.41 173.07C68.3355 171.251 71.4343 169.46 74.5772 167.384ZM77.3202 135.227C75.6374 136.029 73.8703 136.866 71.9967 137.881C73.152 138.063 74.2495 138.235 75.4048 138.417C76.5601 138.599 77.6576 138.772 78.8129 138.954C78.3759 137.576 77.8325 136.375 77.3202 135.227ZM49.5465 181.484C51.2293 180.682 52.9965 179.845 54.8701 178.83C53.7148 178.648 52.6173 178.476 51.462 178.294C50.3067 178.112 49.2091 177.939 48.0538 177.757C48.4909 179.136 49.0343 180.336 49.5465 181.484ZM111.403 127.111C108.833 124.863 99.3182 126.178 86.1431 131.379C87.5773 134.466 88.8207 137.765 89.811 141.17C94.3348 142.27 98.6946 143.538 102.717 144.947C111.356 135.929 114.169 129.244 111.403 127.111ZM92.0894 151.907L92.4078 154.43C93.8147 153.245 95.2216 152.06 96.3709 150.883C94.9708 150.372 93.3709 149.878 91.7132 149.374C91.8386 150.218 91.964 151.063 92.0894 151.907ZM119.221 121.989C125.477 127.047 120.522 136.984 110.077 147.852C122.754 153.485 130.026 160.643 125.53 168.131C121.034 175.619 107.165 179.449 90.4972 180.462C87.215 192.457 80.4115 202.104 69.6854 204.489C59.0171 206.883 50.0759 200.82 43.8535 190.966C27.8943 197.328 13.8452 199.772 7.58849 194.714C1.38952 189.664 6.34458 179.727 16.7896 168.859C4.11263 163.227 -3.1595 156.068 1.33643 148.581C5.83236 141.093 19.7021 137.263 36.3695 136.249C39.6517 124.254 46.4553 114.608 57.1236 112.213C67.8496 109.828 76.7909 115.891 83.0133 125.745C98.9725 119.383 113.022 116.939 119.221 121.989ZM92.7778 162.975C92.7466 166.607 92.4843 170.203 91.9065 173.798C105.713 172.916 114.924 170.001 116.866 166.767C118.808 163.532 114.386 158.472 103.931 153.771C100.465 156.911 96.737 159.961 92.7778 162.975ZM34.089 153.736C34.1202 150.104 34.3825 146.508 34.9602 142.914C21.1537 143.795 11.9432 146.71 10.0011 149.944C8.05909 153.179 12.481 158.24 22.9356 162.94C26.4016 159.8 30.1297 156.75 34.089 153.736ZM80.0648 171.934C79.0349 172.596 78.005 173.258 76.9751 173.92C78.8988 173.981 80.7648 174.032 82.484 174.012C82.8246 172.707 82.9606 171.322 83.0967 169.938L80.0648 171.934ZM52.6231 187.206C57.8172 195.298 64.2458 199.122 68.8381 198.002C73.4661 197.034 78.4743 190.693 81.2214 180.748C76.3479 180.756 71.3497 180.552 66.4002 180.16C61.8451 182.693 57.1965 185.064 52.6231 187.206ZM46.802 144.778C47.8319 144.115 48.8618 143.453 49.8917 142.791C47.9679 142.73 46.102 142.679 44.3827 142.7C44.0422 144.004 43.9061 145.389 43.77 146.774L46.802 144.778ZM74.2436 129.505C69.0495 121.414 62.621 117.589 57.9709 118.7C53.4006 119.678 48.3924 126.018 45.6453 135.963C50.5189 135.955 55.517 136.16 60.4666 136.551C65.0217 134.019 69.6703 131.647 74.2436 129.505Z" fill="#82D7F7"/>
<path d="M258.373 154.73C254.818 141.844 236.591 135.311 217.706 140L184.238 148.723C175.085 150.947 167.034 155.676 161.609 161.817C157.312 166.804 155.213 172.47 155.464 177.84C151.621 179.9 148.603 182.756 145.982 185.675C140.557 191.816 138.521 198.825 140.572 204.811C144.128 217.696 162.355 224.23 181.24 219.541L214.707 210.818C223.86 208.594 231.911 203.865 237.336 197.723C241.633 192.737 243.732 187.071 243.482 181.701C247.325 179.641 250.343 176.785 252.964 173.866C258.389 167.724 260.425 160.716 258.373 154.73ZM241.545 169.737C241.18 170.346 240.417 170.892 239.655 171.438L238.527 172.593L237.702 171.797C235.624 169.471 233.181 167.754 229.761 166.216L229.15 165.787L229.516 165.178C230.064 164.265 230.398 162.985 230.153 161.947C229.479 160.175 227.647 158.888 224.503 159.059C224.107 158.997 223.13 159.176 222.551 159.418L189.266 167.837C187.71 168.258 186.368 169.046 185.24 170.201C184.112 171.356 183.778 172.636 184.024 173.674C184.697 175.446 186.53 176.734 189.673 176.562C190.07 176.625 191.046 176.445 191.625 176.203L204.47 172.895C206.605 172.232 208.955 171.935 210.725 171.881C219.971 171.671 227.239 175.48 229.108 181.77C230.058 185.251 228.69 189.7 225.704 193.227C222.717 196.755 217.532 199.603 212.285 201.109L178.817 209.832C176.682 210.495 174.332 210.792 172.562 210.846C163.316 211.056 156.048 207.247 154.179 200.956C153.229 197.476 154.597 193.027 157.583 189.5C157.949 188.891 158.711 188.345 159.473 187.798L160.418 186.948L161.243 187.744C163.321 190.07 165.765 191.787 169.185 193.325L169.795 193.754L169.43 194.363C168.882 195.276 168.548 196.556 168.793 197.594C169.466 199.365 171.299 200.653 174.442 200.482C174.839 200.544 175.815 200.365 176.395 200.123L209.863 191.4C211.419 190.979 212.76 190.19 213.888 189.035C215.016 187.88 215.35 186.6 215.105 185.562C214.431 183.791 212.599 182.503 209.456 182.674C209.059 182.612 208.082 182.791 207.503 183.033L194.659 186.341C192.523 187.005 190.174 187.301 188.404 187.356C179.157 187.566 171.889 183.757 170.02 177.466C168.673 173.923 170.438 169.537 173.425 166.009C176.411 162.482 181.596 159.634 186.843 158.128L220.311 149.405C222.447 148.741 224.796 148.445 226.566 148.39C235.813 148.18 243.08 151.989 244.949 158.28C245.717 162.065 244.532 166.209 241.545 169.737Z" fill="#EB5027"/>
<path d="M363.801 165.559L340.8 180.448L338.108 161.514L295.402 154.792L306.981 236.773L406.507 172.282L363.801 165.559Z" fill="#42B883"/>
<path d="M363.801 165.559L340.8 180.448L338.108 161.514L317.623 158.29L324.57 207.479L384.286 168.784L363.801 165.559Z" fill="#35495E"/>
<path d="M540.093 207.786C540.093 207.786 515.026 180.416 482.728 180.738L480.252 180.949C475.301 181.37 470.735 182.454 467.271 184.311L464.852 185.732L445.554 198.31L462.508 203.982C468.071 209.062 477.098 212.285 487.387 212.103L517.331 222.222L540.093 207.786Z" fill="#76B3E1"/>
<path d="M540.093 207.786C540.093 207.786 515.026 180.416 482.728 180.738L480.252 180.949C475.301 181.37 470.735 182.454 467.271 184.311L464.852 185.732L445.554 198.31L462.508 203.982C468.071 209.062 477.098 212.285 487.387 212.103L517.331 222.222L540.093 207.786Z" fill="url(#paint0_linear_910_7902)"/>
<path d="M460.682 195.286L457.491 195.384C443.681 196.213 434.832 204.43 436.658 213.126C439.529 221.386 452.247 227.592 466.056 226.763L517.331 222.222C517.331 222.222 492.264 194.852 460.682 195.286Z" fill="#518AC8"/>
<path d="M460.682 195.286L457.491 195.384C443.681 196.213 434.832 204.43 436.658 213.126C439.529 221.386 452.247 227.592 466.056 226.763L517.331 222.222C517.331 222.222 492.264 194.852 460.682 195.286Z" fill="url(#paint1_linear_910_7902)"/>
<path d="M504.519 229.214C502.819 224.746 499.112 221.06 493.875 218.631C488.637 216.202 482.108 215.138 475.122 215.577L424.176 219.57L398.335 236.524L472.202 259.563L498.372 242.061C503.54 238.67 505.461 234.167 504.519 229.214Z" fill="url(#paint2_linear_910_7902)"/>
<path d="M478.679 246.168C476.978 241.699 473.272 238.014 468.035 235.585C462.797 233.155 456.267 232.092 449.281 232.531L398.335 236.524C398.335 236.524 423.073 264.443 455.701 263.572L458.176 263.362C471.986 262.532 481.55 254.428 478.679 246.168Z" fill="url(#paint3_linear_910_7902)"/>
<path d="M90.2677 232.537L125.585 261.415L100.001 304.025L39.0991 317.757L3.78143 288.879L29.3658 246.268L90.2677 232.537Z" fill="#673AB8"/>
<path fill-rule="evenodd" clip-rule="evenodd" d="M74.6816 258.495C82.0051 256.799 88.7594 255.753 94.4458 255.4C99.0718 255.112 103.095 255.276 106.158 255.975C109.22 256.673 111.507 257.957 112.215 260.005C112.923 262.053 111.888 264.394 109.868 266.712C107.848 269.03 104.725 271.471 100.837 273.895C97.9651 275.687 94.6283 277.499 90.9191 279.277C92.0368 281.815 92.8092 284.274 93.2199 286.582C93.7759 289.706 93.682 292.623 92.8102 295.122C91.9385 297.621 90.2255 299.855 87.3927 301.346C84.5599 302.837 81.26 303.241 77.9598 302.938C74.6595 302.635 71.1514 301.613 67.6398 300.045C63.3233 298.117 58.8829 295.309 54.6852 291.799C47.3617 293.495 40.6074 294.541 34.921 294.894C30.2949 295.182 26.2719 295.018 23.2093 294.319C20.1466 293.621 17.8596 292.337 17.1518 290.289C16.4441 288.241 17.4786 285.899 19.4989 283.581C21.5192 281.264 24.6422 278.823 28.5298 276.398C31.4017 274.607 34.7385 272.795 38.4477 271.017C37.33 268.479 36.5577 266.02 36.147 263.712C35.591 260.588 35.6849 257.671 36.5566 255.172C37.4284 252.673 39.1414 250.439 41.9741 248.948C44.8069 247.457 48.1068 247.053 51.4071 247.356C54.7073 247.659 58.2154 248.681 61.727 250.249C66.0435 252.177 70.4839 254.985 74.6816 258.495ZM77.0907 260.612C83.3552 259.247 89.0787 258.408 93.9027 258.108C98.2578 257.837 101.776 258.013 104.283 258.585C106.79 259.157 108.101 260.075 108.487 261.192C108.873 262.31 108.394 263.798 106.74 265.696C105.086 267.593 102.375 269.753 98.7154 272.036C96.1401 273.642 93.1383 275.282 89.7858 276.906C87.9212 273.287 85.3872 269.557 82.2287 265.913C80.5959 264.029 78.8731 262.257 77.0907 260.612ZM41.9865 269.382C40.9948 267.074 40.3107 264.854 39.9424 262.784C39.419 259.843 39.5461 257.276 40.2597 255.231C40.9733 253.185 42.21 251.816 43.7553 251.003C45.3005 250.189 47.3924 249.807 50.0939 250.055C52.7954 250.303 55.8988 251.169 59.2047 252.646C62.8666 254.282 66.6807 256.622 70.366 259.553C67.0866 260.402 63.7174 261.372 60.2997 262.461C53.6889 264.567 47.4994 266.924 41.9865 269.382ZM43.097 271.749C48.4673 269.338 54.5686 267.001 61.1448 264.906C65.1428 263.633 69.0558 262.531 72.8141 261.605C74.9073 263.453 76.9363 265.489 78.8465 267.693C81.9884 271.318 84.472 275.006 86.2698 278.545C80.8995 280.956 74.7982 283.293 68.222 285.388C64.224 286.661 60.311 287.763 56.5527 288.689C54.4595 286.841 52.4305 284.805 50.5204 282.601C47.3785 278.976 44.8948 275.288 43.097 271.749ZM39.581 273.388C36.2285 275.012 33.2267 276.652 30.6514 278.258C26.9915 280.541 24.2803 282.701 22.6266 284.598C20.9729 286.496 20.4937 287.984 20.8798 289.101C21.2659 290.219 22.5767 291.137 25.0837 291.709C27.5906 292.281 31.109 292.457 35.464 292.186C40.2881 291.886 46.0116 291.047 52.2762 289.682C50.4938 288.037 48.771 286.265 47.1381 284.381C43.9797 280.737 41.4456 277.007 39.581 273.388ZM59.0008 290.74C62.6862 293.671 66.5002 296.012 70.1622 297.648C73.468 299.125 76.5715 299.991 79.273 300.239C81.9744 300.487 84.0664 300.105 85.6116 299.291C87.1568 298.478 88.3936 297.109 89.1072 295.063C89.8208 293.018 89.9479 290.451 89.4245 287.51C89.0562 285.44 88.3721 283.22 87.3803 280.912C81.8674 283.37 75.6779 285.727 69.0671 287.833C65.6494 288.922 62.2802 289.892 59.0008 290.74Z" fill="white"/>
<path d="M61.2855 280.806C65.3603 281.448 70.1848 279.434 72.0614 276.308C73.9381 273.183 72.1561 270.129 68.0813 269.488C64.0065 268.846 59.182 270.86 57.3053 273.986C55.4287 277.111 57.2107 280.165 61.2855 280.806Z" fill="white"/>
<path d="M217.873 252.624L157.66 258.629L134.054 312.324L166.704 337.845L221.716 326.123L261.098 274.912L217.873 252.624Z" fill="#DD0031"/>
<path d="M217.873 252.624L212.193 262.083L212.219 262.041L166.704 337.845L221.716 326.123L261.098 274.912L217.873 252.624Z" fill="#C3002F"/>
<path d="M212.219 262.041L146.5 312.558L158.555 314.455L172.525 303.036L199.968 307.356L198.997 320.822L211.052 322.719L212.219 262.041ZM200.351 299.022L181.463 296.048L201.371 280.107L200.351 299.022Z" fill="white"/>
<path d="M301.752 359.103C332.433 363.933 368.759 348.771 382.889 325.238C397.019 301.705 383.602 278.712 352.921 273.882C322.24 269.053 285.914 284.215 271.784 307.748C257.654 331.281 271.072 354.274 301.752 359.103Z" fill="black"/>
<path d="M344.874 354.242L324.696 297.422L315.349 295.951L294.89 330.025L302.367 331.202L318.453 304.411L336.922 356.786C339.614 356.054 342.271 355.203 344.874 354.242Z" fill="url(#paint4_linear_910_7902)"/>
<path d="M360.409 303.044L353.002 301.878L332.535 335.966L339.942 337.132L360.409 303.044Z" fill="url(#paint5_linear_910_7902)"/>
<defs>
<linearGradient id="paint0_linear_910_7902" x1="-35.8008" y1="-3.8237" x2="599.552" y2="247.326" gradientUnits="userSpaceOnUse">
<stop offset="0.1" stop-color="#76B3E1"/>
<stop offset="0.3" stop-color="#DCF2FD"/>
<stop offset="1" stop-color="#76B3E1"/>
</linearGradient>
<linearGradient id="paint1_linear_910_7902" x1="348.246" y1="-7.01461" x2="174.662" y2="455.818" gradientUnits="userSpaceOnUse">
<stop stop-color="#76B3E1"/>
<stop offset="0.5" stop-color="#4377BB"/>
<stop offset="1" stop-color="#1F3B77"/>
</linearGradient>
<linearGradient id="paint2_linear_910_7902" x1="65.4311" y1="5.12023" x2="652.868" y2="387.637" gradientUnits="userSpaceOnUse">
<stop stop-color="#315AA9"/>
<stop offset="0.5" stop-color="#518AC8"/>
<stop offset="1" stop-color="#315AA9"/>
</linearGradient>
<linearGradient id="paint3_linear_910_7902" x1="378.775" y1="-158.991" x2="-36.5841" y2="1044.92" gradientUnits="userSpaceOnUse">
<stop stop-color="#4377BB"/>
<stop offset="0.5" stop-color="#1A336B"/>
<stop offset="1" stop-color="#1A336B"/>
</linearGradient>
<linearGradient id="paint4_linear_910_7902" x1="351.855" y1="202.986" x2="434.607" y2="405.016" gradientUnits="userSpaceOnUse">
<stop stop-color="white"/>
<stop offset="1" stop-color="white" stop-opacity="0"/>
</linearGradient>
<linearGradient id="paint5_linear_910_7902" x1="356.705" y1="302.461" x2="352.408" y2="329.219" gradientUnits="userSpaceOnUse">
<stop stop-color="white"/>
<stop offset="1" stop-color="white" stop-opacity="0"/>
</linearGradient>
</defs>
</svg>
