<svg width="892" height="793" viewBox="0 0 892 793" fill="none" xmlns="http://www.w3.org/2000/svg">
<rect width="239.6" height="239.6" transform="matrix(0.866025 0.5 -0.866025 0.5 507.5 151.555)" fill="#FFF2F2"/>
<rect width="239.6" height="239.6" transform="matrix(0.866025 -0.5 2.20305e-08 1 507.5 391.154)" fill="#CB9696"/>
<rect width="239.6" height="239.6" transform="matrix(0.866025 0.5 -2.20305e-08 1 300.005 271.354)" fill="#E9B4B4"/>
<rect width="32.8604" height="32.8604" transform="matrix(0.866025 0.5 -0.866025 0.5 257.458 509.555)" fill="#EEF9FF"/>
<rect width="32.8604" height="32.8604" transform="matrix(0.866025 -0.5 2.20305e-08 1 257.458 542.415)" fill="#51C0FF"/>
<rect width="32.8604" height="32.8604" transform="matrix(0.866025 0.5 -2.20305e-08 1 229.001 525.985)" fill="#8BD5FF"/>
<path d="M186.233 513.413C188.364 512.135 189.055 509.371 187.777 507.239L166.94 472.511C165.661 470.38 162.897 469.689 160.766 470.968C158.635 472.246 157.944 475.01 159.222 477.141L177.744 508.011L146.874 526.533C144.743 527.812 144.052 530.576 145.331 532.707C146.61 534.838 149.374 535.529 151.505 534.25L186.233 513.413ZM185.009 505.189C146.657 495.601 95.4304 474.669 65.3624 443.386C50.416 427.836 40.9676 410.02 40.5169 389.96C40.0662 369.897 48.5974 346.749 71.3203 320.5L64.5158 314.609C40.8387 341.961 31.0033 367.196 31.5192 390.162C32.0352 413.131 42.8868 432.99 58.8737 449.623C90.6724 482.707 143.846 504.175 182.827 513.92L185.009 505.189Z" fill="white"/>
<path d="M7.37816 271.202L6.19453 266.99L35.6009 258.726L36.7845 262.938L24.4553 266.403L34.2901 301.399L29.5422 302.734L19.7074 267.737L7.37816 271.202ZM58.1803 295.429C56.3168 295.953 54.5271 296.077 52.811 295.802C51.0913 295.514 49.5965 294.826 48.3264 293.737C47.0528 292.635 46.147 291.127 45.609 289.212C45.1355 287.527 45.0836 286.068 45.4532 284.835C45.8192 283.59 46.4731 282.511 47.4149 281.599C48.3567 280.687 49.4564 279.896 50.7141 279.226C51.9809 278.539 53.272 277.915 54.5874 277.352C56.3097 276.62 57.7099 276.041 58.788 275.614C59.8753 275.171 60.633 274.731 61.061 274.294C61.5018 273.853 61.62 273.269 61.4156 272.541L61.3725 272.388C60.8417 270.499 59.9123 269.177 58.5844 268.421C57.2692 267.661 55.5714 267.574 53.491 268.158C51.334 268.764 49.7756 269.712 48.8158 271.001C47.8559 272.289 47.2778 273.54 47.0813 274.752L42.3625 274.425C42.6261 272.423 43.2562 270.745 44.2528 269.391C45.2585 268.02 46.4652 266.924 47.8728 266.101C49.2896 265.263 50.7383 264.635 52.2188 264.219C53.1633 263.954 54.2804 263.764 55.5702 263.649C56.8692 263.518 58.1899 263.636 59.5323 264.002C60.8874 264.365 62.1434 265.135 63.3001 266.31C64.4569 267.486 65.3634 269.242 66.0198 271.578L71.4645 290.952L66.9463 292.222L65.8273 288.24L65.5975 288.305C65.4705 289.029 65.1519 289.855 64.6416 290.784C64.1313 291.712 63.3544 292.598 62.3109 293.442C61.2674 294.286 59.8905 294.949 58.1803 295.429ZM57.7289 291.177C59.5157 290.675 60.9231 289.901 61.9511 288.854C62.9919 287.804 63.6689 286.636 63.9823 285.35C64.3084 284.06 64.2993 282.803 63.955 281.578L62.7929 277.442C62.666 277.726 62.304 278.055 61.7069 278.429C61.1189 278.787 60.4235 279.155 59.6206 279.532C58.8268 279.893 58.0486 280.235 57.286 280.56C56.5326 280.868 55.9223 281.122 55.4553 281.322C54.3241 281.805 53.2964 282.363 52.3722 282.994C51.4571 283.609 50.782 284.343 50.3467 285.195C49.9206 286.031 49.8689 287.023 50.1917 288.172C50.6329 289.742 51.5472 290.766 52.9346 291.243C54.3312 291.705 55.9293 291.683 57.7289 291.177ZM94.8645 271.404L89.9793 254.021L94.4975 252.751L102.761 282.157L98.2432 283.427L96.8444 278.449L96.5381 278.535C96.2685 280.222 95.5533 281.794 94.3924 283.249C93.2279 284.692 91.5353 285.725 89.3145 286.349C87.4766 286.866 85.7299 286.923 84.0745 286.521C82.4155 286.105 80.948 285.196 79.672 283.792C78.3925 282.375 77.4012 280.415 76.6982 277.914L71.4472 259.229L75.9654 257.959L81.1303 276.338C81.7329 278.482 82.8134 280.024 84.3718 280.963C85.943 281.899 87.6666 282.103 89.5428 281.575C90.666 281.26 91.7276 280.652 92.7276 279.751C93.7404 278.847 94.4757 277.69 94.9335 276.28C95.404 274.867 95.381 273.242 94.8645 271.404ZM111.037 279.832L102.773 250.425L107.138 249.199L108.386 253.64L108.692 253.554C108.82 251.949 109.458 250.495 110.607 249.195C111.756 247.894 113.212 246.996 114.973 246.501C115.305 246.408 115.721 246.298 116.223 246.171C116.724 246.043 117.106 245.957 117.368 245.911L118.66 250.505C118.496 250.51 118.129 250.551 117.558 250.629C116.997 250.69 116.417 250.805 115.817 250.974C114.387 251.375 113.195 252.034 112.241 252.95C111.295 253.849 110.644 254.913 110.287 256.143C109.94 257.356 109.952 258.626 110.325 259.953L115.555 278.562L111.037 279.832ZM131.096 274.195L122.832 244.788L127.35 243.519L135.614 272.925L131.096 274.195ZM123.752 239.242C122.871 239.489 122.027 239.403 121.221 238.982C120.427 238.558 119.911 237.925 119.675 237.082C119.438 236.24 119.548 235.431 120.005 234.655C120.474 233.876 121.15 233.363 122.03 233.115C122.911 232.868 123.748 232.956 124.542 233.38C125.349 233.801 125.871 234.432 126.107 235.275C126.344 236.117 126.228 236.928 125.758 237.707C125.301 238.483 124.632 238.994 123.752 239.242Z" fill="white"/>
<path d="M453.744 684.075C452.967 683.759 452.372 683.261 451.96 682.582C451.49 681.801 451.406 681.039 451.708 680.296C451.762 677.937 451.948 676.074 452.267 674.708C452.586 673.343 453.399 669.432 454.704 662.977C455.689 658.084 456.598 654.203 457.43 651.334C453.661 656.296 450.13 660.36 446.836 663.528C443.024 667.193 440.308 670.172 438.687 672.465C438.732 672.935 438.679 673.356 438.528 673.728C438.219 674.488 437.627 674.975 436.752 675.191C435.959 675.399 435.174 675.346 434.397 675.03C432.117 674.104 431.393 672.619 432.223 670.575L432.746 667.039L435.03 653.504C435.635 648.87 436.201 642.105 436.727 633.208C436.76 632.789 436.838 632.427 436.962 632.123C437.6 630.552 438.806 630.127 440.579 630.848C441.677 631.294 442.278 632.237 442.381 633.676C442.438 634.408 442.344 636.406 442.099 639.672C441.853 643.133 441.353 647.22 440.599 651.931L438.505 664.126C442.014 660.672 445.886 656.303 450.12 651.019C452.707 647.801 454.576 645.599 455.727 644.414C458.764 641.3 461 640.034 462.435 640.618C463.617 641.098 464.209 642.037 464.212 643.435C464.229 645.135 463.439 648.847 461.839 654.573C461.051 657.48 460.273 661.04 459.505 665.253L457.637 676.094C462.11 671.576 467.928 665.371 475.091 657.48C475.483 657.049 476.554 655.625 478.304 653.207C479.597 651.431 480.821 650.137 481.976 649.328C482.962 648.646 483.944 648.505 484.924 648.903C486.629 649.596 487.139 650.787 486.452 652.476C486.336 652.763 485.722 653.497 484.612 654.679L482.487 657.003L479.261 660.946L464.304 676.177C462.794 677.905 460.416 680.343 457.169 683.49C456.101 684.374 454.96 684.569 453.744 684.075ZM492.329 698.726C487.566 696.79 484.11 693.722 481.96 689.523C479.683 685.055 479.52 680.424 481.469 675.628C483.844 669.785 487.734 665.177 493.139 661.805C499.161 658.075 505.06 657.383 510.836 659.731C516.392 661.989 520.013 664.917 521.699 668.515C523.462 672.262 523.204 676.938 520.925 682.545C518.55 688.388 514.821 693.012 509.738 696.416C503.907 700.303 498.104 701.073 492.329 698.726ZM508.725 664.924C504.588 663.242 500.246 663.878 495.7 666.831C491.511 669.536 488.49 673.169 486.637 677.728C485.312 680.987 485.442 684.13 487.026 687.155C488.557 690.02 491.028 692.146 494.439 693.533C498.543 695.201 502.77 694.508 507.12 691.456C511.004 688.725 513.883 685.055 515.757 680.445C517.398 676.408 517.648 673.204 516.507 670.832C515.422 668.561 512.829 666.592 508.725 664.924ZM549.14 722.852C548.364 722.536 547.769 722.038 547.356 721.359C546.887 720.578 546.803 719.816 547.105 719.073C547.159 716.713 547.345 714.851 547.664 713.485C547.983 712.119 548.795 708.209 550.101 701.754C551.086 696.861 551.995 692.98 552.826 690.111C549.058 695.073 545.527 699.137 542.232 702.304C538.421 705.969 535.704 708.948 534.084 711.241C534.128 711.712 534.075 712.133 533.924 712.505C533.615 713.265 533.024 713.752 532.149 713.967C531.356 714.176 530.571 714.123 529.794 713.807C527.514 712.88 526.79 711.395 527.62 709.352L528.143 705.816L530.427 692.281C531.031 687.647 531.597 680.882 532.124 671.985C532.157 671.565 532.235 671.204 532.359 670.9C532.997 669.329 534.203 668.904 535.976 669.625C537.074 670.071 537.674 671.014 537.778 672.453C537.835 673.185 537.741 675.183 537.496 678.448C537.25 681.91 536.75 685.996 535.996 690.708L533.902 702.903C537.411 699.449 541.283 695.08 545.516 689.796C548.104 686.578 549.973 684.376 551.123 683.191C554.16 680.076 556.396 678.811 557.832 679.394C559.014 679.875 559.606 680.814 559.609 682.212C559.626 683.912 558.835 687.624 557.236 693.35C556.448 696.256 555.67 699.817 554.902 704.03L553.034 714.871C557.507 710.353 563.325 704.148 570.488 696.257C570.88 695.826 571.95 694.401 573.7 691.984C574.993 690.207 576.218 688.914 577.373 688.105C578.358 687.423 579.341 687.281 580.32 687.68C582.026 688.373 582.536 689.564 581.849 691.253C581.732 691.54 581.119 692.274 580.009 693.456L577.884 695.78L574.658 699.723L559.7 714.954C558.191 716.682 555.813 719.119 552.566 722.266C551.498 723.151 550.356 723.346 549.14 722.852ZM592.032 692.706L580.572 720.899C579.961 722.402 578.904 722.848 577.401 722.237C575.898 721.626 575.452 720.569 576.063 719.066C576.344 718.374 576.738 717.334 577.243 715.945C577.772 714.547 578.174 713.51 578.449 712.834C579.444 710.386 580.951 706.728 582.968 701.861C585.009 696.984 586.528 693.322 587.523 690.873C588.134 689.37 589.191 688.924 590.694 689.535C592.197 690.146 592.643 691.203 592.032 692.706ZM576.685 730.535C576.437 731.143 575.98 731.567 575.312 731.807C574.653 732.071 574.02 732.079 573.412 731.832C572.737 731.558 572.24 730.844 571.921 729.691C571.599 728.596 571.579 727.702 571.86 727.01C572.107 726.402 572.556 725.975 573.208 725.728C573.876 725.488 574.523 725.495 575.147 725.749C575.806 726.016 576.303 726.73 576.638 727.89C576.944 728.978 576.959 729.86 576.685 730.535Z" fill="#00D1FF"/>
<path d="M667.666 101.289C666.702 101.565 665.935 101.434 665.363 100.895C664.97 100.515 664.471 99.6339 663.867 98.252C662.648 98.9612 660.8 100.154 658.322 101.83C655.821 103.76 654.798 105.55 655.252 107.203C655.833 107.245 656.39 107.237 656.923 107.179C661.16 106.744 664.44 106.877 666.764 107.577C670.147 108.599 672.338 110.854 673.336 114.342C674.154 117.198 673.536 119.708 671.481 121.869C669.771 123.648 667.348 124.986 664.211 125.884C661.915 126.542 659.614 126.783 657.308 126.609C654.328 126.4 652.588 125.419 652.086 123.667C651.885 122.966 651.981 122.275 652.374 121.593C652.784 120.907 653.34 120.464 654.041 120.263C654.584 120.107 655.406 120.327 656.505 120.923C657.041 121.205 658.083 121.268 659.63 121.109C660.865 120.983 661.885 120.805 662.691 120.574C664.163 120.153 665.41 119.606 666.431 118.935C667.916 117.96 668.5 116.921 668.184 115.816C667.502 113.433 665.375 112.297 661.805 112.409L658.898 112.587C656.421 112.746 654.595 112.624 653.418 112.222C651.717 111.647 650.583 110.369 650.017 108.388C648.968 104.726 649.947 101.62 652.953 99.0723C653.869 98.2981 655.391 97.2557 657.519 95.9451C659.641 94.617 661.137 93.5821 662.006 92.8405C662.634 92.3194 663.368 91.9385 664.21 91.6977C664.963 91.482 665.647 91.5517 666.261 91.907C666.892 92.2573 667.32 92.8267 667.546 93.6153C667.691 94.1236 668.01 94.8383 668.501 95.7595C669.01 96.6757 669.337 97.388 669.482 97.8962C669.708 98.6848 669.646 99.3947 669.296 100.026C668.963 100.652 668.42 101.073 667.666 101.289ZM699.008 97.6077C699.369 98.8695 699.919 100.76 700.659 103.278C701.399 105.797 701.95 107.687 702.311 108.949C702.421 109.335 702.616 109.914 702.894 110.688C703.19 111.456 703.393 112.033 703.503 112.419C703.719 113.173 703.64 113.859 703.268 114.477C702.9 115.114 702.348 115.537 701.612 115.748C700.262 116.134 699.165 115.547 698.321 113.988C696.456 115.754 694.096 117.046 691.239 117.864C688.943 118.521 686.896 118.557 685.098 117.972C683.112 117.327 681.653 115.971 680.72 113.906C678.708 109.458 677.182 105.419 676.144 101.792C675.456 99.3907 674.937 96.5815 674.584 93.364C674.393 91.7691 675.008 90.7685 676.427 90.3621C677.181 90.1464 677.882 90.2112 678.531 90.5564C679.174 90.8841 679.604 91.4248 679.82 92.1784C680.05 92.9845 680.288 94.3103 680.531 96.1556C680.793 97.9959 681.056 99.3804 681.322 100.309C682.16 103.236 682.974 105.715 683.763 107.745C684.553 109.775 685.321 111.366 686.068 112.518C686.737 112.668 687.377 112.75 687.988 112.765C688.594 112.762 689.168 112.683 689.711 112.527C692.06 111.855 694.432 110.768 696.827 109.267L695.274 103.938L693.761 98.8535C692.678 95.068 691.904 91.7343 691.439 88.8525C691.17 87.185 691.789 86.1355 693.297 85.7041C694.05 85.4884 694.751 85.5532 695.4 85.8984C696.049 86.2436 696.461 86.7893 696.637 87.5354L699.008 97.6077ZM722.33 109.334C718.738 110.362 715.43 110.133 712.407 108.647C709.231 107.092 707.109 104.447 706.04 100.714C705.022 97.1566 705.154 93.1464 706.436 88.6837C707.861 83.7252 710.221 80.7743 713.516 79.8313C715.233 79.3396 717.268 79.1934 719.619 79.3926C722.596 79.6591 724.298 80.5372 724.725 82.0268C724.915 82.6928 724.867 83.3513 724.579 84.0025C724.287 84.6362 723.816 85.0458 723.168 85.2314C722.659 85.3769 722.17 85.3558 721.699 85.1683C721.241 84.9581 720.794 84.7543 720.358 84.5567C719.088 84.029 717.279 84.1012 714.93 84.7734C713.143 85.2851 711.829 87.3865 710.99 91.0778C710.233 94.461 710.16 97.2217 710.772 99.3598C711.434 101.673 712.745 103.27 714.703 104.15C716.532 104.973 718.602 105.054 720.916 104.392C721.967 104.091 723.009 103.489 724.04 102.587L726.623 100.085C727.068 99.6536 727.405 99.4056 727.633 99.3403C728.281 99.1547 728.917 99.2571 729.541 99.6474C730.16 100.02 730.564 100.54 730.755 101.206C731.121 102.485 730.125 104.107 727.767 106.071C725.702 107.8 723.89 108.887 722.33 109.334ZM760.099 98.4946C758.854 98.8507 757.849 98.418 757.082 97.1965C756.268 95.8748 755.315 93.9384 754.225 91.3874C753.182 88.9365 752.427 86.8961 751.961 85.2663C751.83 84.8106 751.65 84.1133 751.419 83.1745C751.206 82.2306 751.034 81.5308 750.903 81.0751C749.96 77.7804 748.665 76.3688 747.018 76.8403C744.792 77.4774 743.091 79.0545 741.915 81.5715C741.318 82.8614 740.655 85.1841 739.928 88.5398C741.839 95.2169 742.69 99.2492 742.481 100.636C742.301 101.864 741.694 102.625 740.66 102.921C739.942 103.127 739.24 103.062 738.557 102.727C737.873 102.391 737.431 101.873 737.23 101.172C737.16 100.927 737.128 100.519 737.136 99.948C737.15 99.4697 736.881 98.1628 736.326 96.0271L735.291 92.1139L729.84 72.7697C729.34 70.5614 728.983 69.0805 728.767 68.3269C728.511 67.4331 728.183 66.617 727.782 65.8785C727.393 65.1175 727.076 64.3076 726.83 63.4488C726.62 62.7128 726.701 62.0354 727.073 61.4168C727.441 60.7806 727.993 60.3571 728.729 60.1464C730.166 59.7351 731.228 60.2654 731.915 61.7374C732.682 63.3571 733.261 64.8505 733.652 66.2174C734.179 68.0576 734.667 69.9942 735.116 72.0272C735.558 73.9675 736.063 75.8991 736.633 77.8219L737.321 80.1277C738.207 77.7886 739.329 75.9126 740.688 74.4997C742.059 73.0642 743.665 72.0831 745.505 71.5564C748.414 70.7237 750.683 71.0982 752.311 72.6799C753.464 73.7911 754.544 75.9089 755.552 79.0334L757.2 83.9942L759.291 89.3116C760.123 91.2919 760.937 93.0117 761.734 94.4711C761.89 94.749 761.998 94.9931 762.058 95.2034C762.263 95.9219 762.171 96.593 761.781 97.2167C761.395 97.8579 760.835 98.2839 760.099 98.4946ZM689.131 176.277C688.167 176.553 687.399 176.422 686.828 175.884C686.435 175.503 685.936 174.622 685.332 173.24C684.113 173.95 682.264 175.142 679.786 176.819C677.286 178.748 676.262 180.539 676.716 182.191C677.297 182.234 677.854 182.226 678.388 182.168C682.624 181.733 685.904 181.865 688.229 182.565C691.612 183.588 693.803 185.843 694.801 189.33C695.619 192.187 695 194.696 692.945 196.858C691.236 198.637 688.813 199.975 685.676 200.873C683.38 201.53 681.079 201.771 678.773 201.597C675.793 201.388 674.052 200.408 673.551 198.655C673.35 197.954 673.446 197.263 673.839 196.582C674.249 195.895 674.805 195.452 675.506 195.251C676.049 195.096 676.87 195.316 677.97 195.911C678.506 196.194 679.548 196.256 681.095 196.097C682.329 195.972 683.35 195.793 684.156 195.563C685.628 195.141 686.875 194.595 687.896 193.923C689.38 192.948 689.965 191.909 689.649 190.805C688.966 188.421 686.84 187.286 683.269 187.398L680.362 187.576C677.886 187.735 676.059 187.613 674.882 187.21C673.182 186.635 672.048 185.357 671.481 183.377C670.433 179.714 671.411 176.609 674.418 174.061C675.334 173.287 676.855 172.244 678.983 170.934C681.106 169.605 682.602 168.571 683.47 167.829C684.098 167.308 684.833 166.927 685.674 166.686C686.428 166.47 687.111 166.54 687.725 166.895C688.356 167.246 688.785 167.815 689.011 168.604C689.156 169.112 689.474 169.827 689.966 170.748C690.474 171.664 690.801 172.376 690.947 172.885C691.173 173.673 691.11 174.383 690.76 175.014C690.427 175.641 689.884 176.061 689.131 176.277ZM737.426 186.714C735.989 187.125 734.929 186.604 734.248 185.149C733.38 183.312 732.287 180.686 730.969 177.271L727.742 169.378C727.221 168.218 726.584 167.121 725.833 166.085C724.785 164.678 723.911 164.075 723.21 164.275C722.562 164.461 721.51 165.359 720.056 166.97C718.665 168.468 717.794 169.599 717.444 170.363C717.898 172.015 718.413 173.65 718.99 175.267L721.788 182.061C722.913 184.734 723.734 186.974 724.251 188.779C724.472 189.55 724.407 190.251 724.057 190.882C723.729 191.526 723.188 191.956 722.435 192.171C721.681 192.387 720.986 192.311 720.35 191.943C719.737 191.588 719.319 191.025 719.099 190.254C718.492 188.133 717.377 185.067 715.755 181.057C714.146 177.024 713.037 173.947 712.43 171.826C711.899 169.969 711.222 168.598 710.4 167.715C709.334 168.627 708.351 169.894 707.45 171.517L705.341 175.875C705.181 176.376 704.892 177.056 704.475 177.915C704.776 178.966 705.123 180.545 705.517 182.651C705.911 184.756 706.249 186.3 706.53 187.281C706.68 187.807 706.97 188.52 707.398 189.422C707.845 190.318 708.128 190.976 708.248 191.397C708.454 192.115 708.355 192.798 707.953 193.444C707.567 194.085 707.015 194.509 706.297 194.714C704.316 195.281 702.682 193.313 701.392 188.809C701.091 187.757 700.739 186.161 700.335 184.02C699.93 181.88 699.578 180.283 699.277 179.232C699.011 178.303 698.525 176.935 697.818 175.127C697.128 173.315 696.648 171.935 696.377 170.989C695.238 167.011 695.563 164.766 697.35 164.254C698.034 164.058 698.741 164.178 699.473 164.614C700.222 165.044 700.696 165.61 700.897 166.311C700.992 166.644 701.096 167.173 701.209 167.899C701.323 168.625 701.432 169.172 701.537 169.54L702.38 172.286C702.754 170.15 703.611 168.075 704.95 166.061C706.283 164.029 707.572 162.836 708.816 162.48C711.568 161.692 713.852 162.517 715.668 164.955C716.266 163.4 717.141 162.116 718.292 161.104C719.438 160.074 720.87 159.314 722.588 158.822C725.514 157.984 727.964 158.99 729.936 161.838C730.327 162.409 731.391 164.768 733.128 168.917C734.482 171.791 736.55 176.631 739.332 183.438C739.586 184.124 739.52 184.788 739.134 185.429C738.749 186.07 738.18 186.498 737.426 186.714ZM755.568 180.839C752.624 181.681 749.78 181.32 747.038 179.753C743.98 178.012 741.805 175.117 740.513 171.069C739.274 167.138 739.275 163.365 740.515 159.749C741.951 155.489 744.859 152.732 749.24 151.478C752.745 150.474 755.859 151.318 758.582 154.008C760.762 156.191 762.347 159.112 763.338 162.772C764.399 166.678 764.333 170.29 763.14 173.608C761.79 177.37 759.266 179.78 755.568 180.839ZM750.426 156.912C747.845 157.632 746.189 159.433 745.459 162.315C744.887 164.622 744.965 167.046 745.692 169.587C746.419 172.128 747.679 173.91 749.469 174.933C750.962 175.776 752.488 175.975 754.048 175.528C755.871 175.007 757.249 173.892 758.182 172.184C759.25 170.285 759.469 168.07 758.84 165.539C757.144 158.686 754.339 155.811 750.426 156.912ZM774.367 151.424L777.713 164.602C778.109 165.987 778.621 168.04 779.248 170.761C779.575 172.564 778.967 173.686 777.425 174.127C775.707 174.619 774.592 173.971 774.081 172.183C773.474 170.063 772.66 166.854 771.639 162.558C770.612 158.244 769.796 155.027 769.189 152.906C768.396 150.137 767.534 146.962 766.604 143.379C765.668 139.779 764.804 136.594 764.011 133.825C763.51 132.072 764.118 130.95 765.835 130.459C767.57 129.962 768.688 130.59 769.19 132.343C769.983 135.112 770.847 138.296 771.783 141.896C772.713 145.479 773.575 148.655 774.367 151.424ZM782.019 128.471L790.393 157.73C790.84 159.29 790.283 160.293 788.723 160.739C787.164 161.186 786.161 160.629 785.714 159.069C785.508 158.351 785.176 157.289 784.717 155.885C784.271 154.458 783.947 153.394 783.747 152.693C783.019 150.152 781.948 146.344 780.534 141.269C779.131 136.171 778.067 132.352 777.339 129.811C776.893 128.251 777.449 127.248 779.009 126.802C780.569 126.355 781.572 126.912 782.019 128.471ZM793.279 167.712C793.46 168.343 793.361 168.959 792.983 169.56C792.628 170.174 792.135 170.571 791.504 170.751C790.803 170.952 789.972 170.697 789.01 169.986C788.08 169.323 787.513 168.632 787.307 167.914C787.127 167.283 787.216 166.669 787.577 166.073C787.955 165.472 788.468 165.079 789.116 164.893C789.8 164.698 790.631 164.953 791.61 165.658C792.522 166.326 793.078 167.011 793.279 167.712Z" fill="#FFD600"/>
<path d="M133.753 25.0286C133.572 24.9051 133.363 24.7495 133.126 24.5618C132.897 24.38 132.692 24.2274 132.511 24.1039C132.313 23.9687 131.685 23.6334 130.625 23.098L125.658 30.8885L125.283 31.4648L124.846 32.1315C123.593 34.0381 122.497 34.6711 121.56 34.0302C121.216 33.795 120.992 33.4775 120.887 33.0775C120.79 32.6835 120.857 32.3187 121.086 31.9834C121.309 31.6566 121.657 31.1753 122.13 30.5394C122.602 29.9036 122.95 29.4222 123.174 29.0955L128.066 21.3865C127.456 20.9315 126.552 20.2058 125.353 19.2094C124.658 18.583 124.566 17.8957 125.078 17.1476C125.337 16.7692 125.667 16.5347 126.07 16.4441C126.473 16.3535 126.854 16.4316 127.216 16.6786L129.774 18.7498C130.074 18.3113 130.452 17.7119 130.909 16.9516C131.38 16.1885 131.728 15.6436 131.951 15.3169C132.198 14.9557 132.526 14.7443 132.934 14.6826C133.348 14.6124 133.735 14.7007 134.096 14.9476C134.87 15.4768 134.89 16.4175 134.154 17.7697C133.963 18.1055 133.714 18.497 133.408 18.9441L132.871 19.6746L132.311 20.4654C133.472 21.0569 134.129 21.4055 134.284 21.5114C135.178 22.1228 135.733 22.5656 135.95 22.8397C136.357 23.3703 136.343 23.9538 135.908 24.5901C135.649 24.9685 135.314 25.2 134.903 25.2848C134.506 25.3668 134.123 25.2814 133.753 25.0286ZM140.319 46.8183C139.709 46.4009 139.532 45.8008 139.79 45.0179C140.074 44.1776 140.579 43.0523 141.303 41.6422C142.001 40.2895 142.623 39.2134 143.17 38.4137C143.322 38.1901 143.563 37.8563 143.892 37.4123C144.23 36.9742 144.475 36.6434 144.628 36.4198C145.733 34.8032 145.881 33.7186 145.073 33.1659C143.981 32.4193 142.667 32.2464 141.131 32.6474C140.346 32.8548 139.082 33.4107 137.341 34.3148C135.101 37.591 133.638 39.436 132.951 39.8498C132.346 40.2183 131.789 40.2291 131.282 39.8822C130.929 39.6412 130.702 39.3091 130.6 38.8861C130.498 38.4631 130.565 38.0796 130.8 37.7356C130.882 37.6152 131.05 37.4525 131.304 37.2475C131.52 37.0795 131.996 36.4841 132.734 35.4613L134.077 33.5788L140.598 24.125C141.387 23.0999 141.908 22.4025 142.161 22.0327C142.461 21.5942 142.7 21.152 142.879 20.7063C143.072 20.2578 143.312 19.8229 143.6 19.4016C143.847 19.0404 144.175 18.829 144.583 18.7673C144.997 18.6971 145.385 18.7854 145.746 19.0323C146.451 19.5144 146.605 20.175 146.208 21.014C145.775 21.9422 145.33 22.7416 144.871 23.4123C144.254 24.3152 143.58 25.2362 142.849 26.1753C142.157 27.0773 141.492 28.0042 140.853 28.956L140.09 30.0998C141.442 29.6361 142.677 29.4454 143.794 29.5278C144.925 29.6075 145.943 29.9561 146.846 30.5734C148.273 31.5493 148.936 32.6839 148.834 33.9771C148.766 34.8893 148.228 36.137 147.221 37.72L145.64 40.2542L144.064 43.1134C143.496 44.2018 143.037 45.1874 142.686 46.0703C142.62 46.24 142.552 46.3764 142.481 46.4796C142.24 46.8322 141.911 47.0364 141.495 47.0921C141.072 47.1565 140.68 47.0653 140.319 46.8183ZM158.97 34.434C158.557 34.1517 158.3 33.7616 158.199 33.2634C158.098 32.7653 158.189 32.3099 158.471 31.8971C158.753 31.4844 159.145 31.2347 159.646 31.1481C160.146 31.0615 160.603 31.1593 161.016 31.4415C161.429 31.7237 161.681 32.111 161.774 32.6032C161.875 33.1014 161.784 33.5568 161.502 33.9696C161.22 34.3823 160.828 34.632 160.327 34.7186C159.835 34.811 159.383 34.7162 158.97 34.434ZM152.389 45.3042C152.037 45.8202 151.52 46.6029 150.841 47.6524C150.175 48.6992 149.666 49.4805 149.314 49.9965C149.055 50.3748 148.727 50.605 148.33 50.687C147.934 50.7691 147.546 50.6807 147.168 50.4221C146.798 50.1692 146.575 49.8401 146.499 49.4348C146.431 49.0352 146.527 48.6463 146.786 48.268C147.138 47.752 147.647 46.9707 148.313 45.9239C148.992 44.8744 149.509 44.0917 149.861 43.5757C150.414 42.7674 151.145 41.7908 152.054 40.6457C152.969 39.4921 153.703 38.5111 154.255 37.7028C154.52 37.3158 154.851 37.0814 155.247 36.9993C155.653 36.9232 156.04 37.0115 156.41 37.2643C156.78 37.5171 156.999 37.8433 157.066 38.2428C157.142 38.6482 157.048 39.0444 156.783 39.4313C156.231 40.2396 155.497 41.2206 154.582 42.3742C153.673 43.5193 152.942 44.496 152.389 45.3042ZM168.242 50.162C167.769 49.8386 167.547 49.4532 167.575 49.0057C167.599 48.6939 167.805 48.1531 168.192 47.3834C167.436 47.1058 166.237 46.7277 164.596 46.2491C162.835 45.8528 161.674 46.0559 161.113 46.8583C161.306 47.1293 161.513 47.3715 161.733 47.585C163.469 49.2898 164.607 50.781 165.147 52.0586C165.932 53.9198 165.739 55.706 164.569 57.4172C163.61 58.8188 162.281 59.462 160.581 59.3467C159.175 59.2436 157.702 58.6658 156.163 57.6134C155.037 56.8432 154.091 55.9191 153.326 54.8411C152.331 53.4542 152.128 52.3308 152.716 51.4709C152.951 51.1269 153.29 50.9171 153.733 50.8414C154.185 50.7715 154.582 50.8542 154.926 51.0894C155.193 51.2716 155.396 51.7132 155.535 52.414C155.606 52.7529 155.959 53.2338 156.593 53.8566C157.098 54.3537 157.549 54.7375 157.944 55.0079C158.667 55.5018 159.362 55.8509 160.03 56.0552C161 56.3526 161.67 56.2304 162.041 55.6887C162.84 54.5192 162.564 53.1696 161.213 51.6398L160.074 50.426C159.101 49.3946 158.488 48.5467 158.236 47.8821C157.869 46.9243 158.017 45.9596 158.682 44.9879C159.91 43.1908 161.633 42.4886 163.851 42.8816C164.525 43.0022 165.539 43.2914 166.892 43.7493C168.25 44.1986 169.251 44.479 169.894 44.5906C170.352 44.6769 170.788 44.8611 171.2 45.1433C171.57 45.3961 171.789 45.7223 171.856 46.1218C171.933 46.5272 171.838 46.9234 171.574 47.3103C171.403 47.5597 171.205 47.9604 170.979 48.5125C170.761 49.0705 170.567 49.4741 170.397 49.7235C170.132 50.1104 169.797 50.342 169.392 50.4181C168.995 50.5002 168.612 50.4148 168.242 50.162ZM187.928 70.0382L184.668 74.1692C183.441 75.8537 182.303 77.1391 181.255 78.0254C179.916 79.1538 178.594 79.7581 177.29 79.8382C175.712 79.9323 173.946 79.3121 171.994 77.9775C170.851 77.1956 169.945 76.4626 169.277 75.7787C168.34 74.823 168.104 74.0054 168.569 73.3261C169.092 72.5608 169.728 72.4339 170.476 72.9454C170.785 73.1571 171.251 73.5829 171.874 74.223C172.49 74.8716 173.243 75.4872 174.132 76.0697C175.8 77.1727 177.486 77.152 179.19 76.0076C180.32 75.2407 181.642 73.7784 183.155 71.6205C182.103 72.1629 181.107 72.4286 180.168 72.4176C179.238 72.4125 178.36 72.1277 177.535 71.5633C175.978 70.4991 175.071 69.1031 174.814 67.3752C174.572 65.6446 175.03 63.9323 176.188 62.2383C177.775 59.9166 179.72 58.502 182.023 57.9945C184.399 57.4733 186.773 58.0241 189.146 59.6468C189.946 60.1936 190.546 60.7553 190.947 61.3321C191.347 61.9089 191.548 62.5007 191.55 63.1074C192.452 63.7623 192.563 64.5885 191.881 65.5859C191.463 66.1965 190.814 66.9516 189.934 67.8514C188.925 68.9028 188.256 69.6318 187.928 70.0382ZM187.606 61.6223C185.972 60.5053 184.323 60.2042 182.659 60.7193C181.165 61.1871 179.884 62.2036 178.813 63.7686C177.961 65.0154 177.557 66.1144 177.6 67.0655C177.644 68.0165 178.139 68.8154 179.085 69.4622C179.953 70.056 181.131 70.142 182.618 69.7203C183.975 69.323 185.008 68.7168 185.717 67.9017C186.532 67.0965 187.722 65.7712 189.287 63.926C189.125 63.4243 188.903 62.9825 188.622 62.6007C188.34 62.2189 188.002 61.8928 187.606 61.6223ZM204.097 75.2637C203.302 76.2974 202.505 76.5408 201.705 75.9941C200.965 75.4885 200.887 74.81 201.469 73.9587C201.58 73.7953 201.773 73.4855 202.047 73.0294L202.749 71.9195C201.279 71.1539 199.93 70.7928 198.701 70.8362C197.554 70.8719 196.341 71.2795 195.064 72.0591L190.257 79.145C189.663 80.0135 188.94 80.1567 188.089 79.5747C187.332 79.0573 187.251 78.3643 187.845 77.4959L194.036 68.4412C194.23 68.1575 194.529 67.7377 194.935 67.1819C195.348 66.632 195.652 66.2152 195.846 65.9315C196.44 65.063 197.115 64.8874 197.872 65.4048C198.715 65.981 198.652 66.9857 197.685 68.419C200.424 67.957 202.799 68.4139 204.811 69.7897C205.508 70.2659 205.849 70.8839 205.834 71.6436C205.819 72.4033 205.45 73.3119 204.727 74.3696C204.422 74.8168 204.211 75.1148 204.097 75.2637ZM209.728 94.3511C209.565 94.2394 209.398 93.8474 209.226 93.1751C209.081 92.558 209.007 92.0472 209.006 91.6426C207.875 91.5254 206.919 91.3639 206.138 91.1583C205.352 90.9613 204.748 90.7187 204.327 90.4307C202.315 89.0549 201.236 87.485 201.092 85.7208C200.953 84.0607 201.636 82.1301 203.141 79.9287C204.564 77.8478 206.494 76.5558 208.933 76.0528C211.38 75.5556 213.597 75.9861 215.583 77.3442C216.332 77.8557 217.038 78.6224 217.702 79.6443C218.542 80.9254 218.73 81.9057 218.265 82.585C218.107 82.8171 217.88 82.9647 217.584 83.0277C217.275 83.2957 216.838 83.7861 216.275 84.4989C215.721 85.2176 215.04 86.1587 214.231 87.3223C213.494 88.3827 212.991 89.2754 212.722 90.0003C212.549 90.4375 212.303 91.3794 211.983 92.826C211.937 93.0219 211.88 93.3174 211.812 93.7125L211.739 93.9846C211.504 94.3286 211.19 94.53 210.796 94.589C210.402 94.648 210.047 94.5687 209.728 94.3511ZM213.175 83.5524C213.428 83.1827 213.722 82.7975 214.059 82.397C214.411 81.9937 214.801 81.5794 215.231 81.1539C215.025 80.773 214.832 80.4645 214.653 80.2283C214.482 79.9981 214.328 79.8359 214.19 79.7419C212.857 78.8306 211.332 78.5888 209.613 79.0165C207.91 79.4414 206.573 80.3633 205.603 81.7822C204.638 83.1924 204.165 84.4205 204.181 85.4666C204.198 86.5128 204.705 87.3768 205.702 88.0588C206.528 88.6232 207.332 88.9519 208.113 89.0448C208.535 89.0931 209.192 89.0633 210.086 88.9553C211.369 86.4884 212.399 84.6875 213.175 83.5524ZM218.927 100.054C218.068 99.4661 217.216 98.6818 216.372 97.7011L212.131 103.849C211.872 104.227 211.54 104.454 211.135 104.531C210.738 104.613 210.355 104.527 209.985 104.274C209.615 104.022 209.392 103.693 209.316 103.287C209.248 102.888 209.344 102.499 209.603 102.12L213.169 96.9874L216.688 91.841C217.95 89.9402 219.058 88.1806 220.013 86.5623L221.61 83.8117C222.027 83.2011 222.492 82.7616 223.003 82.4931C223.608 82.1622 224.156 82.1643 224.646 82.4994C224.981 82.7287 225.178 83.0401 225.237 83.4338C225.311 83.8247 225.23 84.1921 224.995 84.5361C224.942 84.6135 224.832 84.7465 224.665 84.9353C224.44 85.1724 224.242 85.3969 224.072 85.6087C225.158 85.607 226.131 85.7167 226.989 85.9376C227.854 86.15 228.6 86.4708 229.227 86.9C230.99 88.1052 231.745 89.7696 231.492 91.8932C231.29 93.5723 230.492 95.4309 229.099 97.4688C227.829 99.3262 226.284 100.516 224.463 101.038C222.536 101.587 220.69 101.259 218.927 100.054ZM227.463 89.4796C226.672 88.9387 225.838 88.627 224.961 88.5445C224.335 88.4823 223.447 88.5441 222.298 88.73C221.075 90.7584 219.728 92.8474 218.259 94.9972C218.949 95.9992 219.763 96.8206 220.7 97.4614C221.775 98.1963 222.87 98.358 223.984 97.9463C224.95 97.5849 225.813 96.8496 226.571 95.7403C227.641 94.1753 228.247 92.8736 228.389 91.8351C228.546 90.7939 228.237 90.0088 227.463 89.4796ZM238.14 113.701C237.53 113.284 237.353 112.684 237.611 111.901C237.895 111.06 238.399 109.935 239.124 108.525C239.822 107.172 240.444 106.096 240.991 105.297C241.143 105.073 241.384 104.739 241.713 104.295C242.05 103.857 242.296 103.526 242.448 103.303C243.554 101.686 243.702 100.601 242.894 100.049C241.802 99.3021 240.488 99.1293 238.952 99.5302C238.166 99.7377 236.903 100.294 235.162 101.198C232.922 104.474 231.458 106.319 230.772 106.733C230.166 107.101 229.61 107.112 229.103 106.765C228.75 106.524 228.523 106.192 228.421 105.769C228.319 105.346 228.386 104.962 228.621 104.618C228.703 104.498 228.871 104.335 229.125 104.13C229.341 103.962 229.817 103.367 230.554 102.344L231.898 100.462L238.419 91.0079C239.208 89.9828 239.729 89.2853 239.982 88.9156C240.282 88.4771 240.521 88.0349 240.7 87.5892C240.893 87.1407 241.133 86.7058 241.421 86.2845C241.668 85.9233 241.996 85.7119 242.404 85.6502C242.818 85.5799 243.205 85.6683 243.567 85.9152C244.272 86.3973 244.426 87.0579 244.029 87.8969C243.596 88.825 243.15 89.6245 242.692 90.2952C242.075 91.1981 241.401 92.1191 240.67 93.0582C239.978 93.9602 239.313 94.8871 238.674 95.8388L237.911 96.9827C239.263 96.5189 240.498 96.3283 241.615 96.4107C242.746 96.4904 243.764 96.8389 244.667 97.4563C246.094 98.4322 246.757 99.5668 246.655 100.86C246.586 101.772 246.049 103.02 245.042 104.603L243.461 107.137L241.885 109.996C241.317 111.085 240.858 112.07 240.506 112.953C240.441 113.123 240.373 113.259 240.302 113.363C240.061 113.715 239.732 113.919 239.316 113.975C238.893 114.039 238.501 113.948 238.14 113.701ZM256.791 101.317C256.378 101.035 256.121 100.644 256.02 100.146C255.919 99.6482 256.01 99.1927 256.292 98.78C256.574 98.3672 256.966 98.1176 257.466 98.031C257.967 97.9444 258.424 98.0422 258.837 98.3244C259.25 98.6066 259.502 98.9938 259.595 99.4861C259.696 99.9842 259.605 100.44 259.323 100.852C259.041 101.265 258.649 101.515 258.148 101.601C257.656 101.694 257.204 101.599 256.791 101.317ZM250.21 112.187C249.858 112.703 249.341 113.486 248.662 114.535C247.996 115.582 247.487 116.363 247.135 116.879C246.876 117.258 246.548 117.488 246.151 117.57C245.755 117.652 245.367 117.564 244.989 117.305C244.619 117.052 244.396 116.723 244.32 116.318C244.252 115.918 244.348 115.529 244.607 115.151C244.959 114.635 245.468 113.854 246.134 112.807C246.813 111.757 247.329 110.975 247.682 110.459C248.235 109.65 248.966 108.674 249.875 107.529C250.79 106.375 251.524 105.394 252.076 104.586C252.341 104.199 252.672 103.964 253.068 103.882C253.474 103.806 253.861 103.894 254.231 104.147C254.601 104.4 254.819 104.726 254.887 105.126C254.963 105.531 254.869 105.927 254.604 106.314C254.052 107.122 253.318 108.103 252.403 109.257C251.494 110.402 250.763 111.379 250.21 112.187ZM255.841 125.823C254.078 124.617 252.972 123.079 252.523 121.207C252.049 119.243 252.438 117.345 253.69 115.513C254.884 113.767 256.696 112.363 259.127 111.299C261.828 110.117 263.986 110.079 265.603 111.184C266.446 111.761 267.252 112.602 268.022 113.709C268.991 115.116 269.225 116.185 268.726 116.916C268.502 117.242 268.195 117.461 267.803 117.572C267.418 117.675 267.066 117.617 266.748 117.4C266.499 117.229 266.329 117.006 266.24 116.731C266.165 116.452 266.092 116.181 266.02 115.918C265.789 115.166 265.097 114.397 263.945 113.609C263.068 113.01 261.665 113.198 259.735 114.175C257.97 115.076 256.729 116.051 256.012 117.1C255.236 118.235 255.012 119.394 255.339 120.577C255.644 121.681 256.364 122.622 257.499 123.398C258.015 123.75 258.659 123.989 259.432 124.114L261.475 124.337C261.827 124.376 262.059 124.433 262.17 124.51C262.489 124.727 262.676 125.045 262.731 125.461C262.793 125.869 262.712 126.237 262.489 126.564C262.06 127.191 260.983 127.345 259.259 127.024C257.745 126.746 256.606 126.346 255.841 125.823ZM106.628 68.9641L103.368 73.0951C102.141 74.7796 101.003 76.065 99.9555 76.9513C98.6161 78.0797 97.2944 78.684 95.9904 78.764C94.4118 78.8582 92.6465 78.238 90.6945 76.9034C89.5509 76.1215 88.645 75.3885 87.9769 74.7046C87.0405 73.7488 86.8044 72.9313 87.2689 72.252C87.7922 71.4867 88.4279 71.3598 89.176 71.8713C89.4855 72.0829 89.9515 72.5088 90.5738 73.1488C91.1903 73.7975 91.943 74.413 92.8318 74.9955C94.5004 76.0986 96.1866 76.0779 97.8902 74.9335C99.0202 74.1666 100.342 72.7042 101.855 70.5464C100.803 71.0888 99.8073 71.3545 98.8684 71.3435C97.9381 71.3383 97.0602 71.0536 96.2347 70.4892C94.6783 69.425 93.7716 68.029 93.5145 66.3011C93.2718 64.5705 93.7296 62.8582 94.8878 61.1642C96.4752 58.8425 98.4204 57.4279 100.723 56.9203C103.099 56.3992 105.473 56.95 107.846 58.5727C108.646 59.1195 109.246 59.6812 109.647 60.258C110.047 60.8348 110.248 61.4265 110.25 62.0333C111.152 62.6882 111.263 63.5143 110.581 64.5118C110.163 65.1223 109.514 65.8775 108.634 66.7773C107.625 67.8287 106.956 68.5577 106.628 68.9641ZM106.306 60.5482C104.672 59.4312 103.023 59.1301 101.359 59.6451C99.8653 60.113 98.5836 61.1295 97.5136 62.6945C96.6611 63.9413 96.2567 65.0403 96.3004 65.9913C96.3442 66.9424 96.839 67.7413 97.7849 68.3881C98.6534 68.9819 99.8312 69.0679 101.318 68.6462C102.675 68.2489 103.708 67.6427 104.417 66.8276C105.232 66.0223 106.422 64.6971 107.987 62.8519C107.825 62.3501 107.603 61.9084 107.322 61.5266C107.04 61.1448 106.702 60.8187 106.306 60.5482ZM111.863 81.572C109.92 80.2433 108.678 78.6816 108.139 76.8868C107.558 74.9124 107.929 72.9578 109.252 71.0231C110.78 68.7874 112.604 67.2832 114.722 66.5106C117.029 65.6651 119.167 65.9155 121.136 67.2619C122.564 68.2378 123.564 69.2752 124.138 70.3741C124.841 71.7259 124.773 73.0166 123.932 74.2462C123.344 75.1061 122.323 75.5564 120.869 75.5971C120.228 75.6127 118.987 75.4711 117.147 75.1721L110.624 74.1379C110.617 75.1809 110.848 76.1269 111.314 76.976C111.79 77.831 112.505 78.5848 113.459 79.2375C114.052 79.6431 114.825 80.0076 115.778 80.3308C116.987 80.7408 117.893 80.8178 118.497 80.562C119.107 80.2975 119.579 80.28 119.915 80.5093C120.216 80.715 120.403 81.0134 120.476 81.4043C120.564 81.7925 120.505 82.1371 120.299 82.438C119.647 83.3925 118.316 83.6875 116.306 83.323C114.591 83.0082 113.11 82.4245 111.863 81.572ZM119.549 69.5836C118.5 68.8663 117.348 68.678 116.093 69.0187C114.843 69.3507 113.488 70.2161 112.027 71.6147L117.275 72.4389C119.348 72.7464 120.907 72.847 121.952 72.7408C121.683 71.5473 120.882 70.4949 119.549 69.5836ZM136.86 81.6656C136.679 81.5422 136.47 81.3866 136.232 81.1989C136.003 81.0171 135.799 80.8644 135.618 80.741C135.42 80.6057 134.791 80.2704 133.732 79.7351L128.765 87.5255L128.389 88.1019L127.953 88.7685C126.699 90.6752 125.604 91.3081 124.667 90.6673C124.323 90.4321 124.098 90.1145 123.993 89.7146C123.897 89.3205 123.963 88.9558 124.193 88.6204C124.416 88.2937 124.764 87.8124 125.237 87.1765C125.709 86.5406 126.057 86.0593 126.281 85.7325L131.173 78.0235C130.563 77.5685 129.658 76.8428 128.459 75.8464C127.765 75.22 127.673 74.5327 128.185 73.7846C128.443 73.4063 128.774 73.1718 129.177 73.0812C129.579 72.9905 129.961 73.0687 130.322 73.3156L132.881 75.3869C133.181 74.9483 133.559 74.3489 134.016 73.5886C134.487 72.8256 134.834 72.2807 135.058 71.9539C135.305 71.5928 135.632 71.3814 136.04 71.3197C136.454 71.2494 136.842 71.3378 137.203 71.5847C137.977 72.1138 137.996 73.0545 137.261 74.4067C137.069 74.7425 136.821 75.134 136.515 75.5811L135.978 76.3116L135.418 77.1025C136.578 77.6939 137.236 78.0426 137.391 78.1484C138.285 78.7598 138.84 79.2026 139.057 79.4768C139.464 80.0074 139.449 80.5908 139.014 81.2272C138.756 81.6055 138.421 81.8371 138.009 81.9218C137.613 82.0038 137.229 81.9184 136.86 81.6656ZM148.674 91.2953C148.201 90.9719 147.978 90.5865 148.007 90.139C148.031 89.8273 148.236 89.2865 148.624 88.5167C147.867 88.2391 146.668 87.861 145.027 87.3824C143.266 86.9862 142.105 87.1893 141.544 87.9917C141.737 88.2626 141.944 88.5049 142.164 88.7184C143.901 90.4232 145.039 91.9144 145.579 93.192C146.363 95.0532 146.17 96.8394 145 98.5505C144.042 99.9522 142.713 100.595 141.012 100.48C139.606 100.377 138.134 99.7991 136.594 98.7467C135.468 97.9765 134.523 97.0525 133.758 95.9745C132.763 94.5875 132.559 93.4641 133.147 92.6042C133.383 92.2603 133.722 92.0504 134.165 91.9747C134.616 91.9049 135.014 91.9876 135.358 92.2227C135.624 92.405 135.827 92.8465 135.966 93.5474C136.037 93.8862 136.39 94.3671 137.024 94.9899C137.53 95.487 137.98 95.8708 138.376 96.1413C139.098 96.6351 139.793 96.9842 140.461 97.1885C141.431 97.4859 142.102 97.3637 142.472 96.822C143.272 95.6526 142.996 94.3029 141.644 92.7731L140.506 91.5593C139.532 90.528 138.92 89.68 138.667 89.0154C138.3 88.0577 138.449 87.093 139.113 86.1213C140.342 84.3241 142.065 83.622 144.282 84.0149C144.957 84.1355 145.97 84.4247 147.323 84.8827C148.681 85.332 149.682 85.6124 150.325 85.7239C150.784 85.8102 151.219 85.9945 151.632 86.2767C152.002 86.5295 152.22 86.8556 152.288 87.2551C152.364 87.6605 152.27 88.0567 152.005 88.4436C151.835 88.693 151.636 89.0937 151.41 89.6458C151.193 90.2038 150.999 90.6075 150.828 90.8568C150.564 91.2438 150.229 91.4753 149.824 91.5515C149.427 91.6335 149.043 91.5481 148.674 91.2953ZM170.086 104.383C169.905 104.26 169.696 104.104 169.458 103.916C169.229 103.735 169.025 103.582 168.844 103.459C168.646 103.323 168.018 102.988 166.958 102.453L161.991 110.243L161.616 110.819L161.179 111.486C159.926 113.393 158.83 114.026 157.893 113.385C157.549 113.15 157.325 112.832 157.219 112.432C157.123 112.038 157.189 111.673 157.419 111.338C157.642 111.011 157.99 110.53 158.463 109.894C158.935 109.258 159.283 108.777 159.507 108.45L164.399 100.741C163.789 100.286 162.884 99.5604 161.686 98.564C160.991 97.9376 160.899 97.2503 161.411 96.5022C161.669 96.1239 162 95.8894 162.403 95.7988C162.805 95.7081 163.187 95.7863 163.548 96.0332L166.107 98.1045C166.407 97.6659 166.785 97.0665 167.242 96.3062C167.713 95.5432 168.061 94.9983 168.284 94.6715C168.531 94.3104 168.858 94.099 169.267 94.0373C169.681 93.967 170.068 94.0554 170.429 94.3023C171.203 94.8314 171.222 95.7721 170.487 97.1243C170.295 97.4601 170.047 97.8516 169.741 98.2987L169.204 99.0292L168.644 99.8201C169.804 100.412 170.462 100.76 170.617 100.866C171.511 101.477 172.066 101.92 172.283 102.194C172.69 102.725 172.676 103.308 172.241 103.945C171.982 104.323 171.647 104.555 171.236 104.639C170.839 104.721 170.456 104.636 170.086 104.383ZM176.652 126.173C176.041 125.756 175.865 125.155 176.123 124.373C176.407 123.532 176.911 122.407 177.636 120.997C178.333 119.644 178.956 118.568 179.502 117.768C179.655 117.545 179.896 117.211 180.225 116.767C180.562 116.329 180.807 115.998 180.96 115.774C182.066 114.158 182.214 113.073 181.406 112.521C180.314 111.774 179 111.601 177.464 112.002C176.678 112.209 175.415 112.765 173.674 113.669C171.434 116.946 169.97 118.791 169.284 119.204C168.678 119.573 168.122 119.584 167.615 119.237C167.262 118.996 167.035 118.664 166.933 118.241C166.831 117.818 166.898 117.434 167.133 117.09C167.215 116.97 167.383 116.807 167.637 116.602C167.853 116.434 168.329 115.839 169.066 114.816L170.41 112.933L176.931 103.48C177.72 102.455 178.241 101.757 178.494 101.387C178.794 100.949 179.033 100.507 179.212 100.061C179.405 99.6125 179.645 99.1776 179.933 98.7562C180.18 98.3951 180.508 98.1837 180.916 98.122C181.33 98.0517 181.717 98.1401 182.079 98.387C182.784 98.8691 182.938 99.5296 182.541 100.369C182.108 101.297 181.662 102.096 181.204 102.767C180.586 103.67 179.913 104.591 179.182 105.53C178.49 106.432 177.824 107.359 177.186 108.311L176.423 109.454C177.775 108.991 179.009 108.8 180.127 108.882C181.258 108.962 182.276 109.311 183.178 109.928C184.606 110.904 185.269 112.039 185.167 113.332C185.098 114.244 184.561 115.492 183.554 117.075L181.973 119.609L180.397 122.468C179.829 123.556 179.37 124.542 179.018 125.425C178.953 125.595 178.885 125.731 178.814 125.834C178.573 126.187 178.244 126.391 177.828 126.447C177.405 126.511 177.013 126.42 176.652 126.173ZM187.292 133.145C185.349 131.817 184.108 130.255 183.568 128.46C182.987 126.486 183.358 124.531 184.681 122.596C186.21 120.361 188.033 118.856 190.151 118.084C192.458 117.238 194.596 117.489 196.566 118.835C197.993 119.811 198.993 120.848 199.567 121.947C200.271 123.299 200.202 124.59 199.361 125.819C198.773 126.679 197.753 127.13 196.299 127.17C195.657 127.186 194.416 127.044 192.577 126.745L186.053 125.711C186.047 126.754 186.277 127.7 186.744 128.549C187.219 129.404 187.934 130.158 188.889 130.811C189.482 131.216 190.255 131.581 191.207 131.904C192.416 132.314 193.322 132.391 193.926 132.135C194.536 131.871 195.009 131.853 195.344 132.082C195.645 132.288 195.832 132.587 195.906 132.977C195.994 133.366 195.935 133.71 195.729 134.011C195.076 134.966 193.745 135.261 191.736 134.896C190.02 134.581 188.539 133.998 187.292 133.145ZM194.978 121.157C193.929 120.439 192.777 120.251 191.522 120.592C190.273 120.924 188.918 121.789 187.457 123.188L192.704 124.012C194.778 124.32 196.337 124.42 197.381 124.314C197.112 123.12 196.311 122.068 194.978 121.157ZM209.213 147.925C208.353 147.337 207.502 146.553 206.658 145.572L202.417 151.72C202.158 152.098 201.826 152.325 201.42 152.402C201.024 152.484 200.64 152.398 200.271 152.145C199.901 151.893 199.678 151.564 199.602 151.158C199.534 150.759 199.63 150.37 199.889 149.991L203.455 144.858L206.974 139.712C208.235 137.811 209.344 136.052 210.299 134.433L211.896 131.683C212.313 131.072 212.778 130.633 213.289 130.364C213.894 130.033 214.442 130.035 214.932 130.37C215.267 130.6 215.464 130.911 215.523 131.305C215.597 131.696 215.516 132.063 215.281 132.407C215.228 132.484 215.118 132.618 214.951 132.806C214.726 133.043 214.528 133.268 214.358 133.48C215.444 133.478 216.417 133.588 217.275 133.809C218.139 134.021 218.885 134.342 219.513 134.771C221.276 135.976 222.031 137.641 221.778 139.764C221.576 141.443 220.778 143.302 219.385 145.34C218.115 147.197 216.57 148.387 214.749 148.909C212.821 149.458 210.976 149.13 209.213 147.925ZM217.749 137.351C216.958 136.81 216.124 136.498 215.247 136.416C214.62 136.353 213.733 136.415 212.583 136.601C211.361 138.629 210.014 140.718 208.544 142.868C209.235 143.87 210.049 144.692 210.986 145.332C212.061 146.067 213.155 146.229 214.27 145.817C215.236 145.456 216.098 144.721 216.857 143.611C217.927 142.046 218.533 140.745 218.675 139.706C218.832 138.665 218.523 137.88 217.749 137.351ZM222.493 157.459C221.049 156.471 220.171 155.089 219.859 153.311C219.51 151.331 219.99 149.318 221.299 147.274C222.577 145.295 224.237 143.919 226.28 143.145C228.677 142.223 230.951 142.497 233.1 143.966C234.82 145.142 235.585 146.82 235.395 148.999C235.23 150.754 234.523 152.517 233.274 154.287C231.943 156.179 230.33 157.467 228.436 158.153C226.288 158.931 224.308 158.7 222.493 157.459ZM231.142 146.47C229.884 145.597 228.488 145.526 226.954 146.256C225.731 146.846 224.693 147.764 223.84 149.011C222.988 150.258 222.663 151.462 222.866 152.623C223.04 153.587 223.509 154.33 224.275 154.854C225.169 155.465 226.162 155.665 227.254 155.452C228.478 155.229 229.533 154.518 230.416 153.318C232.812 150.072 233.054 147.79 231.142 146.47ZM245.709 148.253C245.297 147.971 245.04 147.581 244.939 147.083C244.838 146.584 244.928 146.129 245.21 145.716C245.493 145.303 245.884 145.054 246.385 144.967C246.886 144.881 247.343 144.978 247.755 145.261C248.168 145.543 248.421 145.93 248.513 146.422C248.614 146.92 248.524 147.376 248.242 147.789C247.959 148.201 247.568 148.451 247.067 148.538C246.575 148.63 246.122 148.535 245.709 148.253ZM239.129 159.123C238.776 159.639 238.26 160.422 237.58 161.471C236.915 162.518 236.406 163.3 236.053 163.816C235.795 164.194 235.467 164.424 235.07 164.506C234.673 164.588 234.286 164.5 233.907 164.241C233.538 163.988 233.315 163.659 233.238 163.254C233.171 162.854 233.266 162.465 233.525 162.087C233.878 161.571 234.387 160.79 235.052 159.743C235.732 158.693 236.248 157.911 236.601 157.395C237.153 156.587 237.884 155.61 238.793 154.465C239.708 153.311 240.442 152.33 240.995 151.522C241.259 151.135 241.59 150.9 241.987 150.818C242.392 150.742 242.78 150.831 243.15 151.083C243.519 151.336 243.738 151.662 243.806 152.062C243.882 152.467 243.788 152.863 243.523 153.25C242.97 154.059 242.236 155.04 241.322 156.193C240.412 157.338 239.682 158.315 239.129 159.123ZM248.752 175.64C248.012 175.134 247.871 174.445 248.329 173.572L249.9 170.5C250.467 169.412 251.051 168.429 251.65 167.552C251.815 167.311 252.107 166.912 252.527 166.353C252.955 165.801 253.252 165.404 253.416 165.163C254.686 163.306 254.977 162.142 254.289 161.672C253.326 161.013 252.015 160.956 250.356 161.5C248.854 161.999 247.335 162.892 245.8 164.177C245.554 164.5 245.227 164.895 244.82 165.361C244.474 165.756 244.163 166.156 243.887 166.56C243.711 166.818 243.472 167.222 243.171 167.773C242.87 168.325 242.631 168.729 242.454 168.987C242.19 169.374 241.855 169.606 241.449 169.682C241.053 169.764 240.669 169.679 240.3 169.426C239.921 169.167 239.698 168.838 239.631 168.438C239.563 168.039 239.662 167.646 239.926 167.259C240.103 167.001 240.337 166.593 240.63 166.036C240.931 165.485 241.17 165.08 241.346 164.822C241.952 163.937 242.85 162.753 244.04 161.27C245.245 159.784 246.15 158.599 246.756 157.713C246.944 157.438 247.206 157.018 247.542 156.453C247.887 155.893 248.153 155.476 248.341 155.201C248.594 154.831 248.92 154.612 249.32 154.545C249.734 154.475 250.121 154.563 250.482 154.81C251.273 155.351 251.325 156.207 250.639 157.377L249.645 158.913C252.407 157.974 254.549 158.026 256.071 159.066C257.447 160.007 257.991 161.269 257.704 162.851C257.521 163.913 256.906 165.246 255.858 166.852L254.967 168.154L254.134 169.345C253.646 170.059 253.105 171.045 252.509 172.303C251.928 173.559 251.397 174.54 250.915 175.245C250.656 175.623 250.322 175.843 249.914 175.905C249.509 175.981 249.121 175.893 248.752 175.64ZM269.454 172.324C269.274 172.201 269.065 172.045 268.827 171.858C268.598 171.676 268.393 171.523 268.213 171.4C268.015 171.264 267.386 170.929 266.326 170.394L261.359 178.184L260.984 178.761L260.547 179.427C259.294 181.334 258.199 181.967 257.262 181.326C256.918 181.091 256.693 180.773 256.588 180.373C256.492 179.979 256.558 179.615 256.787 179.279C257.011 178.952 257.359 178.471 257.831 177.835C258.304 177.199 258.652 176.718 258.875 176.391L263.768 168.682C263.158 168.227 262.253 167.502 261.054 166.505C260.359 165.879 260.268 165.191 260.779 164.443C261.038 164.065 261.369 163.831 261.771 163.74C262.174 163.649 262.556 163.727 262.917 163.974L265.476 166.046C265.776 165.607 266.154 165.008 266.611 164.247C267.082 163.484 267.429 162.939 267.653 162.613C267.9 162.252 268.227 162.04 268.635 161.978C269.049 161.908 269.437 161.997 269.798 162.243C270.572 162.773 270.591 163.713 269.856 165.065C269.664 165.401 269.415 165.793 269.11 166.24L268.572 166.97L268.013 167.761C269.173 168.353 269.831 168.701 269.985 168.807C270.88 169.419 271.435 169.861 271.651 170.136C272.058 170.666 272.044 171.25 271.609 171.886C271.351 172.264 271.016 172.496 270.604 172.581C270.207 172.663 269.824 172.577 269.454 172.324ZM76.3046 112.151C76.1413 112.04 75.9739 111.648 75.8027 110.975C75.6568 110.358 75.5833 109.847 75.5823 109.443C74.4511 109.326 73.4952 109.164 72.7146 108.959C71.9281 108.762 71.3242 108.519 70.9029 108.231C68.8907 106.855 67.8127 105.285 67.6686 103.521C67.5292 101.861 68.212 99.9303 69.7171 97.7289C71.1399 95.648 73.0706 94.356 75.5093 93.853C77.9565 93.3558 80.1733 93.7863 82.1597 95.1444C82.9078 95.6559 83.6139 96.4226 84.278 97.4445C85.1182 98.7257 85.3061 99.7059 84.8416 100.385C84.6829 100.617 84.4558 100.765 84.1603 100.828C83.8509 101.096 83.4147 101.586 82.8516 102.299C82.2971 103.018 81.6158 103.959 80.8076 105.123C80.0699 106.183 79.5669 107.076 79.2983 107.801C79.1256 108.238 78.8791 109.18 78.5588 110.626C78.5132 110.822 78.4562 111.118 78.3881 111.513L78.3155 111.785C78.0804 112.129 77.766 112.33 77.3723 112.389C76.9787 112.448 76.6228 112.369 76.3046 112.151ZM79.7509 101.353C80.0038 100.983 80.2986 100.598 80.6356 100.197C80.987 99.7939 81.3776 99.3796 81.8073 98.9541C81.6009 98.5732 81.408 98.2647 81.2288 98.0285C81.0581 97.7983 80.904 97.6361 80.7664 97.5421C79.4336 96.6308 77.908 96.389 76.1896 96.8167C74.4858 97.2417 73.1488 98.1635 72.1787 99.5824C71.2145 100.993 70.7407 102.221 70.7574 103.267C70.774 104.313 71.281 105.177 72.2785 105.859C73.104 106.423 73.9077 106.752 74.6896 106.845C75.1109 106.893 75.7685 106.863 76.6626 106.755C77.9454 104.289 78.9749 102.488 79.7509 101.353ZM85.605 118.453C83.8422 117.248 82.7363 115.71 82.2873 113.838C81.8134 111.874 82.2026 109.975 83.4548 108.144C84.6483 106.398 86.4605 104.994 88.8913 103.93C91.5921 102.748 93.7509 102.71 95.3674 103.815C96.2101 104.391 97.0165 105.233 97.7865 106.34C98.7553 107.747 98.9898 108.816 98.49 109.547C98.2666 109.873 97.9592 110.092 97.5679 110.203C97.1824 110.306 96.8306 110.248 96.5124 110.031C96.2631 109.86 96.0938 109.637 96.0045 109.361C95.9298 109.083 95.8564 108.812 95.7844 108.548C95.5534 107.797 94.8617 107.028 93.7095 106.24C92.8324 105.64 91.4289 105.829 89.499 106.806C87.7346 107.707 86.4938 108.682 85.7765 109.731C85.0005 110.866 84.776 112.025 85.1031 113.208C85.4079 114.312 86.1279 115.253 87.263 116.029C87.7789 116.381 88.4233 116.62 89.1961 116.745L91.2391 116.968C91.5912 117.007 91.8231 117.064 91.9349 117.141C92.253 117.358 92.44 117.675 92.4958 118.092C92.5574 118.5 92.4766 118.868 92.2532 119.194C91.824 119.822 90.7474 119.976 89.0234 119.655C87.5097 119.377 86.3703 118.977 85.605 118.453ZM110.452 120.262C109.657 121.295 108.859 121.539 108.059 120.992C107.32 120.486 107.241 119.808 107.823 118.957C107.935 118.793 108.128 118.483 108.402 118.027L109.104 116.917C107.634 116.152 106.284 115.791 105.056 115.834C103.908 115.87 102.696 116.277 101.418 117.057L96.6114 124.143C96.0176 125.011 95.2951 125.155 94.4438 124.572C93.6871 124.055 93.6056 123.362 94.1994 122.494L100.39 113.439C100.584 113.155 100.884 112.736 101.289 112.18C101.703 111.63 102.007 111.213 102.201 110.929C102.795 110.061 103.47 109.885 104.227 110.403C105.069 110.979 105.007 111.984 104.04 113.417C106.778 112.955 109.154 113.412 111.166 114.788C111.862 115.264 112.203 115.882 112.189 116.641C112.174 117.401 111.805 118.31 111.082 119.367C110.776 119.815 110.566 120.113 110.452 120.262ZM110.908 135.678C109.463 134.69 108.585 133.308 108.274 131.53C107.925 129.55 108.405 127.537 109.714 125.493C110.991 123.514 112.652 122.138 114.695 121.364C117.092 120.442 119.366 120.716 121.515 122.185C123.235 123.361 124 125.039 123.81 127.218C123.645 128.973 122.938 130.735 121.689 132.506C120.358 134.398 118.745 135.686 116.85 136.372C114.703 137.15 112.722 136.919 110.908 135.678ZM119.557 124.689C118.299 123.816 116.903 123.745 115.369 124.475C114.146 125.065 113.108 125.983 112.255 127.23C111.403 128.477 111.078 129.681 111.281 130.842C111.455 131.806 111.924 132.549 112.69 133.073C113.584 133.684 114.577 133.884 115.669 133.671C116.893 133.448 117.948 132.737 118.831 131.537C121.227 128.291 121.469 126.009 119.557 124.689ZM135.993 137.138C135.52 136.815 135.298 136.429 135.326 135.982C135.35 135.67 135.556 135.129 135.943 134.359C135.186 134.082 133.988 133.704 132.346 133.225C130.586 132.829 129.425 133.032 128.863 133.834C129.057 134.105 129.263 134.348 129.483 134.561C131.22 136.266 132.358 137.757 132.898 139.035C133.682 140.896 133.489 142.682 132.319 144.393C131.361 145.795 130.032 146.438 128.331 146.323C126.925 146.22 125.453 145.642 123.914 144.589C122.787 143.819 121.842 142.895 121.077 141.817C120.082 140.43 119.879 139.307 120.467 138.447C120.702 138.103 121.041 137.893 121.484 137.817C121.935 137.748 122.333 137.83 122.677 138.065C122.944 138.248 123.146 138.689 123.286 139.39C123.357 139.729 123.709 140.21 124.343 140.833C124.849 141.33 125.3 141.713 125.695 141.984C126.417 142.478 127.113 142.827 127.78 143.031C128.751 143.329 129.421 143.206 129.791 142.665C130.591 141.495 130.315 140.146 128.963 138.616L127.825 137.402C126.852 136.371 126.239 135.523 125.987 134.858C125.619 133.9 125.768 132.936 126.432 131.964C127.661 130.167 129.384 129.465 131.601 129.858C132.276 129.978 133.29 130.267 134.642 130.725C136.001 131.175 137.001 131.455 137.644 131.567C138.103 131.653 138.538 131.837 138.951 132.119C139.321 132.372 139.539 132.698 139.607 133.098C139.683 133.503 139.589 133.899 139.324 134.286C139.154 134.536 138.956 134.936 138.73 135.488C138.512 136.046 138.318 136.45 138.148 136.699C137.883 137.086 137.548 137.318 137.143 137.394C136.746 137.476 136.363 137.391 135.993 137.138ZM148.865 145.939C148.392 145.616 148.17 145.23 148.199 144.783C148.222 144.471 148.428 143.93 148.816 143.161C148.059 142.883 146.86 142.505 145.219 142.026C143.458 141.63 142.297 141.833 141.736 142.636C141.929 142.907 142.136 143.149 142.356 143.362C144.092 145.067 145.231 146.558 145.77 147.836C146.555 149.697 146.362 151.483 145.192 153.194C144.234 154.596 142.904 155.239 141.204 155.124C139.798 155.021 138.325 154.443 136.786 153.391C135.66 152.621 134.714 151.696 133.95 150.618C132.955 149.231 132.751 148.108 133.339 147.248C133.574 146.904 133.913 146.694 134.356 146.619C134.808 146.549 135.206 146.632 135.549 146.867C135.816 147.049 136.019 147.49 136.158 148.191C136.229 148.53 136.582 149.011 137.216 149.634C137.722 150.131 138.172 150.515 138.568 150.785C139.29 151.279 139.985 151.628 140.653 151.832C141.623 152.13 142.293 152.008 142.664 151.466C143.463 150.297 143.187 148.947 141.836 147.417L140.697 146.203C139.724 145.172 139.111 144.324 138.859 143.659C138.492 142.702 138.64 141.737 139.305 140.765C140.534 138.968 142.257 138.266 144.474 138.659C145.149 138.779 146.162 139.069 147.515 139.527C148.873 139.976 149.874 140.256 150.517 140.368C150.975 140.454 151.411 140.638 151.824 140.921C152.193 141.173 152.412 141.5 152.48 141.899C152.556 142.304 152.461 142.701 152.197 143.088C152.026 143.337 151.828 143.738 151.602 144.29C151.385 144.848 151.191 145.251 151.02 145.501C150.756 145.888 150.421 146.119 150.015 146.195C149.618 146.277 149.235 146.192 148.865 145.939ZM159.788 168.777C158.472 167.877 157.453 166.802 156.731 165.551C156.174 165.776 155.697 165.753 155.302 165.483C154.975 165.259 154.775 164.952 154.702 164.561C154.631 164.185 154.713 163.824 154.948 163.48C155.101 163.257 155.336 162.932 155.653 162.505C155.979 162.084 156.218 161.762 156.371 161.538C156.994 160.627 157.9 159.246 159.089 157.397C160.293 155.544 161.206 154.162 161.829 153.251C162.258 152.623 163.074 151.439 164.276 149.7C165.484 147.951 166.306 146.759 166.741 146.123C167.093 145.607 167.518 145.216 168.015 144.95C168.658 144.62 169.228 144.625 169.727 144.966C170.372 145.407 170.439 146.001 169.927 146.75C169.845 146.87 169.703 147.031 169.501 147.234C169.3 147.437 169.157 147.599 169.075 147.719L167.105 150.517L164.831 153.789C165.925 153.793 166.894 153.9 167.735 154.109C168.59 154.315 169.315 154.621 169.908 155.027C171.757 156.291 172.773 158.026 172.955 160.233C173.127 162.307 172.549 164.315 171.22 166.259C169.879 168.219 168.11 169.451 165.911 169.954C163.712 170.457 161.671 170.064 159.788 168.777ZM168.242 157.465C167.536 156.983 166.679 156.687 165.669 156.577C165.173 156.527 164.262 156.53 162.939 156.584L161.387 158.797L160.024 160.818L158.591 162.942C158.874 163.414 159.29 164.051 159.838 164.855C160.26 165.383 160.801 165.873 161.463 166.326C162.71 167.179 164.033 167.44 165.433 167.109C166.832 166.779 167.979 165.96 168.872 164.653C169.748 163.372 170.158 162.081 170.101 160.78C170.039 159.375 169.42 158.27 168.242 157.465ZM185.494 174.504C185.071 175.123 184.44 176.055 183.602 177.299C182.764 178.543 182.134 179.475 181.71 180.094C181.581 180.283 181.397 180.58 181.158 180.985C180.928 181.395 180.748 181.695 180.619 181.884C180.366 182.254 180.036 182.469 179.628 182.531C179.214 182.601 178.826 182.513 178.465 182.266C177.803 181.813 177.661 181.117 178.039 180.177C176.582 180.001 175.152 179.433 173.751 178.475C172.624 177.705 171.862 176.818 171.463 175.813C171.023 174.704 171.087 173.568 171.655 172.405C172.878 169.897 174.097 167.753 175.314 165.973C176.12 164.795 177.166 163.541 178.453 162.213C179.085 161.547 179.749 161.452 180.445 161.929C180.815 162.182 181.042 162.514 181.127 162.925C181.218 163.328 181.137 163.714 180.884 164.083C180.613 164.479 180.117 165.067 179.394 165.847C178.68 166.633 178.167 167.254 177.855 167.71C176.874 169.146 176.08 170.408 175.475 171.496C174.87 172.584 174.45 173.502 174.216 174.251C174.394 174.599 174.591 174.911 174.808 175.185C175.03 175.451 175.274 175.674 175.541 175.857C176.693 176.645 178.036 177.292 179.57 177.798L181.348 175.171L183.033 172.651C184.303 170.793 185.487 169.237 186.585 167.981C187.22 167.255 187.908 167.145 188.647 167.65C189.017 167.903 189.244 168.235 189.329 168.646C189.414 169.058 189.324 169.438 189.06 169.787L185.494 174.504ZM199.711 179.152C199.531 179.029 199.322 178.873 199.084 178.685C198.855 178.503 198.65 178.351 198.47 178.227C198.272 178.092 197.643 177.757 196.583 177.221L191.616 185.012L191.241 185.588L190.804 186.255C189.551 188.162 188.456 188.794 187.519 188.154C187.175 187.918 186.95 187.601 186.845 187.201C186.749 186.807 186.815 186.442 187.044 186.107C187.268 185.78 187.616 185.299 188.088 184.663C188.561 184.027 188.909 183.546 189.132 183.219L194.025 175.51C193.415 175.055 192.51 174.329 191.311 173.333C190.616 172.706 190.525 172.019 191.036 171.271C191.295 170.893 191.626 170.658 192.028 170.568C192.431 170.477 192.813 170.555 193.174 170.802L195.733 172.873C196.033 172.435 196.411 171.835 196.868 171.075C197.339 170.312 197.686 169.767 197.91 169.44C198.157 169.079 198.484 168.868 198.892 168.806C199.306 168.736 199.694 168.824 200.055 169.071C200.829 169.6 200.848 170.541 200.113 171.893C199.921 172.229 199.672 172.62 199.367 173.068L198.829 173.798L198.27 174.589C199.43 175.18 200.088 175.529 200.242 175.635C201.137 176.246 201.692 176.689 201.908 176.963C202.315 177.494 202.301 178.077 201.866 178.714C201.608 179.092 201.273 179.323 200.861 179.408C200.464 179.49 200.081 179.405 199.711 179.152ZM61.081 138.293C60.1136 139.486 59.1977 140.715 58.3335 141.979C56.3757 144.842 55.0303 147.096 54.2974 148.74C54.2323 148.872 54.1733 148.977 54.1204 149.054C53.8852 149.398 53.5708 149.6 53.1771 149.659C52.7835 149.718 52.4276 149.638 52.1095 149.421C51.5763 149.056 51.4497 148.402 51.7294 147.458C50.7987 147.49 49.9186 147.393 49.0892 147.167C48.2683 146.946 47.4967 146.589 46.7744 146.095C44.9944 144.878 43.9254 143.276 43.5673 141.29C43.1924 139.255 43.6547 137.287 44.954 135.386C46.5238 133.09 48.3882 131.665 50.5472 131.109C52.7148 130.56 54.7703 130.949 56.7136 132.278C57.7111 132.96 58.3748 133.641 58.7049 134.321L59.3089 136.04C61.9044 132.502 63.7131 130.161 64.7348 129.018C65.3699 128.329 66.0228 128.214 66.6935 128.672C67.476 129.207 67.5821 129.892 67.0118 130.726C66.1946 131.921 64.2176 134.443 61.081 138.293ZM55.1249 134.712C53.6803 133.725 52.3028 133.414 50.9926 133.78C49.6882 134.137 48.4481 135.176 47.2723 136.896C46.5138 138.005 46.2525 139.227 46.4882 140.562C46.7325 141.902 47.3835 142.934 48.4412 143.657C49.1635 144.151 49.8652 144.435 50.5461 144.51C50.9443 144.555 51.6656 144.524 52.7098 144.418C52.9152 144.394 53.1311 144.346 53.3573 144.274L54.8443 142.016L55.8801 140.529L56.9466 139.024C57.096 138.104 57.0175 137.287 56.7109 136.573C56.4103 135.85 55.8816 135.23 55.1249 134.712ZM62.562 156.889C60.6186 155.561 59.3772 153.999 58.8377 152.204C58.257 150.23 58.6281 148.275 59.9509 146.34C61.4795 144.105 63.3029 142.601 65.4212 141.828C67.728 140.982 69.866 141.233 71.8352 142.579C73.2626 143.555 74.2631 144.593 74.8368 145.691C75.5404 147.043 75.4718 148.334 74.631 149.564C74.0431 150.423 73.0223 150.874 71.5685 150.915C70.9269 150.93 69.6862 150.788 67.8463 150.49L61.3229 149.455C61.3165 150.498 61.5466 151.444 62.0134 152.293C62.4888 153.148 63.2037 153.902 64.1582 154.555C64.7515 154.96 65.5245 155.325 66.477 155.648C67.6857 156.058 68.592 156.135 69.196 155.879C69.8058 155.615 70.2784 155.597 70.6138 155.827C70.9148 156.032 71.1019 156.331 71.1754 156.722C71.2633 157.11 71.2044 157.454 70.9986 157.755C70.346 158.71 69.0149 159.005 67.0054 158.64C65.2899 158.326 63.8088 157.742 62.562 156.889ZM70.2478 144.901C69.1987 144.184 68.0467 143.995 66.7916 144.336C65.5424 144.668 64.1874 145.533 62.7263 146.932L67.9737 147.756C70.0475 148.064 71.6065 148.164 72.6508 148.058C72.3816 146.865 71.5806 145.812 70.2478 144.901ZM86.913 158.094C86.4401 157.77 86.2178 157.385 86.2461 156.937C86.27 156.626 86.4757 156.085 86.8632 155.315C86.1066 155.037 84.9076 154.659 83.2664 154.181C81.5057 153.784 80.3447 153.988 79.7835 154.79C79.9768 155.061 80.1834 155.303 80.4034 155.517C82.14 157.221 83.2783 158.713 83.818 159.99C84.6023 161.851 84.4095 163.638 83.2395 165.349C82.2812 166.75 80.9518 167.394 79.2514 167.278C77.8455 167.175 76.373 166.597 74.8338 165.545C73.7073 164.775 72.7618 163.851 71.9972 162.773C71.0023 161.386 70.7987 160.262 71.3867 159.402C71.6218 159.059 71.9609 158.849 72.4038 158.773C72.8554 158.703 73.2531 158.786 73.5971 159.021C73.8636 159.203 74.0665 159.645 74.2056 160.346C74.2768 160.685 74.6294 161.165 75.2635 161.788C75.7691 162.285 76.2197 162.669 76.6152 162.94C77.3375 163.433 78.0326 163.782 78.7006 163.987C79.6707 164.284 80.341 164.162 80.7114 163.62C81.511 162.451 81.235 161.101 79.8834 159.571L78.7449 158.358C77.7717 157.326 77.159 156.478 76.9068 155.814C76.5395 154.856 76.688 153.891 77.3524 152.92C78.5812 151.122 80.3042 150.42 82.5214 150.813C83.1961 150.934 84.2097 151.223 85.5623 151.681C86.9208 152.13 87.9215 152.411 88.5645 152.522C89.0229 152.608 89.4584 152.793 89.8712 153.075C90.2409 153.328 90.4596 153.654 90.5271 154.053C90.6033 154.459 90.5091 154.855 90.2445 155.242C90.074 155.491 89.8757 155.892 89.6497 156.444C89.4322 157.002 89.2382 157.406 89.0677 157.655C88.8032 158.042 88.4682 158.274 88.0628 158.35C87.666 158.432 87.2828 158.346 86.913 158.094ZM97.9169 156.229C97.5042 155.947 97.2473 155.557 97.1462 155.058C97.0452 154.56 97.1357 154.105 97.4179 153.692C97.7001 153.279 98.0917 153.03 98.5925 152.943C99.0934 152.857 99.5502 152.954 99.9629 153.237C100.376 153.519 100.628 153.906 100.721 154.398C100.822 154.896 100.731 155.352 100.449 155.765C100.167 156.177 99.7753 156.427 99.2744 156.514C98.7822 156.606 98.3297 156.511 97.9169 156.229ZM91.3364 167.099C90.9836 167.615 90.4674 168.398 89.7877 169.447C89.1224 170.494 88.6134 171.276 88.2607 171.791C88.002 172.17 87.6742 172.4 87.2774 172.482C86.8807 172.564 86.4931 172.476 86.1147 172.217C85.745 171.964 85.522 171.635 85.4459 171.23C85.3783 170.83 85.4739 170.441 85.7326 170.063C86.0854 169.547 86.5944 168.766 87.2596 167.719C87.9393 166.669 88.4555 165.887 88.8083 165.371C89.361 164.562 90.0918 163.586 91.0009 162.441C91.9159 161.287 92.6497 160.306 93.2024 159.498C93.4669 159.111 93.7976 158.876 94.1944 158.794C94.5998 158.718 94.9874 158.806 95.3571 159.059C95.7269 159.312 95.9455 159.638 96.0131 160.038C96.0892 160.443 95.995 160.839 95.7304 161.226C95.1778 162.035 94.444 163.016 93.529 164.169C92.6199 165.314 91.889 166.291 91.3364 167.099ZM106.109 177.635L102.849 181.766C101.621 183.45 100.484 184.736 99.436 185.622C98.0967 186.75 96.775 187.355 95.471 187.435C93.8923 187.529 92.127 186.909 90.1751 185.574C89.0314 184.792 88.1256 184.059 87.4575 183.375C86.521 182.419 86.285 181.602 86.7495 180.923C87.2727 180.157 87.9084 180.03 88.6565 180.542C88.9661 180.754 89.432 181.179 90.0544 181.819C90.6709 182.468 91.4235 183.084 92.3124 183.666C93.981 184.769 95.6671 184.748 97.3708 183.604C98.5008 182.837 99.8224 181.375 101.336 179.217C100.283 179.759 99.2878 180.025 98.349 180.014C97.4187 180.009 96.5408 179.724 95.7153 179.16C94.1589 178.096 93.2521 176.7 92.995 174.972C92.7524 173.241 93.2102 171.529 94.3684 169.835C95.9558 167.513 97.901 166.098 100.204 165.591C102.579 165.07 104.953 165.621 107.327 167.243C108.126 167.79 108.727 168.352 109.127 168.929C109.528 169.505 109.729 170.097 109.731 170.704C110.633 171.359 110.743 172.185 110.061 173.182C109.644 173.793 108.995 174.548 108.115 175.448C107.106 176.499 106.437 177.228 106.109 177.635ZM105.787 169.219C104.153 168.102 102.504 167.801 100.839 168.316C99.3459 168.784 98.0642 169.8 96.9941 171.365C96.1416 172.612 95.7373 173.711 95.781 174.662C95.8248 175.613 96.3196 176.412 97.2654 177.059C98.1339 177.652 99.3117 177.739 100.799 177.317C102.156 176.919 103.188 176.313 103.897 175.498C104.713 174.693 105.903 173.368 107.467 171.522C107.306 171.021 107.084 170.579 106.802 170.197C106.521 169.815 106.182 169.489 105.787 169.219ZM114.992 193.211C114.253 192.705 114.112 192.016 114.57 191.143L116.141 188.071C116.708 186.983 117.292 186 117.891 185.123C118.056 184.882 118.348 184.483 118.768 183.924C119.196 183.372 119.493 182.975 119.657 182.734C120.927 180.877 121.218 179.713 120.53 179.243C119.567 178.584 118.256 178.527 116.597 179.071C115.095 179.57 113.576 180.463 112.041 181.748C111.795 182.071 111.468 182.466 111.061 182.932C110.715 183.327 110.404 183.726 110.128 184.131C109.952 184.389 109.713 184.793 109.412 185.344C109.11 185.896 108.872 186.3 108.695 186.558C108.431 186.945 108.096 187.177 107.69 187.253C107.294 187.335 106.91 187.249 106.541 186.997C106.162 186.738 105.939 186.409 105.872 186.009C105.804 185.61 105.903 185.217 106.167 184.83C106.344 184.572 106.578 184.164 106.871 183.607C107.172 183.056 107.411 182.651 107.587 182.393C108.192 181.508 109.09 180.323 110.281 178.841C111.486 177.355 112.391 176.17 112.997 175.284C113.185 175.009 113.447 174.589 113.783 174.023C114.127 173.464 114.394 173.047 114.582 172.772C114.835 172.402 115.161 172.183 115.56 172.116C115.974 172.045 116.362 172.134 116.723 172.381C117.514 172.922 117.566 173.777 116.879 174.948L115.886 176.484C118.648 175.545 120.79 175.596 122.312 176.637C123.687 177.578 124.232 178.84 123.944 180.422C123.762 181.483 123.146 182.817 122.099 184.423L121.208 185.725L120.375 186.916C119.887 187.63 119.346 188.616 118.75 189.874C118.169 191.13 117.637 192.111 117.155 192.816C116.897 193.194 116.563 193.414 116.155 193.476C115.75 193.552 115.362 193.464 114.992 193.211ZM137.695 208.563C137.085 208.146 136.909 207.546 137.166 206.763C137.451 205.922 137.955 204.797 138.679 203.387C139.377 202.034 139.999 200.958 140.546 200.158C140.699 199.935 140.94 199.601 141.269 199.157C141.606 198.719 141.851 198.388 142.004 198.165C143.109 196.548 143.258 195.463 142.449 194.911C141.357 194.164 140.043 193.991 138.507 194.392C137.722 194.6 136.459 195.155 134.717 196.06C132.477 199.336 131.014 201.181 130.327 201.595C129.722 201.963 129.166 201.974 128.658 201.627C128.306 201.386 128.078 201.054 127.977 200.631C127.875 200.208 127.941 199.824 128.176 199.48C128.259 199.36 128.427 199.197 128.68 198.992C128.896 198.824 129.373 198.229 130.11 197.206L131.454 195.324L137.974 185.87C138.764 184.845 139.285 184.147 139.538 183.778C139.837 183.339 140.077 182.897 140.255 182.451C140.448 182.003 140.689 181.568 140.977 181.146C141.224 180.785 141.551 180.574 141.959 180.512C142.373 180.442 142.761 180.53 143.122 180.777C143.827 181.259 143.981 181.92 143.584 182.759C143.152 183.687 142.706 184.486 142.247 185.157C141.63 186.06 140.956 186.981 140.226 187.92C139.533 188.822 138.868 189.749 138.23 190.701L137.467 191.845C138.819 191.381 140.053 191.19 141.17 191.273C142.302 191.352 143.319 191.701 144.222 192.318C145.649 193.294 146.312 194.429 146.21 195.722C146.142 196.634 145.604 197.882 144.598 199.465L143.016 201.999L141.44 204.858C140.873 205.947 140.413 206.932 140.062 207.815C139.996 207.985 139.928 208.121 139.858 208.224C139.617 208.577 139.288 208.781 138.871 208.837C138.449 208.901 138.057 208.81 137.695 208.563ZM148.336 215.535C146.392 214.207 145.151 212.645 144.612 210.85C144.031 208.876 144.402 206.921 145.725 204.986C147.253 202.751 149.077 201.247 151.195 200.474C153.502 199.628 155.64 199.879 157.609 201.225C159.036 202.201 160.037 203.239 160.611 204.337C161.314 205.689 161.246 206.98 160.405 208.21C159.817 209.069 158.796 209.52 157.342 209.56C156.701 209.576 155.46 209.434 153.62 209.135L147.097 208.101C147.09 209.144 147.321 210.09 147.787 210.939C148.263 211.794 148.978 212.548 149.932 213.201C150.525 213.606 151.298 213.971 152.251 214.294C153.46 214.704 154.366 214.781 154.97 214.525C155.58 214.261 156.052 214.243 156.388 214.473C156.689 214.678 156.876 214.977 156.949 215.368C157.037 215.756 156.978 216.1 156.772 216.401C156.12 217.356 154.789 217.651 152.779 217.286C151.064 216.972 149.583 216.388 148.336 215.535ZM156.022 203.547C154.973 202.83 153.821 202.641 152.565 202.982C151.316 203.314 149.961 204.179 148.5 205.578L153.748 206.402C155.821 206.71 157.38 206.81 158.425 206.704C158.155 205.511 157.354 204.458 156.022 203.547ZM173.742 218.048C172.947 219.081 172.15 219.325 171.35 218.778C170.61 218.273 170.532 217.594 171.114 216.743C171.225 216.579 171.418 216.27 171.692 215.813L172.394 214.704C170.924 213.938 169.575 213.577 168.346 213.62C167.199 213.656 165.986 214.064 164.709 214.843L159.902 221.929C159.308 222.798 158.585 222.941 157.734 222.359C156.977 221.841 156.896 221.148 157.49 220.28L163.681 211.225C163.875 210.942 164.174 210.522 164.58 209.966C164.993 209.416 165.297 208.999 165.491 208.716C166.085 207.847 166.76 207.671 167.517 208.189C168.36 208.765 168.297 209.77 167.33 211.203C170.069 210.741 172.444 211.198 174.456 212.574C175.153 213.05 175.494 213.668 175.479 214.428C175.464 215.187 175.095 216.096 174.372 217.154C174.067 217.601 173.856 217.899 173.742 218.048ZM175.5 234.108C173.556 232.779 172.315 231.218 171.775 229.423C171.195 227.448 171.566 225.494 172.889 223.559C174.417 221.323 176.241 219.819 178.359 219.047C180.666 218.201 182.804 218.452 184.773 219.798C186.2 220.774 187.201 221.811 187.775 222.91C188.478 224.262 188.41 225.553 187.569 226.782C186.981 227.642 185.96 228.092 184.506 228.133C183.865 228.149 182.624 228.007 180.784 227.708L174.261 226.674C174.254 227.717 174.484 228.663 174.951 229.512C175.427 230.367 176.141 231.121 177.096 231.773C177.689 232.179 178.462 232.544 179.415 232.867C180.623 233.277 181.53 233.354 182.134 233.098C182.744 232.834 183.216 232.816 183.552 233.045C183.853 233.251 184.04 233.549 184.113 233.94C184.201 234.329 184.142 234.673 183.936 234.974C183.284 235.929 181.953 236.224 179.943 235.859C178.228 235.544 176.747 234.961 175.5 234.108ZM183.186 222.12C182.136 221.402 180.984 221.214 179.729 221.555C178.48 221.887 177.125 222.752 175.664 224.151L180.911 224.975C182.985 225.282 184.544 225.383 185.589 225.277C185.319 224.083 184.518 223.031 183.186 222.12ZM197.788 244.199C197.523 244.585 197.181 244.818 196.761 244.897C196.341 244.976 195.938 244.883 195.551 244.619C195.164 244.354 194.935 244.015 194.865 243.601C194.786 243.181 194.879 242.778 195.144 242.391C195.255 242.227 195.387 241.97 195.538 241.62C195.704 241.266 195.84 241.012 195.946 240.857C196.193 240.496 196.532 240.286 196.963 240.228C197.403 240.175 197.808 240.275 198.177 240.528C199.14 241.186 199.011 242.41 197.788 244.199ZM204.006 234.633C203.742 235.02 203.399 235.253 202.98 235.332C202.568 235.416 202.169 235.326 201.782 235.062C201.395 234.797 201.162 234.455 201.084 234.035C201.005 233.615 201.098 233.212 201.362 232.825C201.433 232.722 201.517 232.552 201.615 232.317C201.728 232.078 201.822 231.903 201.899 231.791C202.151 231.421 202.489 231.204 202.912 231.14C203.334 231.076 203.735 231.173 204.113 231.431C205.059 232.078 205.023 233.145 204.006 234.633ZM212.45 247.504C208.022 253.979 203.289 256.989 198.25 256.534C197.762 256.491 197.389 256.381 197.131 256.204C196.839 256.005 196.654 255.721 196.578 255.353C196.495 254.994 196.551 254.672 196.745 254.388C197.01 254.001 197.527 253.781 198.296 253.726C198.903 253.687 199.514 253.651 200.13 253.618C203.501 252.932 206.68 250.405 209.667 246.037C210.825 244.343 211.768 242.457 212.494 240.379C213.319 237.991 213.63 235.932 213.425 234.201C213.299 233.535 213.179 232.872 213.062 232.212C212.923 231.272 212.956 230.651 213.162 230.35C213.374 230.04 213.674 229.842 214.062 229.754C214.464 229.663 214.821 229.724 215.13 229.935C215.328 230.07 215.521 230.379 215.709 230.861C216.594 233.22 216.653 236.087 215.885 239.461C215.188 242.493 214.043 245.173 212.45 247.504Z" fill="#FA00FF"/>
</svg>
