<svg width="375" height="45" viewBox="0 0 375 45" fill="none" xmlns="http://www.w3.org/2000/svg">
<path d="M72.0594 37.8923C71.5671 37.8923 71.1761 37.7616 70.8865 37.5002C70.5969 37.2097 70.4231 36.8611 70.3652 36.4545L65.6299 8.6128C65.6009 8.52566 65.5864 8.424 65.5864 8.30781C65.5864 8.07543 65.6733 7.8721 65.8471 7.69782C66.0498 7.49449 66.267 7.39282 66.4987 7.39282H71.8857C72.6966 7.39282 73.1455 7.71234 73.2324 8.35138L76.0562 25.344L79.1841 15.3227C79.5027 14.5384 79.9806 14.1463 80.6177 14.1463H83.7456C84.4697 14.1463 84.9475 14.5384 85.1792 15.3227L88.3071 25.344L91.1309 8.35138C91.2178 7.71234 91.6667 7.39282 92.4777 7.39282H97.8646C98.1253 7.39282 98.3425 7.49449 98.5163 7.69782C98.719 7.8721 98.8204 8.07543 98.8204 8.30781L98.7769 8.6128L94.0416 36.4545C93.9837 36.8611 93.7954 37.2097 93.4769 37.5002C93.1872 37.7616 92.8107 37.8923 92.3473 37.8923H88.2203C87.7569 37.8923 87.3948 37.7761 87.1342 37.5438C86.8735 37.3114 86.6853 37.0499 86.5694 36.7595L82.1817 24.2983L77.7939 36.7595C77.5333 37.5147 76.9975 37.8923 76.1865 37.8923H72.0594Z" fill="#F6F6F6"/>
<path d="M104.383 37.8923C104.094 37.8923 103.833 37.7906 103.601 37.5873C103.399 37.3549 103.297 37.0935 103.297 36.803V8.48209C103.297 8.16257 103.399 7.90115 103.601 7.69782C103.833 7.49449 104.094 7.39282 104.383 7.39282H116.2C119.994 7.39282 122.948 8.26424 125.062 10.0071C127.206 11.7208 128.277 14.1608 128.277 17.3269C128.277 19.3602 127.799 21.0885 126.844 22.5119C125.888 23.9352 124.57 25.0244 122.89 25.7797L128.842 36.4981C128.929 36.6723 128.972 36.8321 128.972 36.9773C128.972 37.2097 128.871 37.4276 128.668 37.6309C128.494 37.8052 128.292 37.8923 128.06 37.8923H122.282C121.442 37.8923 120.848 37.5002 120.501 36.7159L115.548 27.1304H111.117V36.803C111.117 37.1226 111.001 37.384 110.77 37.5873C110.567 37.7906 110.306 37.8923 109.988 37.8923H104.383ZM116.113 20.9433C117.445 20.9433 118.459 20.6238 119.154 19.9848C119.849 19.3167 120.197 18.4017 120.197 17.2398C120.197 16.0779 119.849 15.1629 119.154 14.4948C118.488 13.7977 117.474 13.4491 116.113 13.4491H111.117V20.9433H116.113Z" fill="#F6F6F6"/>
<path d="M141.052 37.8923C140.762 37.8923 140.502 37.7906 140.27 37.5873C140.067 37.3549 139.966 37.0935 139.966 36.803V27.4353L129.887 8.78708C129.8 8.52566 129.757 8.3659 129.757 8.30781C129.757 8.07543 129.844 7.8721 130.018 7.69782C130.22 7.49449 130.452 7.39282 130.713 7.39282H136.143C136.722 7.39282 137.229 7.69782 137.664 8.30781L143.876 19.549L150.132 8.30781C150.479 7.69782 150.986 7.39282 151.652 7.39282H157.083C157.343 7.39282 157.56 7.49449 157.734 7.69782C157.908 7.8721 157.995 8.07543 157.995 8.30781C157.995 8.45304 157.966 8.6128 157.908 8.78708L147.829 27.4353V36.803C147.829 37.1226 147.713 37.384 147.482 37.5873C147.279 37.7906 147.018 37.8923 146.7 37.8923H141.052Z" fill="#F6F6F6"/>
<path d="M3.32625 22.443C1.48917 22.443 -0.0252669 20.9458 0.245254 19.1287C0.730824 15.8672 1.92938 12.7389 3.77117 9.97433C6.23001 6.2836 9.72486 3.40702 13.8138 1.70836C17.9027 0.00970791 22.402 -0.434738 26.7427 0.43123C31.0835 1.2972 35.0707 3.43469 38.2003 6.5734C41.3298 9.71211 43.461 13.7111 44.3244 18.0646C45.1879 22.4181 44.7447 26.9306 43.051 31.0316C41.3573 35.1325 38.4892 38.6376 34.8093 41.1037C32.0583 42.9472 28.9459 44.1482 25.7009 44.6371C23.879 44.9115 22.3772 43.3924 22.3772 41.5499V41.5499C22.3772 39.7074 23.8873 38.2493 25.6882 37.8602C27.6155 37.4438 29.4575 36.6655 31.1133 35.5559C33.6992 33.823 35.7146 31.3599 36.9048 28.4782C38.0949 25.5965 38.4063 22.4255 37.7996 19.3663C37.1929 16.307 35.6952 13.4969 33.4961 11.2914C31.297 9.08578 28.4951 7.58375 25.4449 6.97524C22.3946 6.36672 19.2329 6.67903 16.3596 7.87268C13.4863 9.06634 11.0305 11.0877 9.30265 13.6812C8.19272 15.3472 7.41523 17.2012 7.00109 19.1411C6.61752 20.9377 5.16333 22.443 3.32625 22.443V22.443Z" fill="#FFC131"/>
<ellipse cx="22.4152" cy="22.4429" rx="5.8607" ry="5.87793" transform="rotate(180 22.4152 22.4429)" fill="#FFC131"/>
<path d="M301.799 37.6706C301.509 37.6706 301.247 37.569 301.014 37.3657C300.811 37.1335 300.709 36.8722 300.709 36.5818V14.0229H292.948C292.657 14.0229 292.396 13.9212 292.163 13.718C291.96 13.4857 291.858 13.2244 291.858 12.9341V8.27425C291.858 7.95489 291.96 7.69359 292.163 7.49035C292.396 7.28712 292.657 7.1855 292.948 7.1855H316.406C316.726 7.1855 316.987 7.28712 317.191 7.49035C317.394 7.69359 317.496 7.95489 317.496 8.27425V12.9341C317.496 13.2535 317.394 13.5148 317.191 13.718C316.987 13.9212 316.726 14.0229 316.406 14.0229H308.645V36.5818C308.645 36.8722 308.543 37.1335 308.34 37.3657C308.136 37.569 307.875 37.6706 307.555 37.6706H301.799Z" fill="#F6F6F6"/>
<path d="M316.606 37.6706C316.374 37.6706 316.156 37.5835 315.952 37.4093C315.778 37.206 315.691 36.9883 315.691 36.756C315.691 36.5818 315.705 36.4512 315.734 36.3641L325.981 8.4049C326.068 8.0565 326.257 7.76617 326.548 7.5339C326.838 7.30163 327.216 7.1855 327.681 7.1855H334.134C334.6 7.1855 334.977 7.30163 335.268 7.5339C335.559 7.76617 335.748 8.0565 335.835 8.4049L346.038 36.3641L346.125 36.756C346.125 36.9883 346.023 37.206 345.82 37.4093C345.646 37.5835 345.427 37.6706 345.166 37.6706H339.803C339.105 37.6706 338.64 37.3657 338.408 36.756L336.707 32.3139H325.065L323.408 36.756C323.176 37.3657 322.696 37.6706 321.969 37.6706H316.606ZM334.963 26.0427L330.908 14.5455L326.853 26.0427H334.963Z" fill="#F6F6F6"/>
<path d="M361.393 38.1061C357.295 38.1061 354.068 37.1044 351.714 35.1011C349.359 33.0978 348.109 30.1509 347.964 26.2604C347.935 25.4185 347.92 24.17 347.92 22.5151C347.92 20.8312 347.935 19.5682 347.964 18.7263C348.109 14.8939 349.374 11.947 351.757 9.88561C354.17 7.7952 357.382 6.75 361.393 6.75C365.405 6.75 368.617 7.7952 371.03 9.88561C373.442 11.947 374.707 14.8939 374.823 18.7263C374.881 20.4102 374.91 21.6732 374.91 22.5151C374.91 23.3281 374.881 24.5765 374.823 26.2604C374.678 30.1509 373.428 33.0978 371.073 35.1011C368.719 37.1044 365.492 38.1061 361.393 38.1061ZM361.393 31.8349C362.992 31.8349 364.257 31.3558 365.187 30.3977C366.146 29.4396 366.655 27.9734 366.713 25.9991C366.771 24.3152 366.8 23.1248 366.8 22.428C366.8 21.6732 366.771 20.4828 366.713 18.8569C366.655 16.8827 366.146 15.4165 365.187 14.4584C364.228 13.5003 362.963 13.0212 361.393 13.0212C359.824 13.0212 358.559 13.5003 357.6 14.4584C356.67 15.4165 356.161 16.8827 356.074 18.8569C356.045 19.6699 356.03 20.8602 356.03 22.428C356.03 23.9668 356.045 25.1572 356.074 25.9991C356.161 27.9734 356.67 29.4396 357.6 30.3977C358.53 31.3558 359.795 31.8349 361.393 31.8349Z" fill="#F6F6F6"/>
<ellipse cx="248.508" cy="22.4429" rx="5.88498" ry="5.87793" transform="rotate(180 248.508 22.4429)" fill="#24C8DB"/>
<path d="M267.6 22.443C269.445 22.443 270.965 23.9466 270.692 25.7708C270.203 29.0274 269 32.1509 267.153 34.9117C264.684 38.6024 261.175 41.479 257.069 43.1776C252.963 44.8763 248.445 45.3207 244.086 44.4547C239.728 43.5888 235.724 41.4513 232.581 38.3126C229.439 35.1739 227.299 31.1749 226.432 26.8214C225.565 22.4679 226.01 17.9553 227.711 13.8544C229.411 9.7535 232.291 6.24838 235.986 3.78232C238.753 1.93619 241.883 0.734436 245.146 0.246894C246.968 -0.0253476 248.47 1.49362 248.47 3.3361V3.3361C248.47 5.17858 246.96 6.63695 245.159 7.02292C243.218 7.43858 241.364 8.21793 239.698 9.33006C237.101 11.063 235.077 13.526 233.882 16.4078C232.687 19.2895 232.374 22.4605 232.984 25.5197C233.593 28.5789 235.097 31.389 237.305 33.5946C239.513 35.8002 242.327 37.3022 245.39 37.9107C248.453 38.5193 251.627 38.2069 254.512 37.0133C257.398 35.8196 259.864 33.7983 261.599 31.2048C262.711 29.5426 263.49 27.6932 263.907 25.7582C264.295 23.9548 265.755 22.443 267.6 22.443V22.443Z" fill="#24C8DB"/>
<line x1="185" y1="23" x2="203" y2="23" stroke="white" stroke-width="4"/>
<line x1="194" y1="14" x2="194" y2="32" stroke="white" stroke-width="4"/>
</svg>
