<svg width="100" height="100" viewBox="0 0 100 100" fill="none" xmlns="http://www.w3.org/2000/svg">
<path fill-rule="evenodd" clip-rule="evenodd" d="M10.7143 21.1667C11.6615 21.1667 12.5699 20.7935 13.2397 20.1293C13.9094 19.4651 14.2857 18.5643 14.2857 17.625C14.2857 16.6857 13.9094 15.7849 13.2397 15.1207C12.5699 14.4565 11.6615 14.0833 10.7143 14.0833C9.76708 14.0833 8.85868 14.4565 8.18891 15.1207C7.51913 15.7849 7.14286 16.6857 7.14286 17.625C7.14286 18.5643 7.51913 19.4651 8.18891 20.1293C8.85868 20.7935 9.76708 21.1667 10.7143 21.1667ZM32.1429 21.1667C33.0901 21.1667 33.9985 20.7935 34.6682 20.1293C35.338 19.4651 35.7143 18.5643 35.7143 17.625C35.7143 16.6857 35.338 15.7849 34.6682 15.1207C33.9985 14.4565 33.0901 14.0833 32.1429 14.0833C31.1957 14.0833 30.2872 14.4565 29.6175 15.1207C28.9477 15.7849 28.5714 16.6857 28.5714 17.625C28.5714 18.5643 28.9477 19.4651 29.6175 20.1293C30.2872 20.7935 31.1957 21.1667 32.1429 21.1667ZM0 14.0833C0 12.2047 0.752549 10.403 2.09209 9.07466C3.43164 7.74628 5.24845 7 7.14286 7H92.8571C94.7516 7 96.5684 7.74628 97.9079 9.07466C99.2475 10.403 100 12.2047 100 14.0833V84.9167C100 86.7953 99.2475 88.5969 97.9079 89.9253C96.5684 91.2537 94.7516 92 92.8571 92H7.14286C5.24845 92 3.43164 91.2537 2.09209 89.9253C0.752549 88.5969 0 86.7953 0 84.9167V14.0833ZM23.954 20.1293C24.6237 19.4651 25 18.5643 25 17.625C25 16.6857 24.6237 15.7849 23.954 15.1207C23.2842 14.4565 22.3758 14.0833 21.4286 14.0833C20.4814 14.0833 19.573 14.4565 18.9032 15.1207C18.2334 15.7849 17.8571 16.6857 17.8571 17.625C17.8571 18.5643 18.2334 19.4651 18.9032 20.1293C19.573 20.7935 20.4814 21.1667 21.4286 21.1667C22.3758 21.1667 23.2842 20.7935 23.954 20.1293Z" fill="#2F2F2F"/>
<path d="M59.493 44.098C59.493 47.0051 57.1883 49.3617 54.3454 49.3617C51.5024 49.3617 49.1977 47.0051 49.1977 44.098C49.1977 41.1909 51.5024 38.8342 54.3454 38.8342C57.1883 38.8342 59.493 41.1909 59.493 44.098Z" fill="#FFC131"/>
<ellipse cx="45.688" cy="59.1715" rx="5.14764" ry="5.26376" transform="rotate(180 45.688 59.1715)" fill="#24C8DB"/>
<path fill-rule="evenodd" clip-rule="evenodd" d="M65.014 60.9774C62.9367 62.3503 60.6349 63.3033 58.2329 63.7989C58.7246 62.3492 58.9917 60.7922 58.9917 59.1714C58.9917 58.5836 58.9566 58.0041 58.8883 57.435C59.9218 57.067 60.9139 56.5728 61.8423 55.9592C64.0761 54.4829 65.8456 52.3784 66.9381 49.8986C68.0305 47.4188 68.3995 44.6692 68.0006 41.9802C67.6018 39.2912 66.4521 36.7771 64.6897 34.74C62.9273 32.703 60.6272 31.2297 58.0657 30.497C55.5042 29.7644 52.7903 29.8037 50.2501 30.6102C47.7099 31.4166 45.4515 32.956 43.7462 35.0432C43.5278 35.3105 43.3196 35.5854 43.122 35.8672C40.4904 36.1662 37.9417 36.9277 35.5847 38.1058C36.3518 35.5943 37.5975 33.2496 39.262 31.2124C41.6887 28.2421 44.9026 26.0515 48.5175 24.9038C52.1324 23.7562 55.9944 23.7003 59.6396 24.7428C63.2848 25.7854 66.5581 27.8821 69.0661 30.7809C71.5741 33.6798 73.2102 37.2575 73.7778 41.0842C74.3454 44.9109 73.8203 48.8238 72.2657 52.3528C70.711 55.8817 68.193 58.8765 65.014 60.9774ZM35.8187 41.7711L40.637 42.3763C40.7517 41.4213 40.961 40.4856 41.259 39.5825C39.348 40.0309 37.5141 40.7691 35.8187 41.7711Z" fill="#FFC131"/>
<path fill-rule="evenodd" clip-rule="evenodd" d="M34.986 42.292C37.079 40.9088 39.3997 39.9518 41.8213 39.4594C41.2739 40.9796 40.975 42.6227 40.975 44.3372C40.975 44.85 41.0017 45.3565 41.0538 45.8551C40.0412 46.221 39.0688 46.7081 38.1578 47.3102C35.9239 48.7865 34.1544 50.891 33.062 53.3708C31.9695 55.8506 31.6006 58.6002 31.9994 61.2892C32.3983 63.9783 33.548 66.4923 35.3104 68.5294C37.0728 70.5664 39.3729 72.0398 41.9344 72.7724C44.4959 73.505 47.2097 73.4657 49.7499 72.6592C52.2901 71.8528 54.5485 70.3135 56.2538 68.2262C56.4734 67.9575 56.6825 67.6812 56.881 67.398C59.5148 67.0944 62.0644 66.3277 64.4214 65.1439C63.6547 67.6628 62.4069 70.0144 60.7381 72.0571C58.3113 75.0273 55.0974 77.2179 51.4825 78.3656C47.8677 79.5132 44.0056 79.5691 40.3604 78.5266C36.7152 77.484 33.442 75.3873 30.9339 72.4885C28.4259 69.5896 26.7898 66.0119 26.2222 62.1852C25.6547 58.3585 26.1797 54.4456 27.7344 50.9167C29.289 47.3877 31.8071 44.3929 34.986 42.292Z" fill="#24C8DB"/>
</svg>
