<svg width="100" height="100" viewBox="0 0 100 100" fill="none" xmlns="http://www.w3.org/2000/svg">
<path d="M59.493 44.098C59.493 47.0051 57.1883 49.3617 54.3454 49.3617C51.5024 49.3617 49.1977 47.0051 49.1977 44.098C49.1977 41.1909 51.5024 38.8342 54.3454 38.8342C57.1883 38.8342 59.493 41.1909 59.493 44.098Z" fill="#2F2F2F"/>
<ellipse cx="45.688" cy="59.1715" rx="5.14764" ry="5.26376" transform="rotate(180 45.688 59.1715)" fill="#2F2F2F"/>
<path fill-rule="evenodd" clip-rule="evenodd" d="M65.014 60.9774C62.9367 62.3503 60.6349 63.3033 58.2329 63.7989C58.7246 62.3492 58.9917 60.7922 58.9917 59.1714C58.9917 58.5836 58.9566 58.0041 58.8883 57.435C59.9218 57.067 60.9139 56.5728 61.8423 55.9592C64.0761 54.4829 65.8456 52.3784 66.9381 49.8986C68.0305 47.4188 68.3995 44.6692 68.0006 41.9802C67.6018 39.2912 66.4521 36.7771 64.6897 34.74C62.9273 32.703 60.6272 31.2297 58.0657 30.497C55.5042 29.7644 52.7903 29.8037 50.2501 30.6102C47.7099 31.4166 45.4515 32.956 43.7462 35.0432C43.5278 35.3105 43.3196 35.5854 43.122 35.8672C40.4904 36.1662 37.9417 36.9277 35.5847 38.1058C36.3518 35.5943 37.5975 33.2496 39.262 31.2124C41.6887 28.2421 44.9026 26.0515 48.5175 24.9038C52.1324 23.7562 55.9944 23.7003 59.6396 24.7428C63.2848 25.7854 66.5581 27.8821 69.0661 30.7809C71.5741 33.6798 73.2102 37.2575 73.7778 41.0842C74.3454 44.9109 73.8203 48.8238 72.2657 52.3528C70.711 55.8817 68.193 58.8765 65.014 60.9774ZM35.8187 41.7711L40.637 42.3763C40.7517 41.4213 40.961 40.4856 41.259 39.5825C39.348 40.0309 37.5141 40.7691 35.8187 41.7711Z" fill="#2F2F2F"/>
<path fill-rule="evenodd" clip-rule="evenodd" d="M34.986 42.292C37.079 40.9088 39.3997 39.9518 41.8213 39.4594C41.2739 40.9796 40.975 42.6227 40.975 44.3372C40.975 44.85 41.0017 45.3565 41.0538 45.8551C40.0412 46.221 39.0688 46.7081 38.1578 47.3102C35.9239 48.7865 34.1544 50.891 33.062 53.3708C31.9695 55.8506 31.6006 58.6002 31.9994 61.2892C32.3983 63.9783 33.548 66.4923 35.3104 68.5294C37.0728 70.5664 39.3729 72.0398 41.9344 72.7724C44.4959 73.505 47.2097 73.4657 49.7499 72.6592C52.2901 71.8528 54.5485 70.3135 56.2538 68.2262C56.4734 67.9575 56.6825 67.6812 56.881 67.398C59.5148 67.0944 62.0644 66.3277 64.4214 65.1439C63.6547 67.6628 62.4069 70.0144 60.7381 72.0571C58.3113 75.0273 55.0974 77.2179 51.4825 78.3656C47.8677 79.5132 44.0056 79.5691 40.3604 78.5266C36.7152 77.484 33.442 75.3873 30.9339 72.4885C28.4259 69.5896 26.7898 66.0119 26.2222 62.1852C25.6547 58.3585 26.1797 54.4456 27.7344 50.9167C29.289 47.3877 31.8071 44.3929 34.986 42.292Z" fill="#2F2F2F"/>
<path d="M28.125 21.7143C28.125 22.5478 27.7958 23.3472 27.2097 23.9366C26.6237 24.526 25.8288 24.8571 25 24.8571C24.1712 24.8571 23.3763 24.526 22.7903 23.9366C22.2042 23.3472 21.875 22.5478 21.875 21.7143C21.875 20.8807 22.2042 20.0814 22.7903 19.492C23.3763 18.9026 24.1712 18.5714 25 18.5714C25.8288 18.5714 26.6237 18.9026 27.2097 19.492C27.7958 20.0814 28.125 20.8807 28.125 21.7143Z" fill="#396CD8"/>
<path d="M34.375 24.8571C35.2038 24.8571 35.9987 24.526 36.5847 23.9366C37.1708 23.3472 37.5 22.5478 37.5 21.7143C37.5 20.8807 37.1708 20.0814 36.5847 19.492C35.9987 18.9026 35.2038 18.5714 34.375 18.5714C33.5462 18.5714 32.7513 18.9026 32.1653 19.492C31.5792 20.0814 31.25 20.8807 31.25 21.7143C31.25 22.5478 31.5792 23.3472 32.1653 23.9366C32.7513 24.526 33.5462 24.8571 34.375 24.8571Z" fill="#396CD8"/>
<path fill-rule="evenodd" clip-rule="evenodd" d="M3.66117 9.68209C6.00537 7.32449 9.18479 6 12.5 6H87.5C90.8152 6 93.9946 7.32449 96.3388 9.68209C98.683 12.0397 100 15.2373 100 18.5714V81.4286C100 84.7627 98.683 87.9603 96.3388 90.3179C93.9946 92.6755 90.8152 94 87.5 94H12.5C9.18479 94 6.00537 92.6755 3.66117 90.3179C1.31696 87.9603 0 84.7627 0 81.4286L0 18.5714C0 15.2373 1.31696 12.0397 3.66117 9.68209ZM8.08058 14.1268C6.90848 15.3056 6.25 16.9044 6.25 18.5714V81.4286C6.25 83.0956 6.90848 84.6944 8.08058 85.8732C9.25268 87.052 10.8424 87.7143 12.5 87.7143H87.5C89.1576 87.7143 90.7473 87.052 91.9194 85.8732C93.0915 84.6944 93.75 83.0956 93.75 81.4286V18.5714C93.75 16.9044 93.0915 15.3056 91.9194 14.1268C90.7473 12.948 89.1576 12.2857 87.5 12.2857H12.5C10.8424 12.2857 9.25268 12.948 8.08058 14.1268Z" fill="#396CD8"/>
<path d="M15.625 24.8571C16.4538 24.8571 17.2487 24.526 17.8347 23.9366C18.4208 23.3472 18.75 22.5478 18.75 21.7143C18.75 20.8807 18.4208 20.0814 17.8347 19.492C17.2487 18.9026 16.4538 18.5714 15.625 18.5714C14.7962 18.5714 14.0013 18.9026 13.4153 19.492C12.8292 20.0814 12.5 20.8807 12.5 21.7143C12.5 22.5478 12.8292 23.3472 13.4153 23.9366C14.0013 24.526 14.7962 24.8571 15.625 24.8571Z" fill="#396CD8"/>
</svg>
