<svg width="100" height="100" viewBox="0 0 100 100" fill="none" xmlns="http://www.w3.org/2000/svg">
<path d="M66.4769 40.0084H83.8952V43.2233H76.9856V60.1368H73.5305V43.2233H66.4769V40.0084Z" fill="white"/>
<path d="M37.8304 40.0084V43.2233H23.8685V48.3952H35.0967V51.6102H23.8685V56.9219H37.8304V60.1368H20.4137V43.2233H20.4122V40.0084H37.8304Z" fill="white"/>
<path d="M46.5279 40.0168H42.0066L58.201 60.1452H62.7355L54.6373 50.0879L62.7226 40.0321L58.201 40.0391L52.3736 47.2766L46.5279 40.0168Z" fill="white"/>
<path d="M51.1675 54.3946L48.9033 51.5794L41.9937 60.1606H46.5279L51.1675 54.3946Z" fill="white"/>
<path fill-rule="evenodd" clip-rule="evenodd" d="M20.5348 60.1368L4.31855 40H0V60.1284H3.45485V44.3024L16.1946 60.1368H20.5348Z" fill="white"/>
<path d="M84.6718 60.0139C84.4188 60.0139 84.2035 59.9262 84.0233 59.7509C83.8431 59.5756 83.754 59.3634 83.7563 59.112C83.754 58.8674 83.8431 58.6575 84.0233 58.4822C84.2035 58.3069 84.4188 58.2192 84.6718 58.2192C84.9152 58.2192 85.1282 58.3069 85.3084 58.4822C85.4911 58.6575 85.5822 58.8674 85.5848 59.112C85.5822 59.278 85.5401 59.4303 85.4558 59.5663C85.3693 59.7048 85.2594 59.8132 85.1211 59.8916C84.9853 59.9724 84.8355 60.0139 84.6718 60.0139Z" fill="white"/>
<path d="M90.5685 51.5343H92.0995V57.4326C92.0972 57.9747 91.98 58.4384 91.7508 58.8282C91.519 59.2181 91.1982 59.5156 90.7863 59.7255C90.3767 59.9331 89.8967 60.0392 89.3513 60.0392C88.8526 60.0392 88.4056 59.9493 88.0076 59.774C87.6097 59.5987 87.2937 59.3357 87.0619 58.9897C86.8277 58.6437 86.713 58.2123 86.713 57.6956H88.2465C88.2487 57.9217 88.3003 58.1177 88.3985 58.2815C88.4967 58.4453 88.6325 58.5698 88.8058 58.6575C88.9812 58.7452 89.1827 58.789 89.4097 58.789C89.6556 58.789 89.8663 58.7382 90.0371 58.6344C90.2079 58.5329 90.3391 58.3807 90.4305 58.1777C90.5193 57.977 90.5663 57.7279 90.5685 57.4326V51.5343Z" fill="white"/>
<path d="M98.3987 53.8411C98.3614 53.4835 98.1975 53.2044 97.9119 53.006C97.6239 52.8054 97.2518 52.7062 96.7952 52.7062C96.4746 52.7062 96.1985 52.7546 95.969 52.8492C95.7396 52.9461 95.5617 53.0752 95.4398 53.239C95.3183 53.4028 95.2574 53.5897 95.2525 53.7996C95.2525 53.9749 95.2947 54.1271 95.3766 54.254C95.4586 54.3832 95.5685 54.4916 95.7114 54.5792C95.8518 54.6692 96.0086 54.743 96.1797 54.803C96.3528 54.863 96.5261 54.9137 96.6992 54.9552L97.4975 55.1513C97.8183 55.2251 98.1297 55.3243 98.4269 55.4512C98.7241 55.5757 98.9934 55.7349 99.2297 55.9264C99.4662 56.1178 99.6535 56.3485 99.7916 56.6184C99.9297 56.8883 100 57.2043 100 57.5687C100 58.0601 99.8736 58.4914 99.6183 58.8651C99.3632 59.2365 98.9957 59.5271 98.5134 59.7371C98.0335 59.9447 97.453 60.0508 96.7695 60.0508C96.1094 60.0508 95.5335 59.9493 95.049 59.7463C94.5622 59.5456 94.1827 59.2503 93.9089 58.8628C93.635 58.4753 93.4876 58.0024 93.4665 57.4465H94.9835C95.0046 57.7371 95.0982 57.9793 95.2574 58.1754C95.4188 58.3692 95.6294 58.5122 95.8871 58.6091C96.147 58.7036 96.4371 58.7521 96.7579 58.7521C97.0926 58.7521 97.3876 58.7013 97.6426 58.6021C97.8954 58.5029 98.0944 58.3646 98.2373 58.1847C98.3825 58.007 98.4551 57.7971 98.4574 57.5572C98.4551 57.3381 98.3893 57.1558 98.2629 57.0128C98.1343 56.8698 97.9563 56.7499 97.7292 56.653C97.5 56.5561 97.233 56.4684 96.9287 56.3923L95.9596 56.1478C95.2596 55.9702 94.7048 55.7003 94.2997 55.3382C93.8926 54.976 93.6911 54.4962 93.6911 53.8941C93.6911 53.4005 93.8269 52.9669 94.101 52.5955C94.3723 52.2241 94.7447 51.9357 95.2152 51.7304C95.6881 51.5228 96.2218 51.4213 96.8162 51.4213C97.4203 51.4213 97.9492 51.5228 98.4058 51.7304C98.8622 51.9357 99.2206 52.2218 99.4802 52.5862C99.7401 52.9507 99.8759 53.3682 99.883 53.8411H98.3987Z" fill="white"/>
</svg>
