<svg width="743" height="231" fill="none" xmlns="http://www.w3.org/2000/svg"><path d="M305.7 181c-1 0-2-.4-2.9-1.1a4.3 4.3 0 0 1-1.1-3V92.5h-29c-1.1 0-2.1-.4-3-1.2a4.3 4.3 0 0 1-1.1-2.9V71a4 4 0 0 1 1.1-3c.9-.7 1.9-1.1 3-1.1h87.6a4 4 0 0 1 3 1.1 4 4 0 0 1 1.1 3v17.4a4 4 0 0 1-1.1 3 4 4 0 0 1-3 1h-29V177c0 1.1-.4 2-1.1 3a4 4 0 0 1-3 1.1h-21.5zm55.3 0c-.8 0-1.6-.3-2.4-1-.6-.7-1-1.6-1-2.4l.2-1.5 38.3-104.6a6 6 0 0 1 2.1-3.3c1.1-.9 2.5-1.3 4.3-1.3h24.1c1.7 0 3.2.4 4.2 1.3a6 6 0 0 1 2.2 3.3L471 176l.3 1.5c0 .8-.3 1.7-1.1 2.4-.7.7-1.5 1-2.5 1h-20c-2.6 0-4.3-1.1-5.2-3.4l-6.4-16.6h-43.5l-6.2 16.6c-.9 2.3-2.7 3.4-5.4 3.4h-20zm68.7-43.5-15.2-43-15.1 43h30.3zm100 45.1a53.4 53.4 0 0 1-36-11.2c-8.7-7.5-13-18.8-13-34V71a4 4 0 0 1 1.2-3c.9-.7 1.8-1.1 3-1.1h21a4 4 0 0 1 2.9 1.1c.9.8 1.3 1.8 1.3 3v66.3c0 7 1.6 12.4 4.9 16 3.4 3.5 8.2 5.2 14.5 5.2 6.2 0 11-1.8 14.3-5.4 3.4-3.6 5-8.8 5-15.8V71a4 4 0 0 1 1.2-3c.9-.7 1.9-1.1 3-1.1h21.2A4 4 0 0 1 577 68a4 4 0 0 1 1.1 3v66.5c0 15-4.3 26.4-13 33.9a52.2 52.2 0 0 1-35.5 11.2zM604 181c-1.2 0-2.1-.4-3-1.1a4.3 4.3 0 0 1-1.2-3V71a4 4 0 0 1 1.2-3c.9-.7 1.8-1.1 3-1.1h44.3a51 51 0 0 1 33.2 9.8 33 33 0 0 1 12 27.4 34 34 0 0 1-5.3 19.4 34.3 34.3 0 0 1-14.8 12.2l22.3 40c.3.7.5 1.3.5 1.9 0 .8-.4 1.7-1.2 2.4-.6.7-1.4 1-2.2 1H671a6.8 6.8 0 0 1-6.7-4.4l-18.6-35.9h-16.6V177c0 1.2-.4 2.2-1.3 3a4 4 0 0 1-3 1.1h-21zm44-63.4c5 0 8.7-1.2 11.3-3.6 2.6-2.5 4-6 4-10.3 0-4.3-1.4-7.7-4-10.2-2.5-2.6-6.3-4-11.4-4h-18.7v28h18.7zm68.6 63.4c-1 0-2-.4-3-1.1a4.3 4.3 0 0 1-1-3V71a4 4 0 0 1 1-2.9c1-.7 2-1.1 3-1.1h21.9a4 4 0 0 1 2.9 1.1c.9.8 1.3 1.8 1.3 3v106c0 1.1-.4 2.1-1.3 2.9a4 4 0 0 1-3 1.1h-21.8z" fill="#F7F7F7"/><path d="M143.1 84a22 22 0 1 1-44 0 22 22 0 0 1 44 0z" fill="#FFC131"/><circle cx="84.1" cy="147" transform="rotate(180 84.1 147)" fill="#24C8DB" r="22"/><path fill-rule="evenodd" clip-rule="evenodd" d="M166.7 154.5a84 84 0 0 1-29 11.8 59 59 0 0 0 2.9-26.6 59 59 0 1 0-67.4-90.1A98 98 0 0 0 41 59a84 84 0 1 1 125.7 95.5zM42 74.3l20.6 2.5a59 59 0 0 1 2.6-11.7A84 84 0 0 0 42 74.3z" fill="#FFC131"/><path fill-rule="evenodd" clip-rule="evenodd" d="M38.4 76.5a84 84 0 0 1 29.2-11.9 58.9 58.9 0 0 0-3.3 26.7 59 59 0 1 0 67.7 90 98 98 0 0 0 32.2-9.3A84 84 0 1 1 38.4 76.5zm124.7 80.2-.4.2.4-.2z" fill="#24C8DB"/></svg>