<svg width="743" height="231" viewBox="0 0 743 231" fill="none" xmlns="http://www.w3.org/2000/svg">
<path d="M305.729 181C304.643 181 303.665 180.62 302.795 179.859C302.035 178.99 301.654 178.012 301.654 176.925V92.491H272.64C271.554 92.491 270.576 92.1107 269.706 91.35C268.946 90.4807 268.565 89.5027 268.565 88.416V70.975C268.565 69.7797 268.946 68.8017 269.706 68.041C270.576 67.2804 271.554 66.9 272.64 66.9H360.334C361.53 66.9 362.508 67.2804 363.268 68.041C364.029 68.8017 364.409 69.7797 364.409 70.975V88.416C364.409 89.6114 364.029 90.5894 363.268 91.35C362.508 92.1107 361.53 92.491 360.334 92.491H331.32V176.925C331.32 178.012 330.94 178.99 330.179 179.859C329.419 180.62 328.441 181 327.245 181H305.729Z" fill="#F7F7F7"/>
<path d="M361.083 181C360.214 181 359.399 180.674 358.638 180.022C357.986 179.261 357.66 178.446 357.66 177.577C357.66 176.925 357.715 176.436 357.823 176.11L396.128 71.464C396.454 70.16 397.161 69.0734 398.247 68.204C399.334 67.3347 400.747 66.9 402.485 66.9H426.609C428.348 66.9 429.761 67.3347 430.847 68.204C431.934 69.0734 432.64 70.16 432.966 71.464L471.108 176.11L471.434 177.577C471.434 178.446 471.054 179.261 470.293 180.022C469.641 180.674 468.826 181 467.848 181H447.799C445.191 181 443.453 179.859 442.583 177.577L436.226 160.951H392.705L386.511 177.577C385.642 179.859 383.849 181 381.132 181H361.083ZM429.706 137.479L414.547 94.447L399.388 137.479H429.706Z" fill="#F7F7F7"/>
<path d="M529.657 182.63C514.335 182.63 502.327 178.881 493.634 171.383C485.049 163.885 480.757 152.584 480.757 137.479V70.975C480.757 69.7797 481.137 68.8017 481.898 68.041C482.767 67.2804 483.745 66.9 484.832 66.9H505.859C507.054 66.9 508.032 67.2804 508.793 68.041C509.662 68.8017 510.097 69.7797 510.097 70.975V137.316C510.097 144.379 511.727 149.704 514.987 153.29C518.356 156.767 523.191 158.506 529.494 158.506C535.688 158.506 540.469 156.713 543.838 153.127C547.207 149.541 548.891 144.271 548.891 137.316V70.975C548.891 69.7797 549.271 68.8017 550.032 68.041C550.901 67.2804 551.879 66.9 552.966 66.9H574.156C575.351 66.9 576.329 67.2804 577.09 68.041C577.851 68.8017 578.231 69.7797 578.231 70.975V137.479C578.231 152.584 573.884 163.885 565.191 171.383C556.606 178.881 544.762 182.63 529.657 182.63Z" fill="#F7F7F7"/>
<path d="M603.921 181C602.835 181 601.857 180.62 600.987 179.859C600.227 178.99 599.846 178.012 599.846 176.925V70.975C599.846 69.7797 600.227 68.8017 600.987 68.041C601.857 67.2804 602.835 66.9 603.921 66.9H648.257C662.493 66.9 673.577 70.16 681.509 76.68C689.551 83.0914 693.571 92.2194 693.571 104.064C693.571 111.671 691.778 118.136 688.192 123.461C684.606 128.786 679.662 132.861 673.359 135.686L695.69 175.784C696.016 176.436 696.179 177.034 696.179 177.577C696.179 178.446 695.799 179.261 695.038 180.022C694.386 180.674 693.626 181 692.756 181H671.077C667.926 181 665.698 179.533 664.394 176.599L645.812 140.739H629.186V176.925C629.186 178.12 628.752 179.098 627.882 179.859C627.122 180.62 626.144 181 624.948 181H603.921ZM647.931 117.593C652.93 117.593 656.733 116.398 659.341 114.007C661.949 111.508 663.253 108.085 663.253 103.738C663.253 99.3914 661.949 95.9684 659.341 93.469C656.842 90.861 653.039 89.557 647.931 89.557H629.186V117.593H647.931Z" fill="#F7F7F7"/>
<path d="M716.621 181C715.534 181 714.556 180.62 713.687 179.859C712.926 178.99 712.546 178.012 712.546 176.925V70.975C712.546 69.7797 712.926 68.8017 713.687 68.041C714.556 67.2804 715.534 66.9 716.621 66.9H738.463C739.658 66.9 740.636 67.2804 741.397 68.041C742.266 68.8017 742.701 69.7797 742.701 70.975V176.925C742.701 178.12 742.266 179.098 741.397 179.859C740.636 180.62 739.658 181 738.463 181H716.621Z" fill="#F7F7F7"/>
<path d="M203.602 67.9846C203.822 69.1186 204.019 70.2586 204.193 71.4039C205.066 77.1644 205.334 82.9717 205.009 88.7339L176.128 105.467C179.098 97.8583 180.453 89.7263 180.12 81.5893L203.602 67.9846Z" fill="black"/>
<path d="M97.4558 129.484L62.3239 149.839C63.1774 156.463 66.9767 162.164 72.3656 165.586L106.121 146.028C105.828 139.279 102.494 133.32 97.4558 129.484Z" fill="black"/>
<path d="M38.8399 185.01C34.7924 180.201 31.556 174.797 29.231 169.013L7.4671 181.622C10.0318 187.292 13.2256 192.674 16.9991 197.664L38.8399 185.01Z" fill="black"/>
<path d="M200.328 112.031L140.997 146.406C140.975 144.152 140.826 141.929 140.558 139.743C144.975 138.204 149.215 136.139 153.183 133.574C162.73 127.404 170.292 118.608 174.961 108.244C175.374 107.327 175.763 106.401 176.128 105.467L205.009 88.7338C204.561 96.6647 202.99 104.51 200.328 112.031Z" fill="#613915"/>
<path d="M53.1331 197.313C48.1813 194.275 43.6796 190.508 39.7906 186.112C39.4689 185.748 39.152 185.381 38.8399 185.01L16.9991 197.664C18.294 199.377 19.6572 201.043 21.0867 202.659C23.7219 205.637 26.5547 208.413 29.5602 210.971L53.1331 197.313Z" fill="#613915"/>
<path d="M72.3656 165.586C75.7706 167.748 79.8103 169 84.1424 169C96.2927 169 106.142 159.15 106.142 147C106.142 146.674 106.135 146.35 106.121 146.028L72.3656 165.586Z" fill="#613915"/>
<path d="M175.723 147.851L149.391 163.108C145.596 164.463 141.708 165.543 137.757 166.34C139.858 160.282 141 153.774 141 147C141 146.802 140.999 146.604 140.997 146.406L200.328 112.031C199.554 114.217 198.688 116.376 197.73 118.501C192.628 129.828 185.097 139.838 175.723 147.851Z" fill="white"/>
<path d="M29.5602 210.971L53.1331 197.313C57.7718 200.159 62.8054 202.364 68.1003 203.845C70.7701 204.592 73.4785 205.147 76.2055 205.51L47.0181 222.421C40.7495 219.347 34.884 215.502 29.5602 210.971Z" fill="white"/>
<path d="M149.391 163.108C155.454 160.943 161.277 158.077 166.738 154.548C169.891 152.511 172.891 150.272 175.723 147.851L149.391 163.108Z" fill="#FFAFC8"/>
<path d="M47.0181 222.421L76.2055 205.51C84.6606 206.637 93.2938 205.921 101.502 203.373C112.359 200.002 122.011 193.568 129.299 184.845C130.237 183.722 131.131 182.567 131.979 181.383C143.236 180.114 154.132 176.91 164.206 171.962C163.663 173.704 163.065 175.427 162.411 177.129L71.1402 230.01C67.8567 229.501 64.5953 228.796 61.3736 227.895C56.4089 226.507 51.6056 224.671 47.0181 222.421Z" fill="#FFAFC8"/>
<path d="M162.411 177.129L71.1403 230.01C83.7341 231.961 96.653 231.027 108.907 227.222C124.357 222.426 138.092 213.27 148.464 200.856C154.416 193.731 159.114 185.708 162.411 177.129Z" fill="#73D7EE"/>
<path d="M133.311 0.885992L42.9852 53.2199C46.2673 44.886 50.8779 37.0879 56.679 30.1442C67.0506 17.7298 80.7862 8.5742 96.2354 3.77756C108.266 0.042438 120.936 -0.925837 133.311 0.885992Z" fill="#E40102"/>
<path d="M133.311 0.885992L42.9852 53.2199C46.2673 44.886 50.8779 37.0879 56.679 30.1442C67.0506 17.7298 80.7862 8.5742 96.2354 3.77756C108.266 0.042438 120.936 -0.925837 133.311 0.885992Z" fill="#E40102"/>
<path d="M53.2853 68.8168L31.4484 81.4688C33.6734 79.6845 35.9945 78.0093 38.4045 76.4518C39.5745 75.6956 40.7613 74.9698 41.9634 74.2749C43.561 73.3515 45.1871 72.4817 46.8394 71.6666C48.9341 70.6335 51.0704 69.6883 53.2428 68.8335C53.257 68.8279 53.2711 68.8223 53.2853 68.8168Z" fill="#FE8D01"/>
<path d="M157.651 8.34858L128.223 25.3989C119.996 24.405 111.618 25.1505 103.64 27.6273C92.7839 30.998 83.1318 37.4316 75.8437 46.1553C74.9102 47.2727 74.0205 48.4215 73.1759 49.5992C61.9292 50.8487 51.0363 54.0318 40.9628 58.9555C41.5678 57.0186 42.2425 55.1055 42.9851 53.2198L133.311 0.885986C136.828 1.4009 140.321 2.14037 143.769 3.10468C148.563 4.44564 153.207 6.20383 157.651 8.34858Z" fill="#FE8D01"/>
<path d="M64.0057 84.1703L5.04327 118.332C5.75811 116.364 6.54801 114.418 7.41238 112.499C12.878 100.366 21.13 89.7435 31.4484 81.4689L53.2855 68.8168C57.1581 67.2953 61.1451 66.0611 65.2138 65.1274C66.0122 64.9442 66.8133 64.773 67.6171 64.6131C65.3679 70.7212 64.1003 77.3041 64.0057 84.1703Z" fill="#FFEE00"/>
<path d="M175.229 19.7293L151.585 33.4283C147.064 30.7071 142.176 28.5904 137.042 27.1546C134.14 26.3427 131.191 25.7576 128.223 25.399L157.651 8.34863C163.959 11.3927 169.865 15.2155 175.229 19.7293Z" fill="#FFEE00"/>
<path d="M175.229 19.7293C178.366 22.3694 181.318 25.2458 184.056 28.3411C185.577 30.0609 187.024 31.8379 188.393 33.6669L166.571 46.3104C166.172 45.8304 165.766 45.3563 165.352 44.8882C161.352 40.3669 156.704 36.51 151.585 33.4283L175.229 19.7293Z" fill="#028120"/>
<path d="M5.04329 118.332L64.0057 84.1703C64.0019 84.4464 64 84.723 64 85C64 87.1433 64.1143 89.26 64.3371 91.3442C60.0093 92.8731 55.8534 94.9092 51.9599 97.4255C42.4129 103.596 34.8505 112.392 30.1816 122.756C29.6784 123.873 29.2112 125.003 28.7801 126.144L0.1073 142.757C0.528252 134.435 2.18622 126.201 5.04329 118.332Z" fill="#028120"/>
<path d="M133.24 65.6217L99.1834 85.3536C99.1563 84.9059 99.1425 84.4545 99.1425 84C99.1425 71.8497 108.992 62 121.142 62C125.611 62 129.769 63.3325 133.24 65.6217Z" fill="#028120"/>
<path d="M188.393 33.6669C192.141 38.6747 195.308 44.0726 197.845 49.7551L176.065 62.3739C173.781 56.572 170.582 51.1459 166.571 46.3104L188.393 33.6669Z" fill="#004DFF"/>
<path d="M108.125 101.738L143.005 81.5286C142.262 74.8811 138.557 69.1287 133.24 65.6217L99.1834 85.3536C99.5914 92.0758 103.018 97.9831 108.125 101.738Z" fill="#004DFF"/>
<path d="M25.0429 149.874C24.6492 141.8 25.9181 133.722 28.78 126.144L0.107251 142.757C-0.176059 148.358 0.100945 153.999 0.949822 159.596C1.14536 160.885 1.37056 162.168 1.62499 163.442L25.0429 149.874Z" fill="#004DFF"/>
<path d="M197.845 49.7551C200.442 55.5711 202.378 61.6853 203.602 67.9846L180.12 81.5893C180.033 79.4396 179.827 77.2895 179.502 75.1487C178.836 70.7534 177.678 66.47 176.065 62.374L197.845 49.7551Z" fill="#770189"/>
<path d="M143.142 84C143.142 96.1502 133.293 106 121.142 106C116.272 106 111.77 104.417 108.125 101.738L143.005 81.5286C143.096 82.3399 143.142 83.1645 143.142 84Z" fill="#770189"/>
<path d="M7.46711 181.622C4.84436 175.825 2.87942 169.727 1.625 163.442L25.0429 149.874C25.1402 151.87 25.339 153.864 25.6403 155.851C26.3279 160.385 27.5378 164.8 29.231 169.013L7.46711 181.622Z" fill="#770189"/>
<path d="M97.4558 129.484L62.3239 149.839C62.2042 148.91 62.1424 147.962 62.1424 147C62.1424 134.85 71.9922 125 84.1424 125C89.1461 125 93.7597 126.67 97.4558 129.484Z" fill="#770189"/>
</svg>
