<?xml version="1.0" encoding="UTF-8"?>
<svg width="666px" height="134px" viewBox="0 0 666 134" version="1.1" xmlns="http://www.w3.org/2000/svg" xmlns:xlink="http://www.w3.org/1999/xlink">
    <title>1Password wordmark / Black, detailed icon / 1P-wordmark</title>
    <g id="1Password-wordmark-/-Black,-detailed-icon-/-1P-wordmark" stroke="none" stroke-width="1" fill="none" fill-rule="evenodd">
        <g id="zzz---document-symbol-/-1Password" transform="translate(0.000000, 4.000000)" fill="#051627">
            <path d="M287.282236,31 C295.883132,31 304.302709,32.5475145 309.374975,33.9467692 L309.809,34.068 L310.21764,32 L345.284078,32 L345.284078,43.5040092 L337.522337,44.3356243 L348.610538,83.2829324 L349.580756,83.2829324 L361.91638,33.8018328 L382.845361,33.8018328 L394.765178,83.2829324 L395.596793,83.2829324 L405.991982,44.3356243 L398.091638,43.5040092 L399.893471,32 L429,32 L428.998053,39.7579726 C428.369024,41.0015626 427.785024,42.2717996 427.248196,43.5665397 L424.010309,44.1970218 C422.144506,44.4635651 421.30387,45.1145458 420.749097,46.7660498 L420.683849,46.9690722 L403.635739,104.211913 L381.736541,104.211913 L370.925544,57.7800687 L370.093929,57.7800687 L359.14433,104.211913 L334.195876,104.211913 L316.731959,46.8304696 C316.200649,45.2365407 315.542047,44.9155411 314.024217,44.5255911 L313.821306,44.4742268 L312.599,44.212 L312.677643,44.5254418 L312.677643,55.0335293 L297.909837,54.0675266 L296.529301,46.8842856 C296.393212,45.7792796 296.115421,45.2274787 295.151572,44.9508761 L294.711031,44.823765 C292.8451,44.3172401 289.758071,43.8458702 286.318387,43.8458702 C279.41711,43.8458702 275.55189,46.4700839 275.55189,50.8901078 C275.55189,55.7199974 281.074805,57.3353028 287.922685,58.9056633 L292.545931,59.9578534 L293.185569,60.1099041 C303.647655,62.6275417 314.748447,66.8818677 314.748447,82.2430732 C314.748447,99.0947656 301.086192,106 283.557315,106 C271.330552,106 259.365726,102.858309 256.44794,101.163259 L256.23,101.028175 L256.23,81.000468 L270.997806,82.105474 L272.379744,89.9781152 L272.422865,90.3147414 C272.57634,91.3235712 272.911876,91.8001348 274.035265,92.0491239 L274.358965,92.1524934 L274.727566,92.2604539 L275.140331,92.3715312 L275.614928,92.4885996 C277.605882,92.9582155 280.701036,93.4307324 284.662866,93.4307324 C291.975217,93.4307324 296.115421,91.3597237 296.115421,86.2488955 C296.115421,80.8144398 290.774205,79.1224197 283.902174,77.8845781 L280.75912,77.318312 L279.420333,77.0644037 C268.656351,74.9684582 256.784179,71.1742608 256.784179,55.1725326 C256.784179,38.0456418 271.411686,31 287.282236,31 Z M160.004005,31 C180.658365,31 189.07166,36.5526951 189.23786,55.4249641 L189.240377,56.000936 L189.240836,89.7654927 L189.245487,90.1360591 L189.257291,90.4655327 L189.279961,90.7676427 C189.386031,91.8034188 189.764262,92.0690725 191.065961,92.2723416 L191.436628,92.3257264 L197.020742,93.2622435 L197.020742,81.000468 L211.707997,82.105474 L213.082398,89.9781152 C213.21635,91.2207204 213.494021,91.7739254 214.728889,92.0491239 L215.050823,92.1524934 L215.417413,92.2604539 L215.827927,92.3715312 L216.299935,92.4885996 C218.28003,92.9582155 221.358302,93.4307324 225.298521,93.4307324 C232.570987,93.4307324 236.688608,91.3597237 236.688608,86.2488955 C236.688608,80.9955883 231.724762,79.2393793 225.220218,78.009998 L221.373229,77.3102747 L220.043124,77.0562042 L219.078132,76.8625227 L218.138466,76.6642379 C207.998666,74.4662578 197.571898,70.208946 197.571898,55.1725326 C197.571898,38.0456418 212.11962,31 227.903604,31 C238.382169,31 248.605329,33.3235331 252.750202,34.8495748 L253.160491,35.0058222 L253.160491,55.0335293 L238.473237,54.0675266 L237.100231,46.8842856 C236.964884,45.7792796 236.688608,45.2274787 235.730016,44.9508761 C233.945388,44.3990752 230.651011,43.8458702 226.945012,43.8458702 C220.081378,43.8458702 216.237241,46.4700839 216.237241,50.8901078 C216.237241,55.8032714 221.92107,57.3889904 228.893982,58.9864453 L232.159364,59.7301558 C243.002481,62.2153662 255.22,66.0835892 255.22,82.2430732 C255.22,99.0933615 241.632266,106 224.199,106 C213.094213,106 202.231199,103.383643 198.217238,101.637075 L198.025381,101.551895 L198.025381,104.341789 L172.768494,104.341789 L171.394093,96.8833496 L170.708985,96.7457503 C165.494633,101.856579 158.631,106 147.649744,106 C130.357407,106 127.61,94.1229407 127.61,85.5580912 C127.61,71.8843371 135.95214,65.5205994 152.766394,64.3225059 L169.062494,63.184177 L169.06209,55.3210953 L169.055149,54.5385497 L169.04445,54.0217753 L169.017028,53.2664228 L168.989823,52.7765014 C168.673044,47.8524124 167.082827,44.6756777 159.865868,44.6756777 L159.024388,44.681681 L158.483357,44.6933216 C152.886522,44.8516953 149.937607,46.1999322 149.848096,53.5791813 L149.845995,53.9299274 L130.491359,52.2703123 C130.491359,33.8120647 147.04025,31.0541143 159.623917,31.0008011 L160.004005,31 Z M657.329768,0 L657.33445,89.5002973 L657.346305,89.8201738 C657.412538,91.0217158 657.727678,91.3110768 659.124975,91.5302701 L666,92.5423729 L666,103.357236 L640.802139,103.357236 L639.447415,95.6910039 L638.499109,95.5541069 C632.809269,101.166884 626.171123,105 616.28164,105 C600.2959,105 590,94.7327249 590,68.5853977 C590,41.0691004 603.682709,30.6649283 618.720143,30.6649283 C626.390459,30.6649283 632.3825,33.2740423 637.452412,36.9640751 L637.821747,37.2359844 L637.821747,16.4276402 C637.821747,15.1307212 637.335397,14.2024003 636.24751,13.7590767 L636.060606,13.6897001 L628.609626,11.0886571 L630.099822,0 L657.329768,0 Z M578.528456,30 C581.626886,30 587.720467,30.5208956 590.389158,31.1850375 L590.65275,31.2542373 L590.65275,56.6177024 L573.929586,56.0602637 L572.535989,48.6741996 C572.257269,47.4199623 571.83919,47.1412429 570.724313,47.1412429 C567.314099,47.1412429 563.286652,49.8570693 561.081858,51.6869844 L560.690414,52.0188324 L560.69108,89.1895255 C560.703016,91.1443339 560.894248,91.5751224 562.730959,91.7225068 L576.71678,92.8512241 L576.71678,104 L531.146158,104 L531.146158,92.7118644 L537.417345,91.8757062 C539.305444,91.6059778 539.627378,91.2057356 539.646183,89.2856395 L539.6471,48.2561205 C539.6471,46.7928437 539.266164,45.8374811 538.019465,45.3900328 L537.835424,45.3295669 L530.386786,42.7066483 L530.326731,42.5689175 L531.842957,31.393597 L556.370264,31.393597 L558.04258,42.5423729 L558.878738,42.5423729 C563.477608,35.4350282 569.609435,30 578.528456,30 Z M96.7609419,4 C122.375924,4 130.126567,17.5369278 130.126567,33.4201067 C130.126567,57.2123561 115.88141,66.9265052 92.8917935,67.118409 L92.1924675,67.1213142 L82.0858089,67.1213142 L82.0878808,89.6128746 L82.0958532,89.9627628 L82.1132359,90.2845685 C82.2013507,91.4399273 82.5582737,91.719101 83.9352595,91.9313919 L84.30249,91.9837124 L104.099212,93.0887391 L104.099212,104 L49.8292276,104 L49.829,103.968 L49.7686878,104 L1.60740074,104 L1.60740074,93.1363576 L13.4057025,92.1717567 C15.199766,92.0438888 15.5575371,91.5567732 15.5972663,89.8159029 L15.6013193,89.4233432 L15.601319,41.9326038 C15.601319,39.9627294 14.120408,40.2877445 3.80597055,43.7829988 L0,32.5055566 L23.5737337,19 L36.3201861,19 L36.3206451,89.6243124 L36.3252963,89.9959522 L36.3371012,90.329039 C36.4075279,91.6920808 36.7530071,92.0315621 38.3297476,92.1580599 L38.5171978,92.1717567 L49.7686878,93.1363576 L49.829,93.166 L49.8292276,93.0887391 L58.5509884,92.1213142 C60.3584866,91.8644575 60.7217377,91.4865113 60.7621378,89.7522802 L60.7662621,89.3594496 L60.7662621,18.7795563 C60.7662621,16.7775438 60.5058619,16.1925489 58.7391735,16.0314785 L58.5509884,16.0162876 L49.8292276,15.0502668 L49.8292276,4 L96.7609419,4 Z M168.674729,73.9246592 L159.34266,74.6093465 C151.249287,75.1562614 148.367366,77.2089317 148.367366,82.6850385 C148.367366,88.162537 151.660791,90.2152073 156.188728,90.2152073 C160.713367,90.2152073 165.238007,87.7681685 168.383884,85.4994927 L168.674729,85.287407 L168.674729,73.9246592 Z M624.712568,46.5566038 C614.77292,46.5566038 610.812659,55.8645156 610.728641,67.9414477 L610.727273,68.3362337 C610.727273,81.7072724 614.529101,89.1509434 623.083213,89.1509434 C627.567818,89.1509434 632.436818,86.5493157 636.072094,83.4942614 L636.38961,83.2235757 L636.38961,50.6919766 C632.995121,48.3485986 628.650175,46.5566038 624.712568,46.5566038 Z M89.8971419,19.1666523 L81.7995844,19.1666523 L81.7995844,52.1568909 L88.9331892,52.1562638 L89.4731007,52.1511216 L90.2693324,52.1332003 L90.7851817,52.1143499 L91.5437712,52.0751809 C99.7173367,51.575166 107.734087,48.4737987 107.734087,34.6347407 C107.734087,21.4920842 99.6365298,19.1666523 89.8971419,19.1666523 Z" id="1Passw---rd"></path>
        </g>
        <g id="1Password-logo-2020-/-coloured-/-light-bg-/-116px" transform="translate(421.000000, 12.000000)">
            <g>
                <g id="lock">
                    <g id="Chrome">
                        <path d="M2,58 C2,88.9289471 27.0720185,114 58,114 C88.9279815,114 114,88.9289471 114,58 C114,27.0720185 88.9279815,2 58,2 C27.0720185,2 2,27.0720185 2,58 Z" id="chrome" fill="#FFFFFF"></path>
                        <path d="M58,14 C82.3003271,14 102,33.6996729 102,58 C102,82.3012437 82.3003271,102 58,102 C33.6996729,102 14,82.3012437 14,58 C14,33.6996729 33.6996729,14 58,14" id="color" fill="#1A8CFF"></path>
                        <path d="M0,58 C0,90.0335523 25.9674477,116 58,116 C90.0325523,116 116,90.0335523 116,58 C116,25.9674477 90.0325523,0 58,0 C25.9674477,0 0,25.9674477 0,58 L0,58 Z M2,58 L2,58 C2,27.0754043 27.0685775,2 58,2 C88.9314225,2 114,27.0754043 114,58 C114,88.9252117 88.9317397,114 58,114 C27.0682603,114 2,88.9252117 2,58 L2,58 Z" id="chrome" fill="#000000" fill-rule="nonzero" opacity="0.5"></path>
                        <path d="M113.921014,54.9999793 C113.973451,55.9933438 114,56.9935714 114,58 C114,88.927946 88.927946,114 58,114 C27.072054,114 2,88.927946 2,58 C2,56.9935714 2.02654934,55.9933438 2.07898585,54.9999793 C3.63780356,84.5330049 28.0783966,108 58,108 C87.6908281,108 111.984866,84.893595 113.880884,55.6820154 L113.921014,54.9999793 Z M58,8 C85.0619527,8 107,29.9380473 107,57 C107,72.1292788 100.143284,85.6570858 89.3678535,94.6456506 C98.3710214,86.2488134 104,74.2817659 104,61 C104,35.5949015 83.4050985,15 58,15 C32.5949015,15 12,35.5949015 12,61 C12,74.2817659 17.6289786,86.2488134 26.6314438,94.6456506 C15.856716,85.6570858 9,72.1292788 9,57 C9,29.9380473 30.9380473,8 58,8 Z" id="shadows" fill-opacity="0.0524475524" fill="#000000"></path>
                    </g>
                    <path d="M58,14 C82.3035805,14 102,33.702856 102,58 C102,82.2977256 82.3038786,102 58,102 C33.9391602,102 14.3943832,82.6898009 14.0058937,58.727538 L14,58 C14,33.702856 33.6964195,14 58,14 Z M58,16 C34.8042332,16 16,34.8042332 16,58 C16,81.1966417 34.8042332,100 58,100 C81.1957668,100 100,81.1966417 100,58 C100,34.8042332 81.1957668,16 58,16 Z" id="inside-shadow-outer" fill="#000000" fill-rule="nonzero" opacity="0.256138393"></path>
                    <path d="M58.2228703,23 C38.6702653,23 23,38.6702653 23,58.2228703 C23,77.4026915 38.7428988,93 58.2228703,93 C77.3300449,93 93,77.330347 93,58.2228703 C93,38.743212 77.4020805,23 58.2228703,23 Z M58.2214765,25 C76.2251667,25 91,39.7748333 91,58.2214765 C91,76.2260833 76.2251667,91 58.2214765,91 C39.7748333,91 25,76.2260833 25,58.2214765 C25,39.7748333 39.7748333,25 58.2214765,25 Z" id="inside-shadow" fill-opacity="0.25" fill="#000000" fill-rule="nonzero"></path>
                    <path d="M58.2214765,25 C76.2251667,25 91,39.7748333 91,58.2214765 C91,76.2260833 76.2251667,91 58.2214765,91 C39.7748333,91 25,76.2260833 25,58.2214765 C25,39.7748333 39.7748333,25 58.2214765,25 L58.2214765,25 Z" id="inside" fill="#F7F7F7"></path>
                    <g id="bevel" transform="translate(41.000000, 41.000000)">
                        <path d="M32,17 C32,25.2841697 25.2842678,32 17,32 C8.71573223,32 2,25.2841697 2,17 C2,8.71583026 8.71573223,2 17,2 C25.2842678,2 32,8.71583026 32,17 Z" fill-opacity="0.05" fill="#000000"></path>
                        <path d="M17,0 C7.61119531,0 0,7.61122967 0,17 C0,26.3887703 7.61119531,34 17,34 C26.3888047,34 34,26.3887703 34,17 C34,7.61122967 26.3888047,0 17,0 Z M17,2 C25.2842678,2 32,8.71583026 32,17 C32,25.2841697 25.2842678,32 17,32 C8.71573223,32 2,25.2841697 2,17 C2,8.71583026 8.71573223,2 17,2 Z" id="bevel-outside" fill="#FFFFFF" fill-rule="nonzero"></path>
                        <path d="M17,2 C25.2842678,2 32,8.71583026 32,17 C32,25.2841697 25.2842678,32 17,32 C8.71573223,32 2,25.2841697 2,17 C2,8.71583026 8.71573223,2 17,2 Z M17,4 C9.82033667,4 4,9.82036294 4,17 C4,24.1796371 9.82033667,30 17,30 C24.1796633,30 30,24.1796371 30,17 C30,9.82036294 24.1796633,4 17,4 Z" id="bevel-inside" fill-opacity="0.15" fill="#000000" fill-rule="nonzero"></path>
                    </g>
                </g>
                <g id="keyhole" transform="translate(48.000000, 32.000000)">
                    <path d="M15.5768501,0 L4.42314991,0 C1.95109534,0 0,2.16456517 0,4.77221835 L0,15.5640931 C0,16.5456423 0.354075486,17.4939815 0.995730276,18.2058399 L2.63519897,20.0246833 C2.67343028,20.0670975 2.67343028,20.1862058 2.63519897,20.22862 L0.995730276,22.0474634 C0.354075486,22.7593218 0,23.707661 0,24.6892101 L0,47.2277816 C0,49.8354348 1.95109534,52 4.42314991,52 L15.5768501,52 C18.0489047,52 20,49.8354348 20,47.2277816 L20,36.4359069 C20,35.4543577 19.6459245,34.5060185 19.0042697,33.7941601 L17.364801,31.9753167 C17.3265697,31.9329025 17.3265697,31.8137942 17.364801,31.77138 L19.0042697,29.9525366 C19.6459245,29.2406782 20,28.292339 20,27.3107899 L20,4.77221835 C20,2.16456517 18.0489047,0 15.5768501,0 Z M15.4497154,2.03773585 C16.8581987,2.03773585 18,3.33154916 18,4.92754876 L18,27.3016299 C18,27.8125806 17.8208734,28.3026041 17.502026,28.6639008 L15.9080981,30.4700338 C15.2441327,31.2223953 15.2441327,32.4422142 15.9080981,33.1945756 L17.502026,35.0007087 C17.8208734,35.3620053 18,35.8520288 18,36.3629795 L18,47.0724512 C18,48.6684508 16.8581987,49.9622642 15.4497154,49.9622642 L4.55028463,49.9622642 C3.14180132,49.9622642 2,48.6684508 2,47.0724512 L2,24.6983701 C2,24.1874194 2.17912662,23.6973959 2.49797405,23.3360992 L4.09190194,21.5299662 C4.75586734,20.7776047 4.75586734,19.5577858 4.09190194,18.8054244 L2.49797405,16.9992913 C2.17912662,16.6379947 2,16.1479712 2,15.6370205 L2,4.92754876 C2,3.33154916 3.14180132,2.03773585 4.55028463,2.03773585 L15.4497154,2.03773585 Z" id="keyhole-outer" fill="#FFFFFF" fill-rule="nonzero"></path>
                    <path d="M2,15.6207008 L2,4.8943638 C2,3.29585081 3.14180132,2 4.55028463,2 L15.4497154,2 C16.8581987,2 18,3.29585081 18,4.8943638 L18,27.3036797 C18,27.815435 17.8208734,28.3062302 17.502026,28.6680959 L15.9080981,30.4770733 C15.2441327,31.2306195 15.2441327,32.4523594 15.9080981,33.2059056 L17.502026,35.014883 C17.8208734,35.3767487 18,35.8675438 18,36.3792992 L18,47.1056362 C18,48.7041492 16.8581987,50 15.4497154,50 L4.55028463,50 C3.14180132,50 2,48.7041492 2,47.1056362 L2,24.6963203 C2,24.184565 2.17912662,23.6937698 2.49797405,23.3319041 L4.09190194,21.5229267 C4.75586734,20.7693805 4.75586734,19.5476406 4.09190194,18.7940944 L2.49797405,16.985117 C2.17912662,16.6232513 2,16.1324562 2,15.6207008 Z" fill="#0A2D4D"></path>
                    <path d="M15.4497154,2 C16.8581987,2 18,3.29585081 18,4.8943638 L18,27.3036797 C18,27.815435 17.8208734,28.3062302 17.502026,28.6680959 L15.9080981,30.4770733 C15.2441327,31.2306195 15.2441327,32.4523594 15.9080981,33.2059056 L17.502026,35.014883 C17.8208734,35.3767487 18,35.8675438 18,36.3792992 L18,47.1056362 C18,48.7041492 16.8581987,50 15.4497154,50 L4.55028463,50 C3.14180132,50 2,48.7041492 2,47.1056362 L2,24.6963203 C2,24.184565 2.17912662,23.6937698 2.49797405,23.3319041 L4.09190194,21.5229267 C4.75586734,20.7693805 4.75586734,19.5476406 4.09190194,18.7940944 L2.49797405,16.985117 C2.17912662,16.6232513 2,16.1324562 2,15.6207008 L2,4.8943638 C2,3.29585081 3.14180132,2 4.55028463,2 L15.4497154,2 Z M15.1616066,4.05435839 L4.83839342,4.04094488 C4.43400386,4.04094488 4.05414099,4.42013526 4.00528989,4.95737053 L4,5.07483083 L4,15.7054298 C4,15.7366963 4.00652466,15.7640437 4.01517784,15.7834252 L4.02920447,15.8060172 L5.6990337,17.6002274 C7.0046315,19.0030756 7.04965212,21.2011924 5.83409554,22.6588867 L5.6990337,22.812165 L4.02920447,24.6063752 C4.01952181,24.6167791 4.0097696,24.6371723 4.00434398,24.663508 L4,24.7069626 L4,46.9251692 C4,47.483854 4.35290357,47.90029 4.75222562,47.9533318 L4.83839342,47.9590551 L15.1616066,47.9724686 C15.5659961,47.9724686 15.945859,47.5932782 15.9947101,47.056043 L16,46.9385827 L16,36.3079837 C16,36.2767172 15.9934753,36.2493698 15.9848222,36.2299883 L15.9707955,36.2073963 L14.3009663,34.4131861 C12.9953685,33.0103379 12.9503479,30.8122211 14.1659045,29.3545268 L14.3009663,29.2012485 L15.9707955,27.4070383 C15.9804782,27.3966344 15.9902304,27.3762412 15.995656,27.3499055 L16,27.3064509 L16,5.08824433 C16,4.52955953 15.6470964,4.11312349 15.2477744,4.06008173 L15.1616066,4.05435839 Z" id="keyhole-shadow" fill-opacity="0.4" fill="#000000" fill-rule="nonzero"></path>
                </g>
            </g>
        </g>
    </g>
</svg>