<svg width="500" height="100" viewBox="0 0 500 100" fill="none" xmlns="http://www.w3.org/2000/svg">
<path fill-rule="evenodd" clip-rule="evenodd" d="M222.446 30.7169C227.639 30.7169 232.722 31.65 235.784 32.4949L236.047 32.5687L236.294 31.3202H257.465V38.2654L252.778 38.7673L259.473 62.282H260.058L267.506 32.4077H280.142L287.339 62.282H287.841L294.117 38.7673L289.347 38.2654L290.435 31.3202H308.008L308.007 36.0033C307.626 36.7565 307.274 37.5236 306.95 38.3029L304.996 38.6835C303.869 38.8445 303.361 39.2382 303.026 40.2353L302.988 40.3566L292.695 74.9173H279.473L272.946 46.8849H272.444L265.833 74.9173H250.77L240.226 40.2739C239.906 39.311 239.509 39.118 238.591 38.882L238.47 38.8511L237.731 38.6934L237.778 38.882V45.2261L228.862 44.6426L228.029 40.3059C227.947 39.6397 227.779 39.3055 227.197 39.139L226.932 39.0618C225.805 38.7562 223.941 38.4717 221.864 38.4717C217.697 38.4717 215.364 40.0566 215.364 42.7246C215.364 45.6408 218.699 46.6158 222.832 47.5643L225.624 48.1996L226.01 48.2912C232.326 49.811 239.029 52.3798 239.029 61.6544C239.029 71.8279 230.78 75.9971 220.197 75.9971C212.815 75.9971 205.591 74.1 203.83 73.0776L203.697 72.996V60.9044L212.615 61.5706L213.449 66.3243L213.475 66.5272C213.568 67.136 213.771 67.4239 214.448 67.575L214.644 67.6368L214.866 67.7029L215.115 67.7691L215.402 67.8397C216.604 68.1232 218.472 68.4088 220.865 68.4088C225.28 68.4088 227.78 67.1581 227.78 64.0732C227.78 60.7919 224.554 59.7695 220.406 59.0217L218.509 58.6798L217.699 58.5276C211.201 57.2625 204.034 54.9717 204.034 45.3099C204.034 34.9699 212.864 30.7158 222.446 30.7158V30.7169ZM145.602 30.7169C158.072 30.7169 163.152 34.0687 163.251 45.4632L163.254 45.8107V66.1952L163.257 66.4191L163.264 66.6176L163.278 66.8007C163.342 67.4261 163.57 67.586 164.356 67.7096L164.579 67.7415L167.951 68.3073V60.9044L176.819 61.5706L177.648 66.3243C177.729 67.0743 177.896 67.4085 178.642 67.575L178.836 67.6368L179.058 67.7029L179.306 67.7691L179.59 67.8397C180.786 68.1232 182.646 68.4088 185.024 68.4088C189.414 68.4088 191.9 67.1581 191.9 64.0732C191.9 60.9011 188.904 59.8412 184.976 59.0989L182.653 58.6765L181.85 58.5221L181.268 58.4051L180.701 58.286C174.58 56.9592 168.284 54.3882 168.284 45.3099C168.284 34.9699 177.067 30.7158 186.596 30.7158C192.923 30.7158 199.095 32.1187 201.597 33.0408L201.846 33.1346V45.2261L192.978 44.6426L192.149 40.3059C192.067 39.6397 191.9 39.3055 191.321 39.139C190.244 38.8059 188.255 38.4717 186.017 38.4717C181.874 38.4717 179.553 40.0566 179.553 42.7246C179.553 45.6915 182.984 46.6489 187.194 47.6129L189.166 48.0618C195.712 49.5618 203.089 51.8978 203.089 61.6544C203.089 71.8279 194.885 75.9971 184.361 75.9971C177.655 75.9971 171.097 74.4176 168.674 73.3632L168.558 73.3114V74.9967H153.308L152.479 70.4934L152.065 70.4096C148.917 73.4956 144.773 75.9971 138.143 75.9971C127.703 75.9971 126.044 68.8268 126.044 63.6551C126.044 55.3996 131.081 51.5581 141.232 50.8346L151.071 50.1474V45.4004L151.067 44.9272L151.061 44.6151L151.044 44.1596L151.028 43.864C150.836 40.8904 149.876 38.9724 145.518 38.9724L145.011 38.9768L144.685 38.9835C141.305 39.0794 139.525 39.8934 139.471 44.3482L139.469 44.5599L127.784 43.5585C127.784 32.4143 137.776 30.7489 145.373 30.7169H145.602V30.7169ZM445.86 12L445.864 66.0353L445.87 66.2283C445.911 66.954 446.102 67.1294 446.945 67.2618L451.095 67.8728V74.4022H435.882L435.064 69.7732L434.491 69.6904C431.057 73.0798 427.049 75.3926 421.078 75.3926C411.427 75.3926 405.21 69.1941 405.21 53.4088C405.21 36.7952 413.471 30.514 422.55 30.514C427.182 30.514 430.8 32.089 433.859 34.3169L434.083 34.4812V21.9187C434.083 21.1357 433.789 20.5743 433.132 20.3074L433.02 20.2654L428.52 18.6949L429.421 12H445.86V12ZM398.285 30.1125C400.156 30.1125 403.834 30.4268 405.445 30.8283L405.604 30.8702V46.1824L395.508 45.846L394.666 41.3868C394.499 40.6301 394.246 40.4614 393.573 40.4614C391.514 40.4614 389.082 42.1015 387.751 43.2055L387.515 43.4062V65.8478C387.522 67.0279 387.638 67.2882 388.747 67.3776L397.191 68.0592V74.7893H369.678V67.9743L373.463 67.4702C374.604 67.307 374.798 67.0654 374.809 65.9062V41.1342C374.809 40.2518 374.579 39.6739 373.827 39.4037L373.717 39.3673L369.219 37.7846L369.183 37.7007L370.098 30.954H384.906L385.917 37.6853H386.421C389.198 33.3949 392.899 30.1125 398.285 30.1125V30.1125ZM107.418 14.4154C122.884 14.4154 127.564 22.5882 127.564 32.1772C127.564 46.5419 118.963 52.4063 105.083 52.5232L104.661 52.5243H98.5596V66.1037L98.5651 66.3143L98.5761 66.5096C98.629 67.2066 98.8441 67.3754 99.6757 67.5033L99.8974 67.5353L111.85 68.2026V74.7893H79.0838V74.7706L79.0474 74.7893H49.9706V68.2313L57.0934 67.6489C58.1765 67.5717 58.3926 67.2772 58.4169 66.2261L58.4191 65.989V37.3169C58.4191 36.1279 57.5257 36.3243 51.2974 38.4342L49 31.6246L63.2324 23.4717H70.9287V66.1114L70.9309 66.3353L70.9386 66.536C70.9805 67.3588 71.1901 67.564 72.1408 67.6401L72.2544 67.6489L79.0485 68.2313L79.0838 68.2489V68.2026L84.3504 67.618C85.4423 67.4636 85.6607 67.2353 85.6849 66.1875L85.6871 65.9504V23.3382C85.6871 22.1294 85.5305 21.7765 84.4629 21.6794L84.3504 21.6695L79.0838 21.086V14.4154H107.418V14.4154ZM150.837 56.6316L145.203 57.0452C140.317 57.3761 138.576 58.6147 138.576 61.9202C138.576 65.2279 140.565 66.4676 143.298 66.4676C146.03 66.4676 148.762 64.9897 150.661 63.6198L150.838 63.4919V56.6316H150.837ZM426.17 40.1085C420.168 40.1085 417.776 45.7279 417.727 53.0195V53.2577C417.727 61.3313 420.021 65.8246 425.186 65.8246C427.893 65.8246 430.833 64.254 433.028 62.4099L433.22 62.2456V42.6066C431.17 41.1915 428.546 40.1096 426.17 40.1096V40.1085ZM103.276 23.5721H98.3864V43.489H102.693L103.019 43.4846L103.5 43.4735L103.812 43.4625L104.269 43.4393C109.204 43.1371 114.044 41.2643 114.044 32.9096C114.044 24.975 109.156 23.571 103.276 23.571V23.5721Z" fill="black"/>
<path d="M337.971 16.4117C357.463 16.4117 373.265 32.2136 373.265 51.7059C373.265 71.1992 357.463 87 337.971 87C318.478 87 302.677 71.1992 302.677 51.7059C302.677 32.2136 318.478 16.4117 337.971 16.4117ZM337.971 19.7206C320.306 19.7206 305.985 34.0412 305.985 51.7059C305.985 69.3717 320.306 83.6912 337.971 83.6912C355.635 83.6912 369.956 69.3717 369.956 51.7059C369.956 34.0412 355.635 19.7206 337.971 19.7206ZM337.971 25.2353C352.59 25.2353 364.441 37.0864 364.441 51.7059C364.441 66.3254 352.59 78.1765 337.971 78.1765C323.351 78.1765 311.5 66.3254 311.5 51.7059C311.5 37.0864 323.351 25.2353 337.971 25.2353ZM337.971 30.75C326.397 30.75 317.015 40.1327 317.015 51.7059C317.015 63.2801 326.397 72.6617 337.971 72.6617C349.544 72.6617 358.927 63.2801 358.927 51.7059C358.927 40.1327 349.544 30.75 337.971 30.75ZM341.351 36.8162C342.226 36.8162 342.934 37.6048 342.934 38.5787V52.7757C342.934 53.0867 342.824 53.3856 342.625 53.6062L341.636 54.7081C341.437 54.939 341.327 55.2337 341.327 55.5386C341.327 55.8435 341.437 56.1382 341.636 56.3691L342.625 57.4709C342.824 57.6915 342.934 57.9893 342.934 58.3015V64.8331C342.934 65.807 342.226 66.5956 341.351 66.5956H334.59C333.715 66.5956 333.007 65.807 333.007 64.8331L333.018 51.1544C333.018 50.8434 333.129 50.5445 333.327 50.3239L334.317 49.222C334.516 48.9912 334.625 48.6964 334.625 48.3915C334.625 48.0866 334.516 47.7919 334.317 47.561L333.327 46.4592C333.129 46.2386 333.018 45.9408 333.007 45.6452V38.5787C333.007 37.6048 333.715 36.8162 334.59 36.8162H341.351V36.8162Z" fill="black"/>
</svg>
