<svg width="666" height="134" xmlns="http://www.w3.org/2000/svg"><g fill="none" fill-rule="evenodd"><path d="M287.282 35c8.601 0 17.02 1.548 22.093 2.947l.434.121.409-2.068h35.066v11.504l-7.762.832 11.089 38.947h.97l12.335-49.481h20.93l11.92 49.48h.83l10.396-38.946-7.9-.832L399.893 36H429l-.002 7.758a55.716 55.716 0 0 0-1.75 3.809l-3.238.63c-1.865.267-2.706.918-3.26 2.569l-.066.203-17.048 57.243h-21.9l-10.81-46.432h-.832l-10.95 46.432h-24.948L316.732 50.83c-.531-1.593-1.19-1.914-2.708-2.304l-.203-.052-1.222-.262.079.313v10.509l-14.768-.966-1.38-7.184c-.137-1.105-.415-1.657-1.378-1.933l-.441-.127c-1.866-.507-4.953-.978-8.393-.978-6.9 0-10.766 2.624-10.766 7.044 0 4.83 5.523 6.445 12.37 8.016l4.624 1.052.64.152c10.462 2.518 21.562 6.772 21.562 22.133 0 16.852-13.662 23.757-31.19 23.757-12.227 0-24.192-3.142-27.11-4.837l-.218-.135V85l14.768 1.105 1.382 7.873.043.337c.153 1.009.489 1.485 1.612 1.734l.324.103.369.108.412.112.475.117c1.99.47 5.086.942 9.048.942 7.312 0 11.452-2.071 11.452-7.182 0-5.435-5.34-7.127-12.213-8.364l-3.143-.567-1.339-.254c-10.764-2.096-22.636-5.89-22.636-21.891 0-17.127 14.628-24.173 30.498-24.173Zm-127.278 0c20.654 0 29.068 5.553 29.234 24.425l.002.576v33.764l.005.371.012.33.023.302c.106 1.035.484 1.301 1.786 1.504l.37.054 5.585.936V85l14.687 1.105 1.374 7.873c.134 1.243.412 1.796 1.647 2.071l.322.103.366.108.41.112.473.117c1.98.47 5.058.942 8.999.942 7.272 0 11.39-2.071 11.39-7.182 0-5.253-4.964-7.01-11.469-8.239l-3.847-.7-1.33-.254-.965-.193-.94-.199c-10.14-2.198-20.566-6.455-20.566-21.491C197.572 42.046 212.12 35 227.904 35c10.478 0 20.701 2.324 24.846 3.85l.41.156v20.028l-14.687-.966-1.373-7.184c-.135-1.105-.411-1.657-1.37-1.933-1.785-.552-5.079-1.105-8.785-1.105-6.864 0-10.708 2.624-10.708 7.044 0 4.913 5.684 6.499 12.657 8.096l3.265.744c10.843 2.485 23.061 6.354 23.061 22.513 0 16.85-13.588 23.757-31.021 23.757-11.105 0-21.968-2.616-25.982-4.363l-.192-.085v2.79h-25.257l-1.374-7.459-.685-.137c-5.214 5.11-12.078 9.254-23.06 9.254-17.292 0-20.039-11.877-20.039-20.442 0-13.674 8.342-20.037 25.156-21.235l16.296-1.139v-7.863l-.007-.782-.01-.517-.028-.756-.027-.49c-.317-4.924-1.907-8.1-9.124-8.1l-.842.006-.54.011c-5.597.159-8.546 1.507-8.636 8.886l-.002.35-19.355-1.659c0-18.458 16.55-21.216 29.133-21.27h.38ZM657.33 4l.004 89.5.012.32c.067 1.202.382 1.491 1.779 1.71L666 96.542v10.815h-25.198l-1.355-7.666-.948-.137c-5.69 5.613-12.328 9.446-22.217 9.446C600.296 109 590 98.733 590 72.585c0-27.516 13.683-37.92 28.72-37.92 7.67 0 13.663 2.609 18.732 6.3l.37.271V20.428c0-1.297-.487-2.226-1.574-2.669l-.187-.07-7.451-2.6L630.1 4h27.23Zm-78.802 30c3.099 0 9.192.52 11.861 1.185l.264.07v25.363l-16.723-.558-1.394-7.386c-.279-1.254-.697-1.533-1.812-1.533-3.41 0-7.437 2.716-9.642 4.546l-.392.332.001 37.17c.012 1.955.203 2.386 2.04 2.534l13.986 1.128V108h-45.57V96.712l6.27-.836c1.888-.27 2.21-.67 2.23-2.59v-41.03c0-1.463-.38-2.419-1.628-2.866l-.184-.06-7.448-2.623-.06-.138 1.516-11.175h24.527l1.673 11.148h.836C563.478 39.435 569.609 34 578.529 34ZM96.761 8c25.615 0 33.366 13.537 33.366 29.42 0 23.792-14.246 33.507-37.235 33.698l-.7.003H82.086l.002 22.492.008.35.017.322c.088 1.155.445 1.434 1.822 1.646l.367.053 19.797 1.105V108H49.83v-.032l-.06.032H1.607V97.136l11.799-.964c1.794-.128 2.152-.615 2.191-2.356l.004-.393v-47.49c0-1.97-1.48-1.645-11.795 1.85L0 36.506 23.574 23H36.32v70.624l.005.372.012.333c.07 1.363.416 1.703 1.993 1.83l.187.013 11.252.964.06.03v-.077l8.722-.968c1.807-.257 2.17-.634 2.211-2.369l.004-.393V22.78c0-2.001-.26-2.586-2.027-2.748l-.188-.015-8.722-.966V8h46.932Zm71.914 69.925-9.332.684c-8.094.547-10.976 2.6-10.976 8.076 0 5.478 3.294 7.53 7.822 7.53 4.524 0 9.049-2.447 12.195-4.716l.29-.212V77.925Zm456.038-27.368c-9.94 0-13.9 9.308-13.984 21.384l-.002.395c0 13.371 3.802 20.815 12.356 20.815 4.485 0 9.354-2.602 12.99-5.657l.317-.27V54.692c-3.395-2.343-7.74-4.135-11.677-4.135ZM89.897 23.167H81.8v32.99h7.133l.54-.006.796-.018.516-.019.759-.039c8.173-.5 16.19-3.601 16.19-17.44 0-13.143-8.097-15.468-17.837-15.468Z" fill="#FFF"/><path d="M479 14c30.928 0 56 25.072 56 56 0 30.929-25.072 56-56 56s-56-25.071-56-56c0-30.928 25.072-56 56-56Zm-8 32v48h16V46h-16Z" fill="#FFF"/><path d="M479 25c24.853 0 45 20.147 45 45 0 24.854-20.147 45-45 45s-45-20.146-45-45c0-24.853 20.147-45 45-45Zm-8 21v48h16V46h-16Z" fill="#1A8CFF"/><path d="M421 70c0 32.034 25.967 58 58 58s58-25.966 58-58c0-32.033-25.967-58-58-58s-58 25.967-58 58Zm2 0c0-30.925 25.069-56 56-56s56 25.075 56 56-25.068 56-56 56-56-25.075-56-56Z" fill="#000" fill-rule="nonzero" opacity=".5"/><path d="M534.921 67c.052.993.079 1.994.079 3 0 30.928-25.072 56-56 56s-56-25.072-56-56c0-1.006.027-2.007.079-3 1.559 29.533 26 53 55.921 53 29.69 0 53.985-23.106 55.88-52.318l.041-.682ZM479 20c27.062 0 49 21.938 49 49 0 15.13-6.857 28.657-17.632 37.646C519.37 98.249 525 86.282 525 73c0-25.405-20.595-46-46-46s-46 20.595-46 46c0 13.282 5.629 25.249 14.631 33.646C436.857 97.657 430 84.129 430 69c0-27.062 21.938-49 49-49Z" fill-opacity=".052" fill="#000"/><path d="M479 25c24.856 0 45 20.15 45 45s-20.144 45-45 45c-24.608 0-44.597-19.75-44.994-44.256L434 70c0-24.85 20.144-45 45-45Zm0 2c-23.748 0-43 19.252-43 43 0 23.749 19.252 43 43 43s43-19.251 43-43c0-23.748-19.252-43-43-43Z" fill="#000" fill-rule="nonzero" opacity=".256"/><path d="M479.223 35A35.096 35.096 0 0 0 444 70.223C444 89.403 459.743 105 479.223 105 498.33 105 514 89.33 514 70.223 514 50.743 498.402 35 479.223 35Zm-.002 2C497.225 37 512 51.775 512 70.221 512 88.226 497.225 103 479.221 103 460.775 103 446 88.226 446 70.221A33.096 33.096 0 0 1 479.221 37Z" fill-opacity=".25" fill="#000" fill-rule="nonzero"/><path d="M479.221 37C497.225 37 512 51.775 512 70.221 512 88.226 497.225 103 479.221 103 460.775 103 446 88.226 446 70.221A33.096 33.096 0 0 1 479.221 37Zm5.229 8h-10.9c-1.356 0-2.465 1.202-2.545 2.718l-.005.176v11.727c0 .448.137.88.385 1.223l.113.142 1.594 1.809c.625.709.662 1.833.11 2.59l-.11.138-1.594 1.81a2.047 2.047 0 0 0-.49 1.173l-.008.19v23.41c0 1.539 1.059 2.798 2.395 2.889l.155.005h10.9c1.356 0 2.465-1.202 2.545-2.718l.005-.176V80.379c0-.448-.137-.88-.385-1.223l-.113-.142-1.594-1.809c-.625-.709-.662-1.833-.11-2.59l.11-.138 1.594-1.81c.279-.316.451-.731.49-1.173l.008-.19v-23.41c0-1.539-1.059-2.798-2.395-2.889L484.45 45Z" fill="#F7F7F7"/><path d="M471 57.31v2.311c0 .448.137.88.385 1.223l.113.142 1.594 1.809c.625.709.662 1.833.11 2.59l-.11.138-1.594 1.81a2.047 2.047 0 0 0-.49 1.173l-.008.19v13.995c-4.206-2.657-7-7.348-7-12.691 0-5.343 2.794-10.034 7-12.69ZM494 70c0 5.343-2.793 10.033-6.999 12.69L487 80.38c0-.448-.137-.88-.385-1.223l-.113-.142-1.594-1.809c-.625-.709-.662-1.833-.11-2.59l.11-.138 1.594-1.81c.279-.316.451-.731.49-1.173l.008-.19.001-13.994C491.207 59.967 494 64.657 494 70Z" fill-opacity=".05" fill="#000"/><path d="M471 54.996v2.313c-4.206 2.657-7 7.348-7 12.691 0 5.343 2.794 10.034 7 12.69v2.314c-5.356-2.862-9-8.507-9-15.004 0-6.372 3.505-11.925 8.693-14.836l.307-.168ZM496 70c0 6.496-3.644 12.141-8.999 15.003V82.69C491.207 80.033 494 75.343 494 70c0-5.343-2.793-10.033-6.999-12.69v-2.313C492.356 57.859 496 63.504 496 70Z" fill="#FFF" fill-rule="nonzero"/><path d="M471 57.31v2.311c0 .043.001.086.004.128A12.978 12.978 0 0 0 466 70a12.98 12.98 0 0 0 5 10.248v2.443c-4.206-2.657-7-7.348-7-12.691 0-5.343 2.794-10.034 7-12.69ZM494 70c0 5.343-2.793 10.033-6.999 12.69L487 80.38a2.19 2.19 0 0 0-.004-.128A12.977 12.977 0 0 0 492 70c0-4.162-1.956-7.867-4.999-10.247V57.31C491.207 59.967 494 64.657 494 70Z" fill-opacity=".15" fill="#000" fill-rule="nonzero"/><g fill-rule="nonzero"><path d="M484.577 44h-11.154c-2.472 0-4.423 2.165-4.423 4.772v10.792c0 .982.354 1.93.996 2.642l1.64 1.819c.037.042.037.161 0 .204l-1.64 1.818A3.95 3.95 0 0 0 469 68.69v22.539c0 2.607 1.951 4.772 4.423 4.772h11.154c2.472 0 4.423-2.165 4.423-4.772V80.436a3.95 3.95 0 0 0-.996-2.642l-1.64-1.819c-.037-.042-.037-.161 0-.204l1.64-1.818A3.95 3.95 0 0 0 489 71.31V48.772c0-2.607-1.951-4.772-4.423-4.772Zm-.127 2.038c1.408 0 2.55 1.294 2.55 2.89v22.374c0 .51-.18 1-.498 1.362l-1.594 1.806c-.664.752-.664 1.972 0 2.725L486.502 79c.319.361.498.851.498 1.362v10.71c0 1.595-1.142 2.89-2.55 2.89h-10.9c-1.408 0-2.55-1.295-2.55-2.89V68.697c0-.51.18-1 .498-1.362l1.594-1.806c.664-.752.664-1.972 0-2.725L471.498 61a2.064 2.064 0 0 1-.498-1.362v-10.71c0-1.595 1.142-2.89 2.55-2.89h10.9Z" fill="#FFF"/><path d="M484.45 46c1.408 0 2.55 1.296 2.55 2.894v22.41c0 .511-.18 1.002-.498 1.364l-1.594 1.809c-.664.753-.664 1.975 0 2.728l1.594 1.81c.319.361.498.852.498 1.364v10.727c0 1.598-1.142 2.894-2.55 2.894h-10.9c-1.408 0-2.55-1.296-2.55-2.894v-22.41c0-.511.18-1.002.498-1.364l1.594-1.809c.664-.753.664-1.975 0-2.728l-1.594-1.81a2.069 2.069 0 0 1-.498-1.364V48.894c0-1.598 1.142-2.894 2.55-2.894h10.9Zm-.288 2.054-10.324-.013c-.404 0-.784.379-.833.916l-.005.118v10.631c0 .031.007.059.015.078l.014.023 1.67 1.794c1.306 1.403 1.35 3.6.135 5.058l-.135.153-1.67 1.794a.117.117 0 0 0-.025.058l-.004.043v22.218c0 .559.353.975.752 1.028l.086.006 10.324.014c.404 0 .784-.38.833-.917l.005-.117V80.307a.196.196 0 0 0-.015-.078l-.014-.022-1.67-1.794c-1.306-1.403-1.35-3.601-.135-5.059l.135-.153 1.67-1.794c.01-.01.02-.03.025-.057l.004-.044V49.088c0-.559-.353-.975-.752-1.028l-.086-.006Z" fill-opacity=".4" fill="#000"/></g></g></svg>