<svg width="284" height="69" fill="none" xmlns="http://www.w3.org/2000/svg"><path fill-rule="evenodd" clip-rule="evenodd" d="m.795 50.883 10.123-7.754c5.376 7.018 11.085 10.253 17.446 10.253 6.326 0 11.878-3.197 17.013-10.16l10.262 7.568c-7.403 10.04-16.614 15.343-27.275 15.343-10.626 0-19.922-5.267-27.57-15.25Zm27.537-33.7L10.314 32.71 1.99 23.05 28.367.319 54.54 23.067l-8.365 9.625-17.843-15.508Z" fill="#000"/><path fill="#000" d="M114.54 13.427h10.201v42.505H114.54z"/><path fill-rule="evenodd" clip-rule="evenodd" d="M93.924 56.12c-6.014 0-11.025-1.95-15.09-5.847-4.065-3.954-6.07-9.02-6.07-15.201 0-6.237 2.06-11.36 6.126-15.368 4.12-4.065 9.131-6.07 15.09-6.07 7.349 0 13.864 3.174 17.65 8.13l-6.626 6.96c-3.174-3.396-6.626-5.123-10.357-5.123-3.173 0-5.79 1.058-7.962 3.23-2.116 2.172-3.174 4.9-3.174 8.185 0 3.174 1.058 5.847 3.174 8.018 2.172 2.116 4.789 3.174 7.907 3.174 4.064 0 7.628-1.782 10.579-5.29l6.905 6.626c-1.893 2.506-4.455 4.566-7.629 6.181-3.173 1.615-6.681 2.394-10.523 2.394Zm46.118-39.293a5.525 5.525 0 1 1-11.051 0 5.526 5.526 0 0 1 11.051 0Zm-.425 8.076h-10.201v31.029h10.201V24.903Zm19.719 31.272c-4.844 0-8.742-1.503-11.804-4.51-3.007-3.007-4.511-6.85-4.511-11.582 0-4.733 1.504-8.575 4.566-11.582 3.063-3.007 7.016-4.51 11.916-4.51 6.404 0 12.027 3.118 14.644 8.965l-7.851 4.12c-1.559-2.617-3.73-3.953-6.57-3.953-2.06 0-3.731.668-5.067 2.004-1.281 1.337-1.949 3.007-1.949 4.956 0 4.065 2.951 7.072 6.905 7.072 2.839 0 5.456-1.56 6.57-3.954l7.851 4.677c-2.673 5.123-8.185 8.297-14.7 8.297Zm27.463-42.748h-10.201v42.505h10.201v-10.82l1.195-1.116 9.325 11.936h11.867l-14.327-18.337 13.61-12.692h-12.465l-9.205 8.585V13.427Zm24.227 26.443V13.427h10.627v25.851c0 4.622 2.693 6.849 6.588 6.849 3.838 0 6.588-2.339 6.588-6.849V13.427h10.626V39.87c0 12.139-8.522 16.705-17.214 16.705-8.636 0-17.215-4.566-17.215-16.705Zm57.382 16.912c8.216 0 14.877-7.231 14.877-16.152 0-8.92-6.661-16.152-14.877-16.152-3.349 0-6.439 1.202-8.926 3.23v-2.805h-9.776v43.78h9.776v-15.13c2.487 2.027 5.577 3.229 8.926 3.229Zm-8.926-16.135v-.034c.009-3.983 3.145-7.209 7.013-7.209 3.874 0 7.014 3.235 7.014 7.226 0 3.99-3.14 7.226-7.014 7.226-3.868 0-7.004-3.226-7.013-7.21Z" fill="#000"/></svg>