<svg width="500" height="100" viewBox="0 0 500 100" fill="none" xmlns="http://www.w3.org/2000/svg">
<path d="M447.754 62.394C446.502 62.394 445.508 61.3998 445.508 60.1478C445.508 58.9327 446.502 57.9017 447.754 57.9017C448.969 57.9017 450 58.8959 450 60.1478C450 61.3998 448.969 62.394 447.754 62.394ZM447.754 58.3435C446.76 58.3435 445.95 59.1536 445.95 60.1478C445.95 61.142 446.76 61.9521 447.754 61.9521C448.748 61.9521 449.558 61.142 449.558 60.1478C449.558 59.1536 448.748 58.3435 447.754 58.3435ZM448.895 61.3261H448.38L447.938 60.4792H447.349V61.3261H446.87V58.8591H448.049C448.564 58.8591 448.895 59.1905 448.895 59.6691C448.895 60.0374 448.674 60.2951 448.38 60.4056L448.895 61.3261ZM448.012 60.0374C448.196 60.0374 448.38 59.9269 448.38 59.6691C448.38 59.3746 448.233 59.3009 448.012 59.3009H447.275V60.0374H448.012ZM213.748 57.6807H219.493V73.3302H229.471V78.338H213.748V57.6807ZM235.4 68.0646V68.0278C235.4 62.0994 240.187 57.2757 246.557 57.2757C252.927 57.2757 257.641 62.0258 257.641 67.9542V68.0278C257.641 73.9562 252.854 78.7799 246.483 78.7799C240.15 78.7431 235.4 73.993 235.4 68.0646ZM251.823 68.0646V68.0278C251.823 65.0452 249.687 62.4676 246.52 62.4676C243.39 62.4676 241.291 65.0084 241.291 67.991V68.0646C241.291 71.0472 243.427 73.6248 246.557 73.6248C249.724 73.588 251.823 71.0472 251.823 68.0646V68.0646ZM264.674 69.2798V57.6807H270.491V69.1693C270.491 72.1519 272.001 73.5511 274.284 73.5511C276.567 73.5511 278.077 72.1887 278.077 69.3166V57.6807H283.895V69.1325C283.895 75.7973 280.102 78.7063 274.211 78.7063C268.356 78.7431 264.674 75.7605 264.674 69.2798V69.2798ZM292.659 57.6807H300.649C308.013 57.6807 312.322 61.9153 312.322 67.8805V67.9542C312.322 73.9194 307.977 78.338 300.538 78.338H292.695L292.659 57.6807V57.6807ZM300.723 73.2566C304.147 73.2566 306.43 71.3786 306.43 68.0278V67.9542C306.43 64.6402 304.147 62.7254 300.723 62.7254H298.403V73.2197L300.723 73.2566V73.2566ZM320.607 57.6807H337.14V62.7254H326.314V66.2235H336.109V70.9736H326.314V78.338H320.607V57.6807ZM345.093 57.6807H350.801V73.3302H360.817V78.338H345.093V57.6807ZM375.766 57.5335H381.29L390.09 78.338H383.941L382.431 74.6558H374.478L373.005 78.338H367.003L375.766 57.5335V57.5335ZM380.811 70.2003L378.528 64.3456L376.208 70.2003H380.811ZM397.455 57.6807H407.213C410.379 57.6807 412.552 58.4908 413.951 59.9269C415.166 61.1052 415.792 62.6886 415.792 64.7506V64.8243C415.792 67.991 414.098 70.0898 411.558 71.1577L416.492 78.3749H409.864L405.703 72.1151H403.199V78.3749H397.492L397.455 57.6807V57.6807ZM406.955 67.6228C408.906 67.6228 410.011 66.6654 410.011 65.1925V65.082C410.011 63.4618 408.833 62.6517 406.918 62.6517H403.162V67.6228H406.955V67.6228ZM424.04 57.6807H440.647V62.5781H429.711V65.6712H439.616V70.2003H429.711V73.4775H440.795V78.338H424.04V57.6807ZM201.229 70.4949C200.419 72.2992 198.725 73.588 196.516 73.588C193.386 73.588 191.25 70.9736 191.25 68.0278V67.9542C191.25 64.9716 193.349 62.4308 196.479 62.4308C198.835 62.4308 200.64 63.8669 201.376 65.8553H207.415C206.458 60.9211 202.113 57.2757 196.516 57.2757C190.145 57.2757 185.358 62.0994 185.358 68.0278V68.1014C185.358 74.0298 190.072 78.7799 196.442 78.7799C201.892 78.7799 206.163 75.245 207.268 70.5317L201.229 70.4949V70.4949Z" fill="black"/>
<path d="M165.18 55.7292L149.383 46.6709L146.659 45.4926L82.0354 45.9712V78.7431L165.18 78.7799V55.7292Z" fill="white"/>
<path d="M136.422 75.7605C137.195 73.1093 136.901 70.6791 135.612 68.8748C134.433 67.2178 132.445 66.2604 130.052 66.1499L84.7234 65.5608C84.4288 65.5608 84.1711 65.4135 84.0238 65.1925C83.8765 64.9716 83.8397 64.677 83.9133 64.3825C84.0606 63.9406 84.5025 63.6092 84.9812 63.5724L130.714 62.9832C136.127 62.7255 142.019 58.3436 144.081 52.9675L146.695 46.1554C146.806 45.8608 146.843 45.5663 146.769 45.2717C143.823 31.942 131.93 22 117.716 22C104.607 22 93.4871 30.4691 89.5103 42.2154C86.9328 40.3007 83.6556 39.2697 80.1206 39.6011C73.824 40.227 68.7794 45.2717 68.1534 51.5683C68.0061 53.1885 68.1166 54.7718 68.4848 56.2447C58.2114 56.5393 50 64.9348 50 75.2819C50 76.2024 50.0736 77.123 50.1841 78.0435C50.2578 78.4854 50.626 78.8168 51.0678 78.8168H134.728C135.207 78.8168 135.649 78.4854 135.796 78.0067L136.422 75.7605V75.7605ZM150.856 46.6341C150.451 46.6341 150.009 46.6341 149.604 46.6709C149.31 46.6709 149.052 46.8919 148.941 47.1864L147.174 53.3358C146.401 55.987 146.695 58.4172 147.984 60.2215C149.162 61.8785 151.151 62.8359 153.544 62.9464L163.192 63.5355C163.486 63.5355 163.744 63.6828 163.891 63.9038C164.039 64.1247 164.075 64.4561 164.002 64.7139C163.854 65.1557 163.413 65.4871 162.934 65.5239L152.881 66.1131C147.432 66.3709 141.577 70.7527 139.515 76.1288L138.779 78.0067C138.631 78.3749 138.889 78.7431 139.294 78.7431H173.833C174.238 78.7431 174.607 78.4854 174.717 78.0803C175.306 75.9447 175.638 73.6985 175.638 71.3787C175.638 57.7176 164.554 46.6341 150.856 46.6341" fill="black"/>
</svg>
