<svg width="170" height="34" fill="none" xmlns="http://www.w3.org/2000/svg"><path d="M15.688 33.54c2.261 0 4.313-.42 6.155-1.259 1.842-.838 3.376-2.021 4.604-3.549 1.228-1.542 2.044-3.346 2.448-5.413l.045-.224h-4.088l-.067.202c-.464 1.422-1.123 2.62-1.976 3.594a8.307 8.307 0 0 1-3.078 2.178c-1.183.495-2.53.742-4.043.742-2.14 0-4.013-.54-5.615-1.618-1.602-1.078-2.845-2.59-3.728-4.537-.869-1.961-1.303-4.252-1.303-6.873v-.022c0-2.636.434-4.92 1.303-6.85.883-1.947 2.119-3.452 3.706-4.515 1.602-1.079 3.481-1.618 5.637-1.618 1.528 0 2.89.247 4.088.742a8.138 8.138 0 0 1 3.033 2.133c.838.914 1.467 2.03 1.886 3.347l.157.494h4.088l-.045-.224c-.404-2.052-1.227-3.841-2.47-5.369-1.228-1.527-2.763-2.717-4.605-3.57C19.98.476 17.935.05 15.688.05c-3.01 0-5.622.689-7.838 2.066C5.633 3.48 3.919 5.41 2.706 7.911c-1.213 2.5-1.82 5.45-1.82 8.85v.022c0 3.4.607 6.357 1.82 8.872 1.213 2.5 2.927 4.44 5.144 5.818 2.23 1.377 4.844 2.066 7.838 2.066Zm27.111-.09c2.156 0 4.043-.495 5.66-1.483 1.617-.988 2.875-2.389 3.773-4.2.914-1.812 1.37-3.961 1.37-6.447v-.045c0-2.485-.456-4.627-1.37-6.423-.898-1.812-2.163-3.205-3.795-4.178-1.618-.988-3.504-1.483-5.66-1.483-2.142 0-4.029.495-5.66 1.483-1.618.973-2.883 2.366-3.797 4.178-.898 1.796-1.347 3.938-1.347 6.423v.045c0 2.471.449 4.62 1.347 6.447.914 1.811 2.179 3.212 3.796 4.2 1.632.988 3.527 1.482 5.683 1.482Zm.022-3.46c-1.377 0-2.583-.337-3.616-1.01-1.018-.69-1.812-1.678-2.38-2.965-.57-1.303-.854-2.868-.854-4.695v-.045c0-1.826.284-3.376.853-4.649.57-1.288 1.363-2.269 2.381-2.942 1.033-.69 2.224-1.034 3.571-1.034 1.378 0 2.576.337 3.594 1.011 1.033.674 1.827 1.655 2.381 2.943.569 1.287.854 2.845.854 4.671v.045c0 1.827-.285 3.392-.854 4.695-.554 1.287-1.34 2.276-2.358 2.965-1.004.673-2.194 1.01-3.572 1.01Zm17.363-8.557h9.523c2.037 0 3.833-.442 5.39-1.326a9.512 9.512 0 0 0 3.662-3.683c.898-1.572 1.347-3.384 1.347-5.436v-.045c0-2.051-.449-3.855-1.347-5.413a9.399 9.399 0 0 0-3.661-3.638C73.54 1.023 71.743.589 69.707.589h-9.523v3.594h8.49c2.32 0 4.118.599 5.39 1.796 1.273 1.198 1.91 2.868 1.91 5.01v.044c0 2.127-.637 3.796-1.91 5.009-1.272 1.198-3.07 1.797-5.39 1.797h-8.49v3.594ZM58.162 33h4.043V.589h-4.043V33Zm30.794.45a8.456 8.456 0 0 0 2.965-.517 8.764 8.764 0 0 0 2.538-1.483 7.63 7.63 0 0 0 1.797-2.246h.09V33h3.908V16.85c0-1.557-.367-2.904-1.1-4.042-.734-1.153-1.775-2.044-3.123-2.673-1.332-.63-2.92-.944-4.762-.944-1.826 0-3.406.315-4.739.944-1.332.614-2.38 1.445-3.144 2.493a7.048 7.048 0 0 0-1.303 3.504l-.022.247h3.773l.045-.202c.224-1.048.793-1.894 1.707-2.538.928-.66 2.141-.989 3.639-.989 1.632 0 2.89.412 3.773 1.236.898.808 1.348 1.924 1.348 3.346v6.896c0 1.123-.292 2.134-.876 3.032-.57.899-1.348 1.61-2.336 2.134-.974.51-2.074.764-3.302.764-1.407 0-2.538-.33-3.392-.989-.838-.659-1.257-1.55-1.257-2.672v-.045c0-1.093.426-1.97 1.28-2.628.868-.66 2.081-1.034 3.639-1.123l8.198-.495v-3.032l-8.648.494c-2.68.15-4.761.824-6.244 2.022-1.482 1.183-2.223 2.77-2.223 4.762v.044c0 1.408.322 2.643.965 3.706.66 1.064 1.573 1.887 2.74 2.471 1.169.584 2.524.876 4.066.876Zm16.262-.45h3.908V18.58c0-1.183.202-2.194.606-3.032.42-.854 1.004-1.505 1.752-1.954.764-.45 1.648-.674 2.651-.674.479 0 .906.022 1.28.067.389.045.659.098.809.158V9.349c-.15-.03-.367-.06-.652-.09a5.636 5.636 0 0 0-.921-.068c-1.317 0-2.455.397-3.414 1.19-.958.794-1.632 1.865-2.021 3.213h-.09V9.64h-3.908V33Zm22.483.45c1.737 0 3.287-.293 4.65-.877 1.377-.599 2.455-1.422 3.234-2.47.794-1.049 1.19-2.254 1.19-3.617v-.022c0-1.662-.479-2.987-1.437-3.976-.958-1.003-2.621-1.79-4.986-2.358l-3.706-.899c-1.288-.314-2.217-.748-2.786-1.302a2.715 2.715 0 0 1-.853-2.022v-.022c0-.689.18-1.288.539-1.797.374-.524.906-.928 1.595-1.213.688-.284 1.505-.427 2.448-.427 1.452 0 2.598.345 3.436 1.033.854.69 1.356 1.603 1.505 2.74l.023.158h3.728l-.022-.292a6.735 6.735 0 0 0-1.236-3.504c-.718-1.048-1.714-1.872-2.987-2.47-1.258-.615-2.74-.922-4.447-.922-1.677 0-3.167.292-4.47.876-1.288.584-2.298 1.393-3.032 2.426-.719 1.033-1.078 2.224-1.078 3.571v.023c0 1.677.539 3.047 1.617 4.11 1.078 1.048 2.718 1.835 4.919 2.359l3.706.898c1.333.33 2.254.749 2.763 1.258.509.509.763 1.183.763 2.021v.023c0 .704-.202 1.318-.606 1.842-.404.509-.981.906-1.73 1.19-.748.27-1.654.404-2.717.404-1.588 0-2.823-.322-3.706-.965-.884-.66-1.445-1.573-1.685-2.74l-.045-.225h-3.908l.022.202c.165 1.392.629 2.613 1.393 3.661.779 1.048 1.834 1.864 3.167 2.448 1.333.584 2.912.876 4.739.876Zm22.753 0c1.273 0 2.456-.173 3.549-.517a10.318 10.318 0 0 0 2.92-1.483 8.634 8.634 0 0 0 2.089-2.223 7.6 7.6 0 0 0 1.123-2.696l.045-.224h-3.841l-.068.202a4.535 4.535 0 0 1-1.123 1.797c-.524.524-1.175.935-1.954 1.235-.778.3-1.662.45-2.65.45-1.408 0-2.628-.308-3.661-.922-1.033-.629-1.834-1.527-2.404-2.695-.554-1.168-.831-2.575-.831-4.223v-1.505c0-1.736.285-3.197.854-4.38.569-1.197 1.348-2.096 2.336-2.695.988-.614 2.104-.92 3.347-.92 1.242 0 2.343.291 3.301.875.959.57 1.707 1.445 2.246 2.628.554 1.183.831 2.68.831 4.492v1.505l1.977-2.83h-16.891v3.055h18.823v-1.438c0-2.335-.412-4.387-1.236-6.154-.823-1.767-2.006-3.137-3.548-4.11-1.528-.988-3.355-1.483-5.481-1.483s-3.976.517-5.548 1.55c-1.572 1.018-2.792 2.449-3.661 4.29-.868 1.827-1.303 3.946-1.303 6.357v.022c0 2.44.427 4.567 1.281 6.38.868 1.796 2.103 3.189 3.706 4.177 1.617.988 3.541 1.482 5.772 1.482Z" fill="#000"/><path d="M166.828 33.315c.719 0 1.325-.248 1.819-.742.495-.494.742-1.1.742-1.82 0-.718-.247-1.324-.742-1.818-.494-.495-1.1-.742-1.819-.742-.719 0-1.325.247-1.819.742-.494.494-.741 1.1-.741 1.819 0 .719.247 1.325.741 1.82.494.493 1.1.74 1.819.74Z" fill="#2862ED"/></svg>