<svg width="500" height="100" viewBox="0 0 500 100" fill="none" xmlns="http://www.w3.org/2000/svg">
<path d="M114.729 83C119.117 83 123.1 82.1848 126.675 80.5564C130.25 78.93 133.227 76.6339 135.611 73.6683C137.994 70.6754 139.578 67.1741 140.362 63.1623L140.449 62.7275H132.515L132.385 63.1196C131.484 65.8795 130.205 68.2047 128.55 70.0951C126.909 71.9434 124.865 73.3897 122.576 74.3223C120.28 75.2831 117.665 75.7625 114.729 75.7625C110.575 75.7625 106.94 74.7144 103.831 72.6221C100.722 70.5299 98.309 67.5953 96.5952 63.8164C94.9086 60.0103 94.0663 55.5637 94.0663 50.4767V50.434C94.0663 45.3179 94.9086 40.8849 96.5952 37.139C98.309 33.3601 100.708 30.4391 103.788 28.3759C106.897 26.2817 110.544 25.2356 114.729 25.2356C117.695 25.2356 120.338 25.715 122.663 26.6757C124.918 27.5843 126.932 29.001 128.55 30.8156C130.176 32.5896 131.397 34.7556 132.21 37.3117L132.515 38.2705H140.449L140.362 37.8358C139.578 33.8531 137.981 30.3809 135.568 27.4152C133.185 24.4515 130.205 22.1418 126.63 20.4863C123.059 18.8268 119.09 18 114.729 18C108.887 18 103.817 19.3373 99.5163 22.0098C95.2133 24.6572 91.8867 28.4031 89.5324 33.2572C87.1781 38.1094 86 43.835 86 50.434V50.4767C86 57.0757 87.1781 62.8149 89.5324 67.6962C91.8867 72.5484 95.2133 76.3137 99.5163 78.9882C103.844 81.6608 108.918 82.9981 114.729 82.9981V83ZM167.348 82.8253C171.533 82.8253 175.195 81.8646 178.333 79.947C181.472 78.0294 183.913 75.3102 185.656 71.7953C187.43 68.2784 188.315 64.1075 188.315 59.2825V59.1951C188.315 54.372 187.43 50.2147 185.656 46.7289C183.913 43.212 181.458 40.5084 178.291 38.6199C175.15 36.7023 171.49 35.7416 167.305 35.7416C163.148 35.7416 159.486 36.7023 156.32 38.6199C153.18 40.5084 150.724 43.212 148.95 46.7289C147.208 50.2147 146.336 54.372 146.336 59.1951V59.2825C146.336 64.0784 147.208 68.2493 148.95 71.7953C150.724 75.3102 153.18 78.0294 156.318 79.947C159.486 81.8646 163.163 82.8234 167.348 82.8234V82.8253ZM167.391 76.1099C164.718 76.1099 162.377 75.4558 160.373 74.1496C158.397 72.8104 156.856 70.8928 155.753 68.3949C154.647 65.8659 154.096 62.8285 154.096 59.2825V59.1951C154.096 55.6511 154.647 52.6427 155.751 50.172C156.858 47.6721 158.397 45.7681 160.373 44.4619C162.377 43.1227 164.689 42.4551 167.303 42.4551C169.978 42.4551 172.303 43.1091 174.279 44.4173C176.284 45.7254 177.825 47.6294 178.9 50.1293C180.004 52.6272 180.558 55.6511 180.558 59.1951V59.2825C180.558 62.8285 180.004 65.8659 178.9 68.3949C177.825 70.8928 176.299 72.8123 174.324 74.1496C172.375 75.4558 170.065 76.1099 167.391 76.1099ZM201.09 59.5018H219.573C223.527 59.5018 227.013 58.6439 230.034 56.9282C233.021 55.2509 235.482 52.7759 237.142 49.7799C238.885 46.7289 239.756 43.212 239.756 39.2293V39.142C239.756 35.1612 238.885 31.6599 237.142 28.636C235.479 25.6654 233.017 23.2196 230.036 21.5751C227.013 19.8885 223.525 19.0461 219.573 19.0461H201.09V26.0216H217.568C222.071 26.0216 225.561 27.1842 228.03 29.5075C230.5 31.8326 231.737 35.0739 231.737 39.2313V39.3167C231.737 43.4449 230.5 46.6842 228.03 49.0385C225.561 51.3637 222.071 52.5263 217.568 52.5263H201.09V59.5018ZM197.166 81.9519H205.013V19.0461H197.166V81.9519ZM256.933 82.8253C258.896 82.8377 260.845 82.4979 262.688 81.8219C264.48 81.1467 266.145 80.1735 267.614 78.9436C269.042 77.7247 270.226 76.2454 271.102 74.5844H271.276V81.9519H278.861V50.6067C278.861 47.5848 278.149 44.9704 276.726 42.7617C275.302 40.5239 273.281 38.7946 270.665 37.5737C268.08 36.351 264.997 35.7416 261.422 35.7416C257.878 35.7416 254.812 36.3529 252.225 37.5737C249.639 38.7654 247.605 40.3783 246.122 42.4124C244.683 44.4103 243.809 46.7599 243.593 49.2132L243.551 49.6926H250.874L250.961 49.3005C251.396 47.2665 252.5 45.6245 254.274 44.3746C256.075 43.0936 258.43 42.4551 261.337 42.4551C264.504 42.4551 266.946 43.2547 268.66 44.854C270.403 46.4222 271.276 48.5882 271.276 51.3482V64.7325C271.276 66.9121 270.709 68.8743 269.576 70.6172C268.47 72.362 266.96 73.742 265.042 74.759C263.152 75.7489 261.017 76.2419 258.633 76.2419C255.903 76.2419 253.707 75.6014 252.05 74.3223C250.423 73.0433 249.61 71.314 249.61 69.1363V69.049C249.61 66.9276 250.437 65.2254 252.095 63.9483C253.779 62.6674 256.133 61.9415 259.157 61.7687L275.069 60.808V54.9233L258.284 55.8821C253.082 56.1732 249.043 57.4813 246.165 59.8065C243.289 62.1026 241.851 65.1827 241.851 69.049V69.1344C241.851 71.8671 242.476 74.2641 243.724 76.3273C245.004 78.3924 246.776 79.9897 249.042 81.1232C251.31 82.2566 253.94 82.8234 256.933 82.8234V82.8253ZM288.496 81.9519H296.081V53.9645C296.081 51.6684 296.473 49.7062 297.257 48.0797C298.072 46.4222 299.205 45.1587 300.657 44.2872C302.14 43.4139 303.856 42.9791 305.802 42.9791C306.732 42.9791 307.561 43.0218 308.287 43.1091C309.042 43.1965 309.566 43.2993 309.857 43.4158V36.0482C309.566 35.99 309.145 35.9318 308.592 35.8735C308 35.7807 307.402 35.7366 306.804 35.7416C304.248 35.7416 302.039 36.5121 300.178 38.0512C298.318 39.5923 297.01 41.6709 296.255 44.2872H296.081V36.613H288.496V81.9519ZM332.132 82.8253C335.504 82.8253 338.512 82.2566 341.158 81.1232C343.83 79.9606 345.922 78.3632 347.434 76.3292C348.975 74.2932 349.744 71.9545 349.744 69.309V69.2663C349.744 66.0406 348.814 63.4689 346.955 61.5494C345.096 59.6027 341.868 58.0752 337.278 56.9728L330.085 55.228C327.585 54.6185 325.782 53.7762 324.678 52.701C324.144 52.1981 323.721 51.5892 323.435 50.9134C323.15 50.2378 323.01 49.5098 323.022 48.7765V48.7338C323.022 47.3965 323.371 46.2339 324.068 45.246C324.794 44.229 325.827 43.4449 327.164 42.8918C328.499 42.3405 330.085 42.063 331.915 42.063C334.733 42.063 336.957 42.7326 338.584 44.0679C340.241 45.4071 341.216 47.1792 341.505 49.3859L341.55 49.6926H348.785L348.742 49.1259C348.597 46.6788 347.764 44.3222 346.344 42.325C344.95 40.291 343.017 38.6917 340.546 37.531C338.105 36.3374 335.228 35.7416 331.915 35.7416C328.66 35.7416 325.768 36.3083 323.239 37.4418C320.739 38.5752 318.779 40.1454 317.355 42.1503C315.959 44.1553 315.262 46.4669 315.262 49.0812V49.1259C315.262 52.3807 316.308 55.0397 318.401 57.1029C320.493 59.1369 323.676 60.6644 327.948 61.6814L335.141 63.4243C337.728 64.0648 339.516 64.878 340.503 65.8659C341.491 66.8538 341.984 68.162 341.984 69.7884V69.8331C341.984 71.1995 341.592 72.3912 340.808 73.4082C340.024 74.3961 338.904 75.1666 337.45 75.7178C335.999 76.2419 334.24 76.5019 332.177 76.5019C329.095 76.5019 326.698 75.877 324.984 74.629C323.268 73.348 322.18 71.576 321.714 69.311L321.626 68.8743H314.042L314.084 69.2663C314.404 71.968 315.305 74.3379 316.788 76.3719C318.3 78.4059 320.347 79.9897 322.935 81.1232C325.522 82.2566 328.586 82.8234 332.132 82.8234V82.8253ZM376.293 82.8253C378.764 82.8253 381.06 82.4895 383.181 81.8219C385.212 81.1703 387.125 80.1985 388.849 78.9436C390.446 77.7575 391.818 76.2964 392.903 74.629C393.961 73.0421 394.701 71.2651 395.083 69.3964L395.17 68.9616H387.715L387.583 69.3537C387.143 70.6721 386.395 71.8673 385.404 72.8414C384.387 73.8585 383.123 74.6562 381.611 75.2384C380.101 75.8207 378.386 76.1118 376.468 76.1118C373.735 76.1118 371.367 75.514 369.362 74.3223C367.357 73.1015 365.803 71.3586 364.696 69.0917C363.621 66.8247 363.084 64.0939 363.084 60.8953V57.9743C363.084 54.605 363.637 51.7693 364.741 49.4733C365.845 47.15 367.357 45.4052 369.275 44.2426C371.193 43.0509 373.359 42.457 375.771 42.457C378.182 42.457 380.319 43.0218 382.178 44.1553C384.039 45.2616 385.491 46.9598 386.537 49.2559C387.612 51.552 388.15 54.4574 388.15 57.9743V60.8953L391.987 55.4027H359.204V61.332H395.737V58.5411C395.737 54.0091 394.937 50.0264 393.338 46.5969C391.741 43.1674 389.445 40.5084 386.452 38.6199C383.486 36.7023 379.94 35.7416 375.814 35.7416C371.688 35.7416 368.097 36.745 365.046 38.7499C361.995 40.7257 359.627 43.5031 357.94 47.0763C356.256 50.6223 355.411 54.735 355.411 59.4145V59.4571C355.411 64.1929 356.24 68.3211 357.898 71.84C359.582 75.3258 361.979 78.0294 365.09 79.947C368.229 81.8646 371.963 82.8234 376.293 82.8234V82.8253Z" fill="black"/>
<path d="M408.073 82.5633C409.469 82.5633 410.645 82.082 411.604 81.1232C412.564 80.1644 413.044 78.9882 413.044 77.5908C413.044 76.1972 412.564 75.0211 411.604 74.0623C410.645 73.1015 409.469 72.6221 408.073 72.6221C406.678 72.6221 405.502 73.1015 404.543 74.0623C403.584 75.0211 403.105 76.1972 403.105 77.5927C403.105 78.9882 403.584 80.1644 404.543 81.1251C405.502 82.082 406.678 82.5614 408.073 82.5614V82.5633Z" fill="black"/>
</svg>
