<svg width="500" height="100" viewBox="0 0 500 100" fill="none" xmlns="http://www.w3.org/2000/svg">
<g clip-path="url(#clip0_1743_2961)">
<path d="M207.739 64.0807V33.8465H217.937C220.816 33.7674 223.661 34.4926 226.155 35.9412C228.377 37.2611 230.182 39.1853 231.361 41.4914C232.521 43.8101 233.125 46.3689 233.125 48.9636C233.125 51.5583 232.521 54.117 231.361 56.4358C230.182 58.7421 228.377 60.6663 226.155 61.9859C223.662 63.4348 220.816 64.1601 217.937 64.0807H207.739ZM217.506 59.6322C219.572 59.7068 221.617 59.19 223.401 58.1421C224.924 57.2095 226.143 55.851 226.908 54.2333C227.659 52.579 228.048 50.782 228.048 48.9639C228.048 47.1457 227.659 45.3488 226.908 43.6945C226.143 42.0768 224.924 40.7183 223.401 39.7856C221.617 38.7377 219.572 38.2209 217.506 38.2955H212.687V59.6322H217.506Z" fill="black"/>
<path d="M236.008 40.0445C235.372 39.3749 235.018 38.4856 235.018 37.5609C235.018 36.6363 235.372 35.747 236.008 35.0774C236.677 34.4265 237.572 34.0624 238.503 34.0624C239.435 34.0624 240.33 34.4265 240.999 35.0774C241.634 35.747 241.988 36.6363 241.988 37.5609C241.988 38.4856 241.634 39.3749 240.999 40.0445C240.33 40.6954 239.435 41.0595 238.503 41.0595C237.572 41.0595 236.677 40.6954 236.008 40.0445ZM240.827 64.0807H236.18V43.9533H240.827V64.0807Z" fill="black"/>
<path d="M245.602 64.0807V43.9533H250.292V46.7608C250.77 45.7606 251.534 44.9261 252.486 44.3636C253.51 43.7391 254.688 43.4173 255.885 43.435C259.069 43.435 261.178 44.63 262.21 47.0199C262.738 45.9398 263.578 45.0443 264.62 44.45C265.75 43.7704 267.046 43.419 268.363 43.435C273.182 43.435 275.592 46.0697 275.592 51.3391V64.0807H270.902V52.2461C270.902 50.6048 270.586 49.3955 269.955 48.618C269.611 48.2197 269.179 47.9071 268.694 47.7048C268.208 47.5024 267.683 47.4158 267.159 47.4519C266.577 47.4219 265.995 47.525 265.459 47.7531C264.922 47.9813 264.444 48.3287 264.061 48.7692C263.314 49.6478 262.941 51.1956 262.942 53.4123V64.0807H258.252V52.2032C258.252 50.5619 257.951 49.3598 257.348 48.5967C257.011 48.2025 256.586 47.8935 256.108 47.6947C255.629 47.4959 255.111 47.4128 254.595 47.4521C254.003 47.4207 253.412 47.5227 252.865 47.7507C252.317 47.9787 251.828 48.3268 251.432 48.7694C250.672 49.6481 250.292 51.1958 250.292 53.4126V64.0807H245.602Z" fill="black"/>
<path d="M298.18 55.5719H283.293C283.278 56.2558 283.409 56.935 283.676 57.5643C283.943 58.1936 284.34 58.7586 284.842 59.2216C285.989 60.1289 287.428 60.5823 288.887 60.4958C289.85 60.5346 290.809 60.3421 291.683 59.9343C292.41 59.5501 292.997 58.9455 293.361 58.2066H298.094C297.932 59.1419 297.579 60.0335 297.057 60.8251C296.535 61.6168 295.855 62.2914 295.061 62.8065C293.239 64.036 291.081 64.6627 288.887 64.599C285.731 64.599 283.235 63.6488 281.4 61.7483C279.564 59.8479 278.646 57.2708 278.646 54.017C278.602 52.0784 279.03 50.1583 279.894 48.4237C280.682 46.8708 281.91 45.5862 283.422 44.7308C285.043 43.8416 286.868 43.3948 288.714 43.435C290.461 43.3993 292.187 43.8158 293.727 44.6444C295.148 45.4236 296.319 46.5919 297.105 48.0134C297.928 49.5363 298.343 51.2479 298.31 52.9804C298.31 53.5851 298.266 54.4489 298.18 55.5719ZM293.706 51.987C293.734 51.3283 293.629 50.6707 293.396 50.0543C293.163 49.4378 292.807 48.8757 292.35 48.4021C291.321 47.5117 289.984 47.062 288.628 47.1495C287.213 47.0714 285.823 47.5519 284.756 48.4885C284.284 48.9381 283.91 49.4813 283.658 50.0835C283.407 50.6858 283.282 51.334 283.293 51.987H293.706Z" fill="black"/>
<path d="M301.579 64.0807V43.9533H306.269V46.7608C306.891 45.7045 307.802 44.8498 308.894 44.2989C310.111 43.7006 311.454 43.4043 312.809 43.435C315.219 43.435 317.04 44.1117 318.274 45.465C319.507 46.8184 320.124 48.8052 320.124 51.4255V64.0807H315.434V53.5854C315.434 51.3974 315.104 49.8281 314.444 48.8775C313.785 47.9268 312.652 47.4517 311.045 47.4521C310.387 47.4135 309.728 47.5233 309.118 47.7737C308.507 48.0241 307.96 48.4086 307.517 48.899C306.616 50.0763 306.172 51.5424 306.269 53.0239V64.081L301.579 64.0807Z" fill="black"/>
<path d="M327.331 63.7351C326.115 63.2297 325.059 62.401 324.276 61.338C323.553 60.3413 323.168 59.1374 323.179 57.9043H327.869C327.866 58.3248 327.97 58.7393 328.169 59.1092C328.368 59.4792 328.657 59.7927 329.009 60.0206C329.881 60.6004 330.912 60.8877 331.957 60.8413C332.714 60.8834 333.461 60.6538 334.065 60.1934C334.318 59.9847 334.519 59.7202 334.654 59.4205C334.788 59.1209 334.852 58.7941 334.84 58.4657C334.852 58.2005 334.811 57.9355 334.719 57.6868C334.626 57.438 334.484 57.2107 334.302 57.0188C333.693 56.5406 332.976 56.2216 332.215 56.0902L328.213 55.0104C326.936 54.6903 325.796 53.9628 324.965 52.9372C324.188 51.9081 323.786 50.6429 323.825 49.3523C323.816 48.2562 324.163 47.1871 324.814 46.3072C325.522 45.3624 326.475 44.6305 327.568 44.1908C328.823 43.6718 330.17 43.4146 331.526 43.435C333.993 43.435 335.929 43.9965 337.335 45.1195C338.022 45.6607 338.572 46.358 338.938 47.1539C339.305 47.9498 339.478 48.8217 339.443 49.6978H334.84C334.855 49.3196 334.779 48.9432 334.618 48.6009C334.457 48.2586 334.215 47.9606 333.914 47.7326C333.163 47.2175 332.263 46.9669 331.354 47.0199C330.622 46.9909 329.899 47.195 329.289 47.603C329.038 47.7618 328.832 47.9818 328.689 48.2424C328.546 48.503 328.471 48.7957 328.472 49.0931C328.466 49.3515 328.515 49.6081 328.615 49.8462C328.716 50.0843 328.864 50.2987 329.052 50.4753C329.608 50.9371 330.264 51.2624 330.967 51.4255L334.969 52.5917C336.293 52.9262 337.481 53.6658 338.368 54.7081C339.311 55.9272 339.746 57.4661 339.581 59.0008C339.417 60.5355 338.666 61.9463 337.486 62.9361C336.066 64.0449 334.137 64.5992 331.699 64.599C330.199 64.6203 328.711 64.326 327.331 63.7351Z" fill="black"/>
<path d="M342.928 40.0445C342.292 39.3749 341.938 38.4856 341.938 37.5609C341.938 36.6363 342.292 35.747 342.928 35.0774C343.596 34.4265 344.491 34.0624 345.423 34.0624C346.355 34.0624 347.25 34.4265 347.919 35.0774C348.554 35.747 348.908 36.6363 348.908 37.5609C348.908 38.4856 348.554 39.3749 347.919 40.0445C347.25 40.6954 346.355 41.0595 345.423 41.0595C344.491 41.0595 343.596 40.6954 342.928 40.0445ZM347.747 64.0807H343.1V43.9533H347.747V64.0807Z" fill="black"/>
<path d="M355.964 63.2169C354.396 62.3357 353.118 61.0149 352.285 59.416C351.451 57.7396 351.016 55.8912 351.016 54.017C351.016 52.1429 351.451 50.2945 352.285 48.6181C353.118 47.0194 354.396 45.6987 355.964 44.8172C357.705 43.9091 359.639 43.4351 361.601 43.4351C363.563 43.4351 365.496 43.9091 367.237 44.8172C368.805 45.6991 370.083 47.0197 370.916 48.6181C371.751 50.2945 372.185 52.1429 372.185 54.017C372.185 55.8912 371.751 57.7396 370.916 59.416C370.083 61.0146 368.805 62.3353 367.237 63.2169C365.496 64.1249 363.563 64.599 361.601 64.599C359.639 64.599 357.705 64.1249 355.964 63.2169ZM365.925 58.6385C367.01 57.3516 367.571 55.7011 367.495 54.017C367.57 52.333 367.01 50.6825 365.925 49.3955C364.77 48.2604 363.217 47.6248 361.601 47.6248C359.984 47.6248 358.432 48.2604 357.276 49.3955C356.191 50.6823 355.631 52.3329 355.706 54.017C355.63 55.7012 356.191 57.3518 357.276 58.6385C358.432 59.7736 359.984 60.4093 361.601 60.4093C363.217 60.4093 364.77 59.7736 365.925 58.6385Z" fill="black"/>
<path d="M375.455 64.0807V43.9533H380.145V46.7608C380.767 45.7045 381.678 44.8498 382.77 44.2989C383.987 43.7006 385.33 43.4043 386.685 43.435C389.095 43.435 390.916 44.1117 392.15 45.465C393.383 46.8184 394 48.8052 394 51.4255V64.0807H389.31V53.5854C389.31 51.3974 388.98 49.8281 388.32 48.8775C387.661 47.9268 386.528 47.4517 384.921 47.4521C384.263 47.4135 383.604 47.5233 382.994 47.7737C382.383 48.0241 381.836 48.4086 381.393 48.899C380.492 50.0763 380.049 51.5424 380.145 53.0239V64.081L375.455 64.0807Z" fill="black"/>
<path fill-rule="evenodd" clip-rule="evenodd" d="M154.578 12.4899C157.486 14.7991 159.832 17.7443 161.435 21.1012C163.038 24.458 163.857 28.1379 163.829 31.8605V66.3563C163.807 70.1902 162.97 73.9753 161.375 77.4588C159.78 80.9423 157.462 84.044 154.578 86.5569C158.874 85.132 162.618 82.394 165.287 78.7264C167.955 75.0588 169.414 70.6452 169.46 66.1037V31.6077C169.501 27.2006 168.051 22.9099 165.348 19.4372C162.645 15.9644 158.848 13.5152 154.578 12.4899ZM158.683 32.0911V66.5872C158.63 72.1121 156.481 77.409 152.675 81.4004C148.869 85.3917 143.692 87.7775 138.195 88.0725C135.544 88.2176 132.892 87.8157 130.401 86.8916C127.911 85.9676 125.635 84.5411 123.716 82.7C121.796 80.8589 120.272 78.6425 119.239 76.1873C118.205 73.7322 117.684 71.0906 117.708 68.4254V33.9292C117.761 28.4043 119.909 23.1074 123.715 19.1162C127.521 15.1249 132.699 12.7391 138.195 12.4443C140.846 12.2992 143.499 12.7011 145.99 13.6251C148.48 14.5491 150.755 15.9756 152.675 17.8167C154.595 19.6577 156.119 21.8742 157.152 24.3293C158.185 26.7844 158.706 29.426 158.683 32.0911ZM138.195 7.27852L150.286 6.73603V6.7692C153.497 6.76571 156.677 7.40125 159.642 8.63908C162.607 9.87692 165.298 11.6925 167.559 13.9808C169.821 16.2691 171.608 18.9847 172.817 21.9707C174.027 24.9566 174.635 28.1536 174.606 31.3768V65.8729C174.539 72.5577 172.023 78.9839 167.537 83.9252C163.052 88.8664 156.911 91.9766 150.286 92.6624V92.6957L138.195 93.238C134.878 93.4195 131.559 92.9167 128.444 91.7605C125.328 90.6044 122.481 88.8195 120.079 86.5161C117.677 84.2126 115.77 81.4394 114.478 78.3676C113.185 75.2958 112.533 71.9907 112.562 68.6561V34.1601C112.628 27.2475 115.316 20.6201 120.078 15.6262C124.84 10.6324 131.319 7.64741 138.195 7.27852ZM181.167 32.1117C181.219 27.7397 180.371 23.4041 178.675 19.3766C176.98 15.3491 174.474 11.7164 171.315 8.70627C168.156 5.69613 164.412 3.37338 160.317 1.88355C156.222 0.393731 151.865 -0.23105 147.518 0.0483622L138.918 0.508821C120.753 1.48115 106 17.1124 106 35.3993V67.8884C105.948 72.2604 106.797 76.5959 108.492 80.6234C110.187 84.6508 112.693 88.2834 115.852 91.2935C119.011 94.3036 122.755 96.6263 126.85 98.1161C130.945 99.6059 135.303 100.231 139.649 99.9513L148.249 99.491C166.415 98.5186 181.167 82.8875 181.167 64.601L181.167 32.1117Z" fill="black"/>
</g>
<defs>
<clipPath id="clip0_1743_2961">
<rect width="288" height="100" fill="white" transform="translate(106)"/>
</clipPath>
</defs>
</svg>
