<svg width="500" height="100" viewBox="0 0 500 100" version="1.1" xmlns="http://www.w3.org/2000/svg" xmlns:xlink="http://www.w3.org/1999/xlink" xml:space="preserve" xmlns:serif="http://www.serif.com/" style="fill-rule:evenodd;clip-rule:evenodd;stroke-linejoin:round;stroke-miterlimit:2;">
    <g transform="matrix(1.21681,0,0,1.21681,-1937.08,-991.923)">
        <path d="M1727.22,874.686L1738.21,874.686L1738.08,867.257L1743.08,861.507L1750.58,874.686L1762.96,874.686L1750.46,853.882L1762.27,840.069L1750.39,840.069L1738.04,854.816L1738.23,830.944L1727.22,830.944L1727.22,874.686Z" style="fill:white;fill-rule:nonzero;"/>
        <path d="M1778.21,875.624C1787.58,875.624 1793.96,870.379 1795.58,861.564L1785.08,861.564C1784.14,866.067 1781.77,868.132 1778.33,868.132C1774.02,868.132 1771.33,865.004 1771.02,858.561L1795.89,858.561L1795.89,857.812C1795.89,845.812 1788.33,839.132 1778.27,839.132C1767.58,839.132 1760.21,846.124 1760.21,857.375C1760.21,868.694 1767.46,875.624 1778.21,875.624ZM1778.21,846.436C1781.52,846.436 1783.89,848.626 1784.96,853.007L1771.39,853.007C1772.33,848.626 1774.71,846.436 1778.21,846.436Z" style="fill:white;fill-rule:nonzero;"/>
        <path d="M1799.34,886.124L1807.09,886.124C1812.52,886.124 1816.15,883.626 1818.27,878.444L1832.83,840.069L1821.77,840.069L1814.15,862.444L1806.09,840.069L1794.4,840.069L1808.46,876.319C1807.65,877.819 1806.46,878.507 1804.46,878.507L1799.34,878.507L1799.34,886.124Z" style="fill:white;fill-rule:nonzero;"/>
        <path d="M1846.46,874.686C1850.96,874.686 1854.65,872.813 1857.15,869.317L1857.15,874.124C1857.15,878.357 1854.4,880.382 1850.09,880.382C1846.08,880.382 1843.96,879.053 1843.14,876.332L1832.28,876.332C1833.77,883.066 1840.33,886.811 1850.09,886.811C1861.4,886.811 1868.27,882.067 1868.27,872.501L1868.27,840.069L1857.15,840.069L1857.15,844.751C1854.65,841.255 1850.96,839.319 1846.46,839.319C1837.33,839.319 1831.34,846.187 1831.34,857.034C1831.34,867.943 1837.27,874.686 1846.46,874.686ZM1849.71,867.257C1845.14,867.257 1842.33,863.891 1842.33,857.034C1842.33,850.115 1845.14,846.811 1849.71,846.811C1854.4,846.811 1857.21,850.115 1857.21,857.034C1857.21,863.891 1854.4,867.257 1849.71,867.257Z" style="fill:white;fill-rule:nonzero;"/>
        <path d="M1889.08,875.624C1898.46,875.624 1904.83,870.379 1906.46,861.564L1895.96,861.564C1895.02,866.067 1892.64,868.132 1889.21,868.132C1884.89,868.132 1882.21,865.004 1881.89,858.561L1906.77,858.561L1906.77,857.812C1906.77,845.812 1899.21,839.132 1889.14,839.132C1878.46,839.132 1871.09,846.124 1871.09,857.375C1871.09,868.694 1878.33,875.624 1889.08,875.624ZM1889.08,846.436C1892.39,846.436 1894.77,848.626 1895.83,853.007L1882.27,853.007C1883.21,848.626 1885.58,846.436 1889.08,846.436Z" style="fill:white;fill-rule:nonzero;"/>
        <path d="M1909.53,874.686L1920.64,874.686L1920.64,849.811C1921.96,848.124 1924.02,847.124 1926.46,847.124C1929.71,847.124 1931.96,848.999 1931.96,852.624L1931.96,874.686L1943.08,874.686L1943.08,850.999C1943.08,843.877 1938.21,839.319 1930.84,839.319C1926.59,839.319 1923.08,841.067 1920.64,843.877L1920.64,840.069L1909.53,840.069L1909.53,874.686Z" style="fill:white;fill-rule:nonzero;"/>
        <g transform="matrix(0.20092,0,0,0.20092,1419.89,714.643)">
            <circle cx="1198.72" cy="777.527" r="44.914" style="fill:rgb(0,255,146);"/>
        </g>
        <g transform="matrix(0.20092,0,0,0.20092,1455.99,678.546)">
            <circle cx="1198.72" cy="777.527" r="44.914" style="fill:rgb(0,255,146);"/>
        </g>
        <g transform="matrix(0.240644,0,0,0.240644,1448.8,678.4)">
            <path d="M955.708,762.285C935.011,762.285 918.208,745.482 918.208,724.785C918.208,704.088 935.011,687.285 955.708,687.285C976.405,687.285 993.208,704.088 993.208,724.785C993.208,745.482 1010.01,762.285 1030.71,762.285C1051.4,762.285 1068.21,779.088 1068.21,799.785C1068.21,820.482 1051.4,837.285 1030.71,837.285C1010.01,837.285 993.208,820.482 993.208,799.785C993.208,779.088 976.405,762.285 955.708,762.285Z" style="fill:rgb(0,255,146);"/>
        </g>
    </g>
</svg>
