<svg width="500" height="100" viewBox="0 0 500 100" fill="none" xmlns="http://www.w3.org/2000/svg">
<path d="M140.658 1L199.316 25.2593L195.51 79.8636L160.673 99.9798L105 65.2121L140.66 1H140.658ZM118.49 61.7273L160.877 88.197L185.806 73.803L188.734 31.8148L145.118 13.7761L118.49 61.7273Z" fill="black"/>
<path fill-rule="evenodd" clip-rule="evenodd" d="M227.847 52.1229C228.603 51.2394 229.34 50.3402 230.059 49.4259C230.806 48.4764 231.534 47.4966 232.241 46.4865C232.948 45.4764 233.624 44.4966 234.271 43.5471C234.917 42.5976 235.483 41.6987 235.968 40.8502H244.938C244.13 41.8773 243.302 42.8875 242.453 43.8805C241.523 44.9714 240.564 46.0825 239.574 47.2138C238.604 48.3229 237.614 49.414 236.604 50.4865C235.614 51.537 234.715 52.5067 233.907 53.3956C234.917 54.3653 236.008 55.5269 237.18 56.8805C238.352 58.234 239.503 59.6381 240.635 61.0926C241.766 62.5471 242.806 64.0017 243.756 65.4562C244.586 66.7054 245.344 68.0005 246.029 69.335H237.483C236.998 68.3249 236.362 67.1835 235.574 65.9108C234.786 64.6381 233.948 63.3855 233.059 62.1532C232.196 60.9544 231.296 59.7822 230.362 58.6381C229.582 57.6675 228.741 56.7465 227.847 55.8805V69.335H220.332V28.5471L227.847 27.2744V52.1229ZM248.695 55.335C248.695 52.83 249.079 50.6279 249.847 48.729C250.614 46.83 251.624 45.2441 252.877 43.9714C254.095 42.7219 255.561 41.7412 257.18 41.0926C258.759 40.4534 260.446 40.1241 262.15 40.1229C266.352 40.1229 269.544 41.3653 271.725 43.8502C273.907 46.335 274.998 49.9613 274.998 54.729C274.998 55.2138 274.988 55.7189 274.968 56.2441C274.948 56.7694 274.917 57.1936 274.877 57.5168H256.392C256.392 59.3754 257.16 60.8401 258.695 61.9108C260.231 62.9815 262.21 63.5168 264.635 63.5168C266.13 63.5168 267.554 63.3552 268.907 63.032C270.064 62.765 271.207 62.4414 272.332 62.0623L273.362 68.4259C272.069 68.8704 270.695 69.2441 269.241 69.5471C267.786 69.8502 266.15 70.0017 264.332 70.0017C261.907 70.0017 259.736 69.6886 257.816 69.0623C255.897 68.436 254.261 67.5067 252.907 66.2744C251.554 65.0421 250.513 63.5168 249.786 61.6987C249.059 59.8805 248.695 57.7593 248.695 55.335ZM267.786 52.3653C267.786 51.5976 267.685 50.8603 267.483 50.1532C267.288 49.4596 266.958 48.8109 266.513 48.2441C266.057 47.6685 265.477 47.2025 264.816 46.8805C264.13 46.537 263.281 46.3653 262.271 46.3653C261.301 46.3653 260.463 46.5269 259.756 46.8502C259.049 47.1734 258.463 47.6178 257.998 48.1835C257.534 48.7492 257.17 49.3956 256.907 50.1229C256.646 50.8468 256.472 51.5998 256.392 52.3653H267.786ZM305.725 40.8502C304.973 43.4621 304.236 46.0783 303.513 48.6987C302.806 51.2643 302.069 53.7694 301.301 56.2138C300.544 58.6281 299.725 61.0227 298.847 63.3956C297.99 65.7115 297.049 67.9956 296.029 70.2441C295.261 71.8603 294.503 73.2542 293.756 74.4259C293.008 75.5976 292.18 76.5572 291.271 77.3047C290.362 78.0522 289.352 78.6077 288.241 78.9714C287.13 79.335 285.826 79.5168 284.332 79.5168C283.183 79.5263 282.037 79.4248 280.907 79.2138C279.877 79.0118 279.018 78.7492 278.332 78.4259L279.725 72.1835C280.534 72.5471 281.251 72.7997 281.877 72.9411C282.544 73.0869 283.225 73.1579 283.907 73.1532C285.362 73.1532 286.534 72.6684 287.422 71.6987C288.337 70.6879 289.055 69.5167 289.544 68.2441C287.766 64.6886 285.988 60.6179 284.21 56.032C282.433 51.4461 280.816 46.3855 279.362 40.8502H287.119C287.931 44.1692 288.84 47.4636 289.847 50.729C290.365 52.4076 290.921 54.0746 291.513 55.729C292.062 57.2721 292.658 58.798 293.301 60.3047C293.705 58.8906 294.13 57.3653 294.574 55.729C295.018 54.0926 295.443 52.436 295.847 50.7593C296.64 47.4667 297.387 44.1633 298.089 40.8502H305.725ZM316.998 54.1835C316.998 56.5269 317.422 58.3148 318.271 59.5471C319.119 60.7795 320.453 61.3956 322.271 61.3956C323.079 61.3956 323.837 61.2946 324.544 61.0926C325.251 60.8906 325.887 60.6279 326.453 60.3047V46.6077C325.953 46.497 325.448 46.416 324.938 46.3653C324.475 46.3241 324.008 46.3039 323.544 46.3047C319.18 46.3047 316.998 48.931 316.998 54.1835ZM333.968 65.8805C333.968 70.5269 332.847 73.9613 330.604 76.1835C328.362 78.4057 324.756 79.5168 319.786 79.5168C318.008 79.5168 316.301 79.335 314.665 78.9714C313.081 78.6217 311.513 78.197 309.968 77.6987L311.362 71.3956C312.534 71.8401 313.766 72.2542 315.059 72.638C316.352 73.0219 317.968 73.2138 319.907 73.2138C321.2 73.2138 322.271 73.0623 323.119 72.7593C323.968 72.4562 324.635 72.0421 325.119 71.5168C325.604 70.9911 325.958 70.3574 326.15 69.6684C326.352 68.9613 326.453 68.2037 326.453 67.3956V66.2441C325.402 66.6482 324.443 66.9512 323.574 67.1532C322.705 67.3552 321.766 67.4562 320.756 67.4562C317.039 67.4562 314.22 66.2845 312.301 63.9411C310.382 61.5976 309.422 58.3451 309.422 54.1835C309.422 49.4966 310.715 46.0017 313.301 43.6987C315.887 41.3956 319.402 40.2441 323.847 40.2441C326.958 40.2441 330.332 40.7492 333.968 41.7593V65.8805ZM339.604 55.335C339.604 52.83 339.988 50.6279 340.756 48.729C341.523 46.83 342.534 45.2441 343.786 43.9714C345.003 42.7219 346.47 41.7412 348.089 41.0926C349.668 40.4534 351.355 40.1241 353.059 40.1229C357.261 40.1229 360.453 41.3653 362.635 43.8502C364.816 46.335 365.907 49.9613 365.907 54.729C365.907 55.2138 365.897 55.7189 365.877 56.2441C365.857 56.7694 365.826 57.1936 365.786 57.5168H347.301C347.301 59.3754 348.069 60.8401 349.604 61.9108C351.14 62.9815 353.119 63.5168 355.544 63.5168C357.039 63.5168 358.463 63.3552 359.816 63.032C360.973 62.765 362.116 62.4414 363.241 62.0623L364.271 68.4259C362.978 68.8704 361.604 69.2441 360.15 69.5471C358.695 69.8502 357.059 70.0017 355.241 70.0017C352.816 70.0017 350.645 69.6886 348.726 69.0623C346.806 68.436 345.17 67.5067 343.816 66.2744C342.463 65.0421 341.422 63.5168 340.695 61.6987C339.968 59.8805 339.604 57.7593 339.604 55.335ZM358.695 52.3653C358.695 51.5976 358.594 50.8603 358.392 50.1532C358.197 49.4596 357.867 48.8109 357.422 48.2441C356.966 47.6685 356.385 47.2025 355.725 46.8805C355.039 46.537 354.19 46.3653 353.18 46.3653C352.21 46.3653 351.372 46.5269 350.665 46.8502C349.958 47.1734 349.372 47.6178 348.907 48.1835C348.443 48.7492 348.079 49.3956 347.816 50.1229C347.554 50.8468 347.382 51.5998 347.301 52.3653H358.695ZM371.847 41.7593C373.18 41.3956 374.827 41.0522 376.786 40.729C378.901 40.3938 381.039 40.2317 383.18 40.2441C385.443 40.2441 387.321 40.5572 388.816 41.1835C390.311 41.8098 391.493 42.6987 392.362 43.8502C393.231 45.0017 393.847 46.3754 394.21 47.9714C394.574 49.5673 394.756 51.335 394.756 53.2744V69.335H387.301V54.2441C387.301 51.5774 386.998 49.6583 386.392 48.4865C385.786 47.3148 384.554 46.729 382.695 46.729C382.14 46.7286 381.582 46.7488 381.029 46.7896C380.483 46.83 379.907 46.8906 379.301 46.9714V69.335H371.847V41.7593Z" fill="black"/>
</svg>
