<svg width="173" height="60" fill="none" xmlns="http://www.w3.org/2000/svg"><path d="m21.674.393 34.843 14.41-2.261 32.435-20.693 11.949L.493 38.535 21.675.393ZM8.506 36.465l25.178 15.723 14.808-8.55 1.739-24.941L24.323 7.982 8.506 36.465Z" fill="#04FA9B"/><path fill-rule="evenodd" clip-rule="evenodd" d="M73.464 30.76a49.72 49.72 0 0 0 1.314-1.602c.444-.564.876-1.146 1.296-1.746.42-.6.822-1.182 1.206-1.746.384-.564.72-1.098 1.008-1.602h5.328a56.457 56.457 0 0 1-1.476 1.8c-.552.648-1.122 1.308-1.71 1.98a71.21 71.21 0 0 1-1.764 1.944c-.588.624-1.122 1.2-1.602 1.728.6.576 1.248 1.266 1.944 2.07.696.804 1.38 1.638 2.052 2.502.672.864 1.29 1.728 1.854 2.592a23.723 23.723 0 0 1 1.35 2.304h-5.076c-.288-.6-.666-1.278-1.134-2.034-.468-.756-.966-1.5-1.494-2.232a43.278 43.278 0 0 0-1.602-2.088 17.803 17.803 0 0 0-1.494-1.638v7.992H69V16.756L73.464 16v14.76Zm12.384 1.908c0-1.488.228-2.796.684-3.924.456-1.128 1.056-2.07 1.8-2.826a7.423 7.423 0 0 1 2.556-1.71 7.882 7.882 0 0 1 2.952-.576c2.496 0 4.392.738 5.688 2.214 1.296 1.476 1.944 3.63 1.944 6.462 0 .288-.006.588-.018.9-.012.312-.03.564-.054.756H90.42c0 1.104.456 1.974 1.368 2.61.912.636 2.088.954 3.528.954.888 0 1.734-.096 2.538-.288a21.548 21.548 0 0 0 2.034-.576l.612 3.78c-.768.264-1.584.486-2.448.666-.864.18-1.836.27-2.916.27-1.44 0-2.73-.186-3.87-.558-1.14-.372-2.112-.924-2.916-1.656-.804-.732-1.422-1.638-1.854-2.718-.432-1.08-.648-2.34-.648-3.78Zm11.34-1.764c0-.456-.06-.894-.18-1.314a3.271 3.271 0 0 0-.576-1.134 2.922 2.922 0 0 0-1.008-.81c-.408-.204-.912-.306-1.512-.306-.576 0-1.074.096-1.494.288-.42.192-.768.456-1.044.792s-.492.72-.648 1.152a5.649 5.649 0 0 0-.306 1.332h6.768Zm22.536-6.84a425.598 425.598 0 0 0-1.314 4.662c-.42 1.524-.858 3.012-1.314 4.464a88.943 88.943 0 0 1-1.458 4.266 61.403 61.403 0 0 1-1.674 4.068c-.456.96-.906 1.788-1.35 2.484-.444.696-.936 1.266-1.476 1.71-.54.444-1.14.774-1.8.99-.66.216-1.434.324-2.322.324a10.6 10.6 0 0 1-2.034-.18c-.612-.12-1.122-.276-1.53-.468l.828-3.708c.48.216.906.366 1.278.45a5.47 5.47 0 0 0 1.206.126c.864 0 1.56-.288 2.088-.864a6.558 6.558 0 0 0 1.26-2.052c-1.056-2.112-2.112-4.53-3.168-7.254-1.056-2.724-2.016-5.73-2.88-9.018h4.608a102.9 102.9 0 0 0 1.62 5.868 71.75 71.75 0 0 0 .99 2.97 47.9 47.9 0 0 0 1.062 2.718c.24-.84.492-1.746.756-2.718s.516-1.956.756-2.952a220.354 220.354 0 0 0 1.332-5.886h4.536Zm6.696 7.92c0 1.392.252 2.454.756 3.186.504.732 1.296 1.098 2.376 1.098.48 0 .93-.06 1.35-.18.42-.12.798-.276 1.134-.468v-8.136a7.662 7.662 0 0 0-.9-.144 9.152 9.152 0 0 0-.828-.036c-2.592 0-3.888 1.56-3.888 4.68Zm10.08 6.948c0 2.76-.666 4.8-1.998 6.12-1.332 1.32-3.474 1.98-6.426 1.98-1.056 0-2.07-.108-3.042-.324a30.461 30.461 0 0 1-2.79-.756l.828-3.744c.696.264 1.428.51 2.196.738.768.228 1.728.342 2.88.342.768 0 1.404-.09 1.908-.27.504-.18.9-.426 1.188-.738a2.68 2.68 0 0 0 .612-1.098c.12-.42.18-.87.18-1.35v-.684c-.624.24-1.194.42-1.71.54-.516.12-1.074.18-1.674.18-2.208 0-3.882-.696-5.022-2.088-1.14-1.392-1.71-3.324-1.71-5.796 0-2.784.768-4.86 2.304-6.228 1.536-1.368 3.624-2.052 6.264-2.052 1.848 0 3.852.3 6.012.9v14.328Zm3.348-6.264c0-1.488.228-2.796.684-3.924.456-1.128 1.056-2.07 1.8-2.826a7.423 7.423 0 0 1 2.556-1.71 7.882 7.882 0 0 1 2.952-.576c2.496 0 4.392.738 5.688 2.214 1.296 1.476 1.944 3.63 1.944 6.462 0 .288-.006.588-.018.9-.012.312-.03.564-.054.756h-10.98c0 1.104.456 1.974 1.368 2.61.912.636 2.088.954 3.528.954.888 0 1.734-.096 2.538-.288a21.548 21.548 0 0 0 2.034-.576l.612 3.78c-.768.264-1.584.486-2.448.666-.864.18-1.836.27-2.916.27-1.44 0-2.73-.186-3.87-.558-1.14-.372-2.112-.924-2.916-1.656-.804-.732-1.422-1.638-1.854-2.718-.432-1.08-.648-2.34-.648-3.78Zm11.34-1.764c0-.456-.06-.894-.18-1.314a3.271 3.271 0 0 0-.576-1.134 2.922 2.922 0 0 0-1.008-.81c-.408-.204-.912-.306-1.512-.306-.576 0-1.074.096-1.494.288-.42.192-.768.456-1.044.792s-.492.72-.648 1.152a5.649 5.649 0 0 0-.306 1.332h6.768Zm7.812-6.3c.792-.216 1.77-.42 2.934-.612a23.383 23.383 0 0 1 3.798-.288c1.344 0 2.46.186 3.348.558.888.372 1.59.9 2.106 1.584.516.684.882 1.5 1.098 2.448.216.948.324 1.998.324 3.15v9.54h-4.428V32.02c0-1.584-.18-2.724-.54-3.42-.36-.696-1.092-1.044-2.196-1.044a13.4 13.4 0 0 0-.99.036c-.324.024-.666.06-1.026.108v13.284H159v-16.38Z" fill="#fff"/></svg>