<svg viewBox="0 0 481.08 235.94" xmlns="http://www.w3.org/2000/svg"><path d="m286.8 157.94v38.53h-247.95v-157h247.95v37.02" fill="none" stroke="#fff" stroke-miterlimit="10" stroke-width="8.4"/><g fill="#fff"><path d="m96.74 133.68h20.65v6.88h-29.18v-44.08h8.53z"/><path d="m140.41 141.16a18.23 18.23 0 0 1 -6.87-1.24 16.25 16.25 0 0 1 -5.3-3.38 14.59 14.59 0 0 1 -3.4-5 16 16 0 0 1 -1.2-6.19v-1.21a19.11 19.11 0 0 1 1.18-6.86 15.93 15.93 0 0 1 3.3-5.34 14.65 14.65 0 0 1 5-3.48 15.84 15.84 0 0 1 6.32-1.25 16.11 16.11 0 0 1 6.32 1.17 13.2 13.2 0 0 1 4.69 3.28 14.36 14.36 0 0 1 2.92 5.11 20.46 20.46 0 0 1 1 6.58v3.57h-22.19a9.12 9.12 0 0 0 1 3 8.32 8.32 0 0 0 4.53 3.93 9.41 9.41 0 0 0 3.24.54 12.74 12.74 0 0 0 2.46-.24 12.29 12.29 0 0 0 2.35-.71 10.67 10.67 0 0 0 2.09-1.17 8.17 8.17 0 0 0 1.69-1.63l4.21 4.54a11.75 11.75 0 0 1 -2 2.19 14 14 0 0 1 -3 1.91 19.71 19.71 0 0 1 -3.8 1.35 18.93 18.93 0 0 1 -4.54.53zm-1-27.15a6.52 6.52 0 0 0 -2.6.5 6.06 6.06 0 0 0 -2.07 1.43 8.29 8.29 0 0 0 -1.5 2.24 12 12 0 0 0 -.91 2.91h13.8v-.67a8.07 8.07 0 0 0 -.51-2.51 5.84 5.84 0 0 0 -1.3-2 6 6 0 0 0 -2.08-1.36 7.3 7.3 0 0 0 -2.83-.55z"/><path d="m168.73 107.8.52 4.54a12.48 12.48 0 0 1 4.27-3.8 11.56 11.56 0 0 1 5.57-1.35 13.68 13.68 0 0 1 4.54.73 9 9 0 0 1 3.56 2.32 11.07 11.07 0 0 1 2.33 4.08 19.52 19.52 0 0 1 .83 6.07v20.17h-8.42v-20a9.62 9.62 0 0 0 -.44-3.19 4.59 4.59 0 0 0 -1.25-2 4.64 4.64 0 0 0 -2-1 10.85 10.85 0 0 0 -2.6-.28 7.25 7.25 0 0 0 -3.67.86 6.81 6.81 0 0 0 -2.45 2.38v23.28h-8.42v-32.81z"/><path d="m199.93 107.8h17.83v25.91h8.87v6.85h-26.7v-6.85h9.33v-19h-9.33zm8.72-8.39a4.69 4.69 0 0 1 .35-1.8 4.06 4.06 0 0 1 1-1.42 4.7 4.7 0 0 1 1.53-.92 5.71 5.71 0 0 1 2-.34 4.93 4.93 0 0 1 3.56 1.26 4.6 4.6 0 0 1 0 6.45 4.93 4.93 0 0 1 -3.56 1.25 5.71 5.71 0 0 1 -2-.33 4.7 4.7 0 0 1 -1.53-.92 4.06 4.06 0 0 1 -1-1.42 4.71 4.71 0 0 1 -.35-1.81z"/><path d="m233.13 123.88a20.42 20.42 0 0 1 1-6.62 15.1 15.1 0 0 1 3-5.28 13.69 13.69 0 0 1 4.84-3.51 17.48 17.48 0 0 1 13.13 0 13.73 13.73 0 0 1 4.9 3.53 15.12 15.12 0 0 1 3 5.28 20.69 20.69 0 0 1 1 6.62v.63a20.84 20.84 0 0 1 -1 6.65 15.49 15.49 0 0 1 -3 5.28 13.56 13.56 0 0 1 -4.84 3.49 16.16 16.16 0 0 1 -6.54 1.26 16.34 16.34 0 0 1 -6.59-1.26 13.58 13.58 0 0 1 -4.87-3.49 15.19 15.19 0 0 1 -3-5.28 20.56 20.56 0 0 1 -1-6.65zm8.41.63a17.59 17.59 0 0 0 .4 3.86 9.65 9.65 0 0 0 1.24 3.15 6.2 6.2 0 0 0 2.19 2.13 6.32 6.32 0 0 0 3.26.79 6.1 6.1 0 0 0 3.18-.79 6.2 6.2 0 0 0 2.16-2.13 10.36 10.36 0 0 0 1.23-3.15 18.23 18.23 0 0 0 .39-3.86v-.63a17.7 17.7 0 0 0 -.39-3.79 10.57 10.57 0 0 0 -1.23-3.15 6.32 6.32 0 0 0 -10.79 0 9.83 9.83 0 0 0 -1.24 3.15 17.08 17.08 0 0 0 -.4 3.79z"/><path d="m272.62 94.06h18.31v39.65h9.39v6.85h-27.7v-6.85h9.81v-32.78h-9.81z"/><path d="m327.91 140.56a7.6 7.6 0 0 1 -.51-1.4c-.14-.52-.26-1.08-.36-1.66a11.45 11.45 0 0 1 -3.62 2.59 12.24 12.24 0 0 1 -2.44.78 13 13 0 0 1 -2.87.29 13.9 13.9 0 0 1 -4.62-.73 11.07 11.07 0 0 1 -3.62-2 9.21 9.21 0 0 1 -2.36-3.11 9 9 0 0 1 -.85-3.92 9.33 9.33 0 0 1 3.86-8q3.86-2.84 11.52-2.83h4.69v-1.94a4.75 4.75 0 0 0 -1.54-3.74 6.46 6.46 0 0 0 -4.45-1.38 5.32 5.32 0 0 0 -3.74 1.09 3.83 3.83 0 0 0 -1.19 3h-8.41a9 9 0 0 1 .92-4 9.83 9.83 0 0 1 2.7-3.3 13.33 13.33 0 0 1 4.33-2.25 18.68 18.68 0 0 1 5.85-.84 20.37 20.37 0 0 1 5.53.73 13.34 13.34 0 0 1 4.43 2.15 10 10 0 0 1 2.94 3.59 11.19 11.19 0 0 1 1.06 5v14a23.77 23.77 0 0 0 .33 4.35 11.26 11.26 0 0 0 1 3v.52zm-8-5.91a8.81 8.81 0 0 0 2.36-.3 8.53 8.53 0 0 0 2-.79 6.76 6.76 0 0 0 1.51-1.1 5.58 5.58 0 0 0 1-1.26v-5.63h-4.3a13.07 13.07 0 0 0 -3.36.38 6.38 6.38 0 0 0 -2.32 1.05 4.24 4.24 0 0 0 -1.3 1.63 5.12 5.12 0 0 0 -.42 2.08 3.69 3.69 0 0 0 1.19 2.81 5.13 5.13 0 0 0 3.62 1.13z"/><path d="m373.55 124.51a26.69 26.69 0 0 1 -.8 6.72 15.49 15.49 0 0 1 -2.41 5.27 11.15 11.15 0 0 1 -4 3.43 12 12 0 0 1 -5.57 1.23 10.89 10.89 0 0 1 -5-1.07 10.69 10.69 0 0 1 -3.62-3l-.39 3.49h-7.57v-46.52h8.41v16.71a10.39 10.39 0 0 1 3.44-2.64 10.84 10.84 0 0 1 4.65-.94 12 12 0 0 1 5.61 1.25 11.1 11.1 0 0 1 4 3.45 15.45 15.45 0 0 1 2.41 5.28 26.72 26.72 0 0 1 .8 6.71zm-8.41-.63a21.78 21.78 0 0 0 -.31-3.79 9.94 9.94 0 0 0 -1-3.13 5.83 5.83 0 0 0 -2-2.14 6 6 0 0 0 -3.18-.78 6.53 6.53 0 0 0 -3.74 1 6.35 6.35 0 0 0 -2.23 2.66v13a6.35 6.35 0 0 0 2.23 2.66 6.65 6.65 0 0 0 3.8 1 6.12 6.12 0 0 0 3.15-.74 5.6 5.6 0 0 0 2-2.06 9.63 9.63 0 0 0 1-3.12 22.83 22.83 0 0 0 .31-3.92z"/><path d="m401.75 131.56a2.47 2.47 0 0 0 -.35-1.33 3.21 3.21 0 0 0 -1.24-1.07 11.69 11.69 0 0 0 -2.37-.93c-1-.28-2.24-.56-3.76-.84a37.86 37.86 0 0 1 -5.25-1.44 16.69 16.69 0 0 1 -4.07-2.09 9.57 9.57 0 0 1 -2.65-2.83 7 7 0 0 1 -.95-3.69 8.28 8.28 0 0 1 1-3.88 9.94 9.94 0 0 1 2.79-3.24 14.19 14.19 0 0 1 4.42-2.21 19.68 19.68 0 0 1 5.87-.82 21.61 21.61 0 0 1 6.15.81 14.59 14.59 0 0 1 4.62 2.21 9.75 9.75 0 0 1 2.89 3.34 9.13 9.13 0 0 1 1 4.21h-8.41a4 4 0 0 0 -1.55-3.19 7.17 7.17 0 0 0 -4.69-1.29 7.62 7.62 0 0 0 -4.43 1.06 3.11 3.11 0 0 0 -1.5 2.6 3 3 0 0 0 .3 1.35 2.86 2.86 0 0 0 1.08 1.12 8.41 8.41 0 0 0 2.1.91 23.76 23.76 0 0 0 3.39.71 44.43 44.43 0 0 1 5.51 1.24 17.26 17.26 0 0 1 4.39 2 9.11 9.11 0 0 1 2.89 2.91 7.63 7.63 0 0 1 1.05 4.07 7.93 7.93 0 0 1 -1.05 4 9.67 9.67 0 0 1 -3 3.17 15.28 15.28 0 0 1 -4.65 2.07 23.41 23.41 0 0 1 -6.09.74 20 20 0 0 1 -6.52-1 15 15 0 0 1 -4.74-2.53 10.73 10.73 0 0 1 -2.89-3.54 8.82 8.82 0 0 1 -1-4h8a4.57 4.57 0 0 0 .73 2.29 4.91 4.91 0 0 0 1.63 1.54 7.36 7.36 0 0 0 2.29.86 12.13 12.13 0 0 0 2.64.28 9.29 9.29 0 0 0 4.76-1 3 3 0 0 0 1.66-2.57z"/><path d="m445 147.13h-27.58v-6.57h27.58z"/></g><circle cx="65.61" cy="66.73" fill="#30aab3" r="9.57"/></svg>