<svg width="461" height="101" viewBox="0 0 461 101" fill="none" xmlns="http://www.w3.org/2000/svg">
<path d="M58.6204 30.123H73.4191C74.0159 30.123 74.4994 29.6395 74.4994 29.0427C74.4994 28.4459 74.0159 27.9624 73.4191 27.9624H58.5624C57.9076 27.9624 57.3881 28.5481 57.4987 29.2223C57.5843 29.7556 58.0816 30.123 58.6204 30.123ZM67.719 35.0329C67.719 34.4361 67.2355 33.9526 66.6387 33.9526H55.3794C54.7246 33.9526 54.2052 34.5383 54.3157 35.2125C54.4013 35.743 54.9014 36.1105 55.4375 36.1105H66.6359C67.2355 36.1105 67.719 35.627 67.719 35.0329ZM77.9421 30.123H85.5901V27.9762C85.5901 27.8353 85.6564 27.7027 85.7697 27.617L91.4698 23.3205C91.5693 23.2459 91.6715 23.2294 91.7406 23.2294C91.8096 23.2294 91.9119 23.2459 92.0113 23.3205L97.7114 27.617C97.8219 27.7027 97.891 27.8353 97.891 27.9762V30.123H111.894C112.491 30.123 112.974 29.6395 112.974 29.0427C112.974 28.4459 112.491 27.9624 111.894 27.9624H100.049C100.046 27.1473 99.6621 26.3819 99.01 25.8929L93.3099 21.5964C92.3816 20.8946 91.0995 20.8946 90.1712 21.5964L84.4711 25.8929C83.8218 26.3819 83.4377 27.1501 83.4322 27.9624H77.9449C77.3481 27.9624 76.8645 28.4459 76.8645 29.0427C76.8618 29.6395 77.3453 30.123 77.9421 30.123ZM116.414 30.123H124.913C125.568 30.123 126.087 29.5373 125.977 28.8631C125.891 28.3326 125.391 27.9651 124.855 27.9651H116.414C115.817 27.9651 115.334 28.4487 115.334 29.0455C115.334 29.6395 115.817 30.123 116.414 30.123ZM129.163 34.8505C129.077 34.3201 128.577 33.9526 128.041 33.9526H111.725C111.129 33.9526 110.645 34.4361 110.645 35.0329C110.645 35.6297 111.129 36.1132 111.725 36.1132H128.099C128.754 36.1105 129.273 35.5275 129.163 34.8505ZM120.205 75.8646H101.861L98.9216 42.0979H100.046V36.1105H107.2C107.796 36.1105 108.28 35.627 108.28 35.0301C108.28 34.4333 107.796 33.9498 107.2 33.9498H97.8855V39.9372H92.8181C92.2213 39.9372 91.7378 40.4208 91.7378 41.0176C91.7378 41.6144 92.2213 42.0979 92.8181 42.0979H96.7526L99.8804 78.0225H120.202C120.799 78.0225 121.283 77.5389 121.283 76.9421C121.285 76.3481 120.802 75.8646 120.205 75.8646ZM113.074 81.852H70.3936C69.7968 81.852 69.3133 82.3355 69.3133 82.9323C69.3133 83.5291 69.7968 84.0127 70.3936 84.0127H113.074C113.671 84.0127 114.154 83.5291 114.154 82.9323C114.154 82.3355 113.671 81.852 113.074 81.852ZM98.3911 87.8394H85.079C84.4821 87.8394 83.9986 88.323 83.9986 88.9198C83.9986 89.5166 84.4821 90.0001 85.079 90.0001H98.3911C98.9879 90.0001 99.4714 89.5166 99.4714 88.9198C99.4714 88.323 98.9879 87.8394 98.3911 87.8394ZM89.7761 76.9449C89.7761 76.3481 89.2925 75.8646 88.6957 75.8646H83.7831L86.9108 39.9372H85.5873V33.9526H71.1617C70.5649 33.9526 70.0814 34.4361 70.0814 35.0329C70.0814 35.6297 70.5649 36.1132 71.1617 36.1132H83.4294V42.1007H84.5567L81.6169 75.8673H63.2678C62.6351 75.8673 62.1294 76.4116 62.193 77.0582C62.2483 77.6191 62.7649 78.0252 63.3286 78.0252H88.6957C89.2925 78.0252 89.7761 77.5417 89.7761 76.9449Z" fill="#173C66"/>
<path d="M53.3486 42.0978H83.4294V39.9399H53.3486C52.7517 39.9399 52.2682 40.4234 52.2682 41.0202C52.2682 41.6143 52.7517 42.0978 53.3486 42.0978ZM62.1902 23.0552C62.1902 23.652 62.6737 24.1355 63.2705 24.1355H86.8002L89.6655 21.9776H63.2705C62.6737 21.9776 62.1902 22.4611 62.1902 23.0552ZM70.399 18.1481H113.087C113.684 18.1481 114.168 17.6646 114.168 17.0678C114.168 16.471 113.684 15.9874 113.087 15.9874H70.399C69.8022 15.9874 69.3187 16.471 69.3187 17.0678C69.3187 17.6646 69.8022 18.1481 70.399 18.1481ZM100.046 42.0978H130.141C130.738 42.0978 131.221 41.6143 131.221 41.0175C131.221 40.4207 130.738 39.9371 130.141 39.9371H100.046V42.0978ZM85.0816 12.1607H98.3993C98.9961 12.1607 99.4797 11.6771 99.4797 11.0803C99.4797 10.4835 98.9961 10 98.3993 10H85.0816C84.4848 10 84.0013 10.4835 84.0013 11.0803C84.0013 11.6771 84.4848 12.1607 85.0816 12.1607ZM132.478 47.0077C132.478 46.4109 131.995 45.9273 131.398 45.9273H99.2559L99.4437 48.0852H131.398C131.995 48.0852 132.478 47.6017 132.478 47.0077ZM121.294 23.0552C121.294 22.4584 120.81 21.9749 120.213 21.9749H93.81L96.6752 24.1328H120.213C120.81 24.1355 121.294 23.652 121.294 23.0552ZM51 47.0077C51 47.6045 51.4835 48.088 52.0803 48.088H84.0372L84.2251 45.9301H52.0803C51.4835 45.9273 51 46.4109 51 47.0077ZM130.124 57.9022H100.298L100.485 60.0601H130.124C130.721 60.0601 131.204 59.5766 131.204 58.9798C131.204 58.3857 130.721 57.9022 130.124 57.9022ZM128.096 63.8896H100.82L101.008 66.0475H128.096C128.693 66.0475 129.176 65.564 129.176 64.9672C129.176 64.3731 128.693 63.8896 128.096 63.8896ZM131.398 51.9148H99.7781L99.9659 54.0727H131.401C131.997 54.0727 132.481 53.5891 132.481 52.9923C132.478 52.3983 131.995 51.9148 131.398 51.9148ZM51 52.9951C51 53.5919 51.4835 54.0754 52.0803 54.0754H83.515L83.7029 51.9175H52.0803C51.4835 51.9148 51 52.3983 51 52.9951ZM124.916 69.877H101.342L101.53 72.035H124.916C125.513 72.035 125.996 71.5514 125.996 70.9546C125.996 70.3578 125.513 69.877 124.916 69.877ZM52.2627 58.9825C52.2627 59.5793 52.7462 60.0629 53.343 60.0629H82.9928L83.1807 57.905H53.343C52.7462 57.9022 52.2627 58.3857 52.2627 58.9825ZM57.4848 70.9574C57.4848 71.5542 57.9683 72.0377 58.5651 72.0377H81.9512L82.139 69.8798H58.5623C57.9683 69.877 57.4848 70.3606 57.4848 70.9574ZM54.3018 64.97C54.3018 65.5668 54.7853 66.0503 55.3821 66.0503H82.4706L82.6585 63.8924H55.3821C54.7853 63.8896 54.3018 64.3731 54.3018 64.97Z" fill="url(#paint0_linear_2301_3656)"/>
<path d="M155.116 39.8344V56.5194H168.625V60.0405H150.164V39.8282H155.116V39.8344Z" fill="#173C66"/>
<path d="M174.026 60.0466V39.8344H178.938V60.0466H174.026Z" fill="#173C66"/>
<path d="M204.968 44.7701C203.202 43.4728 200.577 42.7501 198.29 42.7501C192.663 42.7501 189.252 46.0426 189.252 50.2C189.252 53.5234 191.764 56.958 198.29 56.958C200.353 56.958 202.15 56.6121 204.213 55.3395V51.7566H197.495V48.3529H208.748V56.8715C206.156 59.1509 202.897 60.51 198.282 60.51C188.417 60.51 184.404 55.5125 184.404 50.2C184.404 44.5106 189.019 39.2599 198.282 39.2599C201.805 39.2599 205.337 40.2977 208.034 42.3486L204.968 44.7701Z" fill="#173C66"/>
<path d="M232.578 60.0714V51.8988H219.672V60.0714H214.72V39.8591H219.672V48.3777H232.578V39.8591H237.49V60.0714H232.578Z" fill="#173C66"/>
<path d="M250.806 43.2998H242.475V39.8344C250.051 39.8344 256.464 39.8344 264.081 39.8344V43.2998H255.758V60.0466H250.806V43.2998Z" fill="#173C66"/>
<path d="M268.961 60.0465V39.8651H287.831V43.5345H273.914V49.0508H287.077V52.5719H273.914V60.0527H268.961V60.0465Z" fill="#173C66"/>
<path d="M293.53 60.0466V39.8344H298.442V60.0466H293.53Z" fill="#173C66"/>
<path d="M322.232 39.8035H327.184V60.0404H324.11V60.0713L310.305 46.4132V60.0404H305.353V39.8282H309.366L322.232 52.362V39.8035Z" fill="#173C66"/>
<path d="M356.705 49.7675C356.817 54.8762 352.764 60.0466 343.574 60.0466C340.347 60.0466 336.487 60.0466 333.26 60.0466V39.8344C336.487 39.8344 340.347 39.8344 343.574 39.8344C352.579 39.8344 356.592 44.77 356.705 49.7675ZM338.172 56.3773H343.574C349.537 56.3773 351.905 53.0292 351.793 49.7366C351.68 46.5924 349.281 43.4419 343.574 43.4419H338.172V56.3773Z" fill="#173C66"/>
<path d="M381.418 60.0466H361.761C361.761 53.3195 361.761 46.5615 361.761 39.8344H381.418V43.5284H366.681V48.18H380.896V51.7319H366.681V56.2908H381.426V60.0466H381.418Z" fill="#173C66"/>
<path d="M410.417 60.0467H404.526L396.876 53.2887H392.109V60.0467H387.157V39.8097C391.322 39.8097 395.488 39.8406 399.646 39.8406C405.834 39.8715 409.101 43.0466 409.101 46.5368C409.101 49.3105 407.447 52.1088 402.463 52.8871L410.417 59.7872V60.0467ZM392.109 43.3864V49.8541H399.646C402.8 49.8541 404.148 48.2356 404.148 46.6171C404.148 44.9987 402.76 43.3864 399.646 43.3864H392.109Z" fill="#173C66"/>
<defs>
<linearGradient id="paint0_linear_2301_3656" x1="54.5078" y1="22.3947" x2="128.616" y2="73.5501" gradientUnits="userSpaceOnUse">
<stop stop-color="#00AEEF"/>
<stop offset="1" stop-color="#EC008C"/>
</linearGradient>
</defs>
</svg>
