<svg width="460" height="100" viewBox="0 0 460 100" fill="none" xmlns="http://www.w3.org/2000/svg">
<path d="M57.6555 29.9181H72.4541C73.0509 29.9181 73.5344 29.4346 73.5344 28.8378C73.5344 28.2409 73.0509 27.7574 72.4541 27.7574H57.5974C56.9426 27.7574 56.4232 28.3432 56.5337 29.0174C56.6193 29.5506 57.1167 29.9181 57.6555 29.9181ZM66.754 34.8279C66.754 34.2311 66.2705 33.7476 65.6737 33.7476H54.4145C53.7596 33.7476 53.2402 34.3334 53.3507 35.0075C53.4364 35.538 53.9365 35.9055 54.4725 35.9055H65.6709C66.2705 35.9055 66.754 35.422 66.754 34.8279ZM76.9772 29.9181H84.6251V27.7712C84.6251 27.6303 84.6915 27.4977 84.8047 27.412L90.5048 23.1156C90.6043 23.041 90.7065 23.0244 90.7756 23.0244C90.8447 23.0244 90.9469 23.041 91.0464 23.1156L96.7464 27.412C96.857 27.4977 96.926 27.6303 96.926 27.7712V29.9181H110.929C111.526 29.9181 112.009 29.4346 112.009 28.8378C112.009 28.2409 111.526 27.7574 110.929 27.7574H99.0839C99.0812 26.9423 98.6971 26.177 98.0451 25.6879L92.345 21.3915C91.4166 20.6897 90.1346 20.6897 89.2062 21.3915L83.5061 25.6879C82.8568 26.177 82.4728 26.9451 82.4672 27.7574H76.9799C76.3831 27.7574 75.8996 28.2409 75.8996 28.8378C75.8968 29.4346 76.3803 29.9181 76.9772 29.9181ZM115.449 29.9181H123.948C124.603 29.9181 125.122 29.3323 125.012 28.6582C124.926 28.1277 124.426 27.7602 123.89 27.7602H115.449C114.852 27.7602 114.369 28.2437 114.369 28.8405C114.369 29.4346 114.852 29.9181 115.449 29.9181ZM128.198 34.6456C128.112 34.1151 127.612 33.7476 127.076 33.7476H110.76C110.164 33.7476 109.68 34.2311 109.68 34.8279C109.68 35.4248 110.164 35.9083 110.76 35.9083H127.134C127.789 35.9055 128.308 35.3225 128.198 34.6456ZM119.24 75.6596H100.896L97.9566 41.8929H99.0812V35.9055H106.235C106.831 35.9055 107.315 35.422 107.315 34.8252C107.315 34.2284 106.831 33.7449 106.235 33.7449H96.9205V39.7323H91.8532C91.2564 39.7323 90.7728 40.2158 90.7728 40.8126C90.7728 41.4094 91.2564 41.8929 91.8532 41.8929H95.7877L98.9154 77.8175H119.237C119.834 77.8175 120.318 77.334 120.318 76.7372C120.32 76.1431 119.837 75.6596 119.24 75.6596ZM112.109 81.647H69.4286C68.8318 81.647 68.3483 82.1306 68.3483 82.7274C68.3483 83.3242 68.8318 83.8077 69.4286 83.8077H112.109C112.706 83.8077 113.189 83.3242 113.189 82.7274C113.189 82.1306 112.706 81.647 112.109 81.647ZM97.4261 87.6345H84.114C83.5172 87.6345 83.0337 88.118 83.0337 88.7148C83.0337 89.3116 83.5172 89.7951 84.114 89.7951H97.4261C98.023 89.7951 98.5065 89.3116 98.5065 88.7148C98.5065 88.118 98.023 87.6345 97.4261 87.6345ZM88.8111 76.7399C88.8111 76.1431 88.3276 75.6596 87.7308 75.6596H82.8181L85.9459 39.7323H84.6224V33.7476H70.1967C69.5999 33.7476 69.1164 34.2311 69.1164 34.8279C69.1164 35.4248 69.5999 35.9083 70.1967 35.9083H82.4645V41.8957H83.5918L80.6519 75.6624H62.3028C61.6701 75.6624 61.1645 76.2067 61.228 76.8532C61.2833 77.4141 61.8 77.8203 62.3636 77.8203H87.7308C88.3276 77.8203 88.8111 77.3368 88.8111 76.7399Z" fill="white"/>
<path d="M52.3836 41.8929H82.4644V39.7349H52.3836C51.7868 39.7349 51.3033 40.2185 51.3033 40.8153C51.3033 41.4093 51.7868 41.8929 52.3836 41.8929ZM61.2252 22.8502C61.2252 23.447 61.7087 23.9306 62.3055 23.9306H85.8353L88.7005 21.7727H62.3055C61.7087 21.7727 61.2252 22.2562 61.2252 22.8502ZM69.4341 17.9431H112.122C112.719 17.9431 113.203 17.4596 113.203 16.8628C113.203 16.266 112.719 15.7825 112.122 15.7825H69.4341C68.8373 15.7825 68.3537 16.266 68.3537 16.8628C68.3537 17.4596 68.8373 17.9431 69.4341 17.9431ZM99.0811 41.8929H129.176C129.773 41.8929 130.256 41.4093 130.256 40.8125C130.256 40.2157 129.773 39.7322 129.176 39.7322H99.0811V41.8929ZM84.1167 11.9557H97.4344C98.0312 11.9557 98.5147 11.4722 98.5147 10.8754C98.5147 10.2786 98.0312 9.79504 97.4344 9.79504H84.1167C83.5199 9.79504 83.0363 10.2786 83.0363 10.8754C83.0363 11.4722 83.5199 11.9557 84.1167 11.9557ZM131.513 46.8027C131.513 46.2059 131.03 45.7224 130.433 45.7224H98.2909L98.4788 47.8803H130.433C131.03 47.8803 131.513 47.3968 131.513 46.8027ZM120.329 22.8502C120.329 22.2534 119.845 21.7699 119.248 21.7699H92.845L95.7102 23.9278H119.248C119.845 23.9306 120.329 23.447 120.329 22.8502ZM50.035 46.8027C50.035 47.3995 50.5186 47.883 51.1154 47.883H83.0723L83.2602 45.7251H51.1154C50.5186 45.7224 50.035 46.2059 50.035 46.8027ZM129.159 57.6972H99.3325L99.5204 59.8551H129.159C129.756 59.8551 130.239 59.3716 130.239 58.7748C130.239 58.1808 129.756 57.6972 129.159 57.6972ZM127.131 63.6847H99.8547L100.043 65.8426H127.131C127.728 65.8426 128.211 65.359 128.211 64.7622C128.211 64.1682 127.728 63.6847 127.131 63.6847ZM130.433 51.7098H98.8131L99.001 53.8677H130.436C131.032 53.8677 131.516 53.3842 131.516 52.7874C131.513 52.1933 131.03 51.7098 130.433 51.7098ZM50.035 52.7901C50.035 53.3869 50.5186 53.8705 51.1154 53.8705H82.5501L82.7379 51.7126H51.1154C50.5186 51.7098 50.035 52.1933 50.035 52.7901ZM123.951 69.6721H100.377L100.565 71.83H123.951C124.548 71.83 125.031 71.3465 125.031 70.7497C125.031 70.1529 124.548 69.6721 123.951 69.6721ZM51.2977 58.7776C51.2977 59.3744 51.7813 59.8579 52.3781 59.8579H82.0279L82.2157 57.7H52.3781C51.7813 57.6972 51.2977 58.1808 51.2977 58.7776ZM56.5198 70.7524C56.5198 71.3492 57.0033 71.8328 57.6001 71.8328H80.9862L81.1741 69.6749H57.5974C57.0033 69.6721 56.5198 70.1556 56.5198 70.7524ZM53.3368 64.765C53.3368 65.3618 53.8203 65.8453 54.4172 65.8453H81.5056L81.6935 63.6874H54.4172C53.8203 63.6847 53.3368 64.1682 53.3368 64.765Z" fill="url(#paint0_linear_2301_3658)"/>
<path d="M154.151 39.6295V56.3145H167.66V59.8356H149.199V39.6233H154.151V39.6295Z" fill="white"/>
<path d="M173.061 59.8417V39.6294H177.973V59.8417H173.061Z" fill="white"/>
<path d="M204.003 44.5651C202.237 43.2679 199.612 42.5451 197.325 42.5451C191.698 42.5451 188.287 45.8377 188.287 49.995C188.287 53.3184 190.799 56.753 197.325 56.753C199.388 56.753 201.185 56.4071 203.248 55.1346V51.5517H196.53V48.148H207.783V56.6665C205.191 58.946 201.932 60.305 197.317 60.305C187.452 60.305 183.439 55.3075 183.439 49.995C183.439 44.3057 188.054 39.0549 197.317 39.0549C200.84 39.0549 204.372 40.0927 207.069 42.1436L204.003 44.5651Z" fill="white"/>
<path d="M231.613 59.8665V51.6938H218.707V59.8665H213.755V39.6542H218.707V48.1727H231.613V39.6542H236.525V59.8665H231.613Z" fill="white"/>
<path d="M249.841 43.0949H241.51V39.6294C249.086 39.6294 255.499 39.6294 263.116 39.6294V43.0949H254.793V59.8417H249.841V43.0949Z" fill="white"/>
<path d="M267.996 59.8416V39.6602H286.866V43.3295H272.949V48.8459H286.112V52.367H272.949V59.8477H267.996V59.8416Z" fill="white"/>
<path d="M292.565 59.8417V39.6294H297.477V59.8417H292.565Z" fill="white"/>
<path d="M321.267 39.5985H326.219V59.8355H323.145V59.8664L309.34 46.2083V59.8355H304.388V39.6232H308.401L321.267 52.157V39.5985Z" fill="white"/>
<path d="M355.74 49.5626C355.852 54.6712 351.799 59.8417 342.609 59.8417C339.382 59.8417 335.522 59.8417 332.295 59.8417V39.6294C335.522 39.6294 339.382 39.6294 342.609 39.6294C351.614 39.6294 355.628 44.5651 355.74 49.5626ZM337.207 56.1723H342.609C348.572 56.1723 350.94 52.8242 350.828 49.5317C350.716 46.3874 348.316 43.237 342.609 43.237H337.207V56.1723Z" fill="white"/>
<path d="M380.453 59.8417H360.796C360.796 53.1145 360.796 46.3565 360.796 39.6294H380.453V43.3235H365.716V47.975H379.931V51.527H365.716V56.0858H380.461V59.8417H380.453Z" fill="white"/>
<path d="M409.452 59.8417H403.561L395.911 53.0837H391.144V59.8417H386.192V39.6047C390.357 39.6047 394.523 39.6356 398.681 39.6356C404.869 39.6665 408.136 42.8417 408.136 46.3319C408.136 49.1055 406.482 51.9038 401.498 52.6822L409.452 59.5823V59.8417ZM391.144 43.1814V49.6491H398.681C401.835 49.6491 403.183 48.0306 403.183 46.4122C403.183 44.7937 401.795 43.1814 398.681 43.1814H391.144Z" fill="white"/>
<defs>
<linearGradient id="paint0_linear_2301_3658" x1="53.5429" y1="22.1897" x2="127.651" y2="73.3451" gradientUnits="userSpaceOnUse">
<stop stop-color="#00AEEF"/>
<stop offset="1" stop-color="#EC008C"/>
</linearGradient>
</defs>
</svg>
