<svg width="500" height="100" viewBox="0 0 500 100" fill="none" xmlns="http://www.w3.org/2000/svg">
<path d="M190.109 55.2262C190.109 50.7376 192.261 48.0936 196.381 48.0936C200.255 48.0936 201.546 50.8605 201.546 54.4269V73.55H210.278V53.4431C210.278 45.9414 206.343 40.5919 198.595 40.5919C193.983 40.5919 190.724 42.0061 187.896 45.1421C186.05 42.3136 182.915 40.5919 178.549 40.5919C173.937 40.5919 170.74 42.4981 169.264 45.265V41.3297H161.209V73.55H169.94V55.0418C169.94 50.7376 172.154 48.0936 176.212 48.0936C180.086 48.0936 181.378 50.8605 181.378 54.4269V73.55H190.109V55.2262Z" fill="#21004B"/>
<path d="M246.116 59.9609C246.116 59.9609 246.239 58.7927 246.239 57.3784C246.239 47.8476 239.783 40.5919 230.252 40.5919C220.721 40.5919 214.08 47.8476 214.08 57.3784C214.08 67.2781 220.783 74.2879 230.313 74.2879C237.754 74.2879 243.657 69.7992 245.563 63.2814H236.77C235.725 65.6179 233.204 66.7862 230.56 66.7862C226.194 66.7862 223.366 64.3881 222.751 59.9609H246.116ZM230.191 47.6016C234.249 47.6016 236.894 50.0612 237.508 53.689H222.873C223.611 49.9997 226.194 47.6016 230.191 47.6016Z" fill="#21004B"/>
<path d="M247.527 48.8314H251.401V73.55H260.132V41.3297H247.527V48.8314ZM255.767 37.1485C258.841 37.1485 261.054 34.9964 261.054 31.9219C261.054 28.8475 258.841 26.6339 255.767 26.6339C252.692 26.6339 250.478 28.8475 250.478 31.9219C250.478 34.9964 252.692 37.1485 255.767 37.1485Z" fill="#21004B"/>
<path d="M278.212 66.0483C277.966 66.0483 277.597 66.1098 277.044 66.1098C275.076 66.1098 274.83 65.1875 274.83 63.8347V27.4332H266.099V64.4496C266.099 70.8445 268.558 73.673 275.507 73.673C276.675 73.673 277.782 73.55 278.212 73.4885V66.0483Z" fill="#21004B"/>
<path d="M279.206 48.8314H283.079V73.55H291.811V41.3297H279.206V48.8314ZM287.446 37.1485C290.52 37.1485 292.733 34.9964 292.733 31.9219C292.733 28.8475 290.52 26.6339 287.446 26.6339C284.371 26.6339 282.157 28.8475 282.157 31.9219C282.157 34.9964 284.371 37.1485 287.446 37.1485Z" fill="#21004B"/>
<path d="M309.341 73.8877C317.826 73.8877 321.823 69.399 321.823 64.6643C321.823 51.5057 302.454 58.8229 302.454 50.1529C302.454 47.3244 304.852 44.9264 309.71 44.9264C314.69 44.9264 317.027 47.6318 317.396 51.0137H321.762C321.393 46.7711 318.503 41.114 309.833 41.114C302.393 41.114 298.212 45.5412 298.212 50.3374C298.212 63.1886 317.581 55.8099 317.581 64.7873C317.581 67.9232 314.629 70.0754 309.341 70.0754C303.93 70.0754 301.224 67.3698 300.917 63.373H296.49C296.858 68.8455 300.302 73.8877 309.341 73.8877Z" fill="#21004B"/>
<path d="M356.497 58.7614C356.497 58.7614 356.559 57.7776 356.559 57.1012C356.559 48.2468 350.84 41.114 341.494 41.114C332.086 41.114 326.122 48.8002 326.122 57.4701C326.122 66.263 331.656 73.8877 341.555 73.8877C348.995 73.8877 354.161 69.3374 356.005 63.373H351.454C350.102 67.1854 346.413 69.9524 341.616 69.9524C335.037 69.9524 330.918 65.0948 330.487 58.7614H356.497ZM341.494 45.0493C347.643 45.0493 351.64 49.169 352.192 55.195H330.61C331.348 49.415 335.406 45.0493 341.494 45.0493Z" fill="#21004B"/>
<path d="M383.661 58.2695V61.2209C383.661 66.5705 379.787 70.2598 372.347 70.2598C367.736 70.2598 365.215 68.3536 365.215 64.2339C365.215 62.1433 366.198 60.5446 367.736 59.6837C369.334 58.8229 371.487 58.2695 383.661 58.2695ZM371.855 73.8877C377.266 73.8877 381.632 72.166 383.846 68.5996V73.1498H388.027V52.674C388.027 45.7257 384.03 41.114 374.991 41.114C366.321 41.114 362.509 45.4797 361.71 51.0752H365.953C366.813 46.648 370.195 44.8649 374.807 44.8649C380.71 44.8649 383.661 47.3244 383.661 52.6124V54.6416C373.762 54.6416 369.642 54.8261 366.568 56.0558C363.001 57.4701 360.911 60.6061 360.911 64.3568C360.911 69.8294 364.415 73.8877 371.855 73.8877Z" fill="#21004B"/>
<path d="M411.895 41.606C411.895 41.606 411.157 41.5445 410.85 41.5445C405.07 41.5445 401.996 44.5574 400.827 46.7095V41.852H396.646V73.1498H401.011V55.3795C401.011 48.8617 405.008 45.6642 410.358 45.6642C411.157 45.6642 411.895 45.7257 411.895 45.7257V41.606Z" fill="#21004B"/>
<path d="M412.641 57.5316C412.641 66.0786 418.544 73.8877 428.074 73.8877C436.56 73.8877 441.479 68.2307 442.709 62.0202H438.282C436.99 66.8779 433.424 69.9524 428.074 69.9524C421.495 69.9524 417.068 64.7258 417.068 57.5316C417.068 50.2759 421.495 45.0493 428.074 45.0493C433.424 45.0493 436.99 48.1237 438.282 52.9814H442.709C441.479 46.7711 436.56 41.114 428.074 41.114C418.544 41.114 412.641 48.9231 412.641 57.5316Z" fill="#21004B"/>
<path d="M452.987 27.033H448.621V73.1498H452.987V54.6417C452.987 48.2468 457.107 44.9264 462.394 44.9264C467.99 44.9264 470.634 48.3698 470.634 54.0267V73.1498H475V53.1659C475 46.2176 470.88 41.114 463.132 41.114C457.291 41.114 454.094 44.3115 452.987 46.2176V27.033Z" fill="#21004B"/>
<path d="M25 83.9203L46.2014 29.6754C49.1891 22.0311 56.5573 17 64.7646 17H77.5466L56.3453 71.245C53.3576 78.8892 45.9894 83.9203 37.782 83.9203H25Z" fill="url(#paint0_linear_1801_2943)"/>
<path d="M56.1034 83.9205L77.3048 29.6755C80.2925 22.0313 87.6607 17.0002 95.868 17.0002H108.65L87.4486 71.2452C84.4609 78.8894 77.0927 83.9205 68.8854 83.9205H56.1034Z" fill="url(#paint1_linear_1801_2943)"/>
<path d="M87.2085 83.9205L108.41 29.6755C111.398 22.0313 118.765 17.0002 126.973 17.0002H139.755L118.554 71.2452C115.566 78.8894 108.198 83.9205 99.9905 83.9205H87.2085Z" fill="url(#paint2_linear_1801_2943)"/>
<defs>
<linearGradient id="paint0_linear_1801_2943" x1="139.755" y1="11.8884" x2="25" y2="76.7189" gradientUnits="userSpaceOnUse">
<stop stop-color="#FF5CAA"/>
<stop offset="1" stop-color="#FF4E62"/>
</linearGradient>
<linearGradient id="paint1_linear_1801_2943" x1="139.755" y1="11.8884" x2="25" y2="76.7189" gradientUnits="userSpaceOnUse">
<stop stop-color="#FF5CAA"/>
<stop offset="1" stop-color="#FF4E62"/>
</linearGradient>
<linearGradient id="paint2_linear_1801_2943" x1="139.755" y1="11.8884" x2="25" y2="76.7189" gradientUnits="userSpaceOnUse">
<stop stop-color="#FF5CAA"/>
<stop offset="1" stop-color="#FF4E62"/>
</linearGradient>
</defs>
</svg>
