<svg width="500" height="100" viewBox="0 0 500 100" fill="none" xmlns="http://www.w3.org/2000/svg">
<path d="M190.111 55.2265C190.111 50.7377 192.263 48.0937 196.383 48.0937C200.257 48.0937 201.548 50.8607 201.548 54.4271V73.5502H210.279V53.4432C210.279 45.9416 206.344 40.592 198.597 40.592C193.985 40.592 190.726 42.0063 187.898 45.1422C186.053 42.3137 182.917 40.592 178.551 40.592C173.939 40.592 170.742 42.4982 169.266 45.2652V41.3299H161.211V73.5502H169.943V55.0419C169.943 50.7377 172.156 48.0937 176.215 48.0937C180.089 48.0937 181.379 50.8607 181.379 54.4271V73.5502H190.111V55.2265Z" fill="white"/>
<path d="M246.119 59.9611C246.119 59.9611 246.241 58.7928 246.241 57.3785C246.241 47.8478 239.785 40.592 230.254 40.592C220.723 40.592 214.083 47.8478 214.083 57.3785C214.083 67.2783 220.785 74.288 230.316 74.288C237.756 74.288 243.659 69.7993 245.565 63.2815H236.772C235.727 65.6181 233.206 66.7864 230.562 66.7864C226.196 66.7864 223.368 64.3883 222.753 59.9611H246.119ZM230.193 47.6018C234.251 47.6018 236.895 50.0613 237.51 53.6892H222.876C223.614 49.9999 226.196 47.6018 230.193 47.6018Z" fill="white"/>
<path d="M247.529 48.8316H251.403V73.5502H260.134V41.3299H247.529V48.8316ZM255.768 37.1487C258.843 37.1487 261.057 34.9965 261.057 31.9221C261.057 28.8476 258.843 26.634 255.768 26.634C252.694 26.634 250.481 28.8476 250.481 31.9221C250.481 34.9965 252.694 37.1487 255.768 37.1487Z" fill="white"/>
<path d="M278.214 66.0485C277.969 66.0485 277.599 66.11 277.047 66.11C275.078 66.11 274.833 65.1877 274.833 63.8349V27.4333H266.101V64.4497C266.101 70.8446 268.561 73.6731 275.509 73.6731C276.677 73.6731 277.784 73.5502 278.214 73.4887V66.0485Z" fill="white"/>
<path d="M279.207 48.8316H283.081V73.5502H291.813V41.3299H279.207V48.8316ZM287.448 37.1487C290.521 37.1487 292.735 34.9965 292.735 31.9221C292.735 28.8476 290.521 26.634 287.448 26.634C284.373 26.634 282.159 28.8476 282.159 31.9221C282.159 34.9965 284.373 37.1487 287.448 37.1487Z" fill="white"/>
<path d="M309.341 73.8876C317.826 73.8876 321.823 69.3989 321.823 64.6643C321.823 51.5056 302.454 58.8228 302.454 50.1528C302.454 47.3244 304.852 44.9263 309.71 44.9263C314.69 44.9263 317.027 47.6318 317.396 51.0137H321.762C321.393 46.7709 318.503 41.114 309.833 41.114C302.393 41.114 298.212 45.5412 298.212 50.3373C298.212 63.1885 317.581 55.8098 317.581 64.7872C317.581 67.9231 314.629 70.0753 309.341 70.0753C303.93 70.0753 301.224 67.3697 300.917 63.373H296.49C296.859 68.8455 300.302 73.8876 309.341 73.8876Z" fill="white"/>
<path d="M356.497 58.7613C356.497 58.7613 356.559 57.7775 356.559 57.1011C356.559 48.2466 350.84 41.114 341.494 41.114C332.086 41.114 326.122 48.8 326.122 57.47C326.122 66.263 331.656 73.8876 341.555 73.8876C348.995 73.8876 354.161 69.3374 356.005 63.373H351.455C350.102 67.1853 346.413 69.9524 341.617 69.9524C335.037 69.9524 330.918 65.0947 330.487 58.7613H356.497ZM341.494 45.0493C347.643 45.0493 351.64 49.169 352.193 55.195H330.61C331.348 49.415 335.406 45.0493 341.494 45.0493Z" fill="white"/>
<path d="M383.661 58.2694V61.2209C383.661 66.5704 379.787 70.2597 372.348 70.2597C367.736 70.2597 365.215 68.3536 365.215 64.2338C365.215 62.1432 366.198 60.5445 367.736 59.6837C369.334 58.8228 371.487 58.2694 383.661 58.2694ZM371.855 73.8876C377.267 73.8876 381.632 72.1659 383.846 68.5996V73.1497H388.027V52.6739C388.027 45.7256 384.03 41.114 374.991 41.114C366.321 41.114 362.51 45.4797 361.71 51.0752H365.953C366.813 46.6479 370.195 44.8648 374.807 44.8648C380.71 44.8648 383.661 47.3244 383.661 52.6124V54.6415C373.762 54.6415 369.642 54.826 366.568 56.0558C363.001 57.47 360.911 60.606 360.911 64.3568C360.911 69.8293 364.415 73.8876 371.855 73.8876Z" fill="white"/>
<path d="M411.895 41.6059C411.895 41.6059 411.157 41.5444 410.85 41.5444C405.071 41.5444 401.996 44.5573 400.827 46.7094V41.8518H396.646V73.1497H401.012V55.3794C401.012 48.8616 405.009 45.6641 410.358 45.6641C411.157 45.6641 411.895 45.7256 411.895 45.7256V41.6059Z" fill="white"/>
<path d="M412.641 57.5315C412.641 66.0785 418.544 73.8876 428.075 73.8876C436.56 73.8876 441.479 68.2306 442.709 62.0202H438.282C436.991 66.8778 433.424 69.9524 428.075 69.9524C421.495 69.9524 417.068 64.7258 417.068 57.5315C417.068 50.2758 421.495 45.0493 428.075 45.0493C433.424 45.0493 436.991 48.1237 438.282 52.9813H442.709C441.479 46.7709 436.56 41.114 428.075 41.114C418.544 41.114 412.641 48.9231 412.641 57.5315Z" fill="white"/>
<path d="M452.987 27.0329H448.621V73.1497H452.987V54.6415C452.987 48.2466 457.107 44.9263 462.394 44.9263C467.99 44.9263 470.635 48.3697 470.635 54.0266V73.1497H475V53.1657C475 46.2175 470.88 41.1139 463.132 41.1139C457.291 41.1139 454.094 44.3113 452.987 46.2175V27.0329Z" fill="white"/>
<path d="M25 83.9204L46.2014 29.6754C49.1891 22.0311 56.5573 17 64.7646 17H77.5466L56.3453 71.245C53.3575 78.8892 45.9893 83.9204 37.7821 83.9204H25Z" fill="url(#paint0_linear_1801_2958)"/>
<path d="M56.1033 83.9205L77.3047 29.6755C80.2924 22.0313 87.6606 17.0002 95.8679 17.0002H108.65L87.4486 71.2452C84.4609 78.8894 77.0927 83.9205 68.8853 83.9205H56.1033Z" fill="url(#paint1_linear_1801_2958)"/>
<path d="M87.2084 83.9205L108.41 29.6755C111.398 22.0313 118.766 17.0002 126.973 17.0002H139.755L118.554 71.2452C115.566 78.8894 108.198 83.9205 99.9904 83.9205H87.2084Z" fill="url(#paint2_linear_1801_2958)"/>
<defs>
<linearGradient id="paint0_linear_1801_2958" x1="139.755" y1="11.8884" x2="25" y2="76.7189" gradientUnits="userSpaceOnUse">
<stop stop-color="#FF5CAA"/>
<stop offset="1" stop-color="#FF4E62"/>
</linearGradient>
<linearGradient id="paint1_linear_1801_2958" x1="139.755" y1="11.8884" x2="25" y2="76.7189" gradientUnits="userSpaceOnUse">
<stop stop-color="#FF5CAA"/>
<stop offset="1" stop-color="#FF4E62"/>
</linearGradient>
<linearGradient id="paint2_linear_1801_2958" x1="139.755" y1="11.8884" x2="24.9999" y2="76.7189" gradientUnits="userSpaceOnUse">
<stop stop-color="#FF5CAA"/>
<stop offset="1" stop-color="#FF4E62"/>
</linearGradient>
</defs>
</svg>
