<svg width="500" height="100" viewBox="0 0 500 100" fill="none" xmlns="http://www.w3.org/2000/svg">
<path d="M258.666 71.7275H236.791V70.0985C241.631 69.7029 242.515 68.8884 242.655 65.1184V31.6074L226.016 71.7275H224.27L207.631 32.608V63.5825C207.701 68.423 208.981 69.7029 214.287 70.1218V71.7275H198.858V70.0985C203.908 69.5633 204.792 68.7488 204.839 64.7693V33.4924C204.769 30.0482 203.698 29.1871 198.974 28.7682V27.1625H215.66L228.785 58.2766L241.98 27.1625H258.619V28.7682C253.895 29.0475 252.964 30.0482 252.825 34.8887V63.9781C252.964 68.7488 253.569 69.4236 258.619 70.0985V71.7275H258.666ZM262.226 33.3062H295.016V44.7325H293.62C292.177 37.1925 289.384 35.2145 280.169 35.2145C277.213 35.2145 276.445 35.7264 276.445 37.8907V51.1322C282.542 51.1787 284.8 49.1076 285.661 42.5915H287.104V61.8604H285.661C284.963 55.2513 282.636 53.0405 276.445 53.0405V66.794C276.445 69.284 277.492 69.9822 281.146 69.9822C285.498 69.9822 288.57 69.0513 291.176 66.9569C293.201 65.3278 294.364 63.6988 296.156 59.8823H297.715L295.458 71.7275H262.226V70.3312C266.299 69.9822 267.09 69.284 267.206 66.2587V38.775C267.09 35.7497 266.043 34.8887 262.226 34.7025V33.3062V33.3062ZM340.675 71.7275H329.016L317.24 53.9248H315.728V65.0719C315.844 69.1909 316.356 69.7727 320.708 70.3545V71.7508H301.509V70.3545C305.861 69.8891 306.372 69.3073 306.489 65.0719V39.9386C306.372 35.7497 305.558 34.9585 301.509 34.7258V33.3295H319.847C330.296 33.3295 335.858 36.8667 335.858 43.4293C335.858 45.9892 334.927 48.2931 333.298 49.8057C331.738 51.2486 330.272 51.9467 326.921 53.0637L338.348 69.2607C338.86 70.0054 339.628 70.3545 340.675 70.3545V71.7275V71.7275ZM315.728 52.1096C320.079 52.0631 321.988 51.714 323.5 50.7133C325.362 49.5032 326.177 47.2924 326.177 43.6388C326.177 37.658 324.036 35.2145 318.799 35.2145C317.357 35.2145 316.472 35.4937 316.123 36.0755C315.96 36.4246 315.728 37.2391 315.728 37.5882V52.1096V52.1096ZM382.633 52.6216C382.633 64.4668 374.279 72.8213 362.55 72.8213C350.775 72.8213 342.42 64.4668 342.42 52.6914C342.42 40.8462 350.844 32.4451 362.736 32.4451C374.232 32.4451 382.633 41.0323 382.633 52.6216ZM352.473 53.2034C352.473 64.7461 356.011 70.9596 362.503 70.9596C369.113 70.9596 372.603 64.7461 372.603 53.0405C372.603 41.1952 368.95 34.3069 362.69 34.3069C356.011 34.3069 352.473 40.916 352.473 53.2034ZM411.769 44.7325C410.559 41.0091 409.675 39.3335 407.767 37.3554C405.742 35.261 403.345 34.1672 400.739 34.1672C396.899 34.1672 394.525 36.3082 394.525 39.8455C394.525 42.6381 395.805 44.0344 400.39 46.2917L408.744 50.4806C412.398 52.2725 414.958 56.5777 414.958 60.8132C414.958 68.0041 409.279 72.8213 400.855 72.8213C398.365 72.8213 396.224 72.4257 393.478 71.425C392.268 71.0294 391.616 70.8432 391.151 70.8432C390.22 70.8432 389.824 71.3086 389.405 72.8213H387.776V58.7885H389.405C390.383 62.7447 391.151 64.653 392.78 66.7474C394.874 69.54 397.644 70.9828 401.018 70.9828C405.37 70.9828 408.162 68.423 408.162 64.5366C408.162 61.5113 406.766 59.9521 401.832 57.625L397.993 55.8331C391.267 52.575 388.312 48.9912 388.312 44.0577C388.312 36.8667 393.012 32.4451 400.739 32.4451C402.996 32.4451 404.811 32.7942 407.418 33.7251C408.628 34.1207 409.279 34.3069 409.791 34.3069C410.838 34.3069 411.188 33.9113 411.653 32.3986H413.329V44.7325H411.769V44.7325Z" fill="black"/>
<path d="M136 100C163.614 100 186 77.6142 186 50C186 22.3858 163.614 0 136 0C108.386 0 86 22.3858 86 50C86 77.6142 108.386 100 136 100Z" fill="#266DE5"/>
<path d="M102.397 20.9257C102.304 20.8326 102.141 20.7861 102.002 20.8559C101.862 20.9025 101.769 21.0421 101.769 21.1817L101.746 71.169C101.746 71.2621 101.792 71.3552 101.862 71.425L118.268 87.8314C118.338 87.9013 118.431 87.9478 118.524 87.9478C118.571 87.9478 118.617 87.9478 118.664 87.9245C118.804 87.878 118.897 87.7384 118.897 87.5987L118.967 51.1787C118.967 51.0857 118.92 50.9926 118.85 50.9228L112.008 44.0809C111.915 43.9878 111.752 43.9413 111.613 44.0111C111.473 44.0576 111.38 44.1973 111.38 44.3369L111.403 70.052L109.379 68.0274L109.332 38.4957L128.927 58.0671C128.997 58.1369 129.09 58.1835 129.183 58.1835C129.276 58.1835 129.369 58.1369 129.439 58.0671L134.233 53.2499C134.372 53.1103 134.372 52.8776 134.233 52.7379L102.397 20.9257ZM170.001 20.693C169.861 20.6465 169.722 20.6697 169.605 20.7628L162.764 27.6047C162.694 27.6745 162.647 27.7676 162.647 27.8607V68.1204L160.576 70.1683V17.0161C160.576 16.8765 160.483 16.7369 160.343 16.6903C160.204 16.6438 160.064 16.667 159.948 16.7601L137.677 39.031C137.607 39.1008 137.561 39.1939 137.561 39.287C137.561 39.3801 137.607 39.4732 137.677 39.543L142.517 44.3835C142.657 44.5231 142.89 44.5231 143.029 44.3835L152.99 34.4232V87.5987C152.99 87.7384 153.083 87.878 153.222 87.9245C153.269 87.9478 153.315 87.9478 153.362 87.9478C153.455 87.9478 153.548 87.9013 153.618 87.8314L170.071 71.3552C170.141 71.2854 170.187 71.1923 170.187 71.0992V21.0188C170.234 20.8792 170.141 20.7396 170.001 20.693V20.693Z" fill="white"/>
<path d="M150.778 39.9851C150.639 39.9386 150.499 39.9619 150.383 40.0549L142.82 47.5716L112.008 16.8299C111.915 16.7368 111.752 16.6903 111.612 16.7601C111.473 16.8067 111.38 16.9463 111.38 17.0859L111.356 26.7436C111.356 26.8367 111.403 26.9298 111.473 26.9996L142.587 58.0671C142.657 58.1369 142.75 58.1835 142.843 58.1835C142.936 58.1835 143.029 58.1369 143.099 58.0671L150.895 50.2711C150.965 50.2013 151.011 50.1082 151.011 50.0152V40.3109C150.988 40.1713 150.918 40.0317 150.778 39.9851V39.9851Z" fill="white"/>
</svg>
