<svg version="1.1" id="Layer_1" xmlns="http://www.w3.org/2000/svg" x="0" y="0" viewBox="0 0 1450.3 485.2" style="enable-background:new 0 0 1450.3 485.2" xml:space="preserve"><style>.st4{fill:#fff}</style><path class="st2" d="M760.3 336h-94v-7c20.8-1.7 24.6-5.2 25.2-21.4v-144L620 336h-7.5L541 167.9V301c.3 20.8 5.8 26.3 28.6 28.1v6.9h-66.3v-7c21.7-2.3 25.5-5.8 25.7-22.9V171.7c-.3-14.8-4.9-18.5-25.2-20.3v-6.9h71.7l56.4 133.7 56.7-133.7h71.5v6.9c-20.3 1.2-24.3 5.5-24.9 26.3v125c.6 20.5 3.2 23.4 24.9 26.3v7zm15.3-165.1h140.9V220h-6c-6.2-32.4-18.2-40.9-57.8-40.9-12.7 0-16 2.2-16 11.5v56.9c26.2.2 35.9-8.7 39.6-36.7h6.2v82.8h-6.2c-3-28.4-13-37.9-39.6-37.9v59.1c0 10.7 4.5 13.7 20.2 13.7 18.7 0 31.9-4 43.1-13 8.7-7 13.7-14 21.4-30.4h6.7l-9.7 50.9H775.6v-6c17.5-1.5 20.9-4.5 21.4-17.5V194.4c-.5-13-5-16.7-21.4-17.5v-6zM1112.7 336h-50.1l-50.6-76.5h-6.5v47.9c.5 17.7 2.7 20.2 21.4 22.7v6h-82.5v-6c18.7-2 20.9-4.5 21.4-22.7v-108c-.5-18-4-21.4-21.4-22.4v-6h78.8c44.9 0 68.8 15.2 68.8 43.4 0 11-4 20.9-11 27.4-6.7 6.2-13 9.2-27.4 14l49.1 69.6c2.2 3.2 5.5 4.7 10 4.7v5.9zm-107.2-84.3c18.7-.2 26.9-1.7 33.4-6 8-5.2 11.5-14.7 11.5-30.4 0-25.7-9.2-36.2-31.7-36.2-6.2 0-10 1.2-11.5 3.7-.7 1.5-1.7 5-1.7 6.5v62.4zm287.5 2.2c0 50.9-35.9 86.8-86.3 86.8-50.6 0-86.5-35.9-86.5-86.5 0-50.9 36.2-87 87.3-87 49.4 0 85.5 36.9 85.5 86.7zm-129.6 2.5c0 49.6 15.2 76.3 43.1 76.3 28.4 0 43.4-26.7 43.4-77 0-50.9-15.7-80.5-42.6-80.5-28.7 0-43.9 28.4-43.9 81.2zm254.8-36.4c-5.2-16-9-23.2-17.2-31.7-8.7-9-19-13.7-30.2-13.7-16.5 0-26.7 9.2-26.7 24.4 0 12 5.5 18 25.2 27.7l35.9 18c15.7 7.7 26.7 26.2 26.7 44.4 0 30.9-24.4 51.6-60.6 51.6-10.7 0-19.9-1.7-31.7-6-5.2-1.7-8-2.5-10-2.5-4 0-5.7 2-7.5 8.5h-7v-60.3h7c4.2 17 7.5 25.2 14.5 34.2 9 12 20.9 18.2 35.4 18.2 18.7 0 30.7-11 30.7-27.7 0-13-6-19.7-27.2-29.7l-16.5-7.7c-28.9-14-41.6-29.4-41.6-50.6 0-30.9 20.2-49.9 53.4-49.9 9.7 0 17.5 1.5 28.7 5.5 5.2 1.7 8 2.5 10.2 2.5 4.5 0 6-1.7 8-8.2h7.2v53h-6.7z"/><circle cx="-131.8" cy="207.9" r="212.2" style="fill-rule:evenodd;clip-rule:evenodd;fill:#266de5" transform="translate(366.644 32.134) scale(1.01251)"/><path class="st4" d="M88.8 117.7c-.4-.4-1.1-.6-1.7-.3-.6.2-1 .8-1 1.4L86 333.6c0 .4.2.8.5 1.1l70.5 70.5c.3.3.7.5 1.1.5.2 0 .4 0 .6-.1.6-.2 1-.8 1-1.4l.3-156.5c0-.4-.2-.8-.5-1.1l-29.4-29.4c-.4-.4-1.1-.6-1.7-.3-.6.2-1 .8-1 1.4l.1 110.5-8.7-8.7-.2-126.9 84.2 84.1c.3.3.7.5 1.1.5.4 0 .8-.2 1.1-.5l20.6-20.7c.6-.6.6-1.6 0-2.2L88.8 117.7zm290.5-1c-.6-.2-1.2-.1-1.7.3l-29.4 29.4c-.3.3-.5.7-.5 1.1v173l-8.9 8.8V100.9c0-.6-.4-1.2-1-1.4-.6-.2-1.2-.1-1.7.3l-95.7 95.7c-.3.3-.5.7-.5 1.1 0 .4.2.8.5 1.1l20.8 20.8c.6.6 1.6.6 2.2 0l42.8-42.8v228.5c0 .6.4 1.2 1 1.4.2.1.4.1.6.1.4 0 .8-.2 1.1-.5l70.7-70.8c.3-.3.5-.7.5-1.1V118.1c.2-.6-.2-1.2-.8-1.4z"/><path class="st4" d="M296.7 199.6c-.6-.2-1.2-.1-1.7.3l-32.5 32.3-132.4-132.1c-.4-.4-1.1-.6-1.7-.3-.6.2-1 .8-1 1.4l-.1 41.5c0 .4.2.8.5 1.1l133.7 133.5c.3.3.7.5 1.1.5.4 0 .8-.2 1.1-.5l33.5-33.5c.3-.3.5-.7.5-1.1V201c-.1-.6-.4-1.2-1-1.4z"/></svg>