<svg width="500" height="100" viewBox="0 0 500 100" fill="none" xmlns="http://www.w3.org/2000/svg">
<path d="M258.365 71.7275H236.528V70.0985C241.36 69.7029 242.242 68.8883 242.382 65.1185V31.6074L225.772 71.7275H224.029L207.419 32.6081V63.5825C207.489 68.423 208.767 69.7029 214.063 70.1218V71.7275H198.661V70.0985C203.702 69.5633 204.585 68.7488 204.631 64.7693V33.4923C204.562 30.0483 203.493 29.1872 198.777 28.7683V27.1626H215.434L228.536 58.2766L241.708 27.1626H258.318V28.7683C253.602 29.0475 252.673 30.0483 252.534 34.8886V63.978C252.673 68.7488 253.277 69.4236 258.318 70.0985V71.7275H258.365ZM261.919 33.3062H294.652V44.7325H293.257C291.817 37.1926 289.03 35.2144 279.83 35.2144C276.879 35.2144 276.113 35.7264 276.113 37.8906V51.1321C282.199 51.1787 284.454 49.1075 285.313 42.5915H286.754V61.8604H285.313C284.616 55.2513 282.292 53.0405 276.113 53.0405V66.794C276.113 69.2841 277.158 69.9821 280.806 69.9821C285.149 69.9821 288.216 69.0513 290.819 66.9568C292.84 65.3279 294 63.6989 295.791 59.8824H297.346L295.093 71.7275H261.919V70.3312C265.985 69.9821 266.774 69.2841 266.89 66.2587V38.775C266.774 35.7497 265.728 34.8886 261.919 34.7025V33.3062ZM340.231 71.7275H328.592L316.838 53.9247H315.326V65.0718C315.443 69.1908 315.955 69.7727 320.298 70.3546V71.7509H301.132V70.3546C305.478 69.8891 305.987 69.3072 306.104 65.0718V39.9386C305.987 35.7497 305.175 34.9585 301.132 34.7258V33.3295H319.439C329.87 33.3295 335.421 36.8668 335.421 43.4292C335.421 45.9891 334.493 48.2931 332.866 49.8058C331.311 51.2485 329.847 51.9467 326.501 53.0637L337.907 69.2608C338.419 70.0054 339.186 70.3546 340.231 70.3546V71.7275ZM315.326 52.1096C319.672 52.0631 321.577 51.714 323.087 50.7132C324.944 49.5033 325.758 47.2923 325.758 43.6387C325.758 37.6579 323.62 35.2144 318.393 35.2144C316.953 35.2144 316.071 35.4938 315.722 36.0755C315.56 36.4246 315.326 37.239 315.326 37.5881V52.1096ZM382.117 52.6215C382.117 64.4668 373.776 72.8214 362.067 72.8214C350.313 72.8214 341.972 64.4668 341.972 52.6914C341.972 40.8462 350.382 32.4451 362.253 32.4451C373.73 32.4451 382.117 41.0324 382.117 52.6215ZM352.009 53.2034C352.009 64.746 355.54 70.9596 362.022 70.9596C368.62 70.9596 372.104 64.746 372.104 53.0405C372.104 41.1952 368.456 34.3069 362.207 34.3069C355.54 34.3069 352.009 40.916 352.009 53.2034ZM411.201 44.7325C409.994 41.0091 409.11 39.3336 407.205 37.3554C405.186 35.261 402.793 34.1672 400.19 34.1672C396.356 34.1672 393.987 36.3082 393.987 39.8455C393.987 42.6381 395.266 44.0344 399.842 46.2918L408.181 50.4805C411.829 52.2725 414.384 56.5776 414.384 60.8132C414.384 68.0041 408.715 72.8214 400.307 72.8214C397.821 72.8214 395.683 72.4256 392.942 71.425C391.734 71.0293 391.084 70.8432 390.62 70.8432C389.689 70.8432 389.294 71.3087 388.877 72.8214H387.251V58.7886H388.877C389.853 62.7447 390.62 64.653 392.244 66.7473C394.335 69.5399 397.1 70.9829 400.469 70.9829C404.812 70.9829 407.6 68.423 407.6 64.5366C407.6 61.5112 406.207 59.9521 401.283 57.625L397.449 55.833C390.735 52.575 387.784 48.9911 387.784 44.0577C387.784 36.8668 392.477 32.4451 400.19 32.4451C402.443 32.4451 404.255 32.7942 406.857 33.725C408.065 34.1206 408.715 34.3069 409.227 34.3069C410.272 34.3069 410.62 33.9112 411.086 32.3987H412.758V44.7325H411.201Z" fill="black"/>
<path fill-rule="evenodd" clip-rule="evenodd" d="M135.913 100C163.479 100 185.826 77.6142 185.826 49.9999C185.826 22.3858 163.479 0 135.913 0C108.347 0 86 22.3858 86 49.9999C86 77.6142 108.347 100 135.913 100ZM102.368 20.9258C102.276 20.8327 102.113 20.7861 101.974 20.8558C101.834 20.9024 101.741 21.0421 101.741 21.1816L101.718 71.169C101.718 71.2621 101.765 71.3551 101.834 71.425L118.212 87.8314C118.282 87.9011 118.375 87.9478 118.468 87.9478C118.514 87.9478 118.56 87.9478 118.607 87.9244C118.746 87.878 118.839 87.7383 118.839 87.5986L118.909 51.1787C118.909 51.0857 118.863 50.9926 118.793 50.9227L111.963 44.0809C111.87 43.9878 111.707 43.9414 111.568 44.0111C111.428 44.0575 111.336 44.1972 111.336 44.3369L111.359 70.0519L109.338 68.0273L109.291 38.4956L128.852 58.067C128.921 58.1369 129.014 58.1834 129.107 58.1834C129.2 58.1834 129.293 58.1369 129.363 58.067L134.148 53.25C134.288 53.1103 134.288 52.8775 134.148 52.7379L102.368 20.9258ZM169.854 20.693C169.715 20.6464 169.576 20.6697 169.46 20.7628L162.63 27.6046C162.56 27.6745 162.514 27.7676 162.514 27.8606V68.1203L160.446 70.1683V17.016C160.446 16.8765 160.353 16.7368 160.214 16.6902C160.074 16.6438 159.935 16.6671 159.819 16.7602L137.587 39.0309C137.517 39.1008 137.471 39.1939 137.471 39.2869C137.471 39.38 137.517 39.4731 137.587 39.543L142.419 44.3834C142.558 44.523 142.79 44.523 142.93 44.3834L152.873 34.4233V87.5986C152.873 87.7383 152.966 87.878 153.105 87.9244C153.151 87.9478 153.198 87.9478 153.244 87.9478C153.337 87.9478 153.43 87.9011 153.5 87.8314L169.924 71.3551C169.994 71.2854 170.04 71.1923 170.04 71.0992V21.0188C170.087 20.8791 169.994 20.7396 169.854 20.693ZM150.271 40.0549C150.387 39.9619 150.526 39.9386 150.666 39.9852C150.805 40.0316 150.875 40.1713 150.898 40.311V50.0152C150.898 50.1083 150.851 50.2013 150.782 50.2711L142.999 58.067C142.93 58.1369 142.837 58.1834 142.744 58.1834C142.651 58.1834 142.558 58.1369 142.488 58.067L111.428 26.9996C111.359 26.9298 111.312 26.8368 111.312 26.7435L111.336 17.086C111.336 16.9463 111.428 16.8066 111.568 16.7602C111.707 16.6902 111.87 16.7368 111.963 16.8299L142.721 47.5717L150.271 40.0549Z" fill="black"/>
</svg>
