<?xml version="1.0" encoding="utf-8"?>
<!-- Generator: Adobe Illustrator 25.0.0, SVG Export Plug-In . SVG Version: 6.00 Build 0)  -->
<svg version="1.1" id="Layer_1" xmlns="http://www.w3.org/2000/svg" xmlns:xlink="http://www.w3.org/1999/xlink" x="0px" y="0px"
	 viewBox="0 0 1450.3 485.2" style="enable-background:new 0 0 1450.3 485.2;" xml:space="preserve">
<style type="text/css">
	.st0{fill:#276DC1;}
	.st1{fill-rule:evenodd;clip-rule:evenodd;fill:#266DE5;}
	.st3{fill-rule:evenodd;clip-rule:evenodd;fill:#266DE5;}
	.st4{fill:#FFFFFF;}
	.st5{fill:#FFFFFF;stroke:#276DC1;stroke-width:2;stroke-miterlimit:10;}
	.st6{opacity:0.5;}
	.st7{opacity:0.15;}
	.st8{fill:#FFFFFF;stroke:#FFFFFF;stroke-width:2;stroke-miterlimit:10;}
	.st9{opacity:0.1;fill:url(#SVGID_5_);stroke:#FFFFFF;stroke-miterlimit:10;}
	.st10{fill:#276DC1;stroke:#FFFFFF;stroke-width:2;stroke-miterlimit:10;}
	.st11{fill:none;stroke:#FFFFFF;stroke-width:2;stroke-miterlimit:10;}
	.st12{opacity:0.3;}
	.st13{fill:#276DC1;stroke:#FFFFFF;stroke-width:2;stroke-linejoin:bevel;stroke-miterlimit:10;}
	.st14{fill:#276DC1;stroke:#FFFFFF;stroke-width:2;stroke-miterlimit:10;stroke-dasharray:12;}
	.st15{fill:none;stroke:#FFFFFF;stroke-width:15;stroke-linecap:square;stroke-linejoin:bevel;stroke-miterlimit:10;}
	.st16{fill:none;stroke:#FFFFFF;stroke-width:50;stroke-miterlimit:10;}
	.st17{fill:#666666;stroke:#666666;stroke-width:50;stroke-miterlimit:10;}
	.st18{fill:none;stroke:#666666;stroke-width:50;stroke-miterlimit:10;}
	.st19{opacity:0.1;}
	.st20{fill:url(#SVGID_6_);}
	.st21{fill:none;stroke:#FFFFFF;stroke-width:2;stroke-miterlimit:10;stroke-dasharray:12;}
	.st22{opacity:0.2;}
	.st23{opacity:5.000000e-02;fill:url(#SVGID_7_);}
	.st24{opacity:0.1;fill:url(#SVGID_8_);}
	.st25{opacity:5.000000e-02;fill:url(#SVGID_9_);}
	.st26{opacity:5.000000e-02;fill:url(#SVGID_10_);}
	.st27{fill:none;stroke:url(#SVGID_11_);stroke-width:2;stroke-miterlimit:10;}
	.st28{fill:none;stroke:url(#SVGID_12_);stroke-width:2;stroke-miterlimit:10;stroke-dasharray:12;}
	.st29{opacity:0.1;fill:url(#SVGID_13_);}
	.st30{fill:#276DC1;stroke:#FFFFFF;stroke-width:2;stroke-linejoin:round;stroke-miterlimit:10;}
	.st31{fill:none;stroke:#276DC1;stroke-width:75;stroke-miterlimit:10;}
	.st32{opacity:0.1;fill:url(#SVGID_14_);}
	.st33{fill:none;stroke:#276DC1;stroke-width:3;stroke-miterlimit:10;}
	.st34{fill:none;stroke:#276DC1;stroke-width:3;stroke-miterlimit:10;stroke-dasharray:12.2041,12.2041;}
	.st35{fill:#FFFFFF;stroke:#276DC1;stroke-width:3;stroke-miterlimit:10;}
	.st36{fill:#FFFFFF;stroke:#276DC1;stroke-width:3;stroke-miterlimit:10;stroke-dasharray:12;}
	.st37{fill:none;stroke:#276DC1;stroke-width:3;stroke-miterlimit:10;stroke-dasharray:14.5903,14.5903;}
	.st38{fill:none;}
</style>
<g>
	<g>
		<path class="st2" d="M760.3,336h-94V329c20.8-1.7,24.6-5.2,25.2-21.4V163.6L620,336h-7.5L541,167.9V301
			c0.3,20.8,5.8,26.3,28.6,28.1v6.9h-66.3V329c21.7-2.3,25.5-5.8,25.7-22.9V171.7c-0.3-14.8-4.9-18.5-25.2-20.3v-6.9h71.7
			l56.4,133.7l56.7-133.7h71.5v6.9c-20.3,1.2-24.3,5.5-24.9,26.3v125c0.6,20.5,3.2,23.4,24.9,26.3V336z"/>
		<path class="st2" d="M775.6,170.9h140.9V220h-6c-6.2-32.4-18.2-40.9-57.8-40.9c-12.7,0-16,2.2-16,11.5v56.9
			c26.2,0.2,35.9-8.7,39.6-36.7h6.2v82.8h-6.2c-3-28.4-13-37.9-39.6-37.9v59.1c0,10.7,4.5,13.7,20.2,13.7c18.7,0,31.9-4,43.1-13
			c8.7-7,13.7-14,21.4-30.4h6.7l-9.7,50.9H775.6v-6c17.5-1.5,20.9-4.5,21.4-17.5V194.4c-0.5-13-5-16.7-21.4-17.5V170.9z"/>
		<path class="st2" d="M1112.7,336h-50.1l-50.6-76.5h-6.5v47.9c0.5,17.7,2.7,20.2,21.4,22.7v6h-82.5v-6c18.7-2,20.9-4.5,21.4-22.7
			v-108c-0.5-18-4-21.4-21.4-22.4v-6h78.8c44.9,0,68.8,15.2,68.8,43.4c0,11-4,20.9-11,27.4c-6.7,6.2-13,9.2-27.4,14l49.1,69.6
			c2.2,3.2,5.5,4.7,10,4.7V336z M1005.5,251.7c18.7-0.2,26.9-1.7,33.4-6c8-5.2,11.5-14.7,11.5-30.4c0-25.7-9.2-36.2-31.7-36.2
			c-6.2,0-10,1.2-11.5,3.7c-0.7,1.5-1.7,5-1.7,6.5V251.7z"/>
		<path class="st2" d="M1293,253.9c0,50.9-35.9,86.8-86.3,86.8c-50.6,0-86.5-35.9-86.5-86.5c0-50.9,36.2-87,87.3-87
			C1256.9,167.2,1293,204.1,1293,253.9z M1163.4,256.4c0,49.6,15.2,76.3,43.1,76.3c28.4,0,43.4-26.7,43.4-77
			c0-50.9-15.7-80.5-42.6-80.5C1178.6,175.2,1163.4,203.6,1163.4,256.4z"/>
		<path class="st2" d="M1418.2,220c-5.2-16-9-23.2-17.2-31.7c-8.7-9-19-13.7-30.2-13.7c-16.5,0-26.7,9.2-26.7,24.4
			c0,12,5.5,18,25.2,27.7l35.9,18c15.7,7.7,26.7,26.2,26.7,44.4c0,30.9-24.4,51.6-60.6,51.6c-10.7,0-19.9-1.7-31.7-6
			c-5.2-1.7-8-2.5-10-2.5c-4,0-5.7,2-7.5,8.5h-7v-60.3h7c4.2,17,7.5,25.2,14.5,34.2c9,12,20.9,18.2,35.4,18.2
			c18.7,0,30.7-11,30.7-27.7c0-13-6-19.7-27.2-29.7l-16.5-7.7c-28.9-14-41.6-29.4-41.6-50.6c0-30.9,20.2-49.9,53.4-49.9
			c9.7,0,17.5,1.5,28.7,5.5c5.2,1.7,8,2.5,10.2,2.5c4.5,0,6-1.7,8-8.2h7.2V220H1418.2z"/>
	</g>
	<g>
		<g transform="matrix(1.01251,0,0,1.01251,366.644,32.1341)">
			<g>
				<circle class="st3" cx="-131.8" cy="207.9" r="212.2"/>
			</g>
		</g>
		<g>
			<path class="st4" d="M88.8,117.7c-0.4-0.4-1.1-0.6-1.7-0.3c-0.6,0.2-1,0.8-1,1.4l-0.1,214.8c0,0.4,0.2,0.8,0.5,1.1l70.5,70.5
				c0.3,0.3,0.7,0.5,1.1,0.5c0.2,0,0.4,0,0.6-0.1c0.6-0.2,1-0.8,1-1.4l0.3-156.5c0-0.4-0.2-0.8-0.5-1.1l-29.4-29.4
				c-0.4-0.4-1.1-0.6-1.7-0.3c-0.6,0.2-1,0.8-1,1.4l0.1,110.5l-8.7-8.7l-0.2-126.9l84.2,84.1c0.3,0.3,0.7,0.5,1.1,0.5c0,0,0,0,0,0
				c0.4,0,0.8-0.2,1.1-0.5l20.6-20.7c0.6-0.6,0.6-1.6,0-2.2L88.8,117.7z"/>
			<path class="st4" d="M379.3,116.7c-0.6-0.2-1.2-0.1-1.7,0.3l-29.4,29.4c-0.3,0.3-0.5,0.7-0.5,1.1l0,173l-8.9,8.8V100.9
				c0-0.6-0.4-1.2-1-1.4c-0.6-0.2-1.2-0.1-1.7,0.3l-95.7,95.7c-0.3,0.3-0.5,0.7-0.5,1.1c0,0.4,0.2,0.8,0.5,1.1l20.8,20.8
				c0.6,0.6,1.6,0.6,2.2,0l42.8-42.8v228.5c0,0.6,0.4,1.2,1,1.4c0.2,0.1,0.4,0.1,0.6,0.1c0.4,0,0.8-0.2,1.1-0.5l70.7-70.8
				c0.3-0.3,0.5-0.7,0.5-1.1l0-215.2C380.3,117.5,379.9,116.9,379.3,116.7z"/>
			<path class="st4" d="M296.7,199.6c-0.6-0.2-1.2-0.1-1.7,0.3l-32.5,32.3L130.1,100.1c-0.4-0.4-1.1-0.6-1.7-0.3
				c-0.6,0.2-1,0.8-1,1.4l-0.1,41.5c0,0.4,0.2,0.8,0.5,1.1l133.7,133.5c0.3,0.3,0.7,0.5,1.1,0.5c0.4,0,0.8-0.2,1.1-0.5l33.5-33.5
				c0.3-0.3,0.5-0.7,0.5-1.1V201C297.6,200.4,297.3,199.8,296.7,199.6z"/>
		</g>
	</g>
</g>
</svg>
