<svg width="500" height="100" viewBox="0 0 500 100" fill="none" xmlns="http://www.w3.org/2000/svg">
<path d="M95 83.9796H109.319V44.0385H116.854L100.941 21.7835L125.323 83.9796H134.631L159.014 21.7835L143.098 44.0385H150.636V83.9796H164.955V20.0111H146.157L130.155 61.77H129.843L113.841 20.0131H95V83.9796ZM173.686 83.9796H189.424V35.7038H173.686V83.9796ZM181.533 30.517C183.809 30.517 185.716 29.7472 187.253 28.2117C188.789 26.6742 189.556 24.8565 189.556 22.7585C189.556 20.6309 188.789 18.8131 187.253 17.3072C185.714 15.7697 183.809 15 181.531 15C179.285 15 177.379 15.7697 175.812 17.3052C174.276 18.8111 173.508 20.6289 173.508 22.7565C173.508 24.8565 174.276 26.6723 175.814 28.2097C177.379 29.7472 179.285 30.515 181.531 30.515L181.533 30.517ZM197.137 83.9796H212.875V56.5851C212.875 54.7812 213.201 53.2003 213.85 51.8404C214.483 50.5345 215.465 49.4297 216.688 48.649C217.898 47.8793 219.333 47.4964 220.987 47.4964C223.559 47.4964 225.495 48.278 226.795 49.8451C228.096 51.3826 228.745 53.524 228.745 56.2733V83.9796H244.483V52.9042C244.483 47.1708 243.035 42.7083 240.137 39.5169C237.272 36.2939 233.178 34.6834 227.859 34.6834C224.224 34.6834 221.18 35.5123 218.727 37.1662C216.274 38.8221 214.427 41.1728 213.185 44.2142H212.875V35.7038H197.137V83.9796V83.9796ZM272.812 85C274.465 85 275.898 84.9408 277.11 84.8224C278.149 84.7268 279.184 84.5938 280.213 84.4237V73.2527L278.882 73.4304C278.44 73.458 277.894 73.4738 277.244 73.4738C275.35 73.4738 273.933 73.0455 272.987 72.187C272.04 71.3008 271.568 69.8245 271.568 67.7541V47.228H280.213V35.7038H271.568V24.5762H255.787V35.7038H249.226V47.23H255.787V69.8817C255.787 75.3211 257.16 79.2073 259.91 81.5421C262.687 83.8474 266.987 85 272.81 85H272.812ZM307.653 85C309.309 85 310.741 84.9408 311.953 84.8224C313.165 84.7039 314.199 84.5717 315.056 84.4237V73.2527L313.728 73.4304C313.181 73.4615 312.633 73.476 312.085 73.4738C310.195 73.4738 308.776 73.0455 307.83 72.187C306.885 71.3008 306.411 69.8245 306.411 67.7541V47.228H315.056V35.7038H306.411V24.5762H290.63V35.7038H284.069V47.23H290.63V69.8817C290.63 75.3211 292.005 79.2073 294.753 81.5421C297.532 83.8474 301.83 85 307.653 85V85ZM344.227 85C348.097 85 351.393 84.5105 354.111 83.5355C356.86 82.531 359.122 81.2303 360.894 79.6356C362.696 78.0389 364.101 76.3396 365.106 74.5376C366.111 72.7041 366.79 70.9455 367.145 69.262L367.277 68.7291H353.092L353.047 68.9067C352.812 69.5876 352.338 70.312 351.63 71.0778C350.949 71.8475 350.019 72.4988 348.837 73.0317C347.655 73.5626 346.22 73.8271 344.536 73.8271C342.587 73.8271 340.901 73.3988 339.482 72.5442C338.094 71.656 337.015 70.3988 336.247 68.7745C335.507 67.1482 335.138 65.1982 335.138 62.9226V56.8042C335.138 54.499 335.507 52.5352 336.247 50.9089C336.985 49.2549 338.019 47.9977 339.35 47.1411C340.71 46.2846 342.275 45.8563 344.049 45.8563C345.821 45.8563 347.373 46.2846 348.703 47.1411C350.033 47.9701 351.067 49.2095 351.805 50.8655C352.546 52.4898 352.915 54.4694 352.915 56.8062V62.8792L360.229 54.1457H327.425V63.4535H367.589V58.843C367.589 53.9661 366.612 49.7247 364.662 46.1188C362.712 42.4853 359.949 39.6767 356.373 37.6972C352.796 35.688 348.571 34.6814 343.694 34.6814C338.817 34.6814 334.577 35.7018 330.971 37.7406C327.395 39.7794 324.616 42.6747 322.637 46.4306C320.687 50.1826 319.712 54.645 319.712 59.818V59.8614C319.712 65.064 320.687 69.5403 322.637 73.2942C324.616 77.0481 327.439 79.9454 331.104 81.9823C334.769 83.9934 339.142 84.998 344.227 84.998V85ZM373.662 83.9796H389.398V58.3575C389.398 56.0819 389.783 54.1733 390.551 52.6378C391.301 51.1212 392.511 49.88 394.008 49.0911C395.546 48.2938 397.423 47.8951 399.639 47.8951C400.585 47.8951 401.487 47.9681 402.343 48.1161C403.229 48.2642 403.997 48.4852 404.648 48.7813V35.3051C404.056 35.0978 403.407 34.9498 402.698 34.861C401.995 34.7407 401.283 34.6813 400.569 34.6834C397.703 34.6834 395.339 35.5123 393.477 37.1662C391.644 38.8221 390.389 41.1866 389.71 44.2596H389.398V35.7038H373.662V83.9796V83.9796Z" fill="white"/>
</svg>
