<svg width="158" height="36" fill="none" xmlns="http://www.w3.org/2000/svg"><path d="M.448 35h7.255V14.763h3.818L3.458 3.487 15.812 35h4.716L32.882 3.487l-8.064 11.276h3.819V35h7.255V2.589h-9.524L18.26 23.747h-.158L9.994 2.59H.448V35Zm39.868 0h7.974V10.54h-7.974V35Zm3.976-27.088c1.153 0 2.119-.39 2.898-1.168.778-.779 1.167-1.7 1.167-2.763 0-1.078-.389-1.999-1.167-2.762C46.41.44 45.445.05 44.291.05c-1.138 0-2.104.39-2.898 1.168-.778.763-1.167 1.684-1.167 2.762 0 1.064.389 1.984 1.168 2.763.793.779 1.759 1.168 2.897 1.168ZM52.198 35h7.974V21.12c0-.914.165-1.715.494-2.404a3.972 3.972 0 0 1 1.438-1.617c.613-.39 1.34-.584 2.178-.584 1.303 0 2.284.396 2.943 1.19.659.779.988 1.864.988 3.257V35h7.974V19.255c0-2.905-.734-5.166-2.202-6.783-1.452-1.633-3.526-2.449-6.221-2.449-1.842 0-3.384.42-4.627 1.258-1.243.839-2.179 2.03-2.808 3.571h-.157V10.54h-7.974V35Zm38.342.517c.838 0 1.564-.03 2.178-.09a22.01 22.01 0 0 0 1.572-.202v-5.66l-.674.09c-.224.014-.501.022-.83.022-.96 0-1.678-.217-2.157-.652-.48-.449-.719-1.197-.719-2.246v-10.4h4.38V10.54h-4.38V4.902h-7.996v5.638H78.59v5.84h3.324v11.477c0 2.756.696 4.725 2.089 5.908 1.407 1.168 3.586 1.752 6.536 1.752Zm17.653 0c.839 0 1.565-.03 2.179-.09.614-.06 1.138-.127 1.572-.202v-5.66l-.673.09a13.65 13.65 0 0 1-.832.022c-.958 0-1.677-.217-2.156-.652-.479-.449-.719-1.197-.719-2.246v-10.4h4.38V10.54h-4.38V4.902h-7.996v5.638h-3.324v5.84h3.324v11.477c0 2.756.697 4.725 2.089 5.908 1.408 1.168 3.586 1.752 6.536 1.752Zm18.531 0c1.961 0 3.631-.248 5.008-.742 1.393-.509 2.539-1.168 3.437-1.976.913-.809 1.625-1.67 2.134-2.583.509-.929.853-1.82 1.033-2.673l.067-.27h-7.187l-.023.09c-.119.345-.359.712-.718 1.1-.345.39-.816.72-1.415.99-.599.269-1.326.403-2.179.403-.988 0-1.842-.217-2.561-.65-.703-.45-1.25-1.087-1.639-1.91-.375-.824-.562-1.812-.562-2.965v-3.1c0-1.168.187-2.163.562-2.987.374-.838.898-1.475 1.572-1.909.689-.434 1.482-.651 2.381-.651.898 0 1.684.217 2.358.651.674.42 1.198 1.048 1.572 1.887.375.823.562 1.826.562 3.01v3.077l3.706-4.425h-16.621V24.6h20.35v-2.336c0-2.471-.495-4.62-1.483-6.447-.988-1.841-2.388-3.264-4.2-4.267-1.812-1.018-3.953-1.528-6.424-1.528-2.471 0-4.619.517-6.446 1.55-1.812 1.033-3.22 2.5-4.223 4.403-.988 1.901-1.482 4.162-1.482 6.783v.022c0 2.636.494 4.904 1.482 6.806 1.003 1.902 2.433 3.37 4.29 4.402 1.857 1.019 4.073 1.528 6.649 1.528ZM141.638 35h7.973V22.018c0-1.153.195-2.12.584-2.898a4.074 4.074 0 0 1 1.752-1.797c.779-.404 1.73-.606 2.853-.606.479 0 .936.037 1.37.112.449.075.838.187 1.168.337v-6.828c-.3-.105-.629-.18-.988-.225a6.294 6.294 0 0 0-1.079-.09c-1.452 0-2.65.42-3.593 1.258-.929.839-1.565 2.037-1.909 3.594h-.158V10.54h-7.973V35Z" fill="#fff"/></svg>