<svg width="500" height="100" viewBox="0 0 500 100" fill="none" xmlns="http://www.w3.org/2000/svg">
<path fill-rule="evenodd" clip-rule="evenodd" d="M206.48 33.5796L206.749 38.3883C209.819 34.6691 213.848 32.8095 218.837 32.8095C227.481 32.8095 231.88 37.7714 232.033 47.6952V75.1913H222.713V48.2334C222.713 45.5927 222.145 43.639 221.007 42.3679C219.869 41.099 218.007 40.4645 215.424 40.4645C211.663 40.4645 208.86 42.171 207.023 45.5796V75.1913H197.698V33.5796H206.484H206.48ZM259.814 75.9614C253.907 75.9614 249.116 74.0974 245.447 70.3672C241.776 66.637 239.94 61.6686 239.94 55.464V54.311C239.94 50.1586 240.739 46.4459 242.338 43.1774C243.935 39.9088 246.182 37.3644 249.072 35.542C251.962 33.724 255.185 32.8139 258.742 32.8139C264.393 32.8139 268.762 34.621 271.842 38.2352C274.927 41.8516 276.467 46.9645 276.467 53.5803V57.3499H249.339C249.623 60.7847 250.765 63.5019 252.774 65.5016C254.782 67.5012 257.309 68.501 260.352 68.501C264.623 68.501 268.101 66.7727 270.788 63.3094L275.813 68.1182C274.15 70.6035 271.932 72.5331 269.158 73.9048C266.382 75.2766 263.268 75.9614 259.816 75.9614H259.814ZM258.702 40.3136C256.143 40.3136 254.08 41.2106 252.507 43.0046C250.931 44.7985 249.929 47.2992 249.494 50.5043H267.259V49.8108C267.053 46.6822 266.222 44.3194 264.765 42.7158C263.306 41.1143 261.286 40.3136 258.702 40.3136V40.3136ZM295.381 23.4676V33.5818H302.71V40.5039H295.381V63.7316C295.381 65.32 295.696 66.4664 296.321 67.173C296.947 67.8775 298.067 68.2297 299.68 68.2297C300.777 68.2267 301.871 68.0975 302.939 67.8447V75.0753C300.817 75.666 298.772 75.9592 296.801 75.9592C289.64 75.9592 286.059 71.9993 286.059 64.0773V40.5017H279.224V33.5796H286.054V23.4654H295.376L295.381 23.4676ZM319.746 75.1935H310.422V16.1232H319.746V75.1935ZM339.812 75.1935H330.488V33.5818H339.812V75.1935ZM329.913 22.7741C329.913 21.3411 330.366 20.1488 331.274 19.1993C332.184 18.2519 333.481 17.7772 335.168 17.7772C336.857 17.7772 338.161 18.2519 339.084 19.1993C340.003 20.1488 340.462 21.3411 340.462 22.7763C340.462 24.1852 340.003 25.3579 339.084 26.2942C338.161 27.2306 336.857 27.6988 335.168 27.6988C333.481 27.6988 332.184 27.2306 331.274 26.2942C330.366 25.3601 329.913 24.1852 329.913 22.7763V22.7741ZM353.241 75.1935V40.5017H346.91V33.5796H353.241V29.7728C353.241 25.1566 354.519 21.5949 357.076 19.0811C359.636 16.5695 363.215 15.3138 367.818 15.3138C369.457 15.3138 371.196 15.5435 373.038 16.0051L372.809 23.3123C371.632 23.0939 370.437 22.9913 369.24 23.006C364.788 23.006 362.563 25.2988 362.563 29.8888V33.5796H371.004V40.5017H362.563V75.1913H353.241V75.1935ZM392.337 61.8108L400.777 33.5818H410.714L394.218 81.5008C391.685 88.4996 387.388 92 381.326 92C379.969 92 378.473 91.7681 376.836 91.3065V84.0759L378.602 84.1918C380.954 84.1918 382.726 83.763 383.916 82.9032C385.104 82.0456 386.045 80.6038 386.736 78.578L388.077 75.0009L373.498 33.5818H383.551L392.337 61.8108V61.8108Z" fill="black"/>
<path d="M150.729 36.1108L150.698 36.0977C150.68 36.0911 150.663 36.0846 150.648 36.0693C150.623 36.0423 150.604 36.0099 150.593 35.9747C150.583 35.9394 150.58 35.9021 150.586 35.8658L152.278 25.5263L160.208 33.4592L151.96 36.9684C151.937 36.9777 151.913 36.9821 151.888 36.9816H151.855C151.839 36.9711 151.824 36.9586 151.812 36.9444C151.505 36.6026 151.137 36.3201 150.729 36.1108V36.1108ZM162.232 35.4807L170.712 43.9606C172.473 45.724 173.355 46.6034 173.676 47.623C173.724 47.7739 173.764 47.9249 173.794 48.0802L153.529 39.4975C153.518 39.493 153.507 39.4886 153.496 39.4844C153.415 39.4516 153.321 39.4144 153.321 39.3312C153.321 39.2481 153.417 39.2087 153.498 39.1759L153.525 39.165L162.232 35.4807V35.4807ZM173.449 50.8018C173.011 51.6244 172.158 52.4777 170.714 53.9238L161.153 63.4822L148.788 60.9072L148.722 60.8941C148.613 60.8766 148.497 60.8569 148.497 60.7584C148.45 60.2483 148.299 59.7534 148.052 59.3043C147.806 58.8553 147.469 58.4618 147.064 58.1484C147.014 58.0981 147.027 58.0193 147.042 57.9471C147.042 57.9362 147.042 57.9252 147.047 57.9165L149.372 43.639L149.381 43.5909C149.394 43.4815 149.414 43.3546 149.512 43.3546C150.011 43.2926 150.492 43.132 150.927 42.8822C151.363 42.6325 151.745 42.2985 152.05 41.8997C152.07 41.8778 152.083 41.8538 152.109 41.8406C152.179 41.8078 152.262 41.8406 152.334 41.8713L173.447 50.8018H173.449ZM158.955 65.6809L143.233 81.4024L145.924 64.8627L145.929 64.8408C145.931 64.8193 145.935 64.798 145.942 64.7774C145.964 64.7249 146.02 64.703 146.075 64.6811L146.101 64.6702C146.691 64.4188 147.212 64.0311 147.622 63.5391C147.674 63.4778 147.738 63.4188 147.819 63.4078C147.84 63.4044 147.861 63.4044 147.882 63.4078L158.952 65.6831L158.955 65.6809ZM139.906 84.73L138.133 86.5021L118.542 58.1878C118.535 58.1774 118.527 58.1672 118.52 58.1571C118.489 58.1156 118.457 58.074 118.463 58.0259C118.463 57.9909 118.487 57.9602 118.511 57.934L118.533 57.9056C118.592 57.818 118.642 57.7305 118.697 57.6365L118.741 57.5599L118.748 57.5533C118.778 57.5008 118.807 57.4505 118.859 57.422C118.905 57.4002 118.968 57.4089 119.019 57.4199L140.724 61.8961C140.784 61.9055 140.842 61.9304 140.89 61.9683C140.919 61.9967 140.925 62.0273 140.932 62.0623C141.083 62.6352 141.365 63.1653 141.755 63.6112C142.145 64.0571 142.633 64.4068 143.181 64.633C143.242 64.6636 143.216 64.7314 143.187 64.8036C143.173 64.8353 143.162 64.8683 143.154 64.9021C142.881 66.5648 140.536 80.8686 139.906 84.73ZM136.204 88.4295C134.898 89.7225 134.128 90.4073 133.257 90.683C132.398 90.9544 131.477 90.9544 130.618 90.683C129.599 90.3592 128.717 89.4797 126.956 87.7163L107.281 68.0416L112.42 60.0715C112.442 60.0315 112.472 59.9965 112.508 59.9686C112.563 59.9293 112.641 59.9468 112.707 59.9686C113.887 60.3245 115.153 60.2603 116.291 59.787C116.35 59.7652 116.409 59.7499 116.455 59.7914C116.478 59.8124 116.498 59.8359 116.516 59.8614L136.204 88.4295V88.4295ZM105.382 66.1448L100.871 61.6313L109.784 57.829C109.807 57.819 109.831 57.8138 109.856 57.8137C109.931 57.8137 109.974 57.8881 110.014 57.9559C110.103 58.0937 110.198 58.228 110.298 58.3584L110.327 58.3934C110.353 58.4306 110.335 58.4678 110.309 58.5028L105.387 66.1448H105.382ZM98.8715 59.6339L93.1614 53.9238C92.19 52.9524 91.4855 52.2479 90.9954 51.6419L108.358 55.243C108.38 55.2471 108.401 55.2507 108.423 55.254C108.531 55.2715 108.649 55.2911 108.649 55.3918C108.649 55.5012 108.52 55.5515 108.41 55.5931L108.36 55.6149L98.8715 59.6339V59.6339ZM90.0022 48.7059C90.022 48.3381 90.0881 47.9742 90.1991 47.623C90.5229 46.6034 91.4024 45.724 93.1657 43.9606L100.473 36.6534C103.837 41.5363 107.211 46.4129 110.594 51.2831C110.653 51.3619 110.718 51.4494 110.651 51.515C110.318 51.8644 110.027 52.2522 109.786 52.6702C109.762 52.7239 109.724 52.7706 109.677 52.8058C109.649 52.8233 109.618 52.8168 109.585 52.8102H109.581L90 48.7037L90.0022 48.7059ZM102.429 34.6975L112.252 24.8722C113.177 25.2769 116.54 26.6968 119.544 27.9657C121.819 28.9283 123.893 29.8034 124.545 30.0879C124.611 30.1141 124.67 30.1404 124.698 30.206C124.716 30.2454 124.707 30.2957 124.698 30.3373C124.543 31.0465 124.566 31.7832 124.766 32.4813C124.965 33.1794 125.335 33.8169 125.842 34.3365C125.908 34.4022 125.842 34.4962 125.786 34.5772L125.755 34.6231L115.779 50.0755C115.757 50.119 115.724 50.1565 115.685 50.1849C115.632 50.2177 115.558 50.2024 115.496 50.187C115.108 50.0854 114.71 50.031 114.308 50.0251C113.95 50.0251 113.56 50.0908 113.166 50.163H113.164C113.121 50.1695 113.081 50.1783 113.046 50.152C113.007 50.1204 112.974 50.0828 112.948 50.0405L102.429 34.6975ZM114.238 22.8878L126.958 10.1681C128.719 8.40689 129.601 7.52522 130.621 7.20361C131.479 6.93213 132.401 6.93213 133.259 7.20361C134.279 7.52522 135.16 8.40689 136.921 10.1681L139.678 12.9247L130.629 26.9331C130.607 26.9739 130.576 27.0096 130.54 27.0381C130.485 27.0753 130.408 27.06 130.343 27.0381C129.63 26.8216 128.874 26.7822 128.142 26.9233C127.41 27.0643 126.724 27.3816 126.142 27.8476C126.083 27.9088 125.996 27.8738 125.921 27.841C124.74 27.3269 115.551 23.4435 114.236 22.8857L114.238 22.8878ZM141.599 14.8455L149.952 23.1985L147.939 35.6645V35.6973C147.937 35.7257 147.931 35.7537 147.922 35.7805C147.9 35.8242 147.856 35.833 147.812 35.8461C147.382 35.9765 146.977 36.1784 146.613 36.4434C146.598 36.4545 146.583 36.4669 146.57 36.4806C146.546 36.5068 146.521 36.5309 146.482 36.5353C146.45 36.5362 146.418 36.531 146.388 36.5199L133.659 31.1117L133.635 31.1008C133.554 31.068 133.458 31.0286 133.458 30.9455C133.383 30.2361 133.152 29.5524 132.78 28.9436C132.719 28.843 132.651 28.738 132.703 28.6352L141.599 14.8455V14.8455ZM132.992 33.6714L144.924 38.7252C144.99 38.7559 145.062 38.7843 145.091 38.8521C145.102 38.8929 145.102 38.936 145.091 38.9768C145.056 39.1518 145.025 39.3509 145.025 39.5522V39.8869C145.025 39.9701 144.94 40.0051 144.861 40.0379L144.837 40.0467C142.947 40.8539 118.299 51.3641 118.262 51.3641C118.225 51.3641 118.185 51.3641 118.148 51.3269C118.082 51.2612 118.148 51.1694 118.207 51.0862C118.218 51.0718 118.228 51.0572 118.238 51.0425L128.043 35.8592L128.061 35.833C128.118 35.7411 128.183 35.6383 128.288 35.6383L128.387 35.6536C128.61 35.6842 128.807 35.7126 129.006 35.7126C130.494 35.7126 131.872 34.9885 132.703 33.7502C132.723 33.7171 132.748 33.6876 132.778 33.6627C132.837 33.6189 132.924 33.6408 132.992 33.6714V33.6714ZM119.327 53.7663L146.193 42.3088C146.193 42.3088 146.233 42.3088 146.27 42.346C146.416 42.4926 146.541 42.591 146.661 42.6829L146.721 42.7201C146.775 42.7508 146.83 42.7858 146.834 42.8426C146.834 42.8645 146.834 42.8776 146.83 42.8973L144.531 57.037L144.522 57.0939C144.506 57.2033 144.491 57.328 144.388 57.328C143.775 57.3694 143.18 57.5598 142.657 57.8827C142.134 58.2056 141.697 58.6512 141.385 59.181L141.374 59.1985C141.343 59.2489 141.315 59.297 141.264 59.3232C141.218 59.3451 141.159 59.3364 141.111 59.3254L119.686 54.9061C119.664 54.9017 119.354 53.7706 119.329 53.7684L119.327 53.7663Z" fill="black"/>
</svg>
