<svg width="500" height="100" viewBox="0 0 500 100" fill="none" xmlns="http://www.w3.org/2000/svg">
<mask id="mask0_953_2183" style="mask-type:luminance" maskUnits="userSpaceOnUse" x="127" y="0" width="247" height="100">
<path d="M373.005 0H127V100H373.005V0Z" fill="white"/>
</mask>
<g mask="url(#mask0_953_2183)">
<path d="M183.425 99.4763V74.2838L183.951 73.7582H189.199L189.724 74.2838V99.4763L189.199 100.002H183.951L183.425 99.4763Z" fill="#32E6E2"/>
<path d="M183.425 25.7164V0.52535L183.951 0H189.199L189.724 0.52535V25.7164L189.199 26.2417H183.951L183.425 25.7164Z" fill="#32E6E2"/>
<path d="M160.611 81.3152H159.869L156.159 77.603V76.8606L164.823 68.1981L168.752 68.2L169.28 68.7233V72.6526L160.611 81.3152Z" fill="#32E6E2"/>
<path d="M160.608 18.6866H159.866L156.155 22.399V23.1411L164.82 31.8038L168.749 31.802L169.276 31.2784V27.3494L160.608 18.6866Z" fill="#32E6E2"/>
<path d="M127.525 46.8516H163.214L163.74 47.377V52.6249L163.214 53.1505H127.525L127 52.6249V47.377L127.525 46.8516Z" fill="#32E6E2"/>
<path d="M338.89 46.8516H372.481L373.007 47.377V52.6249L372.481 53.1505H336.793L336.267 52.6249L338.365 47.377L338.89 46.8516Z" fill="#32E6E2"/>
<path d="M228.888 52.2409L228.363 52.7666H212.083L211.557 53.2918C211.557 54.3426 212.608 57.4926 216.809 57.4926C218.385 57.4926 219.959 56.9674 220.485 55.9166L221.01 55.3914H227.312L227.838 55.9166C227.312 59.0671 224.688 63.795 216.809 63.795C207.882 63.795 203.679 57.4926 203.679 50.1413C203.679 42.7902 207.88 36.4879 216.283 36.4879C224.688 36.4879 228.888 42.7902 228.888 50.1413V52.2429V52.2409ZM221.01 46.9894C221.01 46.464 220.485 42.7884 216.283 42.7884C212.083 42.7884 211.557 46.464 211.557 46.9894L212.083 47.5147H220.485L221.01 46.9894Z" fill="white"/>
<path d="M243.593 55.3914C243.593 56.4418 244.118 56.9674 245.169 56.9674H249.895L250.42 57.4926V62.7442L249.895 63.2698H245.169C240.442 63.2698 236.242 61.1682 236.242 55.3914V43.8373L235.716 43.3119H232.041L231.515 42.7866V37.5349L232.041 37.0095H235.716L236.242 36.4842V31.7579L236.767 31.2326H243.069L243.594 31.7579V36.4842L244.12 37.0095H249.897L250.422 37.5349V42.7866L249.897 43.3119H244.12L243.594 43.8373V55.3914H243.593Z" fill="white"/>
<path d="M263.023 63.2698H256.721L256.195 62.7442V27.0334L256.721 26.5081H263.023L263.549 27.0334V62.7442L263.023 63.2698Z" fill="white"/>
<path d="M277.202 32.8105H270.9L270.374 32.2851V27.0334L270.9 26.5081H277.202L277.727 27.0334V32.2851L277.202 32.8105ZM277.202 63.2698H270.9L270.374 62.7442V37.5367L270.9 37.0114H277.202L277.727 37.5367V62.7442L277.202 63.2698Z" fill="white"/>
<path d="M301.884 27.0334V32.2851L301.359 32.8105H296.633C295.582 32.8105 295.056 33.3358 295.056 34.3865V36.4879L295.582 37.0132H300.834L301.359 37.5386V42.7902L300.834 43.3156H295.582L295.056 43.8409V62.7461L294.531 63.2713H288.229L287.704 62.7461V43.8409L287.178 43.3156H283.503L282.977 42.7902V37.5386L283.503 37.0132H287.178L287.704 36.4879V34.3865C287.704 28.6095 291.904 26.5081 296.631 26.5081H301.357L301.883 27.0334H301.884Z" fill="white"/>
<path d="M321.315 63.795C319.213 69.0466 317.114 72.1971 309.761 72.1971H307.134L306.609 71.6715V66.4199L307.134 65.8947H309.761C312.386 65.8947 312.911 65.3691 313.437 63.7931V63.2679L305.034 42.7866V37.5349L305.56 37.0096H310.286L310.812 37.5349L317.114 55.3914H317.639L323.942 37.5349L324.467 37.0096H329.193L329.719 37.5349V42.7866L321.317 63.7931L321.315 63.795Z" fill="white"/>
<path d="M192.083 63.2698L191.558 62.7442L191.561 47.5276C191.561 44.9027 190.529 42.8674 187.36 42.8013C185.731 42.759 183.866 42.7976 181.875 42.8821L181.577 43.187L181.581 62.7442L181.056 63.2698H174.755L174.23 62.7442V37.2557L174.755 36.7303L188.934 36.6018C196.037 36.6018 198.912 41.4824 198.912 46.9912V62.7442L198.387 63.2698H192.083Z" fill="white"/>
</g>
</svg>
