<svg width="500" height="100" viewBox="0 0 500 100" fill="none" xmlns="http://www.w3.org/2000/svg">
<path d="M382.463 43.9384L383.949 35.826H376.283L378.511 23.8807L369.329 27.4764L367.844 35.826H362.257L360.771 43.9384H366.269L364.397 54.2196C364.307 54.7844 364.159 55.6162 364.01 56.6857C363.862 57.7559 363.772 58.7066 363.772 59.5086C363.802 63.2232 364.694 66.2839 366.447 68.6905C368.2 71.1572 371.052 72.6132 375.035 73.0586L378.868 65.1549C376.818 64.8873 375.272 64.0847 374.173 62.7179C373.073 61.3213 372.538 59.568 372.538 57.4289C372.538 57.0127 372.598 56.4188 372.687 55.6162C372.776 54.8142 372.865 54.1602 372.954 53.6548L374.737 43.9384H382.463V43.9384ZM301.669 43.0175C303.095 42.5121 304.343 42.2446 305.383 42.2446C306.512 42.2446 307.463 42.5716 308.236 43.225C308.979 43.8492 309.335 44.7701 309.335 46.0484C309.335 46.4045 309.276 46.9396 309.157 47.6822C309.038 48.3659 308.949 48.9901 308.86 49.5246L306.721 59.568C306.572 60.3409 306.423 61.1429 306.275 61.9753C306.126 62.8368 306.067 63.5799 306.067 64.2036C306.067 66.6109 306.721 68.6311 308.058 70.2357C309.335 71.8404 311.624 72.7916 314.922 73.0586L318.696 65.4218C317.418 65.2143 316.496 64.7387 315.932 63.9955C315.338 63.2827 315.04 62.2726 315.04 60.9943C315.04 60.6976 315.07 60.3409 315.13 59.9545C315.159 59.568 315.219 59.2416 315.249 59.0038L317.418 48.782C317.596 47.92 317.745 47.0585 317.864 46.1964C317.982 45.3647 318.042 44.5329 318.042 43.7303C318.042 40.7886 317.18 38.4116 315.457 36.6584C313.703 34.9051 311.267 34.0139 308.147 34.0139C306.366 34.01 304.597 34.3114 302.917 34.9051C301.253 35.4699 299.232 36.4205 296.885 37.8171C296.796 37.2529 296.588 36.5692 296.291 35.7963C295.989 35.1048 295.631 34.4391 295.221 33.8058L287.257 37.2232C287.941 38.263 288.476 39.3623 288.803 40.4913C289.1 41.6209 289.248 42.6905 289.248 43.6709C289.248 44.1762 289.219 44.7999 289.13 45.4836C289.07 46.1673 288.981 46.7018 288.892 47.0882L284.167 72.2565H292.725L297.747 45.0971C298.934 44.1974 300.258 43.4951 301.669 43.0175H301.669V43.0175ZM325.47 47.6227C324.549 50.357 324.103 53.269 324.103 56.3296C324.103 59.0038 324.46 61.3808 325.143 63.461C325.827 65.5407 326.807 67.294 328.055 68.6905C329.274 70.1168 330.79 71.187 332.542 71.9295C334.296 72.6727 336.257 73.0586 338.397 73.0586C340.982 73.0586 343.537 72.5835 346.092 71.6323C348.678 70.6816 350.936 69.1959 352.867 67.2048L349.658 59.7761C348.172 61.4402 346.538 62.6881 344.725 63.5502C342.913 64.4117 341.101 64.8279 339.318 64.8279C337.237 64.8279 335.603 64.1739 334.414 62.8665C333.256 61.5294 332.661 59.8653 332.661 57.9045V57.3397C332.661 57.1019 332.691 56.8641 332.75 56.6263C334.54 56.3905 336.323 56.1132 338.099 55.7945C340.09 55.4378 342.111 55.0217 344.161 54.5466C346.211 54.0413 348.202 53.4771 350.164 52.8825C352.095 52.288 353.818 51.6643 355.274 51.0401V47.6233C355.274 45.5133 354.947 43.6114 354.294 41.9176C353.61 40.2832 352.719 38.8569 351.56 37.6387C350.401 36.4503 349.004 35.5591 347.429 34.9645C345.884 34.3403 344.191 34.0139 342.378 34.0139C339.734 34.0139 337.267 34.6078 335.039 35.7671C332.782 36.9207 330.812 38.5654 329.274 40.5805C327.64 42.6013 326.392 44.9485 325.47 47.6233V47.6227V47.6227ZM338.337 41.6203C339.258 41.1156 340.298 40.8777 341.457 40.8777C343.032 40.8777 344.339 41.3831 345.379 42.4229C346.419 43.433 346.954 44.9485 346.954 46.999C346.092 47.2666 345.082 47.593 343.894 47.92C342.675 48.2172 341.457 48.5145 340.209 48.782C338.931 49.0496 337.713 49.3165 336.495 49.5543C335.276 49.7624 334.236 49.9408 333.345 50.0894C333.493 48.8415 333.761 47.6524 334.177 46.5531C334.623 45.4539 335.187 44.4735 335.87 43.6411C336.614 42.8094 337.416 42.1257 338.337 41.6209L338.337 41.6203V41.6203Z" fill="#98C000"/>
<path d="M357.235 83.5182C357.235 82.7756 357.116 82.0919 356.879 81.498C356.641 80.9035 356.314 80.3981 355.928 79.9528C355.512 79.5366 355.036 79.2096 354.472 79.0015C353.907 78.7935 353.283 78.6751 352.63 78.6751C351.767 78.6751 350.965 78.8529 350.222 79.1799C349.48 79.5069 348.826 79.9825 348.261 80.5765C347.697 81.171 347.251 81.8541 346.924 82.6567C346.586 83.4867 346.414 84.3752 346.419 85.2715C346.419 86.0146 346.538 86.668 346.776 87.2923C346.984 87.8862 347.31 88.3916 347.726 88.8078C348.113 89.2531 348.618 89.5801 349.182 89.8179C349.747 90.0259 350.371 90.1449 351.055 90.1449C351.873 90.1438 352.683 89.9716 353.432 89.6395C354.175 89.3125 354.828 88.8375 355.393 88.2429C355.958 87.6781 356.403 86.9653 356.73 86.1627C357.057 85.3607 357.235 84.4695 357.235 83.5182V83.5182ZM348.974 83.4885C349.153 82.954 349.391 82.4784 349.688 82.0622C350.008 81.6569 350.401 81.3144 350.847 81.0521C351.292 80.7845 351.767 80.6656 352.332 80.6656C353.194 80.6656 353.818 80.9332 354.264 81.4683C354.709 81.973 354.947 82.7162 354.947 83.6371C354.947 84.2019 354.858 84.7661 354.679 85.3309C354.54 85.8492 354.297 86.3342 353.967 86.7572C353.64 87.1734 353.253 87.5004 352.808 87.7673C352.362 88.0051 351.857 88.124 351.322 88.124C350.46 88.124 349.836 87.8565 349.391 87.3517C348.945 86.8167 348.707 86.1038 348.707 85.1823C348.707 84.6181 348.796 84.0533 348.974 83.4885V83.4885ZM375.302 78.8232H373.192L372.063 85.3904C372.033 85.4796 372.004 85.6282 372.004 85.8363V86.341H371.914L368.111 78.8232H366.12L364.129 89.9665H366.269L367.457 83.2507C367.487 83.1621 367.487 83.0134 367.487 82.8648V82.3595H367.576L371.468 90.0557L373.37 89.8773L375.302 78.8232V78.8232ZM339.525 78.8232H337.356L335.365 89.9665H337.564L339.525 78.8232ZM312.515 78.8232H309.989C309.513 79.6258 309.008 80.5467 308.444 81.5277C307.879 82.5081 307.344 83.5182 306.81 84.5289C306.274 85.539 305.799 86.5194 305.354 87.4707C304.908 88.4213 304.551 89.2531 304.283 89.9665H306.572C306.661 89.7584 306.75 89.4909 306.869 89.2233C306.988 88.9564 307.107 88.6591 307.255 88.3916L307.612 87.5896C307.73 87.322 307.849 87.0842 307.939 86.8761H311.801C311.831 87.1437 311.831 87.4112 311.861 87.7079L311.95 88.5699L312.039 89.372C312.069 89.6395 312.069 89.8476 312.069 90.0557L314.268 89.8773C314.268 89.4611 314.238 88.9861 314.179 88.4213C314.149 87.8565 314.06 87.2626 313.971 86.6383C313.882 86.0146 313.792 85.3309 313.673 84.6478C313.584 83.9641 313.465 83.2804 313.317 82.5973C313.198 81.9136 313.079 81.2602 312.931 80.6062C312.782 79.9825 312.663 79.388 312.515 78.8232ZM311.118 82.1216C311.178 82.4486 311.237 82.8054 311.296 83.1912C311.356 83.5479 311.415 83.9047 311.445 84.2316C311.505 84.5586 311.534 84.7959 311.564 85.0039H308.8C308.949 84.7364 309.097 84.4397 309.246 84.1127C309.424 83.7857 309.603 83.429 309.781 83.0729C309.989 82.7162 310.167 82.3892 310.345 82.0622C310.524 81.7352 310.672 81.4385 310.821 81.2304H310.94C310.999 81.4683 311.059 81.7649 311.118 82.1216V82.1216ZM329.571 80.844L329.898 78.8232H322.291L321.964 80.844H324.668L323.093 89.9665H325.262L326.867 80.844H329.571V80.844ZM293.794 78.6751C293.17 78.6751 292.546 78.7049 291.922 78.7637C291.298 78.8529 290.704 78.9421 290.139 79.0907L288.267 89.699C288.832 89.8476 289.486 89.9368 290.199 90.0259C290.883 90.1151 291.536 90.1449 292.16 90.1449C293.081 90.1449 293.913 89.9962 294.716 89.699C295.518 89.372 296.231 88.9564 296.826 88.3916C297.42 87.8268 297.895 87.1437 298.252 86.341C298.578 85.539 298.757 84.6181 298.757 83.6074C298.757 82.8054 298.638 82.1216 298.4 81.498C298.133 80.8737 297.806 80.3684 297.36 79.9528C296.907 79.5299 296.37 79.2059 295.785 79.0015C295.144 78.785 294.472 78.6747 293.795 78.6751H293.794V78.6751ZM293.319 80.6954C293.765 80.6954 294.181 80.7548 294.567 80.844C294.953 80.9332 295.28 81.1115 295.547 81.3494C295.845 81.5872 296.082 81.8838 296.231 82.2703C296.38 82.627 296.469 83.0729 296.469 83.6371C296.469 84.3506 296.38 84.9742 296.172 85.539C295.993 86.1038 295.726 86.5789 295.37 86.9653C295.013 87.3517 294.597 87.6193 294.091 87.8268C293.587 88.0349 293.052 88.124 292.428 88.124C292.16 88.124 291.893 88.124 291.566 88.0943C291.239 88.0646 290.942 88.0349 290.734 88.0051L292.012 80.8143C292.19 80.7846 292.428 80.7548 292.695 80.7251C292.962 80.6954 293.17 80.6954 293.319 80.6954ZM227.412 37.2226C228.095 38.2631 228.63 39.3623 228.957 40.4914C229.254 41.6204 229.403 42.6905 229.403 43.6709C229.403 44.1763 229.373 44.7999 229.284 45.4836C229.224 46.1668 229.135 46.7018 229.046 47.0883L224.321 72.2566H232.879L237.901 45.0972C239.088 44.1975 240.412 43.4953 241.823 43.0175C243.249 42.5122 244.498 42.2446 245.538 42.2446C246.667 42.2446 247.618 42.5716 248.39 43.225C249.133 43.8493 249.49 44.7702 249.49 46.0484C249.49 46.4046 249.43 46.9396 249.311 47.6822C249.193 48.3659 249.104 48.9902 249.015 49.5247L246.875 59.5681C246.726 60.341 246.578 61.143 246.429 61.9754C246.281 62.8368 246.221 63.58 246.221 64.2037C246.221 66.6109 246.875 68.6311 248.212 70.2358C249.49 71.8404 251.778 72.7917 255.076 73.0586L258.85 65.4219C257.572 65.2144 256.651 64.7387 256.086 63.9956C255.492 63.2827 255.195 62.2726 255.195 60.9944C255.195 60.6977 255.225 60.341 255.284 59.9545C255.314 59.5681 255.374 59.2417 255.403 59.0039L257.572 48.7821C257.751 47.92 257.899 47.0586 258.018 46.1965C258.137 45.3647 258.196 44.533 258.196 43.7304C258.196 40.7886 257.334 38.4117 255.611 36.6584C253.858 34.9051 251.421 34.0139 248.301 34.0139C246.52 34.0102 244.751 34.3116 243.072 34.9051C241.408 35.4699 239.387 36.4206 237.039 37.8172C236.95 37.2529 236.742 36.5692 236.445 35.7963C236.143 35.1048 235.786 34.439 235.375 33.8058L227.412 37.2232V37.2226V37.2226ZM281.522 18.7701H273.113L266.695 53.536C266.427 54.6953 266.219 55.9135 266.07 57.1912C265.922 58.4391 265.833 59.5978 265.833 60.668C265.833 64.1145 266.487 66.9373 267.824 69.1365C269.161 71.3357 271.419 72.643 274.598 73.0586L278.462 65.1549C277.837 64.8576 277.303 64.5307 276.798 64.1739C276.292 63.8475 275.877 63.4016 275.55 62.8963C275.193 62.3915 274.925 61.797 274.777 61.0836C274.628 60.3707 274.54 59.4789 274.54 58.4391C274.54 57.9343 274.569 57.3695 274.628 56.775C274.717 56.1513 274.807 55.5271 274.896 54.8737L281.522 18.7701V18.7701ZM263.456 78.8232H261.286L259.86 86.9653C259.563 87.2923 259.207 87.5598 258.761 87.797C258.315 88.0051 257.84 88.124 257.305 88.124C256.77 88.124 256.354 88.0051 256.057 87.7673C255.73 87.5004 255.581 87.0842 255.581 86.4599C255.581 86.341 255.611 86.1627 255.641 85.9255C255.67 85.7174 255.67 85.5093 255.7 85.3309L256.889 78.8232H254.69L253.531 85.3012L253.442 86.1038C253.412 86.3708 253.412 86.5789 253.412 86.7869C253.412 87.3815 253.501 87.8862 253.68 88.3321C253.858 88.778 254.095 89.105 254.393 89.372C254.72 89.6395 255.076 89.8476 255.462 89.9665C255.878 90.0854 256.295 90.1449 256.74 90.1449C257.84 90.1449 258.82 89.8179 259.712 89.1341C259.712 89.2828 259.712 89.4611 259.742 89.6395C259.742 89.7881 259.742 89.9368 259.771 90.0854L261.94 89.9368C261.911 89.7881 261.911 89.6395 261.911 89.4611C261.881 89.3125 261.881 89.1341 261.881 88.9267C261.881 88.5699 261.911 88.1835 261.94 87.797C261.97 87.3815 262 86.995 262.089 86.6383L263.456 78.8232V78.8232ZM281.403 78.8232H279.293L278.164 85.3904C278.135 85.4796 278.105 85.6282 278.105 85.8363V86.341H278.016L274.213 78.8232H272.221L270.23 89.9665H272.37L273.559 83.2507C273.588 83.1621 273.588 83.0134 273.588 82.8648V82.3595H273.678L277.571 90.0557L279.472 89.8773L281.403 78.8232V78.8232ZM244.647 79.9528C244.23 79.5366 243.755 79.2096 243.191 79.0015C242.626 78.7935 242.001 78.6751 241.348 78.6751C240.486 78.6751 239.684 78.8529 238.941 79.1799C238.198 79.5069 237.544 79.9825 236.98 80.5765C236.415 81.171 235.969 81.8541 235.643 82.6567C235.305 83.4867 235.133 84.3752 235.138 85.2715C235.138 86.0146 235.256 86.668 235.494 87.2923C235.702 87.8862 236.029 88.3916 236.445 88.8078C236.831 89.2531 237.336 89.5801 237.901 89.8179C238.466 90.0259 239.089 90.1449 239.773 90.1449C240.592 90.1438 241.402 89.9716 242.15 89.6395C242.893 89.3125 243.547 88.8375 244.111 88.2429C244.676 87.6781 245.122 86.9653 245.449 86.1627C245.776 85.3607 245.954 84.4695 245.954 83.5182C245.954 82.7756 245.835 82.0919 245.597 81.498C245.359 80.9035 245.032 80.3981 244.647 79.9528V79.9528ZM238.406 82.0622C238.727 81.6569 239.12 81.3144 239.565 81.0521C240.011 80.7845 240.486 80.6656 241.051 80.6656C241.912 80.6656 242.537 80.9332 242.982 81.4683C243.428 81.973 243.666 82.7162 243.666 83.6371C243.666 84.2019 243.576 84.7661 243.398 85.3309C243.258 85.8492 243.016 86.3342 242.685 86.7572C242.358 87.1734 241.972 87.5004 241.526 87.7673C241.081 88.0051 240.575 88.124 240.041 88.124C239.179 88.124 238.555 87.8565 238.109 87.3517C237.663 86.8167 237.425 86.1038 237.425 85.1823C237.425 84.6181 237.515 84.0533 237.693 83.4885C237.871 82.954 238.109 82.4784 238.406 82.0622V82.0622ZM228.868 78.8232H222.746L220.756 89.9665H222.954L223.698 85.7174H227.709L228.066 83.6966H224.054L224.559 80.844H228.511L228.868 78.8232V78.8232Z" fill="black"/>
<path d="M192.497 26.7041C193.299 20.1964 191.665 14.3426 187.624 9.172C183.583 4.00196 178.293 1.00076 171.786 0.198143C165.279 -0.60388 159.425 1.03049 154.254 5.07152C149.47 8.78615 146.558 13.5698 145.518 19.4235C145.429 19.9289 145.34 20.4045 145.28 20.9092C145.221 21.4146 145.191 21.8902 145.162 22.3653C144.954 25.0995 145.221 27.7143 145.934 30.2101C146.736 33.1221 148.133 35.8558 150.154 38.4414C152.174 41.0264 154.492 43.0472 157.136 44.5627C159.365 45.8403 161.831 46.7018 164.535 47.1774C165.011 47.2666 165.487 47.3261 165.991 47.4152L166.794 47.5044C167.448 44.8594 168.458 42.3932 169.855 40.1643C168.934 40.1941 167.982 40.1643 167.032 40.0758C166.972 40.046 166.943 40.046 166.913 40.046C165.814 39.8974 164.743 39.6893 163.763 39.3623C160.702 38.3819 158.117 36.5692 156.007 33.8653C153.898 31.1613 152.768 28.2196 152.561 25.0103C152.501 23.9699 152.531 22.9301 152.679 21.8308V21.7119C153.244 17.2844 155.295 13.6887 158.83 10.9253C162.396 8.16189 166.408 7.03288 170.894 7.59709C175.381 8.13217 179.007 10.1827 181.77 13.7481C184.534 17.3141 185.663 21.3254 185.128 25.8123C184.979 26.8231 184.801 27.7737 184.534 28.6946C187.067 27.8769 189.716 27.4755 192.378 27.5062C192.408 27.2386 192.468 26.9711 192.497 26.7041V26.7041Z" fill="#98C000"/>
<path d="M195.618 30.6262C195.112 30.5668 194.637 30.5073 194.132 30.4776C191.398 30.2992 188.783 30.5668 186.287 31.2499C183.375 32.0525 180.641 33.4788 178.056 35.4996C175.471 37.4901 173.45 39.8082 171.964 42.4526C170.687 44.6809 169.825 47.1477 169.32 49.8516C171.905 50.2975 174.282 51.0401 176.481 52.1393C176.63 51.0698 176.838 50.0597 177.135 49.1084C178.115 46.0484 179.928 43.4627 182.632 41.3533C185.336 39.2434 188.278 38.0846 191.517 37.8765C192.557 37.8171 193.597 37.8468 194.696 37.9954H194.785C199.213 38.5602 202.809 40.6399 205.572 44.1762C208.365 47.7119 209.494 51.7238 208.93 56.2107C208.365 60.6976 206.315 64.3225 202.779 67.1156C199.243 69.8796 195.231 70.9789 190.804 70.4438C191.309 72.851 191.457 75.3766 191.279 77.9914C197.192 78.3778 202.541 76.684 207.325 72.9694C212.495 68.9283 215.497 63.6394 216.299 57.1316C217.101 50.6245 215.467 44.7701 211.426 39.6001C207.681 34.8159 202.898 31.9039 197.074 30.864C196.568 30.7748 196.093 30.6857 195.618 30.6262V30.6262Z" fill="#98C000"/>
<path d="M193.597 46.8207C191.546 46.5829 189.734 47.0882 188.1 48.3659C186.465 49.6435 185.544 51.2779 185.306 53.2987C185.039 55.3487 185.544 57.1614 186.822 58.7958C188.1 60.4301 189.734 61.351 191.784 61.5889C193.805 61.8564 195.618 61.351 197.251 60.0734C198.886 58.7957 199.807 57.1614 200.075 55.1108C200.312 53.0906 199.807 51.2779 198.53 49.6435C197.251 48.0092 195.618 47.0882 193.597 46.8207V46.8207Z" fill="black"/>
<path d="M124.569 43.7898C125.134 39.3029 127.185 35.6477 130.75 32.8843C134.286 30.1209 138.268 28.9919 142.695 29.5567C142.176 27.0766 142.016 24.5348 142.22 22.0091C136.306 21.6227 130.958 23.2868 126.174 27.0305C120.974 31.0722 118.003 36.3611 117.2 42.8689C116.399 49.376 118.003 55.2 122.073 60.4004C125.788 65.1846 130.572 68.0966 136.425 69.1365C136.901 69.2256 137.377 69.2851 137.881 69.3743C138.387 69.4337 138.862 69.4932 139.367 69.5229C142.101 69.7013 144.716 69.4337 147.212 68.75C150.094 67.9183 152.858 66.492 155.443 64.5009C157.999 62.4801 160.019 60.1626 161.534 57.5479C162.812 55.319 163.674 52.8528 164.179 50.1489C161.594 49.703 159.217 48.9307 157.018 47.8606C156.87 48.901 156.661 49.9111 156.364 50.8915C155.384 53.9521 153.571 56.5377 150.867 58.6471C148.163 60.7571 145.221 61.9159 142.012 62.124C140.972 62.1834 139.902 62.1537 138.803 62.0051C138.773 62.0051 138.743 62.0051 138.714 61.9753C134.286 61.4105 130.69 59.3606 127.927 55.8243C125.134 52.2583 124.005 48.247 124.569 43.7898V43.7898Z" fill="#98C000"/>
<path d="M136.247 39.9271C134.613 41.175 133.691 42.8391 133.424 44.889C133.187 46.8801 133.691 48.6929 134.969 50.3272C136.218 51.9616 137.851 52.9123 139.902 53.1798C141.952 53.3879 143.765 52.8825 145.399 51.6346C147.004 50.3569 147.925 48.6929 148.192 46.7018C148.46 44.6512 147.955 42.8094 146.677 41.2047C145.399 39.5704 143.765 38.6488 141.715 38.4116C139.664 38.1441 137.851 38.6488 136.247 39.9271V39.9271ZM174.787 19.2457C173.509 17.6113 171.846 16.6898 169.825 16.452C167.774 16.1851 165.962 16.6898 164.357 17.9675C162.723 19.216 161.772 20.8795 161.534 22.93C161.267 24.9508 161.802 26.763 163.079 28.3973C164.328 30.002 165.962 30.9532 168.012 31.2208C170.033 31.4283 171.846 30.9235 173.479 29.6756C175.114 28.3973 176.035 26.7338 176.303 24.7427C176.54 22.6922 176.035 20.8503 174.787 19.2457V19.2457Z" fill="black"/>
<path d="M167.506 52.5853L166.704 52.4961C166.05 55.1406 165.04 57.6073 163.644 59.8356C164.565 59.7761 165.516 59.8059 166.496 59.9248C166.526 59.9248 166.556 59.9248 166.585 59.9545C167.685 60.0734 168.725 60.2815 169.735 60.6085C172.796 61.5889 175.381 63.4313 177.491 66.1352C179.6 68.8094 180.73 71.7512 180.937 74.9902C180.997 76.03 180.967 77.0705 180.819 78.1697V78.2887C180.254 82.7161 178.204 86.3113 174.668 89.0752C171.102 91.8386 167.091 92.9676 162.604 92.4028C158.117 91.8386 154.491 89.7881 151.728 86.2518C148.935 82.6864 147.806 78.6751 148.37 74.1882C148.489 73.1775 148.697 72.2268 148.994 71.3053C146.469 72.1079 143.854 72.4944 141.12 72.4944C141.09 72.7619 141.031 73.0288 141.001 73.2964C140.199 79.8041 141.804 85.6281 145.874 90.8279C149.915 95.9986 155.205 98.9998 161.712 99.8018C168.22 100.604 174.044 98.97 179.244 94.929C184.028 91.1846 186.94 86.4004 187.98 80.5467C188.069 80.0717 188.129 79.596 188.218 79.0907C188.247 78.5859 188.307 78.1103 188.336 77.6347C188.515 74.8713 188.247 72.2565 187.564 69.7904C186.761 66.8778 185.335 64.1442 183.345 61.5591C181.324 58.9741 179.006 56.9236 176.391 55.4378C174.133 54.1602 171.667 53.2987 168.962 52.8231C168.487 52.7339 168.012 52.6447 167.506 52.5853V52.5853Z" fill="#98C000"/>
<path d="M170.449 71.6026C169.171 69.9682 167.537 69.0473 165.487 68.7797C163.436 68.5419 161.623 69.0473 160.019 70.3249C158.385 71.6026 157.463 73.2369 157.196 75.2577C156.929 77.3077 157.463 79.1204 158.741 80.7548C159.99 82.3892 161.623 83.3101 163.674 83.5479C165.724 83.8154 167.537 83.3101 169.171 82.0324C170.776 80.7548 171.697 79.1204 171.964 77.0705C172.202 75.0497 171.697 73.2369 170.449 71.6026Z" fill="black"/>
</svg>
