<svg width="190" height="80" xmlns="http://www.w3.org/2000/svg" xml:space="preserve" style="fill-rule:evenodd;clip-rule:evenodd;stroke-linejoin:round;stroke-miterlimit:1.41421"><path d="m446.603 73.881 2.499-13.645h-12.895l3.748-20.092-15.443 6.048-2.499 14.044h-9.397l-2.499 13.645h9.247l-3.149 17.293c-.15.95-.4 2.349-.65 4.148-.25 1.8-.4 3.399-.4 4.748.05 6.248 1.55 11.396 4.499 15.444 2.948 4.149 7.746 6.598 14.444 7.347l6.447-13.294c-3.448-.45-6.047-1.8-7.897-4.099-1.849-2.349-2.749-5.298-2.749-8.896 0-.7.1-1.699.25-3.049.15-1.349.3-2.449.45-3.299l2.999-16.343h12.995Zm-135.896-1.549c2.399-.85 4.498-1.3 6.248-1.3 1.899 0 3.498.55 4.798 1.649 1.249 1.05 1.849 2.599 1.849 4.749 0 .599-.1 1.499-.3 2.748-.2 1.15-.35 2.2-.5 3.099l-3.598 16.893c-.25 1.3-.5 2.649-.75 4.049-.25 1.449-.35 2.699-.35 3.748 0 4.049 1.1 7.447 3.349 10.146 2.149 2.699 5.998 4.299 11.545 4.748l6.348-12.845c-2.149-.349-3.699-1.149-4.648-2.399-1-1.199-1.5-2.898-1.5-5.048 0-.499.05-1.099.15-1.749.05-.65.15-1.199.2-1.599l3.649-17.193c.3-1.45.55-2.899.75-4.349.199-1.399.299-2.798.299-4.148 0-4.948-1.449-8.946-4.348-11.895-2.949-2.949-7.047-4.448-12.295-4.448a26.22 26.22 0 0 0-8.796 1.499c-2.799.95-6.198 2.549-10.146 4.898-.15-.949-.5-2.099-1-3.399a23.339 23.339 0 0 0-1.799-3.348l-13.395 5.748c1.15 1.749 2.049 3.598 2.599 5.497.5 1.9.75 3.699.75 5.348 0 .85-.05 1.899-.2 3.049-.1 1.15-.25 2.049-.4 2.699l-7.947 42.333h14.395l8.446-45.682a23.282 23.282 0 0 1 6.598-3.498h-.001Zm40.034 7.746c-1.549 4.599-2.299 9.497-2.299 14.645 0 4.498.6 8.496 1.749 11.995 1.15 3.498 2.799 6.447 4.898 8.796 2.05 2.399 4.599 4.199 7.547 5.448 2.949 1.25 6.248 1.899 9.847 1.899 4.348 0 8.646-.799 12.944-2.399 4.349-1.599 8.147-4.098 11.396-7.447l-5.398-12.495c-2.499 2.799-5.248 4.898-8.297 6.348-3.049 1.449-6.097 2.149-9.096 2.149-3.499 0-6.248-1.1-8.247-3.299-1.949-2.249-2.949-5.048-2.949-8.346v-.95c0-.4.05-.8.15-1.2a196.05 196.05 0 0 0 8.997-1.399c3.348-.6 6.747-1.3 10.196-2.099 3.448-.85 6.797-1.799 10.096-2.799 3.248-1 6.147-2.049 8.596-3.099v-5.747c0-3.549-.55-6.748-1.649-9.597-1.15-2.749-2.649-5.148-4.598-7.197-1.95-1.999-4.299-3.498-6.948-4.498-2.599-1.05-5.447-1.599-8.496-1.599-4.448 0-8.597.999-12.345 2.949a28.528 28.528 0 0 0-9.696 8.096c-2.749 3.399-4.848 7.347-6.398 11.846v-.001Zm21.641-10.096c1.55-.849 3.299-1.249 5.248-1.249 2.649 0 4.848.85 6.598 2.599 1.749 1.699 2.649 4.248 2.649 7.697-1.45.45-3.149.999-5.148 1.549-2.049.5-4.099 1-6.198 1.45-2.149.45-4.198.899-6.247 1.299-2.049.35-3.799.65-5.298.9.25-2.099.7-4.099 1.399-5.948.75-1.849 1.7-3.498 2.849-4.898 1.25-1.399 2.599-2.549 4.149-3.398l-.001-.001Z" style="fill:#98c000;fill-rule:nonzero" transform="translate(2.054 5.226) scale(.41404)"/><path d="M404.17 140.454c0-1.249-.2-2.399-.6-3.398-.4-1-.95-1.85-1.599-2.599-.7-.7-1.5-1.25-2.449-1.6-.95-.35-2-.549-3.099-.549-1.45 0-2.799.299-4.049.849-1.249.55-2.349 1.35-3.298 2.349-.95 1-1.7 2.149-2.249 3.499a11.49 11.49 0 0 0-.85 4.398c0 1.25.2 2.349.6 3.399.35.999.899 1.849 1.599 2.549.65.749 1.5 1.299 2.449 1.699.95.35 1.999.55 3.149.55a9.89 9.89 0 0 0 3.998-.85c1.25-.55 2.349-1.349 3.299-2.349.95-.95 1.699-2.149 2.249-3.499.55-1.349.85-2.848.85-4.448Zm-13.895-.05c.3-.899.7-1.699 1.2-2.399a7.043 7.043 0 0 1 1.949-1.699c.75-.45 1.549-.65 2.499-.65 1.449 0 2.499.45 3.249 1.35.749.849 1.149 2.099 1.149 3.648 0 .95-.15 1.899-.45 2.849a6.751 6.751 0 0 1-1.199 2.399c-.55.7-1.2 1.25-1.949 1.699-.75.4-1.6.6-2.499.6-1.45 0-2.499-.45-3.249-1.299-.75-.9-1.149-2.099-1.149-3.649 0-.949.149-1.899.449-2.849Zm44.283-7.847h-3.549l-1.899 11.046c-.05.15-.1.4-.1.75v.849h-.15l-6.397-12.645h-3.349l-3.349 18.743h3.599l1.999-11.296c.05-.149.05-.399.05-.649v-.85h.15l6.547 12.945 3.199-.3 3.249-18.593Zm-60.176 0h-3.649l-3.349 18.743h3.699l3.299-18.743Zm-45.432 0h-4.248c-.8 1.35-1.65 2.899-2.599 4.549-.95 1.649-1.85 3.348-2.749 5.048-.9 1.699-1.7 3.348-2.449 4.948-.75 1.599-1.35 2.998-1.8 4.198h3.849c.15-.35.3-.8.5-1.25.2-.449.4-.949.65-1.399l.599-1.349c.2-.45.4-.85.55-1.2h6.497c.05.45.05.9.1 1.399l.15 1.45.15 1.349c.05.45.05.8.05 1.15l3.699-.3c0-.7-.05-1.499-.15-2.449-.05-.95-.2-1.949-.35-2.999-.15-1.049-.3-2.199-.5-3.348-.15-1.15-.35-2.3-.599-3.449-.2-1.15-.4-2.249-.65-3.349-.25-1.049-.45-2.049-.7-2.999Zm-2.349 5.548c.1.55.2 1.15.3 1.799.1.6.2 1.2.25 1.75.1.55.15.949.2 1.299h-4.649c.25-.45.5-.949.75-1.499.3-.55.6-1.15.9-1.749.35-.6.65-1.15.949-1.7.3-.55.55-1.049.8-1.399h.2c.1.4.2.899.3 1.499Zm31.037-2.149.55-3.399h-12.795l-.549 3.399h4.548l-2.649 15.344h3.648l2.699-15.344h4.548Zm-60.176-3.648c-1.049 0-2.099.05-3.148.149-1.05.15-2.049.3-2.999.55l-3.149 17.843c.95.25 2.049.4 3.249.55 1.15.15 2.249.2 3.299.2 1.549 0 2.948-.25 4.298-.75 1.349-.55 2.549-1.249 3.549-2.199.999-.95 1.799-2.099 2.399-3.449.549-1.349.849-2.898.849-4.598 0-1.349-.2-2.499-.599-3.548-.45-1.05-1-1.9-1.75-2.599a7.515 7.515 0 0 0-2.649-1.6 10.444 10.444 0 0 0-3.348-.549h-.001Zm-.799 3.398c.75 0 1.449.1 2.099.25.65.15 1.2.45 1.649.85.5.4.9.899 1.15 1.549.25.6.4 1.35.4 2.299 0 1.2-.15 2.249-.5 3.199-.3.95-.75 1.749-1.349 2.399-.6.65-1.3 1.1-2.15 1.449-.849.35-1.749.5-2.798.5-.45 0-.9 0-1.45-.05-.55-.05-1.049-.1-1.399-.15l2.149-12.095c.3-.05.7-.1 1.149-.15.45-.05.8-.05 1.05-.05ZM185.807 62.585c1.15 1.75 2.049 3.599 2.599 5.498.5 1.899.75 3.699.75 5.348 0 .85-.05 1.899-.2 3.049-.1 1.149-.25 2.049-.4 2.699l-7.947 42.333h14.394l8.447-45.682a23.29 23.29 0 0 1 6.597-3.498c2.399-.85 4.499-1.3 6.248-1.3 1.899 0 3.499.55 4.798 1.649 1.25 1.05 1.849 2.599 1.849 4.749 0 .599-.1 1.499-.3 2.748-.199 1.15-.349 2.2-.499 3.099l-3.599 16.893c-.25 1.3-.5 2.649-.75 4.049-.249 1.449-.349 2.699-.349 3.748 0 4.049 1.099 7.447 3.348 10.146 2.149 2.699 5.998 4.299 11.546 4.748l6.347-12.845c-2.149-.349-3.698-1.149-4.648-2.399-1-1.199-1.499-2.898-1.499-5.048 0-.499.05-1.099.15-1.749.05-.65.15-1.199.2-1.599l3.648-17.193c.3-1.45.55-2.899.75-4.349.2-1.399.3-2.798.3-4.148 0-4.948-1.45-8.946-4.349-11.895-2.948-2.949-7.047-4.448-12.295-4.448a26.23 26.23 0 0 0-8.796 1.499c-2.799.95-6.198 2.549-10.146 4.898-.15-.949-.5-2.099-1-3.399a23.24 23.24 0 0 0-1.799-3.348l-13.395 5.748v-.001Zm91.014-31.037h-14.145l-10.795 58.476c-.45 1.95-.8 3.999-1.05 6.148-.25 2.099-.4 4.048-.4 5.848 0 5.797 1.1 10.545 3.349 14.244s6.048 5.898 11.395 6.597l6.498-13.294c-1.05-.5-1.949-1.05-2.799-1.65-.85-.549-1.549-1.299-2.099-2.149-.6-.849-1.05-1.849-1.3-3.049-.25-1.199-.399-2.699-.399-4.448 0-.849.05-1.799.149-2.799.15-1.049.3-2.099.45-3.198l11.146-60.726Zm-30.388 101.009h-3.649l-2.399 13.695c-.499.55-1.099 1-1.849 1.399-.75.35-1.549.55-2.449.55-.9 0-1.599-.2-2.099-.6-.55-.449-.8-1.149-.8-2.199 0-.2.05-.5.1-.899.05-.35.05-.7.1-1l1.999-10.946h-3.698l-1.949 10.896-.15 1.35c-.05.449-.05.799-.05 1.149 0 1 .15 1.849.45 2.599.299.75.699 1.3 1.199 1.749.55.45 1.15.8 1.799 1 .7.2 1.4.3 2.15.3 1.849 0 3.498-.55 4.998-1.7 0 .25 0 .55.05.85 0 .25 0 .5.05.75l3.648-.25c-.05-.25-.05-.5-.05-.8-.05-.25-.05-.55-.05-.899 0-.6.05-1.25.1-1.9.05-.699.1-1.349.25-1.949l2.299-13.145Zm30.188 0h-3.549l-1.899 11.046c-.05.15-.1.4-.1.75v.849h-.15l-6.397-12.645h-3.349l-3.349 18.743h3.599l1.999-11.296c.05-.149.05-.399.05-.649v-.85h.15l6.548 12.945 3.198-.3 3.249-18.593Zm-61.825 1.9c-.7-.7-1.5-1.25-2.449-1.6-.95-.35-2-.549-3.099-.549-1.45 0-2.799.299-4.049.849-1.249.55-2.349 1.35-3.298 2.349-.95 1-1.7 2.149-2.249 3.499a11.49 11.49 0 0 0-.85 4.398c0 1.25.2 2.349.6 3.399.35.999.899 1.849 1.599 2.549.65.749 1.499 1.299 2.449 1.699.95.35 1.999.55 3.149.55a9.89 9.89 0 0 0 3.998-.85c1.25-.55 2.349-1.349 3.299-2.349.95-.95 1.699-2.149 2.249-3.499.55-1.349.85-2.848.85-4.448 0-1.249-.2-2.399-.6-3.398-.4-1-.95-1.85-1.599-2.599Zm-10.496 3.548a7.043 7.043 0 0 1 1.949-1.699c.75-.45 1.549-.65 2.499-.65 1.449 0 2.499.45 3.249 1.35.749.849 1.149 2.099 1.149 3.648 0 .95-.15 1.899-.45 2.849a6.751 6.751 0 0 1-1.199 2.399c-.55.7-1.2 1.25-1.949 1.699-.75.4-1.6.6-2.499.6-1.45 0-2.499-.45-3.249-1.299-.75-.9-1.15-2.099-1.15-3.649 0-.949.15-1.899.45-2.849.3-.899.7-1.699 1.2-2.399Zm-16.044-5.448H177.96l-3.348 18.743h3.698l1.25-7.147h6.747l.6-3.399h-6.748l.85-4.798h6.647l.6-3.399Z" style="fill:#fff;fill-rule:nonzero" transform="translate(2.054 5.226) scale(.41404)"/><path d="M127.081 44.893c1.349-10.946-1.4-20.792-8.197-29.489C112.087 6.708 103.19 1.66 92.245.31c-10.946-1.349-20.792 1.4-29.489 8.197-8.046 6.248-12.944 14.294-14.694 24.14-.15.85-.3 1.65-.4 2.499-.1.85-.15 1.65-.199 2.449-.35 4.599.099 8.997 1.299 13.195 1.349 4.898 3.699 9.496 7.097 13.845 3.399 4.348 7.297 7.747 11.745 10.296 3.749 2.149 7.897 3.598 12.445 4.398.8.15 1.6.25 2.449.4l1.35.15c1.1-4.449 2.799-8.597 5.148-12.346-1.549.05-3.149 0-4.748-.149-.1-.05-.15-.05-.2-.05-1.849-.25-3.649-.6-5.298-1.15-5.148-1.649-9.496-4.698-13.045-9.246-3.548-4.548-5.448-9.496-5.797-14.894-.1-1.75-.05-3.499.199-5.348v-.2c.95-7.447 4.399-13.495 10.346-18.143 5.998-4.648 12.745-6.547 20.292-5.598 7.547.9 13.645 4.349 18.293 10.346 4.648 5.998 6.547 12.745 5.648 20.292-.25 1.7-.55 3.299-1 4.848a41.404 41.404 0 0 1 13.195-1.999c.05-.45.15-.9.2-1.349Z" style="fill:#98c000;fill-rule:nonzero" transform="translate(2.054 5.226) scale(.41404)"/><path d="M132.329 51.49c-.85-.1-1.65-.2-2.499-.25-4.599-.3-8.997.15-13.195 1.299-4.898 1.35-9.496 3.749-13.845 7.148-4.348 3.348-7.747 7.247-10.246 11.695-2.149 3.748-3.598 7.897-4.448 12.445 4.349.75 8.347 1.999 12.045 3.848.25-1.799.6-3.498 1.1-5.098 1.649-5.147 4.698-9.496 9.246-13.044 4.548-3.549 9.496-5.498 14.944-5.848 1.75-.1 3.499-.05 5.348.2h.15c7.447.95 13.495 4.448 18.143 10.396 4.698 5.947 6.597 12.695 5.648 20.242-.95 7.547-4.399 13.644-10.346 18.342-5.948 4.649-12.695 6.498-20.142 5.598.849 4.049 1.099 8.297.799 12.695 9.946.65 18.943-2.199 26.99-8.447 8.696-6.797 13.744-15.693 15.094-26.639 1.349-10.945-1.4-20.792-8.197-29.488-6.298-8.047-14.344-12.945-24.14-14.694-.85-.15-1.65-.3-2.449-.4Z" style="fill:#98c000;fill-rule:nonzero" transform="translate(2.054 5.226) scale(.41404)"/><path d="M128.93 78.729c-3.449-.4-6.498.45-9.246 2.599-2.749 2.149-4.299 4.898-4.699 8.297-.449 3.448.4 6.497 2.549 9.246 2.15 2.749 4.898 4.298 8.347 4.698 3.399.45 6.448-.4 9.196-2.549 2.749-2.149 4.299-4.898 4.749-8.347.399-3.398-.45-6.447-2.599-9.196-2.15-2.749-4.898-4.298-8.297-4.748Z" style="fill:#fff;fill-rule:nonzero" transform="translate(2.054 5.226) scale(.41404)"/><path d="M12.826 73.631c.95-7.547 4.399-13.695 10.396-18.343 5.948-4.648 12.645-6.547 20.092-5.597a44.513 44.513 0 0 1-.8-12.695c-9.946-.65-18.942 2.149-26.989 8.446C6.779 52.24 1.781 61.136.431 72.082c-1.348 10.945 1.35 20.741 8.197 29.488 6.248 8.047 14.294 12.945 24.14 14.694.8.15 1.6.25 2.449.4.85.1 1.65.2 2.499.25 4.599.3 8.997-.15 13.195-1.3 4.848-1.399 9.496-3.798 13.845-7.147 4.298-3.399 7.697-7.297 10.245-11.695 2.15-3.749 3.599-7.897 4.449-12.445-4.349-.75-8.347-2.049-12.045-3.849-.25 1.75-.6 3.449-1.1 5.098-1.649 5.148-4.698 9.497-9.246 13.045-4.549 3.549-9.497 5.498-14.894 5.848-1.75.1-3.549.05-5.398-.2-.05 0-.1 0-.15-.05-7.447-.95-13.495-4.398-18.143-10.346-4.698-5.998-6.597-12.745-5.648-20.242Z" style="fill:#98c000;fill-rule:nonzero" transform="translate(2.054 5.226) scale(.41404)"/><path d="M32.469 67.134c-2.749 2.099-4.299 4.898-4.749 8.346-.399 3.349.45 6.398 2.599 9.147 2.1 2.749 4.848 4.348 8.297 4.798 3.449.35 6.497-.5 9.246-2.599 2.699-2.149 4.249-4.948 4.698-8.297.45-3.449-.399-6.547-2.549-9.246-2.149-2.749-4.898-4.299-8.346-4.698-3.449-.45-6.498.399-9.196 2.549Zm64.824-34.786c-2.15-2.749-4.948-4.299-8.347-4.699-3.449-.449-6.497.4-9.196 2.549-2.749 2.1-4.349 4.898-4.749 8.347-.449 3.399.45 6.447 2.599 9.196 2.1 2.699 4.849 4.299 8.297 4.749 3.399.349 6.448-.5 9.196-2.599 2.749-2.15 4.299-4.948 4.749-8.297.399-3.449-.45-6.547-2.549-9.246Z" style="fill:#fff;fill-rule:nonzero" transform="translate(2.054 5.226) scale(.41404)"/><path d="m85.047 88.425-1.349-.15c-1.1 4.448-2.799 8.597-5.148 12.345 1.549-.1 3.149-.05 4.798.15.05 0 .1 0 .15.05 1.849.2 3.599.55 5.298 1.1 5.148 1.649 9.496 4.748 13.045 9.296 3.548 4.498 5.448 9.446 5.797 14.894.1 1.749.05 3.499-.199 5.348v.2c-.95 7.447-4.399 13.494-10.346 18.143-5.998 4.648-12.745 6.547-20.292 5.597-7.547-.949-13.645-4.398-18.293-10.346-4.698-5.997-6.597-12.744-5.648-20.291.2-1.7.55-3.299 1.05-4.849-4.248 1.35-8.647 2-13.245 2-.05.45-.15.899-.2 1.349-1.349 10.946 1.35 20.742 8.197 29.488 6.797 8.697 15.694 13.745 26.639 15.094 10.946 1.349 20.742-1.399 29.489-8.196 8.046-6.298 12.944-14.345 14.694-24.191.15-.799.25-1.599.4-2.449.049-.849.149-1.649.199-2.449.3-4.648-.15-9.046-1.299-13.194-1.35-4.899-3.749-9.497-7.097-13.845-3.399-4.348-7.297-7.797-11.696-10.296-3.798-2.149-7.946-3.598-12.495-4.398-.799-.15-1.599-.3-2.449-.4Z" style="fill:#98c000;fill-rule:nonzero" transform="translate(2.054 5.226) scale(.41404)"/><path d="M89.995 120.412c-2.149-2.749-4.898-4.298-8.346-4.748-3.449-.4-6.498.45-9.196 2.599-2.749 2.149-4.299 4.898-4.749 8.297-.449 3.448.45 6.497 2.599 9.246 2.1 2.749 4.848 4.298 8.297 4.698 3.449.45 6.497-.4 9.246-2.549 2.699-2.149 4.249-4.898 4.698-8.346.4-3.399-.449-6.448-2.549-9.197Z" style="fill:#fff;fill-rule:nonzero" transform="translate(2.054 5.226) scale(.41404)"/></svg>