<svg width="500" height="100" viewBox="0 0 500 100" fill="none" xmlns="http://www.w3.org/2000/svg">
<path fill-rule="evenodd" clip-rule="evenodd" d="M126.674 10.5034C126.303 10.8854 126 25.6926 126 43.4085V75.618H136.787V50.4494H146.64C158.181 50.4494 164.427 48.6184 168.859 43.9344C173.052 39.5065 173.941 37.1056 173.935 30.2283C173.93 23.3115 172.681 20.0378 168.552 16.1151C163.633 11.4427 160.157 10.6364 143.079 10.2049C134.427 9.98742 127.045 10.1213 126.674 10.5034ZM268.921 42.809V75.618H278.809V10H268.921V42.809ZM321.955 17.191V30.6742H312.966V39.6629H321.955V75.618H331.843V39.6629H340.831V30.6742H331.843V17.191H321.955ZM159.35 22.8396C162.068 24.6661 162.434 25.3978 162.672 29.4805C162.672 33.2063 162.778 34.5924 160.73 36.6409C159.35 38.0207 158.336 39.2189 147.653 39.5137L136.787 39.813V20.7865H146.541C155.209 20.7865 156.636 21.0148 159.35 22.8396V22.8396ZM187.329 31.6782C176.836 36.8989 171.74 50.3793 175.853 62.036C180.787 76.0207 198.137 81.6297 208.472 72.5807L210.494 70.8099V75.618H220.382V30.6742H210.494C210.494 30.6742 210.594 30.8315 210.329 32.9384L210.045 35.2027L206.595 32.7389C201.861 29.3564 192.977 28.8674 187.329 31.6782V31.6782ZM237.819 32.0611C228.893 36.6948 224.276 45.1326 225.093 55.3187C226.132 68.2571 234.845 76.5025 247.827 76.8297C253.265 76.9663 259.293 75.049 262.854 72.0494C264.99 70.2499 265.542 69.7753 265.542 69.7753L258.98 62.9456L256.733 64.7128C253.734 67.0724 248.387 67.8769 243.842 66.6535C239.766 65.556 236.31 61.3321 235.24 56.1429C234.338 51.7627 235.507 46.1043 239.861 42.6058C242.496 40.4881 244.623 39.7609 248.002 39.6629C251.204 39.5694 253.641 40.1357 255.905 41.8625L258.788 44.0611L261.607 40.8764C263.158 39.1254 264.427 37.3555 264.427 36.9447C264.427 35.8319 259.906 32.4854 256.452 31.0418C251.427 28.942 242.932 29.4067 237.819 32.0611V32.0611ZM289.319 41.0715C279.964 52.0342 279.271 52.6966 279.271 52.6966C279.271 52.6966 288.349 63.0508 291.769 67.5101L297.988 75.618H310.442L307.435 71.671C305.781 69.5002 301.682 64.2166 298.327 59.929L292.227 52.1348L294.622 49.2692C295.939 47.6935 310.27 30.6742 310.27 30.6742C310.27 30.6742 312.974 30.6679 305.775 30.7074L298.135 30.7407L289.319 41.0715ZM343.266 30.6742L361.506 52.1555C361.506 52.1555 357.812 57.4256 353.298 63.0831C350.264 66.8859 347.23 70.6896 344.199 74.4944C343.504 75.3717 343.317 75.618 343.317 75.618H356.044L364.168 65.129C367.423 60.9296 370.581 56.6564 373.64 52.3128C373.64 52.3128 370.651 48.098 367.573 44.5546C364.801 41.3603 362.057 38.1416 359.342 34.8989L355.829 30.6742H343.266V30.6742ZM204.16 40.9897C206.361 42.1978 207.619 43.7618 208.712 45.5299C210.362 48.2013 210.636 49.7196 210.33 54.5249C210.02 59.3906 209.651 60.3272 207.383 62.9978C204.128 66.8315 199.789 67.8517 195.164 67.0706C183.926 65.1721 180.661 49.7555 189.856 42.018C192.055 40.1681 194.146 39.8274 197.124 39.6629C199.916 39.5083 201.709 39.6449 204.16 40.9897ZM126 83.2584V90H372.292V82.809H249.746C182.344 82.809 126 83.2584 126 83.2584Z" fill="#ED702D"/>
</svg>
