<svg width="276" height="89" fill="none" xmlns="http://www.w3.org/2000/svg"><path fill-rule="evenodd" clip-rule="evenodd" d="M.75.56C.337.985 0 17.458 0 37.167V73h12V45h10.962c12.839 0 19.788-2.037 24.719-7.248 4.664-4.926 5.653-7.597 5.647-15.248-.006-7.695-1.395-11.337-5.989-15.701C41.867 1.605 38 .708 19 .228 9.375-.014 1.163.135.75.56ZM159 36.5V73h11V0h-11v36.5ZM218 8v15h-10v10h10v40h11V33h10V23h-10V8h-11ZM37.102 14.284c3.024 2.032 3.431 2.846 3.696 7.388 0 4.145.118 5.687-2.161 7.966-1.535 1.535-2.663 2.868-14.548 3.196L12 33.167V12h10.852c9.643 0 11.231.254 14.25 2.284Zm31.126 9.833C56.555 29.925 50.886 44.922 55.461 57.89 60.95 73.448 80.252 79.688 91.75 69.621l2.25-1.97V73h11V23H94s.111.175-.184 2.519l-.316 2.519-3.838-2.741c-5.267-3.763-15.15-4.307-21.434-1.18Zm56.171.426c-9.931 5.155-15.067 14.542-14.158 25.874 1.156 14.394 10.849 23.567 25.291 23.931 6.05.152 12.757-1.981 16.718-5.318 2.376-2.002 2.99-2.53 2.99-2.53l-7.3-7.598-2.499 1.966c-3.337 2.625-9.286 3.52-14.342 2.159-4.534-1.221-8.379-5.92-9.569-11.693-1.004-4.873.296-11.168 5.14-15.06 2.932-2.356 5.298-3.165 9.057-3.274 3.562-.104 6.274.526 8.792 2.447l3.208 2.446 3.136-3.543c1.725-1.948 3.137-3.917 3.137-4.374 0-1.238-5.03-4.961-8.872-6.567-5.59-2.336-15.041-1.819-20.729 1.134Zm57.293 10.024C171.285 46.763 170.514 47.5 170.514 47.5s10.099 11.519 13.904 16.48l6.919 9.02h13.855l-3.346-4.391c-1.84-2.415-6.4-8.293-10.132-13.063l-6.786-8.671 2.664-3.188C189.057 41.934 205 23 205 23s3.009-.007-5 .037l-8.5.037-9.808 11.493ZM241.708 23 262 46.898s-4.109 5.863-9.131 12.157a23948.87 23948.87 0 0 0-10.123 12.695c-.773.976-.981 1.25-.981 1.25h14.159l9.038-11.669A388.395 388.395 0 0 0 275.5 47.073s-3.326-4.689-6.75-8.631a798.99 798.99 0 0 1-9.157-10.742l-3.908-4.7h-13.977ZM86.953 34.476c2.449 1.344 3.848 3.084 5.064 5.051 1.836 2.972 2.14 4.661 1.8 10.007-.345 5.413-.755 6.455-3.278 9.426-3.622 4.265-8.449 5.4-13.594 4.531C64.443 61.379 60.81 44.228 71.04 35.62c2.446-2.058 4.772-2.437 8.086-2.62 3.106-.172 5.1-.02 7.827 1.476ZM0 81.5V89h274v-8H137.667C62.683 81 0 81.5 0 81.5Z" fill="#000"/></svg>