<svg width="500" height="100" viewBox="0 0 500 100" fill="none" xmlns="http://www.w3.org/2000/svg">
<g clip-path="url(#clip0_1318_2040)">
<path d="M108.26 25.4703C113.284 25.4703 117.765 26.6388 121.707 28.9665C125.65 31.2945 128.782 34.4671 131.103 38.4853C133.422 42.5004 134.586 47.0245 134.586 52.06C134.586 57.0888 133.518 61.5909 131.393 65.5687C129.26 69.5597 126.346 72.7194 122.654 75.0499C118.954 77.3853 114.776 78.5565 110.119 78.5565C106.354 78.5565 102.893 77.7702 99.7351 76.2023C97.2682 74.9777 95.0842 73.4106 93.1828 71.5014L92.8502 71.161V94.5849C92.796 96.2835 92.2896 97.4781 91.3613 98.4424C90.3718 99.4704 89.069 100 87.4385 100C85.882 100 84.5949 99.4783 83.5705 98.4508C82.598 97.4754 82.0801 96.2625 82.0308 94.806L82.0269 94.574V52.0534L82.0361 51.5833C82.1649 46.7397 83.3398 42.3755 85.5541 38.4888C87.8441 34.4692 90.9614 31.2953 94.9053 28.9665C98.848 26.6383 103.299 25.4703 108.26 25.4703ZM108.26 35.2035C105.29 35.2035 102.602 35.9305 100.196 37.3903C97.7888 38.8508 95.9027 40.8485 94.5358 43.3818C93.1611 45.9298 92.4784 48.8234 92.4784 52.06C92.4784 55.2356 93.1616 58.098 94.5358 60.645C95.9027 63.1783 97.7888 65.176 100.196 66.6365C102.602 68.0963 105.29 68.8233 108.26 68.8233C111.288 68.8233 113.991 68.098 116.367 66.6384C118.747 65.1763 120.635 63.1759 122.033 60.6397C123.436 58.0942 124.134 55.2337 124.134 52.06C124.134 48.8254 123.437 45.9336 122.033 43.3871C120.635 40.8509 118.747 38.8506 116.367 37.3884C113.991 35.9288 111.288 35.2035 108.26 35.2035ZM173.63 25.4703C178.591 25.4703 183.042 26.6383 186.985 28.9665C190.927 31.2945 194.06 34.4671 196.381 38.4853C198.629 42.3787 199.792 46.7508 199.86 51.6037L199.863 52.06V72.8621C199.807 74.5642 199.283 75.7614 198.32 76.7277C197.295 77.7552 196.008 78.2768 194.452 78.2768C192.895 78.2768 191.608 77.7552 190.584 76.7277C189.547 75.6075 189.085 74.4365 189.043 73.0591L189.04 72.851L189.04 71.1547C187.577 72.6991 186.026 73.9644 184.306 75.0499C180.606 77.3853 176.429 78.5565 171.771 78.5565C167.114 78.5565 162.936 77.3853 159.236 75.0499C155.544 72.7194 152.63 69.5597 150.498 65.5687C148.372 61.5909 147.304 57.0888 147.304 52.06C147.304 47.0245 148.468 42.5004 150.787 38.4853C153.108 34.4667 156.257 31.2935 160.231 28.9653C164.205 26.6377 168.671 25.4703 173.63 25.4703ZM173.63 35.2035C170.661 35.2035 167.972 35.9305 165.566 37.3903C163.157 38.8521 161.255 40.8516 159.857 43.3871C158.453 45.9336 157.756 48.8254 157.756 52.06C157.756 55.2337 158.454 58.0942 159.857 60.6397C161.255 63.1752 163.157 65.1748 165.566 66.6365C167.972 68.0963 170.661 68.8233 173.63 68.8233C176.659 68.8233 179.362 68.098 181.738 66.6384C184.116 65.1775 185.987 63.179 187.354 60.645C188.729 58.098 189.412 55.2356 189.412 52.06C189.412 48.8234 188.729 45.9298 187.354 43.3818C185.987 40.8478 184.116 38.8493 181.738 37.3884C179.362 35.9288 176.659 35.2035 173.63 35.2035ZM259.729 4.02682C261.356 4.02682 262.656 4.53894 263.644 5.52937C264.583 6.47194 265.091 7.69839 265.137 9.22204L265.141 9.45282L265.141 51.9716L265.137 52.4354C265.067 57.2833 263.905 61.6513 261.658 65.5415C259.337 69.5597 256.205 72.7324 252.262 75.0603C248.32 77.3885 243.869 78.5565 238.908 78.5565C233.948 78.5565 229.483 77.3891 225.509 75.0615C221.534 72.7333 218.386 69.5601 216.065 65.5415C213.746 61.5264 212.582 57.0023 212.582 51.9668C212.582 46.938 213.649 42.4359 215.775 38.4581C217.908 34.4671 220.822 31.3075 224.514 28.9769C228.214 26.6415 232.391 25.4703 237.049 25.4703C240.812 25.4703 244.288 26.256 247.477 27.8233C249.965 29.0463 252.142 30.6107 254.009 32.5156L254.317 32.8363V9.4425C254.371 7.67186 254.902 6.45773 255.87 5.5211C256.892 4.53118 258.176 4.02682 259.729 4.02682ZM238.908 35.2035C235.938 35.2035 233.25 35.9305 230.844 37.3903C228.434 38.8524 226.531 40.8372 225.133 43.3434C223.73 45.8586 223.034 48.734 223.034 51.9668C223.034 55.1422 223.732 58.0192 225.136 60.596C226.534 63.1607 228.435 65.1751 230.844 66.6365C233.25 68.0963 235.938 68.8233 238.908 68.8233C241.936 68.8233 244.639 68.098 247.015 66.6384C249.393 65.1778 251.263 63.1645 252.63 60.6013C254.005 58.0229 254.689 55.1442 254.689 51.9668C254.689 48.732 254.008 45.8548 252.633 43.3381C251.266 40.8333 249.394 38.8496 247.015 37.3884C244.639 35.9288 241.936 35.2035 238.908 35.2035ZM337.581 25.4703C342.665 25.4703 347.175 26.6068 351.114 28.8692C355.062 31.1364 358.166 34.2656 360.427 38.2572C362.68 42.2373 363.814 46.837 363.814 52.06C363.814 57.2187 362.697 61.7864 360.475 65.766C358.246 69.7591 355.156 72.8896 351.207 75.1576C347.268 77.4196 342.727 78.5565 337.581 78.5565C332.434 78.5565 327.893 77.4196 323.954 75.1576C320.007 72.8904 316.902 69.7612 314.642 65.7696C312.387 61.7889 311.255 57.2201 311.255 52.06C311.255 46.837 312.388 42.2373 314.642 38.2572C316.902 34.2656 320.007 31.1364 323.954 28.8692C327.893 26.6072 332.434 25.4703 337.581 25.4703ZM337.581 35.2035C334.49 35.2035 331.754 35.9136 329.375 37.3449C326.999 38.7748 325.13 40.7569 323.764 43.2885C322.388 45.8375 321.706 48.7623 321.706 52.06C321.706 55.3559 322.388 58.2643 323.762 60.7819C325.128 63.2844 326.999 65.2517 329.375 66.6819C331.754 68.1132 334.49 68.8233 337.581 68.8233C340.671 68.8233 343.408 68.1132 345.786 66.6819C348.16 65.253 350.014 63.2876 351.35 60.7874C352.695 58.2681 353.362 55.3579 353.362 52.06C353.362 48.7603 352.694 45.8337 351.348 43.2831C350.013 40.7537 348.16 38.7735 345.786 37.3449C343.408 35.9136 340.671 35.2035 337.581 35.2035ZM402.393 25.4703C406.152 25.4703 409.592 26.192 412.713 27.6296C415.833 29.0665 418.636 31.2194 421.118 34.0911C422.155 35.2804 422.489 36.5091 422.195 37.7623C421.914 38.9597 421.159 40.0302 419.888 40.9515C418.861 41.6866 417.726 41.9266 416.479 41.6693C415.304 41.4265 414.228 40.8265 413.258 39.8543C410.339 36.7473 406.721 35.2035 402.393 35.2035C399.365 35.2035 396.691 35.8976 394.375 37.2977C392.063 38.695 390.257 40.6437 388.953 43.1407C387.635 45.6633 386.984 48.6378 386.984 52.06C386.984 55.2969 387.651 58.1759 388.996 60.6941C390.333 63.1967 392.189 65.1785 394.565 66.6384C396.943 68.0993 399.709 68.8233 402.858 68.8233C404.949 68.8233 406.786 68.5724 408.369 68.0631C409.931 67.5606 411.36 66.7767 412.659 65.7111C413.768 64.8073 414.915 64.315 416.091 64.2109C417.331 64.1012 418.425 64.4488 419.373 65.2534C420.58 66.2522 421.23 67.3839 421.372 68.626C421.518 69.9127 421.095 71.079 420.065 72.1127C415.464 76.4078 409.737 78.5565 402.858 78.5565C397.773 78.5565 393.246 77.3883 389.273 75.0615C385.296 72.7318 382.178 69.5722 379.919 65.5831C377.664 61.6011 376.532 57.0942 376.532 52.06C376.532 46.9026 377.648 42.32 379.87 38.3094C382.099 34.2847 385.157 31.1393 389.042 28.8715C392.92 26.6077 397.37 25.4703 402.393 25.4703ZM289.499 4.02682C291.123 4.02682 292.439 4.55185 293.46 5.57598C294.48 6.59938 295.004 7.91885 295.004 9.54605V72.6757C294.948 74.3725 294.428 75.5838 293.468 76.5797C292.445 77.6413 291.125 78.1836 289.499 78.1836C287.946 78.1836 286.643 77.649 285.585 76.5878C284.527 75.5274 283.995 74.2208 283.995 72.6644V9.5354C284.05 7.76726 284.594 6.53635 285.593 5.568C286.649 4.54432 287.949 4.02682 289.499 4.02682Z" fill="#21BA45" stroke="#21BA45" stroke-width="2"/>
<path d="M86.0963 97.9866C87.5215 97.9866 88.6679 97.536 89.5355 96.6347C90.403 95.7335 90.8368 94.5991 90.8368 93.2317V68.059C93.0057 70.6695 95.6238 72.7362 98.6912 74.2589C101.759 75.7817 105.12 76.5431 108.777 76.5431C113.3 76.5431 117.359 75.4088 120.953 73.1402C124.547 70.8715 127.382 67.7948 129.458 63.9101C131.534 60.0255 132.572 55.628 132.572 50.7178C132.572 45.8075 131.441 41.3945 129.179 37.4788C126.918 33.563 123.866 30.4708 120.024 28.2021C116.182 25.9335 111.813 24.7992 106.917 24.7992C102.084 24.7992 97.7462 25.9335 93.9042 28.2021C90.0622 30.4708 87.0258 33.563 84.7949 37.4788C82.5641 41.3945 81.4177 45.8075 81.3557 50.7178V93.2317C81.3557 94.5991 81.805 95.7335 82.7035 96.6347C83.6021 97.536 84.733 97.9866 86.0963 97.9866ZM106.917 68.1522C103.819 68.1522 101.015 67.3908 98.5053 65.868C95.9956 64.3452 94.0282 62.263 92.6029 59.6215C91.1776 56.9799 90.465 54.012 90.465 50.7178C90.465 47.3614 91.1776 44.3624 92.6029 41.7208C94.0282 39.0793 95.9956 36.9971 98.5053 35.4743C101.015 33.9515 103.819 33.1901 106.917 33.1901C110.078 33.1901 112.897 33.9515 115.376 35.4743C117.855 36.9971 119.822 39.0793 121.279 41.7208C122.735 44.3624 123.463 47.3614 123.463 50.7178C123.463 54.012 122.735 56.9799 121.279 59.6215C119.822 62.263 117.855 64.3452 115.376 65.868C112.897 67.3908 110.078 68.1522 106.917 68.1522ZM170.429 76.5431C174.953 76.5431 179.012 75.4088 182.606 73.1402C184.74 71.7931 186.606 70.1613 188.205 68.2445L188.368 68.0453L188.369 71.5086C188.369 72.804 188.772 73.8903 189.578 74.7673L189.717 74.9116C190.615 75.8128 191.746 76.2634 193.109 76.2634C194.473 76.2634 195.603 75.8128 196.502 74.9116C197.401 74.0103 197.85 72.876 197.85 71.5086V50.7178C197.85 45.8075 196.719 41.3945 194.457 37.4788C192.195 33.563 189.143 30.4708 185.301 28.2021C181.459 25.9335 177.122 24.7992 172.288 24.7992C167.455 24.7992 163.101 25.9335 159.228 28.2021C155.355 30.4708 152.288 33.563 150.026 37.4788C147.764 41.3945 146.633 45.8075 146.633 50.7178C146.633 55.628 147.671 60.0255 149.747 63.9101C151.823 67.7948 154.658 70.8715 158.252 73.1402C161.846 75.4088 165.905 76.5431 170.429 76.5431ZM172.288 68.1522C169.19 68.1522 166.386 67.3908 163.876 65.868C161.366 64.3452 159.383 62.263 157.927 59.6215C156.471 56.9799 155.743 54.012 155.743 50.7178C155.743 47.3614 156.471 44.3624 157.927 41.7208C159.383 39.0793 161.366 36.9971 163.876 35.4743C166.386 33.9515 169.19 33.1901 172.288 33.1901C175.448 33.1901 178.268 33.9515 180.747 35.4743C183.225 36.9971 185.177 39.0793 186.603 41.7208C188.028 44.3624 188.741 47.3614 188.741 50.7178C188.741 54.012 188.028 56.9799 186.603 59.6215C185.177 62.263 183.225 64.3452 180.747 65.868C178.268 67.3908 175.448 68.1522 172.288 68.1522ZM237.566 76.5431C242.399 76.5431 246.737 75.4088 250.579 73.1402C254.421 70.8715 257.473 67.7793 259.735 63.8635C261.997 59.9478 263.127 55.5348 263.127 50.6245V8.11056C263.127 6.681 262.694 5.53114 261.826 4.66097C260.959 3.7908 259.812 3.35571 258.387 3.35571C257.024 3.35571 255.893 3.7908 254.994 4.66097C254.096 5.53114 253.646 6.681 253.646 8.11056V33.2833C251.539 30.6728 248.937 28.6062 245.838 27.0834C242.74 25.5606 239.363 24.7992 235.707 24.7992C231.183 24.7992 227.124 25.9335 223.53 28.2021C219.936 30.4708 217.101 33.5475 215.025 37.4322C212.949 41.3168 211.911 45.7143 211.911 50.6245C211.911 55.5348 213.042 59.9478 215.304 63.8635C217.565 67.7793 220.633 70.8715 224.506 73.1402C228.379 75.4088 232.732 76.5431 237.566 76.5431ZM237.566 68.1522C234.467 68.1522 231.663 67.3908 229.154 65.868C226.644 64.3452 224.661 62.2475 223.205 59.5748C221.748 56.9022 221.02 53.9187 221.02 50.6245C221.02 47.2682 221.748 44.2847 223.205 41.6742C224.661 39.0637 226.644 36.9971 229.154 35.4743C231.663 33.9515 234.467 33.1901 237.566 33.1901C240.726 33.1901 243.546 33.9515 246.024 35.4743C248.503 36.9971 250.455 39.0637 251.88 41.6742C253.306 44.2847 254.018 47.2682 254.018 50.6245C254.018 53.9187 253.306 56.9022 251.88 59.5748C250.455 62.2475 248.503 64.3452 246.024 65.868C243.546 67.3908 240.726 68.1522 237.566 68.1522ZM288.157 76.1702C289.582 76.1702 290.744 75.704 291.643 74.7717C292.541 73.8394 292.99 72.6895 292.99 71.3221V8.2038C292.99 6.77423 292.541 5.60883 291.643 4.70758C290.744 3.80634 289.582 3.35571 288.157 3.35571C286.794 3.35571 285.647 3.80634 284.718 4.70758C283.788 5.60883 283.323 6.77423 283.323 8.2038V71.3221C283.323 72.6895 283.788 73.8394 284.718 74.7717C285.647 75.704 286.794 76.1702 288.157 76.1702ZM336.238 76.5431C341.258 76.5431 345.688 75.4399 349.53 73.2334C353.372 71.0269 356.378 67.9813 358.547 64.0966C360.716 60.2119 361.8 55.7523 361.8 50.7178C361.8 45.6211 360.7 41.1304 358.5 37.2457C356.3 33.361 353.28 30.3154 349.438 28.1089C345.596 25.9024 341.196 24.7992 336.238 24.7992C331.219 24.7992 326.788 25.9024 322.946 28.1089C319.104 30.3154 316.083 33.361 313.883 37.2457C311.684 41.1304 310.584 45.6211 310.584 50.7178C310.584 55.7523 311.684 60.2119 313.883 64.0966C316.083 67.9813 319.104 71.0269 322.946 73.2334C326.788 75.4399 331.219 76.5431 336.238 76.5431ZM336.238 68.1522C333.016 68.1522 330.165 67.4064 327.687 65.9146C325.208 64.4229 323.256 62.3718 321.831 59.7613C320.406 57.1508 319.693 54.1363 319.693 50.7178C319.693 47.2992 320.406 44.2692 321.831 41.6276C323.256 38.986 325.208 36.9194 327.687 35.4277C330.165 33.9359 333.016 33.1901 336.238 33.1901C339.461 33.1901 342.311 33.9359 344.79 35.4277C347.269 36.9194 349.205 38.986 350.599 41.6276C351.994 44.2692 352.691 47.2992 352.691 50.7178C352.691 54.1363 351.994 57.1508 350.599 59.7613C349.205 62.3718 347.269 64.4229 344.79 65.9146C342.311 67.4064 339.461 68.1522 336.238 68.1522ZM401.516 76.5431C408.209 76.5431 413.786 74.461 418.247 70.2966C419.115 69.4264 419.487 68.4475 419.363 67.3598C419.239 66.272 418.65 65.2931 417.597 64.4229C416.791 63.7392 415.862 63.444 414.808 63.5372C413.755 63.6305 412.732 64.0811 411.741 64.8891C410.377 66.0079 408.875 66.8314 407.233 67.3598C405.59 67.8881 403.685 68.1522 401.516 68.1522C398.232 68.1522 395.35 67.3908 392.871 65.868C390.393 64.3452 388.456 62.2786 387.062 59.6681C385.668 57.0576 384.971 54.0741 384.971 50.7178C384.971 47.1749 385.652 44.0983 387.015 41.4878C388.379 38.8773 390.269 36.8417 392.686 35.381C395.102 33.9204 397.891 33.1901 401.051 33.1901C405.575 33.1901 409.355 34.8061 412.391 38.0382C413.259 38.9083 414.219 39.4522 415.273 39.6697C416.326 39.8873 417.287 39.6853 418.154 39.0637C419.27 38.2557 419.951 37.3234 420.199 36.2667C420.447 35.2101 420.137 34.1846 419.27 33.1901C416.853 30.3931 414.126 28.2954 411.09 26.8969C408.054 25.4984 404.707 24.7992 401.051 24.7992C396.156 24.7992 391.818 25.9024 388.038 28.1089C384.258 30.3154 381.283 33.3765 379.115 37.2923C376.946 41.2081 375.861 45.6832 375.861 50.7178C375.861 55.628 376.961 60.0255 379.161 63.9101C381.361 67.7948 384.397 70.8715 388.27 73.1402C392.143 75.4088 396.559 76.5431 401.516 76.5431Z" fill="#2185D0" stroke="#2185D0" stroke-width="2"/>
<path d="M84.754 96.6443C86.1792 96.6443 87.3256 96.1937 88.1932 95.2924C89.0607 94.3912 89.4945 93.2568 89.4945 91.8894V66.7167C91.6634 69.3272 94.2815 71.3938 97.349 72.9166C100.416 74.4394 103.778 75.2008 107.434 75.2008C111.958 75.2008 116.017 74.0665 119.611 71.7978C123.205 69.5292 126.04 66.4525 128.116 62.5678C130.192 58.6831 131.23 54.2857 131.23 49.3755C131.23 44.4652 130.099 40.0522 127.837 36.1365C125.575 32.2207 122.523 29.1285 118.681 26.8598C114.839 24.5912 110.471 23.4568 105.575 23.4568C100.742 23.4568 96.404 24.5912 92.5619 26.8598C88.7199 29.1285 85.6835 32.2207 83.4526 36.1365C81.2218 40.0522 80.0754 44.4652 80.0134 49.3755V91.8894C80.0134 93.2568 80.4627 94.3912 81.3612 95.2924C82.2598 96.1937 83.3907 96.6443 84.754 96.6443ZM105.575 66.8099C102.477 66.8099 99.6728 66.0485 97.1631 64.5257C94.6534 63.0029 92.6859 60.9207 91.2606 58.2791C89.8353 55.6376 89.1227 52.6697 89.1227 49.3755C89.1227 46.0191 89.8353 43.0201 91.2606 40.3785C92.6859 37.7369 94.6534 35.6548 97.1631 34.132C99.6728 32.6092 102.477 31.8478 105.575 31.8478C108.736 31.8478 111.555 32.6092 114.034 34.132C116.513 35.6548 118.48 37.7369 119.936 40.3785C121.393 43.0201 122.121 46.0191 122.121 49.3755C122.121 52.6697 121.393 55.6376 119.936 58.2791C118.48 60.9207 116.513 63.0029 114.034 64.5257C111.555 66.0485 108.736 66.8099 105.575 66.8099ZM169.087 75.2008C173.61 75.2008 177.669 74.0665 181.263 71.7978C183.397 70.4508 185.264 68.819 186.863 66.9022L187.026 66.703L187.026 70.1663C187.026 71.4617 187.43 72.548 188.236 73.425L188.374 73.5693C189.273 74.4705 190.404 74.9211 191.767 74.9211C193.13 74.9211 194.261 74.4705 195.16 73.5693C196.058 72.668 196.508 71.5337 196.508 70.1663V49.3755C196.508 44.4652 195.377 40.0522 193.115 36.1365C190.853 32.2207 187.801 29.1285 183.959 26.8598C180.117 24.5912 175.779 23.4568 170.946 23.4568C166.112 23.4568 161.759 24.5912 157.886 26.8598C154.013 29.1285 150.946 32.2207 148.684 36.1365C146.422 40.0522 145.291 44.4652 145.291 49.3755C145.291 54.2857 146.329 58.6831 148.405 62.5678C150.481 66.4525 153.316 69.5292 156.91 71.7978C160.504 74.0665 164.563 75.2008 169.087 75.2008ZM170.946 66.8099C167.847 66.8099 165.043 66.0485 162.534 64.5257C160.024 63.0029 158.041 60.9207 156.585 58.2791C155.128 55.6376 154.4 52.6697 154.4 49.3755C154.4 46.0191 155.128 43.0201 156.585 40.3785C158.041 37.7369 160.024 35.6548 162.534 34.132C165.043 32.6092 167.847 31.8478 170.946 31.8478C174.106 31.8478 176.926 32.6092 179.404 34.132C181.883 35.6548 183.835 37.7369 185.26 40.3785C186.686 43.0201 187.398 46.0191 187.398 49.3755C187.398 52.6697 186.686 55.6376 185.26 58.2791C183.835 60.9207 181.883 63.0029 179.404 64.5257C176.926 66.0485 174.106 66.8099 170.946 66.8099ZM236.223 75.2008C241.057 75.2008 245.395 74.0665 249.237 71.7978C253.079 69.5292 256.131 66.437 258.392 62.5212C260.654 58.6055 261.785 54.1925 261.785 49.2822V6.76825C261.785 5.33869 261.351 4.18882 260.484 3.31865C259.616 2.44848 258.47 2.0134 257.045 2.0134C255.681 2.0134 254.55 2.44848 253.652 3.31865C252.753 4.18882 252.304 5.33869 252.304 6.76825V31.941C250.197 29.3305 247.594 27.2638 244.496 25.741C241.398 24.2182 238.02 23.4568 234.364 23.4568C229.841 23.4568 225.782 24.5912 222.188 26.8598C218.593 29.1285 215.758 32.2052 213.683 36.0898C211.607 39.9745 210.569 44.372 210.569 49.2822C210.569 54.1925 211.7 58.6055 213.961 62.5212C216.223 66.437 219.291 69.5292 223.164 71.7978C227.037 74.0665 231.39 75.2008 236.223 75.2008ZM236.223 66.8099C233.125 66.8099 230.321 66.0485 227.811 64.5257C225.302 63.0029 223.319 60.9052 221.862 58.2325C220.406 55.5599 219.678 52.5764 219.678 49.2822C219.678 45.9259 220.406 42.9424 221.862 40.3319C223.319 37.7214 225.302 35.6548 227.811 34.132C230.321 32.6092 233.125 31.8478 236.223 31.8478C239.384 31.8478 242.203 32.6092 244.682 34.132C247.161 35.6548 249.113 37.7214 250.538 40.3319C251.963 42.9424 252.676 45.9259 252.676 49.2822C252.676 52.5764 251.963 55.5599 250.538 58.2325C249.113 60.9052 247.161 63.0029 244.682 64.5257C242.203 66.0485 239.384 66.8099 236.223 66.8099ZM286.815 74.8279C288.24 74.8279 289.402 74.3617 290.3 73.4294C291.199 72.4971 291.648 71.3472 291.648 69.9798V6.86148C291.648 5.43192 291.199 4.26651 290.3 3.36527C289.402 2.46402 288.24 2.0134 286.815 2.0134C285.451 2.0134 284.305 2.46402 283.375 3.36527C282.446 4.26651 281.981 5.43192 281.981 6.86148V69.9798C281.981 71.3472 282.446 72.4971 283.375 73.4294C284.305 74.3617 285.451 74.8279 286.815 74.8279ZM334.896 75.2008C339.915 75.2008 344.346 74.0976 348.188 71.8911C352.03 69.6846 355.036 66.639 357.205 62.7543C359.373 58.8696 360.458 54.41 360.458 49.3755C360.458 44.2787 359.358 39.7881 357.158 35.9034C354.958 32.0187 351.937 28.9731 348.095 26.7666C344.253 24.5601 339.854 23.4568 334.896 23.4568C329.877 23.4568 325.446 24.5601 321.604 26.7666C317.762 28.9731 314.741 32.0187 312.541 35.9034C310.341 39.7881 309.241 44.2787 309.241 49.3755C309.241 54.41 310.341 58.8696 312.541 62.7543C314.741 66.639 317.762 69.6846 321.604 71.8911C325.446 74.0976 329.877 75.2008 334.896 75.2008ZM334.896 66.8099C331.674 66.8099 328.823 66.064 326.344 64.5723C323.866 63.0806 321.914 61.0295 320.489 58.419C319.063 55.8085 318.351 52.794 318.351 49.3755C318.351 45.9569 319.063 42.9269 320.489 40.2853C321.914 37.6437 323.866 35.5771 326.344 34.0853C328.823 32.5936 331.674 31.8478 334.896 31.8478C338.118 31.8478 340.969 32.5936 343.448 34.0853C345.926 35.5771 347.863 37.6437 349.257 40.2853C350.651 42.9269 351.349 45.9569 351.349 49.3755C351.349 52.794 350.651 55.8085 349.257 58.419C347.863 61.0295 345.926 63.0806 343.448 64.5723C340.969 66.064 338.118 66.8099 334.896 66.8099ZM400.174 75.2008C406.866 75.2008 412.443 73.1186 416.905 68.9543C417.773 68.0841 418.144 67.1051 418.02 66.0174C417.897 64.9297 417.308 63.9508 416.254 63.0806C415.449 62.3969 414.519 62.1017 413.466 62.1949C412.412 62.2881 411.39 62.7388 410.398 63.5468C409.035 64.6656 407.532 65.4891 405.89 66.0174C404.248 66.5458 402.343 66.8099 400.174 66.8099C396.889 66.8099 394.008 66.0485 391.529 64.5257C389.05 63.0029 387.114 60.9363 385.72 58.3258C384.325 55.7153 383.628 52.7318 383.628 49.3755C383.628 45.8326 384.31 42.756 385.673 40.1454C387.036 37.5349 388.927 35.4994 391.343 34.0387C393.76 32.5781 396.549 31.8478 399.709 31.8478C404.233 31.8478 408.013 33.4638 411.049 36.6958C411.917 37.566 412.877 38.1099 413.931 38.3274C414.984 38.545 415.945 38.343 416.812 37.7214C417.928 36.9134 418.609 35.9811 418.857 34.9244C419.105 33.8678 418.795 32.8422 417.928 31.8478C415.511 29.0508 412.784 26.9531 409.748 25.5546C406.711 24.1561 403.365 23.4568 399.709 23.4568C394.813 23.4568 390.476 24.5601 386.696 26.7666C382.916 28.9731 379.941 32.0342 377.772 35.95C375.603 39.8657 374.519 44.3409 374.519 49.3755C374.519 54.2857 375.619 58.6831 377.819 62.5678C380.019 66.4525 383.055 69.5292 386.928 71.7978C390.801 74.0665 395.216 75.2008 400.174 75.2008Z" fill="#A333C8" stroke="#A333C8" stroke-width="2"/>
<path d="M83.4117 95.302C84.837 95.302 85.9834 94.8514 86.8509 93.9501C87.7185 93.0489 88.1522 91.9145 88.1522 90.5471V65.3744C90.3211 67.9849 92.9393 70.0515 96.0067 71.5743C99.0741 73.0971 102.436 73.8585 106.092 73.8585C110.616 73.8585 114.675 72.7242 118.269 70.4556C121.863 68.1869 124.698 65.1102 126.774 61.2255C128.85 57.3409 129.888 52.9434 129.888 48.0332C129.888 43.1229 128.757 38.7099 126.495 34.7942C124.233 30.8784 121.181 27.7862 117.339 25.5175C113.497 23.2489 109.128 22.1146 104.233 22.1146C99.3994 22.1146 95.0617 23.2489 91.2197 25.5175C87.3776 27.7862 84.3412 30.8784 82.1104 34.7942C79.8795 38.7099 78.7331 43.1229 78.6711 48.0332V90.5471C78.6711 91.9145 79.1204 93.0489 80.0189 93.9501C80.9175 94.8514 82.0484 95.302 83.4117 95.302ZM104.233 65.4676C101.135 65.4676 98.3305 64.7062 95.8208 63.1834C93.3111 61.6606 91.3436 59.5784 89.9183 56.9369C88.4931 54.2953 87.7804 51.3274 87.7804 48.0332C87.7804 44.6768 88.4931 41.6778 89.9183 39.0362C91.3436 36.3947 93.3111 34.3125 95.8208 32.7897C98.3305 31.2669 101.135 30.5055 104.233 30.5055C107.393 30.5055 110.213 31.2669 112.692 32.7897C115.17 34.3125 117.138 36.3947 118.594 39.0362C120.05 41.6778 120.778 44.6768 120.778 48.0332C120.778 51.3274 120.05 54.2953 118.594 56.9369C117.138 59.5784 115.17 61.6606 112.692 63.1834C110.213 64.7062 107.393 65.4676 104.233 65.4676ZM167.744 73.8585C172.268 73.8585 176.327 72.7242 179.921 70.4556C182.055 69.1085 183.922 67.4767 185.52 65.5599L185.684 65.3607L185.684 68.824C185.684 70.1194 186.087 71.2057 186.894 72.0827L187.032 72.227C187.931 73.1282 189.061 73.5788 190.425 73.5788C191.788 73.5788 192.919 73.1282 193.817 72.227C194.716 71.3257 195.165 70.1914 195.165 68.824V48.0332C195.165 43.1229 194.034 38.7099 191.773 34.7942C189.511 30.8784 186.459 27.7862 182.617 25.5175C178.775 23.2489 174.437 22.1146 169.603 22.1146C164.77 22.1146 160.417 23.2489 156.544 25.5175C152.671 27.7862 149.603 30.8784 147.341 34.7942C145.08 38.7099 143.949 43.1229 143.949 48.0332C143.949 52.9434 144.987 57.3409 147.063 61.2255C149.139 65.1102 151.974 68.1869 155.568 70.4556C159.162 72.7242 163.221 73.8585 167.744 73.8585ZM169.603 65.4676C166.505 65.4676 163.701 64.7062 161.191 63.1834C158.682 61.6606 156.699 59.5784 155.242 56.9369C153.786 54.2953 153.058 51.3274 153.058 48.0332C153.058 44.6768 153.786 41.6778 155.242 39.0362C156.699 36.3947 158.682 34.3125 161.191 32.7897C163.701 31.2669 166.505 30.5055 169.603 30.5055C172.764 30.5055 175.583 31.2669 178.062 32.7897C180.541 34.3125 182.493 36.3947 183.918 39.0362C185.343 41.6778 186.056 44.6768 186.056 48.0332C186.056 51.3274 185.343 54.2953 183.918 56.9369C182.493 59.5784 180.541 61.6606 178.062 63.1834C175.583 64.7062 172.764 65.4676 169.603 65.4676ZM234.881 73.8585C239.715 73.8585 244.052 72.7242 247.894 70.4556C251.736 68.1869 254.788 65.0947 257.05 61.1789C259.312 57.2632 260.443 52.8502 260.443 47.9399V5.42596C260.443 3.9964 260.009 2.84653 259.142 1.97637C258.274 1.1062 257.128 0.671112 255.702 0.671112C254.339 0.671112 253.208 1.1062 252.31 1.97637C251.411 2.84653 250.962 3.9964 250.962 5.42596V30.5987C248.855 27.9882 246.252 25.9216 243.154 24.3988C240.055 22.876 236.678 22.1146 233.022 22.1146C228.498 22.1146 224.439 23.2489 220.845 25.5175C217.251 27.7862 214.416 30.8629 212.34 34.7476C210.264 38.6322 209.226 43.0297 209.226 47.9399C209.226 52.8502 210.357 57.2632 212.619 61.1789C214.881 65.0947 217.948 68.1869 221.821 70.4556C225.694 72.7242 230.048 73.8585 234.881 73.8585ZM234.881 65.4676C231.783 65.4676 228.979 64.7062 226.469 63.1834C223.959 61.6606 221.976 59.5629 220.52 56.8902C219.064 54.2176 218.336 51.2341 218.336 47.9399C218.336 44.5836 219.064 41.6001 220.52 38.9896C221.976 36.3791 223.959 34.3125 226.469 32.7897C228.979 31.2669 231.783 30.5055 234.881 30.5055C238.041 30.5055 240.861 31.2669 243.34 32.7897C245.818 34.3125 247.77 36.3791 249.196 38.9896C250.621 41.6001 251.334 44.5836 251.334 47.9399C251.334 51.2341 250.621 54.2176 249.196 56.8902C247.77 59.5629 245.818 61.6606 243.34 63.1834C240.861 64.7062 238.041 65.4676 234.881 65.4676ZM285.472 73.4856C286.898 73.4856 288.059 73.0194 288.958 72.0871C289.857 71.1548 290.306 70.0049 290.306 68.6375V5.5192C290.306 4.08963 289.857 2.92423 288.958 2.02298C288.059 1.12174 286.898 0.671112 285.472 0.671112C284.109 0.671112 282.963 1.12174 282.033 2.02298C281.104 2.92423 280.639 4.08963 280.639 5.5192V68.6375C280.639 70.0049 281.104 71.1548 282.033 72.0871C282.963 73.0194 284.109 73.4856 285.472 73.4856ZM333.554 73.8585C338.573 73.8585 343.004 72.7553 346.846 70.5488C350.688 68.3423 353.693 65.2967 355.862 61.412C358.031 57.5273 359.116 53.0677 359.116 48.0332C359.116 42.9365 358.016 38.4458 355.816 34.5611C353.616 30.6764 350.595 27.6308 346.753 25.4243C342.911 23.2178 338.511 22.1146 333.554 22.1146C328.534 22.1146 324.104 23.2178 320.262 25.4243C316.42 27.6308 313.399 30.6764 311.199 34.5611C308.999 38.4458 307.899 42.9365 307.899 48.0332C307.899 53.0677 308.999 57.5273 311.199 61.412C313.399 65.2967 316.42 68.3423 320.262 70.5488C324.104 72.7553 328.534 73.8585 333.554 73.8585ZM333.554 65.4676C330.331 65.4676 327.481 64.7218 325.002 63.23C322.523 61.7383 320.572 59.6872 319.146 57.0767C317.721 54.4662 317.008 51.4517 317.008 48.0332C317.008 44.6146 317.721 41.5846 319.146 38.943C320.572 36.3014 322.523 34.2348 325.002 32.7431C327.481 31.2513 330.331 30.5055 333.554 30.5055C336.776 30.5055 339.627 31.2513 342.105 32.7431C344.584 34.2348 346.521 36.3014 347.915 38.943C349.309 41.5846 350.006 44.6146 350.006 48.0332C350.006 51.4517 349.309 54.4662 347.915 57.0767C346.521 59.6872 344.584 61.7383 342.105 63.23C339.627 64.7218 336.776 65.4676 333.554 65.4676ZM398.831 73.8585C405.524 73.8585 411.101 71.7764 415.563 67.612C416.43 66.7418 416.802 65.7629 416.678 64.6752C416.554 63.5874 415.966 62.6085 414.912 61.7383C414.106 61.0546 413.177 60.7594 412.124 60.8526C411.07 60.9459 410.048 61.3965 409.056 62.2045C407.693 63.3233 406.19 64.1468 404.548 64.6752C402.906 65.2035 401 65.4676 398.831 65.4676C395.547 65.4676 392.666 64.7062 390.187 63.1834C387.708 61.6606 385.772 59.594 384.377 56.9835C382.983 54.373 382.286 51.3895 382.286 48.0332C382.286 44.4903 382.968 41.4137 384.331 38.8032C385.694 36.1927 387.584 34.1571 390.001 32.6964C392.418 31.2358 395.206 30.5055 398.367 30.5055C402.89 30.5055 406.67 32.1215 409.707 35.3536C410.574 36.2237 411.535 36.7676 412.588 36.9851C413.642 37.2027 414.602 37.0007 415.47 36.3791C416.585 35.5711 417.267 34.6388 417.515 33.5821C417.763 32.5255 417.453 31.5 416.585 30.5055C414.168 27.7085 411.442 25.6108 408.405 24.2123C405.369 22.8138 402.023 22.1146 398.367 22.1146C393.471 22.1146 389.133 23.2178 385.353 25.4243C381.573 27.6308 378.599 30.6919 376.43 34.6077C374.261 38.5235 373.177 42.9986 373.177 48.0332C373.177 52.9434 374.277 57.3409 376.476 61.2255C378.676 65.1102 381.713 68.1869 385.586 70.4556C389.459 72.7242 393.874 73.8585 398.831 73.8585Z" fill="#F2711C" stroke="#F2711C" stroke-width="2"/>
<path d="M82.7405 94.6309C84.1658 94.6309 85.3122 94.1803 86.1798 93.279C87.0473 92.3778 87.4811 91.2434 87.4811 89.876V64.7033C89.65 67.3138 92.2681 69.3804 95.3355 70.9032C98.4029 72.426 101.765 73.1874 105.421 73.1874C109.944 73.1874 114.003 72.0531 117.598 69.7844C121.192 67.5158 124.027 64.4391 126.103 60.5544C128.179 56.6698 129.217 52.2723 129.217 47.3621C129.217 42.4518 128.086 38.0388 125.824 34.1231C123.562 30.2073 120.51 27.1151 116.668 24.8464C112.826 22.5778 108.457 21.4434 103.562 21.4434C98.7283 21.4434 94.3905 22.5778 90.5485 24.8464C86.7065 27.1151 83.6701 30.2073 81.4392 34.1231C79.2084 38.0388 78.062 42.4518 78 47.3621V89.876C78 91.2434 78.4493 92.3778 79.3478 93.279C80.2463 94.1803 81.3773 94.6309 82.7405 94.6309ZM103.562 64.7965C100.463 64.7965 97.6593 64.0351 95.1496 62.5123C92.6399 60.9895 90.6724 58.9073 89.2472 56.2657C87.8219 53.6242 87.1093 50.6563 87.1093 47.3621C87.1093 44.0057 87.8219 41.0067 89.2472 38.3651C90.6724 35.7235 92.6399 33.6414 95.1496 32.1186C97.6593 30.5958 100.463 29.8344 103.562 29.8344C106.722 29.8344 109.542 30.5958 112.02 32.1186C114.499 33.6414 116.467 35.7235 117.923 38.3651C119.379 41.0067 120.107 44.0057 120.107 47.3621C120.107 50.6563 119.379 53.6242 117.923 56.2657C116.467 58.9073 114.499 60.9895 112.02 62.5123C109.542 64.0351 106.722 64.7965 103.562 64.7965ZM167.073 73.1874C171.597 73.1874 175.656 72.0531 179.25 69.7844C181.384 68.4374 183.25 66.8056 184.849 64.8888L185.012 64.6896L185.013 68.1529C185.013 69.4483 185.416 70.5346 186.223 71.4116L186.361 71.5559C187.259 72.4571 188.39 72.9077 189.754 72.9077C191.117 72.9077 192.248 72.4571 193.146 71.5559C194.045 70.6546 194.494 69.5203 194.494 68.1529V47.3621C194.494 42.4518 193.363 38.0388 191.101 34.1231C188.84 30.2073 185.788 27.1151 181.946 24.8464C178.104 22.5778 173.766 21.4434 168.932 21.4434C164.099 21.4434 159.746 22.5778 155.873 24.8464C152 27.1151 148.932 30.2073 146.67 34.1231C144.409 38.0388 143.278 42.4518 143.278 47.3621C143.278 52.2723 144.316 56.6698 146.391 60.5544C148.467 64.4391 151.302 67.5158 154.897 69.7844C158.491 72.0531 162.55 73.1874 167.073 73.1874ZM168.932 64.7965C165.834 64.7965 163.03 64.0351 160.52 62.5123C158.01 60.9895 156.028 58.9073 154.571 56.2657C153.115 53.6242 152.387 50.6563 152.387 47.3621C152.387 44.0057 153.115 41.0067 154.571 38.3651C156.028 35.7235 158.01 33.6414 160.52 32.1186C163.03 30.5958 165.834 29.8344 168.932 29.8344C172.093 29.8344 174.912 30.5958 177.391 32.1186C179.87 33.6414 181.822 35.7235 183.247 38.3651C184.672 41.0067 185.385 44.0057 185.385 47.3621C185.385 50.6563 184.672 53.6242 183.247 56.2657C181.822 58.9073 179.87 60.9895 177.391 62.5123C174.912 64.0351 172.093 64.7965 168.932 64.7965ZM234.21 73.1874C239.043 73.1874 243.381 72.0531 247.223 69.7844C251.065 67.5158 254.117 64.4236 256.379 60.5078C258.641 56.5921 259.772 52.1791 259.772 47.2688V4.75485C259.772 3.32529 259.338 2.17542 258.47 1.30525C257.603 0.435084 256.456 0 255.031 0C253.668 0 252.537 0.435084 251.638 1.30525C250.74 2.17542 250.291 3.32529 250.291 4.75485V29.9276C248.184 27.3171 245.581 25.2504 242.483 23.7276C239.384 22.2048 236.007 21.4434 232.351 21.4434C227.827 21.4434 223.768 22.5778 220.174 24.8464C216.58 27.1151 213.745 30.1918 211.669 34.0764C209.593 37.9611 208.555 42.3586 208.555 47.2688C208.555 52.1791 209.686 56.5921 211.948 60.5078C214.21 64.4236 217.277 67.5158 221.15 69.7844C225.023 72.0531 229.376 73.1874 234.21 73.1874ZM234.21 64.7965C231.112 64.7965 228.307 64.0351 225.798 62.5123C223.288 60.9895 221.305 58.8918 219.849 56.2191C218.393 53.5465 217.665 50.563 217.665 47.2688C217.665 43.9125 218.393 40.929 219.849 38.3185C221.305 35.708 223.288 33.6414 225.798 32.1186C228.307 30.5958 231.112 29.8344 234.21 29.8344C237.37 29.8344 240.19 30.5958 242.669 32.1186C245.147 33.6414 247.099 35.708 248.525 38.3185C249.95 40.929 250.662 43.9125 250.662 47.2688C250.662 50.563 249.95 53.5465 248.525 56.2191C247.099 58.8918 245.147 60.9895 242.669 62.5123C240.19 64.0351 237.37 64.7965 234.21 64.7965ZM284.801 72.8145C286.226 72.8145 287.388 72.3483 288.287 71.416C289.185 70.4837 289.635 69.3338 289.635 67.9664V4.84808C289.635 3.41852 289.185 2.25312 288.287 1.35187C287.388 0.450623 286.226 0 284.801 0C283.438 0 282.291 0.450623 281.362 1.35187C280.432 2.25312 279.968 3.41852 279.968 4.84808V67.9664C279.968 69.3338 280.432 70.4837 281.362 71.416C282.291 72.3483 283.438 72.8145 284.801 72.8145ZM332.883 73.1874C337.902 73.1874 342.333 72.0842 346.175 69.8777C350.017 67.6712 353.022 64.6256 355.191 60.7409C357.36 56.8562 358.444 52.3966 358.444 47.3621C358.444 42.2654 357.345 37.7747 355.145 33.89C352.945 30.0053 349.924 26.9597 346.082 24.7532C342.24 22.5467 337.84 21.4434 332.883 21.4434C327.863 21.4434 323.433 22.5467 319.591 24.7532C315.749 26.9597 312.728 30.0053 310.528 33.89C308.328 37.7747 307.228 42.2654 307.228 47.3621C307.228 52.3966 308.328 56.8562 310.528 60.7409C312.728 64.6256 315.749 67.6712 319.591 69.8777C323.433 72.0842 327.863 73.1874 332.883 73.1874ZM332.883 64.7965C329.66 64.7965 326.81 64.0507 324.331 62.5589C321.852 61.0672 319.9 59.0161 318.475 56.4056C317.05 53.7951 316.337 50.7806 316.337 47.3621C316.337 43.9435 317.05 40.9135 318.475 38.2719C319.9 35.6303 321.852 33.5637 324.331 32.0719C326.81 30.5802 329.66 29.8344 332.883 29.8344C336.105 29.8344 338.956 30.5802 341.434 32.0719C343.913 33.5637 345.849 35.6303 347.244 38.2719C348.638 40.9135 349.335 43.9435 349.335 47.3621C349.335 50.7806 348.638 53.7951 347.244 56.4056C345.849 59.0161 343.913 61.0672 341.434 62.5589C338.956 64.0507 336.105 64.7965 332.883 64.7965ZM398.16 73.1874C404.853 73.1874 410.43 71.1052 414.892 66.9409C415.759 66.0707 416.131 65.0917 416.007 64.004C415.883 62.9163 415.294 61.9374 414.241 61.0672C413.435 60.3835 412.506 60.0883 411.452 60.1815C410.399 60.2747 409.376 60.7254 408.385 61.5334C407.022 62.6522 405.519 63.4757 403.877 64.004C402.235 64.5324 400.329 64.7965 398.16 64.7965C394.876 64.7965 391.994 64.0351 389.516 62.5123C387.037 60.9895 385.101 58.9229 383.706 56.3124C382.312 53.7019 381.615 50.7184 381.615 47.3621C381.615 43.8192 382.296 40.7426 383.66 38.132C385.023 35.5215 386.913 33.486 389.33 32.0253C391.747 30.5647 394.535 29.8344 397.695 29.8344C402.219 29.8344 405.999 31.4504 409.036 34.6824C409.903 35.5526 410.864 36.0965 411.917 36.314C412.971 36.5316 413.931 36.3296 414.799 35.708C415.914 34.9 416.596 33.9677 416.844 32.911C417.091 31.8544 416.782 30.8288 415.914 29.8344C413.497 27.0374 410.771 24.9397 407.734 23.5412C404.698 22.1427 401.352 21.4434 397.695 21.4434C392.8 21.4434 388.462 22.5467 384.682 24.7532C380.902 26.9597 377.928 30.0208 375.759 33.9366C373.59 37.8524 372.506 42.3275 372.506 47.3621C372.506 52.2723 373.605 56.6698 375.805 60.5544C378.005 64.4391 381.042 67.5158 384.915 69.7844C388.788 72.0531 393.203 73.1874 398.16 73.1874Z" fill="white" stroke="#F2711C" stroke-width="2"/>
</g>
<defs>
<clipPath id="clip0_1318_2040">
<rect width="500" height="100" fill="white"/>
</clipPath>
</defs>
</svg>
