<svg width="500" height="100" viewBox="0 0 500 100" fill="none" xmlns="http://www.w3.org/2000/svg">
<path d="M247.981 71.2646C246.445 71.2646 245.235 70.9958 244.352 70.4582C243.507 69.9206 242.893 69.1718 242.509 68.2118C242.125 67.2518 241.856 66.1382 241.702 64.871L241.011 58.3622C240.934 57.5942 240.838 56.8262 240.723 56.0582C240.646 55.2518 240.569 54.4454 240.493 53.639C240.454 52.7942 240.397 51.9686 240.32 51.1622C240.281 50.3174 240.262 49.4918 240.262 48.6854H240.089C239.437 50.375 238.784 51.9302 238.131 53.351C237.478 54.7334 236.71 56.3462 235.827 58.1894L229.952 70.6886H220.563L237.958 39.4694L237.728 37.6262C237.497 35.8214 236.864 34.6886 235.827 34.2278C234.79 33.767 233.523 33.5366 232.025 33.5366C231.373 33.5366 230.758 33.575 230.182 33.6518C229.645 33.7286 229.184 33.8054 228.8 33.8822L230.24 27.0854C230.624 27.0086 231.046 26.9318 231.507 26.855C232.006 26.7782 232.544 26.7206 233.12 26.6822C233.696 26.6438 234.31 26.6246 234.963 26.6246C237.152 26.6246 238.937 26.8742 240.32 27.3734C241.702 27.8726 242.777 28.7558 243.545 30.023C244.313 31.2902 244.889 33.095 245.273 35.4374L248.96 58.3622C249.229 59.9366 249.517 61.1462 249.824 61.991C250.169 62.7974 250.553 63.3542 250.976 63.6614C251.437 63.9302 251.936 64.0646 252.473 64.0646C252.896 64.0646 253.241 64.0454 253.51 64.007C253.817 63.9302 254.144 63.8534 254.489 63.7766L253.107 70.4006C252.761 70.5542 252.262 70.6886 251.609 70.8038C250.995 70.9574 250.361 71.0726 249.709 71.1494C249.056 71.2262 248.48 71.2646 247.981 71.2646Z" fill="black"/>
<path d="M297.482 27.8918L295.294 43.0406L291.089 43.0982L290.916 31.5782L282.91 30.9446L278.129 67.2326L285.79 67.9814L285.502 70.6886H262.75L263.038 67.9814L270.065 67.2326L274.788 30.9446L266.839 31.5782L262.865 43.0406H258.545L261.079 27.8918H297.482Z" fill="black"/>
<path d="M308.477 27.8918C309.629 27.8918 311.203 27.815 313.2 27.6614C315.12 27.5078 316.541 27.431 317.462 27.431C322.646 27.431 326.41 28.4102 328.752 30.3686C331.094 32.327 332.266 35.303 332.266 39.2966C332.266 42.791 331.459 45.7862 329.846 48.2822C328.234 50.7782 325.968 52.679 323.05 53.9846C320.17 55.2902 316.829 55.943 313.027 55.943C311.453 55.943 310.09 55.9046 308.938 55.8278L307.613 67.2326L314.525 68.039L314.352 70.6886H295.114L295.402 68.039L299.376 67.2326L304.042 31.4054L300.01 30.7142L300.355 27.8918H308.477ZM309.398 52.2566C310.474 52.487 311.779 52.6022 313.315 52.6022C316.694 52.5638 319.286 51.335 321.091 48.9158C322.934 46.4966 323.875 43.175 323.914 38.951C323.914 33.4598 321.322 30.7142 316.138 30.7142C314.87 30.7142 313.565 30.8294 312.221 31.0598L309.398 52.2566Z" fill="black"/>
<path d="M336.916 56.519C336.916 54.9446 337.051 52.8902 337.32 50.3558C338.011 45.3638 339.528 40.775 341.87 36.5894C344.212 32.4038 346.651 28.9862 349.185 26.3366C351.758 23.6486 353.716 21.9398 355.06 21.2102L358.113 23.3414C357 24.071 355.483 25.5878 353.563 27.8918C351.681 30.1574 349.838 33.1334 348.033 36.8198C346.228 40.5062 344.961 44.615 344.232 49.1462C343.886 51.4502 343.713 53.8502 343.713 56.3462C343.713 60.1478 344.136 63.5846 344.98 66.6566C345.864 69.7286 346.881 72.2246 348.033 74.1446C349.185 76.103 350.203 77.4662 351.086 78.2342L347.745 80.2502H347.284C346.209 79.5206 344.865 78.1574 343.252 76.1606C341.64 74.1638 340.18 71.4758 338.875 68.0966C337.569 64.7174 336.916 60.8582 336.916 56.519Z" fill="black"/>
<path d="M375.84 44.711C375.84 46.2854 375.706 48.3398 375.437 50.8742C374.746 55.8662 373.229 60.455 370.886 64.6406C368.544 68.8262 366.086 72.2438 363.514 74.8934C360.979 77.5814 359.04 79.2902 357.696 80.0198L354.643 77.8886C355.757 77.159 357.254 75.6422 359.136 73.3382C361.056 71.0726 362.918 68.0966 364.723 64.4102C366.528 60.7238 367.795 56.615 368.525 52.0838C368.87 49.7798 369.043 47.3798 369.043 44.8838C369.043 41.0822 368.602 37.6454 367.718 34.5734C366.874 31.5014 365.875 29.0054 364.723 27.0854C363.571 25.127 362.554 23.7638 361.67 22.9958L365.011 20.9798H365.472C366.547 21.7094 367.891 23.0726 369.504 25.0694C371.117 27.0662 372.576 29.7542 373.882 33.1334C375.187 36.5126 375.84 40.3718 375.84 44.711Z" fill="black"/>
<path d="M387.456 62.6822C389.376 63.2198 390.778 64.2758 391.661 65.8502C392.544 67.3862 392.986 69.1142 392.986 71.0342C392.986 74.1062 392.006 76.8902 390.048 79.3862C388.09 81.9206 385.498 83.8406 382.272 85.1462L380.659 82.8998L380.774 82.3238C382.349 81.5942 383.712 80.3462 384.864 78.5798C386.054 76.8134 386.65 74.951 386.65 72.9926C386.65 71.687 386.362 70.5542 385.786 69.5942C385.21 68.5958 384.499 68.0774 383.654 68.039L383.77 66.4838L387.456 62.6822ZM385.325 44.4806C385.325 42.983 385.805 41.7542 386.765 40.7942C387.725 39.7958 388.819 39.2966 390.048 39.2966C391.277 39.2966 392.237 39.6998 392.928 40.5062C393.619 41.2742 393.965 42.215 393.965 43.3286C393.965 44.9798 393.466 46.2662 392.467 47.1878C391.507 48.071 390.336 48.5126 388.954 48.5126C387.955 48.5126 387.091 48.1478 386.362 47.4182C385.67 46.6502 385.325 45.671 385.325 44.4806Z" fill="black"/>
<path fill-rule="evenodd" clip-rule="evenodd" d="M150.989 50.9886H193.977C193.854 56.4261 192.723 61.7965 190.639 66.8267C188.428 72.165 185.187 77.0156 181.101 81.1013C177.016 85.1871 172.165 88.4281 166.827 90.6394C161.797 92.7229 156.426 93.8537 150.989 93.9773L150.989 50.9886Z" fill="black"/>
<path fill-rule="evenodd" clip-rule="evenodd" d="M148.989 50.9887V93.9773C143.551 93.8537 138.181 92.7229 133.151 90.6393C127.812 88.4281 122.962 85.1871 118.876 81.1014C114.79 77.0156 111.549 72.1651 109.338 66.8267C107.254 61.7966 106.124 56.4261 106 50.9886L148.989 50.9887Z" fill="black"/>
<path fill-rule="evenodd" clip-rule="evenodd" d="M106 48.9886C106.124 43.5512 107.254 38.1807 109.338 33.1506C111.549 27.8122 114.79 22.9617 118.876 18.8759C122.962 14.7902 127.812 11.5491 133.151 9.33793C138.181 7.25436 143.551 6.1236 148.989 6L148.989 48.9886L106 48.9886Z" fill="black"/>
<path fill-rule="evenodd" clip-rule="evenodd" d="M150.989 6C156.426 6.1236 161.797 7.25436 166.827 9.33794C172.165 11.5491 177.016 14.7902 181.101 18.8759C185.187 22.9617 188.428 27.8122 190.639 33.1506C192.723 38.1807 193.854 43.5512 193.977 48.9886L150.989 48.9886V6Z" fill="black"/>
</svg>
