<svg width="500" height="100" viewBox="0 0 500 100" fill="none" xmlns="http://www.w3.org/2000/svg">
<path d="M107.716 39.7548L107.716 39.7552V33.4639L74.3018 14.1719L40.8873 33.4637V33.7633L40.8866 33.763V40.0543L46.6463 43.3797L40.8873 46.7047V47.0043L40.8866 47.004V53.2953L46.6463 56.6206L40.8873 59.9455V60.2451L40.8866 60.2448V66.5361L74.3011 85.828L107.716 66.5363V66.2366L107.716 66.237V59.9457L101.957 56.6203L107.716 53.2954V52.9958L107.716 52.9961V46.7048L101.957 43.3795L107.716 40.0544V39.7548L107.716 39.7548ZM46.465 41.352C46.0571 40.8195 46.0578 40.1337 46.4664 39.8204C46.8756 39.5071 47.5378 39.6848 47.9457 40.2174C48.3536 40.75 48.3529 41.4357 47.9444 41.7491C47.5358 42.0623 46.8729 41.8846 46.465 41.352V41.352ZM46.465 54.3902C46.0571 53.8577 46.0578 53.1719 46.4664 52.8586C46.8756 52.5453 47.5378 52.723 47.9457 53.2556C48.3536 53.7882 48.3529 54.4739 47.9444 54.7872C47.5358 55.1005 46.8729 54.9228 46.465 54.3902V54.3902ZM47.9444 67.9071C47.5358 68.2204 46.8729 68.0426 46.465 67.5101C46.0571 66.9775 46.0578 66.2918 46.4664 65.9785C46.8756 65.6652 47.5378 65.8429 47.9457 66.3754C48.3536 66.908 48.3529 67.5937 47.9444 67.9071ZM52.6455 70.534C52.2362 70.8473 51.574 70.6696 51.1661 70.137C50.7576 69.6044 50.7583 68.9187 51.1675 68.6054C51.5761 68.2921 52.2383 68.4698 52.6468 69.0024C53.0547 69.535 53.054 70.2207 52.6455 70.534ZM102.527 63.2408L74.3011 79.5367L46.0761 63.2411L52.0949 59.7663L74.3011 72.5872L96.5086 59.766L102.527 63.2408V63.2408ZM51.1675 55.4856C51.5761 55.1722 52.2383 55.35 52.6468 55.8825C53.0547 56.4151 53.054 57.1009 52.6455 57.4141C52.2362 57.7275 51.574 57.5498 51.1661 57.0172C50.7576 56.4846 50.7583 55.7988 51.1675 55.4856ZM102.527 50L74.3011 66.2959L46.0761 50.0002L52.0949 46.5254L74.3011 59.3463L96.5086 46.5251L102.527 50V50ZM51.1675 42.4473C51.5761 42.1341 52.2383 42.3118 52.6468 42.8444C53.0547 43.377 53.054 44.0627 52.6455 44.376C52.2362 44.6893 51.574 44.5116 51.1661 43.979C50.7576 43.4464 50.7583 42.7607 51.1675 42.4473V42.4473ZM74.3011 53.0549L46.0761 36.7592L74.3017 20.4633L102.527 36.759L74.3011 53.0549V53.0549Z" fill="white"/>
<path d="M117.603 25.0001L117.603 75.0002L74.3016 100L31 75.0004L31.0002 24.9998L74.3011 0L117.603 25.0001H117.603ZM112.062 71.8004L112.061 28.1996L74.3021 6.39791L36.5416 28.1989V71.801L74.3018 93.6014L112.062 71.8004V71.8004Z" fill="white"/>
<path d="M227.65 44.3662C224.008 43.2322 222.035 42.398 222.035 41.2357C222.035 38.6581 226.15 38.0942 227.736 38.0942C231.277 38.0942 234.801 39.2442 237.409 41.248L238.487 42.0773L244.568 32.7424L243.539 32.0494C238.794 28.8575 233.776 27.3058 228.195 27.3058C220.314 27.3058 214.329 30.3975 211.638 35.4152C208.873 30.692 203.24 27.9619 195.613 27.9619H158.934L153.231 38.3571H176.036L176.118 38.215L176.091 38.3571H194.956C198.937 38.3571 201.315 40.415 201.315 43.8613C201.315 49.2745 197.255 52.9112 191.214 52.9112H185.122C186.143 47.5983 182.072 42.6697 176.662 42.6697H175.259L169.404 73.0222H181.16L182.998 63.3052H190.36C201.554 63.3052 209.97 57.6707 212.641 49.034C214.973 51.771 218.896 53.8111 224.481 55.1939C227.215 55.8635 230.351 56.8612 230.351 58.6328C230.351 61.7338 225.405 62.8899 222.287 62.8899C217.778 62.8899 214.26 61.6294 211.533 59.0346L210.432 57.9878L204.529 67.1434L205.246 67.8609C207.015 69.6301 212.198 73.7447 222.089 73.7447C232.16 73.7447 242.322 68.9912 242.322 58.3711C242.322 49.9453 234.901 46.5618 227.65 44.3662H227.65Z" fill="white"/>
<path d="M160.767 42.6697L152.808 57.1781L147.726 27.9619H135.751L144.582 73.0874H155.861L173.531 42.6697H160.767Z" fill="white"/>
<path d="M263.37 72.5243C261.302 72.5243 259.326 72.2133 257.444 71.5939C255.562 70.9732 253.825 70.0534 252.232 68.8317C250.639 67.6126 249.243 66.1128 248.043 64.3334L250.277 62.0383C252.098 64.6851 254.124 66.5786 256.359 67.715C258.592 68.854 260.971 69.4222 263.493 69.4222C265.686 69.4222 267.652 69.039 269.389 68.274C271.127 67.5089 272.501 66.4539 273.516 65.1089C274.529 63.7652 275.036 62.2456 275.036 60.5489C275.036 59.3902 274.839 58.3982 274.445 57.5702C274.052 56.7435 273.494 56.0191 272.771 55.3984C272.046 54.7778 271.178 54.2299 270.165 53.7542C269.15 53.2792 268.013 52.8449 266.752 52.4512C265.489 52.0582 264.135 51.6547 262.688 51.2413C260.702 50.662 258.933 50.0623 257.382 49.4416C255.831 48.8209 254.507 48.0762 253.41 47.2075C252.315 46.3388 251.488 45.3055 250.929 44.1055C250.371 42.9061 250.092 41.4371 250.092 39.6997C250.092 38.0043 250.433 36.4526 251.115 35.0459C251.798 33.6405 252.759 32.4195 254.001 31.3848C255.242 30.3514 256.678 29.5549 258.313 28.9959C259.946 28.4375 261.715 28.1587 263.618 28.1587C265.853 28.1587 267.807 28.4795 269.482 29.1206C271.157 29.7622 272.636 30.6618 273.918 31.8191C275.201 32.9778 276.358 34.3432 277.392 35.9146L275.097 38.1486C274.188 36.7426 273.175 35.5222 272.057 34.4876C270.94 33.4542 269.688 32.657 268.304 32.0987C266.917 31.5403 265.355 31.2608 263.618 31.2608C261.633 31.2608 259.864 31.6236 258.313 32.3467C256.762 33.071 255.531 34.0749 254.621 35.3562C253.711 36.6389 253.255 38.108 253.255 39.762C253.255 40.9207 253.473 41.9337 253.908 42.8024C254.342 43.6711 255.024 44.4263 255.956 45.0673C256.885 45.709 258.065 46.2877 259.491 46.8047C260.919 47.3224 262.625 47.8282 264.611 48.3249C266.638 48.8209 268.479 49.4009 270.133 50.0623C271.787 50.7243 273.225 51.5103 274.445 52.4197C275.666 53.3304 276.597 54.4267 277.238 55.7081C277.879 56.9915 278.201 58.5425 278.201 60.3626C278.201 62.6799 277.558 64.7585 276.277 66.5982C274.994 68.4393 273.235 69.8867 271.002 70.9417C268.769 71.9967 266.225 72.5242 263.37 72.5242V72.5243Z" fill="white"/>
<path d="M324.488 71.9036V28.4691H340.125C342.689 28.4691 344.975 29.0484 346.982 30.2064C348.987 31.3645 350.57 32.9267 351.727 34.8911C352.887 36.8561 353.465 39.079 353.465 41.5611C353.465 44.0432 352.916 46.2149 351.822 48.0763C350.725 49.9377 349.216 51.3962 347.292 52.4512C345.368 53.5056 343.187 54.0331 340.747 54.0331H327.59V71.9036H324.488V71.9036ZM327.59 50.931H341.119C342.896 50.931 344.468 50.538 345.833 49.752C347.2 48.9666 348.263 47.8703 349.029 46.4629C349.793 45.0575 350.176 43.4645 350.176 41.6851C350.176 39.7417 349.743 38.0043 348.875 36.473C348.006 34.9436 346.796 33.7429 345.245 32.8742C343.694 32.0055 341.925 31.5712 339.938 31.5712H327.59V50.931V50.931ZM351.544 71.9036L340.747 53.2268L343.353 51.6134L355.142 71.9036H351.544Z" fill="white"/>
<path d="M372.702 71.9036L356.383 28.4691H359.858L371.088 58.5006C371.584 59.7839 372.009 60.9203 372.361 61.9137C372.712 62.907 373.053 63.8584 373.384 64.7678C373.715 65.6784 374.046 66.6298 374.376 67.6218C374.707 68.6152 375.08 69.7739 375.494 71.0966H373.82C374.397 69.3185 374.904 67.7767 375.339 66.4736C375.772 65.1706 376.216 63.8899 376.673 62.6275C377.127 61.3665 377.707 59.8666 378.41 58.1292L390.076 28.4691H393.427L376.3 71.9036H372.702H372.702Z" fill="white"/>
<path d="M437.977 71.9036V28.4691H453.613C456.178 28.4691 458.463 29.0484 460.471 30.2064C462.476 31.3645 464.059 32.9267 465.216 34.8911C466.376 36.8561 466.953 39.079 466.953 41.5611C466.953 44.0432 466.405 46.2149 465.311 48.0763C464.214 49.9377 462.704 51.3962 460.781 52.4512C458.857 53.5056 456.676 54.0331 454.235 54.0331H441.079V71.9036H437.977V71.9036ZM441.079 50.931H454.608C456.385 50.931 457.957 50.538 459.322 49.752C460.689 48.9666 461.752 47.8703 462.518 46.4629C463.282 45.0575 463.665 43.4645 463.665 41.6851C463.665 39.7417 463.232 38.0043 462.363 36.473C461.495 34.9436 460.285 33.7429 458.734 32.8742C457.183 32.0055 455.414 31.5712 453.427 31.5712H441.079V50.931V50.931ZM465.032 71.9036L454.235 53.2268L456.842 51.6134L468.631 71.9036H465.032Z" fill="white"/>
<path d="M288.189 71.9036V28.4691H313.444V31.5711H291.292V68.8015H313.195V71.9036H288.189V71.9036ZM297.753 51.055V47.9523H309.907V51.055H297.753Z" fill="white"/>
<path d="M401.678 71.9036V28.4691H426.933V31.5711H404.78V68.8015H426.684V71.9036H401.678L401.678 71.9036ZM411.242 51.055V47.9523H423.396V51.055H411.242Z" fill="white"/>
</svg>
