<svg width="500" height="100" viewBox="0 0 500 100" fill="none" xmlns="http://www.w3.org/2000/svg">
<path fill-rule="evenodd" clip-rule="evenodd" d="M222.759 30.75C227.961 30.75 233.054 31.6863 236.122 32.5325L236.384 32.6056L236.632 31.3548H257.841V38.3129L253.146 38.8161L259.853 62.3728H260.44L267.901 32.4448H280.56L287.77 62.3722H288.272L294.56 38.8161L289.781 38.3129L290.871 31.3548H308.476L308.475 36.0472C308.093 36.8016 307.74 37.5701 307.416 38.351L305.458 38.7321C304.33 38.8935 303.821 39.2873 303.486 40.2859L303.446 40.4087L293.135 75.0315H279.889L273.35 46.9476H272.847L266.224 75.0315H251.135L240.572 40.3246C240.251 39.3611 239.852 39.1669 238.934 38.931L238.811 38.8996L238.072 38.7411L238.12 38.9304V45.2867L229.187 44.7024L228.353 40.3573C228.27 39.6889 228.102 39.355 227.519 39.1881L227.253 39.1113C226.124 38.8046 224.257 38.5198 222.176 38.5198C218.003 38.5198 215.665 40.1069 215.665 42.7802C215.665 45.7016 219.005 46.6784 223.146 47.6286L225.943 48.2649L226.33 48.3569C232.658 49.8798 239.372 52.4528 239.372 61.7437C239.372 71.9365 231.108 76.1129 220.507 76.1129C213.111 76.1129 205.875 74.2125 204.11 73.1873L203.978 73.1056V60.9919L212.91 61.6603L213.746 66.4222L213.772 66.626C213.865 67.2363 214.068 67.5242 214.747 67.6748L214.943 67.7371L215.166 67.8024L215.415 67.8702L215.703 67.9409C216.906 68.2252 218.779 68.5107 221.175 68.5107C225.598 68.5107 228.102 67.2581 228.102 64.1667C228.102 60.8794 224.872 59.8561 220.715 59.1079L218.814 58.7649L218.004 58.6113C211.494 57.3436 204.313 55.0488 204.313 45.3708C204.313 35.0117 213.16 30.75 222.759 30.75V30.75ZM145.777 30.75C158.269 30.75 163.358 34.1087 163.458 45.5232L163.46 45.8716V66.2933L163.463 66.5177L163.47 66.7173L163.484 66.9C163.548 67.526 163.777 67.6869 164.564 67.8097L164.788 67.8423L168.166 68.4085V60.9919L177.049 61.6603L177.88 66.4222C177.961 67.174 178.129 67.5085 178.876 67.6748L179.071 67.7371L179.293 67.8024L179.541 67.8702L179.827 67.9409C181.024 68.2252 182.886 68.5107 185.27 68.5107C189.668 68.5107 192.159 67.2581 192.159 64.1667C192.159 60.9895 189.156 59.9268 185.222 59.1835L182.895 58.7601L182.091 58.6065L181.507 58.4897L180.938 58.3694C174.805 57.0399 168.499 54.4651 168.499 45.3708C168.499 35.0117 177.298 30.75 186.845 30.75C193.183 30.75 199.366 32.1556 201.873 33.0786L202.121 33.173V45.2867L193.238 44.7024L192.407 40.3573C192.326 39.6889 192.159 39.355 191.579 39.1881C190.499 38.8542 188.507 38.5198 186.265 38.5198C182.114 38.5198 179.788 40.1069 179.788 42.7802C179.788 45.7518 183.226 46.7111 187.444 47.677L189.419 48.127C195.977 49.63 203.367 51.9702 203.367 61.7437C203.367 71.9353 195.148 76.1129 184.604 76.1129C177.887 76.1129 171.317 74.5306 168.889 73.474L168.773 73.4226V75.1101H153.497L152.666 70.5986L152.251 70.5157C149.098 73.6065 144.946 76.1129 138.304 76.1129C127.845 76.1129 126.183 68.9292 126.183 63.7488C126.183 55.4782 131.229 51.6296 141.399 50.905L151.255 50.2161V45.4603L151.251 44.9873L151.245 44.6746L151.228 44.2173L151.212 43.921C151.02 40.9427 150.058 39.0218 145.693 39.0218L145.184 39.0254L144.857 39.0321C141.472 39.1282 139.688 39.9435 139.634 44.4067L139.633 44.6183L127.926 43.6149C127.926 32.4508 137.936 30.7827 145.547 30.75H145.777V30.75ZM446.579 12L446.581 66.1331L446.588 66.3266C446.629 67.0536 446.819 67.2284 447.664 67.3609L451.823 67.973V74.5143H436.582L435.762 69.8776L435.189 69.7948C431.747 73.1897 427.732 75.5081 421.751 75.5081C412.082 75.5081 405.855 69.2982 405.855 53.4829C405.855 36.8401 414.131 30.5474 423.226 30.5474C427.865 30.5474 431.49 32.1254 434.556 34.3579L434.779 34.5218V21.9363C434.779 21.1518 434.485 20.5899 433.827 20.322L433.714 20.2796L429.208 18.7071L430.109 12H446.579ZM398.916 30.1452C400.791 30.1452 404.476 30.4597 406.09 30.8619L406.25 30.9042V46.2448L396.135 45.9073L395.292 41.4399C395.123 40.6815 394.87 40.5127 394.196 40.5127C392.133 40.5127 389.698 42.1554 388.364 43.2623L388.127 43.4631L388.128 65.945C388.135 67.1274 388.25 67.3881 389.361 67.4776L397.821 68.1599V74.9032H370.258V68.0758L374.051 67.5702C375.193 67.4069 375.387 67.1649 375.399 66.0036V41.1871C375.399 40.3022 375.17 39.724 374.415 39.4536L374.303 39.4173L369.799 37.8308L369.762 37.7474L370.679 30.9883H385.514L386.526 37.731H387.032C389.813 33.4325 393.522 30.1452 398.917 30.1452H398.916ZM107.525 14.4194C123.018 14.4194 127.706 22.6071 127.706 32.2137C127.706 46.604 119.089 52.48 105.185 52.5956L104.761 52.5974H98.6488L98.65 66.2014L98.6548 66.4131L98.6651 66.6079C98.7183 67.3065 98.9343 67.4752 99.7671 67.6034L99.9891 67.6355L111.963 68.3038V74.9032H79.1391V74.8839L79.1028 74.9032H49.972V68.3323L57.1085 67.7492C58.1935 67.6718 58.4101 67.3772 58.4337 66.3242L58.4361 66.0865V37.3627C58.4361 36.1712 57.5409 36.3677 51.302 38.4817L49 31.6609L63.2585 23.4919H70.9677V66.2081L70.9708 66.4331L70.978 66.6345C71.0204 67.4589 71.2296 67.6645 72.1835 67.7413L72.2966 67.7492L79.1022 68.3323L79.1385 68.3504V68.3038L84.4139 67.7183C85.5069 67.5629 85.7264 67.3349 85.7512 66.2855L85.7536 66.0478V23.3589C85.7536 22.1486 85.5964 21.7948 84.5276 21.6968L84.4139 21.6877L79.1385 21.1034V14.4194H107.525ZM151.021 56.7127L145.377 57.1264C140.481 57.4573 138.738 58.699 138.738 62.0111C138.738 65.3244 140.73 66.5655 143.469 66.5655C146.205 66.5655 148.942 65.0855 150.845 63.7131L151.021 63.5849V56.7127H151.021ZM426.851 40.1595C420.838 40.1595 418.443 45.7893 418.393 53.0933L418.391 53.3323C418.391 61.4196 420.691 65.922 425.865 65.922C428.577 65.922 431.522 64.3482 433.722 62.5004L433.913 62.3371V42.6605C431.86 41.2433 429.232 40.1595 426.851 40.1595ZM103.373 23.5929H98.4758V43.5466H102.79L103.117 43.5429L103.598 43.5321L103.91 43.5206L104.369 43.497C109.313 43.1946 114.162 41.319 114.162 32.9486C114.162 24.9992 109.264 23.5929 103.373 23.5929V23.5929Z" fill="white"/>
<path fill-rule="evenodd" clip-rule="evenodd" d="M338.718 18.0485C357.424 18.0485 372.589 33.213 372.589 51.9194C372.589 70.6265 357.424 85.7904 338.718 85.7904C320.011 85.7904 304.847 70.6265 304.847 51.9194C304.847 33.213 320.011 18.0485 338.718 18.0485ZM333.879 37.4033V66.4356H343.556V37.4033H333.879Z" fill="white"/>
<path fill-rule="evenodd" clip-rule="evenodd" d="M338.718 24.7015C353.75 24.7015 365.935 36.8872 365.935 51.9193C365.935 66.9519 353.75 79.137 338.718 79.137C323.686 79.137 311.5 66.9519 311.5 51.9193C311.5 36.8872 323.686 24.7015 338.718 24.7015ZM333.879 37.4032V66.4354H343.556V37.4032H333.879Z" fill="#1A8CFF"/>
<path opacity="0.5" d="M303.637 51.9194C303.637 71.2948 319.343 87 338.718 87C358.093 87 373.798 71.2948 373.798 51.9194C373.798 32.5446 358.093 16.8387 338.718 16.8387C319.343 16.8387 303.637 32.5446 303.637 51.9194ZM304.847 51.9194C304.847 33.2148 320.009 18.0484 338.718 18.0484C357.426 18.0484 372.589 33.2148 372.589 51.9194C372.589 70.624 357.427 85.7904 338.718 85.7904C320.009 85.7904 304.847 70.624 304.847 51.9194Z" fill="black"/>
<path fill-rule="evenodd" clip-rule="evenodd" d="M372.541 50.1049C372.572 50.7055 372.589 51.311 372.589 51.9194C372.589 70.6259 357.424 85.7904 338.718 85.7904C320.011 85.7904 304.847 70.6259 304.847 51.9194C304.847 51.311 304.863 50.7055 304.895 50.1049C305.838 67.9676 320.62 82.1614 338.718 82.1614C356.675 82.1614 371.37 68.186 372.516 50.5174L372.541 50.1049ZM338.718 21.6775C355.086 21.6775 368.355 34.9464 368.355 51.3146C368.355 60.4658 364.207 68.6475 357.69 74.0843C363.135 69.0055 366.54 61.7674 366.54 53.7339C366.54 38.368 354.084 25.9114 338.718 25.9114C323.352 25.9114 310.895 38.368 310.895 53.7339C310.895 61.7674 314.3 69.0055 319.745 74.0843C313.228 68.6475 309.081 60.4652 309.081 51.3146C309.081 34.9464 322.35 21.6775 338.718 21.6775Z" fill="black" fill-opacity="0.052"/>
<path opacity="0.256" d="M338.718 24.7015C353.752 24.7015 365.935 36.889 365.935 51.9193C365.935 66.9495 353.752 79.137 338.718 79.137C323.834 79.137 311.744 67.1915 311.504 52.3693L311.5 51.9193C311.5 36.889 323.684 24.7015 338.718 24.7015ZM338.718 25.9112C324.354 25.9112 312.71 37.5556 312.71 51.9193C312.71 66.2836 324.354 77.9273 338.718 77.9273C353.081 77.9273 364.726 66.2836 364.726 51.9193C364.726 37.5556 353.081 25.9112 338.718 25.9112Z" fill="black"/>
<path d="M338.853 30.75C336.052 30.7398 333.277 31.2839 330.688 32.351C328.098 33.418 325.746 34.9869 323.766 36.9672C321.785 38.9475 320.216 41.3001 319.149 43.8894C318.082 46.4787 317.538 49.2536 317.548 52.0542C317.548 63.655 327.07 73.0887 338.853 73.0887C350.409 73.0887 359.887 63.6108 359.887 52.0542C359.887 40.2719 350.453 30.75 338.853 30.75ZM338.851 31.9596C349.741 31.9596 358.677 40.8961 358.677 52.053C358.677 62.9431 349.741 71.879 338.851 71.879C327.695 71.879 318.758 62.9431 318.758 52.053C318.748 49.4115 319.261 46.7941 320.267 44.3518C321.273 41.9094 322.753 39.6904 324.621 37.8226C326.489 35.9547 328.708 34.475 331.15 33.4688C333.593 32.4625 336.21 31.9496 338.851 31.9596V31.9596Z" fill="black" fill-opacity="0.25"/>
<path fill-rule="evenodd" clip-rule="evenodd" d="M338.851 31.9597C349.741 31.9597 358.677 40.8962 358.677 52.0531C358.677 62.9432 349.741 71.8791 338.851 71.8791C327.695 71.8791 318.758 62.9432 318.758 52.0531C318.748 49.4116 319.261 46.7942 320.267 44.3519C321.273 41.9095 322.753 39.6905 324.621 37.8227C326.489 35.9548 328.708 34.4751 331.15 33.4689C333.593 32.4626 336.21 31.9497 338.851 31.9597V31.9597ZM342.014 36.7984H335.421C334.601 36.7984 333.93 37.5255 333.882 38.4424L333.879 38.5489V45.6418C333.879 45.9128 333.962 46.1741 334.112 46.3815L334.18 46.4674L335.144 47.5616C335.522 47.9904 335.545 48.6702 335.211 49.1281L335.144 49.2116L334.18 50.3063C334.009 50.5054 333.905 50.7538 333.884 51.0158L333.879 51.1307V65.29C333.879 66.2208 334.52 66.9823 335.328 67.0374L335.421 67.0404H342.014C342.834 67.0404 343.505 66.3134 343.553 65.3964L343.556 65.29V58.197C343.556 57.9261 343.474 57.6648 343.324 57.4573L343.255 57.3714L342.291 56.2773C341.913 55.8484 341.891 55.1686 342.225 54.7107L342.291 54.6273L343.255 53.5325C343.424 53.3414 343.528 53.0904 343.552 52.823L343.556 52.7081V38.5489C343.556 37.618 342.916 36.8565 342.108 36.8015L342.014 36.7984Z" fill="#F7F7F7"/>
<path fill-rule="evenodd" clip-rule="evenodd" d="M333.879 44.2439V45.6417C333.879 45.9126 333.962 46.1739 334.112 46.3814L334.18 46.4673L335.144 47.5614C335.522 47.9903 335.545 48.6701 335.211 49.128L335.144 49.2114L334.18 50.3062C334.009 50.5052 333.905 50.7537 333.884 51.0157L333.879 51.1306V59.5953C331.335 57.9883 329.645 55.151 329.645 51.9193C329.645 48.6876 331.335 45.8503 333.879 44.2439V44.2439ZM347.79 51.9193C347.79 55.151 346.101 57.9876 343.557 59.5947L343.556 58.1975C343.556 57.9266 343.474 57.6653 343.324 57.4578L343.255 57.3719L342.291 56.2778C341.913 55.8489 341.891 55.1691 342.225 54.7112L342.291 54.6278L343.255 53.533C343.424 53.3419 343.528 53.0909 343.552 52.8235L343.556 52.7086L343.557 44.2445C346.101 45.851 347.79 48.6876 347.79 51.9193Z" fill="black" fill-opacity="0.05"/>
<path d="M333.879 42.8444V44.2434C331.335 45.8504 329.645 48.6877 329.645 51.9194C329.645 55.151 331.335 57.9883 333.879 59.5948V60.9944C330.64 59.2633 328.435 55.849 328.435 51.9194C328.435 48.0653 330.555 44.7067 333.693 42.946L333.879 42.8444V42.8444ZM349 51.9194C349 55.8484 346.796 59.2627 343.557 60.9938V59.5948C346.101 57.9877 347.79 55.151 347.79 51.9194C347.79 48.6877 346.101 45.851 343.557 44.244V42.845C346.796 44.576 349 47.9903 349 51.9194Z" fill="white"/>
<path d="M333.879 44.2439V45.6417C333.879 45.6677 333.88 45.6937 333.881 45.7191C332.938 46.4538 332.175 47.3943 331.65 48.4688C331.126 49.5434 330.854 50.7236 330.855 51.9193C330.854 53.1145 331.126 54.2942 331.65 55.3684C332.174 56.4425 332.936 57.3829 333.879 58.1177V59.5953C331.335 57.9883 329.645 55.151 329.645 51.9193C329.645 48.6876 331.335 45.8503 333.879 44.2439ZM347.79 51.9193C347.79 55.151 346.101 57.9876 343.557 59.5947L343.556 58.1975C343.556 58.1717 343.556 58.1459 343.554 58.1201C344.498 57.3854 345.261 56.4448 345.785 55.3701C346.31 54.2955 346.582 53.1151 346.581 51.9193C346.581 49.402 345.398 47.161 343.557 45.7215V44.2439C346.101 45.851 347.79 48.6876 347.79 51.9193Z" fill="black" fill-opacity="0.15"/>
<path d="M342.091 36.1935H335.345C333.849 36.1935 332.669 37.503 332.669 39.0798V45.6073C332.669 46.2012 332.883 46.7746 333.272 47.2052L334.264 48.3054C334.286 48.3308 334.286 48.4028 334.264 48.4288L333.272 49.5284C332.881 49.9688 332.666 50.5381 332.669 51.127V64.7595C332.669 66.3363 333.849 67.6458 335.345 67.6458H342.091C343.586 67.6458 344.766 66.3363 344.766 64.7595V58.2314C344.769 57.6428 344.555 57.0737 344.164 56.6335L343.172 55.5333C343.149 55.5079 343.149 55.4359 343.172 55.4099L344.164 54.3103C344.555 53.8699 344.769 53.3006 344.766 52.7117V39.0798C344.766 37.503 343.586 36.1935 342.091 36.1935ZM342.014 37.4262C342.866 37.4262 343.556 38.2089 343.556 39.1742V52.7068C343.556 53.0153 343.448 53.3117 343.255 53.5306L342.291 54.623C341.889 55.0778 341.889 55.8157 342.291 56.2712L343.255 57.3629C343.448 57.5812 343.556 57.8776 343.556 58.1867V64.6645C343.556 65.6292 342.866 66.4125 342.014 66.4125H335.421C334.57 66.4125 333.879 65.6292 333.879 64.6645V51.1312C333.879 50.8228 333.988 50.5264 334.18 50.3075L335.144 49.2151C335.546 48.7603 335.546 48.0224 335.144 47.5669L334.18 46.4758C333.983 46.2467 333.876 45.954 333.879 45.652V39.1742C333.879 38.2095 334.57 37.4262 335.421 37.4262H342.014Z" fill="white"/>
<path d="M342.014 37.4033C342.866 37.4033 343.556 38.1871 343.556 39.1537V52.7081C343.556 53.0172 343.448 53.3141 343.255 53.5331L342.291 54.6273C341.89 55.0827 341.89 55.8218 342.291 56.2773L343.255 57.372C343.448 57.5904 343.556 57.8873 343.556 58.197V64.6851C343.556 65.6517 342.866 66.4355 342.014 66.4355H335.421C334.57 66.4355 333.879 65.6517 333.879 64.6851V51.1307C333.879 50.8216 333.988 50.5246 334.18 50.3057L335.144 49.2115C335.546 48.7561 335.546 48.017 335.144 47.5615L334.18 46.4668C333.983 46.2372 333.876 45.9441 333.879 45.6418V39.1537C333.879 38.1871 334.57 37.4033 335.421 37.4033H342.014ZM341.84 38.6456L335.596 38.6377C335.351 38.6377 335.121 38.867 335.092 39.1918L335.089 39.2631V45.6932C335.089 45.7119 335.093 45.7289 335.098 45.7404L335.106 45.7543L336.116 46.8394C336.906 47.6879 336.933 49.0168 336.198 49.8986L336.116 49.9912L335.106 51.0762C335.098 51.0863 335.093 51.0985 335.091 51.1113L335.089 51.1373V64.5756C335.089 64.9137 335.302 65.1654 335.544 65.1974L335.596 65.201L341.84 65.2095C342.084 65.2095 342.314 64.9797 342.344 64.6549L342.347 64.5841V58.1535C342.347 58.1373 342.344 58.1212 342.338 58.1063L342.329 58.093L341.319 57.0079C340.529 56.1593 340.503 54.8299 341.238 53.948L341.319 53.8555L342.329 52.7704C342.335 52.7643 342.341 52.7523 342.344 52.7359L342.347 52.7093V39.271C342.347 38.9329 342.133 38.6813 341.892 38.6492L341.84 38.6456Z" fill="black" fill-opacity="0.4"/>
</svg>
