<svg width="500" height="100" viewBox="0 0 500 100" fill="none" xmlns="http://www.w3.org/2000/svg">
<path fill-rule="evenodd" clip-rule="evenodd" d="M85.0012 69.1703L96.8472 60.0965C103.138 68.309 109.819 72.0947 117.263 72.0947C124.665 72.0947 131.162 68.3535 137.171 60.2054L149.18 69.0615C140.517 80.8104 129.738 87.016 117.263 87.016C104.828 87.016 93.9497 80.8525 85 69.1703H85.0012Z" fill="url(#paint0_linear_1_53)"/>
<path fill-rule="evenodd" clip-rule="evenodd" d="M117.225 29.7344L96.1402 47.9042L86.3994 36.6L117.266 10L147.894 36.6199L138.105 47.8831L117.225 29.7355V29.7344Z" fill="url(#paint1_linear_1_53)"/>
<path d="M218.106 25.3391H230.044V75.0787H218.106V25.3391Z" fill="black"/>
<path fill-rule="evenodd" clip-rule="evenodd" d="M193.982 75.2987C186.944 75.2987 181.08 73.0168 176.323 68.4565C171.566 63.8295 169.22 57.9012 169.22 50.6682C169.22 43.3696 171.631 37.3746 176.389 32.6845C181.21 27.9276 187.074 25.5813 194.047 25.5813C202.647 25.5813 210.271 29.2955 214.701 35.0951L206.948 43.2397C203.233 39.2657 199.194 37.2448 194.828 37.2448C191.115 37.2448 188.052 38.4828 185.511 41.0245C183.035 43.5662 181.796 46.7585 181.796 50.6027C181.796 54.3169 183.035 57.4449 185.511 59.9854C188.052 62.4615 191.115 63.6996 194.763 63.6996C199.519 63.6996 203.69 61.6143 207.143 57.5092L215.223 65.263C213.008 68.1955 210.01 70.6062 206.296 72.4961C202.583 74.3859 198.478 75.2975 193.982 75.2975V75.2987ZM247.949 29.3178C247.949 31.0327 247.268 32.6773 246.056 33.8899C244.843 35.1025 243.198 35.7838 241.483 35.7838C239.769 35.7838 238.124 35.1025 236.911 33.8899C235.699 32.6773 235.017 31.0327 235.017 29.3178C235.04 27.618 235.732 25.9955 236.942 24.8016C238.152 23.6076 239.783 22.9382 241.483 22.9382C243.183 22.9382 244.815 23.6076 246.025 24.8016C247.235 25.9955 247.927 27.618 247.949 29.3178ZM247.452 38.7684H235.515V75.0787H247.452V38.7684ZM270.527 75.3631C264.859 75.3631 260.297 73.6042 256.714 70.0854C253.195 66.5666 251.435 62.0695 251.435 56.5321C251.435 50.9935 253.195 46.4976 256.779 42.9788C260.363 39.46 264.989 37.7011 270.723 37.7011C278.217 37.7011 284.797 41.3498 287.859 48.192L278.672 53.0133C276.848 49.9509 274.307 48.3875 270.984 48.3875C268.573 48.3875 266.618 49.1692 265.054 50.7326C263.555 52.2971 262.774 54.2514 262.774 56.5321C262.774 61.289 266.227 64.8078 270.854 64.8078C274.176 64.8078 277.238 62.9823 278.542 60.1808L287.729 65.6539C284.601 71.6488 278.151 75.3631 270.527 75.3631ZM302.665 25.3391H290.727V75.0787H302.665V62.4171L304.063 61.1111L314.975 75.0787H328.862L312.097 53.6206L328.023 38.7684H313.436L302.665 48.8146V25.3391V25.3391ZM331.015 56.2828V25.3391H343.451V55.5901C343.451 60.9988 346.602 63.6048 351.16 63.6048C355.652 63.6048 358.87 60.8677 358.87 55.5901V25.3391H371.304V56.2828C371.304 70.488 361.332 75.8311 351.16 75.8311C341.055 75.8311 331.015 70.488 331.015 56.2828V56.2828ZM398.164 76.0734C407.779 76.0734 415.573 67.6116 415.573 57.1722C415.573 46.734 407.779 38.271 398.164 38.271C394.245 38.271 390.629 39.6776 387.719 42.0508V38.7684H376.279V90H387.719V72.2948C390.629 74.6668 394.245 76.0734 398.164 76.0734ZM387.719 57.1921V57.1523C387.729 52.4914 391.399 48.7163 395.926 48.7163C400.459 48.7163 404.133 52.5019 404.133 57.1722C404.133 61.8413 400.459 65.6281 395.926 65.6281C391.399 65.6281 387.729 61.853 387.719 57.1909V57.1921Z" fill="black"/>
<defs>
<linearGradient id="paint0_linear_1_53" x1="85.0012" y1="91.863" x2="149.18" y2="91.863" gradientUnits="userSpaceOnUse">
<stop stop-color="#8930FD"/>
<stop offset="1" stop-color="#49CCF9"/>
</linearGradient>
<linearGradient id="paint1_linear_1_53" x1="86.3994" y1="54.7276" x2="147.894" y2="54.7276" gradientUnits="userSpaceOnUse">
<stop stop-color="#FF02F0"/>
<stop offset="1" stop-color="#FFC800"/>
</linearGradient>
</defs>
</svg>
