<svg width="500" height="100" viewBox="0 0 500 100" fill="none" xmlns="http://www.w3.org/2000/svg">
<path d="M62.95 87.8953V73.1953C78.55 73.1953 90.55 57.7453 84.625 41.3953C82.375 35.3203 77.575 30.4453 71.5 28.2703C55.15 22.3453 39.7 34.3453 39.7 49.9453H25C25 25.1203 49 5.77031 75.025 13.8703C86.425 17.3953 95.425 26.4703 98.95 37.7953C107.05 63.8953 87.775 87.8953 62.95 87.8953V87.8953Z" fill="#0080FF"/>
<path fill-rule="evenodd" clip-rule="evenodd" d="M62.95 73.1953H48.325V58.5703H62.95V73.1953Z" fill="#0080FF"/>
<path fill-rule="evenodd" clip-rule="evenodd" d="M48.3249 84.4453H37.075V73.1953H48.3249V84.4453Z" fill="#0080FF"/>
<path fill-rule="evenodd" clip-rule="evenodd" d="M37.075 73.1953H27.625V63.8203H37.075V73.1953Z" fill="#0080FF"/>
<path d="M160 33.9703C155.65 30.9703 150.25 29.3953 143.95 29.3953H130.225V72.9703H143.95C150.25 72.9703 155.65 71.3953 160 68.1703C162.4 66.5203 164.275 64.1203 165.55 61.1953C166.825 58.2703 167.5 54.8203 167.5 50.9203C167.5 47.0953 166.825 43.6453 165.55 40.7203C164.275 37.8703 162.4 35.5453 160 33.9703V33.9703ZM138.25 36.8203H142.6C147.4 36.8203 151.375 37.7953 154.375 39.5953C157.675 41.6203 159.4 45.4453 159.4 50.9203C159.4 56.6203 157.675 60.5953 154.375 62.7703C151.525 64.6453 147.55 65.6203 142.675 65.6203H138.325V36.8203H138.25Z" fill="#0080FF"/>
<path d="M177.1 28.8703C175.75 28.8703 174.625 29.3203 173.725 30.2203C172.825 31.1203 172.3 32.2453 172.3 33.5203C172.3 34.8703 172.75 35.9953 173.725 36.8953C174.625 37.7953 175.75 38.3203 177.1 38.3203C178.45 38.3203 179.575 37.8703 180.475 36.8953C181.375 35.9953 181.9 34.7953 181.9 33.5203C181.9 32.1703 181.45 31.0453 180.475 30.2203C179.575 29.3203 178.375 28.8703 177.1 28.8703V28.8703Z" fill="#0080FF"/>
<path d="M173.125 42.2953H180.85V73.0453H173.125V42.2953Z" fill="#0080FF"/>
<path d="M208.975 44.8453C206.65 42.7453 204.025 41.5453 201.25 41.5453C196.975 41.5453 193.45 43.0453 190.675 45.8953C187.9 48.7453 186.55 52.4953 186.55 56.9203C186.55 61.2703 187.9 64.9453 190.675 67.9453C193.45 70.7953 196.975 72.2953 201.25 72.2953C204.25 72.2953 206.8 71.4703 208.9 69.8203V70.5703C208.9 73.1203 208.225 75.0703 206.875 76.4953C205.525 77.8453 203.65 78.5203 201.325 78.5203C197.725 78.5203 195.55 77.0953 192.775 73.4203L187.525 78.4453L187.675 78.6703C188.8 80.2453 190.525 81.8203 192.85 83.3203C195.175 84.8203 198.025 85.5703 201.475 85.5703C206.05 85.5703 209.8 84.1453 212.5 81.3703C215.275 78.5953 216.625 74.8453 216.625 70.1953V42.2953H209.05V44.8453H208.975ZM206.95 62.9953C205.6 64.4953 203.875 65.2453 201.625 65.2453C199.375 65.2453 197.65 64.4953 196.375 62.9953C195.025 61.4953 194.35 59.4703 194.35 56.9953C194.35 54.5203 195.025 52.4203 196.375 50.9203C197.725 49.4203 199.45 48.5953 201.625 48.5953C203.875 48.5953 205.6 49.3453 206.95 50.9203C208.3 52.4203 208.975 54.5203 208.975 56.9953C208.975 59.4703 208.225 61.4953 206.95 62.9953Z" fill="#0080FF"/>
<path d="M223.15 42.2953H230.875V73.0453H223.15V42.2953Z" fill="#0080FF"/>
<path d="M227.125 28.8703C225.775 28.8703 224.65 29.3203 223.75 30.2203C222.85 31.1203 222.325 32.2453 222.325 33.5203C222.325 34.8703 222.775 35.9953 223.75 36.8953C224.65 37.7953 225.775 38.3203 227.125 38.3203C228.475 38.3203 229.6 37.8703 230.5 36.8953C231.4 35.9953 231.925 34.7953 231.925 33.5203C231.925 32.1703 231.475 31.0453 230.5 30.2203C229.6 29.3203 228.4 28.8703 227.125 28.8703V28.8703Z" fill="#0080FF"/>
<path d="M247.825 34.0453H240.25V42.3703H235.825V49.4203H240.25V62.1703C240.25 66.1453 241.075 68.9953 242.65 70.6453C244.225 72.2953 247 73.1203 250.975 73.1203C252.25 73.1203 253.525 73.0453 254.725 72.9703H255.1V65.9203L252.475 66.0703C250.6 66.0703 249.4 65.7703 248.8 65.0953C248.2 64.4203 247.9 63.0703 247.9 61.0453V49.3453H255.1V42.2953H247.9V34.0453H247.825Z" fill="#0080FF"/>
<path d="M291.25 29.3953H298.975V72.9703H291.25V29.3953Z" fill="#0080FF"/>
<path d="M377.05 62.0203C375.7 63.5953 374.275 64.9453 373.15 65.6203C372.1 66.2953 370.75 66.6703 369.175 66.6703C366.925 66.6703 365.05 65.8453 363.55 64.1203C362.05 62.3953 361.3 60.2203 361.3 57.5953C361.3 54.9703 362.05 52.7953 363.475 51.1453C364.975 49.4203 366.775 48.5953 369.025 48.5953C371.5 48.5953 374.125 50.1703 376.375 52.7953L381.475 47.9203C378.175 43.5703 373.9 41.5453 368.8 41.5453C364.525 41.5453 360.85 43.1203 357.85 46.1203C354.85 49.1203 353.35 53.0203 353.35 57.5953C353.35 62.1703 354.85 65.9953 357.85 69.0703C360.85 72.1453 364.525 73.6453 368.8 73.6453C374.425 73.6453 378.925 71.2453 381.925 66.8203L377.05 62.0203V62.0203Z" fill="#0080FF"/>
<path d="M408.775 46.5703C407.65 45.0703 406.15 43.7953 404.35 42.8953C402.475 41.9953 400.375 41.5453 397.975 41.5453C393.625 41.5453 390.1 43.1203 387.475 46.2703C384.925 49.4203 383.575 53.2453 383.575 57.8203C383.575 62.4703 385 66.2953 387.85 69.2953C390.625 72.2203 394.45 73.7203 399.025 73.7203C404.2 73.7203 408.55 71.6203 411.7 67.4203L411.85 67.1953L406.825 62.3203C406.375 62.9203 405.7 63.5203 405.1 64.1203C404.35 64.8703 403.6 65.3953 402.85 65.7703C401.725 66.3703 400.375 66.5953 398.95 66.5953C396.775 66.5953 395.05 65.9953 393.7 64.7203C392.425 63.5953 391.675 62.0203 391.525 60.0703H412L412.075 57.2203C412.075 55.1953 411.775 53.3203 411.25 51.5203C410.725 49.7953 409.9 48.1453 408.775 46.5703V46.5703ZM391.9 53.8453C392.275 52.3453 392.95 51.1453 393.925 50.1703C394.975 49.1203 396.325 48.5953 397.975 48.5953C399.85 48.5953 401.275 49.1203 402.25 50.1703C403.15 51.1453 403.675 52.3453 403.825 53.7703H391.9V53.8453Z" fill="#0080FF"/>
<path d="M438.475 44.6203C436.15 42.5953 432.925 41.6203 428.875 41.6203C426.325 41.6203 423.925 42.2203 421.75 43.2703C419.725 44.3203 417.775 45.9703 416.5 48.2203L416.575 48.2953L421.525 53.0203C423.55 49.7953 425.8 48.6703 428.8 48.6703C430.45 48.6703 431.725 49.1203 432.775 49.9453C433.825 50.7703 434.275 51.8953 434.275 53.2453V54.7453C432.325 54.1453 430.45 53.8453 428.575 53.8453C424.75 53.8453 421.6 54.7453 419.275 56.5453C416.95 58.3453 415.75 60.9703 415.75 64.1953C415.75 67.0453 416.725 69.4453 418.75 71.1703C420.775 72.8203 423.25 73.7203 426.175 73.7203C429.1 73.7203 431.875 72.5203 434.35 70.4953V73.0453H441.925V53.2453C442.075 49.5703 440.875 46.6453 438.475 44.6203ZM424.75 61.2703C425.65 60.6703 426.85 60.3703 428.425 60.3703C430.3 60.3703 432.25 60.7453 434.275 61.4953V64.4953C432.625 66.0703 430.375 66.8203 427.6 66.8203C426.25 66.8203 425.2 66.5203 424.525 65.9203C423.85 65.3203 423.475 64.6453 423.475 63.6703C423.475 62.6953 423.925 61.8703 424.75 61.2703Z" fill="#0080FF"/>
<path d="M471.775 45.2203C469.6 42.8203 466.6 41.6203 462.775 41.6203C459.7 41.6203 457.225 42.5203 455.35 44.2453V42.3703H447.775V73.1203H455.5V56.0953C455.5 53.7703 456.025 51.8953 457.15 50.6203C458.275 49.2703 459.7 48.6703 461.725 48.6703C463.45 48.6703 464.8 49.2703 465.775 50.3953C466.75 51.5953 467.275 53.1703 467.275 55.1953V72.9703H475V55.1953C475 50.9953 473.95 47.6203 471.775 45.2203Z" fill="#0080FF"/>
<path d="M281.575 44.6203C279.25 42.5953 276.025 41.6203 271.975 41.6203C269.425 41.6203 267.025 42.2203 264.85 43.2703C262.825 44.3203 260.875 45.9703 259.6 48.2203L259.675 48.2953L264.625 53.0203C266.65 49.7953 268.9 48.6703 271.9 48.6703C273.55 48.6703 274.825 49.1203 275.875 49.9453C276.925 50.7703 277.375 51.8953 277.375 53.2453V54.7453C275.425 54.1453 273.55 53.8453 271.675 53.8453C267.85 53.8453 264.7 54.7453 262.375 56.5453C260.05 58.3453 258.85 60.9703 258.85 64.1953C258.85 67.0453 259.825 69.4453 261.85 71.1703C263.875 72.8203 266.35 73.7203 269.275 73.7203C272.2 73.7203 274.975 72.5203 277.45 70.4953V73.0453H285.025V53.2453C285.1 49.5703 283.9 46.6453 281.575 44.6203ZM267.85 61.2703C268.75 60.6703 269.95 60.3703 271.525 60.3703C273.4 60.3703 275.35 60.7453 277.375 61.4953V64.4953C275.725 66.0703 273.475 66.8203 270.7 66.8203C269.35 66.8203 268.3 66.5203 267.625 65.9203C266.95 65.3203 266.575 64.6453 266.575 63.6703C266.575 62.6953 266.95 61.8703 267.85 61.2703V61.2703Z" fill="#0080FF"/>
<path d="M327.025 73.6453C314.65 73.6453 304.525 63.5953 304.525 51.1453C304.525 38.6953 314.575 28.6453 327.025 28.6453C339.4 28.6453 349.525 38.6953 349.525 51.1453C349.525 63.5953 339.4 73.6453 327.025 73.6453ZM327.025 36.6703C319 36.6703 312.475 43.1953 312.475 51.2203C312.475 59.2453 319 65.7703 327.025 65.7703C335.05 65.7703 341.575 59.2453 341.575 51.2203C341.575 43.1953 335.05 36.6703 327.025 36.6703Z" fill="#0080FF"/>
</svg>
