<svg width="500" height="100" viewBox="0 0 500 100" fill="none" xmlns="http://www.w3.org/2000/svg">
<path d="M140.026 0L199.289 24.5093L195.443 79.6765L160.247 100L104 64.874L140.027 0H140.026ZM117.629 61.3532L160.453 88.0957L185.639 73.5534L188.597 31.1324L144.531 12.9078L117.629 61.3532Z" fill="#04FA9B"/>
<path fill-rule="evenodd" clip-rule="evenodd" d="M228.113 51.6498C228.877 50.7572 229.622 49.8487 230.348 48.9251C231.103 47.9658 231.838 46.9759 232.552 45.9554C233.266 44.9349 233.95 43.945 234.603 42.9857C235.256 42.0264 235.828 41.1181 236.318 40.2609H245.38C244.564 41.2986 243.727 42.3193 242.869 43.3224C241.931 44.4246 240.961 45.5472 239.961 46.6901C238.981 47.8106 237.981 48.913 236.961 49.9966C235.961 51.0579 235.052 52.0376 234.236 52.9357C235.256 53.9154 236.359 55.089 237.542 56.4564C238.726 57.8239 239.89 59.2424 241.033 60.712C242.176 62.1815 243.227 63.6511 244.186 65.1206C245.024 66.3827 245.791 67.691 246.482 69.0394H237.849C237.359 68.0188 236.716 66.8657 235.92 65.5798C235.124 64.294 234.277 63.0285 233.379 61.7835C232.507 60.5724 231.598 59.388 230.654 58.2321C229.866 57.2516 229.017 56.3211 228.113 55.4461V69.0394H220.52V27.8311L228.113 26.5452V51.6498V51.6498ZM249.176 54.8951C249.176 52.3642 249.564 50.1395 250.34 48.2209C251.115 46.3023 252.136 44.7001 253.401 43.4143C254.631 42.152 256.112 41.1612 257.749 40.5058C259.344 39.86 261.048 39.5274 262.769 39.5261C267.015 39.5261 270.24 40.7814 272.444 43.2918C274.648 45.8023 275.75 49.4659 275.75 54.2827C275.75 54.7726 275.74 55.2829 275.72 55.8135C275.699 56.3442 275.669 56.7728 275.628 57.0994H256.953C256.953 58.9771 257.728 60.4569 259.279 61.5386C260.831 62.6203 262.831 63.1612 265.28 63.1612C266.79 63.1612 268.229 62.9979 269.597 62.6714C270.765 62.4016 271.92 62.0746 273.056 61.6917L274.097 68.1209C272.791 68.5699 271.403 68.9475 269.933 69.2537C268.464 69.5598 266.811 69.7129 264.974 69.7129C262.525 69.7129 260.33 69.3965 258.391 68.7638C256.453 68.1311 254.799 67.1922 253.432 65.9472C252.064 64.7022 251.013 63.1612 250.278 61.3243C249.544 59.4874 249.176 57.3443 249.176 54.8951V54.8951ZM268.464 51.8948C268.464 51.1192 268.362 50.3742 268.158 49.6598C267.961 48.959 267.628 48.3037 267.178 47.7311C266.717 47.1496 266.131 46.6788 265.464 46.3534C264.77 46.0064 263.912 45.8329 262.892 45.8329C261.912 45.8329 261.065 45.9962 260.351 46.3228C259.637 46.6493 259.045 47.0983 258.575 47.6698C258.106 48.2413 257.738 48.8944 257.473 49.6292C257.208 50.3605 257.034 51.1213 256.953 51.8948H268.464V51.8948ZM306.794 40.2609C306.034 42.8998 305.289 45.5429 304.559 48.1903C303.845 50.7824 303.1 53.3133 302.325 55.7829C301.559 58.2221 300.732 60.6415 299.845 63.0387C298.979 65.3784 298.029 67.6862 296.997 69.9578C296.222 71.5906 295.456 72.9989 294.701 74.1827C293.946 75.3665 293.109 76.336 292.191 77.0912C291.272 77.8464 290.252 78.4077 289.129 78.775C288.007 79.1424 286.69 79.3261 285.18 79.3261C284.02 79.3356 282.861 79.2331 281.72 79.02C280.679 78.8159 279.812 78.5505 279.118 78.224L280.526 71.9172C281.343 72.2846 282.067 72.5397 282.7 72.6826C283.374 72.8298 284.062 72.9017 284.751 72.8969C286.221 72.8969 287.405 72.4071 288.303 71.4274C289.226 70.4062 289.953 69.2229 290.446 67.9372C288.65 64.345 286.854 60.2323 285.057 55.5992C283.261 50.9661 281.629 45.8533 280.159 40.2609H287.997C288.816 43.6142 289.735 46.9426 290.752 50.2415C291.276 51.9374 291.838 53.6217 292.436 55.2931C292.991 56.852 293.593 58.3937 294.242 59.916C294.65 58.4873 295.079 56.9463 295.528 55.2931C295.977 53.6398 296.406 51.9662 296.814 50.2721C297.615 46.9456 298.37 43.6082 299.079 40.2609H306.794V40.2609ZM318.183 53.7317C318.183 56.0993 318.612 57.9056 319.469 59.1506C320.326 60.3956 321.673 61.0181 323.51 61.0181C324.327 61.0181 325.092 60.9161 325.807 60.712C326.521 60.5079 327.164 60.2425 327.735 59.916V46.0778C327.23 45.9659 326.719 45.8841 326.205 45.8329C325.736 45.7912 325.266 45.7708 324.796 45.7717C320.388 45.7717 318.183 48.425 318.183 53.7317V53.7317ZM335.328 65.5492C335.328 70.2436 334.195 73.7133 331.93 75.9584C329.664 78.2036 326.021 79.3261 321 79.3261C319.204 79.3261 317.479 79.1424 315.826 78.775C314.225 78.4218 312.641 77.9927 311.081 77.4892L312.489 71.1212C313.673 71.5702 314.918 71.9886 316.224 72.3764C317.53 72.7642 319.163 72.9581 321.122 72.9581C322.429 72.9581 323.51 72.8051 324.368 72.4989C325.225 72.1927 325.898 71.7743 326.388 71.2437C326.878 70.7125 327.235 70.0724 327.429 69.3761C327.633 68.6618 327.735 67.8964 327.735 67.08V65.9166C326.674 66.3248 325.704 66.6309 324.827 66.8351C323.949 67.0392 323 67.1412 321.98 67.1412C318.224 67.1412 315.377 65.9574 313.438 63.5898C311.499 61.2222 310.529 57.9362 310.529 53.7317C310.529 48.9965 311.836 45.4655 314.448 43.1388C317.061 40.812 320.612 39.6486 325.102 39.6486C328.246 39.6486 331.654 40.1589 335.328 41.1794V65.5492V65.5492ZM341.022 54.8951C341.022 52.3642 341.41 50.1395 342.186 48.2209C342.961 46.3023 343.982 44.7001 345.247 43.4143C346.478 42.152 347.958 41.1612 349.595 40.5058C351.19 39.86 352.895 39.5274 354.616 39.5261C358.861 39.5261 362.086 40.7814 364.29 43.2918C366.494 45.8023 367.597 49.4659 367.597 54.2827C367.597 54.7726 367.586 55.2829 367.566 55.8135C367.545 56.3442 367.515 56.7728 367.474 57.0994H348.799C348.799 58.9771 349.574 60.4569 351.125 61.5386C352.677 62.6203 354.677 63.1612 357.126 63.1612C358.636 63.1612 360.075 62.9979 361.443 62.6714C362.611 62.4016 363.766 62.0746 364.902 61.6917L365.943 68.1209C364.637 68.5699 363.249 68.9475 361.78 69.2537C360.31 69.5598 358.657 69.7129 356.82 69.7129C354.371 69.7129 352.177 69.3965 350.238 68.7638C348.299 68.1311 346.645 67.1922 345.278 65.9472C343.91 64.7022 342.859 63.1612 342.125 61.3243C341.39 59.4874 341.022 57.3443 341.022 54.8951V54.8951ZM360.31 51.8948C360.31 51.1192 360.208 50.3742 360.004 49.6598C359.807 48.959 359.474 48.3037 359.024 47.7311C358.563 47.1496 357.977 46.6788 357.31 46.3534C356.616 46.0064 355.759 45.8329 354.738 45.8329C353.758 45.8329 352.911 45.9962 352.197 46.3228C351.483 46.6493 350.891 47.0983 350.421 47.6698C349.952 48.2413 349.584 48.8944 349.319 49.6292C349.055 50.3605 348.88 51.1213 348.799 51.8948H360.31V51.8948ZM373.597 41.1794C374.944 40.812 376.608 40.465 378.587 40.1385C380.724 39.7998 382.884 39.6359 385.047 39.6486C387.333 39.6486 389.231 39.965 390.742 40.5977C392.252 41.2304 393.446 42.1285 394.324 43.2918C395.201 44.4552 395.824 45.8431 396.191 47.4555C396.559 49.0679 396.742 50.8538 396.742 52.8132V69.0394H389.211V53.7929C389.211 51.0988 388.905 49.1598 388.292 47.976C387.68 46.7922 386.435 46.2003 384.557 46.2003C383.996 46.1999 383.434 46.2204 382.874 46.2615C382.322 46.3023 381.741 46.3636 381.128 46.4452V69.0394H373.597V41.1794V41.1794Z" fill="white"/>
</svg>
