<svg width="500" height="100" viewBox="0 0 500 100" fill="none" xmlns="http://www.w3.org/2000/svg">
<path fill-rule="evenodd" clip-rule="evenodd" d="M130 0H282.859V25.8925H274.105V8.75404H138.754V91.246H274.105V73.2299H282.859V100H130V0Z" fill="#33363C"/>
<path d="M168.022 59.1304H180.023V63.129H163.064V37.5103H168.022V59.1304ZM193.402 63.4777C192.037 63.4969 190.681 63.2522 189.409 62.757C188.264 62.3089 187.218 61.6416 186.329 60.7926C185.475 59.9726 184.802 58.9827 184.353 57.8867C183.884 56.7456 183.647 55.5227 183.656 54.2891V53.5859C183.638 52.2262 183.871 50.8748 184.341 49.599C184.769 48.4475 185.42 47.3925 186.259 46.4955C187.076 45.6251 188.066 44.936 189.165 44.4729C190.327 43.9817 191.577 43.7344 192.838 43.7465C194.096 43.7241 195.345 43.9554 196.511 44.4264C197.55 44.8549 198.481 45.5079 199.237 46.3385C200.003 47.1977 200.581 48.2072 200.934 49.3026C201.335 50.537 201.532 51.8289 201.515 53.1268V55.2016H188.619C188.71 55.8122 188.906 56.4022 189.2 56.9452C189.763 58.0073 190.702 58.8216 191.833 59.2292C192.437 59.4434 193.075 59.5496 193.716 59.543C194.196 59.543 194.675 59.4963 195.146 59.4036C195.613 59.3119 196.071 59.1737 196.511 58.9909C196.941 58.8106 197.348 58.5825 197.726 58.3109C198.099 58.0442 198.432 57.7252 198.714 57.3636L201.155 60.0022C200.823 60.4738 200.432 60.9015 199.993 61.275C199.461 61.7176 198.875 62.0906 198.249 62.385C196.743 63.1104 195.091 63.4803 193.419 63.466L193.402 63.4777ZM192.821 47.6985C192.303 47.6903 191.788 47.7893 191.31 47.9891C190.855 48.1789 190.445 48.4621 190.107 48.8202C189.747 49.2037 189.453 49.6434 189.235 50.122C188.987 50.661 188.81 51.2293 188.706 51.8133H196.726V51.4239C196.706 50.925 196.606 50.4325 196.43 49.9651C196.261 49.5298 196.004 49.1341 195.674 48.8028C195.331 48.4578 194.919 48.1886 194.466 48.0124C193.944 47.7975 193.385 47.6889 192.821 47.6927V47.6985ZM209.861 44.0894L210.163 46.7279C210.809 45.8097 211.658 45.0537 212.645 44.5194C213.641 43.9903 214.754 43.7205 215.882 43.7348C216.779 43.7264 217.672 43.8698 218.521 44.1591C219.308 44.437 220.018 44.8993 220.59 45.5074C221.206 46.1919 221.667 47.0005 221.944 47.8787C222.289 49.0219 222.452 50.2125 222.426 51.4065V63.129H217.533V51.5053C217.553 50.8754 217.466 50.2466 217.277 49.6455C217.14 49.2014 216.89 48.8007 216.551 48.4831C216.216 48.1975 215.817 47.998 215.388 47.9019C214.893 47.787 214.386 47.7323 213.877 47.7392C213.135 47.7148 212.399 47.8873 211.744 48.239C211.16 48.5716 210.67 49.0477 210.32 49.6222V63.1522H205.415V44.0894H209.861ZM227.994 44.0894H238.357V59.1478H243.512V63.129H227.994V59.1478H233.417V48.1053H227.994V44.0894ZM233.062 39.2132C233.06 38.8545 233.13 38.499 233.265 38.1671C233.397 37.8533 233.596 37.5718 233.847 37.3418C234.106 37.1084 234.408 36.9269 234.736 36.8071C235.108 36.6724 235.502 36.6055 235.898 36.6095C236.274 36.5896 236.651 36.644 237.006 36.7697C237.361 36.8953 237.687 37.0898 237.967 37.3418C238.459 37.8418 238.734 38.5149 238.734 39.2161C238.734 39.9173 238.459 40.5904 237.967 41.0904C237.687 41.3425 237.361 41.5369 237.006 41.6625C236.651 41.7882 236.274 41.8426 235.898 41.8227C235.502 41.8268 235.108 41.7599 234.736 41.6251C234.408 41.5053 234.106 41.3238 233.847 41.0904C233.596 40.8605 233.397 40.579 233.265 40.2652C233.129 39.9313 233.06 39.5738 233.062 39.2132V39.2132ZM247.289 53.4348C247.27 52.1291 247.467 50.8291 247.871 49.5874C248.238 48.457 248.831 47.413 249.614 46.5187C250.391 45.6411 251.352 44.9447 252.427 44.4787C254.874 43.4871 257.611 43.4871 260.058 44.4787C261.148 44.9428 262.121 45.6436 262.906 46.5303C263.689 47.4248 264.282 48.4687 264.649 49.599C265.051 50.8414 265.247 52.1409 265.231 53.4464V53.8126C265.247 55.1238 265.051 56.4291 264.649 57.6774C264.278 58.8059 263.685 59.8491 262.906 60.7461C262.129 61.6228 261.169 62.3173 260.093 62.7802C258.889 63.2809 257.595 63.5282 256.292 63.5067C254.979 63.5292 253.676 63.2819 252.462 62.7802C251.381 62.3176 250.415 61.6232 249.632 60.7461C248.849 59.8518 248.255 58.8078 247.888 57.6774C247.484 56.4298 247.287 55.124 247.307 53.8126L247.289 53.4348ZM252.177 53.8009C252.172 54.555 252.25 55.3074 252.41 56.0443C252.54 56.6923 252.784 57.312 253.13 57.8751C253.445 58.3874 253.882 58.8129 254.403 59.113C254.982 59.4339 255.636 59.5925 256.298 59.5721C256.944 59.5905 257.583 59.4317 258.146 59.113C258.659 58.8089 259.09 58.3839 259.401 57.8751C259.741 57.3093 259.982 56.6904 260.116 56.0443C260.271 55.3067 260.347 54.5547 260.343 53.8009V53.4348C260.347 52.6946 260.271 51.956 260.116 51.2321C259.98 50.5867 259.739 49.9681 259.401 49.4014C259.085 48.8571 258.624 48.4104 258.071 48.1101C257.517 47.8098 256.892 47.6674 256.263 47.6985C255.612 47.679 254.967 47.8356 254.397 48.1518C253.879 48.4582 253.444 48.8873 253.13 49.4014C252.786 49.9654 252.542 50.5848 252.41 51.2321C252.25 51.9554 252.172 52.6942 252.177 53.4348V53.8009ZM270.24 36.1039H280.882V59.1478H286.339V63.129H270.24V59.1478H275.942V40.0966H270.24V36.1039ZM302.374 63.129C302.249 62.8681 302.15 62.5956 302.078 62.3153C301.996 62.0131 301.927 61.6876 301.869 61.3505C301.584 61.655 301.27 61.9314 300.933 62.1758C300.571 62.4431 300.181 62.671 299.77 62.8558C299.315 63.0561 298.84 63.208 298.352 63.3091C297.804 63.4265 297.245 63.483 296.684 63.4777C295.772 63.4878 294.865 63.3464 293.999 63.0592C293.232 62.8049 292.519 62.4108 291.895 61.8968C291.314 61.3993 290.847 60.7829 290.524 60.0894C290.19 59.3768 290.021 58.598 290.03 57.8111C289.988 56.9107 290.171 56.0141 290.563 55.2023C290.954 54.3905 291.542 53.6891 292.273 53.1616C293.773 52.0632 295.999 51.5169 298.968 51.5169H301.694V50.3894C301.714 49.9835 301.644 49.5783 301.49 49.2026C301.335 48.8268 301.099 48.4899 300.799 48.2158C300.067 47.636 299.145 47.3501 298.213 47.4137C297.433 47.3393 296.654 47.5637 296.033 48.0414C295.798 48.2642 295.614 48.5356 295.495 48.8368C295.376 49.1379 295.323 49.4615 295.342 49.785H290.454C290.451 48.9792 290.634 48.1836 290.989 47.4602C291.365 46.7138 291.901 46.0591 292.558 45.5423C293.309 44.9553 294.162 44.512 295.074 44.2347C296.175 43.8925 297.322 43.7277 298.474 43.7465C299.56 43.7398 300.642 43.8826 301.688 44.1707C302.617 44.4239 303.49 44.8476 304.263 45.4203C304.988 45.9722 305.574 46.6869 305.972 47.5067C306.398 48.4149 306.609 49.4094 306.588 50.4126V58.5492C306.574 59.396 306.638 60.2423 306.78 61.0774C306.889 61.6832 307.085 62.2703 307.361 62.8209V63.1231L302.374 63.129ZM297.725 59.6942C298.188 59.6983 298.649 59.6397 299.096 59.5198C299.502 59.4164 299.892 59.2621 300.259 59.0607C300.579 58.8892 300.875 58.6741 301.136 58.4214C301.364 58.2066 301.56 57.96 301.717 57.6891V54.417H299.218C298.561 54.4057 297.904 54.48 297.266 54.6378C296.78 54.7486 296.321 54.9561 295.917 55.2481C295.59 55.4961 295.331 55.8217 295.162 56.1954C294.997 56.5769 294.914 56.9887 294.918 57.4043C294.91 57.7101 294.967 58.014 295.087 58.2957C295.206 58.5774 295.384 58.8303 295.609 59.0374C296.201 59.517 296.954 59.752 297.713 59.6942H297.725ZM328.899 53.8009C328.911 55.1173 328.755 56.4297 328.434 57.7065C328.162 58.8056 327.687 59.8443 327.034 60.7693C326.428 61.6102 325.631 62.2953 324.709 62.7686C323.701 63.2582 322.592 63.5012 321.472 63.4777C320.468 63.5039 319.471 63.2908 318.566 62.8558C317.744 62.4379 317.025 61.8424 316.462 61.1122L316.235 63.1406H311.836V36.1039H316.724V45.8155C317.275 45.1691 317.956 44.6463 318.723 44.2811C319.572 43.9017 320.495 43.7152 321.425 43.7348C322.555 43.7093 323.674 43.9586 324.686 44.4613C325.611 44.9329 326.408 45.6207 327.011 46.4664C327.665 47.3929 328.14 48.4337 328.411 49.5351C328.731 50.8101 328.887 52.1204 328.876 53.4348L328.899 53.8009ZM324.012 53.4348C324.013 52.6968 323.953 51.96 323.831 51.2321C323.74 50.5977 323.544 49.9829 323.25 49.413C322.975 48.9063 322.575 48.4782 322.088 48.1693C321.526 47.8497 320.886 47.6928 320.24 47.7159C319.473 47.6855 318.715 47.8881 318.066 48.2971C317.499 48.6821 317.05 49.2174 316.77 49.8431V57.3985C317.05 58.0242 317.499 58.5595 318.066 58.9444C318.727 59.3562 319.497 59.5588 320.275 59.5256C320.912 59.5491 321.545 59.4005 322.105 59.0955C322.59 58.8042 322.991 58.3916 323.268 57.8983C323.564 57.3315 323.76 56.7182 323.849 56.085C323.971 55.3318 324.032 54.5698 324.029 53.8068L324.012 53.4348ZM345.289 57.9041C345.296 57.6305 345.226 57.3603 345.085 57.1253C344.903 56.8592 344.655 56.6449 344.365 56.5035C343.927 56.2737 343.465 56.0924 342.987 55.9629C342.406 55.8002 341.685 55.6375 340.802 55.4748C339.766 55.2694 338.747 54.9897 337.751 54.6378C336.91 54.3435 336.114 53.9347 335.385 53.4232C334.765 52.9857 334.241 52.426 333.845 51.7784C333.466 51.1284 333.275 50.386 333.293 49.6339C333.299 48.8459 333.499 48.0716 333.874 47.3789C334.272 46.641 334.825 45.9984 335.496 45.4958C336.27 44.9207 337.14 44.486 338.065 44.2114C339.171 43.8817 340.322 43.721 341.476 43.7348C342.684 43.719 343.888 43.8776 345.051 44.2056C346.013 44.4696 346.921 44.9046 347.73 45.49C348.434 45.9983 349.011 46.6627 349.415 47.4312C349.802 48.1885 350.001 49.0276 349.996 49.878H345.103C345.106 49.5209 345.027 49.168 344.872 48.8465C344.717 48.525 344.489 48.2435 344.208 48.024C343.412 47.465 342.446 47.2 341.476 47.2742C340.575 47.213 339.677 47.4279 338.902 47.8903C338.641 48.0481 338.424 48.2695 338.271 48.5337C338.119 48.7979 338.036 49.0964 338.03 49.4014C338.026 49.6729 338.086 49.9416 338.204 50.186C338.349 50.4568 338.566 50.6821 338.832 50.8369C339.213 51.068 339.623 51.2459 340.052 51.3658C340.698 51.5511 341.357 51.689 342.023 51.7784C343.104 51.9505 344.174 52.1912 345.225 52.4991C346.126 52.7652 346.984 53.1565 347.776 53.6615C348.457 54.0902 349.032 54.6686 349.456 55.3527C349.877 56.0685 350.088 56.8881 350.066 57.7181C350.072 58.5334 349.861 59.3356 349.456 60.0429C349.024 60.7827 348.427 61.4131 347.712 61.8852C346.889 62.4379 345.977 62.8448 345.016 63.0883C343.86 63.3863 342.67 63.5309 341.476 63.5183C340.19 63.5357 338.909 63.3393 337.687 62.9372C336.688 62.6168 335.754 62.1187 334.932 61.4668C334.23 60.9108 333.657 60.2088 333.252 59.4094C332.878 58.6913 332.679 57.8946 332.671 57.0846H337.321C337.341 57.5582 337.487 58.0177 337.745 58.4155C337.988 58.783 338.312 59.0893 338.692 59.3106C339.105 59.5503 339.555 59.7192 340.023 59.8104C340.529 59.9209 341.046 59.9755 341.563 59.9731C342.519 60.0278 343.472 59.8272 344.324 59.3919C344.603 59.2529 344.84 59.0415 345.01 58.7798C345.179 58.5181 345.276 58.2157 345.289 57.9041V57.9041ZM370.425 66.9473H354.396V63.129H370.425V66.9473Z" fill="#33363C"/>
<path d="M149.929 25.782C153.001 25.782 155.491 23.2919 155.491 20.2201C155.491 17.1483 153.001 14.6582 149.929 14.6582C146.858 14.6582 144.367 17.1483 144.367 20.2201C144.367 23.2919 146.858 25.782 149.929 25.782Z" fill="#30AAB3"/>
</svg>
