<?xml version="1.0" standalone="no"?>
<!DOCTYPE svg PUBLIC "-//W3C//DTD SVG 20010904//EN"
 "http://www.w3.org/TR/2001/REC-SVG-20010904/DTD/svg10.dtd">
<svg version="1.0" xmlns="http://www.w3.org/2000/svg"
 width="924.000000pt" height="924.000000pt" viewBox="0 0 924.000000 924.000000"
 preserveAspectRatio="xMidYMid meet">
<metadata>
Created by potrace 1.14, written by Peter Selinger 2001-2017
</metadata>
<g transform="translate(0.000000,924.000000) scale(0.100000,-0.100000)"
fill="#000000" stroke="none">
<path d="M5139 9235 c-3 -2 -42 -6 -89 -10 -47 -3 -96 -7 -110 -9 -14 -3 -45
-7 -70 -10 -25 -3 -54 -8 -65 -10 -109 -21 -204 -39 -220 -41 -11 -2 -21 -4
-22 -5 -3 -3 -4 -3 -48 -15 -166 -44 -353 -106 -452 -151 -17 -8 -34 -14 -37
-14 -27 0 -447 -223 -454 -241 -2 -5 -8 -9 -14 -9 -6 0 -39 -20 -75 -45 -35
-25 -66 -45 -68 -45 -3 0 -13 -7 -22 -15 -10 -8 -53 -40 -95 -73 -43 -32 -103
-80 -135 -108 -70 -60 -343 -328 -343 -337 0 -4 -9 -16 -19 -26 -31 -31 -165
-202 -204 -261 -20 -30 -43 -62 -49 -70 -7 -8 -21 -30 -32 -50 -10 -19 -21
-37 -25 -40 -3 -3 -15 -21 -25 -40 -11 -19 -22 -37 -25 -40 -3 -3 -19 -32 -36
-65 -16 -33 -32 -62 -35 -65 -23 -22 -174 -377 -210 -493 l-18 -58 21 7 c12 4
48 19 80 35 31 15 57 25 57 22 0 -3 6 -1 13 5 22 18 367 146 426 157 9 2 17 4
19 5 1 2 7 4 12 5 6 1 11 3 13 5 4 3 11 5 202 50 50 12 101 23 115 25 14 2 34
6 45 8 11 3 40 8 65 12 58 9 101 16 120 20 8 2 32 4 52 4 34 1 42 7 95 74 75
95 83 104 188 211 109 110 145 143 255 227 198 152 504 311 700 364 3 1 12 5
20 8 25 10 152 43 204 53 16 2 32 7 36 9 3 2 28 7 56 11 27 3 63 8 79 11 153
21 374 31 396 18 5 -4 9 -1 9 5 0 6 5 8 10 5 6 -4 43 -8 83 -11 39 -2 86 -6
102 -8 17 -3 53 -8 80 -12 28 -3 59 -8 70 -11 26 -5 59 -12 88 -17 37 -7 81
-17 97 -23 8 -3 24 -8 35 -10 28 -5 137 -42 157 -53 10 -6 25 -10 33 -10 8 0
23 -4 33 -9 9 -6 44 -22 77 -36 81 -36 209 -99 215 -106 3 -3 12 -8 20 -12 8
-4 33 -18 55 -32 22 -14 50 -30 63 -37 12 -6 22 -15 22 -20 0 -4 5 -8 11 -8
10 0 113 -75 188 -137 58 -48 265 -256 301 -303 46 -59 62 -80 78 -95 6 -8 12
-18 12 -23 0 -6 4 -12 8 -14 12 -4 113 -161 155 -240 20 -37 41 -75 46 -85 15
-27 73 -157 76 -168 1 -5 7 -23 14 -40 38 -93 105 -321 116 -400 3 -16 7 -46
11 -65 38 -218 37 -543 -1 -764 -10 -59 -32 -165 -40 -196 -8 -31 -29 -101
-46 -152 -11 -35 -22 -67 -23 -73 -2 -5 -8 -21 -13 -35 -6 -14 -19 -45 -29
-70 -27 -69 -126 -265 -136 -268 -4 -2 -8 -8 -8 -14 0 -6 -30 -56 -67 -112
-225 -337 -534 -614 -888 -794 -99 -50 -137 -67 -247 -112 l-57 -23 7 -41 c12
-75 5 -561 -8 -561 -2 0 -20 -115 -22 -142 0 -5 -4 -17 -8 -29 -5 -11 -11 -36
-14 -55 -3 -19 -18 -78 -35 -132 -22 -75 -26 -97 -15 -97 18 0 222 52 315 81
41 12 76 23 79 24 7 2 27 10 150 58 58 22 156 64 217 94 62 29 114 52 115 51
2 -2 17 7 35 20 17 12 36 22 42 22 6 0 11 4 11 9 0 5 10 13 22 17 12 3 44 21
72 39 28 18 55 33 60 33 5 0 12 4 15 9 3 4 26 21 51 38 60 39 150 106 174 127
11 10 23 18 27 18 4 0 14 6 21 13 7 7 45 40 83 72 131 110 301 280 405 405
116 140 294 398 358 520 43 80 82 161 81 166 0 4 3 10 8 13 5 3 22 35 37 71
16 36 36 83 46 105 10 22 27 67 39 100 12 33 24 67 28 75 3 8 7 20 8 25 2 6
14 46 28 90 27 82 76 270 82 315 2 14 7 36 10 50 3 14 8 40 11 59 3 18 7 42 9
53 3 11 7 46 11 77 3 31 8 65 10 76 8 41 18 234 17 365 0 132 -16 415 -23 415
-1 0 -3 18 -6 40 -4 47 -10 80 -18 115 -3 14 -8 41 -11 60 -11 64 -13 75 -30
140 -8 36 -17 72 -19 80 -12 48 -28 107 -33 120 -7 18 -10 28 -17 55 -2 11
-10 34 -17 50 -6 17 -13 35 -14 40 -3 12 -48 128 -66 170 -7 17 -13 32 -14 35
-14 43 -128 271 -169 340 -15 25 -29 53 -33 63 -3 9 -8 17 -12 17 -3 0 -18 21
-31 48 -14 26 -28 49 -31 52 -3 3 -24 32 -46 65 -22 33 -50 71 -62 84 -12 13
-21 27 -21 31 0 3 -8 15 -18 26 -10 10 -31 37 -47 59 -17 22 -39 49 -50 61
-11 11 -37 40 -58 65 -226 260 -544 516 -866 698 -163 92 -498 241 -541 241
-9 0 -20 4 -25 9 -17 15 -348 106 -423 116 -19 2 -42 7 -51 9 -9 3 -34 8 -56
11 -23 3 -50 7 -60 9 -23 4 -122 17 -180 23 -55 5 -512 13 -516 8z"/>
<path d="M5319 6766 c-2 -3 -31 -8 -64 -11 -102 -12 -183 -34 -255 -67 -25
-12 -52 -23 -60 -24 -8 -2 -16 -8 -18 -13 -2 -6 -8 -11 -13 -11 -11 0 -80 -45
-117 -75 -118 -97 -248 -282 -277 -395 0 -3 -6 -21 -13 -40 -23 -70 -32 -136
-33 -240 -2 -114 9 -186 45 -295 51 -157 196 -352 322 -432 164 -105 282 -147
452 -159 35 -2 68 -7 73 -10 5 -3 9 -2 9 3 0 4 17 8 38 9 226 3 472 132 630
332 146 186 210 423 178 672 -10 83 -55 214 -103 299 -142 254 -426 435 -700
446 -39 2 -76 5 -81 9 -5 3 -11 4 -13 2z"/>
<path d="M3187 6653 c-4 -3 -17 -7 -29 -9 -32 -3 -67 -11 -106 -23 -18 -5 -35
-10 -37 -10 -3 -1 -6 -1 -7 -2 -2 0 -11 -2 -21 -4 -56 -11 -255 -77 -382 -127
-115 -46 -373 -173 -431 -212 -21 -14 -42 -26 -47 -26 -4 0 -13 -5 -20 -10 -7
-6 -58 -41 -113 -78 -56 -37 -115 -78 -132 -92 -17 -14 -41 -32 -53 -40 -12
-8 -72 -58 -133 -110 -140 -119 -254 -233 -386 -386 -31 -36 -150 -190 -173
-224 -9 -14 -30 -44 -47 -68 -16 -23 -30 -47 -30 -52 0 -4 -4 -10 -8 -12 -25
-11 -255 -445 -268 -506 -1 -8 -11 -30 -20 -50 -10 -20 -19 -39 -19 -42 -1 -3
-5 -12 -8 -20 -11 -27 -58 -165 -62 -180 -1 -8 -11 -42 -21 -75 -21 -70 -18
-61 -39 -145 -28 -110 -62 -301 -69 -381 -3 -30 -6 -54 -6 -54 -14 0 -20 -515
-8 -640 11 -111 19 -178 24 -203 3 -13 7 -43 10 -65 3 -23 7 -48 10 -56 3 -8
7 -30 10 -50 5 -34 56 -234 88 -346 23 -83 84 -241 137 -360 12 -27 23 -52 25
-55 1 -3 5 -15 9 -27 4 -13 11 -23 15 -23 4 0 11 -11 14 -25 12 -46 214 -385
288 -480 65 -85 189 -238 221 -273 122 -134 311 -310 422 -395 6 -4 28 -21 50
-38 34 -27 230 -159 290 -196 158 -98 377 -202 570 -273 33 -12 69 -26 80 -31
16 -7 93 -30 150 -45 125 -34 214 -57 230 -59 11 -1 21 -4 23 -5 3 -4 12 -5
74 -14 32 -4 60 -12 63 -17 4 -5 14 -5 25 1 10 6 21 6 24 2 3 -5 18 -9 33 -10
15 -1 44 -4 63 -7 171 -26 722 -26 802 -1 7 3 36 7 63 10 45 5 75 9 140 21 11
2 40 8 65 14 25 5 60 13 79 16 19 3 37 8 41 10 4 2 22 7 41 10 19 3 45 9 59
14 21 8 70 21 90 25 3 1 10 4 15 7 6 4 24 10 40 14 34 9 35 10 55 18 32 12
115 42 120 43 3 0 16 5 30 11 14 6 54 23 90 38 76 32 233 107 240 115 3 3 29
17 58 30 28 14 52 28 52 32 0 5 5 8 10 8 9 0 127 70 155 92 6 5 35 25 66 46
57 38 76 52 177 131 232 182 466 429 645 677 37 51 67 98 67 103 0 5 4 11 9
13 7 2 42 60 151 248 11 18 83 163 85 170 1 3 12 28 25 55 13 28 24 52 25 55
1 3 6 16 12 30 29 70 93 252 93 264 0 12 -7 12 -37 -4 -102 -50 -123 -59 -123
-54 0 4 -6 2 -13 -4 -32 -27 -406 -158 -547 -192 -162 -40 -218 -52 -240 -55
-14 -2 -34 -6 -45 -8 -11 -3 -51 -10 -90 -16 -38 -6 -81 -13 -95 -15 -14 -3
-38 -5 -55 -5 -25 -1 -40 -14 -91 -79 -95 -118 -254 -292 -268 -292 -3 0 -22
-16 -43 -36 -21 -20 -63 -55 -93 -78 -30 -22 -57 -43 -60 -46 -9 -10 -110 -80
-115 -80 -2 0 -23 -13 -47 -29 -63 -42 -201 -114 -298 -156 -69 -30 -260 -100
-280 -103 -3 0 -12 -3 -20 -5 -13 -5 -81 -21 -135 -33 -106 -24 -242 -43 -365
-50 -41 -2 -92 -5 -113 -7 -20 -1 -39 3 -41 8 -3 6 -5 4 -5 -3 -1 -7 -5 -10
-11 -7 -5 3 -54 8 -107 11 -96 5 -168 11 -168 14 0 1 -11 3 -25 4 -71 7 -176
29 -302 61 -10 3 -26 7 -35 9 -127 32 -358 133 -537 235 -64 37 -245 163 -282
196 -6 6 -37 32 -69 60 -95 81 -295 292 -295 310 0 3 -10 17 -22 30 -33 35
-48 53 -48 59 0 3 -20 33 -44 68 -24 35 -56 83 -70 108 -38 64 -156 307 -156
320 0 5 -4 18 -10 28 -23 42 -79 225 -104 342 -31 143 -44 232 -50 350 -3 41
-5 77 -6 80 -6 22 7 306 16 348 3 15 6 34 6 42 0 13 6 55 24 160 9 51 54 217
77 285 52 150 163 395 187 410 6 3 8 10 5 15 -3 4 2 13 10 20 9 7 22 27 30 44
24 49 159 233 228 310 115 128 234 239 352 326 33 25 62 47 65 50 3 4 23 17
45 30 22 13 42 27 45 31 15 19 352 191 400 204 3 0 21 7 41 14 l35 14 0 216
c-1 175 7 356 14 356 1 0 3 14 5 32 2 18 9 58 16 90 7 32 13 60 14 63 0 3 5
23 10 45 4 22 9 45 11 52 1 6 16 57 34 113 29 95 33 120 17 103z"/>
<path d="M3727 4229 c-116 -19 -292 -89 -358 -143 -14 -11 -36 -28 -49 -36
-64 -42 -178 -180 -232 -280 -40 -74 -93 -234 -83 -249 3 -6 2 -11 -3 -11 -14
0 -20 -163 -8 -259 8 -67 32 -165 53 -211 34 -77 81 -168 93 -180 3 -3 21 -25
41 -50 20 -25 47 -56 60 -70 35 -37 159 -133 159 -123 0 4 4 3 8 -3 15 -24
170 -91 253 -110 84 -19 284 -26 359 -11 103 19 308 102 318 129 2 4 8 8 14 8
24 0 196 161 222 208 5 10 12 19 16 22 27 20 106 196 129 285 37 147 31 352
-14 475 -9 25 -17 50 -18 55 -7 28 -43 105 -49 105 -5 0 -8 4 -8 9 0 27 -172
241 -193 241 -3 0 -18 11 -32 24 -27 25 -142 97 -160 100 -5 1 -15 5 -22 9
-88 55 -353 90 -496 66z"/>
</g>
</svg>
