<svg width="483" height="150" viewBox="0 0 483 150" fill="none" xmlns="http://www.w3.org/2000/svg">
<path d="M198.526 117.533C197.82 117.533 197.185 117.286 196.62 116.792C196.126 116.227 195.879 115.592 195.879 114.886V60.0591H177.039C176.334 60.0591 175.698 59.8122 175.134 59.3182C174.64 58.7537 174.393 58.1186 174.393 57.413V46.0877C174.393 45.3115 174.64 44.6764 175.134 44.1825C175.698 43.6886 176.334 43.4416 177.039 43.4416H233.983C234.76 43.4416 235.395 43.6886 235.889 44.1825C236.382 44.6764 236.629 45.3115 236.629 46.0877V57.413C236.629 58.1892 236.382 58.8243 235.889 59.3182C235.395 59.8122 234.76 60.0591 233.983 60.0591H215.143V114.886C215.143 115.592 214.896 116.227 214.402 116.792C213.908 117.286 213.273 117.533 212.497 117.533H198.526Z" fill="#F7F7F7"/>
<path d="M234.47 117.533C233.905 117.533 233.376 117.321 232.882 116.897C232.459 116.403 232.247 115.874 232.247 115.31C232.247 114.886 232.282 114.569 232.353 114.357L257.226 46.4052C257.438 45.5585 257.896 44.8528 258.602 44.2883C259.308 43.7238 260.225 43.4416 261.354 43.4416H277.019C278.148 43.4416 279.065 43.7238 279.771 44.2883C280.476 44.8528 280.935 45.5585 281.147 46.4052L305.914 114.357L306.126 115.31C306.126 115.874 305.879 116.403 305.385 116.897C304.962 117.321 304.433 117.533 303.797 117.533H290.779C289.085 117.533 287.956 116.792 287.392 115.31L283.264 104.514H255.003L250.981 115.31C250.417 116.792 249.252 117.533 247.488 117.533H234.47ZM279.03 89.2721L269.186 61.3293L259.343 89.2721H279.03Z" fill="#F7F7F7"/>
<path d="M343.933 118.591C333.984 118.591 326.187 116.157 320.542 111.288C314.967 106.419 312.18 99.0803 312.18 89.2721V46.0877C312.18 45.3115 312.427 44.6764 312.921 44.1825C313.485 43.6886 314.12 43.4416 314.826 43.4416H328.48C329.256 43.4416 329.891 43.6886 330.385 44.1825C330.95 44.6764 331.232 45.3115 331.232 46.0877V89.1663C331.232 93.7528 332.29 97.2104 334.407 99.539C336.595 101.797 339.735 102.926 343.827 102.926C347.849 102.926 350.954 101.762 353.142 99.4332C355.329 97.1046 356.423 93.6823 356.423 89.1663V46.0877C356.423 45.3115 356.67 44.6764 357.164 44.1825C357.728 43.6886 358.363 43.4416 359.069 43.4416H372.829C373.605 43.4416 374.24 43.6886 374.734 44.1825C375.228 44.6764 375.475 45.3115 375.475 46.0877V89.2721C375.475 99.0803 372.652 106.419 367.007 111.288C361.433 116.157 353.741 118.591 343.933 118.591Z" fill="#F7F7F7"/>
<path d="M392.157 117.533C391.451 117.533 390.816 117.286 390.251 116.792C389.758 116.227 389.511 115.592 389.511 114.886V46.0877C389.511 45.3115 389.758 44.6764 390.251 44.1825C390.816 43.6886 391.451 43.4416 392.157 43.4416H420.946C430.19 43.4416 437.387 45.5585 442.539 49.7922C447.76 53.9554 450.371 59.8827 450.371 67.5741C450.371 72.5135 449.207 76.7119 446.878 80.1695C444.55 83.6271 441.339 86.2732 437.246 88.1078L451.747 114.145C451.959 114.569 452.064 114.957 452.064 115.31C452.064 115.874 451.818 116.403 451.324 116.897C450.9 117.321 450.406 117.533 449.842 117.533H435.764C433.718 117.533 432.272 116.58 431.425 114.675L419.359 91.389H408.563V114.886C408.563 115.663 408.28 116.298 407.716 116.792C407.222 117.286 406.587 117.533 405.811 117.533H392.157ZM420.735 76.3591C423.98 76.3591 426.45 75.5829 428.144 74.0306C429.837 72.4076 430.684 70.1849 430.684 67.3624C430.684 64.5399 429.837 62.3171 428.144 60.6942C426.521 59.0007 424.051 58.1539 420.735 58.1539H408.563V76.3591H420.735Z" fill="#F7F7F7"/>
<path d="M465.338 117.533C464.632 117.533 463.997 117.286 463.433 116.792C462.939 116.227 462.692 115.592 462.692 114.886V46.0877C462.692 45.3115 462.939 44.6764 463.433 44.1825C463.997 43.6886 464.632 43.4416 465.338 43.4416H479.521C480.297 43.4416 480.932 43.6886 481.426 44.1825C481.991 44.6764 482.273 45.3115 482.273 46.0877V114.886C482.273 115.663 481.991 116.298 481.426 116.792C480.932 117.286 480.297 117.533 479.521 117.533H465.338Z" fill="#F7F7F7"/>
<path d="M92.9496 54.5455C92.9496 62.4353 86.5537 68.8312 78.6639 68.8312C70.7741 68.8312 64.3782 62.4353 64.3782 54.5455C64.3782 46.6557 70.7741 40.2598 78.6639 40.2598C86.5537 40.2598 92.9496 46.6557 92.9496 54.5455Z" fill="#FFC131"/>
<ellipse cx="54.6379" cy="95.4545" rx="14.2857" ry="14.2857" transform="rotate(180 54.6379 95.4545)" fill="#24C8DB"/>
<path fill-rule="evenodd" clip-rule="evenodd" d="M108.272 100.356C102.507 104.082 96.1188 106.668 89.4527 108.013C90.8172 104.079 91.5585 99.8533 91.5585 95.4545C91.5585 93.859 91.461 92.2863 91.2716 90.742C94.1397 89.743 96.8931 88.4018 99.4694 86.7367C105.669 82.73 110.579 77.0185 113.611 70.2884C116.643 63.5582 117.667 56.0959 116.56 48.7979C115.453 41.4999 112.263 34.6767 107.372 29.1482C102.481 23.6197 96.0972 19.6211 88.9886 17.6328C81.88 15.6445 74.3484 15.7512 67.2989 17.9399C60.2494 20.1286 53.9818 24.3063 49.2493 29.971C48.6431 30.6966 48.0654 31.4426 47.517 32.2073C40.2139 33.0187 33.1405 35.0856 26.5994 38.2828C28.7285 31.4666 32.1853 25.1033 36.8046 19.5742C43.5394 11.5129 52.4586 5.5677 62.4906 2.453C72.5226 -0.661697 83.2405 -0.813419 93.3566 2.01607C103.473 4.84555 112.557 10.5359 119.517 18.4033C126.477 26.2707 131.018 35.9806 132.593 46.3662C134.168 56.7518 132.711 67.3713 128.396 76.9488C124.082 86.5262 117.094 94.6542 108.272 100.356ZM27.2488 48.2305L40.6207 49.8729C40.939 47.2811 41.5196 44.7414 42.3467 42.2905C37.0432 43.5075 31.9538 45.5111 27.2488 48.2305Z" fill="#FFC131"/>
<path fill-rule="evenodd" clip-rule="evenodd" d="M24.938 49.644C30.7463 45.8901 37.1868 43.293 43.9072 41.9565C42.388 46.0823 41.5584 50.5417 41.5584 55.1948C41.5584 56.5866 41.6326 57.961 41.7773 59.3144C38.9671 60.3072 36.2684 61.6293 33.7402 63.2633C27.5408 67.27 22.6302 72.9815 19.5984 79.7116C16.5667 86.4417 15.5427 93.9041 16.6496 101.202C17.7564 108.5 20.947 115.323 25.838 120.852C30.7291 126.38 37.1124 130.379 44.221 132.367C51.3296 134.355 58.8612 134.249 65.9107 132.06C72.9602 129.871 79.2278 125.694 83.9603 120.029C84.5695 119.3 85.15 118.55 85.7009 117.781C93.0101 116.957 100.086 114.876 106.627 111.664C104.499 118.5 101.036 124.882 96.405 130.426C89.6702 138.487 80.751 144.432 70.719 147.547C60.687 150.662 49.9691 150.813 39.853 147.984C29.7369 145.154 20.6529 139.464 13.6927 131.597C6.73242 123.729 2.19193 114.019 0.616768 103.634C-0.95839 93.2482 0.498792 82.6287 4.81323 73.0512C9.12766 63.4738 16.1158 55.3458 24.938 49.644ZM105.884 101.76L105.884 101.76C105.464 102.003 105.04 102.241 104.613 102.473C105.04 102.241 105.463 102.003 105.884 101.76ZM94.1338 106.824C93.0547 107.145 91.9665 107.433 90.8708 107.686C90.8708 107.686 90.8707 107.686 90.8707 107.686C91.9682 107.432 93.0563 107.144 94.1338 106.824Z" fill="#24C8DB"/>
</svg>
