<svg width="210" height="234" viewBox="0 0 210 234" fill="none" xmlns="http://www.w3.org/2000/svg">
<path d="M146.34 85.6102C146.34 97.9524 136.271 107.958 123.85 107.958C111.429 107.958 101.36 97.9524 101.36 85.6102C101.36 73.2681 111.429 63.2628 123.85 63.2628C136.271 63.2628 146.34 73.2681 146.34 85.6102Z" stroke="white"/>
<path d="M108.64 148.39C108.64 160.732 98.5708 170.737 86.1499 170.737C73.729 170.737 63.6599 160.732 63.6599 148.39C63.6599 136.048 73.729 126.042 86.1499 126.042C98.5708 126.042 108.64 136.048 108.64 148.39Z" stroke="white"/>
<path d="M69.0134 65.4936C30.2 73.3739 1 107.493 1 148.39C1 195.119 39.1229 233 86.1499 233C124.358 233 156.689 207.994 167.471 173.554C157.292 178.538 146.275 181.765 134.897 183.039C124.023 198.116 106.241 207.94 86.1499 207.94C53.0515 207.94 26.22 181.278 26.22 148.39C26.22 122.701 42.5902 100.811 65.5305 92.4581C64.5999 83.3843 65.7609 74.1388 69.0134 65.4936Z" stroke="white"/>
<path fill-rule="evenodd" clip-rule="evenodd" d="M140.986 168.506C179.8 160.626 209 126.507 209 85.6102C209 38.8813 170.877 1 123.85 1C85.6418 1 53.3113 26.006 42.5294 60.4465C52.708 55.4618 63.7247 52.2348 75.1035 50.9613C85.9768 35.884 103.759 26.0601 123.85 26.0601C156.948 26.0601 183.78 52.7216 183.78 85.6102C183.78 111.3 167.41 133.19 144.469 141.542C145.4 150.616 144.239 159.861 140.986 168.506Z" stroke="white"/>
</svg>
