<svg width="432" height="137" fill="none" xmlns="http://www.w3.org/2000/svg"><path d="M178.94 106a2.5 2.5 0 0 1-1.7-.67 2.52 2.52 0 0 1-.66-1.7V54.65h-16.8a2.5 2.5 0 0 1-1.7-.66 2.52 2.52 0 0 1-.65-1.7V42.17c0-.7.22-1.26.66-1.7a2.5 2.5 0 0 1 1.7-.66h50.75c.69 0 1.26.22 1.7.66.44.44.66 1 .66 1.7V52.3c0 .7-.22 1.26-.66 1.7a2.3 2.3 0 0 1-1.7.66h-16.8v48.98c0 .63-.21 1.2-.65 1.7-.44.45-1.01.67-1.7.67h-12.45Zm32.03 0c-.5 0-.97-.2-1.41-.57a2.15 2.15 0 0 1-.57-1.42c0-.38.03-.66.1-.85l22.16-60.7c.2-.76.6-1.4 1.23-1.9a3.8 3.8 0 0 1 2.45-.75h13.96c1.01 0 1.83.25 2.46.75.63.5 1.03 1.14 1.22 1.9l22.08 60.7.19.85a2 2 0 0 1-.66 1.42c-.38.38-.85.57-1.42.57h-11.6c-1.51 0-2.52-.67-3.02-1.99l-3.68-9.64h-25.19L225.7 104c-.5 1.32-1.54 1.99-3.12 1.99h-11.6Zm39.72-25.25-8.78-24.96-8.77 24.96h17.55Zm57.84 26.19c-8.87 0-15.82-2.17-20.85-6.52-4.97-4.35-7.45-10.9-7.45-19.67V42.17c0-.7.22-1.26.66-1.7a2.5 2.5 0 0 1 1.7-.66h12.17c.69 0 1.26.22 1.7.66.5.44.75 1 .75 1.7v38.49c0 4.1.94 7.18 2.83 9.26 1.95 2.02 4.75 3.03 8.4 3.03 3.58 0 6.35-1.04 8.3-3.12 1.95-2.08 2.92-5.14 2.92-9.17V42.17c0-.7.22-1.26.66-1.7a2.5 2.5 0 0 1 1.7-.66h12.26c.7 0 1.26.22 1.7.66.44.44.66 1 .66 1.7v38.58c0 8.76-2.51 15.32-7.54 19.67-4.97 4.35-11.83 6.52-20.57 6.52Zm42.98-.94c-.63 0-1.2-.22-1.7-.67a2.52 2.52 0 0 1-.66-1.7V42.17c0-.7.22-1.26.66-1.7.5-.44 1.07-.66 1.7-.66h25.66c8.24 0 14.65 1.89 19.24 5.67 4.66 3.72 6.98 9.02 6.98 15.89 0 4.4-1.03 8.16-3.1 11.25a19.9 19.9 0 0 1-8.6 7.09l12.93 23.26c.19.38.28.72.28 1.04a2 2 0 0 1-.66 1.42 1.8 1.8 0 0 1-1.32.57h-12.54a3.94 3.94 0 0 1-3.87-2.56l-10.76-20.8h-9.62v21c0 .69-.25 1.25-.75 1.7-.44.44-1 .66-1.7.66H351.5Zm25.47-36.79c2.9 0 5.1-.69 6.6-2.08 1.51-1.45 2.27-3.43 2.27-5.95s-.76-4.51-2.27-5.96c-1.44-1.51-3.64-2.27-6.6-2.27h-10.85v16.26h10.85ZM416.73 106a2.5 2.5 0 0 1-1.7-.67 2.52 2.52 0 0 1-.65-1.7V42.17c0-.7.22-1.26.66-1.7a2.5 2.5 0 0 1 1.7-.66h12.63c.7 0 1.26.22 1.7.66.5.44.76 1 .76 1.7v61.46c0 .7-.25 1.26-.76 1.7-.44.45-1 .67-1.7.67h-12.64Z" fill="#F7F7F7"/><path d="M85.76 49.92A13.1 13.1 0 0 1 72.62 63a13.1 13.1 0 0 1-13.14-13.08 13.1 13.1 0 0 1 13.14-13.07 13.1 13.1 0 0 1 13.14 13.07Z" fill="#FFC131"/><path d="M63.74 86.66A13.1 13.1 0 0 1 50.6 99.73a13.1 13.1 0 0 1-13.15-13.07A13.1 13.1 0 0 1 50.6 73.58a13.1 13.1 0 0 1 13.14 13.08Z" fill="#24C8DB"/><path d="M40.58 38.15C17.9 42.77.84 62.73.84 86.65c0 27.35 22.28 49.51 49.76 49.51a49.75 49.75 0 0 0 47.51-34.78 57.88 57.88 0 0 1-19.03 5.55A35.02 35.02 0 0 1 50.6 121.5a34.93 34.93 0 0 1-35.02-34.84 34.87 34.87 0 0 1 22.97-32.73 34.8 34.8 0 0 1 2.03-15.78Z" fill="#24C8DB"/><path fill-rule="evenodd" clip-rule="evenodd" d="M82.64 98.43c22.67-4.61 39.74-24.58 39.74-48.5C122.38 22.57 100.1.41 72.62.41A49.75 49.75 0 0 0 25.11 35.2a57.87 57.87 0 0 1 19.03-5.55 35.03 35.03 0 0 1 28.48-14.57 34.93 34.93 0 0 1 35.02 34.84 34.87 34.87 0 0 1-22.97 32.73 34.8 34.8 0 0 1-2.03 15.78Z" fill="#FFC131"/></svg>
