<svg width="745" height="234" viewBox="0 0 745 234" fill="none" xmlns="http://www.w3.org/2000/svg">
<path d="M307.729 182C306.643 182 305.665 181.62 304.795 180.859C304.035 179.99 303.654 179.012 303.654 177.925V93.491H274.64C273.554 93.491 272.576 93.1107 271.706 92.35C270.946 91.4807 270.565 90.5027 270.565 89.416V71.975C270.565 70.7797 270.946 69.8017 271.706 69.041C272.576 68.2804 273.554 67.9 274.64 67.9H362.334C363.53 67.9 364.508 68.2804 365.268 69.041C366.029 69.8017 366.409 70.7797 366.409 71.975V89.416C366.409 90.6114 366.029 91.5894 365.268 92.35C364.508 93.1107 363.53 93.491 362.334 93.491H333.32V177.925C333.32 179.012 332.94 179.99 332.179 180.859C331.419 181.62 330.441 182 329.245 182H307.729Z" fill="#F7F7F7"/>
<path d="M363.083 182C362.214 182 361.399 181.674 360.638 181.022C359.986 180.261 359.66 179.446 359.66 178.577C359.66 177.925 359.715 177.436 359.823 177.11L398.128 72.464C398.454 71.16 399.161 70.0734 400.247 69.204C401.334 68.3347 402.747 67.9 404.485 67.9H428.609C430.348 67.9 431.761 68.3347 432.847 69.204C433.934 70.0734 434.64 71.16 434.966 72.464L473.108 177.11L473.434 178.577C473.434 179.446 473.054 180.261 472.293 181.022C471.641 181.674 470.826 182 469.848 182H449.799C447.191 182 445.453 180.859 444.583 178.577L438.226 161.951H394.705L388.511 178.577C387.642 180.859 385.849 182 383.132 182H363.083ZM431.706 138.479L416.547 95.447L401.388 138.479H431.706Z" fill="#F7F7F7"/>
<path d="M531.657 183.63C516.335 183.63 504.327 179.881 495.634 172.383C487.049 164.885 482.757 153.584 482.757 138.479V71.975C482.757 70.7797 483.137 69.8017 483.898 69.041C484.767 68.2804 485.745 67.9 486.832 67.9H507.859C509.054 67.9 510.032 68.2804 510.793 69.041C511.662 69.8017 512.097 70.7797 512.097 71.975V138.316C512.097 145.379 513.727 150.704 516.987 154.29C520.356 157.767 525.191 159.506 531.494 159.506C537.688 159.506 542.469 157.713 545.838 154.127C549.207 150.541 550.891 145.271 550.891 138.316V71.975C550.891 70.7797 551.271 69.8017 552.032 69.041C552.901 68.2804 553.879 67.9 554.966 67.9H576.156C577.351 67.9 578.329 68.2804 579.09 69.041C579.851 69.8017 580.231 70.7797 580.231 71.975V138.479C580.231 153.584 575.884 164.885 567.191 172.383C558.606 179.881 546.762 183.63 531.657 183.63Z" fill="#F7F7F7"/>
<path d="M605.921 182C604.835 182 603.857 181.62 602.987 180.859C602.227 179.99 601.846 179.012 601.846 177.925V71.975C601.846 70.7797 602.227 69.8017 602.987 69.041C603.857 68.2804 604.835 67.9 605.921 67.9H650.257C664.493 67.9 675.577 71.16 683.509 77.68C691.551 84.0914 695.571 93.2194 695.571 105.064C695.571 112.671 693.778 119.136 690.192 124.461C686.606 129.786 681.662 133.861 675.359 136.686L697.69 176.784C698.016 177.436 698.179 178.034 698.179 178.577C698.179 179.446 697.799 180.261 697.038 181.022C696.386 181.674 695.626 182 694.756 182H673.077C669.926 182 667.698 180.533 666.394 177.599L647.812 141.739H631.186V177.925C631.186 179.12 630.752 180.098 629.882 180.859C629.122 181.62 628.144 182 626.948 182H605.921ZM649.931 118.593C654.93 118.593 658.733 117.398 661.341 115.007C663.949 112.508 665.253 109.085 665.253 104.738C665.253 100.391 663.949 96.9684 661.341 94.469C658.842 91.861 655.039 90.557 649.931 90.557H631.186V118.593H649.931Z" fill="#F7F7F7"/>
<path d="M718.621 182C717.534 182 716.556 181.62 715.687 180.859C714.926 179.99 714.546 179.012 714.546 177.925V71.975C714.546 70.7797 714.926 69.8017 715.687 69.041C716.556 68.2804 717.534 67.9 718.621 67.9H740.463C741.658 67.9 742.636 68.2804 743.397 69.041C744.266 69.8017 744.701 70.7797 744.701 71.975V177.925C744.701 179.12 744.266 180.098 743.397 180.859C742.636 181.62 741.658 182 740.463 182H718.621Z" fill="#F7F7F7"/>
<path d="M146.737 85.3396C146.737 97.7882 136.571 107.88 124.031 107.88C111.491 107.88 101.325 97.7882 101.325 85.3396C101.325 72.8911 111.491 62.7995 124.031 62.7995C136.571 62.7995 146.737 72.8911 146.737 85.3396Z" fill="#FFC131"/>
<path d="M108.675 148.66C108.675 161.109 98.509 171.2 85.9687 171.2C73.4284 171.2 63.2624 161.109 63.2624 148.66C63.2624 136.212 73.4284 126.12 85.9687 126.12C98.509 126.12 108.675 136.212 108.675 148.66Z" fill="#24C8DB"/>
<path d="M68.6674 65.0496C29.4808 72.9978 0 107.411 0 148.66C0 195.792 38.4895 234 85.9687 234C124.544 234 157.186 208.778 168.071 174.041C157.795 179.069 146.672 182.324 135.184 183.608C124.206 198.815 106.253 208.724 85.9687 208.724C52.552 208.724 25.4625 181.833 25.4625 148.66C25.4625 122.75 41.9901 100.671 65.151 92.2465C64.2114 83.0945 65.3836 73.7693 68.6674 65.0496Z" fill="#24C8DB"/>
<path fill-rule="evenodd" clip-rule="evenodd" d="M141.332 168.95C180.519 161.002 210 126.589 210 85.3396C210 38.2079 171.51 0 124.031 0C85.4557 0 52.8143 25.2216 41.9287 59.9589C52.2052 54.9313 63.3279 51.6765 74.816 50.3919C85.7939 35.1847 103.747 25.2762 124.031 25.2762C157.448 25.2762 184.538 52.1675 184.538 85.3396C184.538 111.25 168.01 133.329 144.849 141.754C145.788 150.906 144.616 160.231 141.332 168.95Z" fill="#FFC131"/>
</svg>
