# Blender 3.6.0
# www.blender.org
mtllib apptest.mtl
o Cube
v -3.900362 -4.270546 -7.771528
v -3.900362 4.270546 -7.771528
v 3.899638 -4.270546 -7.771528
v 3.899638 4.270546 -7.771528
v -3.900362 -2.201377 -0.971528
v -3.900362 2.201377 -0.971528
v 3.899639 -2.201377 -0.971529
v 3.899639 2.201377 -0.971529
vn 1.0000 -0.0000 -0.0000
vn -1.0000 -0.0000 -0.0000
vn -0.0000 -0.9567 0.2911
vn -0.0000 0.9567 0.2911
vt 0.375000 0.250000
vt 0.625000 0.250000
vt 0.625000 0.500000
vt 0.375000 0.500000
vt 0.375000 0.750000
vt 0.625000 0.750000
vt 0.625000 1.000000
vt 0.375000 1.000000
vt 0.125000 0.500000
vt 0.125000 0.750000
vt 0.875000 0.500000
vt 0.875000 0.750000
s 0
usemtl lightblock
f 3/1/1 4/2/1 8/3/1 7/4/1
f 5/5/2 6/6/2 2/7/2 1/8/2
f 3/9/3 7/4/3 5/5/3 1/10/3
f 8/3/4 4/11/4 2/12/4 6/6/4
o Cube.001
v -4.153967 2.257169 -0.992204
v -4.148993 2.305949 -0.992204
v -4.134260 2.352855 -0.992204
v -4.110335 2.396083 -0.992204
v -4.078138 2.433974 -0.992204
v -4.038906 2.465069 -0.992204
v -3.994147 2.488175 -0.992204
v -3.945580 2.502404 -0.992204
v -3.895072 2.507208 -0.992204
v -4.153967 -2.257169 -0.992204
v -4.148993 -2.305949 -0.992204
v -4.134260 -2.352855 -0.992204
v -4.110335 -2.396083 -0.992204
v -4.078138 -2.433974 -0.992204
v -4.038906 -2.465069 -0.992204
v -3.994147 -2.488175 -0.992204
v -3.945580 -2.502404 -0.992204
v -3.895072 -2.507208 -0.992204
v 4.153244 2.257169 -0.992205
v 4.148270 2.305949 -0.992205
v 4.133537 2.352855 -0.992205
v 4.109612 2.396083 -0.992205
v 4.077415 2.433974 -0.992205
v 4.038183 2.465069 -0.992205
v 3.993424 2.488175 -0.992205
v 3.944858 2.502404 -0.992205
v 3.894350 2.507208 -0.992205
v 4.153244 -2.257169 -0.992205
v 4.148270 -2.305949 -0.992205
v 4.133537 -2.352855 -0.992205
v 4.109612 -2.396083 -0.992205
v 4.077415 -2.433974 -0.992205
v 4.038183 -2.465069 -0.992205
v 3.993424 -2.488175 -0.992205
v 3.944858 -2.502404 -0.992205
v 3.894350 -2.507208 -0.992205
v -1.600361 -0.900272 -0.856245
v -1.500633 -1.000000 -0.856245
v -1.598445 -0.919728 -0.856245
v -1.592770 -0.938436 -0.856245
v -1.583554 -0.955678 -0.856245
v -1.571151 -0.970790 -0.856245
v -1.556039 -0.983193 -0.856245
v -1.538797 -0.992409 -0.856245
v -1.520089 -0.998084 -0.856245
v -1.500633 1.000000 -0.856245
v -1.600361 0.900272 -0.856245
v -1.520089 0.998084 -0.856245
v -1.538797 0.992409 -0.856245
v -1.556039 0.983193 -0.856245
v -1.571151 0.970790 -0.856245
v -1.583554 0.955678 -0.856245
v -1.592770 0.938436 -0.856245
v -1.598445 0.919728 -0.856245
v 1.499911 -1.000000 -0.856245
v 1.599639 -0.900272 -0.856245
v 1.519367 -0.998084 -0.856245
v 1.538075 -0.992409 -0.856245
v 1.555316 -0.983193 -0.856245
v 1.570429 -0.970790 -0.856245
v 1.582832 -0.955678 -0.856245
v 1.592047 -0.938436 -0.856245
v 1.597722 -0.919728 -0.856245
v 1.599639 0.900272 -0.856245
v 1.499911 1.000000 -0.856245
v 1.597722 0.919728 -0.856245
v 1.592047 0.938436 -0.856245
v 1.582832 0.955678 -0.856245
v 1.570429 0.970790 -0.856245
v 1.555316 0.983193 -0.856245
v 1.538075 0.992409 -0.856245
v 1.519367 0.998084 -0.856245
v 1.499911 -1.000000 -0.871529
v 1.519367 -0.998084 -0.871529
v 1.538075 -0.992409 -0.871529
v 1.555316 -0.983193 -0.871529
v 1.570429 -0.970790 -0.871529
v 1.582832 -0.955678 -0.871529
v 1.592047 -0.938436 -0.871529
v 1.597722 -0.919728 -0.871529
v 1.599639 -0.900272 -0.871529
v 1.499911 1.000000 -0.871529
v 1.519367 0.998084 -0.871529
v 1.538075 0.992409 -0.871529
v 1.555316 0.983193 -0.871529
v 1.570429 0.970790 -0.871529
v 1.582832 0.955678 -0.871529
v 1.592047 0.938436 -0.871529
v 1.597722 0.919728 -0.871529
v 1.599639 0.900272 -0.871529
v -1.500633 -1.000000 -0.871529
v -1.520089 -0.998084 -0.871529
v -1.538797 -0.992409 -0.871529
v -1.556039 -0.983193 -0.871529
v -1.571151 -0.970790 -0.871529
v -1.583554 -0.955678 -0.871529
v -1.592770 -0.938436 -0.871529
v -1.598445 -0.919728 -0.871529
v -1.600361 -0.900272 -0.871529
v -1.500633 1.000000 -0.871529
v -1.520089 0.998084 -0.871529
v -1.538797 0.992409 -0.871529
v -1.556039 0.983193 -0.871529
v -1.571151 0.970790 -0.871529
v -1.583554 0.955678 -0.871529
v -1.592770 0.938436 -0.871529
v -1.598445 0.919728 -0.871529
v -1.600361 0.900272 -0.871529
v 1.514557 -0.992949 -0.856245
v 1.495163 -0.994855 -0.856245
v 1.533207 -0.987303 -0.856245
v 1.550394 -0.978135 -0.856245
v 1.565458 -0.965796 -0.856245
v 1.577822 -0.950761 -0.856245
v 1.587008 -0.933608 -0.856245
v 1.592665 -0.914996 -0.856245
v 1.594576 -0.895640 -0.856245
v 1.495163 0.994855 -0.856245
v 1.514557 0.992949 -0.856245
v 1.533207 0.987303 -0.856245
v 1.550394 0.978135 -0.856245
v 1.565458 0.965796 -0.856245
v 1.577822 0.950761 -0.856245
v 1.587008 0.933608 -0.856245
v 1.592665 0.914996 -0.856245
v 1.594576 0.895640 -0.856245
v -1.495885 -0.994855 -0.856245
v -1.515280 -0.992949 -0.856245
v -1.533929 -0.987303 -0.856245
v -1.551116 -0.978135 -0.856245
v -1.566181 -0.965796 -0.856245
v -1.578544 -0.950761 -0.856245
v -1.587731 -0.933608 -0.856245
v -1.593388 -0.914996 -0.856245
v -1.595298 -0.895640 -0.856245
v -1.515280 0.992949 -0.856245
v -1.495885 0.994855 -0.856245
v -1.533929 0.987303 -0.856245
v -1.551116 0.978135 -0.856245
v -1.566181 0.965796 -0.856245
v -1.578544 0.950761 -0.856245
v -1.587731 0.933608 -0.856245
v -1.593388 0.914996 -0.856245
v -1.595298 0.895640 -0.856245
v 1.514557 -0.992949 -0.867297
v 1.495163 -0.994855 -0.867297
v 1.533207 -0.987303 -0.867297
v 1.550394 -0.978135 -0.867297
v 1.565458 -0.965796 -0.867297
v 1.577822 -0.950761 -0.867297
v 1.587008 -0.933608 -0.867297
v 1.592665 -0.914996 -0.867297
v 1.594576 -0.895640 -0.867297
v 1.495163 0.994855 -0.867297
v 1.514557 0.992949 -0.867297
v 1.533207 0.987303 -0.867297
v 1.550394 0.978135 -0.867297
v 1.565458 0.965796 -0.867297
v 1.577822 0.950761 -0.867297
v 1.587008 0.933608 -0.867297
v 1.592665 0.914996 -0.867297
v 1.594576 0.895640 -0.867297
v -1.495885 -0.994855 -0.867297
v -1.515280 -0.992949 -0.867297
v -1.533929 -0.987303 -0.867297
v -1.551116 -0.978135 -0.867297
v -1.566181 -0.965796 -0.867297
v -1.578544 -0.950761 -0.867297
v -1.587731 -0.933608 -0.867297
v -1.593388 -0.914996 -0.867297
v -1.595298 -0.895640 -0.867297
v -1.515280 0.992949 -0.867297
v -1.495885 0.994855 -0.867297
v -1.533929 0.987303 -0.867297
v -1.551116 0.978135 -0.867297
v -1.566181 0.965796 -0.867297
v -1.578544 0.950761 -0.867297
v -1.587731 0.933608 -0.867297
v -1.593388 0.914996 -0.867297
v -1.595298 0.895640 -0.867297
vn -0.0297 0.0315 0.9991
vn -0.0245 0.0402 0.9989
vn -0.0260 0.0377 0.9989
vn -0.0304 0.0302 0.9991
vn -0.0000 -0.0000 1.0000
vn 0.0385 0.0160 0.9991
vn 0.0430 0.0078 0.9990
vn 0.0422 0.0094 0.9991
vn 0.0383 0.0165 0.9991
vn 0.9988 -0.0491 -0.0000
vn 0.9988 0.0491 -0.0000
vn 0.0181 -0.0509 0.9985
vn 0.0090 -0.0655 0.9978
vn 0.0140 -0.0575 0.9982
vn 0.0208 -0.0465 0.9987
vn -0.0342 0.0237 0.9991
vn -0.0344 0.0233 0.9991
vn 0.0463 0.0016 0.9989
vn 0.0457 0.0029 0.9990
vn 0.0245 -0.0402 0.9989
vn 0.0260 -0.0377 0.9989
vn -0.0385 0.0160 0.9991
vn -0.0383 0.0165 0.9991
vn -0.0014 -0.0777 0.9970
vn -0.0090 -0.0655 0.9978
vn -0.0140 -0.0575 0.9982
vn -0.0054 -0.0712 0.9974
vn 0.0297 -0.0315 0.9991
vn 0.0304 -0.0302 0.9991
vn -0.0430 0.0078 0.9990
vn -0.0422 0.0094 0.9991
vn 0.0491 0.9988 -0.0000
vn 0.1951 0.9808 -0.0000
vn 0.3827 0.9239 -0.0000
vn 0.5556 0.8315 -0.0000
vn 0.7071 0.7071 -0.0000
vn 0.8315 0.5556 -0.0000
vn 0.9239 0.3827 -0.0000
vn 0.9808 0.1951 -0.0000
vn -0.0491 -0.9988 -0.0000
vn -0.1951 -0.9808 -0.0000
vn -0.3827 -0.9239 -0.0000
vn -0.5556 -0.8315 -0.0000
vn -0.7071 -0.7071 -0.0000
vn -0.8315 -0.5556 -0.0000
vn -0.9239 -0.3827 -0.0000
vn -0.9808 -0.1951 -0.0000
vn -0.9988 -0.0491 -0.0000
vn -0.0181 -0.0509 0.9985
vn -0.0208 -0.0465 0.9987
vn 0.0342 -0.0237 0.9991
vn 0.0344 -0.0233 0.9991
vn -0.0463 0.0016 0.9989
vn -0.0457 0.0029 0.9990
vn -0.0245 -0.0402 0.9989
vn -0.0260 -0.0377 0.9989
vn 0.0385 -0.0160 0.9991
vn 0.0383 -0.0165 0.9991
vn 0.0014 -0.0777 0.9970
vn 0.0054 -0.0712 0.9974
vn -0.0297 -0.0315 0.9991
vn -0.0304 -0.0302 0.9991
vn 0.0430 -0.0078 0.9990
vn 0.0422 -0.0094 0.9991
vn 0.0491 -0.9988 -0.0000
vn -0.0342 -0.0237 0.9991
vn -0.0344 -0.0233 0.9991
vn -0.9808 0.1951 -0.0000
vn -0.9988 0.0491 -0.0000
vn -0.9239 0.3827 -0.0000
vn -0.8315 0.5556 -0.0000
vn -0.7071 0.7071 -0.0000
vn -0.5556 0.8315 -0.0000
vn -0.3827 0.9239 -0.0000
vn -0.1951 0.9808 -0.0000
vn -0.0491 0.9988 -0.0000
vn 0.0463 -0.0016 0.9989
vn 0.0457 -0.0029 0.9990
vn -0.0385 -0.0160 0.9991
vn -0.0383 -0.0165 0.9991
vn 0.0014 0.0777 0.9970
vn 0.0090 0.0655 0.9978
vn 0.0140 0.0575 0.9982
vn 0.0054 0.0712 0.9974
vn -0.0430 -0.0078 0.9990
vn -0.0422 -0.0094 0.9991
vn 0.0181 0.0509 0.9985
vn 0.0208 0.0465 0.9987
vn -0.0463 -0.0016 0.9989
vn -0.0457 -0.0029 0.9990
vn 0.0245 0.0402 0.9989
vn 0.0260 0.0377 0.9989
vn -0.0090 0.0655 0.9978
vn -0.0014 0.0777 0.9970
vn -0.0054 0.0712 0.9974
vn -0.0140 0.0575 0.9982
vn 0.0297 0.0315 0.9991
vn 0.0304 0.0302 0.9991
vn -0.0181 0.0509 0.9985
vn -0.0208 0.0465 0.9987
vn 0.0342 0.0237 0.9991
vn 0.0344 0.0233 0.9991
vn 0.9808 -0.1951 -0.0000
vn 0.9239 -0.3827 -0.0000
vn 0.8315 -0.5556 -0.0000
vn 0.7071 -0.7071 -0.0000
vn 0.5556 -0.8315 -0.0000
vn 0.3827 -0.9239 -0.0000
vn 0.1951 -0.9808 -0.0000
vn 0.9988 0.0492 -0.0000
vn 0.9807 0.1955 -0.0000
vn -0.5548 -0.8320 -0.0000
vn -0.3820 -0.9241 -0.0000
vn 0.0490 -0.9988 -0.0000
vn 0.1947 -0.9809 -0.0000
vn -0.7064 -0.7078 -0.0000
vn 0.3820 -0.9241 -0.0000
vn -0.8310 -0.5563 -0.0000
vn 0.5548 -0.8320 -0.0000
vn -0.9236 -0.3833 -0.0000
vn -0.0490 0.9988 -0.0000
vn -0.1947 0.9809 -0.0000
vn 0.7064 -0.7078 -0.0000
vn -0.9807 -0.1955 -0.0000
vn -0.3820 0.9241 -0.0000
vn 0.8310 -0.5563 -0.0000
vn -0.9988 -0.0492 -0.0000
vn -0.5548 0.8320 -0.0000
vn 0.9236 -0.3833 -0.0000
vn 0.1947 0.9809 -0.0000
vn 0.0490 0.9988 -0.0000
vn -0.7064 0.7078 -0.0000
vn 0.9807 -0.1955 -0.0000
vn 0.3820 0.9241 -0.0000
vn -0.8310 0.5563 -0.0000
vn 0.9988 -0.0492 -0.0000
vn 0.5548 0.8320 -0.0000
vn -0.9236 0.3833 -0.0000
vn 0.7064 0.7078 -0.0000
vn -0.9807 0.1955 -0.0000
vn 0.8310 0.5563 -0.0000
vn -0.9988 0.0492 -0.0000
vn -0.0490 -0.9988 -0.0000
vn 0.9236 0.3833 -0.0000
vn -0.1947 -0.9809 -0.0000
vt 0.750000 0.750000
vt 0.750000 0.746537
vt 0.387466 0.750000
vt 0.385034 0.750000
vt 0.617305 0.375000
vt 0.614966 0.375000
vt 0.387466 0.375000
vt 0.612534 0.375000
vt 0.612534 0.500000
vt 0.387466 0.500000
vt 0.250000 0.504810
vt 0.250000 0.506271
vt 0.619460 0.875000
vt 0.625000 0.875000
vt 0.250000 0.503463
vt 0.617305 0.875000
vt 0.250000 0.742209
vt 0.250000 0.743729
vt 0.250000 0.500000
vt 0.614966 0.875000
vt 0.750000 0.507791
vt 0.625000 0.507791
vt 0.625000 0.506271
vt 0.750000 0.506271
vt 0.625000 0.504810
vt 0.750000 0.504810
vt 0.625000 0.503463
vt 0.750000 0.503463
vt 0.625000 0.500000
vt 0.750000 0.500000
vt 0.625000 0.375000
vt 0.619460 0.500000
vt 0.619460 0.375000
vt 0.617305 0.500000
vt 0.614966 0.500000
vt 0.375000 0.742209
vt 0.375000 0.743729
vt 0.375000 0.745190
vt 0.250000 0.745190
vt 0.375000 0.746537
vt 0.250000 0.746537
vt 0.375000 0.750000
vt 0.250000 0.750000
vt 0.375000 0.875000
vt 0.380540 0.750000
vt 0.380540 0.875000
vt 0.382695 0.750000
vt 0.382695 0.875000
vt 0.385034 0.875000
vt 0.387466 0.875000
vt 0.380540 0.375000
vt 0.375000 0.375000
vt 0.612534 0.875000
vt 0.382695 0.375000
vt 0.250000 0.507791
vt 0.385034 0.375000
vt 0.375000 0.507791
vt 0.614966 0.750000
vt 0.612534 0.750000
vt 0.617305 0.750000
vt 0.619460 0.750000
vt 0.625000 0.750000
vt 0.625000 0.746537
vt 0.625000 0.745190
vt 0.750000 0.745190
vt 0.625000 0.743729
vt 0.750000 0.743729
vt 0.625000 0.742209
vt 0.750000 0.742209
vt 0.385034 0.500000
vt 0.382695 0.500000
vt 0.380540 0.500000
vt 0.375000 0.500000
vt 0.375000 0.503463
vt 0.375000 0.504810
vt 0.375000 0.506271
s 1
usemtl lightblock
f 112/13/5 111/14/6 14/14/7 13/13/8
f 96/17/10 97/18/11 28/18/12 29/17/13
f 83/23/16 82/24/17 43/24/18 42/23/19
f 113/25/20 112/26/5 13/26/8 12/25/21
f 97/18/11 98/20/22 27/20/23 28/18/12
f 84/27/24 83/23/16 42/23/19 41/27/25
f 114/28/26 113/25/20 12/25/21 11/28/27
f 99/29/28 100/30/29 25/30/30 26/29/31
f 85/31/32 84/27/24 41/27/25 40/31/33
f 115/32/34 114/28/26 11/28/27 10/32/35
f 100/30/29 101/51/53 24/51/54 25/30/30
f 86/63/55 85/64/32 40/64/33 39/63/56
f 116/65/57 115/32/34 10/32/35 9/65/58
f 101/51/53 102/53/59 23/53/60 24/51/54
f 87/66/61 86/63/55 39/63/56 38/66/62
f 81/67/63 99/29/28 26/29/31 44/67/64
f 102/53/59 103/55/65 22/55/66 23/53/60
f 88/68/67 87/66/61 38/66/62 37/68/68
f 103/56/65 104/58/70 21/58/71 22/56/66
f 89/19/81 88/68/67 37/68/68 36/19/82
f 104/58/70 105/60/83 20/60/84 21/58/71
f 90/33/85 91/36/86 34/36/87 35/33/88
f 105/60/83 106/61/89 19/61/90 20/60/84
f 91/36/86 92/38/91 33/38/92 34/36/87
f 106/61/89 107/62/93 18/62/94 19/61/90
f 92/38/91 93/40/95 32/40/96 33/38/92
f 107/62/93 116/65/57 9/65/58 18/62/94
f 109/79/97 108/81/98 17/81/99 16/79/100
f 93/40/95 94/42/101 31/42/102 32/40/96
f 108/81/98 90/33/85 35/33/88 17/81/99
f 110/77/103 109/79/97 16/79/100 15/77/104
f 94/43/101 95/45/105 30/45/106 31/43/102
f 98/20/22 89/19/81 36/19/82 27/20/23
f 111/14/6 110/77/103 15/77/104 14/14/7
f 95/45/105 96/17/10 29/17/13 30/45/106
f 82/24/17 81/67/63 44/67/64 43/24/18
usemtl Material
f 45/15/9 47/16/9 142/16/9 143/15/9
f 89/19/14 98/20/15 72/21/15 64/22/14
f 90/33/36 73/34/36 80/35/37 91/36/37
f 91/36/37 80/35/37 79/37/38 92/38/38
f 92/38/38 79/37/38 78/39/39 93/40/39
f 93/40/39 78/39/39 77/41/40 94/42/40
f 94/43/40 77/41/40 76/44/41 95/45/41
f 95/45/41 76/44/41 75/46/42 96/17/42
f 96/17/42 75/46/42 74/47/43 97/18/43
f 97/18/43 74/47/43 72/21/15 98/20/15
f 99/29/44 46/48/44 53/49/45 100/30/45
f 100/30/45 53/49/45 52/50/46 101/51/46
f 101/51/46 52/50/46 51/52/47 102/53/47
f 102/53/47 51/52/47 50/54/48 103/55/48
f 103/56/48 50/54/48 49/57/49 104/58/49
f 104/58/49 49/57/49 48/59/50 105/60/50
f 105/60/50 48/59/50 47/16/51 106/61/51
f 106/61/51 47/16/51 45/15/52 107/62/52
f 81/67/69 63/69/69 46/48/44 99/29/44
f 62/70/72 115/32/72 116/65/73 55/71/73
f 61/72/74 114/28/74 115/32/72 62/70/72
f 60/73/75 113/25/75 114/28/74 61/72/74
f 59/74/76 112/26/76 113/25/75 60/73/75
f 58/75/77 111/14/77 112/13/76 59/74/76
f 57/76/78 110/77/78 111/14/77 58/75/77
f 56/78/79 109/79/79 110/77/78 57/76/78
f 54/80/80 108/81/80 109/79/79 56/78/79
f 71/82/107 88/68/107 89/19/14 64/22/14
f 70/83/108 87/66/108 88/68/107 71/82/107
f 69/84/109 86/63/109 87/66/108 70/83/108
f 68/85/110 85/64/110 86/63/109 69/84/109
f 67/86/111 84/27/111 85/31/110 68/85/110
f 66/87/112 83/23/112 84/27/111 67/86/111
f 65/88/113 82/24/113 83/23/112 66/87/112
f 63/69/69 81/67/69 82/24/113 65/88/113
f 73/34/36 90/33/36 108/81/80 54/80/80
f 45/15/52 55/71/73 116/65/73 107/62/52
f 143/15/114 142/16/115 178/16/115 179/15/114
f 78/39/9 79/37/9 128/37/9 129/39/9
f 66/87/9 67/86/9 120/86/9 119/87/9
f 46/48/9 63/69/9 118/69/9 135/48/9
f 50/54/9 51/52/9 138/52/9 139/54/9
f 59/74/9 60/73/9 149/73/9 148/74/9
f 72/21/9 74/47/9 133/47/9 134/21/9
f 54/80/9 56/78/9 144/78/9 145/80/9
f 71/82/9 64/22/9 125/22/9 124/82/9
f 77/41/9 78/39/9 129/39/9 130/41/9
f 67/86/9 68/85/9 121/85/9 120/86/9
f 49/57/9 50/54/9 139/54/9 140/57/9
f 60/73/9 61/72/9 150/72/9 149/73/9
f 55/71/9 45/15/9 143/15/9 152/71/9
f 53/49/9 46/48/9 135/48/9 136/49/9
f 56/78/9 57/76/9 146/76/9 144/78/9
f 73/34/9 54/80/9 145/80/9 126/34/9
f 76/44/9 77/41/9 130/41/9 131/44/9
f 68/85/9 69/84/9 122/84/9 121/85/9
f 64/22/9 72/21/9 134/21/9 125/22/9
f 48/59/9 49/57/9 140/57/9 141/59/9
f 63/69/9 65/88/9 117/88/9 118/69/9
f 61/72/9 62/70/9 151/70/9 150/72/9
f 80/35/9 73/34/9 126/34/9 127/35/9
f 52/50/9 53/49/9 136/49/9 137/50/9
f 57/76/9 58/75/9 147/75/9 146/76/9
f 75/46/9 76/44/9 131/44/9 132/46/9
f 69/84/9 70/83/9 123/83/9 122/84/9
f 47/16/9 48/59/9 141/59/9 142/16/9
f 62/70/9 55/71/9 152/71/9 151/70/9
f 79/37/9 80/35/9 127/35/9 128/37/9
f 65/88/9 66/87/9 119/87/9 117/88/9
f 51/52/9 52/50/9 137/50/9 138/52/9
f 58/75/9 59/74/9 148/74/9 147/75/9
f 74/47/9 75/46/9 132/46/9 133/47/9
f 70/83/9 71/82/9 124/82/9 123/83/9
f 129/39/116 128/37/117 164/37/117 165/39/116
f 145/80/118 144/78/119 180/78/119 181/80/118
f 130/41/120 129/39/116 165/39/116 166/41/120
f 144/78/119 146/76/121 182/76/121 180/78/119
f 131/44/122 130/41/120 166/41/120 167/44/122
f 146/76/121 147/75/123 183/75/123 182/76/121
f 132/46/124 131/44/122 167/44/122 168/46/124
f 118/69/125 117/88/126 153/88/126 154/69/125
f 147/75/123 148/74/127 184/74/127 183/75/123
f 133/47/128 132/46/124 168/46/124 169/47/128
f 117/88/126 119/87/129 155/87/129 153/88/126
f 148/74/127 149/73/130 185/73/130 184/74/127
f 134/21/131 133/47/128 169/47/128 170/21/131
f 119/87/129 120/86/132 156/86/132 155/87/129
f 149/73/130 150/72/133 186/72/133 185/73/130
f 136/49/134 135/48/135 171/48/135 172/49/134
f 120/86/132 121/85/136 157/85/136 156/86/132
f 150/72/133 151/70/137 187/70/137 186/72/133
f 137/50/138 136/49/134 172/49/134 173/50/138
f 121/85/136 122/84/139 158/84/139 157/85/136
f 151/70/137 152/71/140 188/71/140 187/70/137
f 138/52/141 137/50/138 173/50/138 174/52/141
f 122/84/139 123/83/142 159/83/142 158/84/139
f 135/48/135 118/69/125 154/69/125 171/48/135
f 139/54/143 138/52/141 174/52/141 175/54/143
f 123/83/142 124/82/144 160/82/144 159/83/142
f 152/71/140 143/15/114 179/15/114 188/71/140
f 140/57/145 139/54/143 175/54/143 176/57/145
f 124/82/144 125/22/146 161/22/146 160/82/144
f 126/34/147 145/80/118 181/80/118 162/34/147
f 141/59/148 140/57/145 176/57/145 177/59/148
f 127/35/149 126/34/147 162/34/147 163/35/149
f 125/22/146 134/21/131 170/21/131 161/22/146
f 142/16/115 141/59/148 177/59/148 178/16/115
f 128/37/117 127/35/149 163/35/149 164/37/117
o Plane
v -2.341436 -2.341074 -1.659638
v 2.340712 -2.341074 -1.659639
v -2.341435 2.341074 -1.659639
v 2.340713 2.341074 -1.659639
vn -0.0000 -0.0000 1.0000
vt 0.000000 0.000000
vt 1.000000 0.000000
vt 1.000000 1.000000
vt 0.000000 1.000000
s 0
usemtl [EM]window
f 189/89/150 190/90/150 192/91/150 191/92/150
